<?xml version="1.0" encoding="UTF-8"?>
<svg id="Layer_1" data-name="Layer 1" xmlns="http://www.w3.org/2000/svg" xmlns:xlink="http://www.w3.org/1999/xlink" viewBox="0 0 303.09 256.59">
  <defs>
    <clipPath id="clippath">
      <rect x="5.77" y="28.92" width="250.94" height="227.67" style="fill: none;"/>
    </clipPath>
    <clipPath id="clippath-1">
      <rect x="5.77" y="28.92" width="250.94" height="227.67" style="fill: none;"/>
    </clipPath>
    <clipPath id="clippath-2">
      <rect width="303.09" height="255.83" style="fill: none;"/>
    </clipPath>
  </defs>
  <g style="clip-path: url(#clippath);">
    <g style="clip-path: url(#clippath-1);">
      <path d="M9.19,256.52l245.33-55.48c2.42-.55,2.99-3.72.92-5.08L45.76,58.44c-1.68-1.1-3.93-.14-4.3,1.84L5.82,253.27c-.37,1.98,1.41,3.69,3.38,3.25" style="fill: #28a8df;"/>
      <g style="opacity: .25;">
        <g style="clip-path: url(#clippath-2);">
          <path d="M105.48,29.84L10.15,134.68c-1.28,1.4-.82,3.64.91,4.44l217.61,99.89c2.5,1.15,4.99-1.62,3.58-3.99L109.97,30.29c-.96-1.62-3.22-1.84-4.48-.45" style="fill: #28a8df;"/>
        </g>
      </g>
    </g>
  </g>
</svg>