<?xml version="1.0" encoding="UTF-8"?>
<svg id="Layer_1" xmlns="http://www.w3.org/2000/svg" version="1.1" viewBox="0 0 311.8 261.3">
  <!-- Generator: Adobe Illustrator 29.2.0, SVG Export Plug-In . SVG Version: 2.1.0 Build 108)  -->
  <defs>
    <style>
      .st0 {
        stroke: #26a8df;
        stroke-miterlimit: 10;
        stroke-width: .5px;
      }

      .st0, .st1 {
        fill: #26a8df;
      }

      .st2 {
        fill: #303030;
      }

      .st3 {
        fill: #fafafa;
      }
    </style>
  </defs>
  <path class="st3" d="M272.9,261.3c-5,0-9.7-.9-14.2-2.7l-17.9-6.8-60.1-1c-4,3.1-9,4.8-14.2,4.8H61.7c-.5,0-1,0-1.5,0h-25.2c-9.6,0-18.4-3.9-24.9-10.9-6.5-6.9-9.8-16.2-9-25.7l2.9-41.3c.1-2.1.8-4,1.9-5.6.6-6.1,1.3-13,2.2-20.6C-1.4,106.9-.2,102.7.5,100.3c.4-1.4.8-2.5,1.3-3.5-.7-5.4.9-10.3,4.5-14,.6-3.3,2.3-7.3,6.7-10.9,0,0,0,0,0-.1l-.5-14c0-.1,0-.2,0-.3,0-4.6,2-7.4,3.6-8.9,0,0,18.2-18.9,18.2-18.9,2.3-2.3,5.5-3.6,8.9-3.6s7.1,1.7,9.5,4.7c1.4,1.7,2.8,4.5,3.6,7.8h74.2c2.7,0,5.2,1.1,7.1,2.9l26.3,26.3c.1-.8.3-1.7.4-2.4-.1-.3-.3-.5-.4-.8-2-4.2-2.2-9.1-.5-13.5l2.7-7.3c1.3-3.5,3.6-6.4,6.6-8.5l2.9-8c.1-.6.3-1.2.5-1.8l3.6-9.8c3.4-9.3,12.4-15.6,22.3-15.6s5.5.5,8,1.4c0,0,5.1,1.8,5.2,1.8l.6.2c.4,0,.8.2,1.3.4l4.1,1.5,10.7,3.9,6.5,2.4c7.4,2.7,12.9,8.9,14.8,16.4,3.5,5.4,4.3,12.2,2,18.3l-7.6,20.8c0,1.9-.3,3.7-.9,5.5,0,0,0,.2,0,.3l-2.7,7.4c-1.6,4.4-4.8,7.9-9,9.8-.5.2-1,.5-1.6.7-2.6,5-7.5,10.4-13.5,13.7l-1.6,6,2.6,3.6,10,4.7c9.1,4.3,17.3,10.8,23.8,18.6l48.5,60.2c11.4,14,11.8,32.6,1.2,47.4-7.1,9.9-17.9,15.7-29.7,16.2-.5,0-1.1.1-1.6.1Z"/>
  <path class="st2" d="M295.2,203.8l-48.4-60.1c-5.5-6.7-12.5-12.2-20.3-15.9l-12.3-5.8-6.6-9.2c0,0-.1-.2-.3-.3l4.1-15.3c6.6-2,12.2-8.3,13.8-12.8l1-2.6c.4,0,.9.1,1.3.1v-.2c1,0,2.1-.2,3.1-.7,1.8-.8,3.2-2.3,3.9-4.2l2.7-7.4c.4-1.2.5-2.5.3-3.8l8.3-22.8c1.4-3.8.5-7.9-2-10.7-.6-4.9-3.9-9.4-8.9-11.2l-6.4-2.4-10.7-3.9-4.1-1.5h0c0,0-1.9-.6-1.9-.6l-5.1-1.8c-7.1-2.6-15,1.1-17.6,8.2l-3.6,9.8h.2c0,0-4.9,13.6-4.9,13.6-.5.1-.9.3-1.3.5-1.8.8-3.2,2.3-3.9,4.2l-2.7,7.4c-.7,1.8-.7,3.9.2,5.7.5,1.2,1.4,2.2,2.5,3l-1,2.7c-1.5,4.4-1.3,12.4,2.1,18.2l-2.2,8.2-43.9-43.9h0s-80.7,0-80.7,0c-1.4,0-2.7.2-3.9.6,2.6-5.4-.2-11.2-1-12.2-.4-.5-1-.9-1.7-.9s-1.3.2-1.8.7l-18.3,19c-.5.4-.6,1.1-.6,1.8l.6,18.1h0c0,.2.1.4.2.5-1,.8-1.9,1.5-2.7,2.2-.1.1-.2.3-.3.5-.3.3-.6.5-.9.7-2.4,2-3.5,4.1-3.4,6.3.1.7.2,1.3.5,1.9-4.3,2-5.8,5-4.6,9.3.4,1.3.3,1.4-.3,2.5-.5.8-1.1,1.9-1.6,3.6-1.2,4,6.4,39.9,8.1,48.2-1,8.4-2,17.8-2.8,26.3h-.5c-.5,0-1,.4-1,.9l-2.9,41.5c-.5,6.7,1.8,13.2,6.4,18.1,4.6,5,10.8,7.7,17.6,7.7h25.2c.1,0,.3,0,.4-.1h105.8c4.1,0,7.9-1.9,10.3-4.8l65.5,1.1h.3c.1.1.2.1.3.1h0s19.4,7.3,19.4,7.3c3.5,1.4,7.1,2,10.6,2h0c9,0,17.5-4.3,23.2-12.2,7.9-11,7.6-24.8-.9-35.3Z"/>
  <g id="Layer_2">
    <g id="_Layer_">
      <g>
        <g>
          <rect class="st3" x="160.9" y="89.7" width="57.9" height="35" transform="translate(36.9 262.6) rotate(-74.9)"/>
          <path class="st2" d="M199,140.8h-.3l-33.8-9.1c-.3,0-.5-.2-.6-.5-.1-.2-.2-.5-.1-.8l15.1-55.9c.1-.5.7-.9,1.2-.7l33.8,9.1c.3,0,.5.2.6.5.1.2.2.5.1.8l-15.1,55.9c-.1.4-.5.7-1,.7h.1ZM166.4,130l31.9,8.6,14.5-53.9-31.9-8.6-14.5,53.9Z"/>
        </g>
        <g>
          <path class="st3" d="M242.9,241l19.7,7.4c26.8,10.1,49.7-21.6,31.7-43.9l-48.4-60.1c-5.4-6.6-12.2-12-19.9-15.6l-12.5-5.9-6.7-9.5-10.9,10.2-19.9-27.3-65.2,142.3,132.1,2.3h0Z"/>
          <path class="st2" d="M272.9,251.3c-3.5,0-7.1-.6-10.6-2l-19.6-7.4-132-2.3c-.3,0-.6-.2-.8-.5-.2-.3-.2-.6,0-.9l65.2-142.3c.1-.3.4-.5.8-.6.4,0,.7,0,.9.4l19.3,26.4,10-9.4c.2-.2.5-.3.8-.3s.6.2.7.4l6.6,9.2,12.3,5.8c7.8,3.7,14.8,9.2,20.3,15.9l48.4,60.1c8.5,10.5,8.8,24.3.9,35.3-5.7,7.9-14.2,12.1-23.2,12.1h0ZM112.3,237.7l130.6,2.3h.3l19.7,7.4c11.8,4.4,24.1.7,31.5-9.5,7.4-10.2,7-23.1-.9-32.8l-48.4-60.1c-5.2-6.5-12-11.8-19.6-15.3l-12.5-5.9c-.2,0-.3-.2-.4-.3l-6.1-8.5-10,9.4c-.2.2-.5.3-.8.3s-.6-.2-.7-.4l-18.9-25.9-63.8,139.4h0Z"/>
        </g>
        <path class="st2" d="M184.3,239.9h-.1c-.6,0-.9-.6-.9-1.1l11.6-115.5c0-.6.6-.9,1.1-.9s.9.6.9,1.1l-11.6,115.5c0,.5-.5.9-1,.9h0Z"/>
        <g>
          <path class="st3" d="M72.2,233.1c-7.8-24.7-25.4-77.9-25.4-77.9l3.1-6.9c0-88.1-27.5-22.9-27.5-22.9,0,0-5.9,45.6-7.2,68l57,39.8h0Z"/>
          <path class="st2" d="M72.2,234.1c-.4,0-.8-.3-.9-.7-7.7-24.4-25.2-77.4-25.4-77.9v-.7l3-6.7c0-37.6-5.1-44.2-8.2-44.9-5.2-1.1-13.4,13.1-17.4,22.4-.4,2.8-5.9,46.3-7.1,67.8,0,.6-.5,1-1.1.9s-1-.5-.9-1.1c1.3-22.1,7.1-67.6,7.2-68v-.3c1.1-2.6,11.1-25.5,19.7-23.7,2.4.5,9.9,2,9.8,47.1v.4l-2.9,6.5c1.6,4.8,17.9,54.2,25.3,77.6.2.5,0,1.1-.6,1.2h-.5Z"/>
        </g>
        <g>
          <path class="st3" d="M60.2,244.7h-25.1c-13.4,0-24-11.4-23.1-24.8l2.9-41.5h31.3l14,66.2h0Z"/>
          <path class="st2" d="M60.2,245.7h-25.1c-6.8,0-13-2.7-17.6-7.7-4.6-4.9-6.9-11.4-6.4-18.1l2.9-41.5c0-.5.5-.9,1-.9h31.3c.5,0,.9.3,1,.8l14,66.2c0,.3,0,.6-.2.8s-.5.4-.8.4h0ZM15.9,179.5l-2.9,40.6c-.4,6.2,1.7,12.1,5.9,16.6s10,7,16.2,7h23.8l-13.5-64.2H15.9Z"/>
        </g>
        <g>
          <path class="st2" d="M219.2,15.2c-4.5-1.6-9.3-.8-12.9,1.9l-4.4-1.6c-5.5-2-11.6.8-13.6,6.4l-9,24.7,7,2.6,3.6-10c1.4-3.9,5.7-5.9,9.6-4.5l4.1,1.5-6.5-2.4,4.3,1.6c7.1,2.6,15-1.1,17.6-8.2l3.8-10.5-3.6-1.3h0v-.2Z"/>
          <g>
            <path class="st3" d="M186.5,59.5c-1.2,3.4-5,5.1-8.4,3.9l-.5-.2c-3.4-1.2-5.1-4.9-3.9-8.3l2.7-7.4c1.2-3.4,5-5.1,8.3-3.9l.5.2c2.5.9,4.1,3.2,4.3,5.7l-3.1,10.1h0Z"/>
            <path class="st2" d="M180.4,64.8c-.9,0-1.8,0-2.6-.5l-.5-.2c-1.9-.7-3.4-2.1-4.2-3.9-.9-1.8-.9-3.9-.2-5.7l2.7-7.4c.7-1.9,2.1-3.4,3.9-4.2,1.8-.9,3.9-.9,5.7-.2l.5.2c2.8,1,4.7,3.6,4.9,6.6,0,.6-.4,1-.9,1.1s-1-.4-1.1-.9c-.1-2.2-1.6-4.1-3.6-4.8l-.5-.2c-1.4-.5-2.9-.4-4.2.2-1.3.6-2.3,1.7-2.9,3.1l-2.7,7.4c-.5,1.4-.4,2.9.2,4.2.6,1.3,1.7,2.3,3.1,2.8l.5.2c1.4.5,2.9.4,4.2-.2,1.3-.6,2.4-1.7,2.9-3.1.2-.5.8-.8,1.3-.6s.8.8.6,1.3c-.7,1.9-2.1,3.4-3.9,4.2-1,.5-2.1.7-3.1.7h0Z"/>
          </g>
          <path class="st2" d="M210.2,23l3.6-9.8,4.1,1.5,10.7,3.9,6.4,2.4c7.1,2.6,10.8,10.5,8.2,17.6l-3.6,9.8-4.1-1.5-10.7-3.9-6.4-2.4c-7.1-2.6-10.8-10.5-8.2-17.6h0Z"/>
          <g>
            <path class="st3" d="M223.7,64.7c1.2-3.4,4.9-5.1,8.3-3.9l.5.2c3.4,1.2,5.1,5,3.9,8.3l-2.7,7.4c-1.2,3.4-5,5.1-8.4,3.9l-.5-.2c-2.5-.9-4.1-3.2-4.3-5.7l3.1-10.1h0Z"/>
            <path class="st2" d="M227.6,82c-.9,0-1.7,0-2.6-.5l-.5-.2c-2.8-1-4.7-3.6-4.9-6.5,0-.6.4-1,.9-1.1.6,0,1,.4,1.1.9.1,2.2,1.6,4.1,3.6,4.8l.5.2c1.4.5,2.9.4,4.2-.2s2.4-1.7,2.9-3.1l2.7-7.4c.5-1.4.4-2.9-.2-4.2-.6-1.3-1.7-2.3-3.1-2.9l-.5-.2c-2.9-1-6,.4-7.1,3.3-.2.5-.8.8-1.3.6s-.8-.8-.6-1.3c1.4-3.9,5.7-5.9,9.6-4.5l.5.2c1.9.7,3.4,2.1,4.2,3.9.9,1.8.9,3.9.3,5.7l-2.7,7.4c-.7,1.9-2.1,3.4-3.9,4.2-1,.5-2.1.7-3.2.7h0v.2Z"/>
          </g>
          <g>
            <path class="st3" d="M224.5,84c-1.9,5.1-9,12.4-16.4,12.7-10.1.4-20.6-3.4-28.1-10.2-5.5-5.1-6.2-15.2-4.4-20.3,5.3-14.6,10.6-29.1,15.9-43.6,1.9-5.2,8.6-7.6,15-5.4,8.7,3.1,17.3,6.3,26,9.5,6.3,2.4,9.9,8.6,7.9,13.8-5.3,14.5-10.6,29.1-15.9,43.6h0Z"/>
            <path class="st2" d="M206.5,97.8c-9.9,0-19.9-3.9-27.2-10.5-5.9-5.5-6.5-16.1-4.7-21.4l15.9-43.6c2-5.7,9.3-8.4,16.2-6l26,9.5c6.9,2.6,10.7,9.4,8.5,15.1l-15.9,43.6h0c-1.9,5.2-9.2,13-17.3,13.4h-1.6.1ZM201.6,17.3c-4.3,0-8,2.1-9.2,5.6l-15.9,43.6c-1.7,4.8-1,14.5,4.1,19.2,7.3,6.7,17.5,10.4,27.4,10,7-.4,13.8-7.3,15.5-12.1l15.9-43.6c1.8-4.7-1.6-10.3-7.4-12.5l-26-9.5c-1.5-.5-3-.8-4.4-.8h0ZM224.5,84h0Z"/>
          </g>
          <path class="st2" d="M226.5,17.9c4.5,1.6,7.6,5.4,8.7,9.8l4.4,1.6c5.5,2,8.4,8.1,6.3,13.6l-9,24.7-7-2.6,3.6-10c1.4-3.9-.6-8.2-4.5-9.6h0l2.5.9-11.4-4.1c-7.1-2.6-10.8-10.4-8.2-17.6l3.8-10.5,10.7,3.9h0Z"/>
          <path class="st2" d="M211.3,26.3c.4-.8.8-1.6,1.1-2.4l3.6-9.8-4.1-1.5-5.1-1.8c-7.1-2.6-15,1.1-17.6,8.2l-3.6,9.8,2.7,1,1.4.5,5.1,1.9c.9.3,1.8.6,2.7.7,2.9-4.7,8.2-7.2,13.7-6.4h0v-.2Z"/>
          <path class="st2" d="M196.7,84.8h-.6c-4.4-.6-6.9-7.9-7.2-8.8-.1-.4,0-.8.3-1s.7-.4,1-.2l11.8,4.3c.3,0,.5.3.6.6s0,.6-.1.9c-1.9,2.8-3.8,4.3-5.8,4.3h0ZM191.6,77.4c1,2.3,2.8,5.1,4.8,5.4,1.1,0,2.4-.6,3.7-2.3l-8.5-3.1h0Z"/>
          <path class="st2" d="M223,49.2c-.2,0-.5,0-.7-.3-2.2-2.1-5.3-3.4-8.4-3.4s-1-.4-1-1,.4-1,1-1h0c3.6,0,7.1,1.4,9.8,3.9.4.4.4,1,0,1.4s-.5.3-.7.3h0Z"/>
          <path class="st2" d="M199.6,40.7c-.2,0-.5,0-.6-.2-2.4-2.1-5-2.7-7.9-1.7-.5.2-1.1-.1-1.3-.6s.1-1.1.6-1.3c3.5-1.1,6.8-.4,9.8,2.1.4.4.5,1,.1,1.4-.2.2-.5.4-.8.4h0Z"/>
          <path class="st2" d="M211.8,58.8c-.4,1.2,0,2.4.8,2.8s1.9-.4,2.4-1.6c.4-1.2,0-2.4-.8-2.8s-1.9.4-2.4,1.6Z"/>
          <path class="st2" d="M191.8,51.5c-.4,1.2,0,2.4.8,2.8s1.9-.4,2.4-1.6c.4-1.2,0-2.4-.8-2.8s-1.9.4-2.4,1.6Z"/>
          <path class="st1" d="M192.3,61c-1.4,0-2.7-.3-4-.9-5-2.2-7.3-8.1-5.1-13.1s8.1-7.3,13.1-5.1,7.3,8.1,5.1,13.1c-1.1,2.4-3,4.3-5.5,5.3-1.2.4-2.4.7-3.6.7h0ZM192.3,43.1c-3.1,0-6,1.8-7.3,4.7-1.8,4,0,8.7,4.1,10.5,1.9.9,4.1.9,6.1,0s3.5-2.3,4.4-4.2c1.8-4,0-8.7-4.1-10.5-1-.5-2.1-.7-3.2-.7h0Z"/>
          <path class="st2" d="M198.9,71.7h-.4c-3.3-1.5-4.9-5.3-4.9-5.4-.1-.3,0-.7.2-1l9.1-11c.4-.4,1-.5,1.4,0s.5,1,.1,1.4l-8.7,10.5c.5.9,1.7,2.9,3.7,3.8.5.2.7.8.5,1.3-.2.4-.5.6-.9.6h-.1Z"/>
          <path class="st1" d="M214.3,68.3c-1,0-2.1-.2-3.1-.5-5.2-1.7-8-7.4-6.3-12.6,1.7-5.2,7.4-8,12.6-6.3,5.2,1.7,8,7.4,6.3,12.6h0c-1.4,4.2-5.3,6.8-9.4,6.8h-.1ZM214.4,50.4c-3.3,0-6.4,2.1-7.6,5.4-1.4,4.2.9,8.7,5,10.1,4.2,1.4,8.7-.9,10.1-5h0c1.4-4.2-.9-8.7-5-10.1-.8-.3-1.7-.4-2.5-.4h0Z"/>
          <path class="st1" d="M205.4,56.4h-.4l-3.9-1.6c-.5-.2-.8-.8-.6-1.3s.8-.8,1.3-.6l3.9,1.6c.5.2.8.8.6,1.3-.1.4-.5.6-.9.6h0Z"/>
        </g>
        <path class="st2" d="M185.9,139.3h0c-.4,0-.7-.2-.8-.5l-20.7-37.8c-.2-.4-.1-1,.3-1.3l8.6-6.5c.2-.2.5-.2.7-.2.3,0,.5.2.7.4l22.2,29.5c.3.3.3.8,0,1.2l-10,14.9c-.2.3-.5.4-.8.4h-.2ZM166.5,100.7l19.5,35.6,8.7-12.9-21.1-28.1-7.1,5.4h0Z"/>
        <path class="st2" d="M203.4,141.5h0c-.4,0-.7-.2-.9-.6l-7.5-17.1c-.2-.4,0-.9.2-1.1l10.8-9.9c.2-.2.5-.3.8-.3s.5.2.7.4l6.7,9.5c.2.3.2.7,0,1.1l-10.1,17.6c-.2.3-.5.5-.9.5h.2ZM197.1,123.6l6.4,14.6,8.8-15.3-5.7-8-9.4,8.7h-.1Z"/>
        <g>
          <g>
            <path class="st3" d="M49.9,244.7c-6.9,0-12.4-5.6-12.4-12.4V61.9c0-6.9,5.6-12.4,12.4-12.4h80.3l48.7,48.7v134.1c0,6.9-5.6,12.4-12.4,12.4H49.9Z"/>
            <path class="st2" d="M129.7,50.4l48.2,48.2v133.7c0,6.3-5.1,11.4-11.4,11.4H49.9c-6.3,0-11.4-5.1-11.4-11.4V61.9c0-6.3,5.1-11.4,11.4-11.4h79.9-.1ZM130.6,48.4H49.9c-7.4,0-13.4,6-13.4,13.4v170.4c0,7.4,6,13.4,13.4,13.4h116.6c7.4,0,13.4-6,13.4-13.4V97.7l-49.3-49.3h0Z"/>
          </g>
          <path class="st1" d="M130.6,48.4v35.9c0,7.4,6,13.4,13.4,13.4h35.9l-49.3-49.3h0Z"/>
          <rect class="st1" x="85.7" y="156" width="67.3" height="9"/>
          <rect class="st1" x="85.7" y="174" width="67.3" height="9"/>
          <rect class="st1" x="85.7" y="191.9" width="67.3" height="9"/>
          <rect class="st1" x="63.3" y="129.1" width="67.3" height="9"/>
          <g>
            <path class="st0" d="M68.1,165.1c-2.6,0-4.7-2.1-4.7-4.7s2.1-4.7,4.7-4.7,4.7,2.1,4.7,4.7-2.1,4.7-4.7,4.7ZM68.1,156.4c-2.2,0-4,1.8-4,4s1.8,4,4,4,4-1.8,4-4-1.8-4-4-4Z"/>
            <path class="st0" d="M67.5,162.3h0c-.8-.1-1.6-1.5-1.7-1.8l.6-.3c.4.6.9,1.3,1.2,1.4.4-.1,1.6-1.8,2.6-3.2l.6.4c-1.5,2.4-2.6,3.6-3.1,3.6h-.2Z"/>
          </g>
          <g>
            <path class="st0" d="M68.1,183.2c-2.6,0-4.7-2.1-4.7-4.7s2.1-4.7,4.7-4.7,4.7,2.1,4.7,4.7-2.1,4.7-4.7,4.7ZM68.1,174.5c-2.2,0-4,1.8-4,4s1.8,4,4,4,4-1.8,4-4-1.8-4-4-4Z"/>
            <path class="st0" d="M67.5,180.3h0c-.8-.1-1.6-1.5-1.7-1.8l.6-.3c.4.6.9,1.3,1.2,1.4.4-.1,1.6-1.8,2.6-3.2l.6.4c-1.5,2.4-2.6,3.6-3.1,3.6h-.2Z"/>
          </g>
          <g>
            <path class="st0" d="M68.1,201.1c-2.6,0-4.7-2.1-4.7-4.7s2.1-4.7,4.7-4.7,4.7,2.1,4.7,4.7-2.1,4.7-4.7,4.7ZM68.1,192.4c-2.2,0-4,1.8-4,4s1.8,4,4,4,4-1.8,4-4-1.8-4-4-4Z"/>
            <path class="st0" d="M67.5,198.2h0c-.8-.1-1.6-1.5-1.7-1.8l.6-.3c.4.6.9,1.3,1.2,1.4.4-.1,1.6-1.8,2.6-3.2l.6.4c-1.5,2.4-2.6,3.6-3.1,3.6h-.2Z"/>
          </g>
        </g>
        <g>
          <g>
            <path class="st3" d="M190.6,168.4l-13.3-24.7c-1.1-2.1-3.7-2.7-5.7-1.5h0c-3.1,2-4.6,5.6-3.8,9.2l2.2,9.7,20.5,7.3h.1Z"/>
            <path class="st2" d="M190.6,169.4h-.3l-20.5-7.3c-.3-.1-.6-.4-.6-.7l-2.2-9.7c-.9-3.9.8-8.1,4.2-10.3,1.2-.8,2.6-1,4-.6s2.5,1.2,3.1,2.5l13.3,24.7c.2.4.1.8-.1,1.1-.2.2-.5.4-.8.4h0ZM171,160.3l17.6,6.2-12.1-22.4c-.4-.8-1.1-1.3-1.9-1.5-.8-.2-1.7,0-2.4.4-2.7,1.7-4,5-3.3,8.1l2.1,9.2h0Z"/>
          </g>
          <g>
            <g>
              <path class="st3" d="M177.9,159.1l-32.7-9c-1.8-.5-3.6.8-3.8,2.6l-.2,1.8c-.4,3.5,1.4,6.8,4.4,8.5l8.3,4.5.4,1.1-11.3-1.6c-2.4-.3-4.7,1.4-5.1,3.8-.5,3.8,1.8,7.2,5.3,8.3-2.2,0-4.1,1.6-4.4,3.8-.5,3.8,1.8,7.3,5.3,8.4-2.2,0-4.1,1.6-4.4,3.8-.6,4.2,2.4,8.1,6.6,8.7l22.8,3.2,1.4,3.6c1.7,4.3,5.2,7.6,9.5,9.1l62.7,21.3s16.8-22.9,5.1-41.2c0-.1-.2,0-.3-.1l-48.6-15.5-.5-2.9c-2.1-10.7-10-19.4-20.6-22.2h.1Z"/>
              <path class="st2" d="M242.9,242h-.3l-62.7-21.3c-4.6-1.6-8.3-5.1-10.1-9.7l-1.2-3.1-22.2-3.1c-4.8-.7-8.1-5.1-7.4-9.9.2-1.7,1.2-3.1,2.6-3.9-2.6-1.8-4-5-3.6-8.3.2-1.7,1.2-3.1,2.6-3.9-2.6-1.8-4-4.9-3.6-8.2.2-1.4.9-2.7,2.1-3.6,1.2-.9,2.6-1.3,4.1-1.1l7.9,1.1-5.9-3.2c-3.4-1.9-5.4-5.6-5-9.4l.2-1.8c.1-1.2.8-2.2,1.7-2.9s2.2-.9,3.4-.6l32.7,9c11,3,19.1,11.8,21.3,23l.4,2.3,48.1,15.3h0c.1,0,.6,0,.9.5,5,7.7,5.7,17.5,2,28.3-2.8,8.1-6.9,13.8-7.1,14-.2.3-.5.4-.8.4h0ZM144.2,192.3c-1.7,0-3.1,1.2-3.4,2.9-.5,3.7,2.1,7.1,5.7,7.6l22.8,3.2c.4,0,.7.3.8.6l1.4,3.6c1.6,4,4.8,7.1,8.9,8.5l62,21c2.5-3.7,14.7-23.3,4.8-39.1l-48.6-15.5c-.4-.1-.6-.4-.7-.8l-.5-2.9c-2-10.4-9.6-18.7-19.8-21.5h0l-32.7-9c-.6-.2-1.2,0-1.7.3s-.8.9-.9,1.5l-.2,1.8c-.3,3.1,1.2,6,3.9,7.5l8.3,4.5c.2.1.4.3.4.5l.4,1.1c.1.3,0,.7-.1,1s-.6.4-.9.4l-11.3-1.6c-.9-.1-1.9.1-2.6.7-.7.6-1.2,1.4-1.3,2.3-.4,3.2,1.6,6.2,4.6,7.2.5.1.8.6.7,1.1,0,.5-.5.8-1,.8h0c-1.7,0-3.1,1.2-3.4,2.9-.4,3.2,1.5,6.3,4.6,7.3.5.1.8.6.7,1.1,0,.5-.5.9-1,.8h0v.2ZM247.7,200.7h0Z"/>
            </g>
            <path class="st2" d="M172,184.3h-.1l-27.5-3.8c-.6,0-.9-.6-.9-1.1s.6-.9,1.1-.9l27.5,3.8c.6,0,.9.6.9,1.1s-.5.9-1,.9h0Z"/>
            <path class="st2" d="M172.1,172.1h-.1l-29.2-4.1c-.6,0-.9-.6-.9-1.1s.6-.9,1.1-.9l29.2,4.1c.6,0,.9.6.9,1.1s-.5.9-1,.9h0Z"/>
            <path class="st2" d="M170.9,196.1h-.1l-29.2-4.1c-.6,0-.9-.6-.9-1.1s.6-.9,1.1-.9l29.2,4.1c.6,0,.9.6.9,1.1s-.5.9-1,.9h0Z"/>
          </g>
        </g>
        <g>
          <path class="st3" d="M37.9,154.6c2.8-8.1,2.9-18.8-.3-29.7-1.3-4.5-3.1-8.6-5.2-12.4l9.5-5.4c10.6,1.3,16.4,2.1,20,0,5.6-3.3,5.1-6.7,5.2-6.9,0-.3,0-.7-.2-1s-.5-.5-.8-.5l-2.1-.3c5.6-3.9,4.6-8.7,4.5-8.9,0-.5-.5-.9-1-1l-28.8-5.9c1.3-.9,4.4-3.7,4.9-4,2.7.4,13.7,3.6,20.4.5,2.8-1.3,4.3-2.8,4.6-4.6.3-1.9-1.1-3.2-1.3-3.4s-.4-.2-.6-.3l-26.9-5.8c-.4,0-.7,0-1,.2,0,0-.5.4-1.3,1l-1.4-7.3c1.7-1.5,6.5-5.9,8.9-10,3.1-5.4-.4-11.4-.6-11.7-.2-.3-.6-.5-.9-.5s-.7.1-1,.4l-18.3,19c-.3.3-.4.7-.3,1.1l.6,18.1c0,.3.2.6.5.8h.1c-1.8,1.4-3.4,2.8-4.7,3.8-2.1,1.8-3.1,3.6-3,5.4,0,1,.5,1.8.9,2.4h0c-4.6,1.9-6.1,4.4-5,8.6.5,1.7.2,2.1-.4,3.3s-1,1.8-1.5,3.4c-1.2,4.2,8.4,49.1,8.5,49.3l18.3,2h0l-.3.3Z"/>
          <path class="st2" d="M37.9,155.6h-.3c-.5-.2-.8-.8-.6-1.3,2.8-8.2,2.7-18.8-.3-29.1-1.3-4.3-3-8.4-5.1-12.1-.3-.5-.1-1.1.4-1.4l9.5-5.4c.2,0,.4,0,.6,0h0c10.3,1.3,16,2,19.2,0,3-1.8,4.7-3.8,4.7-5.9s0-.2,0-.3v-.2s0,0-.2,0l-2.1-.3c-.4,0-.7-.4-.8-.8s0-.8.4-1c5-3.5,4.2-7.7,4.1-7.9,0,0,0-.2-.2-.2l-28.8-5.9c-.4,0-.7-.4-.8-.8,0-.4,0-.8.4-1,.6-.4,1.6-1.3,2.5-2.1,1.6-1.3,2.2-1.9,2.5-2,.2,0,.4,0,.6,0,.5,0,1.2.2,2,.4,4.1.9,12.5,2.7,17.8.2,2.4-1.1,3.8-2.4,4-3.8s-.9-2.4-1-2.5,0,0,0,0l-26.9-5.8h-.2l-1.3,1c-.3.2-.6.3-1,0s-.6-.4-.6-.7l-1.4-7.3c0-.4,0-.7.3-.9,1.4-1.3,6.4-5.7,8.7-9.7,2.9-5-.6-10.6-.6-10.6h-.4l-18.3,19v.2h0c0,0,.6,18.1.6,18.1h0c.3.2.5.5.5.8s-.1.6-.4.9c-1.8,1.4-3.4,2.7-4.7,3.8-1.9,1.6-2.8,3.1-2.7,4.6,0,.7.3,1.3.7,1.9.2.2.2.6.2.9s-.3.5-.6.7c-4.2,1.7-5.4,3.8-4.4,7.4.6,2,.2,2.7-.5,4-.4.8-1,1.6-1.4,3.1-1,3.6,8,46.9,8.5,48.8.2.5,0,1.1-.6,1.2s-1.1-.1-1.3-.6c-.1-.4-9.8-45.4-8.5-49.9.5-1.7,1.1-2.8,1.6-3.6.6-1.1.7-1.2.3-2.5-1.2-4.3.3-7.3,4.6-9.3-.3-.6-.4-1.2-.5-1.9,0-2.2,1-4.3,3.4-6.3,1.1-.9,2.5-2,3.9-3.2,0-.2-.1-.4-.2-.6h0c0,0-.6-18.2-.6-18.2,0-.7.1-1.4.6-1.8l18.3-19c.5-.5,1.1-.7,1.8-.7s1.3.4,1.7.9c.8,1,3.9,7.2.7,12.8-2.2,3.9-6.5,8-8.7,9.9l1,5.2h0c.5-.4,1.2-.6,1.9-.5l26.9,5.8c.4,0,.7.3,1,.5.2.2,2,1.8,1.6,4.3-.3,2.1-2,3.9-5.1,5.3-5.9,2.7-14.8.8-19.1,0-.6,0-1.1-.2-1.5-.3-.4.3-1.3,1.1-1.9,1.6-.3.3-.6.5-.9.8l26.7,5.4c.9.2,1.6.9,1.8,1.7,0,.2,1,4.6-3.1,8.5.6,0,1.1.4,1.4.9.3.5.5,1.1.4,1.6,0,2.8-2,5.5-5.7,7.6-3.8,2.2-9.7,1.5-20.3.2l-8.4,4.8c2,3.6,3.6,7.6,4.8,11.7,3.1,10.7,3.2,21.8.3,30.3-.1.4-.5.7-.9.7h0Z"/>
        </g>
        <path class="st2" d="M64.8,99.4h-.2l-27.4-4.4-14.1,3.9c-.5,0-1.1-.2-1.2-.7s.2-1.1.7-1.2l14.3-3.9h.4l27.6,4.4c.6,0,.9.6.8,1.1,0,.5-.5.8-1,.8h.1Z"/>
        <path class="st2" d="M24.4,86.6c-.4,0-.8-.2-.9-.6-.2-.5,0-1.1.6-1.3,9.7-3.9,13.6-3.2,13.8-3.2l7,1.5c.5,0,.9.6.8,1.2,0,.5-.6.9-1.2.8l-6.9-1.5s-3.6-.5-12.6,3.1h-.6Z"/>
        <path class="st2" d="M21.4,80c-.3,0-.6,0-.8-.4-.4-.4-.3-1.1.1-1.4,4.7-3.9,13.6-10.8,17.2-13.6.4-.3,1.1-.3,1.4.2.3.4.3,1.1-.2,1.4-3.6,2.8-12.5,9.7-17.1,13.6-.2.2-.4.2-.6.2h0Z"/>
        <g>
          <path class="st3" d="M281.4,212.3s-5.8-7.1-33.5-12.5l33.5,12.5Z"/>
          <path class="st2" d="M281.4,213.3c-.3,0-.6-.1-.8-.4,0-.1-6.1-6.9-32.9-12.1-.5-.1-.9-.6-.8-1.2.1-.5.6-.9,1.2-.8,27.8,5.4,33.8,12.5,34.1,12.8.4.4.3,1.1-.1,1.4-.2.1-.4.2-.6.2h-.1Z"/>
        </g>
      </g>
    </g>
  </g>
</svg>