<?xml version="1.0" encoding="UTF-8"?>
<svg id="Layer_1" xmlns="http://www.w3.org/2000/svg" version="1.1" viewBox="0 0 259.1 257.3">
  <!-- Generator: Adobe Illustrator 29.2.0, SVG Export Plug-In . SVG Version: 2.1.0 Build 108)  -->
  <defs>
    <style>
      .st0 {
        fill: #303030;
      }

      .st1 {
        fill: #26a8df;
      }

      .st2 {
        fill: #fafafa;
      }
    </style>
  </defs>
  <path class="st2" d="M47.9,257.3c-6.2,0-11-4.8-11-11v-20.6c-10.7-3.5-19.6-11-25-21.1-6.2-11.8-6.7-25.5-1.4-37.7l5.2-11.9c2.4-5.5,5.6-10.5,9.7-14.9,0-21.4,13.5-34.2,36.2-34.2s9.1.5,13.8,1.4c3.3.7,7.2,1.9,10.8,3.5v-11.4c-5.3-3.8-9.5-8.8-12.5-14.5-8.3,6.5-18.6,10.2-29.5,10.2-18.4,0-35.4-10.8-43.2-27.6-1.4-3.1-1.2-6.7.6-9.6,1.8-2.9,5-4.6,8.4-4.6h26.2l3.3-5.8-3.3-5.7H10c-3.4,0-6.6-1.7-8.4-4.6-1.8-2.9-2.1-6.5-.6-9.6C8.8,10.9,25.7,0,44,0s22.2,4.1,30.6,11.2c3.8-4.4,9.4-7.3,15.7-7.3,0,0,.4,0,.4,0l12.5.3c0,0,.2,0,.3,0,1.4,0,2.9.3,4.2.6,1.3-.4,2.5-.7,3.8-.9.9-.2,1.8-.4,2.7-.4,0,0,.4,0,.4,0,0,0,12.6.3,12.7.3,2.6.1,5.1.7,7.4,1.6,1.4-.3,2.8-.4,4.2-.4,0,0,.4,0,.4,0l12.5.3c5.4.1,10.5,2.3,14.1,6h2.8c4.2.1,8.1,1.5,11.4,3.8,8.9-9.6,21.4-15.2,34.9-15.2s35.4,10.8,43.1,27.6c1.4,3.1,1.2,6.7-.7,9.6s-5,4.6-8.4,4.6h-26.2l-3.3,5.8,3.3,5.7h26.2c3.4,0,6.6,1.7,8.4,4.6s2.1,6.5.7,9.6c-7.7,16.8-24.6,27.6-43.1,27.6s-22.8-4.3-31.3-11.7c-1.1,2.1-2.4,4.1-3.9,6,6.5,37.8,14.1,118.5,16.9,153.7.4,3.5-.8,7.1-3.4,9.6s-5.3,3.5-8.6,3.5h-80.2c-1.3.6-2.8.9-4.4.9s-3.2-.4-4.6-1h-43s0,0,0,0c-1.4.8-3,1.2-4.7,1.2Z"/>
  <path class="st0" d="M217.1,63.3h32c-5.9,12.9-18.9,21.8-34,21.8s-26.7-8-33.1-19.7c-.1,0-.3,0-.4,0h-3.3v.2c-.1,7.8-3.4,15.3-9.1,20.7,6.7,35.3,14.9,122.8,17.7,157.8,0,.5-.1,1.1-.5,1.5-.4.4-.9.6-1.5.6h-83.6c0,.5-.4.9-1,.9s-.9-.4-1-.9h-.9c-.2,0-.4,0-.6-.1h-48.8c0,.6-.4,1-1,1v.2c-.7,0-1.1-.4-1.1-1v-28.5l-2.9-.6c-10-2-18.5-8.3-23.3-17.3-4.8-9.1-5.2-19.6-1.1-29l5.2-11.9c2.5-5.8,6.2-10.9,10.8-15-.2-1.3-.3-2.6-.3-3.8,0-26,24.3-25.8,37.9-23,13.5,2.8,20.9,10.6,17.2,10.9-3.7.3-4.5-1.6,3.4,8.6.8,1.1,1.6,2.1,2.3,3.1v-45.9c-10.7-5.4-17.5-16.5-17.3-28.5h-1.6c-6.3,11.7-18.8,19.8-33.1,19.8s-28.1-8.9-34.1-21.8h32l9.1-15.8-9.1-15.7H10c6-12.9,18.9-21.9,34-21.9s26.8,8.1,33.2,19.8h2.4v-5.5c.2-5.7,5-10.4,10.7-10.4h.2l12.5.3c1.9,0,3.6.6,5.2,1.5,1.7-1.2,3.8-1.9,6-1.9v-.2h.3l12.5.3c2.5.1,4.9,1,6.7,2.6,1.6-.9,3.4-1.4,5.3-1.4h.2l12.5.3c4,.1,7.6,2.4,9.3,5.9l7.6.2c5,0,9.1,3.7,10.1,8.3h3.3c6.3-11.7,18.8-19.8,33.1-19.8s28.1,8.9,34,21.8h-32l-9.1,15.8,9.1,15.7Z"/>
  <g id="Layer_2">
    <g id="_Layer_">
      <g>
        <g>
          <g>
            <path class="st2" d="M98.5,245.2c-.6,0-1-.4-1-1l-.4-151c-10.7-5.3-17.5-16.3-17.2-28.3l.9-40.7c0-5.2,4.4-9.4,9.6-9.4l12.7.3c1.9,0,3.7.6,5.2,1.7,1.7-1.4,3.8-2.1,6-2.1l12.7.3c2.5,0,4.8,1.1,6.6,2.8,1.6-1.1,3.5-1.7,5.4-1.7l12.7.3c3.8,0,7.2,2.4,8.6,5.9l8.3.2c5.3.1,9.5,4.5,9.4,9.8l-.7,33.3c-.2,7.8-3.5,15.1-9.2,20.4,6.8,34.8,15,123.1,17.8,158.2,0,.3,0,.6-.3.8-.2.2-.5.3-.7.3h-86.5.1Z"/>
            <path class="st0" d="M114.2,15.8h.2l12.5.3c2.6,0,4.9,1.3,6.5,3.2,1.5-1.3,3.4-2.1,5.6-2.1h.2l12.5.3c3.7,0,6.8,2.5,8,5.8l8.9.2c4.8,0,8.5,4,8.4,8.8l-.7,33.3c-.2,8-3.7,15.1-9.3,20,6.8,34.5,15.2,124.1,17.9,158.6h-86.5l-.4-151.6c-10.4-4.8-17.5-15.4-17.2-27.6l.9-40.7c0-4.7,3.9-8.4,8.6-8.4h.2l12.5.3c2,0,3.9.8,5.3,2,1.6-1.5,3.7-2.4,5.9-2.4h0ZM114.2,13.8h0c-2.2,0-4.3.7-6,1.9-1.6-.9-3.3-1.4-5.2-1.5l-12.5-.3h-.2c-5.7,0-10.5,4.7-10.6,10.4l-.9,40.7c-.3,12.2,6.5,23.4,17.2,28.9l.4,150.3c0,1.1.9,2,2,2h86.5c.6,0,1.1-.2,1.5-.6s.6-1,.5-1.5c-2.8-35-11-122.5-17.7-157.8,5.7-5.4,9-12.9,9.1-20.7l.7-33.3c.1-5.8-4.5-10.7-10.4-10.8l-7.6-.2c-1.7-3.5-5.3-5.8-9.3-5.9l-12.5-.3h-.2c-1.9,0-3.7.5-5.3,1.4-1.8-1.6-4.2-2.5-6.7-2.6l-12.5-.3h-.2v.2Z"/>
          </g>
          <path class="st2" d="M148.4,92.4h-2.3l1.2-57c0-8.5,4-12.3,8.8-12.2l12.5.3c4.8,0,8.5,4,8.4,8.8l-.7,33.3c-.3,15.1-12.8,27.1-27.9,26.8h0Z"/>
          <g>
            <path class="st1" d="M192.1,40.4c0-5.9-4.8-10.6-10.6-10.6h-104.3c-6.4-11.7-18.8-19.8-33.2-19.8S16,19,10,31.9h32l9.1,15.7-9.1,15.8H10c6,12.9,19,21.8,34.1,21.8s26.8-8.1,33.1-19.8h104.4c5.9,0,10.6-4.8,10.6-10.6v-14.2h0v-.2Z"/>
            <path class="st1" d="M67.1,54.7c0,5.9,4.8,10.6,10.6,10.6h104.3c6.3,11.8,18.8,19.8,33.1,19.8s28.1-8.9,34-21.8h-32l-9.1-15.7,9.1-15.8h32c-5.9-12.9-18.9-21.8-34-21.8s-26.8,8.1-33.1,19.8h-104.4c-5.9,0-10.6,4.8-10.6,10.6v14.2h0Z"/>
          </g>
          <path class="st2" d="M185,244.2c-4.8-61.2-27.4-204.3-27.4-204.3l-59.6,45.2.5,159.1h86.5Z"/>
          <path class="st2" d="M89.5,15.9l14.6.3c4.1,0,7.4,3.5,7.3,7.7l-1.5,68.8h-3.6c-14.3-.4-25.7-12.2-25.4-26.6l.9-42.8c0-4.1,3.5-7.4,7.7-7.3h0Z"/>
          <path class="st2" d="M113.3,15.7l14.7.3c4.1,0,7.4,3.5,7.3,7.7l-1.4,66.4c0,2.8-2.4,5.1-5.2,5l-19.5-.4c-2.8,0-5.1-2.4-5-5.2l1.4-66.4c0-4.1,3.5-7.4,7.7-7.3h0Z"/>
          <path class="st2" d="M144,65.3h0c-8.3-.2-14.9-7.1-14.5-15.4l.9-24.3c0-4.8,4-8.5,8.8-8.4l12.5.3c4.8,0,8.5,4,8.4,8.8l-.9,24.8c-.3,8.1-7.1,14.5-15.2,14.3h0Z"/>
          <path class="st0" d="M129.2,82.1h0c-.6,0-.9-.6-.9-1.1,0-.9,2.4-21.9-18.1-26.6-.5,0-.9-.7-.8-1.2s.7-.9,1.2-.8c22.2,5.2,19.6,28.6,19.6,28.8,0,.5-.5.9-1,.9h.1Z"/>
          <path class="st0" d="M121.2,58.9c-.3,0-.7-.2-.9-.5-.3-.5,0-1.1.3-1.4l7.4-4.4c2.7-1.6,4.8-4.2,5.8-7.2s.2-3.1-.7-4.3c-.9-1.3-2.3-2-3.9-2h-41l-6.5,17.1c-.2.5-.8.8-1.3.6s-.8-.8-.6-1.3l6.8-17.7c.2-.4.5-.6.9-.6h41.7c2.2,0,4.2,1,5.5,2.8s1.6,4,.9,6.1c-1.2,3.5-3.5,6.4-6.6,8.3l-7.4,4.4c-.2,0-.3,0-.5,0h0Z"/>
          <path class="st0" d="M107.9,37.3c-.6,0-1-.4-1-1v-19.3c0-.6.4-1,1-1s1,.4,1,1v19.4c0,.6-.4,1-1,1h0Z"/>
          <path class="st0" d="M132.8,40c-.6,0-1-.4-1-1v-21.5c0-.6.4-1,1-1s1,.4,1,1v21.5c0,.6-.4,1-1,1Z"/>
          <path class="st0" d="M125.7,64.8c-.6,0-1-.4-1-1s.4-1,1-1c2.9,0,5.6-1.6,7-4.2.3-.5.9-.7,1.3-.4s.7.9.4,1.3c-1.7,3.3-5.1,5.3-8.8,5.3h0Z"/>
          <path class="st2" d="M157.7,26l12.5.3-.6,30.6c0,4.4-3.7,7.9-8.2,7.8h-4.6c-4.4-.2-7.9-3.8-7.8-8.3l.5-22.6c0-4.4,3.7-7.9,8.2-7.8h0Z"/>
          <path class="st0" d="M162.3,65.7c-5.4,0-9.9-4.9-9.9-11v-19.4c0-2.6.4-5.2,1.2-7.7.9-2.7,2.9-4.9,5.5-6.1.5-.2,1.1,0,1.3.5s0,1.1-.5,1.3c-2.1,1-3.8,2.8-4.5,4.9-.7,2.3-1.1,4.7-1.1,7.1v19.4c0,5,3.5,9,7.9,9s7.9-4,7.9-9v-12.8c0-.6.4-1,1-1s1,.4,1,1v12.8c0,6.1-4.4,11-9.9,11h.1Z"/>
          <path class="st0" d="M143.1,65c-6.2,0-11.3-5.2-11.3-11.6v-3.4c0-.6.4-1,1-1s1,.4,1,1v3.4c0,5.3,4.2,9.6,9.3,9.6s9.3-4.3,9.3-9.6v-1.3c0-.6.4-1,1-1s1,.4,1,1v1.3c0,6.4-5.1,11.6-11.3,11.6Z"/>
        </g>
        <g>
          <path class="st0" d="M88.1,189.1s11.2-17.7,14.6-26c3.4-8.2-1.1-16.2-8.9-26.4-7.9-10.2-7.1-8.3-3.4-8.6,3.7-.3-3.7-8.1-17.2-10.9-13.6-2.8-37.9-3-37.9,23s38.7,66.7,52.8,48.8h0Z"/>
          <circle class="st0" cx="60.6" cy="144.5" r="24.3"/>
          <circle class="st0" cx="86.3" cy="175.5" r="33.7"/>
          <g>
            <path class="st2" d="M100.2,246.3s-.8-36.8.2-40.9l.2-.7c1.7,1.6,3.8,2.8,6.2,3.3,6.7,1.4,13.3-2.9,14.7-9.7,1.4-6.7-2.9-13.3-9.7-14.7-2.1-.4-4.2-.3-6.2.3,3.6-18.7-5.9-37.7-23.4-45.9-21.5-10.1-47.1-.5-56.5,21.3l-5.2,11.9c-8.3,19.1,3.2,40.9,23.6,44.9l3.7.7v29.3h52.3v.2Z"/>
            <path class="st0" d="M47.9,247.3c-.6,0-1-.4-1-1v-28.5l-2.9-.6c-10-2-18.5-8.3-23.3-17.3-4.8-9.1-5.2-19.6-1.1-29l5.2-11.9c4.7-10.8,13.3-19,24.3-23.2,11-4.2,22.9-3.7,33.6,1.3,17.3,8.1,27.1,26.7,24.2,45.4,1.7-.3,3.4-.3,5.1,0,3.5.7,6.5,2.8,8.5,5.8s2.7,6.6,1.9,10.1c-1.5,7.2-8.6,11.9-15.8,10.4-1.9-.4-3.8-1.2-5.3-2.4-.6,5.7-.3,30.2,0,39.7,0,.6-.4,1-1,1s-1-.4-1-1c0-1.5-.8-37,.3-41.2l.2-.7c0-.3.3-.6.7-.7s.7,0,1,.2c1.6,1.6,3.6,2.6,5.7,3.1,6.2,1.3,12.2-2.7,13.5-8.9.6-3,0-6-1.7-8.6s-4.2-4.3-7.2-4.9c-1.9-.4-3.8-.3-5.7.3-.3,0-.7,0-1-.2s-.4-.6-.3-.9c3.5-18.4-5.9-36.8-22.8-44.8-10.1-4.8-21.5-5.2-32-1.3s-18.7,11.8-23.2,22.1l-5.2,11.9c-3.8,8.8-3.4,18.8,1,27.3s12.4,14.4,21.9,16.3l3.7.7c.5,0,.8.5.8,1v29.3c0,.6-.4,1-1,1h0v.2Z"/>
          </g>
          <path class="st0" d="M103.4,198.9h-.2c-.5-.1-.9-.6-.8-1.2.6-2.7,2.1-4.9,4.4-6.4s5-2,7.7-1.5c.5.1.9.6.8,1.2s-.6.9-1.2.8c-2.1-.4-4.3,0-6.1,1.2-1.8,1.2-3.1,3-3.5,5.2,0,.5-.5.8-1,.8h-.1Z"/>
          <path class="st0" d="M41.5,171c-.2,0-.4,0-.6-.2-.4-.3-.5-1-.2-1.4l6.1-7.9c1.8-2.4,2.7-5.6,2.2-8.6-.3-2.6-1.6-4.8-3.4-6.2h0c0-.1-3.4-3-9.8.6-.5.3-1.1,0-1.4-.4-.3-.5-.1-1.1.4-1.4,7.4-4.2,11.5-.8,12.1-.3,2.2,1.7,3.7,4.3,4.1,7.5.5,3.6-.5,7.3-2.7,10.1l-6.1,7.9c-.2.3-.5.4-.8.4h0Z"/>
          <path class="st0" d="M68.7,163.7c-1.5,2-3.8,2.5-5,1.2s-.9-3.9.6-5.9,3.8-2.5,5-1.2.9,3.9-.6,5.9Z"/>
          <path class="st0" d="M42.3,158.1c-1.5,2-3.8,2.5-5,1.2s-.9-3.9.6-5.9,3.8-2.5,5-1.2c1.2,1.3.9,3.9-.6,5.9Z"/>
          <g>
            <path class="st2" d="M37.6,178.4h23.4c0,.1-12.6,27.2-23.4,0Z"/>
            <path class="st0" d="M48.5,191.5h-.2c-4.4-.1-8.3-4.4-11.6-12.8-.1-.3,0-.7,0-.9.2-.3.5-.4.8-.4h23.4c.3.1.7.3.8.6.2.3.2.7,0,1-.2.5-5.9,12.6-13.4,12.6h.2ZM39.1,179.4c2.8,6.6,5.9,10,9.3,10.1h.2c4.9,0,9.2-6.9,10.8-10h-20.3Z"/>
          </g>
          <path class="st0" d="M105.9,182.2c2.6-17.8-6.4-35.5-22.6-43.7-1,16.6,7.8,32.8,22.6,43.7Z"/>
          <path class="st0" d="M82.5,163.4c-.4,0-.8-.3-.9-.7-4-12.4-18.9-13.7-19.1-13.7-.6,0-1-.5-.9-1.1,0-.6.5-1,1.1-.9.2,0,16.5,1.4,20.9,15.1.2.5,0,1.1-.7,1.3h-.4Z"/>
          <path class="st0" d="M97.1,154.1h-.4c-.5-.2-.8-.8-.5-1.3,3-7.1,11.5-7.7,11.9-7.8.5,0,1,.4,1.1.9,0,.6-.4,1-.9,1.1,0,0-7.7.6-10.2,6.5-.2.4-.5.6-.9.6h0Z"/>
          <path class="st0" d="M96.3,153.4c-.4,0-.7-.2-.9-.6-.2-.5,0-1.1.5-1.3,5.8-2.8,6.2-10.3,6.2-10.4,0-.6.5-1,1-1s1,.5,1,1-.3,8.9-7.3,12.2h-.5Z"/>
          <path class="st0" d="M51.3,218.1c-1.1,0-2.3,0-3.4-.2-.6,0-.9-.5-.9-1.1s.5-.9,1.1-.9c15.9,1.6,27-9.1,27.1-9.2.4-.4,1-.4,1.4,0s.4,1,0,1.4-10.4,10-25.3,10h0Z"/>
        </g>
      </g>
    </g>
  </g>
</svg>