<?xml version="1.0" encoding="UTF-8"?>
<svg id="Layer_1" xmlns="http://www.w3.org/2000/svg" version="1.1" viewBox="0 0 305.4 252.6">
  <!-- Generator: Adobe Illustrator 29.2.0, SVG Export Plug-In . SVG Version: 2.1.0 Build 108)  -->
  <defs>
    <style>
      .st0 {
        fill: #303030;
      }

      .st1 {
        fill: #26a8df;
      }

      .st2 {
        fill: #fafafa;
      }
    </style>
  </defs>
  <path class="st2" d="M124.8,252.6c-1.6,0-3.2-.4-4.5-1H10c-3.2,0-6.3-1.6-8.2-4.2-1.9-2.7-2.3-6.1-1.2-9.1l11-30.9c3.6-10.4,11.6-18.7,21.9-22.7l10.4-4.1.5-.4v-9.3c-7.9-3.3-14-9.9-16.5-18.1l-1-3.4c-1.7-5.5-1.9-11.2-.7-16.7-.4-.8-.6-1.7-.8-2.7,0-.5-.1-1.1-.1-1.6,0-3.2,1.2-6,3.3-8,.1-.2.3-.5.4-.7,1.6-2.4,4.2-4,7.1-4.6,0,0,0,0,.1,0,3.3-3.1,7.2-5.5,11.5-7,.7-.3,1.3-.5,2-.7,1.8-.5,3.7-.8,5.6-.8,1.5-1,3.2-1.7,4.9-2.2,1.8-.5,3.7-.8,5.6-.8,5.4,0,10.6,2.2,14.2,6.1,5.5,2.1,9.8,6.7,11.5,12.5.5,1.7.8,3.4.8,5.2,1.8,1.3,3.2,3,4.2,5,1.3,2.7,1.8,5.7,1.3,8.6l.2.3c3.3,6,3.9,13,1.9,19.6-.5,1.6-1.1,3.1-1.8,4.5,1.1.2,2.2.5,3.3.8.4-6.1,2.2-12.1,5.5-17.5l10.8-18.3c2.3-3.9,5.9-6.5,10.1-7.4-3-2.8-5.6-6.1-7.6-9.7l-3.1,1.6c-2,1-4.3,1.6-6.6,1.6-4.5,0-8.8-2.1-11.6-5.7-2.8-3.6-3.7-8.2-2.6-12.6l1.8-6.7c-7.1-7.4-11.6-17.6-11.6-27v-23.3c0-16.1,12.9-33.1,28.2-37.1.1,0,.2,0,.3,0,10.7-2.4,21.6-3.6,32.5-3.6s21.8,1.2,32.5,3.6c0,0,.2,0,.3,0,13.1,3.4,24.4,16.2,27.4,30,.2,0,.4,0,.6.1.1,0,.2,0,.3,0,15.3,4,28.2,20.9,28.2,37.1v7.3c1-.2,2-.3,3.1-.3,4.6,0,9.3,1.7,13.1,4.7,1.1-.2,2.2-.4,3.3-.4,3,0,8.8,1,13.3,7.6,0,0,0,0,0,.1,1.5,2.3,2.8,4.7,3.8,7.1.4,0,.9,0,1.3,0,5.1,0,9.6,2.7,11.9,7.3,1.6,3.1,6.5,13.9,3.3,22.9-.9,2.6-2.4,4.8-4.3,6.4,0,8.4-2.6,18.2-10,22.1-.4,4.5-.3,8.5.2,12.1.3.2.6.4.8.6,1.6,1.2,2.8,2.9,3.5,4.8,8.9,7.5,26.8,27.8,25.1,67.8-.2,5.9-5,10.7-11,10.7s-1.8-.1-2.7-.3l-28.5-.2c-1.2.4-2.5.7-3.8.7s-2.6-.3-3.8-.7l-38.5-.3c-.9.4-1.8.8-2.8,1-.7.1-1.3.2-2,.2-1.7,0-3.3-.4-4.7-1.2h-22.6c-.9.5-1.9.9-2.9,1.2-.9.3-1.9.4-2.9.4-4,0-7.4-2-9.3-5.1,0,0,0,0,0,0-1.9,2.7-4.9,4.2-8.2,4.2h-32.3c-.4.2-.8.3-1.2.4-1,.4-2.2.6-3.3.6ZM169,232.7l4.1-25c-4.2-6.9-6-15.1-5.2-23.1l.4-3.9c-.3-4,1-7.9,3.6-11,.4-.5.9-1,1.4-1.5.6-1.7,1.5-3.4,2.7-4.8.7-.8,1.5-1.6,2.3-2.3.2-.4.3-.8.5-1.2l-25.7,21.3.5,6.4c0,.3,0,.5,0,.8,0,.4,0,.8,0,1.1l15.5,43.1ZM224.1,162.9c-.4-3.7-.2-10.3,2.9-25.5,0-.2-.2-.4-.2-.7,0,0,0-.2,0-.2-.5,1.4-1.3,2.8-2.2,4.1-2.8,3.6-7.1,5.7-11.6,5.7s-.5,0-.7,0l.9,8.8,11.1,7.9ZM227,127.9c0,.2.1.5.2.7.6-1.3,1.5-2.5,2.5-3.5.4-1.6.7-3,1.1-4.4-.9-1-1.7-2-2.4-3.2-1,1.3-2,2.5-3.1,3.7l1.8,6.7Z"/>
  <path class="st0" d="M270.8,178.7v-1.4c.1-.3,0-.7-.3-.9-.2-.2-.6-.3-.9-.2l-1.9.7c-2.5-7.6-3-16.9-1.3-27.9.2-.4.5-.8.7-1.2.8.1,1.8,0,3.2-.5,5-1.5,6.4-13,4.8-19.9,0-.1,0-.3,0-.4.9.3,1.9.4,2.8,0,5-2.2,3.2-11.3-.2-17.9-2.1-4.1-7.6-.9-10.7,2.4,0,0,0,0,0,0-.4-4.2-2.3-10.6-5.7-15.8-3.6-5.2-8.1-3.3-10.3,0-.4-.6-.8-1.2-1.2-1.9-6.5-9.6-21.8-7.8-16.8,9.9,2.2,7.7,5.4,11.5,9,13.4,0,0,0,.1,0,.2-1.1,4.2-2.3,9.3-3.5,14.6-.5,0-1,.2-1.6.4-.5.2-.8.7-.6,1.3.2.6.8.8,1.3.6.1,0,.3,0,.4-.1-2.5,11.5-4.6,23.5-3.8,28.3.9,5,3.2,8.2,6.6,9.2.7.2,1.4.3,2.1.3.3,0,.5,0,.8,0-.7,1.6-1.6,3.3-2.9,5.2l-.3-.5c-.2-.4-.6-.6-1-.6-.5,0-.8.4-.9.8l-.7,3.2c-4.1,1.3-15.9,5.1-22.9,9.3l6.3-15.1c0-.4,0-.9-.4-1.2h0s0,0,0,0l-17.2-12.2-1.7-16.9c-.3-3.1-3.3-5.4-6.5-4.8-2.8.6-4.7,3.4-4.4,6.2l1.5,16.1c-1.5,0-3.1.7-4,2-1,1.3-1.4,2.9-1.1,4.5,0,0,0,0,0,.1-1.4.1-2.8.8-3.7,2-1,1.2-1.4,2.9-1.1,4.5,0,0,0,0,0,0-1.2.2-2.2.8-3,1.8-1.1,1.3-1.5,2.9-1.2,4.5l-.5,5c-.7,7,1.4,14.2,5.8,19.8l-5.4,33.3c0,.9,0,1.8,0,2.7s.4,1,1,1h0c.6-.1,1-.3,1-1.1s0-.3,0-.5h31c0,.6.5,1,1,1v.2c.6,0,1-.5,1-1.1h0c0,0,45.2.3,45.2.3.2.4.5.6.9.6h0c.5,0,.8-.2.9-.6l33.2.3c.2.2.4.3.7.3h.1c.5,0,1-.5,1-1,1.9-43.1-21.3-59.9-24.5-62.1ZM213.1,239.8l56.8-59.2s0,0,0,0l-56.8,59.3h0ZM96.5,64.1v-23.3c0-11,9.1-24.4,20.7-27.4,20-4.5,40.7-4.5,60.6,0,11.6,3,20.7,16.4,20.7,27.4v1.3c2.5.4,5.1.9,7.6,1.5,11.6,3,20.7,16.4,20.7,27.4v23.3c0,8.3-5.3,18.1-12.8,23.6l3.3,12.6c1,3.8-3,7.1-6.5,5.3l-22.6-11.3c-14.2,1.3-28.6.4-42.7-2.8-9.9-2.6-18-12.7-20.1-22.5l-12.9,6.4c-3.5,1.8-7.5-1.5-6.5-5.3l3.3-12.6c-7.6-5.5-12.8-15.2-12.8-23.6ZM242.7,171.9s0,0,.1,0c0,0,0,0,0,0h-.2ZM161.6,241.6h-35.8c0,.5-.3.9-.9.9h-.1c-.5,0-.9-.3-1-.8h0c0,0-113.8,0-113.8,0l11-30.9c2.7-7.7,8.6-13.8,16.2-16.8l12.1-4.8c0,0,0-.1.2-.2l5-4.3-.3-21.6c-7.5-.6-14.4-5.6-16.7-13.2l-1-3.4c-1.8-5.9-1.1-12,1.4-17.2-.8-.1-1.5,0-1.5,0-.6,0-1-.3-1.1-.9,0-.6.3-1,.9-1.1,0,0,.6,0,1.3,0-.2-.6-.3-1.1-.4-1.1,0-.5.2-1.1.8-1.2.5-.1,1.1.2,1.2.8,0,0,0,.4.3.9,2.8-4.2,6.9-7.6,12-9.3.4-.2.8-.3,1.2-.5,1.9-.6,3.9-.5,5.7,0,1.2-1.4,2.8-2.5,4.7-3.1,4.4-1.3,9,.6,11.2,4.4,3.6.5,6.7,2.9,7.8,6.6.7,2.3.5,4.7-.5,6.7.5.7,1,1.4,1.4,2.2l.4.7c1.8-.3,3.6.6,4.4,2.2.8,1.6.5,3.5-.7,4.8l2.3,4.3c4.1,7.6,1.2,17.2-6.5,21.2-1,.5-2,.9-3.1,1.2v8.6c0,0,1.2-.1,1.6-.2h0c10.6-4.6,22.9-1.4,29.9,7.8l4.8,6.3-3.7-15c-1.9-7.5-.8-15.4,3.2-22.1l10.8-18.4c1.2-2,3.4-3.1,5.7-2.7,1.7.2,3.1,1.2,4,2.6.9,1.4,1.1,3.2.5,4.8l-4.4,12.9,13,1,3.1-11.8c.7-2.6,2.7-4.7,5.3-5.4,1-.3,2.1,0,2.9.6.8.7,1.2,1.7,1.1,2.7l-.3,2.8,2.5-5c1-2.2,2.9-3.8,5.2-4.5,1.1-.3,2.3,0,3.1.8.8.8,1.1,2,.7,3.1l-2.5,7.5,5.7-3.7c2.4-1.5,5.5-1.1,7.4,1,.6.7,1,1.6.9,2.6,0,1-.5,1.8-1.3,2.4l-36.2,30.1.9,11.6c0,.6-.4,1-.9,1.1-.6,0-1-.4-1.1-.9l-23.4,2.6h0c0,.4,0,.8-.3,1l24.9-2.7h.1l18.7,52Z"/>
  <g id="Layer_2">
    <g id="_Layer_">
      <g>
        <path class="st2" d="M204.4,194.9s28.9-14.6,36.8-15,29.1.3,29.1.3l-58.1,60.6-11.1-8.8,3.2-37.1h.1Z"/>
        <path class="st2" d="M212.2,240.8l82.1.7s.7-16.2-4.4-33.9-19.6-27.3-19.6-27.3l-58.1,60.6h0Z"/>
        <path class="st0" d="M294.2,241.8h0c-.6,0-1-.5-.9-1,2-44.8-23.7-60.3-23.9-60.5-.5-.3-.6-.9-.4-1.4.3-.5.9-.6,1.4-.4.3.2,26.9,16.2,24.9,62.3,0,.5-.5,1-1,1h-.1Z"/>
        <path class="st0" d="M259.3,241.8c-.5,0-1-.4-1-1,0,0,0-5.5-.4-11.6,0-.6.4-1,1-1s1,.4,1,1c.3,6.2.4,11.6.4,11.7,0,.6-.4,1-1,1h0Z"/>
        <g>
          <g>
            <path class="st0" d="M145.5,121.7c20,4.5,40.7,4.5,60.6,0,11.6-3,20.6-16.4,20.7-27.4v-23.3c0-11-9.1-24.4-20.7-27.4-20-4.5-40.7-4.5-60.6,0-11.6,3-20.7,16.4-20.7,27.4v23.3c0,11,9.1,24.4,20.7,27.4Z"/>
            <path class="st0" d="M211.1,107l6.2,23.5c1,3.8-3,7.1-6.5,5.3l-29-14.5c-3.6-1.8-3.4-7,.4-8.4l22.8-9c2.6-1,5.4.4,6.2,3.1h0Z"/>
          </g>
          <g>
            <path class="st1" d="M177.8,91.5c-20,4.5-40.7,4.5-60.6,0-11.6-3-20.7-16.4-20.7-27.4v-23.3c0-11,9.1-24.4,20.7-27.4,20-4.5,40.7-4.5,60.6,0,11.6,3,20.7,16.4,20.7,27.4v23.3c0,11-9.1,24.4-20.7,27.4h0Z"/>
            <path class="st1" d="M112.2,76.8l-6.2,23.5c-1,3.8,3,7.1,6.5,5.3l29-14.5c3.6-1.8,3.4-7-.4-8.4l-22.8-9c-2.6-1-5.4.4-6.2,3.1h0Z"/>
          </g>
          <g>
            <rect class="st2" x="141.5" y="73.7" width="5.9" height="5"/>
            <path class="st2" d="M152.5,56.5v-5c3.4,0,6.1-2.7,6.1-6.1v-4.3c0-3.4-2.7-6.1-6.1-6.1h-8.6c-3.4,0-6.1,2.7-6.1,6.1h-5c0-6.1,5-11.1,11.1-11.1h8.6c6.1,0,11.1,5,11.1,11.1v4.3c0,6.1-5,11.1-11.1,11.1Z"/>
            <path class="st2" d="M146.4,67h-5v-4.3c0-6.1,5-11.1,11.1-11.1v5c-3.4,0-6.1,2.7-6.1,6.1v4.3Z"/>
          </g>
          <g>
            <g>
              <path class="st2" d="M267.3,178.6c-3.6-9.5-4.6-24.1,1.8-46.4,12.1-42-23.6,28.4-23.6,28.4.2,2.5,2.7,8.7-6,19.7l3.9,5.2,23.8-6.9h.1Z"/>
              <path class="st0" d="M239.6,181.3c-.2,0-.4,0-.6-.2-.4-.3-.5-1-.2-1.4,7.4-9.3,6.5-14.9,6-17.9,0-.4-.1-.8-.2-1.1,0-.2,0-.4.1-.5,0-.1,5.6-10.9,11.4-21.5,12.3-22,14.2-21.3,15.4-20.8,1.3.5,2.2,2-1.4,14.5-5.5,19.1-6.1,34.5-1.9,45.8.2.5,0,1.1-.6,1.3-.5.2-1.1,0-1.3-.6-4.4-11.7-3.8-27.6,1.8-47.1,2.4-8.3,2.6-11,2.5-11.9-3.2,2.1-14.5,21.9-24,40.8,0,.2,0,.4.1.7.5,3.1,1.6,9.4-6.4,19.5-.2.2-.5.4-.8.4h0Z"/>
              <path class="st2" d="M244.6,111.1s-11.2,41.4-9.5,51.2,9.6,12.9,20.5.8c21-23.2,22.4-43,17.3-46.9-5.1-4-18.7-18.4-28.3-5h0Z"/>
              <path class="st0" d="M255.5,118.4c-6.7.4-17.5,3-22.5-14.7-5-17.7,10.3-19.5,16.8-9.9s5.4,13.6,1.1,9c-4.3-4.6,4.4-16,10.4-7.2,5.9,8.9,7.4,21.4,4.1,20.3-3.3-1,9-13.5,12.4-6.9s5.2,15.7.2,17.9-9.5-7.9-5.1-4,3.8,22.4-2.6,24.4c-6.4,2.1-5.9-2.7.1-7.5,6-4.9-.3-16.8-4.1-6.3-.3.9-2.8,6.9-2.8,6.9l-4.4,3s1.3-12.2,4.5-16.3c7.2-9.3,7-9.6-8-8.7h-.1Z"/>
            </g>
            <g>
              <polygon class="st2" points="244.7 186.1 245 195.5 269.7 179.4 270 177.1 244.7 186.1"/>
              <path class="st0" d="M245,196.5c-.2,0-.3,0-.5-.1-.3-.2-.5-.5-.5-.8l-.4-9.4c0-.4.2-.8.7-1l25.3-9c.3-.1.7,0,.9.2.3.2.4.6.4.9l-.2,2.3c0,.3-.2.6-.4.7l-24.7,16.1c-.2.1-.4.2-.6.2h0ZM245.7,186.8l.3,6.9,22.8-14.9v-.3l-23.1,8.2h0Z"/>
            </g>
            <g>
              <polygon class="st2" points="239.6 176.9 236.2 191.4 243.9 186 239.6 176.9"/>
              <path class="st0" d="M236.2,192.4c-.2,0-.4,0-.6-.2-.3-.2-.5-.7-.4-1.1l3.4-14.4c.1-.4.4-.7.9-.8.4,0,.8.2,1,.6l4.3,9.1c.2.4,0,1-.3,1.2l-7.7,5.3c-.2.1-.4.2-.6.2h0ZM239.9,179.9l-2.1,9.1,4.9-3.4-2.7-5.7h0Z"/>
            </g>
            <path class="st0" d="M242.9,171.9c-.8,0-1.5-.1-2.2-.3-3.4-1-5.7-4.2-6.6-9.2-1.3-7.4,4.3-31.4,7.8-45.1.1-.5.7-.9,1.2-.7s.9.7.7,1.2c-2.8,10.9-9,36.9-7.8,44.2.7,4.2,2.6,6.9,5.2,7.6,3.6,1,8.4-1.6,13.6-7.3.4-.4,1-.4,1.4,0s.4,1,0,1.4c-5.8,6.5-10.3,8.2-13.5,8.2h.2Z"/>
            <path class="st0" d="M243.9,151.8h-2.7c-.3-.1-.6-.2-.8-.5-.2-.2-.2-.5-.2-.8l4.1-18.9c.1-.5.6-.9,1.2-.8.5,0,.9.7.8,1.2l-3.9,17.7h1.5c.6,0,1,.5,1,1.1s-.5,1-1,1h0Z"/>
            <path class="st0" d="M240.8,138.3c0,.7-.7,1.2-1.4,1.1-.7,0-1.2-.7-1.1-1.4,0-.7.7-1.2,1.4-1.1.7,0,1.2.7,1.1,1.4h0Z"/>
            <path class="st0" d="M241.8,135c-.5,0-.9-.3-1-.8,0,0,0-.2-.3-.3-.3,0-1.1-.4-3,.3-.5.2-1.1,0-1.3-.6s.1-1.1.6-1.3c2.1-.7,3.7-.7,4.8,0,.8.5,1.1,1.2,1.2,1.6,0,.6-.3,1.1-.9,1.1,0,0-.1,0-.1,0Z"/>
            <path class="st0" d="M251.4,139.4c0,.7-.7,1.2-1.4,1.1-.7,0-1.2-.7-1.1-1.4,0-.7.7-1.2,1.4-1.1.7,0,1.2.7,1.1,1.4Z"/>
            <path class="st0" d="M252.5,136.1c-.5,0-.9-.3-1-.8,0,0,0-.2-.3-.3-.3,0-1.1-.4-3,.3-.5.2-1.1,0-1.3-.6s.1-1.1.6-1.3c2.1-.7,3.7-.7,4.8,0,.8.5,1.1,1.2,1.2,1.6,0,.6-.3,1.1-.9,1.1,0,0-.1,0-.1,0Z"/>
            <path class="st0" d="M249.4,160.9c-.4,0-.8-.3-1-.7-.1-.5.2-1.1.7-1.2,1.6-.4,2.8-2.7,3.2-3.5.2-.5.8-.8,1.3-.5.5.2.8.8.5,1.3-.2.4-1.7,3.9-4.5,4.7h-.3.1Z"/>
          </g>
          <path class="st0" d="M212.3,193.2c-.3,0-.6-.1-.8-.3-.4-.4-.3-1.1.1-1.4,6.9-5.9,26.9-11.8,27.7-12.1.5-.2,1.1.2,1.2.7.2.5-.1,1.1-.7,1.2-.2,0-20.3,6.1-27,11.7-.2.2-.4.2-.6.2h.1Z"/>
          <g>
            <path class="st0" d="M142.9,189.6l18.7,52H10l11-30.9c2.7-7.7,8.6-13.8,16.2-16.8l44.1-17.4c10.6-4.6,22.9-1.4,29.9,7.8l6.2,8.1,25.4-2.8h0Z"/>
            <g>
              <path class="st2" d="M117.3,191.5l-4-16.1c-1.8-7.2-.7-14.9,3.1-21.3l10.8-18.4c.9-1.6,2.8-2.5,4.7-2.2h0c2.9.4,4.7,3.3,3.7,6.1l-4.8,14.1,20.6,1.5,21.1-13.5c1.9-1.2,4.5-.9,6.1.8h0c.9,1.1.8,2.7-.3,3.6l-36.6,30.4,1,12.1-25.3,2.8h-.1Z"/>
              <path class="st0" d="M117.3,192.5c-.4,0-.9-.3-1-.8l-4-16.1c-1.9-7.5-.8-15.4,3.2-22.1l10.8-18.4c1.2-2,3.4-3.1,5.7-2.7,1.7.2,3.1,1.2,4,2.6s1.1,3.2.5,4.8l-4.4,12.9,19,1.4,20.8-13.3c2.4-1.5,5.5-1.1,7.4,1,.6.7,1,1.6.9,2.6,0,1-.5,1.8-1.3,2.4l-36.2,30.1.9,11.6c0,.6-.4,1-.9,1.1-.6,0-1-.4-1.1-.9l-1-12.1c0-.3.1-.6.4-.8l36.6-30.4c.3-.3.5-.6.5-1.1s-.1-.8-.4-1.1c-1.2-1.4-3.2-1.6-4.8-.7l-21.1,13.5c-.2.1-.4.2-.6.2l-20.6-1.5c-.3,0-.6-.2-.8-.4s-.2-.6,0-.9l4.8-14.1c.4-1,.2-2.2-.3-3.1-.6-.9-1.5-1.6-2.6-1.7-1.5-.2-2.9.5-3.7,1.8l-10.8,18.4c-3.7,6.2-4.7,13.6-2.9,20.6l4,16.1c0,.5-.2,1.1-.7,1.2h-.2,0Z"/>
            </g>
            <g>
              <path class="st2" d="M161.9,153.8l5.8-17.2c.5-1.6-.9-3.1-2.6-2.6h0c-2,.6-3.7,2.1-4.6,4l-8.1,15.9h9.5q0-.1,0,0Z"/>
              <path class="st0" d="M152.4,154.9c-.1,0-.3,0-.4-.1-.5-.2-.7-.8-.4-1.3l8.1-15.9c1-2.2,2.9-3.8,5.2-4.5,1.1-.3,2.3,0,3.1.8s1.1,2,.7,3.1l-5.8,17.2c-.2.5-.7.8-1.3.6-.5-.2-.8-.7-.6-1.3l5.8-17.2c.1-.4,0-.8-.2-1.1-.3-.3-.7-.4-1.1-.3-1.8.6-3.2,1.8-4,3.5l-8.1,15.9c-.2.3-.5.6-.9.6h-.1Z"/>
            </g>
            <g>
              <path class="st2" d="M132.8,168.5l12.1-9.8,4.4-16.6c.6-2.3,2.4-4,4.6-4.7h0c1.5-.4,2.9.8,2.7,2.3l-2.5,20.9-21.3,7.8h0Z"/>
              <path class="st0" d="M132.8,169.5c-.3,0-.6-.1-.8-.4-.4-.4-.3-1.1,0-1.4l11.8-9.6,4.3-16.2c.7-2.6,2.7-4.7,5.3-5.4,1-.3,2.1,0,2.9.6.8.7,1.2,1.7,1.1,2.7l-2.5,20.9c0,.6-.6.9-1.1.9s-.9-.6-.9-1.1l2.5-20.9c0-.4-.1-.7-.4-1-.3-.2-.7-.3-1-.2-1.9.5-3.4,2.1-3.9,4l-4.4,16.6c0,.2-.2.4-.3.5l-12.1,9.8c-.2.2-.4.2-.6.2h0Z"/>
            </g>
            <g>
              <path class="st0" d="M69.6,159.7l-8.6,2.6c-9.9,3-20.5-2.6-23.5-12.5l-1-3.4c-3.8-12.4,3.3-25.7,15.7-29.4l2,3.1c7.8-2.4,16.1,2.1,18.4,9.8l4.7,15.4c1.8,6.1-1.6,12.5-7.6,14.4h0Z"/>
              <ellipse class="st0" cx="59.3" cy="141.6" rx="21.1" ry="19.9" transform="translate(-2.2 .9) rotate(-.9)"/>
              <path class="st0" d="M78.9,175.2c-6.3-1.3-11.8-5.8-14.1-12.3l-2.1-6,15.9-5.7.4,24h-.1Z"/>
              <path class="st0" d="M54,144.6c-1.4-6.6,1.2-13.7,6.8-17.1h0c3.5-2.1,7.4-2.3,10.9-.9-1.8.2-7,1.1-7.9,4.5-1.2,4.2-1.2,12.2-9.8,13.5h0Z"/>
              <path class="st0" d="M82,124.8c1.5,5-1.3,10.3-6.3,11.8s-10.3-1.3-11.8-6.3,1.3-10.3,6.3-11.8,10.3,1.3,11.8,6.3Z"/>
              <path class="st0" d="M49.3,120.9c-9.4,4.2-14.5,14.7-11.8,24.9,2.7.8,5.6.8,8.5,0,7.5-2.3,11.8-10,9.7-17.1-1-3.4-3.4-6.1-6.3-7.7h-.1Z"/>
              <path class="st0" d="M64.4,123.1c1.5,5-1.3,10.3-6.3,11.8s-10.3-1.3-11.8-6.3,1.3-10.3,6.3-11.8,10.3,1.3,11.8,6.3Z"/>
              <path class="st0" d="M75.1,120.3c1.6,5.1-1.3,10.6-6.5,12.1s-10.6-1.3-12.1-6.5c-1.6-5.1,1.3-10.6,6.5-12.1s10.6,1.3,12.1,6.5Z"/>
              <path class="st0" d="M41.5,131.4c-.3,0-.7-.2-.8-.5-1.3-2.1-4.2-1.8-4.3-1.8-.6,0-1-.3-1.1-.9,0-.6.3-1,.9-1.1.2,0,4.2-.4,6.2,2.7.3.5.2,1.1-.3,1.4-.2,0-.3.2-.5.2h-.1Z"/>
              <path class="st0" d="M41.8,131.1h-.3c-3.5-1-4.3-4.9-4.4-5.1-.1-.5.2-1.1.8-1.2.5,0,1.1.2,1.2.8,0,0,.6,2.9,3,3.6.5.2.8.7.7,1.2,0,.4-.5.7-1,.7h0Z"/>
              <g>
                <path class="st2" d="M81.6,177.6l-2.6.3-.2-10.4c1.2-.3,2.5-.7,3.7-1.3,7.2-3.8,9.9-12.7,6.1-19.9l-2.7-5c1.3-.9,1.8-2.7,1-4.1h0c-.8-1.5-2.5-2.1-4-1.5l-.8-1.4c-3.8-7.2-12.7-9.9-19.9-6.1h0c-6,3.2-8.9,10.1-7.4,16.4-2.7.8-4.4,3.4-4.1,6.3.3,2.5,2.1,4.4,4.4,5.1l.5,29.1-5.3,4.6c1.9,5.2,6.8,10.2,13.5,12.9,10.7,4.3,21.9,1.5,25.1-6.4,2.5-6.2-.7-13.5-7.3-18.6h0Z"/>
                <path class="st0" d="M73.7,205.6c-3.3,0-6.9-.7-10.4-2.1-6.7-2.7-12-7.8-14.1-13.5,0-.4,0-.8.3-1.1l5-4.3-.4-27.9c-2.4-.9-4.1-3.1-4.4-5.7-.3-3,1.3-5.8,3.9-7.1-1.2-6.7,2-13.4,8.1-16.7,7.6-4.1,17.2-1.2,21.2,6.5l.4.7c1.8-.3,3.6.6,4.4,2.2.8,1.6.5,3.5-.7,4.8l2.3,4.3c4.1,7.6,1.2,17.2-6.5,21.2-1,.5-2,.9-3.1,1.2v8.6c0,0,1.7-.2,1.7-.2.2,0,.5,0,.7.2,7.1,5.4,10.2,13.3,7.6,19.7-2.3,5.8-8.7,9-16,9h0v.2ZM51.4,190c2,4.9,6.7,9.3,12.7,11.7,10.1,4.1,20.8,1.5,23.8-5.8,2.2-5.4-.4-12.3-6.6-17.1l-2.2.2c-.3,0-.6,0-.8-.2s-.3-.4-.3-.7l-.2-10.4c0-.5.3-.9.8-1,1.2-.3,2.4-.7,3.4-1.2,6.7-3.6,9.2-11.8,5.7-18.5l-2.7-5c-.2-.4,0-1,.3-1.3.9-.6,1.2-1.8.7-2.8s-1.7-1.4-2.8-1c-.5.2-1,0-1.2-.5l-.8-1.4c-1.7-3.2-4.6-5.6-8.1-6.7s-7.2-.7-10.4,1c-5.5,2.9-8.3,9.2-6.9,15.3,0,.5-.2,1-.7,1.2-2.2.7-3.7,2.9-3.4,5.2.2,2,1.7,3.7,3.6,4.2.4.1.7.5.7.9l.5,29.1c0,.3,0,.6-.3.8l-4.8,4.1h0Z"/>
              </g>
              <path class="st0" d="M57.7,152.7c-.4,0-.9-.3-1-.8-.4-1.7-2.1-2-2.1-2-.5,0-.9-.6-.8-1.1,0-.5.6-.9,1.1-.8,0,0,3.1.5,3.8,3.5,0,.5-.2,1.1-.7,1.2h-.3Z"/>
              <path class="st0" d="M81.2,146.2c-1,0-2.2-.3-3.4-1.4-.4-.3-.5-1-.2-1.4s1-.5,1.4-.2c2.1,1.7,3.3.6,3.5.4.4-.4,1-.4,1.4,0s.4,1,0,1.4c-.5.6-1.5,1.2-2.8,1.2h0Z"/>
              <path class="st0" d="M79.4,137.1c.3.8,0,1.6-.7,1.8-.6.2-1.4-.2-1.7-1s0-1.6.7-1.8c.6-.2,1.4.2,1.7,1Z"/>
              <path class="st0" d="M76.3,132.8c.4.4,0,1.5-1.1,2.5s-2.1,1.6-2.5,1.2,0-1.5,1.1-2.5,2.1-1.6,2.5-1.2Z"/>
              <path class="st0" d="M57.9,130.6c-6.1,2.1-9.8,8.3-8.7,14.7,1.6.6,3.4.8,5.3.5,4.8-1,7.9-5.5,7-10-.4-2.2-1.7-4-3.5-5.1h0Z"/>
              <path class="st0" d="M75.8,168.6c-5.7,0-11.2-3.2-13.9-8.3-.3-.5,0-1.1.4-1.3.5-.3,1.1,0,1.3.4,2.8,5.3,8.9,8.2,14.8,7,.5-.1,1.1.2,1.2.8,0,.5-.2,1.1-.8,1.2-1,.2-2.1.3-3.1.3h.1Z"/>
            </g>
            <path class="st2" d="M124.8,242.6c-.5,0-.9-.4-1-.9l-6.8-47.5c0-.6.3-1.1.9-1.1s1.1.3,1.1.8l6.8,47.5c0,.6-.3,1.1-.9,1.1h0Z"/>
            <path class="st2" d="M50.7,240.9h-.2c-.5-.1-.9-.6-.8-1.2l1.7-8.5c0-.5.6-.9,1.2-.8.5.1.9.6.8,1.2l-1.7,8.5c0,.5-.5.8-1,.8h0Z"/>
          </g>
          <g>
            <path class="st2" d="M178.5,238.8c0,.7-.1,1.3-.1,2h34.7l-3.1-40.5,11-26.5c.1-.3,0-.8-.3-1l-17.5-12.4-1.6-16.4c-.3-2.8-2.5-5-5.3-5s-5.6,2.7-5.3,5.8l1.6,16.5h-.5c-1.4.1-2.7.8-3.6,1.9-1.1,1.3-1.4,3.1-1,4.7-1.4,0-2.8.7-3.7,1.9-.9,1.1-1.3,2.5-1.2,3.9,0,.3,0,.6.2.9-1.1.2-2.2.8-3,1.8-1,1.2-1.4,2.8-1.1,4.4l-.5,5c-.7,7,1.4,14.2,5.8,19.8l-5.5,33.4h0v-.2Z"/>
            <g>
              <path class="st2" d="M203.4,170.1l-8.9.9-2.6-26.2c-.2-2.5,1.6-4.7,4-4.9h0c2.5-.2,4.7,1.6,4.9,4l2.6,26.2h0Z"/>
              <path class="st0" d="M194.4,172c-.5,0-.9-.4-1-.9l-2.5-26c-.3-2.8,1.6-5.6,4.4-6.2,3.2-.6,6.2,1.7,6.5,4.8l2.6,26.2c0,.3,0,.5-.2.7s-.4.3-.7.4l-8.9.9h-.2ZM196.3,140.8h-.3c-1.9.2-3.3,1.9-3.1,3.8l2.5,25.2,6.9-.7-2.5-25.2c-.2-1.8-1.7-3.2-3.5-3.2h0Z"/>
            </g>
            <g>
              <path class="st2" d="M207.2,178.5h0c-1.6,1.9-4.4,2.2-6.3.6l-11.1-9.1c-1.9-1.6-2.2-4.4-.6-6.3h0c1.6-1.9,4.4-2.2,6.3-.6l11.1,9.1c1.9,1.6,2.2,4.4.6,6.3Z"/>
              <path class="st0" d="M203.8,181.2c-1.3,0-2.5-.4-3.5-1.2l-10.9-9c-1-.8-1.8-2-2.1-3.3-.3-1.6.1-3.2,1.1-4.5s2.6-2,4.2-2,2.6.5,3.7,1.4l10.8,8.8c1,.8,1.8,2,2.1,3.3.3,1.6-.1,3.3-1.1,4.5q-.5.5,0,0c-.9,1.1-2.2,1.8-3.7,2h-.6ZM192.7,163.1h-.3c-.9,0-1.8.5-2.4,1.2-.7.9-1,2.1-.6,3.2.2.7.7,1.3,1.2,1.8l11,9c.7.6,1.6.9,2.6.8.9,0,1.8-.5,2.4-1.2.7-.9,1-2.1.6-3.2-.2-.7-.7-1.3-1.2-1.8l-11-9c-.6-.5-1.4-.8-2.2-.8h-.1ZM207.2,178.5h0Z"/>
            </g>
            <g>
              <path class="st2" d="M202.5,185.1h0c-1.6,1.9-4.4,2.2-6.3.6l-11.1-9.1c-1.9-1.6-2.2-4.4-.6-6.3h0c1.6-1.9,4.4-2.2,6.3-.6l11.1,9.1c1.9,1.6,2.2,4.4.6,6.3Z"/>
              <path class="st0" d="M199,187.8c-1.3,0-2.5-.4-3.5-1.2l-10.9-9c-1-.8-1.8-2-2.1-3.3-.3-1.6.1-3.3,1.1-4.5,1.9-2.3,5.4-2.7,7.7-.8l10.9,9c1,.8,1.8,2,2.1,3.3.3,1.6-.1,3.2-1.1,4.5-.9,1.1-2.2,1.8-3.7,2h-.5ZM187.9,169.7c-1,0-2,.4-2.7,1.3-.7.9-1,2.1-.6,3.2.2.7.7,1.3,1.2,1.8l11,9c.7.6,1.6.9,2.6.8.9,0,1.8-.5,2.4-1.2.7-.9,1-2.1.6-3.2-.2-.7-.7-1.3-1.2-1.8l-11-9c-.6-.5-1.4-.8-2.2-.8h-.1Z"/>
            </g>
            <g>
              <path class="st2" d="M179.1,241.4c0-.8,0-1.7.1-2.6l5.5-33.7h0c-4.4-5.4-6.6-12.4-5.8-19.4l.5-5.2c-.3-1.3,0-2.7.9-3.8,1.6-1.9,4.5-2,6.5-.4l3.4,2.8c1.1.9,1.6,2.1,1.6,3.4v.5l.4,4.4c.2,2.3-1.3,4.6-3.6,5-2.6.5-5.1-1.4-5.3-4l-.4-3.6,1.6,20.3-5.6,36.2h.2Z"/>
              <path class="st0" d="M179.1,242.4h0c-.6,0-1-.4-1-1,0-.9,0-1.8.1-2.7l5.4-33.3c-4.4-5.6-6.5-12.8-5.8-19.8l.5-5c-.3-1.6.1-3.2,1.2-4.5,1.9-2.3,5.4-2.6,7.9-.6l3.4,2.8c1.2,1,1.9,2.5,2,4.1v.5l.4,4.4c.3,2.9-1.6,5.6-4.4,6.1-1.5.3-3.1,0-4.3-1-1.2-.9-2-2.3-2.2-3.9l-.4-3.6c0-.6.4-1,.9-1.1.6,0,1,.3,1.1.9l.3,3.5c0,.9.4,1.7,1.1,2.3.8.8,2,1.1,3.1.9,1.7-.3,2.9-2.1,2.8-3.9l-.4-4.4v-.6c0-1-.5-2-1.2-2.6l-3.4-2.8c-1.6-1.3-3.8-1.1-5,.3-.7.8-1,1.9-.7,2.9v.3l-.3,3.2c-.6,6.2,1.2,15.9,5.4,20.6.2.2.3.5.2.8l-5.5,33.7c0,.8-.1,1.6-.1,2.4s-.4,1-1,1h-.1Z"/>
            </g>
            <g>
              <path class="st2" d="M201.2,191.9c0-11.5,8.6-14.9,8.6-14.9l-8.6-9.2c-1.4-1.5-2-3.5-1.6-5.5h0c.3-1.4,1.9-2.1,3.1-1.3l17.6,12.4-11.1,26.7,3,40.6-11-48.8h0Z"/>
              <path class="st0" d="M212.2,241.8c-.5,0-1-.4-1-.9l-3-40.6v-.5l10.8-25.9-16.9-12c-.3-.2-.6-.2-1-.1-.3.1-.6.4-.6.7-.3,1.7.2,3.4,1.4,4.7l8.6,9.2c.2.2.3.6.2.9,0,.3-.3.6-.6.7-.3.1-8,3.3-8,14s-.4,1-1,1h0c-.6,0-1-.4-1-1,0-9.3,5.5-13.7,8-15.2l-7.7-8.2c-1.5-1.6-2.2-3.8-1.9-5.9.1-1,.6-2,1.5-2.5,1-.6,2.3-.5,3.2.2l17.6,12.5c.4.3.5.8.4,1.2l-11,26.4,3,40.4c0,.6-.4,1-.9,1.1h0v-.2Z"/>
            </g>
          </g>
        </g>
      </g>
    </g>
  </g>
</svg>