<?xml version="1.0" encoding="UTF-8"?>
<svg id="Layer_1" xmlns="http://www.w3.org/2000/svg" version="1.1" viewBox="0 0 286 254.6">
  <!-- Generator: Adobe Illustrator 29.2.0, SVG Export Plug-In . SVG Version: 2.1.0 Build 108)  -->
  <defs>
    <style>
      .st0 {
        fill: #303030;
      }

      .st1 {
        fill: #26a8df;
      }

      .st2 {
        fill: #fafafa;
      }
    </style>
  </defs>
  <path class="st2" d="M239.3,254.6c-7.5,0-14.9-1.8-21.5-5.2l-8.9-4.6c-.2,0-.4-.2-.6-.3h-60.9c-1.5.8-3.2,1.2-5,1.2-5.8,0-10.6-4.4-11.1-10l-.4-3c-.6.1-1.2.2-1.7.3-7.6,2-15.4,3.1-23.2,3.1s-20.3-1.8-29.9-5.2c-.7-.2-1.3-.5-1.8-.7-.4-.1-.8-.3-1.2-.5-.1,0-.2,0-.3-.1-.4-.1-.8-.3-1.2-.5h-.2c-.3-.2-.6-.4-.8-.5-1-.4-1.9-.9-2.9-1.3,0,0-.2-.1-.2-.1-2.2-1.1-4.4-2.2-6.5-3.5l-2.4.9c-5.1,2-10.4,3-15.8,3-10.9,0-21.3-4.2-29.4-11.9-12.1-11.6-16.3-28.7-11-44.6l1.5-4.4c-5.1-33.3,5.6-45.9,15.6-50.6.9-.4,1.9-.8,3-1.2,0-.1.1-.3.2-.4.2-.5.4-1,.6-1.5,13.4-33.6,44.2-55,80.3-55.9,0,0,4.9,0,4.9,0,.8,0,1.6.1,2.4.3,8.8.5,16.7,2.1,25.3,5.1,1.5.5,2.9,1.1,4.3,1.6,0,0,0,0,0,0-.5-4.5,0-8.7,1.6-12.1-6-29.5-.5-37.6,1.3-40.3,5.1-7.7,11.9-11.6,20-11.6s14.1,3.2,19.4,5.9c1.7.9,2.4,1,2.4,1,.2,0,.9-.3,1.5-.4,2-.6,5-1.6,9.2-1.6s7.7.7,12.2,2.3c13.5,4.6,22,15.3,20.9,26.7,0,1-.2,2.2-.2,3.6-.3,5.4-.8,13.2-2.6,20.2.6,4.3-.1,8.4-.9,11.3-1,3.8-2.6,7.2-4.7,10,1.4,7.3,1.1,13.2-.1,18l20.8,8.6c15.8,6.5,27.4,20.2,31.1,36.9l12.5,54.8c3.1,13.4.1,27.3-8,38.3-8.4,11.5-21.7,18.5-35.9,19.1-.5,0-1.1.1-1.7.1ZM70.5,121.9c.3.9.6,1.8.8,2.6l47.1-21.1c-3.5-1-7.2-1.6-11.1-1.7-.4,0-.8,0-1.2-.1-14.5,0-28.1,7.1-36.4,18.5.3.5.5,1,.6,1.5,0,0,0,.2,0,.2Z"/>
  <path class="st0" d="M275.1,199.3l-12.5-54.8c-3-13.4-12.5-24.6-25.2-29.8l-30.7-12.6c4.4-5,6.7-13.1,2.7-26.3.7-.4,1.4-1,2.1-1.8,1.8-1.9,3.2-4.6,4-7.7.8-3,1-6.1.4-8.6,0-.2,0-.3-.1-.5,2.6-8.1,2.7-19.3,3.1-24.3.6-6.6-5.3-13.3-14.2-16.3-16.1-5.5-14.8,4.3-26.6-1.8-11.8-6.1-20-7.5-26.6,2.4-4.8,7.1-1.2,26.8,1,36.6-2.4,2.2-3.1,7.2-1.6,12.6.8,3.1,2.3,5.8,4,7.7.8.8,1.6,1.5,2.5,1.9-.9,3.1-1.4,5.9-1.6,8.4-5.7-4.4-12-8.1-19-11-1.3-.5-2.6-1-4-1.5-8.3-2.9-15.6-4.3-24.3-4.6l-.7,24.4c5.6.2,11.3,1.2,16.9,3.2,7,2.5,13.2,6.3,18.4,11l-12.2,3h-.2l-63.7,28.5c-.2-.2-.4-.3-.7-.3l-14.4.7c0-.1,0-.3,0-.4,1.9-.1,3.7-.3,5.1-.7,2.1-.5,3.5-1.6,4.3-3.2,1.8-3.6-.4-8.5-.4-8.7-.1-.3-.4-.6-.7-.6-.2,0-1.7-.4-4-.8,9.4-20.2,29.9-32.4,51.4-31.8l.7-24.5h-4.7c-32,.8-59.4,19.8-71.3,49.7-.3.7-.5,1.4-.8,2.1,0,.3-.2.6-.3.9v.2c-.4,1-.7,2-1,3,0,0,0,0,0,0-2.3.5-4.6,1.2-6.6,2.1-6,2.8-14.8,12.1-9.6,42.4l-2.3,6.7c-4.1,12.2-.9,25.3,8.4,34.2,9.4,9,22.6,11.5,34.6,6.8l7.1-2.8c3.1,2.1,6.4,4,9.8,5.6.2,0,.3,0,.4.2.8.4,1.7.8,2.6,1.2.4.2.9.4,1.3.6.6.2,1.2.5,1.8.7.5.2,1,.4,1.6.6,16.4,5.9,33.5,6,49.1,1.4l-6.9-23.4c-9.7,2.8-20.1,3.1-30.4.1l43.2-21.2,1.7,14.5c-4.5,2.9-9.4,5.2-14.5,6.7l6.9,23.5c1.5-.4,2.9-.9,4.4-1.4h0c2.2-.9,4.2-1.7,6.3-2.6l1.9,15.8c0,.6.6.9,1.1.9s.9-.5.9-1.1h0c0,0,68.2,0,68.2,0l.9.8c.1.2.3.3.5.3l9.5,4.9c5.4,2.8,11.2,4.1,16.9,4.1h-.2c11.4,0,22.5-5.4,29.7-15.2,6.4-8.6,8.7-19.6,6.3-30.1ZM209,76.1h0c0,0,0,0,0,0,0,0,0,0,0,0ZM108.5,67.2h0c0,.1,0,.1,0,.1h.1ZM121.7,199.4s0,0,0,0h0c0-.1,0,0,0,0Z"/>
  <g id="Layer_2">
    <g id="_Layer_">
      <g>
        <g>
          <path class="st2" d="M142.3,234.6l-7-57.9-58.9,28.9-22,8.7c-25.1,9.9-50.4-14.1-41.6-39.7l4.7-13.9,113.7-50.9,57.9-14,48,19.8c12.4,5.1,21.6,16,24.6,29.1l12.5,54.8c2.3,10.2.1,20.9-6.1,29.3h0c-10.5,14.2-29.7,18.7-45.4,10.7l-9.7-5h-70.8,0Z"/>
          <path class="st0" d="M239.3,244.6c-5.7,0-11.5-1.3-16.9-4.1l-9.7-5c-.5-.2-.7-.9-.4-1.4.2-.5.8-.7,1.3-.4l9.7,5c15.3,7.9,33.9,3.5,44.1-10.4,6-8.2,8.2-18.6,5.9-28.5l-12.5-54.8c-2.9-12.8-11.9-23.4-24-28.4l-47.7-19.6-57.5,13.9-113.2,50.7-4.6,13.5c-3.9,11.5-.9,23.8,7.8,32.1,8.7,8.3,21.2,10.8,32.5,6.3l22-8.7,58.8-28.9c.3-.1.6-.1.9,0s.5.4.5.8l7,57.9c0,.6-.3,1.1-.9,1.1s-1.1-.3-1.1-.9l-6.8-56.5-57.6,28.3-22.1,8.7c-12,4.7-25.2,2.2-34.6-6.8-9.3-8.9-12.5-22-8.4-34.2l4.7-13.9c0-.3.3-.5.5-.6l113.7-50.9h.2l57.9-14h.6l48,19.8c12.7,5.2,22.2,16.4,25.2,29.8l12.5,54.8c2.4,10.5.1,21.5-6.3,30.1-7.2,9.8-18.3,15.1-29.7,15.1h.2Z"/>
        </g>
        <g>
          <path class="st2" d="M181.9,131.2h0c-9.5,0-17.3-7.7-17.3-17.3v-62.8c0-9.5,7.7-17.3,17.3-17.3h0c9.5,0,17.3,7.7,17.3,17.3v62.8c0,9.5-7.7,17.3-17.3,17.3Z"/>
          <path class="st0" d="M182,132.2h0c-10,0-18.2-8.2-18.2-18.3v-62.8c0-10,8.1-18.2,18.2-18.3h.1c10,0,18.2,8.2,18.2,18.3v62.8c0,10-8.1,18.2-18.2,18.3h-.1ZM182,34.8c-9,0-16.2,7.3-16.2,16.3v62.8c0,9,7.3,16.3,16.2,16.3s16.2-7.3,16.2-16.3v-62.8c0-9-7.3-16.3-16.2-16.3Z"/>
        </g>
        <g>
          <g>
            <path class="st2" d="M159.7,129.9c-5.2-16.7-18.1-30.1-34.6-36-5.2-1.9-10.7-2.9-16.2-3.2l.7-22.5c8.3.3,15.2,1.7,23.1,4.5,1.2.4,2.5.9,3.9,1.5,20.9,8.6,36,24.4,43.5,45.7.4,1.2.8,2.4,1.2,3.6l-21.6,6.3h0Z"/>
            <path class="st0" d="M110.5,69.3c7.7.4,14.4,1.7,21.8,4.4h0c1.2.4,2.4.9,3.8,1.5,20.7,8.5,35.5,24.1,42.9,45.1.3.8.6,1.7.9,2.6l-19.7,5.8c-5.5-16.6-18.4-29.8-34.9-35.7-5-1.8-10.2-2.9-15.5-3.2l.6-20.5h.1ZM107.9,67.2h.4-.4ZM108.5,67.2h-.3.3l-.7,24.5c5.6.2,11.3,1.2,16.9,3.2h0c17.2,6.2,29.5,20,34.2,36.3l23.5-6.9c-.5-1.6-1-3.1-1.5-4.6-7.6-21.6-22.9-37.6-44.1-46.3-1.3-.5-2.6-1-4-1.5h0c-8.3-2.9-15.7-4.3-24.4-4.6h0Z"/>
          </g>
          <path class="st1" d="M159,131.2c3.2,10.8,3.1,22.6-1,34l23.1,8.2h0c-.5,1.4-1,2.7-1.6,4v.2c.6-1.4,1.1-2.8,1.6-4.2,5.8-16.1,6-32.8,1.7-48.2-.5-1.9-.8-2.5-.3-.9l-23.5,6.9h0Z"/>
          <path class="st0" d="M121.7,199.4c-10.8,3.2-22.6,3.1-34-1-28.6-10.2-43.5-41.7-33.3-70.3,8.2-23,30.2-37.1,53.3-36.5l.7-24.5h-4.7c-32,.8-59.4,19.8-71.3,49.7-.3.7-.5,1.4-.8,2.1-.1.3-.2.6-.3.9v.2c-.4,1-.7,2-1,3,0,.3-.2.6-.3.9-.2.8-.4,1.6-.7,2.4-.2.6-.3,1.1-.4,1.7-.1.4-.2.9-.3,1.3-.2.9-.4,1.9-.6,2.8v.2c-1.2,6.7-1.6,13.5-1.1,20.1,0,.8.1,1.6.2,2.4h0c2.9,26.8,19.3,51.2,44.6,63.3.2,0,.3.1.4.2.8.4,1.7.8,2.6,1.2.4.2.9.4,1.3.6.6.2,1.2.5,1.8.7.5.2,1,.4,1.6.6,16.4,5.9,33.5,6,49.1,1.4l-6.9-23.5h0Z"/>
          <path class="st1" d="M133.1,221.5c20.4-7.2,35.9-21.2,44.9-40.5,0-.1.1-.3.2-.4.5-1,.9-2,1.3-3v-.2c.5-1.3,1.1-2.6,1.6-4h0l-23.1-8.2h0c-6.2,17.2-20,29.5-36.3,34.3l6.9,23.5h0c1.5-.4,2.9-.9,4.4-1.4h.1Z"/>
        </g>
        <g>
          <path class="st2" d="M176.1,179.5l-6.7,15.2s16.1,5.3,26.5-7.7,22.3-35.9,12.4-46.1c-9.9-10.2-21.7-30.7-25.4-21-2.8,7.3,12.3,29,12.3,29l-30.4-14.4s-4.1,4.6-4.8,10c-.7,5.4-8.6,18,16.1,34.9h0Z"/>
          <path class="st0" d="M174.4,196.4c-1.9,0-3.7-.1-5.4-.2-.6,0-1-.5-.9-1.1,0-.6.5-1,1.1-.9,8.6.8,20.1,0,25.9-7.8,7.1-9.5,22.5-32.9,12.4-44.8l-19.9-22.8c-.4-.4-.9-.7-1.4-.7h0c-.6,0-1.1.2-1.4.7-2.2,2.7-2.6,6.4-.8,9.4l12.6,21.4c.3.5.1,1.1-.4,1.4s-1.1.1-1.4-.4l-12.6-21.4c-2.2-3.7-1.8-8.4,1-11.7.7-.9,1.8-1.4,3-1.4h0c1.1,0,2.2.5,2.9,1.3l19.9,22.8c4.5,5.4,9,18.7-12.3,47.3-5.2,7-14.2,8.8-22.3,8.8h0Z"/>
          <path class="st0" d="M203.3,155.2c-.2,0-.3,0-.5-.1l-38-19.7c-1.3,1.1-4.5,4.3-2.2,7.7.3.5.2,1.1-.3,1.4s-1.1.2-1.4-.3c-3-4.5.8-9.1,3.2-10.8.3-.2.7-.2,1.1,0l38.6,20c.5.2.7.9.4,1.4-.2.3-.5.5-.9.5h0Z"/>
          <path class="st0" d="M190.2,176.4c-.2,0-.4,0-.6-.2-1.1-.7-26.9-18.1-30.6-21.5-4.2-3.9-.5-11.7-.4-12,.1-.2.3-.4.6-.5h.8l38.4,22.3c.5.3.6.9.4,1.4s-.9.6-1.4.4l-37.4-21.7c-.8,2-2,6.5.3,8.7,3.6,3.3,30.1,21.2,30.3,21.3.5.3.6.9.3,1.4-.2.3-.5.4-.8.4h0Z"/>
          <path class="st0" d="M182.2,183.9c-.2,0-.3,0-.5-.1-1.1-.7-27.8-16.6-22.6-29.7.2-.5.8-.8,1.3-.6s.8.8.6,1.3c-2.3,5.9,3.6,12.9,9,17.8,6,5.4,12.7,9.4,12.8,9.5.5.3.6.9.3,1.4-.2.3-.5.5-.9.5h0Z"/>
        </g>
        <g>
          <path class="st2" d="M32.4,174.9l9.2,18.6s-21.4-4.1-25.4-20.3c-4.1-16.2-5.3-41.9,7.9-47.1,13.2-5.2,36-.9,36-.9,0,0,4.1,9.6-3.7,10.3-43.7,4.2-9,4.2-9,4.2l18.9-1.5s1.7,6.3,0,11.4c-1.6,5.2-2.5,21.4-34.1,25.4h.1Z"/>
          <path class="st0" d="M37.1,192.7h-.3c-8.6-3.1-19.4-8.9-21.6-19.3-7.4-34.9,2.1-45.2,8.5-48.2,13.5-6.3,35.7-1.2,36.6-1,.3,0,.6.3.7.6,0,.2,2.2,5.1.4,8.7s-2.2,2.7-4.3,3.2c-2.8.7-6.7.8-10.4.9-5.3.2-11.3.3-13,2.4-.3.4-1,.5-1.4.1s-.5-1-.1-1.4c2.3-2.8,8.2-2.9,14.5-3.1,3.6,0,7.4-.2,10-.9,1.5-.4,2.4-1.1,3-2.2,1.1-2.2.2-5.3-.3-6.5-3.4-.7-23.1-4.5-34.8,1-14.1,6.6-9.8,34.3-7.4,45.9,2,9.5,12.2,15,20.3,17.9.5.2.8.8.6,1.3-.2.4-.5.7-.9.7h-.1Z"/>
          <path class="st0" d="M65.2,149c-.3,0-.7-.2-.8-.5-.3-.5,0-1.1.3-1.4,3.5-2.1,1.9-6.4,1.2-8l-42.8,2.1c-.6,0-1-.4-1.1-.9s.4-1,.9-1.1l43.4-2.1c.4,0,.7.2.9.5,1.5,2.6,3,8.3-1.6,11.2-.2.1-.3.1-.5.1h0Z"/>
          <path class="st0" d="M26.2,165.9c-.5,0-.9-.4-1-.8,0-.5.3-1.1.8-1.1s31.8-5.2,36.5-6.8c3.1-1,3.8-5.6,3.9-7.7l-43.1,4.2c-.5,0-1-.4-1.1-.9,0-.6.3-1,.9-1.1l44.2-4.3c.3,0,.6,0,.8.2s.3.4.3.7,0,9-5.3,10.7c-4.8,1.6-35.5,6.6-36.8,6.8h-.2,0Z"/>
          <path class="st0" d="M30.3,176.1c-.5,0-.9-.4-1-.9,0-.6.3-1,.9-1.1,0,0,7.8-.8,15.6-3.3,6.9-2.2,15.2-6.1,15.6-12.4,0-.6.5-1,1.1-.9.6,0,1,.5.9,1.1-.7,14.1-31.6,17.4-32.9,17.6h-.2Z"/>
        </g>
        <g>
          <path class="st0" d="M154,59.5s-8.9-32.7-2.4-42.3c6.6-9.9,14.8-8.5,26.6-2.4s10.5-3.7,26.6,1.8c8.9,3,14.8,9.7,14.2,16.3s-.6,24.2-6.5,30.8-49,12.7-58.5-4.2h0Z"/>
          <g>
            <path class="st2" d="M163.4,63.1c1.6,6,.4,11.6-2.8,12.4-3.2.9-7-3.3-8.7-9.3-1.6-6-.4-11.6,2.8-12.4,3.2-.9,7,3.3,8.7,9.3Z"/>
            <path class="st0" d="M159.8,76.6c-1.6,0-3.2-.9-4.8-2.5-1.7-1.9-3.2-4.6-4-7.7-1.8-6.7-.3-12.6,3.5-13.7,3.8-1,8.1,3.4,9.9,10h0c1.8,6.7.3,12.7-3.5,13.7-.4,0-.7.2-1.1.2h0ZM155.5,54.6h-.6c-2.3.6-3.7,5.3-2.1,11.2.8,2.8,2,5.2,3.5,6.8,1.3,1.5,2.8,2.1,3.9,1.8,2.3-.6,3.7-5.3,2.1-11.2h0c-1.5-5.5-4.6-8.7-6.9-8.7h.1Z"/>
          </g>
          <g>
            <path class="st2" d="M203.2,63.1c-1.6,6-.4,11.6,2.8,12.4,3.2.9,7-3.3,8.7-9.3,1.6-6,.4-11.6-2.8-12.4s-7,3.3-8.7,9.3Z"/>
            <path class="st0" d="M206.8,76.6c-.4,0-.8,0-1.1-.2-3.7-1-5.3-7-3.5-13.7s6.2-11,9.9-10c1.9.5,3.3,2.3,3.9,5,.6,2.5.4,5.6-.4,8.6-.8,3.1-2.2,5.8-4,7.7-1.5,1.7-3.2,2.5-4.8,2.5h0ZM211,54.6c-2.3,0-5.4,3.2-6.9,8.7h0c-1.6,5.9-.2,10.6,2.1,11.2,1.1.3,2.6-.3,3.9-1.8,1.5-1.7,2.8-4.1,3.5-6.8.8-2.8.9-5.5.4-7.7-.4-1.9-1.3-3.2-2.5-3.5h-.6.1ZM203.2,63.1h0Z"/>
          </g>
          <g>
            <rect class="st2" x="158.7" y="24.2" width="49.3" height="78.6" rx="14.9" ry="14.9"/>
            <path class="st0" d="M193.1,103.8h-19.5c-8.8,0-15.9-7.2-15.9-15.9v-48.8c0-8.8,7.2-15.9,15.9-15.9h19.5c8.8,0,15.9,7.1,15.9,15.9v48.7c0,8.8-7.2,15.9-15.9,15.9h0ZM173.6,25.2c-7.7,0-13.9,6.2-13.9,13.9v48.7c0,7.7,6.2,13.9,13.9,13.9h19.5c7.7,0,13.9-6.2,13.9-13.9v-48.7c0-7.7-6.2-13.9-13.9-13.9,0,0-19.5,0-19.5,0Z"/>
          </g>
          <path class="st0" d="M167.4,64c.7,1.7,2.1,2.6,3.3,2.2s1.6-2.2,1-3.8-2.1-2.6-3.3-2.2-1.6,2.2-1,3.8Z"/>
          <path class="st0" d="M175.5,58.7c-.2,0-.4,0-.6-.2-1.1-.9-2.7-1.4-4.4-1.5-2.1-.2-4.1.4-5.3,1.4-.4.3-1.1.3-1.4,0-.3-.4-.3-1.1.1-1.4,1.6-1.3,4.1-2,6.7-1.8,2.1.2,4,.8,5.5,2,.4.3.5,1,.2,1.4-.2.2-.5.4-.8.4h0v-.2Z"/>
          <path class="st0" d="M192.2,64c.7,1.7,2.1,2.6,3.3,2.2,1.2-.5,1.6-2.2,1-3.8s-2.1-2.6-3.3-2.2-1.6,2.2-1,3.8Z"/>
          <path class="st0" d="M200.3,58.7c-.2,0-.4,0-.6-.2-1.1-.9-2.7-1.4-4.4-1.5-2.1,0-4.1.4-5.3,1.4-.4.3-1.1.3-1.4,0-.3-.4-.3-1.1.1-1.4,1.6-1.3,4.1-2,6.7-1.8,2.1.2,4,.8,5.5,2,.4.3.5,1,.2,1.4-.2.2-.5.4-.8.4h0v-.2Z"/>
          <path class="st0" d="M182,75.3c-.7,0-1.3-.3-1.8-.8-.8-1-.8-2.3-.7-3.1.3-4.6.7-9.2,1.2-13.8,0-.5.6-.9,1.1-.9s.9.6.9,1.1c-.5,4.5-.9,9.2-1.2,13.7,0,.7,0,1.3.2,1.7h.2c.2-.5.6-.8,1.1-.7.6,0,.9.6.8,1.1,0,.7-.6,1.2-1.3,1.5h-.6v.2Z"/>
          <path class="st0" d="M160.4,49.8s1.9-16,6.9-13.8c4.9,2.2,5.1,6.8,12.8,7.3s12.6-2.2,15.4.5,7.7,8.8,14.3,4.4c6.6-4.4,7.2-14.9-3.2-20.4s-26.1-6.3-34.9-6.9-17.8,15.6-11.3,28.8h0Z"/>
          <path class="st0" d="M209.2,75.5s-1.3,4.8-6.3,5.8-8.4-2.8-15.2-3.3h-.7c-1.1-.2-2.3-.2-3.6-.2s-2.5,0-3.6.2h-.7c-6.8.6-10.1,4.4-15.2,3.3-5.1-1.1-6.3-5.8-6.3-5.8-10.8,35.9,28,34.4,28,34.4,0,0,34.7,1.5,23.8-34.4h-.2Z"/>
          <path class="st2" d="M181.4,88h-1.4c-.6,0-1-.5-.9-1.1,0-.6.5-.9,1.1-.9,2.9.2,5.5-.2,8.3-1.4.5-.2,1.1,0,1.3.5s0,1.1-.5,1.3c-2.6,1.1-5.1,1.6-7.7,1.6h-.2Z"/>
        </g>
        <path class="st0" d="M250,190.7c-.2,0-.3,0-.5-.1l-41.8-23.1c-.5-.3-.7-.9-.4-1.4s.9-.7,1.4-.4l41.8,23.1c.5.3.7.9.4,1.4-.2.3-.5.5-.9.5h0Z"/>
        <path class="st0" d="M213.1,235.6c-.2,0-.5,0-.7-.3l-43.9-39.4c-.4-.4-.4-1,0-1.4s1-.4,1.4,0l43.9,39.3c.4.4.4,1,0,1.4s-.5.3-.8.3h.1Z"/>
        <path class="st0" d="M135.3,177.8c-.5,0-.9-.4-1-.9l-3-19.9c0-.6.3-1.1.8-1.1s1.1.3,1.1.8l3,19.9c0,.6-.3,1.1-.8,1.1h-.2,0Z"/>
      </g>
    </g>
  </g>
</svg>