<?xml version="1.0" encoding="UTF-8"?>
<svg id="Layer_2" data-name="Layer 2" xmlns="http://www.w3.org/2000/svg" viewBox="0 0 862.5 328.36">
  <defs>
    <style>
      .cls-1 {
        fill: #f8c7a7;
      }

      .cls-2 {
        fill: #d3de98;
      }

      .cls-3 {
        fill: #fbeaa5;
      }

      .cls-4 {
        fill: #d4c8e3;
      }

      .cls-5 {
        fill: #b2d4ef;
      }

      .cls-6 {
        fill: #ee9a7e;
      }

      .cls-7 {
        fill: #fafafa;
      }
    </style>
  </defs>
  <g id="Layer_1-2" data-name="Layer 1">
    <g>
      <g>
        <path class="cls-4" d="M367.3,115.2c0-42.27,20.76-79.77,52.61-102.89-15.58-7.86-33.16-12.31-51.8-12.31-63.62,0-115.2,51.58-115.2,115.2s51.58,115.2,115.2,115.2c18.64,0,36.22-4.45,51.8-12.31-31.84-23.12-52.61-60.62-52.61-102.89Z"/>
        <path class="cls-5" d="M493.58,115.2c0-42.27,20.76-79.77,52.61-102.89-15.57-7.86-33.16-12.31-51.8-12.31-63.62,0-115.2,51.58-115.2,115.2s51.58,115.2,115.2,115.2c18.64,0,36.22-4.45,51.8-12.31-31.84-23.12-52.61-60.62-52.61-102.89Z"/>
        <path class="cls-2" d="M619.87,115.2c0-42.27,20.76-79.77,52.61-102.89-15.57-7.86-33.16-12.31-51.8-12.31-63.62,0-115.2,51.58-115.2,115.2s51.58,115.2,115.2,115.2c18.64,0,36.22-4.45,51.8-12.31-31.84-23.12-52.61-60.62-52.61-102.89Z"/>
        <circle class="cls-3" cx="746.97" cy="115.2" r="115.2"/>
        <path class="cls-1" d="M114.72,115.2c0-42.27,20.76-79.77,52.61-102.89C151.75,4.45,134.16,0,115.53,0,51.9,0,.33,51.58.33,115.2s51.58,115.2,115.2,115.2c18.64,0,36.22-4.45,51.8-12.31-31.84-23.12-52.61-60.62-52.61-102.89Z"/>
        <path class="cls-6" d="M241.01,115.2c0-42.27,20.76-79.77,52.61-102.89-15.58-7.86-33.16-12.31-51.8-12.31-63.62,0-115.2,51.58-115.2,115.2s51.58,115.2,115.2,115.2c18.64,0,36.22-4.45,51.8-12.31-31.84-23.12-52.61-60.61-52.61-102.89Z"/>
      </g>
      <g>
        <path class="cls-7" d="M20.67,268.6c0-3.31-1.94-5.17-4.92-5.17h-2.5c-2.99,0-4.93,1.86-4.93,5.17v30.69c0,3.31,1.94,5.17,4.93,5.17h2.5c2.99,0,4.92-1.86,4.92-5.17v-5.65c0-1.05.89-1.86,1.86-1.86h4.6c1.05,0,1.86.81,1.86,1.86v7.35c0,7.59-5.73,11.22-12.52,11.22h-4.04c-6.78,0-12.44-3.63-12.44-11.22v-34.08c0-7.51,5.65-11.22,12.44-11.22h4.04c6.78,0,12.52,3.71,12.52,11.22v6.54c0,1.05-.81,1.86-1.86,1.86h-4.6c-.97,0-1.86-.81-1.86-1.86v-4.85Z"/>
        <path class="cls-7" d="M55.4,299.61c0-1.05.89-1.86,1.86-1.86h4.36c1.05,0,1.86.81,1.86,1.86v1.29c0,7.75-5.41,11.31-12.44,11.31h-3.15c-7.03,0-12.27-3.55-12.27-11.31v-17.36c0-6.62,4.84-11.31,10.9-11.31h6.06c6.06,0,10.9,4.68,10.9,11.31v8.48c0,1.05-.81,1.86-1.86,1.86h-17.93v6.3c0,3.07,1.62,5.01,4.68,5.01h2.34c3.07,0,4.68-1.94,4.68-5.01v-.57ZM43.69,287.09h11.71v-2.83c0-3.07-1.62-5.01-4.68-5.01h-2.34c-3.07,0-4.68,1.94-4.68,5.01v2.83Z"/>
        <path class="cls-7" d="M86.89,272.23c6.14,0,10.9,4.04,10.9,11.06v27.05c0,1.05-.81,1.86-1.86,1.86h-4.36c-1.05,0-1.86-.81-1.86-1.86v-26.08c0-3.07-1.7-5.01-4.68-5.01h-2.26c-3.07,0-4.76,2.1-4.76,5.01v26.08c0,1.05-.81,1.86-1.86,1.86h-4.36c-1.05,0-1.86-.81-1.86-1.86v-36.26c0-1.05.81-1.86,1.86-1.86h4.36c1.05,0,1.86.81,1.86,1.86v1.37c1.86-2.18,4.85-3.23,7.75-3.23h1.13Z"/>
        <path class="cls-7" d="M114.75,279.26v23.26c0,1.94,1.05,2.66,3.39,2.66,1.86,0,3.31-.48,4.28-.48,1.05,0,1.53.65,1.53,1.62v2.99c0,1.13-.65,3.15-6.86,3.15-7.51,0-10.5-2.99-10.5-9.04v-24.15h-4.12c-1.05,0-1.86-.81-1.86-1.86v-3.39c0-.97.81-1.78,1.86-1.78h4.12v-9.77c0-1.05.81-1.86,1.86-1.86h4.44c1.05,0,1.86.81,1.86,1.86v9.77h7.67c1.05,0,1.86.81,1.86,1.78v3.39c0,1.05-.81,1.86-1.86,1.86h-7.67Z"/>
        <path class="cls-7" d="M144.79,280.71c-5.65,0-7.35,3.07-7.35,7.27v22.37c0,1.05-.81,1.86-1.86,1.86h-4.36c-1.05,0-1.86-.81-1.86-1.86v-36.26c0-1.05.81-1.86,1.86-1.86h4.28c1.05,0,1.86.81,1.86,1.86v2.66c1.86-3.23,4.93-4.52,8.24-4.52h2.1c1.05,0,1.86.89,1.86,1.86v4.76c0,1.05-.81,1.86-1.86,1.86h-2.91Z"/>
        <path class="cls-7" d="M173.13,299.61c0-1.05.89-1.86,1.86-1.86h4.36c1.05,0,1.86.81,1.86,1.86v1.29c0,7.75-5.41,11.31-12.44,11.31h-3.15c-7.03,0-12.27-3.55-12.27-11.31v-17.36c0-6.62,4.84-11.31,10.9-11.31h6.06c6.06,0,10.9,4.68,10.9,11.31v8.48c0,1.05-.81,1.86-1.86,1.86h-17.93v6.3c0,3.07,1.62,5.01,4.68,5.01h2.34c3.07,0,4.68-1.94,4.68-5.01v-.57ZM161.42,287.09h11.71v-2.83c0-3.07-1.62-5.01-4.68-5.01h-2.34c-3.07,0-4.68,1.94-4.68,5.01v2.83Z"/>
        <path class="cls-7" d="M206.4,266.18c0-5.98,3.88-10.5,10.98-10.5h4.6c1.05,0,1.86.89,1.86,1.86v3.47c0,1.05-.81,1.86-1.86,1.86h-3.15c-2.99,0-4.36,1.62-4.36,4.28v5.09h5.89c1.05,0,1.86.81,1.86,1.86v3.39c0,.97-.81,1.78-1.86,1.78h-5.89v31.09c0,1.05-.81,1.86-1.86,1.86h-4.36c-1.05,0-1.86-.81-1.86-1.86v-31.09h-3.96c-1.05,0-1.86-.81-1.86-1.78v-3.39c0-1.05.81-1.86,1.86-1.86h3.96v-6.06Z"/>
        <path class="cls-7" d="M236.84,312.21c-6.06,0-10.9-4.6-10.9-11.22v-17.44c0-6.62,4.84-11.31,10.9-11.31h6.06c6.06,0,10.9,4.68,10.9,11.31v17.44c0,6.62-4.84,11.22-10.9,11.22h-6.06ZM245.73,284.27c0-3.07-1.62-5.01-4.68-5.01h-2.34c-3.07,0-4.68,1.94-4.68,5.01v15.91c0,3.07,1.62,5.01,4.68,5.01h2.34c3.07,0,4.68-1.94,4.68-5.01v-15.91Z"/>
        <path class="cls-7" d="M275.68,280.71c-5.65,0-7.35,3.07-7.35,7.27v22.37c0,1.05-.81,1.86-1.86,1.86h-4.36c-1.05,0-1.86-.81-1.86-1.86v-36.26c0-1.05.81-1.86,1.86-1.86h4.28c1.05,0,1.86.81,1.86,1.86v2.66c1.86-3.23,4.93-4.52,8.24-4.52h2.1c1.05,0,1.86.89,1.86,1.86v4.76c0,1.05-.81,1.86-1.86,1.86h-2.91Z"/>
        <path class="cls-7" d="M300.8,257.54c0-1.05.81-1.86,1.86-1.86h4.6c1.05,0,1.86.81,1.86,1.86v46.92h15.99c1.05,0,1.86.81,1.86,1.86v4.12c0,.97-.81,1.78-1.86,1.78h-22.45c-.97,0-1.86-.81-1.86-1.78v-52.89Z"/>
        <path class="cls-7" d="M351.59,299.61c0-1.05.89-1.86,1.86-1.86h4.36c1.05,0,1.86.81,1.86,1.86v1.29c0,7.75-5.41,11.31-12.44,11.31h-3.15c-7.03,0-12.27-3.55-12.27-11.31v-17.36c0-6.62,4.84-11.31,10.9-11.31h6.06c6.06,0,10.9,4.68,10.9,11.31v8.48c0,1.05-.81,1.86-1.86,1.86h-17.93v6.3c0,3.07,1.62,5.01,4.68,5.01h2.34c3.07,0,4.68-1.94,4.68-5.01v-.57ZM339.88,287.09h11.71v-2.83c0-3.07-1.62-5.01-4.68-5.01h-2.34c-3.07,0-4.68,1.94-4.68,5.01v2.83Z"/>
        <path class="cls-7" d="M393.01,310.35c0,1.05-.81,1.86-1.86,1.86h-4.36c-1.05,0-1.86-.81-1.86-1.86v-1.29c-1.45,1.78-3.39,3.15-7.67,3.15h-1.86c-6.06,0-10.5-4.04-10.5-10.58v-1.45c0-6.54,3.88-10.66,11.06-10.66h8.96v-5.25c0-3.07-1.78-5.01-4.68-5.01h-1.53c-3.07,0-4.84,1.86-4.84,4.84v.57c0,1.05-.89,1.86-1.86,1.86h-4.28c-1.05,0-1.86-.81-1.86-1.86v-1.29c0-7.27,5.33-11.14,12.03-11.14h3.31c6.7,0,11.79,4.12,11.79,11.31v26.81ZM380.26,305.5c3.07,0,4.68-1.94,4.68-5.01v-4.76h-7.43c-3.07,0-4.52,1.53-4.52,4.12v1.21c0,2.66,1.13,4.44,4.52,4.44h2.75Z"/>
        <path class="cls-7" d="M414.9,280.71c-5.65,0-7.35,3.07-7.35,7.27v22.37c0,1.05-.81,1.86-1.86,1.86h-4.36c-1.05,0-1.86-.81-1.86-1.86v-36.26c0-1.05.81-1.86,1.86-1.86h4.28c1.05,0,1.86.81,1.86,1.86v2.66c1.86-3.23,4.93-4.52,8.24-4.52h2.1c1.05,0,1.86.89,1.86,1.86v4.76c0,1.05-.81,1.86-1.86,1.86h-2.91Z"/>
        <path class="cls-7" d="M440.42,272.23c6.14,0,10.9,4.04,10.9,11.06v27.05c0,1.05-.81,1.86-1.86,1.86h-4.36c-1.05,0-1.86-.81-1.86-1.86v-26.08c0-3.07-1.7-5.01-4.68-5.01h-2.26c-3.07,0-4.76,2.1-4.76,5.01v26.08c0,1.05-.81,1.86-1.86,1.86h-4.36c-1.05,0-1.86-.81-1.86-1.86v-36.26c0-1.05.81-1.86,1.86-1.86h4.36c1.05,0,1.86.81,1.86,1.86v1.37c1.86-2.18,4.85-3.23,7.75-3.23h1.13Z"/>
        <path class="cls-7" d="M466.82,264.4c0,1.53-1.21,1.86-2.58,1.86h-3.71c-1.37,0-2.58-.32-2.58-1.86v-6.46c0-1.45,1.29-1.86,2.58-1.86h3.71c1.29,0,2.58.4,2.58,1.86v6.46ZM466.42,310.35c0,1.05-.81,1.86-1.86,1.86h-4.36c-1.05,0-1.86-.81-1.86-1.86v-36.26c0-1.05.81-1.86,1.86-1.86h4.36c1.05,0,1.86.81,1.86,1.86v36.26Z"/>
        <path class="cls-7" d="M490.4,272.23c6.14,0,10.9,4.04,10.9,11.06v27.05c0,1.05-.81,1.86-1.86,1.86h-4.36c-1.05,0-1.86-.81-1.86-1.86v-26.08c0-3.07-1.7-5.01-4.68-5.01h-2.26c-3.07,0-4.76,2.1-4.76,5.01v26.08c0,1.05-.81,1.86-1.86,1.86h-4.36c-1.05,0-1.86-.81-1.86-1.86v-36.26c0-1.05.81-1.86,1.86-1.86h4.36c1.05,0,1.86.81,1.86,1.86v1.37c1.86-2.18,4.85-3.23,7.75-3.23h1.13Z"/>
        <path class="cls-7" d="M532.79,279.02c1.21,1.05,2.91,2.5,2.91,8.72v.73c0,7.43-4.68,12.03-12.44,12.03h-4.85c-1.86.16-2.1,1.37-2.1,2.5,0,1.7.57,2.5,2.99,2.66l9.04.57c5.9.4,9.05,3.39,9.05,9.29v2.66c0,6.54-4.52,10.18-11.39,10.18h-9.93c-6.14,0-9.53-3.55-9.53-9.45v-2.34c0-1.05.81-1.86,1.86-1.86h4.2c1.05,0,1.86.81,1.86,1.86v1.53c0,2.26.97,3.55,3.47,3.55h7.51c2.42,0,3.8-1.21,3.8-3.63v-1.94c0-2.58-2.18-2.66-3.55-2.74l-9.93-.57c-4.28-.24-6.86-2.83-6.86-6.86v-1.7c0-2.34,1.7-4.85,3.88-5.73-3.47-1.29-5.33-5.33-5.33-9.53v-5.41c0-7.43,5.17-11.31,12.52-11.31h17.36c1.05,0,1.86.81,1.86,1.86v3.15c0,.97-.81,1.78-1.86,1.78h-4.52ZM527.71,284.59c0-3.55-1.45-5.73-4.85-5.73h-2.58c-3.47,0-4.76,2.18-4.76,5.73v3.55c0,3.63,1.29,5.73,4.76,5.73h2.58c3.07,0,4.85-1.94,4.85-5.01v-4.28Z"/>
        <path class="cls-7" d="M569.46,269.25c0,1.78.73,3.8,1.86,5.25l13.24,16.88,2.91-9.53c.32-.97,1.13-1.37,2.18-1.37h4.12c1.21,0,1.86.89,1.86,1.7-.08.73-.16,1.29-.48,2.34l-4.93,13.89,7.59,10.09c.65.89.97,1.37.97,2.02,0,.97-.65,1.7-1.7,1.7h-5.57c-1.45,0-2.1-.73-2.91-1.94l-2.26-3.31c-1.62,3.8-4.52,5.25-8.24,5.25h-8.64c-6.22,0-10.09-4.36-10.09-10.26v-11.22c0-4.28,1.78-8.32,6.7-9.85l-1.7-2.26c-2.26-2.99-3.23-5.25-3.23-8.72v-2.66c0-7.75,5.89-11.55,12.52-11.55h2.99c6.86,0,12.76,3.55,12.76,11.22v5.73c0,1.05-.81,1.86-1.86,1.86h-4.6c-.97,0-1.86-.81-1.86-1.86v-4.28c0-2.91-.97-4.93-4.12-4.93h-3.07c-3.23,0-4.44,1.78-4.44,4.77v1.05ZM576.24,304.45c2.58,0,3.23-1.21,4.2-3.47l.48-1.13-10.58-13.16c-2.18.81-2.58,2.67-2.66,4.04v9.61c0,2.34,1.13,4.12,3.71,4.12h4.84Z"/>
        <path class="cls-7" d="M643.75,263.43h-8.88v46.92c0,1.05-.89,1.86-1.86,1.86h-4.6c-.97,0-1.86-.81-1.86-1.86v-46.92h-8.8c-.97,0-1.86-.81-1.86-1.86v-4.04c0-1.05.89-1.86,1.86-1.86h26c.97,0,1.86.81,1.86,1.86v4.04c0,1.05-.89,1.86-1.86,1.86Z"/>
        <path class="cls-7" d="M664.58,299.61c0-1.05.89-1.86,1.86-1.86h4.36c1.05,0,1.86.81,1.86,1.86v1.29c0,7.75-5.41,11.31-12.44,11.31h-3.15c-7.03,0-12.27-3.55-12.27-11.31v-17.36c0-6.62,4.84-11.31,10.9-11.31h6.06c6.06,0,10.9,4.68,10.9,11.31v8.48c0,1.05-.81,1.86-1.86,1.86h-17.93v6.3c0,3.07,1.62,5.01,4.68,5.01h2.34c3.07,0,4.68-1.94,4.68-5.01v-.57ZM652.87,287.09h11.71v-2.83c0-3.07-1.62-5.01-4.68-5.01h-2.34c-3.07,0-4.68,1.94-4.68,5.01v2.83Z"/>
        <path class="cls-7" d="M706,310.35c0,1.05-.81,1.86-1.86,1.86h-4.36c-1.05,0-1.86-.81-1.86-1.86v-1.29c-1.45,1.78-3.39,3.15-7.67,3.15h-1.86c-6.06,0-10.5-4.04-10.5-10.58v-1.45c0-6.54,3.88-10.66,11.06-10.66h8.96v-5.25c0-3.07-1.78-5.01-4.68-5.01h-1.53c-3.07,0-4.84,1.86-4.84,4.84v.57c0,1.05-.89,1.86-1.86,1.86h-4.28c-1.05,0-1.86-.81-1.86-1.86v-1.29c0-7.27,5.33-11.14,12.03-11.14h3.31c6.7,0,11.79,4.12,11.79,11.31v26.81ZM693.25,305.5c3.07,0,4.68-1.94,4.68-5.01v-4.76h-7.43c-3.07,0-4.52,1.53-4.52,4.12v1.21c0,2.66,1.13,4.44,4.52,4.44h2.75Z"/>
        <path class="cls-7" d="M740.32,300.9c0,7.43-5.17,11.31-11.95,11.31h-3.96c-6.87,0-11.95-3.88-11.95-11.31v-17.36c0-7.35,5.17-11.31,11.95-11.31h3.96c6.78,0,11.95,3.96,11.95,11.31v2.83c0,1.05-.81,1.86-1.86,1.86h-4.36c-.97,0-1.86-.81-1.86-1.86v-2.1c0-3.07-1.7-5.01-4.68-5.01h-2.34c-3.07,0-4.68,1.94-4.68,5.01v15.91c0,3.07,1.62,5.01,4.68,5.01h2.34c3.07,0,4.68-1.94,4.68-5.01v-2.91c0-1.05.89-1.86,1.86-1.86h4.36c1.05,0,1.86.81,1.86,1.86v3.63Z"/>
        <path class="cls-7" d="M763.74,272.23c6.3,0,10.9,4.04,10.9,11.06v27.05c0,1.05-.81,1.86-1.86,1.86h-4.36c-1.05,0-1.86-.81-1.86-1.86v-26.08c0-2.99-1.7-5.01-4.68-5.01h-2.26c-3.07,0-4.76,1.94-4.76,5.01v26.08c0,1.05-.81,1.86-1.86,1.86h-4.36c-1.05,0-1.86-.81-1.86-1.86v-52.81c0-1.05.81-1.86,1.86-1.86h4.36c1.05,0,1.86.81,1.86,1.86v17.93c1.86-2.18,4.85-3.23,7.75-3.23h1.13Z"/>
        <path class="cls-7" d="M790.15,264.4c0,1.53-1.21,1.86-2.58,1.86h-3.71c-1.37,0-2.58-.32-2.58-1.86v-6.46c0-1.45,1.29-1.86,2.58-1.86h3.71c1.29,0,2.58.4,2.58,1.86v6.46ZM789.75,310.35c0,1.05-.81,1.86-1.86,1.86h-4.36c-1.05,0-1.86-.81-1.86-1.86v-36.26c0-1.05.81-1.86,1.86-1.86h4.36c1.05,0,1.86.81,1.86,1.86v36.26Z"/>
        <path class="cls-7" d="M813.73,272.23c6.14,0,10.9,4.04,10.9,11.06v27.05c0,1.05-.81,1.86-1.86,1.86h-4.36c-1.05,0-1.86-.81-1.86-1.86v-26.08c0-3.07-1.7-5.01-4.68-5.01h-2.26c-3.07,0-4.76,2.1-4.76,5.01v26.08c0,1.05-.81,1.86-1.86,1.86h-4.36c-1.05,0-1.86-.81-1.86-1.86v-36.26c0-1.05.81-1.86,1.86-1.86h4.36c1.05,0,1.86.81,1.86,1.86v1.37c1.86-2.18,4.85-3.23,7.75-3.23h1.13Z"/>
        <path class="cls-7" d="M856.12,279.02c1.21,1.05,2.91,2.5,2.91,8.72v.73c0,7.43-4.68,12.03-12.44,12.03h-4.85c-1.86.16-2.1,1.37-2.1,2.5,0,1.7.57,2.5,2.99,2.66l9.04.57c5.89.4,9.05,3.39,9.05,9.29v2.66c0,6.54-4.52,10.18-11.39,10.18h-9.93c-6.14,0-9.53-3.55-9.53-9.45v-2.34c0-1.05.81-1.86,1.86-1.86h4.2c1.05,0,1.86.81,1.86,1.86v1.53c0,2.26.97,3.55,3.47,3.55h7.51c2.42,0,3.8-1.21,3.8-3.63v-1.94c0-2.58-2.18-2.66-3.55-2.74l-9.93-.57c-4.28-.24-6.86-2.83-6.86-6.86v-1.7c0-2.34,1.7-4.85,3.88-5.73-3.47-1.29-5.33-5.33-5.33-9.53v-5.41c0-7.43,5.17-11.31,12.52-11.31h17.36c1.05,0,1.86.81,1.86,1.86v3.15c0,.97-.81,1.78-1.86,1.78h-4.52ZM851.03,284.59c0-3.55-1.45-5.73-4.85-5.73h-2.58c-3.47,0-4.76,2.18-4.76,5.73v3.55c0,3.63,1.29,5.73,4.76,5.73h2.58c3.07,0,4.85-1.94,4.85-5.01v-4.28Z"/>
      </g>
    </g>
  </g>
</svg>