<?xml version="1.0" encoding="UTF-8"?>
<svg id="Layer_2" data-name="Layer 2" xmlns="http://www.w3.org/2000/svg" viewBox="0 0 885.21 351.04">
  <g>
    <path d="M379.46,253.08c-69.77,0-126.54-56.77-126.54-126.54S309.68,0,379.46,0c19.97,0,39.12,4.55,56.91,13.52,3.53,1.78,5.88,5.27,6.19,9.21.32,3.94-1.44,7.76-4.64,10.09-30.01,21.79-47.93,56.82-47.93,93.71s17.92,71.92,47.93,93.72c3.2,2.32,4.96,6.14,4.64,10.08-.32,3.94-2.66,7.43-6.19,9.21-17.79,8.97-36.94,13.53-56.91,13.53Z" style="fill: #fafafa;"/>
    <path d="M378.65,126.54c0-42.27,20.76-79.77,52.61-102.89-15.58-7.86-33.16-12.31-51.8-12.31-63.62,0-115.2,51.58-115.2,115.2s51.58,115.2,115.2,115.2c18.64,0,36.22-4.45,51.8-12.31-31.84-23.12-52.61-60.62-52.61-102.89Z" style="fill: #fafafa;"/>
    <path d="M505.74,253.08c-69.77,0-126.54-56.77-126.54-126.54S435.96,0,505.74,0c19.98,0,39.13,4.55,56.91,13.53,3.53,1.78,5.88,5.27,6.19,9.21.32,3.94-1.44,7.76-4.64,10.08-30.01,21.79-47.93,56.82-47.93,93.71s17.92,71.92,47.93,93.72c3.2,2.32,4.96,6.14,4.64,10.08-.32,3.94-2.67,7.43-6.19,9.21-17.79,8.97-36.94,13.53-56.91,13.53Z" style="fill: #fafafa;"/>
    <path d="M504.93,126.54c0-42.27,20.76-79.77,52.61-102.89-15.57-7.86-33.16-12.31-51.8-12.31-63.62,0-115.2,51.58-115.2,115.2s51.58,115.2,115.2,115.2c18.64,0,36.22-4.45,51.8-12.31-31.84-23.12-52.61-60.62-52.61-102.89Z" style="fill: #fafafa;"/>
    <path d="M632.03,253.08c-69.77,0-126.54-56.77-126.54-126.54S562.25,0,632.03,0c19.98,0,39.13,4.55,56.91,13.53,3.53,1.78,5.88,5.27,6.19,9.21.32,3.94-1.44,7.76-4.64,10.08-30.01,21.79-47.93,56.82-47.93,93.71s17.92,71.92,47.93,93.72c3.2,2.32,4.96,6.14,4.64,10.08-.32,3.94-2.67,7.43-6.19,9.21-17.79,8.97-36.94,13.53-56.91,13.53Z" style="fill: #fafafa;"/>
    <path d="M516.83,126.54c0,63.62,51.58,115.2,115.2,115.2,18.64,0,36.22-4.45,51.8-12.31-31.84-23.12-52.61-60.62-52.61-102.89s20.76-79.77,52.61-102.89c-15.57-7.86-33.16-12.31-51.8-12.31-63.62,0-115.2,51.58-115.2,115.2Z" style="fill: #fafafa;"/>
    <path d="M758.32,253.08c-69.77,0-126.54-56.77-126.54-126.54S688.54,0,758.32,0s126.54,56.76,126.54,126.54-56.77,126.54-126.54,126.54Z" style="fill: #fafafa;"/>
    <circle cx="758.32" cy="126.54" r="115.2" style="fill: #fafafa;"/>
    <path d="M126.88,253.08C57.1,253.08.34,196.31.34,126.54S57.1,0,126.88,0c19.97,0,39.12,4.55,56.91,13.52,3.53,1.78,5.88,5.27,6.19,9.21.32,3.94-1.44,7.76-4.64,10.09-30.01,21.79-47.93,56.82-47.93,93.71s17.92,71.92,47.93,93.72c3.2,2.32,4.96,6.14,4.64,10.09-.32,3.94-2.66,7.43-6.19,9.21-17.79,8.97-36.94,13.53-56.91,13.53Z" style="fill: #fafafa;"/>
    <path d="M178.68,229.43c-31.84-23.12-52.61-60.62-52.61-102.89s20.76-79.77,52.61-102.89c-15.58-7.86-33.17-12.31-51.8-12.31C63.25,11.34,11.68,62.92,11.68,126.54s51.58,115.2,115.2,115.2c18.64,0,36.22-4.45,51.8-12.31Z" style="fill: #fafafa;"/>
    <path d="M253.17,253.08c-69.77,0-126.54-56.77-126.54-126.54S183.39,0,253.17,0c19.97,0,39.12,4.55,56.91,13.52,3.53,1.78,5.88,5.27,6.19,9.21.32,3.94-1.44,7.76-4.64,10.09-30.01,21.79-47.93,56.82-47.93,93.71s17.92,71.92,47.93,93.72c3.2,2.32,4.96,6.14,4.64,10.09-.32,3.94-2.66,7.43-6.19,9.21-17.79,8.97-36.94,13.53-56.91,13.53Z" style="fill: #fafafa;"/>
    <path d="M252.36,126.54c0-42.27,20.76-79.77,52.61-102.89-15.58-7.86-33.16-12.31-51.8-12.31-63.62,0-115.2,51.58-115.2,115.2s51.58,115.2,115.2,115.2c18.64,0,36.22-4.45,51.8-12.31-31.84-23.12-52.61-60.61-52.61-102.89Z" style="fill: #fafafa;"/>
    <path d="M23.78,334.89c-13.78,0-23.78-9.49-23.78-22.56v-34.08c0-13.07,10-22.56,23.78-22.56h4.04c13.82,0,23.86,9.49,23.86,22.56v6.54c0,4.05-1.83,7.67-4.71,10.09,2.88,2.42,4.71,6.05,4.71,10.09v7.35c0,13.07-10.03,22.56-23.86,22.56h-4.04Z" style="fill: #fafafa;"/>
    <path d="M27.82,267.03h-4.04c-6.79,0-12.44,3.71-12.44,11.22v34.08c0,7.59,5.66,11.22,12.44,11.22h4.04c6.79,0,12.52-3.63,12.52-11.22v-7.35c0-1.05-.81-1.86-1.86-1.86h-4.6c-.97,0-1.86.81-1.86,1.86v5.65c0,3.31-1.93,5.17-4.92,5.17h-2.5c-2.99,0-4.93-1.86-4.93-5.17v-30.69c0-3.31,1.94-5.17,4.93-5.17h2.5c2.98,0,4.92,1.86,4.92,5.17v4.85c0,1.05.89,1.86,1.86,1.86h4.6c1.05,0,1.86-.81,1.86-1.86v-6.54c0-7.51-5.74-11.22-12.52-11.22Z" style="fill: #fafafa;"/>
    <path d="M59.24,334.89c-13.9,0-23.61-9.31-23.61-22.65v-17.36c0-12.7,9.77-22.65,22.24-22.65h6.06c12.47,0,22.24,9.95,22.24,22.65v8.48c0,1.32-.19,2.59-.56,3.79.36,1.2.56,2.48.56,3.79v1.29c0,13.34-9.78,22.65-23.78,22.65h-3.15Z" style="fill: #fafafa;"/>
    <path d="M63.93,283.57h-6.06c-6.06,0-10.9,4.69-10.9,11.31v17.36c0,7.76,5.24,11.31,12.27,11.31h3.15c7.03,0,12.44-3.56,12.44-11.31v-1.29c0-1.05-.81-1.86-1.86-1.86h-4.36c-.97,0-1.86.81-1.86,1.86h-.01v.57c0,3.07-1.61,5.01-4.68,5.01h-2.34c-3.06,0-4.68-1.94-4.68-5.01v-6.3h17.93c1.05,0,1.86-.81,1.86-1.86v-8.48c0-6.63-4.84-11.31-10.9-11.31Z" style="fill: #fafafa;"/>
    <path d="M102.92,334.88c-2.88,0-5.54-.92-7.71-2.49-2.17,1.57-4.83,2.49-7.71,2.49h-4.36c-7.28,0-13.2-5.92-13.2-13.2v-36.26c0-7.28,5.92-13.2,13.2-13.2h4.36c1.43,0,2.81.23,4.1.65,1.77-.43,3.61-.65,5.51-.65h1.13c.21,0,.42,0,.63.02,12.56.3,21.6,9.63,21.6,22.39v27.05c0,7.28-5.92,13.2-13.2,13.2h-4.36Z" style="fill: #fafafa;"/>
    <path d="M98.24,283.57h0s-1.13-.01-1.13-.01c-2.9,0-5.89,1.05-7.75,3.23v-1.37c0-1.05-.81-1.86-1.86-1.86h-4.36c-1.05,0-1.86.81-1.86,1.86v36.26c0,1.05.81,1.86,1.86,1.86h4.36c1.05,0,1.86-.81,1.86-1.86v-26.08c0-2.91,1.69-5.01,4.76-5.01h2.26c2.98,0,4.68,1.94,4.68,5.01v26.08c0,1.05.81,1.86,1.86,1.86h4.36c1.05,0,1.86-.81,1.86-1.86v-27.05c0-7.02-4.76-11.06-10.9-11.06Z" style="fill: #fafafa;"/>
    <path d="M128.44,335.14c-16.1,0-21.84-10.53-21.84-20.38v-14.96c-3.6-2.36-5.98-6.43-5.98-11.04v-3.39c0-4.59,2.38-8.63,5.98-10.98v-.57c0-7.28,5.92-13.2,13.2-13.2h4.44c6.92,0,12.61,5.35,13.16,12.13,5.52,1.57,9.57,6.63,9.57,12.61v3.39c0,6-4.03,11.09-9.53,12.68v3.79c5.38,1.55,9.2,6.47,9.2,12.44v2.99c0,1.48-.51,14.49-18.2,14.49Z" style="fill: #fafafa;"/>
    <path d="M133.77,283.58h-7.67v-9.77c0-1.05-.81-1.86-1.86-1.86h-4.44c-1.05,0-1.86.81-1.86,1.86v9.77h-4.12c-1.05,0-1.86.81-1.86,1.78v3.39c0,1.05.81,1.86,1.86,1.86h4.12v24.15c0,6.05,2.99,9.04,10.5,9.04,6.21,0,6.86-2.02,6.86-3.15v-2.99c0-.97-.48-1.62-1.53-1.62-.97,0-2.42.48-4.28.48-2.34,0-3.39-.72-3.39-2.66v-23.25h7.67c1.05,0,1.86-.81,1.86-1.86v-3.39c0-.97-.81-1.78-1.86-1.78Z" style="fill: #fafafa;"/>
    <path d="M142.57,334.89c-7.28,0-13.2-5.92-13.2-13.2v-36.26c0-7.28,5.92-13.2,13.2-13.2h4.28c1.52,0,2.98.26,4.34.73,1.82-.48,3.75-.73,5.76-.73h2.1c7.28,0,13.2,5.92,13.2,13.2v4.76c0,6.92-5.34,12.61-12.12,13.16v18.34c0,7.28-5.92,13.2-13.2,13.2h-4.36Z" style="fill: #fafafa;"/>
    <path d="M159.05,283.57h-2.1c-3.31,0-6.38,1.29-8.24,4.52v-2.66c0-1.05-.81-1.86-1.86-1.86h-4.28c-1.05,0-1.86.81-1.86,1.86v36.26c0,1.05.81,1.86,1.86,1.86h4.36c1.05,0,1.86-.81,1.86-1.86v-22.37c0-4.2,1.7-7.27,7.35-7.27h0s2.91,0,2.91,0c1.05,0,1.86-.81,1.86-1.86v-4.76c0-.97-.81-1.86-1.86-1.86Z" style="fill: #fafafa;"/>
    <path d="M176.97,334.89c-13.9,0-23.61-9.31-23.61-22.65v-17.36c0-12.7,9.77-22.65,22.24-22.65h6.06c12.47,0,22.24,9.95,22.24,22.65v8.48c0,1.32-.19,2.59-.56,3.79.36,1.2.56,2.48.56,3.79v1.29c0,13.34-9.78,22.65-23.78,22.65h-3.15Z" style="fill: #fafafa;"/>
    <path d="M181.66,283.57h-6.06c-6.06,0-10.9,4.69-10.9,11.31v17.36c0,7.76,5.24,11.31,12.27,11.31h3.15c7.03,0,12.44-3.56,12.44-11.31v-1.29c0-1.05-.81-1.86-1.86-1.86h-4.36c-.97,0-1.86.81-1.86,1.86h-.01v.57c0,3.07-1.61,5.01-4.68,5.01h-2.34c-3.06,0-4.68-1.94-4.68-5.01v-6.3h17.93c1.05,0,1.86-.81,1.86-1.86v-8.48c0-6.63-4.84-11.31-10.9-11.31Z" style="fill: #fafafa;"/>
    <path d="M219.6,334.9c-7.28,0-13.2-5.92-13.2-13.2v-22c-3.51-2.36-5.82-6.35-5.82-10.87v-3.39c0-4.64,2.4-8.72,6.03-11.08,1.43-11,10.29-18.68,22.12-18.68h4.6c7.28,0,13.2,5.92,13.2,13.2v3.47c0,2.98-.99,5.73-2.66,7.94.67,1.58,1.04,3.32,1.04,5.15v3.39c0,5.3-3.18,9.88-7.75,11.95v20.92c0,7.28-5.92,13.2-13.2,13.2h-4.36Z" style="fill: #fafafa;"/>
    <path d="M233.33,267.02h-4.6c-7.1,0-10.98,4.52-10.98,10.5h-.01v6.06h-3.96c-1.05,0-1.86.81-1.86,1.86v3.39c0,.97.81,1.78,1.86,1.78h3.96v31.09c0,1.05.81,1.86,1.86,1.86h4.36c1.05,0,1.86-.81,1.86-1.86v-31.09h5.89c1.05,0,1.86-.81,1.86-1.78v-3.39c0-1.05-.81-1.86-1.86-1.86h-5.89v-5.09c0-2.66,1.37-4.28,4.36-4.28h3.15c1.05,0,1.86-.81,1.86-1.86v-3.47c0-.97-.81-1.86-1.86-1.86Z" style="fill: #fafafa;"/>
    <path d="M248.19,334.89c-12.47,0-22.24-9.91-22.24-22.56v-17.44c0-12.7,9.77-22.65,22.24-22.65h6.06c12.47,0,22.24,9.95,22.24,22.65v17.44c0,12.65-9.77,22.56-22.24,22.56h-6.06Z" style="fill: #fafafa;"/>
    <path d="M254.25,283.58h-6.06c-6.06,0-10.9,4.69-10.9,11.31v17.44c0,6.62,4.84,11.22,10.9,11.22h6.06c6.06,0,10.9-4.6,10.9-11.22v-17.44c0-6.63-4.84-11.31-10.9-11.31Z" style="fill: #fafafa;"/>
    <path d="M273.46,334.89c-7.28,0-13.2-5.92-13.2-13.2v-36.26c0-7.28,5.92-13.2,13.2-13.2h4.28c1.52,0,2.98.26,4.34.73,1.82-.48,3.75-.73,5.76-.73h2.1c7.28,0,13.2,5.92,13.2,13.2v4.76c0,6.92-5.34,12.6-12.12,13.16v18.34c0,7.28-5.92,13.2-13.2,13.2h-4.36Z" style="fill: #fafafa;"/>
    <path d="M289.94,283.57h-2.1c-3.31,0-6.38,1.29-8.24,4.52v-2.66c0-1.05-.81-1.86-1.86-1.86h-4.28c-1.05,0-1.86.81-1.86,1.86v36.26c0,1.05.81,1.86,1.86,1.86h4.36c1.05,0,1.86-.81,1.86-1.86v-22.37c0-4.2,1.7-7.27,7.35-7.27h0s2.91,0,2.91,0c1.05,0,1.86-.81,1.86-1.86v-4.76c0-.97-.81-1.86-1.86-1.86Z" style="fill: #fafafa;"/>
    <path d="M314.01,334.9c-7.28,0-13.2-5.89-13.2-13.12v-52.89c0-7.29,5.92-13.21,13.2-13.21h4.6c7.28,0,13.2,5.92,13.2,13.2v35.58h4.65c7.28,0,13.2,5.92,13.2,13.2v4.12c0,7.23-5.92,13.12-13.2,13.12h-22.45Z" style="fill: #fafafa;"/>
    <path d="M336.46,315.8h-15.99v-46.92c0-1.05-.81-1.86-1.86-1.86h-4.6c-1.05,0-1.86.81-1.86,1.86h0v52.9c0,.97.89,1.78,1.86,1.78h22.45c1.05,0,1.86-.81,1.86-1.78v-4.12c0-1.05-.81-1.86-1.86-1.86Z" style="fill: #fafafa;"/>
    <path d="M355.43,334.89c-13.9,0-23.61-9.31-23.61-22.65v-17.36c0-12.7,9.77-22.65,22.24-22.65h6.06c12.47,0,22.24,9.95,22.24,22.65v8.48c0,1.32-.19,2.59-.56,3.79.36,1.2.56,2.48.56,3.79v1.29c0,13.34-9.78,22.65-23.78,22.65h-3.15Z" style="fill: #fafafa;"/>
    <path d="M360.12,283.57h-6.06c-6.06,0-10.9,4.69-10.9,11.31v17.36c0,7.76,5.24,11.31,12.27,11.31h3.15c7.03,0,12.44-3.56,12.44-11.31v-1.29c0-1.05-.81-1.86-1.86-1.86h-4.36c-.97,0-1.86.81-1.86,1.86h-.01v.57c0,3.07-1.61,5.01-4.68,5.01h-2.34c-3.06,0-4.68-1.94-4.68-5.01v-6.3h17.93c1.05,0,1.86-.81,1.86-1.86v-8.48c0-6.63-4.84-11.31-10.9-11.31Z" style="fill: #fafafa;"/>
    <path d="M398.14,334.89c-1.36,0-2.66-.21-3.9-.59-1.75.39-3.62.59-5.63.59h-1.86c-12.45,0-21.84-9.42-21.84-21.92v-1.45c0-3.71.76-7.11,2.15-10.06-.76-1.66-1.18-3.51-1.18-5.45v-1.29c0-13.02,9.83-22.48,23.37-22.48h3.31c13.4,0,23.13,9.53,23.13,22.65v26.33c0,.16,0,.31,0,.47,0,7.28-5.92,13.2-13.2,13.2h-4.36Z" style="fill: #fafafa;"/>
    <path d="M404.35,294.89c0-7.19-5.09-11.31-11.79-11.31h-3.31c-6.7,0-12.03,3.87-12.03,11.14v1.29c0,1.05.81,1.86,1.86,1.86h4.28c.97,0,1.86-.81,1.86-1.86v-.57c0-2.98,1.77-4.84,4.84-4.84h1.53c2.9,0,4.68,1.94,4.68,5.01v5.25h-8.96c-7.18,0-11.06,4.12-11.06,10.66v1.45c0,6.54,4.44,10.58,10.5,10.58h1.86c4.28,0,6.22-1.37,7.67-3.15v1.29c0,1.05.81,1.86,1.86,1.86h4.36c1.05,0,1.86-.81,1.86-1.86h0s0-26.8,0-26.8Z" style="fill: #fafafa;"/>
    <path d="M412.68,334.89c-7.28,0-13.2-5.92-13.2-13.2v-36.26c0-7.28,5.92-13.2,13.2-13.2h4.28c1.52,0,2.98.26,4.34.73,1.82-.48,3.75-.73,5.76-.73h2.1c7.28,0,13.2,5.92,13.2,13.2v4.76c0,6.92-5.35,12.61-12.12,13.16v18.34c0,7.28-5.92,13.2-13.2,13.2h-4.36Z" style="fill: #fafafa;"/>
    <path d="M429.16,283.57h-2.1c-3.31,0-6.38,1.29-8.24,4.52v-2.66c0-1.05-.81-1.86-1.86-1.86h-4.28c-1.05,0-1.86.81-1.86,1.86v36.26c0,1.05.81,1.86,1.86,1.86h4.36c1.05,0,1.86-.81,1.86-1.86v-22.37c0-4.2,1.7-7.27,7.35-7.27h0s2.91,0,2.91,0c1.05,0,1.86-.81,1.86-1.86v-4.76c0-.97-.81-1.86-1.86-1.86Z" style="fill: #fafafa;"/>
    <path d="M456.45,334.88c-2.88,0-5.54-.92-7.71-2.49-2.17,1.57-4.83,2.49-7.71,2.49h-4.36c-7.28,0-13.2-5.92-13.2-13.2v-36.26c0-7.28,5.92-13.2,13.2-13.2h4.36c1.43,0,2.81.23,4.1.65,1.77-.43,3.61-.65,5.51-.65h1.13c.21,0,.42,0,.63.02,12.56.3,21.61,9.63,21.61,22.39v27.05c0,7.28-5.92,13.2-13.2,13.2h-4.36Z" style="fill: #fafafa;"/>
    <path d="M451.77,283.57h0s-1.13-.01-1.13-.01c-2.9,0-5.89,1.05-7.75,3.23v-1.37c0-1.05-.81-1.86-1.86-1.86h-4.36c-1.05,0-1.86.81-1.86,1.86v36.26c0,1.05.81,1.86,1.86,1.86h4.36c1.05,0,1.86-.81,1.86-1.86v-26.08c0-2.91,1.69-5.01,4.76-5.01h2.26c2.98,0,4.68,1.94,4.68,5.01v26.08c0,1.05.81,1.86,1.86,1.86h4.36c1.05,0,1.86-.81,1.86-1.86v-27.05c0-7.02-4.76-11.06-10.9-11.06Z" style="fill: #fafafa;"/>
    <path d="M471.88,288.94c-9.14,0-13.92-6.64-13.92-13.2v-6.46c0-7.52,5.98-13.2,13.92-13.2h3.71c7.93,0,13.92,5.67,13.92,13.2v6.46c0,6.56-4.78,13.2-13.92,13.2h-3.71Z" style="fill: #fafafa;"/>
    <path d="M475.59,267.42h-3.71c-1.29,0-2.58.41-2.58,1.86v6.46c0,1.54,1.21,1.86,2.58,1.86h3.71c1.37,0,2.58-.33,2.58-1.86v-6.46c0-1.46-1.29-1.86-2.58-1.86Z" style="fill: #fafafa;"/>
    <path d="M471.55,272.23h4.36c7.28,0,13.2,5.91,13.2,13.2v36.26c0,7.28-5.91,13.2-13.2,13.2h-4.36c-7.28,0-13.2-5.91-13.2-13.2v-36.26c0-7.28,5.91-13.2,13.2-13.2Z" style="fill: #fafafa;"/>
    <rect x="469.69" y="283.57" width="8.08" height="39.98" rx="1.86" ry="1.86" style="fill: #fafafa;"/>
    <path d="M506.43,334.88c-2.88,0-5.54-.92-7.71-2.49-2.17,1.57-4.83,2.49-7.71,2.49h-4.36c-7.28,0-13.2-5.92-13.2-13.2v-36.26c0-7.28,5.92-13.2,13.2-13.2h4.36c1.43,0,2.81.23,4.1.65,1.77-.43,3.61-.65,5.51-.65h1.13c.21,0,.42,0,.63.02,12.56.3,21.6,9.63,21.6,22.39v27.05c0,7.28-5.92,13.2-13.2,13.2h-4.36Z" style="fill: #fafafa;"/>
    <path d="M501.75,283.57h0s-1.13-.01-1.13-.01c-2.9,0-5.89,1.05-7.75,3.23v-1.37c0-1.05-.81-1.86-1.86-1.86h-4.36c-1.05,0-1.86.81-1.86,1.86v36.26c0,1.05.81,1.86,1.86,1.86h4.36c1.05,0,1.86-.81,1.86-1.86v-26.08c0-2.91,1.69-5.01,4.76-5.01h2.26c2.98,0,4.68,1.94,4.68,5.01v26.08c0,1.05.81,1.86,1.86,1.86h4.36c1.05,0,1.86-.81,1.86-1.86v-27.05c0-7.02-4.76-11.06-10.9-11.06Z" style="fill: #fafafa;"/>
    <path d="M527.42,351.04c-12.29,0-20.87-8.55-20.87-20.79v-2.34c0-2.92.95-5.62,2.56-7.8-.13-.92-.2-1.88-.2-2.86v-1.7c0-1.7.27-3.39.77-5-1.44-3.04-2.22-6.53-2.22-10.26v-5.41c0-13.33,9.81-22.65,23.86-22.65h17.36c7.28,0,13.2,5.92,13.2,13.2v3.15c0,3.44-1.34,6.57-3.52,8.91.02.51.03,1.04.03,1.59v.73c0,4.9-1.24,9.27-3.46,12.87,3.3,3.57,5.15,8.44,5.15,14.18v2.66c0,12.67-9.35,21.52-22.73,21.52h-9.93Z" style="fill: #fafafa;"/>
    <path d="M548.68,283.57h-17.36c-7.35,0-12.52,3.88-12.52,11.31v5.41c0,4.2,1.86,8.24,5.33,9.53-2.18.88-3.88,3.39-3.88,5.73v1.7c0,4.03,2.58,6.62,6.86,6.86l9.93.57c1.37.08,3.55.16,3.55,2.74v1.94c0,2.42-1.38,3.63-3.8,3.63h-7.51c-2.5,0-3.47-1.29-3.47-3.55v-1.53c0-1.05-.81-1.86-1.86-1.86h-4.2c-1.05,0-1.86.81-1.86,1.86v2.34c0,5.9,3.39,9.45,9.53,9.45h9.93c6.87,0,11.39-3.64,11.39-10.18v-2.66c0-5.9-3.15-8.89-9.05-9.29l-9.04-.57c-2.42-.16-2.99-.96-2.99-2.66,0-1.13.24-2.34,2.1-2.5h4.85c7.76,0,12.44-4.6,12.44-12.03v-.73c0-6.22-1.7-7.67-2.91-8.72h.02s4.52,0,4.52,0c1.05,0,1.86-.81,1.86-1.78v-3.15c0-1.05-.81-1.86-1.86-1.86Z" style="fill: #fafafa;"/>
    <path d="M602.86,334.9c-2.16,0-4.14-.42-5.95-1.26-2.28.83-4.78,1.26-7.46,1.26h-8.64c-12.22,0-21.43-9.29-21.43-21.6v-11.22c0-4.56,1.18-8.69,3.34-12.11-.94-2.44-1.57-5.29-1.57-8.72v-2.66c0-13.26,10.03-22.89,23.86-22.89h2.99c14.19,0,24.1,9.28,24.1,22.56v4.2c3.73,2.31,6.22,6.4,6.22,11.06,0,.41-.02.83-.07,1.24-.15,1.35-.36,2.61-.9,4.4-.05.17-.1.33-.16.49l-2.89,8.15s3.99,5.3,4.02,5.35c1.02,1.4,3.16,4.32,3.16,8.71,0,7.31-5.73,13.04-13.04,13.04h-5.57Z" style="fill: #fafafa;"/>
    <path d="M601.57,309.75l4.93-13.89c.32-1.05.4-1.61.48-2.34,0-.81-.65-1.7-1.86-1.7h-4.12c-1.05,0-1.86.4-2.18,1.37l-2.91,9.53-13.24-16.88c-1.13-1.45-1.86-3.47-1.86-5.25v-1.04c0-2.99,1.21-4.77,4.44-4.77h3.07c3.15,0,4.12,2.02,4.12,4.93v4.28c0,1.05.89,1.86,1.86,1.86h4.6c1.05,0,1.86-.81,1.86-1.86v-5.73c0-7.67-5.9-11.22-12.76-11.22h-2.99c-6.63,0-12.52,3.8-12.52,11.55v2.66c0,3.47.97,5.73,3.23,8.72l1.7,2.26c-4.92,1.53-6.7,5.57-6.7,9.85v11.22c0,5.9,3.87,10.26,10.09,10.26h8.64c3.72,0,6.62-1.45,8.24-5.25l2.26,3.31c.81,1.21,1.46,1.94,2.91,1.94h5.57c1.05,0,1.7-.73,1.7-1.7,0-.65-.32-1.13-.97-2.02l-7.59-10.09Z" style="fill: #fafafa;"/>
    <path d="M639.76,334.89c-7.28,0-13.2-5.92-13.2-13.2v-35.83c-6.07-1.19-10.66-6.54-10.66-12.95v-4.04c0-7.28,5.92-13.2,13.2-13.2h26c7.28,0,13.2,5.92,13.2,13.2v4.04c0,6.44-4.63,11.81-10.74,12.97v35.81c0,7.28-5.92,13.2-13.2,13.2h-4.6Z" style="fill: #fafafa;"/>
    <path d="M656.96,272.91v-4.04c0-1.05-.89-1.86-1.86-1.86h-26c-.97,0-1.86.81-1.86,1.86v4.04c0,1.05.89,1.86,1.86,1.86h8.8v46.92c0,1.05.89,1.86,1.86,1.86h4.6c.97,0,1.86-.81,1.86-1.86v-46.92h8.88c.97,0,1.86-.81,1.86-1.86Z" style="fill: #fafafa;"/>
    <path d="M668.42,334.89c-13.9,0-23.61-9.31-23.61-22.65v-17.36c0-12.7,9.77-22.65,22.24-22.65h6.06c12.47,0,22.24,9.95,22.24,22.65v8.48c0,1.32-.19,2.59-.56,3.79.36,1.2.56,2.48.56,3.79v1.29c0,13.34-9.78,22.65-23.78,22.65h-3.15Z" style="fill: #fafafa;"/>
    <path d="M673.11,283.57h-6.06c-6.06,0-10.9,4.69-10.9,11.31v17.36c0,7.76,5.24,11.31,12.27,11.31h3.15c7.03,0,12.44-3.56,12.44-11.31v-1.29c0-1.05-.81-1.86-1.86-1.86h-4.36c-.97,0-1.86.81-1.86,1.86h-.01v.57c0,3.07-1.61,5.01-4.68,5.01h-2.34c-3.06,0-4.68-1.94-4.68-5.01v-6.3h17.93c1.05,0,1.86-.81,1.86-1.86v-8.48c0-6.63-4.84-11.31-10.9-11.31Z" style="fill: #fafafa;"/>
    <path d="M711.13,334.89c-1.36,0-2.67-.21-3.9-.59-1.75.39-3.62.59-5.63.59h-1.86c-12.45,0-21.84-9.42-21.84-21.92v-1.45c0-3.71.76-7.11,2.15-10.06-.76-1.66-1.18-3.51-1.18-5.45v-1.29c0-13.02,9.83-22.48,23.37-22.48h3.31c13.4,0,23.13,9.53,23.13,22.65v26.33c0,.16,0,.31,0,.47,0,7.28-5.92,13.2-13.2,13.2h-4.36Z" style="fill: #fafafa;"/>
    <path d="M717.34,294.89c0-7.19-5.09-11.31-11.79-11.31h-3.31c-6.7,0-12.03,3.87-12.03,11.14v1.29c0,1.05.81,1.86,1.86,1.86h4.28c.97,0,1.86-.81,1.86-1.86v-.57c0-2.98,1.77-4.84,4.84-4.84h1.53c2.9,0,4.68,1.94,4.68,5.01v5.25h-8.96c-7.18,0-11.06,4.12-11.06,10.66v1.45c0,6.54,4.44,10.58,10.5,10.58h1.86c4.28,0,6.22-1.37,7.67-3.15v1.29c0,1.05.81,1.86,1.86,1.86h4.36c1.05,0,1.86-.81,1.86-1.86h0s0-26.8,0-26.8Z" style="fill: #fafafa;"/>
    <path d="M735.76,334.89c-13.71,0-23.29-9.31-23.29-22.65v-17.36c0-13.12,9.79-22.65,23.29-22.65h3.96c13.49,0,23.29,9.53,23.29,22.65v2.83c0,1.94-.42,3.79-1.18,5.45.76,1.66,1.18,3.51,1.18,5.45v3.63c0,13.12-9.79,22.65-23.29,22.65h-3.96Z" style="fill: #fafafa;"/>
    <path d="M739.72,283.57h-3.96c-6.78,0-11.95,3.96-11.95,11.31v17.36c0,7.43,5.08,11.31,11.95,11.31h3.96c6.78,0,11.95-3.88,11.95-11.31h0v-3.63c0-1.05-.81-1.86-1.86-1.86h-4.36c-.97,0-1.86.81-1.86,1.86v2.91c0,3.07-1.61,5.01-4.68,5.01h-2.34c-3.06,0-4.68-1.94-4.68-5.01v-15.91c0-3.07,1.61-5.01,4.68-5.01h2.34c2.98,0,4.68,1.94,4.68,5.01v2.1c0,1.05.89,1.86,1.86,1.86h4.36c1.05,0,1.86-.81,1.86-1.86v-2.83c0-7.35-5.17-11.31-11.95-11.31Z" style="fill: #fafafa;"/>
    <path d="M779.77,334.88c-2.88,0-5.54-.92-7.71-2.49-2.17,1.57-4.83,2.49-7.71,2.49h-4.36c-7.28,0-13.2-5.92-13.2-13.2v-52.81c0-7.28,5.92-13.2,13.2-13.2h4.36c7.28,0,13.2,5.92,13.2,13.2v3.48c11.6,1.12,19.78,10.14,19.78,22.28v27.05c0,7.28-5.92,13.2-13.2,13.2h-4.36Z" style="fill: #fafafa;"/>
    <path d="M775.09,283.57h0s-1.13,0-1.13,0c-2.9,0-5.89,1.05-7.75,3.23v-17.93c0-1.05-.81-1.86-1.86-1.86h-4.36c-1.05,0-1.86.81-1.86,1.86v52.81c0,1.05.81,1.86,1.86,1.86h4.36c1.05,0,1.86-.81,1.86-1.86v-26.08c0-3.07,1.69-5.01,4.76-5.01h2.26c2.98,0,4.68,2.02,4.68,5.01v26.08c0,1.05.81,1.86,1.86,1.86h4.36c1.05,0,1.86-.81,1.86-1.86v-27.05c0-7.02-4.6-11.06-10.9-11.06Z" style="fill: #fafafa;"/>
    <rect x="781.68" y="272.23" width="30.76" height="62.66" rx="13.2" ry="13.2" style="fill: #fafafa;"/>
    <rect x="793.02" y="283.57" width="8.08" height="39.98" rx="1.86" ry="1.86" style="fill: #fafafa;"/>
    <path d="M795.21,288.94c-9.14,0-13.92-6.64-13.92-13.2v-6.46c0-7.52,5.98-13.2,13.92-13.2h3.71c7.93,0,13.92,5.67,13.92,13.2v6.46c0,6.56-4.78,13.2-13.92,13.2h-3.71Z" style="fill: #fafafa;"/>
    <path d="M798.92,267.42h-3.71c-1.29,0-2.58.41-2.58,1.86v6.46c0,1.54,1.21,1.86,2.58,1.86h3.71c1.37,0,2.58-.33,2.58-1.86v-6.46c0-1.46-1.29-1.86-2.58-1.86Z" style="fill: #fafafa;"/>
    <path d="M829.76,334.88c-2.88,0-5.54-.92-7.71-2.49-2.17,1.57-4.83,2.49-7.71,2.49h-4.36c-7.28,0-13.2-5.92-13.2-13.2v-36.26c0-7.28,5.92-13.2,13.2-13.2h4.36c1.43,0,2.81.23,4.1.65,1.77-.43,3.61-.65,5.51-.65h1.13c.21,0,.42,0,.63.02,12.56.3,21.6,9.63,21.6,22.39v27.05c0,7.28-5.92,13.2-13.2,13.2h-4.36Z" style="fill: #fafafa;"/>
    <path d="M825.08,283.57h0s-1.13-.01-1.13-.01c-2.9,0-5.89,1.05-7.75,3.23v-1.37c0-1.05-.81-1.86-1.86-1.86h-4.36c-1.05,0-1.86.81-1.86,1.86v36.26c0,1.05.81,1.86,1.86,1.86h4.36c1.05,0,1.86-.81,1.86-1.86v-26.08c0-2.91,1.69-5.01,4.76-5.01h2.26c2.98,0,4.68,1.94,4.68,5.01v26.08c0,1.05.81,1.86,1.86,1.86h4.36c1.05,0,1.86-.81,1.86-1.86v-27.05c0-7.02-4.76-11.06-10.9-11.06Z" style="fill: #fafafa;"/>
    <path d="M850.75,351.04c-12.29,0-20.87-8.55-20.87-20.79v-2.34c0-2.92.95-5.61,2.56-7.8-.13-.93-.2-1.88-.2-2.86v-1.7c0-1.7.27-3.39.77-5-1.43-3.04-2.22-6.53-2.22-10.26v-5.41c0-13.33,9.81-22.65,23.86-22.65h17.36c7.28,0,13.2,5.92,13.2,13.2v3.15c0,3.44-1.34,6.57-3.52,8.91.02.51.03,1.04.03,1.59v.73c0,4.9-1.24,9.27-3.47,12.87,3.3,3.57,5.16,8.44,5.16,14.18v2.66c0,12.67-9.35,21.52-22.73,21.52h-9.93Z" style="fill: #fafafa;"/>
    <path d="M872.01,283.57h-17.36c-7.35,0-12.52,3.88-12.52,11.31v5.41c0,4.2,1.86,8.24,5.33,9.53-2.18.88-3.88,3.39-3.88,5.73v1.7c0,4.03,2.58,6.62,6.86,6.86l9.93.57c1.37.08,3.55.16,3.55,2.74v1.94c0,2.42-1.38,3.63-3.8,3.63h-7.51c-2.5,0-3.47-1.29-3.47-3.55v-1.53c0-1.05-.81-1.86-1.86-1.86h-4.2c-1.05,0-1.86.81-1.86,1.86v2.34c0,5.9,3.39,9.45,9.53,9.45h9.93c6.87,0,11.39-3.64,11.39-10.18v-2.66c0-5.9-3.16-8.89-9.05-9.29l-9.04-.57c-2.42-.16-2.99-.96-2.99-2.66,0-1.13.24-2.34,2.1-2.5h4.85c7.76,0,12.44-4.6,12.44-12.03v-.73c0-6.22-1.7-7.67-2.91-8.72h.02s4.52,0,4.52,0c1.05,0,1.86-.81,1.86-1.78v-3.15c0-1.05-.81-1.86-1.86-1.86Z" style="fill: #fafafa;"/>
  </g>
  <g id="Layer_1-2" data-name="Layer 1-2">
    <g>
      <g>
        <path d="M378.65,126.54c0-42.27,20.76-79.77,52.61-102.89-15.58-7.86-33.16-12.31-51.8-12.31-63.62,0-115.2,51.58-115.2,115.2s51.58,115.2,115.2,115.2c18.64,0,36.22-4.45,51.8-12.31-31.84-23.12-52.61-60.62-52.61-102.89Z" style="fill: #d4c8e3;"/>
        <path d="M504.93,126.54c0-42.27,20.76-79.77,52.61-102.89-15.57-7.86-33.16-12.31-51.8-12.31-63.62,0-115.2,51.58-115.2,115.2s51.58,115.2,115.2,115.2c18.64,0,36.22-4.45,51.8-12.31-31.84-23.12-52.61-60.62-52.61-102.89h0Z" style="fill: #b2d4ef;"/>
        <path d="M631.22,126.54c0-42.27,20.76-79.77,52.61-102.89-15.57-7.86-33.16-12.31-51.8-12.31-63.62,0-115.2,51.58-115.2,115.2s51.58,115.2,115.2,115.2c18.64,0,36.22-4.45,51.8-12.31-31.84-23.12-52.61-60.62-52.61-102.89Z" style="fill: #d3de98;"/>
        <circle cx="758.32" cy="126.54" r="115.2" style="fill: #fbeaa5;"/>
        <path d="M126.07,126.54c0-42.27,20.76-79.77,52.61-102.89-15.58-7.86-33.17-12.31-51.8-12.31C63.25,11.34,11.68,62.92,11.68,126.54s51.58,115.2,115.2,115.2c18.64,0,36.22-4.45,51.8-12.31-31.84-23.12-52.61-60.62-52.61-102.89Z" style="fill: #f8c7a7;"/>
        <path d="M252.36,126.54c0-42.27,20.76-79.77,52.61-102.89-15.58-7.86-33.16-12.31-51.8-12.31-63.62,0-115.2,51.58-115.2,115.2s51.58,115.2,115.2,115.2c18.64,0,36.22-4.45,51.8-12.31-31.84-23.12-52.61-60.61-52.61-102.89Z" style="fill: #ee9a7e;"/>
      </g>
      <g>
        <path d="M32.02,279.94c0-3.31-1.94-5.17-4.92-5.17h-2.5c-2.99,0-4.93,1.86-4.93,5.17v30.69c0,3.31,1.94,5.17,4.93,5.17h2.5c2.99,0,4.92-1.86,4.92-5.17v-5.65c0-1.05.89-1.86,1.86-1.86h4.6c1.05,0,1.86.81,1.86,1.86v7.35c0,7.59-5.73,11.22-12.52,11.22h-4.04c-6.78,0-12.44-3.63-12.44-11.22v-34.08c0-7.51,5.65-11.22,12.44-11.22h4.04c6.78,0,12.52,3.71,12.52,11.22v6.54c0,1.05-.81,1.86-1.86,1.86h-4.6c-.97,0-1.86-.81-1.86-1.86v-4.85h0Z" style="fill: #303030;"/>
        <path d="M66.75,310.95c0-1.05.89-1.86,1.86-1.86h4.36c1.05,0,1.86.81,1.86,1.86v1.29c0,7.75-5.41,11.31-12.44,11.31h-3.15c-7.03,0-12.27-3.55-12.27-11.31v-17.36c0-6.62,4.84-11.31,10.9-11.31h6.06c6.06,0,10.9,4.68,10.9,11.31v8.48c0,1.05-.81,1.86-1.86,1.86h-17.93v6.3c0,3.07,1.62,5.01,4.68,5.01h2.34c3.07,0,4.68-1.94,4.68-5.01v-.57h0ZM55.04,298.43h11.71v-2.83c0-3.07-1.62-5.01-4.68-5.01h-2.34c-3.07,0-4.68,1.94-4.68,5.01v2.83h0Z" style="fill: #303030;"/>
        <path d="M98.24,283.57c6.14,0,10.9,4.04,10.9,11.06v27.05c0,1.05-.81,1.86-1.86,1.86h-4.36c-1.05,0-1.86-.81-1.86-1.86v-26.08c0-3.07-1.7-5.01-4.68-5.01h-2.26c-3.07,0-4.76,2.1-4.76,5.01v26.08c0,1.05-.81,1.86-1.86,1.86h-4.36c-1.05,0-1.86-.81-1.86-1.86v-36.26c0-1.05.81-1.86,1.86-1.86h4.36c1.05,0,1.86.81,1.86,1.86v1.37c1.86-2.18,4.85-3.23,7.75-3.23h1.13Z" style="fill: #303030;"/>
        <path d="M126.1,290.6v23.26c0,1.94,1.05,2.66,3.39,2.66,1.86,0,3.31-.48,4.28-.48,1.05,0,1.53.65,1.53,1.62v2.99c0,1.13-.65,3.15-6.86,3.15-7.51,0-10.5-2.99-10.5-9.04v-24.15h-4.12c-1.05,0-1.86-.81-1.86-1.86v-3.39c0-.97.81-1.78,1.86-1.78h4.12v-9.77c0-1.05.81-1.86,1.86-1.86h4.44c1.05,0,1.86.81,1.86,1.86v9.77h7.67c1.05,0,1.86.81,1.86,1.78v3.39c0,1.05-.81,1.86-1.86,1.86h-7.67Z" style="fill: #303030;"/>
        <path d="M156.14,292.05c-5.65,0-7.35,3.07-7.35,7.27v22.37c0,1.05-.81,1.86-1.86,1.86h-4.36c-1.05,0-1.86-.81-1.86-1.86v-36.26c0-1.05.81-1.86,1.86-1.86h4.28c1.05,0,1.86.81,1.86,1.86v2.66c1.86-3.23,4.93-4.52,8.24-4.52h2.1c1.05,0,1.86.89,1.86,1.86v4.76c0,1.05-.81,1.86-1.86,1.86h-2.91Z" style="fill: #303030;"/>
        <path d="M184.48,310.95c0-1.05.89-1.86,1.86-1.86h4.36c1.05,0,1.86.81,1.86,1.86v1.29c0,7.75-5.41,11.31-12.44,11.31h-3.15c-7.03,0-12.27-3.55-12.27-11.31v-17.36c0-6.62,4.84-11.31,10.9-11.31h6.06c6.06,0,10.9,4.68,10.9,11.31v8.48c0,1.05-.81,1.86-1.86,1.86h-17.93v6.3c0,3.07,1.62,5.01,4.68,5.01h2.34c3.07,0,4.68-1.94,4.68-5.01v-.57h.01ZM172.77,298.43h11.71v-2.83c0-3.07-1.62-5.01-4.68-5.01h-2.34c-3.07,0-4.68,1.94-4.68,5.01v2.83h-.01Z" style="fill: #303030;"/>
        <path d="M217.75,277.52c0-5.98,3.88-10.5,10.98-10.5h4.6c1.05,0,1.86.89,1.86,1.86v3.47c0,1.05-.81,1.86-1.86,1.86h-3.15c-2.99,0-4.36,1.62-4.36,4.28v5.09h5.89c1.05,0,1.86.81,1.86,1.86v3.39c0,.97-.81,1.78-1.86,1.78h-5.89v31.09c0,1.05-.81,1.86-1.86,1.86h-4.36c-1.05,0-1.86-.81-1.86-1.86v-31.09h-3.96c-1.05,0-1.86-.81-1.86-1.78v-3.39c0-1.05.81-1.86,1.86-1.86h3.96v-6.06h0Z" style="fill: #303030;"/>
        <path d="M248.19,323.55c-6.06,0-10.9-4.6-10.9-11.22v-17.44c0-6.62,4.84-11.31,10.9-11.31h6.06c6.06,0,10.9,4.68,10.9,11.31v17.44c0,6.62-4.84,11.22-10.9,11.22h-6.06ZM257.08,295.61c0-3.07-1.62-5.01-4.68-5.01h-2.34c-3.07,0-4.68,1.94-4.68,5.01v15.91c0,3.07,1.62,5.01,4.68,5.01h2.34c3.07,0,4.68-1.94,4.68-5.01v-15.91Z" style="fill: #303030;"/>
        <path d="M287.03,292.05c-5.65,0-7.35,3.07-7.35,7.27v22.37c0,1.05-.81,1.86-1.86,1.86h-4.36c-1.05,0-1.86-.81-1.86-1.86v-36.26c0-1.05.81-1.86,1.86-1.86h4.28c1.05,0,1.86.81,1.86,1.86v2.66c1.86-3.23,4.93-4.52,8.24-4.52h2.1c1.05,0,1.86.89,1.86,1.86v4.76c0,1.05-.81,1.86-1.86,1.86h-2.91Z" style="fill: #303030;"/>
        <path d="M312.15,268.88c0-1.05.81-1.86,1.86-1.86h4.6c1.05,0,1.86.81,1.86,1.86v46.92h15.99c1.05,0,1.86.81,1.86,1.86v4.12c0,.97-.81,1.78-1.86,1.78h-22.45c-.97,0-1.86-.81-1.86-1.78v-52.89h0Z" style="fill: #303030;"/>
        <path d="M362.94,310.95c0-1.05.89-1.86,1.86-1.86h4.36c1.05,0,1.86.81,1.86,1.86v1.29c0,7.75-5.41,11.31-12.44,11.31h-3.15c-7.03,0-12.27-3.55-12.27-11.31v-17.36c0-6.62,4.84-11.31,10.9-11.31h6.06c6.06,0,10.9,4.68,10.9,11.31v8.48c0,1.05-.81,1.86-1.86,1.86h-17.93v6.3c0,3.07,1.62,5.01,4.68,5.01h2.34c3.07,0,4.68-1.94,4.68-5.01v-.57h.01ZM351.23,298.43h11.71v-2.83c0-3.07-1.62-5.01-4.68-5.01h-2.34c-3.07,0-4.68,1.94-4.68,5.01v2.83h-.01Z" style="fill: #303030;"/>
        <path d="M404.36,321.69c0,1.05-.81,1.86-1.86,1.86h-4.36c-1.05,0-1.86-.81-1.86-1.86v-1.29c-1.45,1.78-3.39,3.15-7.67,3.15h-1.86c-6.06,0-10.5-4.04-10.5-10.58v-1.45c0-6.54,3.88-10.66,11.06-10.66h8.96v-5.25c0-3.07-1.78-5.01-4.68-5.01h-1.53c-3.07,0-4.84,1.86-4.84,4.84v.57c0,1.05-.89,1.86-1.86,1.86h-4.28c-1.05,0-1.86-.81-1.86-1.86v-1.29c0-7.27,5.33-11.14,12.03-11.14h3.31c6.7,0,11.79,4.12,11.79,11.31v26.81h0ZM391.61,316.84c3.07,0,4.68-1.94,4.68-5.01v-4.76h-7.43c-3.07,0-4.52,1.53-4.52,4.12v1.21c0,2.66,1.13,4.44,4.52,4.44h2.75Z" style="fill: #303030;"/>
        <path d="M426.25,292.05c-5.65,0-7.35,3.07-7.35,7.27v22.37c0,1.05-.81,1.86-1.86,1.86h-4.36c-1.05,0-1.86-.81-1.86-1.86v-36.26c0-1.05.81-1.86,1.86-1.86h4.28c1.05,0,1.86.81,1.86,1.86v2.66c1.86-3.23,4.93-4.52,8.24-4.52h2.1c1.05,0,1.86.89,1.86,1.86v4.76c0,1.05-.81,1.86-1.86,1.86h-2.91Z" style="fill: #303030;"/>
        <path d="M451.77,283.57c6.14,0,10.9,4.04,10.9,11.06v27.05c0,1.05-.81,1.86-1.86,1.86h-4.36c-1.05,0-1.86-.81-1.86-1.86v-26.08c0-3.07-1.7-5.01-4.68-5.01h-2.26c-3.07,0-4.76,2.1-4.76,5.01v26.08c0,1.05-.81,1.86-1.86,1.86h-4.36c-1.05,0-1.86-.81-1.86-1.86v-36.26c0-1.05.81-1.86,1.86-1.86h4.36c1.05,0,1.86.81,1.86,1.86v1.37c1.86-2.18,4.85-3.23,7.75-3.23h1.13,0Z" style="fill: #303030;"/>
        <path d="M478.17,275.74c0,1.53-1.21,1.86-2.58,1.86h-3.71c-1.37,0-2.58-.32-2.58-1.86v-6.46c0-1.45,1.29-1.86,2.58-1.86h3.71c1.29,0,2.58.4,2.58,1.86v6.46ZM477.77,321.69c0,1.05-.81,1.86-1.86,1.86h-4.36c-1.05,0-1.86-.81-1.86-1.86v-36.26c0-1.05.81-1.86,1.86-1.86h4.36c1.05,0,1.86.81,1.86,1.86v36.26Z" style="fill: #303030;"/>
        <path d="M501.75,283.57c6.14,0,10.9,4.04,10.9,11.06v27.05c0,1.05-.81,1.86-1.86,1.86h-4.36c-1.05,0-1.86-.81-1.86-1.86v-26.08c0-3.07-1.7-5.01-4.68-5.01h-2.26c-3.07,0-4.76,2.1-4.76,5.01v26.08c0,1.05-.81,1.86-1.86,1.86h-4.36c-1.05,0-1.86-.81-1.86-1.86v-36.26c0-1.05.81-1.86,1.86-1.86h4.36c1.05,0,1.86.81,1.86,1.86v1.37c1.86-2.18,4.85-3.23,7.75-3.23h1.13,0Z" style="fill: #303030;"/>
        <path d="M544.14,290.36c1.21,1.05,2.91,2.5,2.91,8.72v.73c0,7.43-4.68,12.03-12.44,12.03h-4.85c-1.86.16-2.1,1.37-2.1,2.5,0,1.7.57,2.5,2.99,2.66l9.04.57c5.9.4,9.05,3.39,9.05,9.29v2.66c0,6.54-4.52,10.18-11.39,10.18h-9.93c-6.14,0-9.53-3.55-9.53-9.45v-2.34c0-1.05.81-1.86,1.86-1.86h4.2c1.05,0,1.86.81,1.86,1.86v1.53c0,2.26.97,3.55,3.47,3.55h7.51c2.42,0,3.8-1.21,3.8-3.63v-1.94c0-2.58-2.18-2.66-3.55-2.74l-9.93-.57c-4.28-.24-6.86-2.83-6.86-6.86v-1.7c0-2.34,1.7-4.85,3.88-5.73-3.47-1.29-5.33-5.33-5.33-9.53v-5.41c0-7.43,5.17-11.31,12.52-11.31h17.36c1.05,0,1.86.81,1.86,1.86v3.15c0,.97-.81,1.78-1.86,1.78h-4.54ZM539.06,295.93c0-3.55-1.45-5.73-4.85-5.73h-2.58c-3.47,0-4.76,2.18-4.76,5.73v3.55c0,3.63,1.29,5.73,4.76,5.73h2.58c3.07,0,4.85-1.94,4.85-5.01v-4.28h0Z" style="fill: #303030;"/>
        <path d="M580.81,280.59c0,1.78.73,3.8,1.86,5.25l13.24,16.88,2.91-9.53c.32-.97,1.13-1.37,2.18-1.37h4.12c1.21,0,1.86.89,1.86,1.7-.08.73-.16,1.29-.48,2.34l-4.93,13.89,7.59,10.09c.65.89.97,1.37.97,2.02,0,.97-.65,1.7-1.7,1.7h-5.57c-1.45,0-2.1-.73-2.91-1.94l-2.26-3.31c-1.62,3.8-4.52,5.25-8.24,5.25h-8.64c-6.22,0-10.09-4.36-10.09-10.26v-11.22c0-4.28,1.78-8.32,6.7-9.85l-1.7-2.26c-2.26-2.99-3.23-5.25-3.23-8.72v-2.66c0-7.75,5.89-11.55,12.52-11.55h2.99c6.86,0,12.76,3.55,12.76,11.22v5.73c0,1.05-.81,1.86-1.86,1.86h-4.6c-.97,0-1.86-.81-1.86-1.86v-4.28c0-2.91-.97-4.93-4.12-4.93h-3.07c-3.23,0-4.44,1.78-4.44,4.77v1.05h0ZM587.59,315.79c2.58,0,3.23-1.21,4.2-3.47l.48-1.13-10.58-13.16c-2.18.81-2.58,2.67-2.66,4.04v9.61c0,2.34,1.13,4.12,3.71,4.12h4.85Z" style="fill: #303030;"/>
        <path d="M655.1,274.77h-8.88v46.92c0,1.05-.89,1.86-1.86,1.86h-4.6c-.97,0-1.86-.81-1.86-1.86v-46.92h-8.8c-.97,0-1.86-.81-1.86-1.86v-4.04c0-1.05.89-1.86,1.86-1.86h26c.97,0,1.86.81,1.86,1.86v4.04c0,1.05-.89,1.86-1.86,1.86h0Z" style="fill: #303030;"/>
        <path d="M675.93,310.95c0-1.05.89-1.86,1.86-1.86h4.36c1.05,0,1.86.81,1.86,1.86v1.29c0,7.75-5.41,11.31-12.44,11.31h-3.15c-7.03,0-12.27-3.55-12.27-11.31v-17.36c0-6.62,4.84-11.31,10.9-11.31h6.06c6.06,0,10.9,4.68,10.9,11.31v8.48c0,1.05-.81,1.86-1.86,1.86h-17.93v6.3c0,3.07,1.62,5.01,4.68,5.01h2.34c3.07,0,4.68-1.94,4.68-5.01v-.57h.01ZM664.22,298.43h11.71v-2.83c0-3.07-1.62-5.01-4.68-5.01h-2.34c-3.07,0-4.68,1.94-4.68,5.01v2.83h-.01Z" style="fill: #303030;"/>
        <path d="M717.35,321.69c0,1.05-.81,1.86-1.86,1.86h-4.36c-1.05,0-1.86-.81-1.86-1.86v-1.29c-1.45,1.78-3.39,3.15-7.67,3.15h-1.86c-6.06,0-10.5-4.04-10.5-10.58v-1.45c0-6.54,3.88-10.66,11.06-10.66h8.96v-5.25c0-3.07-1.78-5.01-4.68-5.01h-1.53c-3.07,0-4.84,1.86-4.84,4.84v.57c0,1.05-.89,1.86-1.86,1.86h-4.28c-1.05,0-1.86-.81-1.86-1.86v-1.29c0-7.27,5.33-11.14,12.03-11.14h3.31c6.7,0,11.79,4.12,11.79,11.31v26.81h0ZM704.6,316.84c3.07,0,4.68-1.94,4.68-5.01v-4.76h-7.43c-3.07,0-4.52,1.53-4.52,4.12v1.21c0,2.66,1.13,4.44,4.52,4.44h2.75Z" style="fill: #303030;"/>
        <path d="M751.67,312.24c0,7.43-5.17,11.31-11.95,11.31h-3.96c-6.87,0-11.95-3.88-11.95-11.31v-17.36c0-7.35,5.17-11.31,11.95-11.31h3.96c6.78,0,11.95,3.96,11.95,11.31v2.83c0,1.05-.81,1.86-1.86,1.86h-4.36c-.97,0-1.86-.81-1.86-1.86v-2.1c0-3.07-1.7-5.01-4.68-5.01h-2.34c-3.07,0-4.68,1.94-4.68,5.01v15.91c0,3.07,1.62,5.01,4.68,5.01h2.34c3.07,0,4.68-1.94,4.68-5.01v-2.91c0-1.05.89-1.86,1.86-1.86h4.36c1.05,0,1.86.81,1.86,1.86v3.63h0Z" style="fill: #303030;"/>
        <path d="M775.09,283.57c6.3,0,10.9,4.04,10.9,11.06v27.05c0,1.05-.81,1.86-1.86,1.86h-4.36c-1.05,0-1.86-.81-1.86-1.86v-26.08c0-2.99-1.7-5.01-4.68-5.01h-2.26c-3.07,0-4.76,1.94-4.76,5.01v26.08c0,1.05-.81,1.86-1.86,1.86h-4.36c-1.05,0-1.86-.81-1.86-1.86v-52.81c0-1.05.81-1.86,1.86-1.86h4.36c1.05,0,1.86.81,1.86,1.86v17.93c1.86-2.18,4.85-3.23,7.75-3.23h1.13,0Z" style="fill: #303030;"/>
        <path d="M801.5,275.74c0,1.53-1.21,1.86-2.58,1.86h-3.71c-1.37,0-2.58-.32-2.58-1.86v-6.46c0-1.45,1.29-1.86,2.58-1.86h3.71c1.29,0,2.58.4,2.58,1.86v6.46ZM801.1,321.69c0,1.05-.81,1.86-1.86,1.86h-4.36c-1.05,0-1.86-.81-1.86-1.86v-36.26c0-1.05.81-1.86,1.86-1.86h4.36c1.05,0,1.86.81,1.86,1.86v36.26Z" style="fill: #303030;"/>
        <path d="M825.08,283.57c6.14,0,10.9,4.04,10.9,11.06v27.05c0,1.05-.81,1.86-1.86,1.86h-4.36c-1.05,0-1.86-.81-1.86-1.86v-26.08c0-3.07-1.7-5.01-4.68-5.01h-2.26c-3.07,0-4.76,2.1-4.76,5.01v26.08c0,1.05-.81,1.86-1.86,1.86h-4.36c-1.05,0-1.86-.81-1.86-1.86v-36.26c0-1.05.81-1.86,1.86-1.86h4.36c1.05,0,1.86.81,1.86,1.86v1.37c1.86-2.18,4.85-3.23,7.75-3.23h1.13,0Z" style="fill: #303030;"/>
        <path d="M867.47,290.36c1.21,1.05,2.91,2.5,2.91,8.72v.73c0,7.43-4.68,12.03-12.44,12.03h-4.85c-1.86.16-2.1,1.37-2.1,2.5,0,1.7.57,2.5,2.99,2.66l9.04.57c5.89.4,9.05,3.39,9.05,9.29v2.66c0,6.54-4.52,10.18-11.39,10.18h-9.93c-6.14,0-9.53-3.55-9.53-9.45v-2.34c0-1.05.81-1.86,1.86-1.86h4.2c1.05,0,1.86.81,1.86,1.86v1.53c0,2.26.97,3.55,3.47,3.55h7.51c2.42,0,3.8-1.21,3.8-3.63v-1.94c0-2.58-2.18-2.66-3.55-2.74l-9.93-.57c-4.28-.24-6.86-2.83-6.86-6.86v-1.7c0-2.34,1.7-4.85,3.88-5.73-3.47-1.29-5.33-5.33-5.33-9.53v-5.41c0-7.43,5.17-11.31,12.52-11.31h17.36c1.05,0,1.86.81,1.86,1.86v3.15c0,.97-.81,1.78-1.86,1.78h-4.54ZM862.38,295.93c0-3.55-1.45-5.73-4.85-5.73h-2.58c-3.47,0-4.76,2.18-4.76,5.73v3.55c0,3.63,1.29,5.73,4.76,5.73h2.58c3.07,0,4.85-1.94,4.85-5.01v-4.28h0Z" style="fill: #303030;"/>
      </g>
    </g>
  </g>
</svg>