<?xml version="1.0" encoding="UTF-8"?>
<svg id="Layer_2" data-name="Layer 2" xmlns="http://www.w3.org/2000/svg" viewBox="0 0 342.24 143.56">
  <g id="Layer_1-2" data-name="Layer 1">
    <g>
      <g>
        <path d="M177.12,50.04v-22.33h4.36v18.44h10.13v3.89h-14.49Z" style="fill: #fff;"/>
        <path d="M195.46,50.04v-22.33h14.71v3.89h-10.35v5.24h8.81v3.89h-8.81v5.43h10.35v3.89h-14.71Z" style="fill: #fff;"/>
        <path d="M214.73,50.04v-22.33h14.71v3.89h-10.35v5.24h8.81v3.89h-8.81v5.43h10.35v3.89h-14.71Z" style="fill: #fff;"/>
        <path d="M247.97,47.91c-1.48,1.48-3.58,2.13-5.9,2.13h-8.06v-22.33h8.06c2.32,0,4.42.66,5.9,2.13,2.51,2.51,2.26,5.58,2.26,8.94s.25,6.62-2.26,9.12ZM244.92,32.98c-.75-.91-1.76-1.38-3.26-1.38h-3.29v14.55h3.29c1.51,0,2.51-.47,3.26-1.38.82-1.01.94-2.6.94-5.99s-.13-4.8-.94-5.8Z" style="fill: #fff;"/>
        <path d="M261.12,50.23c-3.39,0-5.96-.72-8.15-2.95l2.82-2.82c1.41,1.41,3.32,1.88,5.39,1.88,2.57,0,3.95-.97,3.95-2.76,0-.78-.22-1.44-.69-1.88-.44-.41-.94-.63-1.97-.78l-2.7-.38c-1.91-.28-3.32-.88-4.33-1.85-1.07-1.07-1.6-2.51-1.6-4.39,0-3.99,2.95-6.78,7.78-6.78,3.07,0,5.3.75,7.21,2.6l-2.76,2.73c-1.41-1.35-3.11-1.54-4.58-1.54-2.32,0-3.45,1.29-3.45,2.82,0,.56.19,1.16.66,1.6.44.41,1.16.75,2.07.88l2.63.38c2.04.28,3.32.85,4.27,1.72,1.19,1.13,1.73,2.76,1.73,4.74,0,4.33-3.61,6.78-8.28,6.78Z" style="fill: #fff;"/>
        <path d="M186.47,79.08h-9.35v-22.33h8.97c4.36,0,6.9,2.45,6.9,6.27,0,2.48-1.63,4.08-2.76,4.61,1.35.63,3.07,2.04,3.07,5.02,0,4.17-2.85,6.43-6.84,6.43ZM185.75,60.64h-4.27v5.14h4.27c1.85,0,2.89-1.03,2.89-2.57s-1.04-2.57-2.89-2.57ZM186.03,69.7h-4.55v5.49h4.55c1.98,0,2.92-1.26,2.92-2.76s-.94-2.73-2.92-2.73Z" style="fill: #fff;"/>
        <path d="M197.75,79.08v-22.33h14.71v3.89h-10.35v5.24h8.81v3.89h-8.81v5.43h10.35v3.89h-14.71Z" style="fill: #fff;"/>
        <path d="M224.17,79.27c-2.38,0-4.39-.82-6.02-2.45-.97-.97-1.57-2.1-1.82-3.36-.25-1.25-.38-3.1-.38-5.55s.13-4.29.38-5.55c.25-1.29.85-2.38,1.82-3.35,1.63-1.63,3.64-2.45,6.02-2.45,4.3,0,7.46,2.51,8.22,7.06h-4.42c-.47-1.91-1.66-3.17-3.76-3.17-1.19,0-2.13.37-2.79,1.16-.91.97-1.1,1.97-1.1,6.3s.19,5.33,1.1,6.31c.66.78,1.6,1.16,2.79,1.16,2.1,0,3.29-1.25,3.76-3.17h4.42c-.75,4.55-3.95,7.06-8.22,7.06Z" style="fill: #fff;"/>
        <path d="M249.13,79.08l-5.74-10.16-2.89,3.45v6.71h-4.36v-22.33h4.36v9.72l7.87-9.72h5.3l-7.4,8.88,7.94,13.45h-5.08Z" style="fill: #fff;"/>
        <path d="M256.98,79.08v-22.33h14.71v3.89h-10.35v5.24h8.81v3.89h-8.81v5.43h10.35v3.89h-14.71Z" style="fill: #fff;"/>
        <path d="M285.31,60.64v18.44h-4.36v-18.44h-5.83v-3.89h16.03v3.89h-5.83Z" style="fill: #fff;"/>
        <path d="M304.39,60.64v18.44h-4.36v-18.44h-5.83v-3.89h16.03v3.89h-5.83Z" style="fill: #fff;"/>
        <path d="M184.65,108.29c-4.28,0-7.37-2.94-7.37-7.16v-14.17h2.26v13.99c0,3.21,2.02,5.32,5.11,5.32s5.14-2.11,5.14-5.32v-13.99h2.26v14.17c0,4.22-3.12,7.16-7.4,7.16Z" style="fill: #fff;"/>
        <path d="M211.56,108.11l-11.23-16.96v16.96h-2.26v-21.15h2.14l11.23,16.9v-16.9h2.26v21.15h-2.14Z" style="fill: #fff;"/>
        <path d="M219.92,108.11v-21.15h2.26v21.15h-2.26Z" style="fill: #fff;"/>
        <path d="M235.28,108.11h-1.84l-6.95-21.15h2.38l5.49,17.11,5.49-17.11h2.38l-6.95,21.15Z" style="fill: #fff;"/>
        <path d="M246.57,108.11v-21.15h13.13v2.02h-10.87v7.46h9.27v2.02h-9.27v7.63h10.87v2.02h-13.13Z" style="fill: #fff;"/>
        <path d="M276.91,108.11l-4.81-9.39h-5.08v9.39h-2.26v-21.15h8.11c3.68,0,6.27,2.23,6.27,5.88,0,3.09-1.87,5.11-4.6,5.67l5.02,9.59h-2.64ZM272.66,88.98h-5.64v7.75h5.64c2.47,0,4.22-1.28,4.22-3.86s-1.75-3.89-4.22-3.89Z" style="fill: #fff;"/>
        <path d="M290.46,108.29c-3.18,0-5.26-.8-7.25-2.79l1.54-1.54c1.75,1.75,3.39,2.32,5.76,2.32,3.09,0,4.99-1.46,4.99-3.92,0-1.1-.33-2.05-1.01-2.64-.68-.6-1.22-.77-2.76-1.01l-2.46-.38c-1.66-.27-2.97-.8-3.89-1.6-1.07-.95-1.6-2.26-1.6-3.95,0-3.6,2.58-5.97,6.77-5.97,2.7,0,4.48.68,6.3,2.32l-1.45,1.45c-1.31-1.19-2.7-1.81-4.93-1.81-2.82,0-4.45,1.58-4.45,3.92,0,1.04.3,1.87.95,2.44.65.56,1.75.98,2.85,1.16l2.32.36c1.99.3,2.97.71,3.86,1.49,1.16.98,1.78,2.44,1.78,4.19,0,3.71-2.91,6-7.31,6Z" style="fill: #fff;"/>
        <path d="M302.85,108.11v-21.15h2.26v21.15h-2.26Z" style="fill: #fff;"/>
        <path d="M318.14,88.98v19.13h-2.26v-19.13h-6.12v-2.02h14.49v2.02h-6.12Z" style="fill: #fff;"/>
        <path d="M336,99.38v8.73h-2.26v-8.73l-6.3-12.41h2.44l4.99,10.13,4.93-10.13h2.44l-6.24,12.41Z" style="fill: #fff;"/>
      </g>
      <g>
        <g>
          <g>
            <path d="M98.76.58c-8.65-2.03-19.22,1.92-19.22,1.92-3.71,1.21-5.89,1.03-5.89,1.03,0,0-2.18.18-5.89-1.03,0,0-10.58-3.95-19.22-1.92,0,0-8.49,1.62-6.47,12.74,0,0,.45-8.71,11.24-8.7,0,0,4.05-.16,12.51,3.76,0,0,1,.54,2.43,1.05h-.01s.03,0,.05.01c.54.19,1.13.36,1.76.51.2.05.39.09.59.13.26.05.52.08.79.11,1.8.24,3.42.17,4.7-.03.24-.03.46-.07.7-.12.26-.05.48-.1.7-.15.1-.03.2-.05.3-.08.76-.2,1.24-.39,1.24-.39h-.01c1.43-.51,2.43-1.05,2.43-1.05,8.47-3.92,12.51-3.76,12.51-3.76,10.79-.02,11.24,8.7,11.24,8.7,2.02-11.12-6.47-12.74-6.47-12.74Z" style="fill: #fff;"/>
            <g>
              <path d="M.07,70.99c1.15-8.81,8.59-17.3,8.59-17.3,2.44-3.05,3.05-5.15,3.05-5.15,0,0,.94-1.98,1.12-5.88,0,0,.05-11.29,5-18.66,0,0,4.52-7.37,14.2-1.54,0,0-8.31-2.66-12.11,7.44,0,0-1.58,3.73-.91,13.04,0,0,.15,1.13.12,2.64h0s0,.02,0,.04c-.01.57-.07,1.19-.15,1.83-.03.2-.05.4-.09.6-.05.26-.11.52-.17.78-.41,1.77-1.05,3.26-1.69,4.39-.12.21-.23.41-.36.61-.14.22-.26.42-.39.6-.06.09-.12.17-.18.25-.46.64-.8,1.03-.8,1.03h0c-.98,1.15-1.84,1.89-1.84,1.89-6.66,6.53-7.94,10.38-7.94,10.38-3.83,10.09,4.16,13.59,4.16,13.59C-1.42,79.5.07,70.99.07,70.99Z" style="fill: #fff;"/>
              <path d="M147.22,70.99c-1.15-8.81-8.59-17.3-8.59-17.3-2.44-3.05-3.05-5.15-3.05-5.15,0,0-.94-1.98-1.12-5.88,0,0-.05-11.29-5-18.66,0,0-4.52-7.37-14.2-1.54,0,0,8.31-2.66,12.11,7.44,0,0,1.58,3.73.91,13.04,0,0-.15,1.13-.12,2.64h0s0,.02,0,.04c.01.57.07,1.19.15,1.83.03.2.05.4.09.6.05.26.11.52.17.78.41,1.77,1.05,3.26,1.69,4.39.12.21.23.41.36.61.14.22.26.42.39.6.06.09.12.17.18.25.46.64.8,1.03.8,1.03h0c.98,1.15,1.84,1.89,1.84,1.89,6.66,6.53,7.94,10.38,7.94,10.38,3.83,10.09-4.16,13.59-4.16,13.59,11.12-2.04,9.63-10.55,9.63-10.55Z" style="fill: #fff;"/>
            </g>
            <g>
              <path d="M12.36,108.5c6.08,6.48,17.07,9.04,17.07,9.04,3.76,1.05,5.48,2.4,5.48,2.4,0,0,1.92,1.06,4.34,4.12,0,0,6.63,9.14,14.95,12.23,0,0,7.97,3.35,12.44-7.04,0,0-5.19,7.01-14.17,1.03,0,0-3.46-2.1-8.34-10.06,0,0-.53-1.01-1.44-2.22h0s-.02-.02-.03-.03c-.34-.45-.75-.93-1.19-1.4-.14-.15-.28-.29-.42-.43-.19-.18-.39-.36-.59-.53-1.36-1.2-2.75-2.03-3.93-2.58-.22-.1-.43-.2-.65-.28-.24-.1-.45-.18-.66-.26-.1-.03-.19-.07-.29-.1-.75-.25-1.25-.37-1.25-.37h0c-1.47-.36-2.6-.46-2.6-.46-9.22-1.42-12.5-3.79-12.5-3.79-9-5.95-4.55-13.46-4.55-13.46-7.83,8.15-1.66,14.19-1.66,14.19Z" style="fill: #fff;"/>
              <path d="M134.92,108.5c-6.08,6.48-17.07,9.04-17.07,9.04-3.76,1.05-5.48,2.4-5.48,2.4,0,0-1.92,1.06-4.34,4.12,0,0-6.63,9.14-14.95,12.23,0,0-7.97,3.35-12.44-7.04,0,0,5.19,7.01,14.17,1.03,0,0,3.46-2.1,8.34-10.06,0,0,.53-1.01,1.44-2.22h0s.02-.02.03-.03c.34-.45.75-.93,1.19-1.4.14-.15.28-.29.42-.43.19-.18.39-.36.59-.53,1.36-1.2,2.75-2.03,3.93-2.58.22-.1.43-.2.65-.28.24-.1.45-.18.66-.26.1-.03.19-.07.29-.1.75-.25,1.25-.37,1.25-.37h0c1.47-.36,2.6-.46,2.6-.46,9.22-1.42,12.5-3.79,12.5-3.79,9-5.95,4.55-13.46,4.55-13.46,7.83,8.15,1.66,14.19,1.66,14.19Z" style="fill: #fff;"/>
            </g>
          </g>
          <g>
            <polygon points="73.65 143.56 77.61 118.09 73.65 118.09 69.69 118.09 73.65 143.56" style="fill: #fff;"/>
            <g>
              <polygon points="145.74 91.38 122.78 79.67 121.55 83.44 120.31 87.2 145.74 91.38" style="fill: #fff;"/>
              <polygon points="1.62 91.38 24.58 79.67 25.81 83.44 27.05 87.2 1.62 91.38" style="fill: #fff;"/>
            </g>
            <polygon points="118.75 6.68 106.82 29.52 103.64 27.17 100.45 24.82 118.75 6.68" style="fill: #fff;"/>
            <polygon points="28.55 6.68 40.47 29.52 43.66 27.17 46.85 24.82 28.55 6.68" style="fill: #fff;"/>
          </g>
        </g>
        <g>
          <g>
            <path d="M42.83,79.62v-22.63h3.43v19.55h10.9v3.08h-14.34Z" style="fill: #fff;"/>
            <path d="M74.37,83.67h-12.75v-31.52h12.26c5.84,0,9.52,3.32,9.52,8.63,0,3.41-2.12,5.84-4.25,6.68,2.43.97,4.74,3.32,4.74,7.3,0,5.8-3.94,8.9-9.52,8.9ZM73.49,56.45h-7.08v9.03h7.08c3.05,0,5.13-1.59,5.13-4.52s-2.08-4.51-5.13-4.51ZM73.93,69.77h-7.53v9.61h7.53c3.32,0,5.18-2.03,5.18-4.82s-1.86-4.78-5.18-4.78Z" style="fill: #fff;"/>
            <path d="M96.31,79.71c-4.61,0-8.11-3.15-8.11-7.82v-15h3.43v14.84c0,3.02,1.84,4.9,4.67,4.9s4.7-1.88,4.7-4.9v-14.84h3.43v15c0,4.67-3.53,7.82-8.14,7.82Z" style="fill: #fff;"/>
          </g>
          <g>
            <path d="M73.64,114.84c-25.87,0-46.92-21.05-46.92-46.92s21.05-46.92,46.92-46.92,46.92,21.05,46.92,46.92-21.05,46.92-46.92,46.92ZM73.64,24.96c-23.68,0-42.95,19.27-42.95,42.95s19.27,42.95,42.95,42.95,42.95-19.27,42.95-42.95-19.27-42.95-42.95-42.95Z" style="fill: #fff;"/>
            <path d="M73.64,108.26c-22.24,0-40.34-18.1-40.34-40.34s18.1-40.34,40.34-40.34,40.34,18.1,40.34,40.34-18.1,40.34-40.34,40.34ZM73.64,29.17c-21.36,0-38.74,17.38-38.74,38.74s17.38,38.74,38.74,38.74,38.74-17.38,38.74-38.74-17.38-38.74-38.74-38.74Z" style="fill: #fff;"/>
          </g>
        </g>
      </g>
    </g>
  </g>
</svg>