<?xml version="1.0" encoding="UTF-8"?>
<svg id="Layer_1" data-name="Layer 1" xmlns="http://www.w3.org/2000/svg" xmlns:xlink="http://www.w3.org/1999/xlink" viewBox="0 0 147.22 118.41">
  <defs>
    <clipPath id="clippath">
      <rect width="147.22" height="118.41" style="fill: none;"/>
    </clipPath>
  </defs>
  <g style="clip-path: url(#clippath);">
    <path d="M25.47,118.41c-.44,0-.86-.09-1.26-.26-.95-.41-1.62-1.27-1.8-2.29l-5.77-33.7s-13.42.69-13.44.69c-.03,0-.08,0-.11,0-.94,0-1.82-.42-2.41-1.14-.62-.76-.84-1.78-.57-2.73l9.88-35.69L4.01,8.33c-.17-1.01.18-2.04.94-2.75.57-.53,1.33-.83,2.12-.83.24,0,.48.03.72.08l12.07,2.81,1.49-5.4c.25-.92.94-1.68,1.84-2.04.37-.14.76-.22,1.15-.22.57,0,1.12.15,1.61.45l23.38,14.07,95.51,22.24c1.21.28,2.13,1.25,2.34,2.46.21,1.22-.33,2.43-1.38,3.1l-24.43,15.57,20.4,12.28c1.17.7,1.73,2.06,1.39,3.37-.33,1.31-1.48,2.24-2.84,2.31l-51.24,2.62-61.93,39.46c-.5.32-1.08.49-1.68.49" style="fill: #fafafa;"/>
    <path d="M144.48,39.68c-.03-.14-.13-.25-.27-.29L48.27,17.05,24.52,2.76c-.1-.06-.22-.07-.32-.03-.11.04-.18.13-.22.24l-2.19,7.92-14.65-3.41c-.12-.03-.24,0-.33.09-.09.08-.13.2-.11.32l6.08,35.54L2.75,79.69c-.03.11,0,.23.07.32.07.08.17.13.28.13h.02l15.82-.81,6.17,36.07c.02.12.1.22.21.27.05.02.1.03.15.03.07,0,.14-.02.2-.06l62.54-39.85,51.97-2.65c.16,0,.29-.12.33-.27s-.03-.31-.16-.39l-24.13-14.53,28.1-17.91c.12-.08.19-.22.16-.36" style="fill: #e0d6eb;"/>
    <path d="M140.35,72.48L24.52,2.76c-.1-.06-.22-.07-.32-.03-.11.04-.19.13-.22.24L2.75,79.69c-.03.11,0,.23.07.32.07.08.17.13.28.13,0,0,.01,0,.02,0l137.06-7c.16,0,.29-.12.33-.27.04-.15-.03-.31-.16-.39" style="fill: #7859a3;"/>
    <path d="M144.48,39.68c-.03-.14-.13-.25-.27-.29L7.14,7.47c-.12-.03-.24,0-.33.09-.09.08-.13.2-.11.32l18.41,107.52c.02.12.1.22.21.27.05.02.1.03.15.03.07,0,.14-.02.2-.06l118.65-75.6c.12-.08.19-.22.16-.36" style="fill: #e0d6eb;"/>
    <path d="M28.48,36.49c.49,0,.73-.32.73-.79v-1.29c0-.47-.25-.79-.73-.79h-.93v2.88h.93ZM27.55,40.82c0,.16-.12.29-.29.29h-.72c-.15,0-.29-.12-.29-.29v-8.13c0-.16.14-.27.29-.27h2.2c.98,0,1.76.71,1.76,1.74v1.79c0,1.03-.78,1.74-1.76,1.74h-1.19v3.14Z" style="fill: #303030;"/>
    <path d="M33.59,36.26c-.88,0-1.14.47-1.14,1.12v3.44c0,.16-.13.29-.29.29h-.68c-.16,0-.29-.12-.29-.29v-5.57c0-.16.12-.28.29-.28h.67c.16,0,.29.12.29.28v.41c.29-.5.77-.69,1.28-.69h.33c.16,0,.29.14.29.28v.73c0,.16-.12.29-.29.29h-.45Z" style="fill: #303030;"/>
    <path d="M36.26,40.82c0,.16-.12.29-.29.29h-.68c-.16,0-.29-.12-.29-.29v-5.57c0-.16.13-.29.29-.29h.68c.16,0,.29.12.29.29v5.57ZM36.33,33.76c0,.24-.19.29-.4.29h-.58c-.21,0-.4-.05-.4-.29v-.99c0-.22.2-.29.4-.29h.58c.2,0,.4.06.4.29v.99Z" style="fill: #303030;"/>
    <path d="M39.99,34.96c.95,0,1.69.62,1.69,1.7v4.16c0,.16-.12.29-.29.29h-.68c-.16,0-.29-.12-.29-.29v-4.01c0-.47-.26-.77-.73-.77h-.35c-.48,0-.74.32-.74.77v4.01c0,.16-.12.29-.29.29h-.68c-.16,0-.29-.12-.29-.29v-5.57c0-.16.13-.29.29-.29h.68c.16,0,.29.12.29.29v.21c.29-.33.75-.5,1.2-.5h.18Z" style="fill: #303030;"/>
    <path d="M47.02,39.37c0,1.14-.8,1.74-1.86,1.74h-.62c-1.07,0-1.86-.6-1.86-1.74v-2.67c0-1.13.8-1.74,1.86-1.74h.62c1.06,0,1.86.61,1.86,1.74v.43c0,.16-.12.29-.29.29h-.68c-.15,0-.29-.12-.29-.29v-.32c0-.47-.26-.77-.73-.77h-.36c-.48,0-.73.3-.73.77v2.44c0,.47.25.77.73.77h.36c.48,0,.73-.3.73-.77v-.45c0-.16.14-.29.29-.29h.68c.16,0,.29.12.29.29v.56Z" style="fill: #303030;"/>
    <path d="M49.37,40.82c0,.16-.12.29-.29.29h-.68c-.16,0-.29-.12-.29-.29v-5.57c0-.16.13-.29.29-.29h.68c.16,0,.29.12.29.29v5.57ZM49.43,33.76c0,.24-.19.29-.4.29h-.58c-.21,0-.4-.05-.4-.29v-.99c0-.22.2-.29.4-.29h.58c.2,0,.4.06.4.29v.99Z" style="fill: #303030;"/>
    <path d="M52.44,40.02h.39c.48,0,.73-.3.73-.82v-2.39c0-.47-.25-.77-.73-.77h-.39c-.48,0-.73.3-.73.77v2.43c0,.48.25.78.73.78M51.71,35.47c.28-.3.74-.51,1.28-.51h.08c1.06,0,1.74.71,1.74,1.74v2.67c0,1.1-.77,1.74-1.77,1.74h-.15c-.48,0-.93-.14-1.18-.48v2.68c0,.16-.13.29-.29.29h-.68c-.16,0-.29-.12-.29-.29v-8.05c0-.16.12-.29.29-.29h.68c.16,0,.29.12.29.29v.22Z" style="fill: #303030;"/>
    <path d="M56.11,32.42h.68c.16,0,.29.13.29.29v8.11c0,.16-.13.29-.29.29h-.68c-.16,0-.29-.13-.29-.29v-8.11c0-.16.13-.29.29-.29Z" style="fill: #303030;"/>
    <path d="M59.33,37.24h1.82v-.43c0-.47-.25-.77-.73-.77h-.36c-.48,0-.73.3-.73.77v.43ZM61.15,39.17c0-.16.14-.29.29-.29h.68c.16,0,.29.12.29.29v.2c0,1.19-.84,1.74-1.93,1.74h-.49c-1.09,0-1.91-.55-1.91-1.74v-2.67c0-1.02.75-1.74,1.69-1.74h.94c.94,0,1.69.72,1.69,1.74v1.3c0,.16-.12.29-.29.29h-2.79v.97c0,.47.25.77.73.77h.36c.48,0,.73-.3.73-.77v-.09Z" style="fill: #303030;"/>
    <path d="M64.61,38.41c-.78-.2-1.23-.56-1.23-1.44v-.42c0-.93.62-1.59,1.61-1.59h1.09c.92,0,1.57.56,1.57,1.55v.29c0,.16-.12.29-.29.29h-.66c-.15,0-.29-.09-.29-.27v-.28c0-.35-.23-.48-.47-.48h-.78c-.33,0-.53.19-.53.5v.3c0,.17.06.36.34.43l1.41.36c.82.21,1.33.61,1.33,1.44v.45c0,.93-.62,1.59-1.61,1.59h-1.23c-1.02,0-1.56-.51-1.56-1.56v-.31c0-.16.13-.28.29-.28h.68c.16,0,.29.12.29.28v.22c0,.4.24.57.59.57h.77c.33,0,.53-.17.53-.48v-.3c0-.17-.07-.37-.35-.45l-1.49-.39Z" style="fill: #303030;"/>
    <path d="M30.15,45.67h-1.38v7.21c0,.16-.14.29-.29.29h-.72c-.15,0-.29-.12-.29-.29v-7.21h-1.37c-.15,0-.29-.12-.29-.29v-.62c0-.16.14-.28.29-.28h4.04c.15,0,.29.12.29.28v.62c0,.16-.14.29-.29.29" style="fill: #303030;"/>
    <path d="M33.39,48.88c0-.47-.25-.77-.73-.77h-.36c-.48,0-.73.3-.73.77v2.44c0,.47.25.77.73.77h.36c.48,0,.73-.3.73-.77v-2.44ZM32.01,53.17c-.94,0-1.69-.71-1.69-1.72v-2.68c0-1.02.75-1.74,1.69-1.74h.94c.94,0,1.69.72,1.69,1.74v2.68c0,1.02-.75,1.72-1.69,1.72h-.94Z" style="fill: #303030;"/>
    <path d="M37.28,51.67c.01.05.02.07.07.07.04,0,.06-.02.08-.07l.89-4.39c.02-.12.11-.25.33-.25h.73c.21,0,.3.12.33.25l.87,4.39c.01.05.03.07.06.07.05,0,.09-.04.09-.07,0-.02.74-4.39.74-4.39.03-.16.15-.25.3-.25h.61c.24,0,.31.15.31.3,0,.06,0,.11-.03.22l-1.04,5.34c-.04.16-.16.29-.35.29h-1.18c-.19,0-.33-.12-.35-.29l-.74-4.05-.79,4.05c-.04.16-.16.29-.35.29h-1.22c-.19,0-.33-.12-.35-.29l-1.04-5.32c-.03-.1-.04-.21-.04-.26,0-.16.1-.27.31-.27h.69c.15,0,.28.09.3.25l.77,4.39Z" style="fill: #303030;"/>
    <path d="M45.33,52.14c.48,0,.73-.3.73-.77v-.73h-1.16c-.48,0-.7.24-.7.63v.19c0,.41.18.68.7.68h.43ZM47.31,52.88c0,.16-.12.29-.29.29h-.68c-.16,0-.29-.12-.29-.29v-.2c-.23.27-.53.48-1.19.48h-.29c-.94,0-1.63-.62-1.63-1.62v-.22c0-1,.6-1.64,1.72-1.64h1.39v-.81c0-.47-.28-.77-.73-.77h-.24c-.48,0-.75.29-.75.75v.09c0,.16-.14.29-.29.29h-.67c-.16,0-.29-.12-.29-.29v-.2c0-1.12.83-1.71,1.87-1.71h.51c1.04,0,1.83.63,1.83,1.74v4.12Z" style="fill: #303030;"/>
    <path d="M50.71,48.33c-.88,0-1.14.47-1.14,1.12v3.44c0,.16-.13.29-.29.29h-.68c-.16,0-.29-.12-.29-.29v-5.57c0-.16.12-.28.29-.28h.67c.16,0,.29.12.29.28v.41c.29-.5.77-.69,1.28-.69h.33c.16,0,.29.14.29.28v.73c0,.16-.12.29-.29.29h-.45Z" style="fill: #303030;"/>
    <path d="M54.02,52.09h.39c.48,0,.73-.3.73-.82v-2.4c0-.47-.25-.77-.73-.77h-.39c-.48,0-.73.3-.73.77v2.43c0,.48.25.78.73.78M55.14,44.77c0-.16.12-.28.29-.28h.68c.16,0,.29.12.29.28v8.12c0,.16-.12.29-.29.29h-.68c-.16,0-.29-.12-.29-.29v-.2c-.26.32-.7.48-1.21.48h-.14c-1.05,0-1.76-.66-1.76-1.74v-2.67c0-1.08.77-1.74,1.77-1.74h.11c.5,0,.94.19,1.22.5v-2.76Z" style="fill: #303030;"/>
    <path d="M58.59,50.48c-.78-.2-1.23-.56-1.23-1.44v-.42c0-.93.62-1.59,1.61-1.59h1.09c.92,0,1.57.56,1.57,1.55v.29c0,.16-.12.29-.29.29h-.67c-.15,0-.29-.09-.29-.27v-.28c0-.35-.23-.48-.47-.48h-.78c-.33,0-.53.19-.53.5v.3c0,.17.06.36.34.43l1.41.36c.82.21,1.33.61,1.33,1.44v.45c0,.93-.62,1.59-1.61,1.59h-1.23c-1.02,0-1.56-.51-1.56-1.56v-.31c0-.16.13-.28.29-.28h.68c.16,0,.29.12.29.28v.22c0,.4.24.57.59.57h.77c.33,0,.53-.17.53-.48v-.3c0-.17-.08-.37-.35-.45l-1.49-.39Z" style="fill: #303030;"/>
    <path d="M27.51,61.84h1.26l-.59-4.2h-.05l-.61,4.2ZM28.91,63h-1.54l-.28,1.97c-.02.17-.14.26-.3.26h-.72c-.15,0-.25-.09-.25-.26,0-.06.01-.14.04-.28l1.19-7.86c.03-.2.14-.28.3-.28h1.66c.16,0,.28.09.3.28l1.19,7.86c.02.16.04.25.04.3,0,.15-.11.25-.26.25h-.82c-.17,0-.26-.1-.29-.26l-.26-1.97Z" style="fill: #303030;"/>
    <path d="M32.36,62.54c-.78-.2-1.23-.56-1.23-1.44v-.42c0-.93.61-1.59,1.61-1.59h1.09c.92,0,1.57.56,1.57,1.55v.29c0,.16-.12.28-.29.28h-.67c-.15,0-.29-.09-.29-.27v-.28c0-.35-.23-.48-.47-.48h-.78c-.33,0-.53.19-.53.5v.3c0,.17.06.36.34.43l1.41.36c.82.21,1.33.61,1.33,1.44v.45c0,.93-.62,1.59-1.61,1.59h-1.23c-1.02,0-1.56-.51-1.56-1.56v-.31c0-.16.13-.29.29-.29h.68c.16,0,.29.12.29.29v.22c0,.4.24.57.59.57h.77c.33,0,.53-.17.53-.48v-.3c0-.17-.08-.37-.35-.45l-1.49-.39Z" style="fill: #303030;"/>
    <path d="M37.57,62.54c-.78-.2-1.23-.56-1.23-1.44v-.42c0-.93.62-1.59,1.61-1.59h1.09c.92,0,1.57.56,1.57,1.55v.29c0,.16-.12.28-.29.28h-.67c-.15,0-.29-.09-.29-.27v-.28c0-.35-.23-.48-.47-.48h-.78c-.33,0-.53.19-.53.5v.3c0,.17.06.36.34.43l1.41.36c.82.21,1.33.61,1.33,1.44v.45c0,.93-.62,1.59-1.61,1.59h-1.23c-1.02,0-1.56-.51-1.56-1.56v-.31c0-.16.13-.29.29-.29h.68c.16,0,.29.12.29.29v.22c0,.4.24.57.59.57h.77c.33,0,.53-.17.53-.48v-.3c0-.17-.08-.37-.35-.45l-1.49-.39Z" style="fill: #303030;"/>
    <path d="M42.84,61.38h1.82v-.43c0-.47-.25-.77-.73-.77h-.36c-.48,0-.73.3-.73.77v.43ZM44.66,63.3c0-.16.14-.29.29-.29h.68c.16,0,.29.12.29.29v.2c0,1.19-.84,1.74-1.93,1.74h-.49c-1.09,0-1.91-.55-1.91-1.74v-2.67c0-1.02.75-1.74,1.69-1.74h.94c.94,0,1.69.72,1.69,1.74v1.3c0,.16-.12.29-.29.29h-2.79v.97c0,.47.25.77.73.77h.36c.48,0,.73-.3.73-.77v-.09Z" style="fill: #303030;"/>
    <path d="M48.11,62.54c-.78-.2-1.23-.56-1.23-1.44v-.42c0-.93.62-1.59,1.61-1.59h1.09c.92,0,1.57.56,1.57,1.55v.29c0,.16-.12.28-.29.28h-.67c-.15,0-.29-.09-.29-.27v-.28c0-.35-.23-.48-.47-.48h-.78c-.33,0-.53.19-.53.5v.3c0,.17.06.36.34.43l1.41.36c.82.21,1.33.61,1.33,1.44v.45c0,.93-.62,1.59-1.61,1.59h-1.23c-1.02,0-1.56-.51-1.56-1.56v-.31c0-.16.13-.29.29-.29h.68c.16,0,.29.12.29.29v.22c0,.4.24.57.59.57h.77c.33,0,.53-.17.53-.48v-.3c0-.17-.08-.37-.35-.45l-1.49-.39Z" style="fill: #303030;"/>
    <path d="M53.32,62.54c-.78-.2-1.23-.56-1.23-1.44v-.42c0-.93.62-1.59,1.61-1.59h1.09c.92,0,1.57.56,1.57,1.55v.29c0,.16-.12.28-.29.28h-.67c-.15,0-.29-.09-.29-.27v-.28c0-.35-.23-.48-.47-.48h-.78c-.33,0-.53.19-.53.5v.3c0,.17.06.36.34.43l1.41.36c.82.21,1.33.61,1.33,1.44v.45c0,.93-.62,1.59-1.61,1.59h-1.23c-1.02,0-1.56-.51-1.56-1.56v-.31c0-.16.13-.29.29-.29h.68c.16,0,.29.12.29.29v.22c0,.4.24.57.59.57h.77c.33,0,.53-.17.53-.48v-.3c0-.17-.08-.37-.35-.45l-1.49-.39Z" style="fill: #303030;"/>
    <path d="M61.23,59.79c.36-.48.9-.69,1.44-.69h.14c.98,0,1.72.62,1.72,1.7v4.16c0,.16-.13.28-.29.28h-.68c-.16,0-.29-.12-.29-.28v-4.01c0-.47-.28-.77-.73-.77h-.25c-.44,0-.73.32-.73.71v4.07c0,.16-.13.28-.29.28h-.68c-.16,0-.29-.12-.29-.28v-4.01c0-.47-.26-.77-.73-.77h-.25c-.48,0-.74.32-.74.77v4.01c0,.16-.12.28-.29.28h-.68c-.16,0-.29-.12-.29-.28v-5.57c0-.16.13-.29.29-.29h.68c.16,0,.29.12.29.29v.21c.29-.33.75-.5,1.2-.5h.08c.63,0,1.12.26,1.36.69" style="fill: #303030;"/>
    <path d="M66.79,61.38h1.82v-.43c0-.47-.25-.77-.73-.77h-.36c-.48,0-.73.3-.73.77v.43ZM68.61,63.3c0-.16.14-.29.29-.29h.68c.16,0,.29.12.29.29v.2c0,1.19-.84,1.74-1.93,1.74h-.49c-1.09,0-1.91-.55-1.91-1.74v-2.67c0-1.02.75-1.74,1.69-1.74h.94c.94,0,1.69.72,1.69,1.74v1.3c0,.16-.12.29-.29.29h-2.79v.97c0,.47.25.77.73.77h.36c.48,0,.73-.3.73-.77v-.09Z" style="fill: #303030;"/>
    <path d="M73.51,59.09c.95,0,1.69.62,1.69,1.7v4.16c0,.16-.12.28-.29.28h-.68c-.16,0-.29-.12-.29-.28v-4.01c0-.47-.26-.77-.73-.77h-.35c-.48,0-.74.32-.74.77v4.01c0,.16-.12.28-.29.28h-.68c-.16,0-.29-.12-.29-.28v-5.57c0-.16.13-.29.29-.29h.68c.16,0,.29.12.29.29v.21c.29-.33.75-.5,1.21-.5h.18Z" style="fill: #303030;"/>
    <path d="M77.84,60.17v3.57c0,.3.16.41.53.41.29,0,.52-.08.67-.08.16,0,.24.1.24.25v.46c0,.17-.1.48-1.07.48-1.17,0-1.63-.46-1.63-1.39v-3.71h-.64c-.16,0-.29-.12-.29-.29v-.52c0-.15.13-.27.29-.27h.64v-1.5c0-.16.13-.29.29-.29h.69c.16,0,.29.12.29.29v1.5h1.19c.16,0,.29.12.29.27v.52c0,.16-.12.29-.29.29h-1.19Z" style="fill: #303030;"/>
  </g>
</svg>