<?xml version="1.0" encoding="UTF-8"?>
<svg xmlns="http://www.w3.org/2000/svg" viewBox="0 0 4487.76 1054.57">
  <g id="Layer_1" data-name="Layer 1">
    <g>
      <path d="M.88.88h960.13v593.8H.88V.88ZM959.96,1.94H1.94s0,591.68,0,591.68h958.02V1.94Z" style="fill: #231916;"/>
      <path d="M367.22.88h593.8v593.8H367.22V.88ZM959.96,1.94H368.27v591.69h591.68V1.94Z" style="fill: #231916;"/>
      <path d="M227.82,0c77.93,0,141.34,63.4,141.34,141.34,0,48.46-39.43,87.89-87.89,87.89-30.25,0-54.86-24.61-54.86-54.86,0-18.99,15.45-34.44,34.44-34.44,12.03,0,21.82,9.79,21.82,21.83,0,7.73-6.29,14.03-14.03,14.03-5.08,0-9.21-4.13-9.21-9.21,0-3.43,2.79-6.23,6.23-6.23,2.42,0,4.39,1.97,4.39,4.39,0,1.79-1.46,3.25-3.25,3.25-1.41,0-2.55-1.14-2.55-2.55,0-.78.63-1.41,1.41-1.41.66,0,1.22.46,1.37,1.08.12-.08.2-.21.2-.36,0-.87-.7-1.57-1.57-1.57-1.88,0-3.41,1.53-3.41,3.41,0,3.52,2.87,6.39,6.39,6.39,6.18,0,11.21-5.03,11.21-11.21,0-10.48-8.52-19.01-19-19.01-17.44,0-31.62,14.19-31.62,31.62,0,28.69,23.34,52.04,52.04,52.04,46.91,0,85.07-38.16,85.07-85.07,0-76.38-62.14-138.52-138.52-138.52C103.75,2.82,2.82,103.75,2.82,227.82c0,201.22,163.7,364.93,364.93,364.93,326.06,0,591.33-265.27,591.33-591.33,0-.78.63-1.41,1.41-1.41s1.41.63,1.41,1.41c0,80.21-15.71,158.02-46.69,231.27-29.93,70.75-72.77,134.29-127.33,188.86-54.56,54.57-118.11,97.41-188.86,127.33-73.25,30.98-151.06,46.69-231.27,46.69-98.23,0-190.58-38.25-260.03-107.71C38.25,418.39,0,326.05,0,227.82,0,102.2,102.2,0,227.82,0Z" style="fill: #231916;"/>
      <path d="M.88,227.29h367.39v367.39H.88V227.29ZM367.22,228.35H1.94v365.28h365.28V228.35Z" style="fill: #231916;"/>
      <path d="M.88.88h227.46v227.46H.88V.88ZM227.29,1.94H1.94v225.35h225.35V1.94Z" style="fill: #231916;"/>
      <path d="M227.29.88h140.99v140.99h-140.99V.88ZM367.22,1.94h-138.87v138.87h138.87V1.94Z" style="fill: #231916;"/>
      <path d="M280.74,140.81h87.54v87.54h-87.54v-87.54ZM367.22,141.87h-85.42v85.42h85.42v-85.42Z" style="fill: #231916;"/>
      <path d="M227.29,173.84h54.5v54.5h-54.5v-54.5ZM280.74,174.9h-52.39v52.39h52.39v-52.39Z" style="fill: #231916;"/>
      <path d="M227.29,140.81h34.09v34.09h-34.09v-34.09ZM260.32,141.87h-31.97v31.98h31.97v-31.98Z" style="fill: #231916;"/>
      <path d="M260.32,140.81h21.47v21.47h-21.47v-21.47ZM280.74,141.87h-19.36v19.36h19.36v-19.36Z" style="fill: #231916;"/>
      <path d="M268.12,161.22h13.67v13.67h-13.67v-13.67ZM280.74,162.28h-11.56v11.56h11.56v-11.56Z" style="fill: #231916;"/>
      <path d="M260.32,166.04h8.85v8.86h-8.85v-8.86ZM268.12,167.1h-6.74v6.74h6.74v-6.74Z" style="fill: #231916;"/>
      <path d="M260.32,161.22h5.88v5.88h-5.88v-5.88ZM265.14,162.28h-3.76v3.76h3.76v-3.76Z" style="fill: #231916;"/>
      <path d="M265.14,161.22h4.04v4.04h-4.04v-4.04ZM268.12,162.28h-1.92v1.92h1.92v-1.92Z" style="fill: #231916;"/>
      <path d="M266.28,164.2h2.9v2.9h-2.9v-2.9ZM268.12,165.26h-.78v.78h.78v-.78Z" style="fill: #231916;"/>
      <path d="M265.14,164.9h2.2v2.2h-2.2v-2.2ZM266.28,165.96h-.08v.08h.08v-.08Z" style="fill: #231916;"/>
    </g>
  </g>
  <g id="Layer_2" data-name="Layer 2">
    <g id="_Layer_" data-name="&amp;lt;Layer&amp;gt;">
      <g>
        <g>
          <path d="M4280.33,1011.51h127.03v32.49h-127.03c-8.97,0-16.25-7.28-16.25-16.25h0c0-8.97,7.28-16.25,16.25-16.25Z" style="fill: #26a8df;"/>
          <path d="M4288.21,1045.01c-9.51,0-17.25-7.74-17.25-17.25s7.74-17.25,17.25-17.25c.55,0,1,.45,1,1s-.45,1-1,1c-8.41,0-15.25,6.84-15.25,15.25s6.84,15.25,15.25,15.25c.55,0,1,.45,1,1s-.45,1-1,1Z" style="fill: #303030;"/>
          <path d="M4310.17,1045.01c-9.51,0-17.25-7.74-17.25-17.25s7.74-17.25,17.25-17.25c.55,0,1,.45,1,1s-.45,1-1,1c-8.41,0-15.25,6.84-15.25,15.25s6.84,15.25,15.25,15.25c.55,0,1,.45,1,1s-.45,1-1,1Z" style="fill: #303030;"/>
          <g>
            <path d="M4326.87,1011.51h80.49v32.49h-80.49c-8.97,0-16.25-7.28-16.25-16.25h0c0-8.97,7.28-16.25,16.25-16.25Z" style="fill: #fafafa;"/>
            <path d="M4407.36,1045.01h-80.49c-9.51,0-17.25-7.74-17.25-17.25s7.74-17.25,17.25-17.25h80.49c.55,0,1,.45,1,1v32.49c0,.55-.45,1-1,1ZM4326.87,1012.51c-8.41,0-15.25,6.84-15.25,15.25s6.84,15.25,15.25,15.25h79.49v-30.49h-79.49Z" style="fill: #303030;"/>
          </g>
          <path d="M4406.51,1021.29h-74.81c-.55,0-1-.45-1-1s.45-1,1-1h74.81c.55,0,1,.45,1,1s-.45,1-1,1Z" style="fill: #303030;"/>
          <path d="M4405.64,1027.44h-54.61c-.55,0-1-.45-1-1s.45-1,1-1h54.61c.55,0,1,.45,1,1s-.45,1-1,1Z" style="fill: #303030;"/>
        </g>
        <g>
          <g>
            <path d="M4274.58,992.19h125.73v19.32h-125.73c-5.33,0-9.66-4.33-9.66-9.66h0c0-5.33,4.33-9.66,9.66-9.66Z" transform="translate(8665.24 2003.69) rotate(180)" style="fill: #303030;"/>
            <path d="M4390.66,1012.51h-125.73c-.55,0-1-.45-1-1v-19.32c0-.55.45-1,1-1h125.73c5.88,0,10.66,4.78,10.66,10.66s-4.78,10.66-10.66,10.66ZM4265.92,1010.51h124.73c4.77,0,8.66-3.88,8.66-8.66s-3.88-8.66-8.66-8.66h-124.73v17.32Z" style="fill: #303030;"/>
          </g>
          <g>
            <path d="M4274.58,992.19h49.56v19.32h-49.56c-5.33,0-9.66-4.33-9.66-9.66h0c0-5.33,4.33-9.66,9.66-9.66Z" transform="translate(8589.07 2003.69) rotate(180)" style="fill: #fafafa;"/>
            <path d="M4314.49,1012.51h-49.56c-.55,0-1-.45-1-1v-19.32c0-.55.45-1,1-1h49.56c5.88,0,10.66,4.78,10.66,10.66s-4.78,10.66-10.66,10.66ZM4265.92,1010.51h48.56c4.77,0,8.66-3.88,8.66-8.66s-3.88-8.66-8.66-8.66h-48.56v17.32Z" style="fill: #303030;"/>
          </g>
          <path d="M4311.61,998.41h-46.19c-.55,0-1-.45-1-1s.45-1,1-1h46.19c.55,0,1,.45,1,1s-.45,1-1,1Z" style="fill: #303030;"/>
          <path d="M4286.91,1003.82h-20.97c-.55,0-1-.45-1-1s.45-1,1-1h20.97c.55,0,1,.45,1,1s-.45,1-1,1Z" style="fill: #303030;"/>
        </g>
        <g>
          <g>
            <path d="M4262.29,991.31h132.94c5.75,0,10.41-4.66,10.41-10.41h0c0-5.75-4.66-10.41-10.41-10.41h-132.94v20.81Z" style="fill: #fafafa;"/>
            <path d="M4395.23,992.31h-132.94c-.55,0-1-.45-1-1v-20.81c0-.55.45-1,1-1h132.94c6.29,0,11.41,5.12,11.41,11.41s-5.12,11.41-11.41,11.41ZM4263.29,990.31h131.94c5.19,0,9.41-4.22,9.41-9.41s-4.22-9.41-9.41-9.41h-131.94v18.81Z" style="fill: #303030;"/>
          </g>
          <g>
            <path d="M4262.29,991.31h53.4c5.75,0,10.41-4.66,10.41-10.41h0c0-5.75-4.66-10.41-10.41-10.41h-53.4v20.81Z" style="fill: #fafafa;"/>
            <path d="M4315.69,992.31h-53.4c-.55,0-1-.45-1-1v-20.81c0-.55.45-1,1-1h53.4c6.29,0,11.41,5.12,11.41,11.41s-5.12,11.41-11.41,11.41ZM4263.29,990.31h52.4c5.19,0,9.41-4.22,9.41-9.41s-4.22-9.41-9.41-9.41h-52.4v18.81Z" style="fill: #303030;"/>
          </g>
          <path d="M4312.6,977.12h-49.76c-.55,0-1-.45-1-1s.45-1,1-1h49.76c.55,0,1,.45,1,1s-.45,1-1,1Z" style="fill: #303030;"/>
        </g>
        <path d="M4395.98,980.9h-61.64c-.55,0-1-.45-1-1s.45-1,1-1h61.64c.55,0,1,.45,1,1s-.45,1-1,1Z" style="fill: #303030;"/>
        <polygon points="4299.21 1006.73 4299.21 983.43 4307.32 983.43 4315.42 983.43 4315.42 1006.73 4307.32 1002.05 4299.21 1006.73" style="fill: #26a8df;"/>
        <g>
          <path d="M4291.15,852.45s-22.64-5.02-23.14-14.91c-.5-9.89,20.2-21.69,25.53-23.4,5.33-1.71,14.76-2.84,20.65,7.95,5.89,10.79,11.6,19.28,19.51,22.06,13.04,4.59,1.55,32.4-9.44,20.44-9.7-10.55-21.25-2.3-21.25-2.3,0,0-.03-9.23-11.86-9.85Z" style="fill: #303030;"/>
          <circle cx="4322.27" cy="857.44" r="23.28" transform="translate(2654.58 4936.17) rotate(-78.98)" style="fill: #303030;"/>
          <path d="M4336.08,835.52c1.15,7.32-3.86,14.18-11.18,15.33-7.32,1.15-14.18-3.86-15.33-11.18-1.15-7.32,3.86-14.18,11.18-15.33,7.32-1.15,14.18,3.86,15.33,11.18Z" style="fill: #303030;"/>
          <g>
            <path d="M4294.45,856.21l1.92,4.09,4.8-2.85s-1.9-8.82,1.35-12.73c3.68-4.42,2.55-8.48.25-10.7-3.01-2.9-6.87-.29-6.74,4.99.05,2,.95,4.4.95,4.4,0,0-9.67,7.46-20.36-8.35,0,0-3.52-1.5-3.83,4.01-.13,2.37.28,8.14-.36,11.58-.23,1.23.66,2.4,1.91,2.49.86.07,1.64.2,1.71.46.85,3.4,1.53,5.95,1.53,5.95,0,0,.6,10.6,19.49-5.72l-2.62,2.38Z" style="fill: #fafafa;"/>
            <path d="M4281.31,863.94c-.75,0-1.43-.13-2.03-.38-2.25-.95-2.63-3.26-2.7-3.82-.12-.44-.69-2.62-1.41-5.48-.17-.04-.46-.08-.92-.11-.88-.07-1.69-.51-2.23-1.21-.54-.7-.75-1.6-.59-2.47.42-2.21.37-5.51.33-8.16-.02-1.33-.03-2.49.01-3.3.13-2.32.82-3.89,2.06-4.65,1.45-.91,2.99-.29,3.16-.22.18.08.33.2.44.36,3.81,5.63,7.86,8.84,12.04,9.53,2.98.49,5.27-.48,6.3-1.05-.29-.92-.71-2.5-.75-3.94-.08-3.27,1.22-5.9,3.41-6.86,1.67-.74,3.5-.33,5.01,1.13,2.53,2.43,4,7.05-.17,12.06-2.9,3.49-1.16,11.8-1.14,11.88.09.42-.1.85-.47,1.07l-4.8,2.85c-.24.14-.54.18-.8.1-.27-.08-.49-.28-.61-.53l-1.46-3.09c-5.4,4.19-9.65,6.3-12.7,6.3ZM4275.61,835.87c-.23,0-.48.04-.71.19-.62.4-1.01,1.48-1.1,3.06-.04.74-.03,1.86,0,3.16.04,2.74.08,6.14-.37,8.55-.06.31.02.63.21.88.19.25.48.41.79.43,1.19.09,2.36.26,2.6,1.21.85,3.39,1.52,5.94,1.52,5.94.02.07.03.13.03.2,0,.06.13,1.65,1.51,2.22,1.6.66,5.84.42,16.33-8.64.42-.36,1.05-.32,1.41.1.36.42.31,1.05-.1,1.41-.72.62-1.42,1.21-2.1,1.77l1.19,2.52,3.25-1.93c-.39-2.26-1.29-9.27,1.7-12.87,3.29-3.95,2.32-7.42.32-9.34-.91-.88-1.91-1.14-2.82-.74-1.41.62-2.28,2.58-2.22,4.98.05,1.8.88,4.05.89,4.07.15.41.02.88-.33,1.14-.14.11-3.45,2.6-8.38,1.81-4.68-.75-9.13-4.15-13.22-10.1-.11-.02-.24-.04-.39-.04Z" style="fill: #303030;"/>
          </g>
          <path d="M4281.37,856.86c-.53,0-.98-.42-1-.96-.02-.55.41-1.02.96-1.04.95-.04,1.85-.87,1.97-1.8.07-.55.58-.92,1.12-.87.55.07.93.57.87,1.12-.24,1.91-1.94,3.47-3.87,3.55-.01,0-.03,0-.04,0Z" style="fill: #303030;"/>
          <path d="M4279.45,846.82c.42.72,1.19,1.06,1.71.76s.6-1.14.18-1.86-1.19-1.06-1.71-.76-.6,1.14-.18,1.86Z" style="fill: #303030;"/>
          <g>
            <path d="M4307.94,887.6c.57-5.26-2.57-9.12-4.03-10.56-1.46-1.44-3.76-1.39-6.33-.43-2.57.96-5.09,5.1-6.64,7.03-1.55,1.93-6.07,12.48-6.07,12.48,0,0-5.87,17.33-7.61,25.96l-32.13,7.68,5.41,4.86,45.71,3.1c7.52.51,13.07-5.53,9.15-9.96l-7.03-7.94c1.34-3.05,2.55-6.14,3.53-8.69,2.97-7.76,5.49-18.25,6.06-23.51Z" style="fill: #fafafa;"/>
            <path d="M4297.11,938.74c-.31,0-.63,0-.94-.03l-45.71-3.1c-.22-.02-.43-.1-.6-.25l-5.41-4.86c-.28-.25-.39-.63-.3-.99.09-.36.38-.64.74-.73l31.52-7.54c1.87-8.75,7.28-24.76,7.51-25.45.5-1.17,4.65-10.8,6.24-12.78.32-.4.69-.91,1.09-1.45,1.64-2.24,3.68-5.03,5.98-5.89,4.03-1.5,6.24-.47,7.38.66,1.18,1.16,4.97,5.41,4.33,11.38-.56,5.22-3.06,15.79-6.12,23.76-.87,2.27-2.01,5.21-3.29,8.15l6.61,7.46c1.66,1.88,2,4.21.92,6.41-1.56,3.17-5.56,5.25-9.95,5.25ZM4250.94,933.64l45.37,3.08c4.42.3,7.85-1.84,8.96-4.1.5-1.02.8-2.58-.63-4.2l-7.03-7.94c-.26-.29-.32-.71-.17-1.07,1.36-3.09,2.59-6.25,3.51-8.65,3-7.83,5.45-18.17,6-23.26.55-5.08-2.73-8.74-3.74-9.74-1.33-1.31-3.6-.84-5.28-.21-1.74.65-3.66,3.28-5.06,5.19-.42.58-.81,1.1-1.15,1.53-1.2,1.5-4.69,9.35-5.93,12.25-.03.1-5.84,17.29-7.55,25.76-.08.38-.37.68-.75.78l-30.28,7.24,3.73,3.35Z" style="fill: #303030;"/>
          </g>
          <path d="M4304.53,914.93c3.07-11.5,5.46-25.08,5.96-32.03.55-7.71-3.63-12.09-5.57-13.62-1.93-1.53-4.89-.64-8.18,1.66s-6.38,9.1-8.31,12.42c-1.49,2.55-5.05,13-6.62,17.69.65.45,1.31.9,1.97,1.34,6.93,4.69,13.9,8.87,20.76,12.53Z" style="fill: #26a8df;"/>
          <g>
            <polygon points="4204.06 1021.13 4197.92 1035.64 4180.9 1038.06 4193.18 1011.46 4204.06 1021.13" style="fill: #fafafa;"/>
            <path d="M4180.9,1039.06c-.31,0-.61-.15-.8-.4-.22-.29-.26-.68-.11-1.02l12.28-26.6c.13-.29.39-.5.7-.56.31-.07.63.02.87.23l10.88,9.67c.32.28.42.74.26,1.14l-6.14,14.51c-.14.32-.43.55-.78.6l-17.02,2.42s-.09,0-.14,0ZM4193.52,1013.1l-10.94,23.71,14.64-2.08,5.64-13.33-9.34-8.3Z" style="fill: #303030;"/>
          </g>
          <path d="M4201.34,1031.54v15.67h-38.6c-3.24,0-3.78-5.84-.87-8.71l24.23-10.3s3.63,9.14,15.24,3.33Z" style="fill: #303030;"/>
          <path d="M4201.34,1041.99v-10.45c-11.61,5.8-15.24-3.33-15.24-3.33l-24.23,10.3c-.96.94-1.54,2.21-1.77,3.49h41.24Z" style="fill: #26a8df;"/>
          <g>
            <polygon points="4236.71 1020 4234.31 1034.51 4218.8 1036.92 4224.18 1010.33 4236.71 1020" style="fill: #fafafa;"/>
            <path d="M4218.8,1037.92c-.27,0-.53-.11-.72-.31-.23-.24-.32-.57-.26-.89l5.38-26.6c.07-.34.31-.62.63-.74.32-.12.69-.07.96.14l12.53,9.67c.29.23.44.59.38.96l-2.41,14.51c-.07.42-.41.76-.83.82l-15.51,2.42c-.05,0-.1.01-.15.01ZM4224.84,1012.1l-4.78,23.62,13.38-2.09,2.19-13.2-10.79-8.33Z" style="fill: #303030;"/>
          </g>
          <path d="M4235.98,1031.54v15.67h-38.6c-3.24,0-3.78-5.84-.87-8.71l24.23-10.3s3.63,9.14,15.24,3.33Z" style="fill: #303030;"/>
          <path d="M4235.98,1041.99v-10.45c-11.61,5.8-15.24-3.33-15.24-3.33l-24.23,10.3c-.96.94-1.53,2.21-1.77,3.49h41.24Z" style="fill: #26a8df;"/>
          <path d="M4313.46,937.01h-87.7c-5.95,0-11.29,3.65-13.45,9.19l-27.12,69.55,19.66,8.02,27.57-63.38s66.47,14.22,76.03,1.54l3.16-4.19c3.93-5.21,4.96-12.05,2.75-18.19l-.92-2.54Z" style="fill: #303030;"/>
          <path d="M4330.28,935.6l-84.9,2.66c-9.12.29-16.6,7.32-17.43,16.41l-8.01,69.32,18.55,2.84,14.57-57.73h61.48c12.05,0,20.84-11.39,17.82-23.05-1.62-6.23-2.73-11.11-2.07-10.45Z" style="fill: #303030;"/>
          <path d="M4232.43,1026.12c-.08,0-.16,0-.24-.03-.54-.13-.87-.67-.74-1.21l16.09-66.81c.11-.45.51-.77.97-.77h53.21c9.56,0,17.33-7.77,17.33-17.33v-3.81c0-.55.45-1,1-1s1,.45,1,1v3.81c0,10.66-8.67,19.33-19.33,19.33h-52.42l-15.9,66.05c-.11.46-.52.77-.97.77Z" style="fill: #fafafa;"/>
          <rect x="4296.76" y="856.53" width="14.94" height="17.57" transform="translate(35.03 1889.56) rotate(-24.86)" style="fill: #26a8df;"/>
          <path d="M4292.23,936.74l-2.07-41.58c.77-5.68,2.33-11.23,4.62-16.48l4.52-10.35s9.04-13.8,23.15,1.63,21.45,76.43,21.45,76.43c0,0-3.41,9.65-16.47,6.25-18.26-4.76-35.2-15.9-35.2-15.9Z" style="fill: #26a8df;"/>
          <g>
            <path d="M4285.94,935.26s.02-.04.03-.06v-1.76h-73.37s.87,1.8.88,1.82l.18.33c.93,1.53,1.61,1.8,2.6,1.8h55.63c11.25,0,12.92-.27,13.85-1.8l.19-.33Z" style="fill: #303030;"/>
            <g>
              <path d="M4257.84,933.57l-19.04-35.81c-.5-.95-1.68-1.71-2.62-1.71h-41.74c-.94,0-1.3.77-.8,1.71l19.04,35.81h45.16Z" style="fill: #303030;"/>
              <path d="M4228.45,916.68c.48,1.83-.61,3.31-2.44,3.31s-3.7-1.48-4.18-3.31c-.48-1.83.61-3.31,2.44-3.31s3.7,1.48,4.18,3.31Z" style="fill: #fafafa;"/>
            </g>
          </g>
          <g>
            <path d="M4332.11,901.93c-3.36-10.27-9.05-22.85-12.44-28.55-3.38-5.7-8.58-6.78-10.74-6.93-2.16-.15-3.88,1.9-5.15,5.09-1.27,3.19-.19,9.48.03,12.74s4.42,17.64,4.42,17.64c0,0,2.96,10.15,5.97,18.38l-27.18.99c-5.08-.97-12.23-2.7-12.92-2.55-.69.14-4.77,2.1-7.79,3.8-1.96,1.1-2.51,4.98-2.84,5.68-.82,1.76-2.23,4.9,4.54,5.49,2.12.18,9.55-.99,9.59-2.04.03-.8,7.21,3.24,11.08,1.84,1.7-.62,3.08-1.75,3.95-3.29l34.03,9.28c4.78,1.3,9.29-.34,10.97-3.07.12-.11.24-.23.34-.37,3.56-4.5-2.25-23.12-5.85-34.12Z" style="fill: #fafafa;"/>
            <path d="M4330.03,940.95c-1.19,0-2.42-.16-3.64-.49l-33.32-9.08c-.98,1.41-2.37,2.46-4.06,3.07-2.84,1.03-6.87-.39-9.53-1.33-.46-.16-.99-.35-1.35-.46-.01.01-.02.02-.04.03-1.47,1.3-8.33,2.18-10.18,2.02-3.06-.26-4.94-1.07-5.74-2.47-.94-1.62-.08-3.46.38-4.44.06-.13.12-.39.21-.71.43-1.63,1.16-4.35,3.05-5.41,2.75-1.55,7.16-3.72,8.08-3.91.57-.12,1.9.14,6.94,1.23,2.02.44,4.31.93,6.26,1.3l25.7-.93c-2.82-7.91-5.49-17.06-5.52-17.15-.17-.59-4.23-14.51-4.46-17.85-.05-.69-.13-1.51-.22-2.41-.37-3.58-.83-8.03.26-10.77,1.96-4.94,4.42-5.83,6.15-5.72,1.75.12,7.73,1.02,11.53,7.42,3.34,5.64,9.08,18.23,12.53,28.75h0c4.84,14.78,9.29,30.5,5.69,35.05-.11.14-.23.27-.35.38-1.59,2.47-4.81,3.89-8.37,3.89ZM4292.62,929.22c.09,0,.18.01.26.04l34.03,9.28c4.58,1.25,8.5-.42,9.86-2.63.05-.08.11-.15.17-.21.09-.08.17-.16.24-.26,3.42-4.32-3.69-26.05-6.02-33.19-3.4-10.39-9.06-22.8-12.35-28.35-3.3-5.57-8.45-6.34-9.95-6.45-1.92-.15-3.31,2.35-4.15,4.46-.91,2.28-.46,6.64-.13,9.82.09.93.18,1.78.23,2.48.17,2.5,2.94,12.49,4.38,17.42.03.1,2.99,10.21,5.95,18.32.11.3.07.64-.11.9-.18.27-.47.43-.79.44l-27.18.99c-.08,0-.15,0-.22-.02-2-.38-4.34-.89-6.42-1.33-2.59-.56-5.51-1.19-6.15-1.21-.7.22-4.41,1.96-7.46,3.68-1.15.65-1.79,3.04-2.1,4.18-.13.49-.22.81-.33,1.04-.35.75-.88,1.88-.46,2.59.25.44,1.13,1.21,4.18,1.48,1.93.17,7.56-.81,8.6-1.47.09-.19.22-.37.38-.48.6-.41,1.28-.17,3.08.46,2.25.79,6.01,2.13,8.18,1.34,1.49-.54,2.67-1.52,3.42-2.84.18-.32.52-.51.87-.51Z" style="fill: #303030;"/>
          </g>
          <path d="M4313.94,921.52c-.54,0-.99-.43-1-.97-.01-.55.42-1.01.97-1.03,4.66-.12,9.32-.26,9.32-.26.56.02,1.01.42,1.03.97.02.55-.42,1.01-.97,1.03,0,0-4.67.14-9.33.26h-.03Z" style="fill: #303030;"/>
          <path d="M4334.04,902.18c-4.01-11.25-9.81-23.84-13.4-29.87-3.98-6.7-10.08-7.98-12.61-8.16-2.53-.18-4.54,2.21-6.02,5.95-1.48,3.74-.19,11.11.07,14.95.2,2.95,3.19,13.6,4.55,18.36.82,0,1.63.01,2.45.01,8.62,0,16.98-.43,24.94-1.25Z" style="fill: #26a8df;"/>
          <g>
            <path d="M4267.53,935.35c-.31,0-.61-.14-.81-.41-.2-.27-.48-.84-.17-1.65.96-2.5,8.24-6.41,9.03-6.57.54-.12,1.07.23,1.18.77.11.52-.21,1.03-.71,1.17-1.22.45-7.07,3.95-7.61,5.27.19.42.07.94-.32,1.22-.18.13-.39.19-.59.19Z" style="fill: #303030;"/>
            <path d="M4264.03,933.2c-.09,0-.19-.01-.29-.04-.53-.16-.83-.72-.67-1.25.27-.9,1.71-5.42,3.65-6.62,2.54-1.56,6.86-2.89,7.05-2.94.53-.16,1.09.14,1.25.67.16.53-.14,1.09-.67,1.25-.04.01-4.26,1.3-6.58,2.73-.87.54-2.1,3.21-2.78,5.49-.13.43-.53.71-.96.71Z" style="fill: #303030;"/>
          </g>
          <path d="M4289.54,907.66c-.05,0-.11,0-.16-.01-.54-.09-.91-.6-.82-1.15l3.84-23.37c.09-.55.6-.92,1.15-.82.54.09.91.6.82,1.15l-3.84,23.37c-.08.49-.5.84-.99.84Z" style="fill: #fafafa;"/>
          <path d="M4277.06,844.11c-.26,0-.51-.1-.71-.29-.39-.39-.39-1.02,0-1.41.09-.09,2.21-2.16,5.62-1.22.53.15.84.7.7,1.23-.15.53-.7.84-1.23.7-2.29-.64-3.65.69-3.67.7-.2.2-.45.29-.71.29Z" style="fill: #303030;"/>
        </g>
        <path d="M4224.87,978.73c-.06,0-.12,0-.18-.02-.54-.1-.91-.62-.81-1.16l5.16-28.66c1.36-7.57,7.82-13.06,15.36-13.06h47.7c.55,0,1,.45,1,1s-.45,1-1,1h-47.7c-6.57,0-12.2,4.8-13.39,11.41l-5.16,28.66c-.09.48-.51.82-.98.82Z" style="fill: #fafafa;"/>
        <g>
          <g>
            <polygon points="4451.42 849.65 4471.32 869.57 4446.87 906.93 4434.36 882.52 4451.42 849.65" style="fill: #fafafa;"/>
            <path d="M4446.87,907.93s-.04,0-.05,0c-.36-.02-.67-.23-.84-.54l-12.51-24.41c-.15-.29-.15-.63,0-.92l17.06-32.87c.15-.28.42-.48.74-.53.31-.05.63.06.86.28l19.9,19.92c.33.33.39.86.13,1.25l-24.45,37.36c-.19.28-.5.45-.84.45ZM4435.49,882.52l11.49,22.42,23.06-35.24-18.36-18.38-16.19,31.2Z" style="fill: #303030;"/>
          </g>
          <g>
            <path d="M4365.16,884.93l63.12,1.16s4.41.04,6.11-1.66c3.21-3.21,2.71-8.18,2.71-8.18l3.4-1.39c1.27-.52,2.18-1.65,2.43-2.99l.28-1.49-11.03,2.15-6.64,5.99-63.91-11.85,3.52,18.27Z" style="fill: #fafafa;"/>
            <path d="M4428.34,887.09h-.07l-63.13-1.16c-.55-.01-.99-.47-.98-1.02,0-.55.46-.98,1-.98h.02l63.12,1.16c1.56-.02,4.36-.35,5.38-1.37,2.84-2.84,2.43-7.33,2.43-7.38-.04-.44.21-.86.62-1.03l3.4-1.39c.96-.39,1.64-1.23,1.83-2.25v-.04s-9.31,1.82-9.31,1.82l-6.43,5.8c-.23.21-.55.3-.85.24l-63.91-11.85c-.54-.1-.9-.62-.8-1.17.1-.54.62-.91,1.17-.8l63.43,11.76,6.27-5.66c.13-.12.3-.2.48-.24l11.03-2.15c.33-.06.66.04.9.27.24.23.34.57.28.89l-.28,1.49c-.31,1.69-1.45,3.08-3.04,3.73l-2.75,1.13c.01,1.62-.27,5.47-3.04,8.23-1.87,1.87-6.02,1.95-6.76,1.95Z" style="fill: #303030;"/>
          </g>
          <polygon points="4362.35 867.82 4389.12 871.57 4389.12 893.33 4366.96 893.33 4362.35 867.82" style="fill: #303030;"/>
          <g>
            <g>
              <polygon points="4349.66 876.15 4370.2 880.43 4381.38 864.32 4366.41 853.94 4349.66 876.15" style="fill: #fafafa;"/>
              <path d="M4370.2,881.43c-.07,0-.14,0-.2-.02l-20.54-4.28c-.34-.07-.61-.31-.73-.63-.12-.32-.07-.68.14-.95l16.75-22.21c.32-.43.93-.53,1.37-.22l14.96,10.37c.45.31.57.94.25,1.39l-11.17,16.12c-.19.27-.5.43-.82.43ZM4351.41,875.5l18.35,3.82,10.23-14.75-13.35-9.26-15.22,20.19Z" style="fill: #303030;"/>
            </g>
            <path d="M4385.73,837.55s3.29,10.83,5.69,11.33c2.39.5,8.85.71,9.93-3.57s-.82-3.79-2.63-4.42c-1.81-.64.15-4.76-.93-5.33s-2.54-.53-5.41-.12-6.65,2.12-6.65,2.12Z" style="fill: #303030;"/>
            <g>
              <path d="M4366.2,862.38c-2.76-3.42-4.26-7.92-3.86-12.71.8-9.69,9.05-16.7,18.45-16.14,15.42.92,16.63,14.9,15.94,17.68-.16.65-.32,1.28-.46,1.9-.12,1.06-.34,2.08-.63,3.07-.35,2.21-.3,3.99.62,5.17,1.4,1.81-8.84,15.2-18.66,7.24l-11.39-6.21Z" style="fill: #fafafa;"/>
              <path d="M4384.14,872.08c-2.35,0-4.8-.78-7.17-2.71-.43-.35-.5-.98-.15-1.41.35-.43.98-.5,1.41-.15,4.19,3.4,8.24,2.37,10.91.9,3.94-2.17,6.24-5.9,6.25-6.86-1.2-1.66-1.03-3.99-.74-5.84,0-.04.02-.09.03-.13.28-.93.48-1.91.59-2.9,0-.04.01-.08.02-.11.15-.62.3-1.25.47-1.91.31-1.26.21-6.28-2.9-10.51-2.65-3.62-6.73-5.61-12.12-5.94-9.02-.55-16.64,6.15-17.39,15.23-.36,4.38.93,8.64,3.65,12,.35.43.28,1.06-.15,1.41-.43.35-1.06.28-1.41-.15-3.04-3.76-4.49-8.53-4.08-13.42.84-10.17,9.41-17.67,19.51-17.06,6.01.36,10.59,2.63,13.62,6.75,3.3,4.5,3.73,10.15,3.23,12.18-.16.63-.31,1.24-.45,1.83-.13,1.06-.34,2.11-.64,3.11-.33,2.15-.19,3.53.43,4.34,1.32,1.71-1.51,5.27-3.19,6.91-2.55,2.49-6.01,4.42-9.72,4.42Z" style="fill: #303030;"/>
            </g>
            <path d="M4379.86,829.39c6.27.52,11.54,4.22,14.46,9.44-1.6-.58-3.28-.97-5.03-1.12-11.91-.99-22.47,9.08-23.58,22.48-.06.74-.09,1.48-.09,2.22-3.98-3.84-6.27-9.45-5.77-15.51.87-10.51,9.83-18.35,20.01-17.51Z" style="fill: #303030;"/>
            <path d="M4371.62,837.46l-9.08,18.54-1.26,4.86,4.57,2.48c1.52.82,3.39.56,4.63-.64l6.47-6.31c-.1,0-.19.01-.29,0-2.24-.19-3.91-2.15-3.72-4.4.19-2.24,2.15-3.91,4.4-3.72,2.24.19,3.91,2.15,3.72,4.4,0,.01,0,.02,0,.03.56.14,1.96.35,2.15-.75.24-1.39,2.57-4.07,3.48-6.55.91-2.48-2.03-4,.51-3.85,4.81.28,8.78-3.08,8.78-3.08-7.04-7.97-24.35-1.03-24.35-1.03Z" style="fill: #303030;"/>
            <path d="M4389.62,867.54c-.22,0-.45-.08-.64-.23-1.58-1.31-1.42-3.41-1.42-3.5.04-.55.53-.96,1.08-.92.55.05.96.52.92,1.07,0,.03-.06,1.17.7,1.8.42.35.48.98.13,1.41-.2.24-.48.36-.77.36Z" style="fill: #303030;"/>
            <path d="M4378.58,854.26c-.08,0-.16,0-.23-.03-.54-.13-.87-.66-.74-1.2,0-.04.24-1.15-.42-1.88-.37-.41-.33-1.05.09-1.41.41-.36,1.04-.33,1.41.09,1.36,1.54.89,3.58.87,3.67-.11.46-.52.77-.97.77Z" style="fill: #303030;"/>
            <path d="M4390.71,852.2c-.15,0-.29-.03-.43-.1-.5-.24-.7-.84-.46-1.34.44-.92,1.65-1.66,2.99-1.84,1.41-.2,2.74.28,3.63,1.3.36.41.32,1.05-.09,1.41-.42.36-1.05.32-1.41-.09-.57-.66-1.33-.71-1.85-.64-.79.11-1.36.53-1.46.73-.17.36-.53.56-.9.56Z" style="fill: #303030;"/>
            <path d="M4392.29,855.6c.02.53.34.94.72.93.38-.01.67-.45.66-.98-.02-.53-.34-.94-.72-.93-.38.01-.67.45-.66.98Z" style="fill: #303030;"/>
            <path d="M4379.34,868.99l-3.58,5.16c-1.58-2.41-2.41-5.34-2.15-8.44.1-1.24.37-2.42.78-3.53.87,2.75,2.62,5.14,4.94,6.81Z" style="fill: #303030;"/>
          </g>
          <path d="M4440.38,1033.76c-.5,0-.93-.37-.99-.88l-2.25-18.59c-.07-.55.33-1.05.87-1.11.55-.06,1.05.33,1.11.87l2.25,18.59c.07.55-.33,1.05-.87,1.11-.04,0-.08,0-.12,0Z" style="fill: #303030;"/>
          <path d="M4425.17,1027.19c-.47,0-.89-.34-.98-.82l-1.61-8.63c-.1-.54.26-1.07.8-1.17.55-.09,1.07.26,1.17.8l1.61,8.63c.1.54-.26,1.07-.8,1.17-.06.01-.12.02-.18.02Z" style="fill: #303030;"/>
          <g>
            <path d="M4360.95,956.3l64.04-66.53,5.97.58c3.58.35,6.62,2.76,7.78,6.16l20.74,46.89-14.41,4.91-13.41-25.56-26.36,38.75-44.34-5.19Z" style="fill: #fafafa;"/>
            <path d="M4405.29,962.5s-.08,0-.12,0l-44.34-5.19c-.38-.04-.7-.3-.83-.66-.13-.36-.04-.76.22-1.03l64.04-66.53c.21-.22.51-.33.82-.3l5.97.58c3.96.39,7.34,3.07,8.63,6.83l20.71,46.8c.11.26.11.55,0,.81-.11.26-.33.46-.59.54l-14.41,4.91c-.47.16-.98-.04-1.21-.48l-12.63-24.09-25.43,37.37c-.19.28-.5.44-.83.44ZM4363.07,955.55l41.74,4.89,26.02-38.25c.2-.29.51-.45.88-.44.35.02.67.22.83.53l13.01,24.81,12.57-4.28-20.3-45.89c-1.07-3.1-3.79-5.26-6.97-5.57l-5.49-.54-62.3,64.73Z" style="fill: #303030;"/>
          </g>
          <g>
            <path d="M4366.05,936.78l47.32,2.29c7.04.41,12.93,5.46,14.42,12.35l14.31,61.81-22.19,3.95-21.99-47.36h-25.85c-5.25,0-10.06-2.93-12.48-7.59l-4.1-9.18c-3.98-7.69,1.92-16.79,10.56-16.28Z" style="fill: #fafafa;"/>
            <path d="M4419.91,1018.19c-.38,0-.74-.22-.91-.58l-21.72-46.79h-25.21c-5.65,0-10.77-3.11-13.36-8.13l-4.13-9.23c-2.01-3.88-1.79-8.45.62-12.17,2.41-3.71,6.48-5.77,10.91-5.52l47.31,2.29c7.47.44,13.77,5.84,15.35,13.14l14.31,61.8c.06.27.01.55-.14.78-.15.23-.39.39-.66.43l-22.19,3.95c-.06.01-.12.02-.17.02ZM4365.37,937.76c-3.46,0-6.6,1.7-8.5,4.63-2.01,3.11-2.2,6.92-.5,10.21l4.13,9.23c2.23,4.29,6.67,6.99,11.56,6.99h25.85c.39,0,.74.23.91.58l21.67,46.67,20.39-3.63-14.08-60.79c-1.39-6.44-6.94-11.2-13.5-11.58l-47.31-2.29s0,0,0,0c-.21-.01-.41-.02-.62-.02Z" style="fill: #303030;"/>
          </g>
          <path d="M4449.64,955.86c-.32,0-.63-.15-.82-.43l-4.75-6.85c-.32-.45-.2-1.08.25-1.39.45-.32,1.08-.2,1.39.25l4.75,6.85c.32.45.2,1.08-.25,1.39-.17.12-.37.18-.57.18Z" style="fill: #303030;"/>
          <path d="M4462.71,952.4c-.4,0-.77-.24-.93-.62l-3.23-8c-.21-.51.04-1.1.55-1.3.51-.21,1.09.04,1.3.55l3.23,8c.21.51-.04,1.1-.55,1.3-.12.05-.25.07-.38.07Z" style="fill: #303030;"/>
          <polygon points="4451.25 867.08 4473.6 868.67 4447.62 908.35 4419.23 919.46 4451.25 867.08" style="fill: #26a8df;"/>
          <g>
            <path d="M4447.81,952.62v15.42h36.35c3.05,0,3.56-5.75.82-8.57l-22.82-10.14s-3.42,8.99-14.35,3.28Z" style="fill: #fafafa;"/>
            <path d="M4447.81,953.02v11.02h36.35c3.05,0,3.56-3.29.82-5.3l-22.55-9.41s-3.68,7.77-14.61,3.69Z" style="fill: #303030;"/>
            <path d="M4484.15,969.04h-36.35c-.55,0-1-.45-1-1v-15.42c0-.35.18-.67.48-.86.3-.18.67-.19.98-.03,3.42,1.79,6.37,2.24,8.77,1.34,3-1.13,4.17-4.06,4.18-4.09.1-.25.3-.46.55-.56.25-.1.54-.1.79,0l22.82,10.14c.12.05.22.13.31.22,2.17,2.23,2.51,5.82,1.59,7.99-.61,1.45-1.75,2.27-3.13,2.27ZM4448.81,967.04h35.35c.56,0,.99-.35,1.29-1.05.64-1.5.35-4.1-1.06-5.68l-21.75-9.66c-.69,1.21-2.18,3.27-4.85,4.29-2.59.99-5.6.74-8.97-.72v12.83Z" style="fill: #303030;"/>
          </g>
          <g>
            <path d="M4424.46,1026.46l-5.3,14.48,34.13,12.49c2.87,1.05,5.32-4.17,3.72-7.76l-17.94-17.36s-6.3,7.27-14.6-1.85Z" style="fill: #fafafa;"/>
            <path d="M4424.32,1026.84l-3.79,10.34,34.13,12.49c2.87,1.05,4.47-1.86,2.59-4.7l-17.95-16.59s-6.13,6.03-14.99-1.56Z" style="fill: #303030;"/>
            <path d="M4454.04,1054.57c-.36,0-.73-.07-1.09-.2l-34.13-12.49c-.25-.09-.45-.28-.56-.52-.11-.24-.12-.52-.03-.76l5.3-14.48c.12-.33.4-.57.75-.64.34-.07.7.05.93.31,2.6,2.85,5.25,4.26,7.78,4.27,3.2-.03,5.31-2.38,5.33-2.4.18-.21.44-.33.71-.34.26-.01.54.09.74.28l17.94,17.36c.09.09.17.19.22.31,1.27,2.84.36,6.32-1.25,8.05-.77.83-1.69,1.26-2.63,1.26ZM4420.44,1040.35l33.19,12.15c.53.2,1.05,0,1.57-.55,1.11-1.19,1.74-3.73.96-5.7l-17.1-16.55c-1.06.9-3.17,2.32-6.03,2.36-2.8,0-5.52-1.23-8.17-3.76l-4.41,12.05Z" style="fill: #303030;"/>
          </g>
          <path d="M4352.96,953.91l36.35-16.38-13.58-45.94-24.02-19.51-3.5,2.66c-10.74,8.15-15.02,22.28-10.59,35.01l15.35,44.16Z" style="fill: #303030;"/>
          <path d="M4397.92,970.82c-.36,0-.7-.19-.88-.53l-3.81-7.13c-.26-.49-.08-1.09.41-1.35.49-.26,1.09-.08,1.35.41l3.81,7.13c.26.49.08,1.09-.41,1.35-.15.08-.31.12-.47.12Z" style="fill: #303030;"/>
          <g>
            <path d="M4440.27,898.46l-62.33-1.14-3.52-18.27,63.91,11.85,6.64-5.99,5.78-2.51c1.08-.47,2.28.32,2.28,1.5h0c0,.45-.19.88-.52,1.19l-2.48,2.32c-.91.85-.09,2.36,1.12,2.06l9.07-2.57c1.5,1.3.6,2.6-1.1,3.2l-3.3,6.49-4.61,2.42c-2.16,1.14-4.69,1.37-7.03.66l-3.91-1.2Z" style="fill: #fafafa;"/>
            <path d="M4446.91,901.07c-1.01,0-2.03-.15-3.02-.46l-3.78-1.16-62.19-1.14c-.47,0-.87-.35-.96-.81l-3.52-18.27c-.06-.33.04-.66.27-.89.23-.23.57-.34.89-.28l63.43,11.76,6.27-5.66c.08-.07.17-.13.27-.17l5.78-2.51c.82-.35,1.75-.28,2.49.21.74.49,1.19,1.31,1.19,2.2,0,.73-.3,1.43-.83,1.92l-2.48,2.32s-.12.11-.04.25c.08.14.19.11.23.1l9.04-2.56c.33-.09.67-.01.93.21,1.15,1,1.16,2,1.07,2.51-.18.92-.93,1.72-2.1,2.23l-3.12,6.15c-.09.18-.24.34-.43.43l-4.61,2.42c-1.49.78-3.12,1.18-4.76,1.18ZM4378.77,896.33l61.52,1.13c.09,0,.19.02.27.04l3.91,1.2c2.1.64,4.33.44,6.27-.59l4.33-2.27,3.15-6.21c.12-.23.32-.4.56-.49.81-.28,1.15-.67,1.19-.87.01-.07-.01-.16-.08-.26l-8.47,2.4c-1.02.25-2.01-.18-2.5-1.08-.49-.9-.32-1.97.43-2.67l2.48-2.33c.13-.12.2-.29.2-.46,0-.31-.2-.47-.29-.53-.09-.06-.32-.17-.6-.05l-5.63,2.45-6.51,5.88c-.23.21-.55.3-.85.24l-62.47-11.59,3.09,16.04Z" style="fill: #303030;"/>
          </g>
          <g>
            <path d="M4452.4,892.46l6.82-2.4-6.82,2.4Z" style="fill: #fafafa;"/>
            <path d="M4452.4,893.46c-.41,0-.8-.26-.94-.67-.18-.52.09-1.09.61-1.28l6.82-2.4c.52-.18,1.09.09,1.28.61.18.52-.09,1.09-.61,1.28l-6.82,2.4c-.11.04-.22.06-.33.06Z" style="fill: #303030;"/>
          </g>
          <g>
            <path d="M4452.25,895.46l4.72-1.72-4.72,1.72Z" style="fill: #fafafa;"/>
            <path d="M4452.25,896.46c-.41,0-.79-.25-.94-.66-.19-.52.08-1.09.6-1.28l4.72-1.72c.52-.19,1.09.08,1.28.6.19.52-.08,1.09-.6,1.28l-4.72,1.72c-.11.04-.23.06-.34.06Z" style="fill: #303030;"/>
          </g>
          <polygon points="4351.71 872.08 4391.31 880.8 4391.31 902.38 4370.54 900.78 4351.71 872.08" style="fill: #303030;"/>
          <path d="M4378.52,902.98h-.02l-17.58-.4c-.55-.01-.99-.47-.98-1.02.01-.55.46-.98,1-.98h.02l17.58.4c.55.01.99.47.98,1.02-.01.54-.46.98-1,.98Z" style="fill: #fafafa;"/>
        </g>
      </g>
    </g>
  </g>
</svg>