<?xml version="1.0" encoding="UTF-8"?>
<svg id="Layer_1" xmlns="http://www.w3.org/2000/svg" version="1.1" viewBox="0 0 327.8 241.5">
  <!-- Generator: Adobe Illustrator 29.2.0, SVG Export Plug-In . SVG Version: 2.1.0 Build 108)  -->
  <defs>
    <style>
      .st0 {
        fill: #303030;
      }

      .st1 {
        fill: #26a8df;
      }

      .st2 {
        fill: #fafafa;
      }
    </style>
  </defs>
  <g id="Layer_2">
    <g id="_Layer_">
      <g>
        <g>
          <path class="st1" d="M120.4,198.5h127v32.5h-127c-9,0-16.2-7.3-16.2-16.2h0c0-9,7.3-16.2,16.2-16.2h0Z"/>
          <path class="st0" d="M128.2,232c-9.5,0-17.2-7.7-17.2-17.2s7.7-17.2,17.2-17.2,1,.5,1,1-.5,1-1,1c-8.4,0-15.2,6.8-15.2,15.2s6.8,15.2,15.2,15.2,1,.4,1,1-.5,1-1,1Z"/>
          <path class="st0" d="M150.2,232c-9.5,0-17.2-7.7-17.2-17.2s7.7-17.2,17.2-17.2,1,.5,1,1-.5,1-1,1c-8.4,0-15.2,6.8-15.2,15.2s6.8,15.2,15.2,15.2,1,.4,1,1-.5,1-1,1Z"/>
          <g>
            <path class="st2" d="M166.9,198.5h80.5v32.5h-80.5c-9,0-16.2-7.3-16.2-16.2h0c0-9,7.3-16.2,16.2-16.2h0Z"/>
            <path class="st0" d="M247.4,232h-80.5c-9.5,0-17.2-7.7-17.2-17.2s7.7-17.2,17.2-17.2h80.5c.5,0,1,.5,1,1v32.5c0,.6-.5,1-1,1h0ZM166.9,199.5c-8.4,0-15.2,6.8-15.2,15.2s6.8,15.2,15.2,15.2h79.5v-30.5h-79.5Z"/>
          </g>
          <path class="st0" d="M246.5,208.2h-74.8c-.5,0-1-.5-1-1s.5-1,1-1h74.8c.5,0,1,.5,1,1s-.5,1-1,1Z"/>
          <path class="st0" d="M245.7,214.4h-54.6c-.5,0-1-.4-1-1s.5-1,1-1h54.6c.5,0,1,.4,1,1s-.5,1-1,1Z"/>
        </g>
        <g>
          <g>
            <path class="st0" d="M230.7,198.5h-125.7v-19.3h125.7c5.3,0,9.7,4.3,9.7,9.7h0c0,5.3-4.3,9.7-9.7,9.7h0Z"/>
            <path class="st0" d="M230.7,199.5h-125.7c-.5,0-1-.5-1-1v-19.3c0-.5.5-1,1-1h125.7c5.9,0,10.7,4.8,10.7,10.7s-4.8,10.7-10.7,10.7h0ZM106,197.5h124.7c4.8,0,8.7-3.9,8.7-8.7s-3.9-8.7-8.7-8.7h-124.7v17.3h0Z"/>
          </g>
          <g>
            <path class="st2" d="M154.5,198.5h-49.6v-19.3h49.6c5.3,0,9.7,4.3,9.7,9.7h0c0,5.3-4.3,9.7-9.7,9.7h0Z"/>
            <path class="st0" d="M154.5,199.5h-49.6c-.5,0-1-.5-1-1v-19.3c0-.5.5-1,1-1h49.6c5.9,0,10.7,4.8,10.7,10.7s-4.8,10.7-10.7,10.7h0ZM106,197.5h48.6c4.8,0,8.7-3.9,8.7-8.7s-3.9-8.7-8.7-8.7h-48.6v17.3h0Z"/>
          </g>
          <path class="st0" d="M151.6,185.4h-46.2c-.5,0-1-.5-1-1s.5-1,1-1h46.2c.5,0,1,.5,1,1s-.5,1-1,1Z"/>
          <path class="st0" d="M126.9,190.8h-21c-.5,0-1-.5-1-1s.5-1,1-1h21c.5,0,1,.5,1,1s-.5,1-1,1Z"/>
        </g>
        <g>
          <g>
            <path class="st2" d="M102.3,178.3h132.9c5.8,0,10.4-4.7,10.4-10.4h0c0-5.8-4.7-10.4-10.4-10.4H102.3v20.8h0Z"/>
            <path class="st0" d="M235.3,179.3H102.3c-.5,0-1-.5-1-1v-20.8c0-.5.5-1,1-1h132.9c6.3,0,11.4,5.1,11.4,11.4s-5.1,11.4-11.4,11.4h0ZM103.3,177.3h131.9c5.2,0,9.4-4.2,9.4-9.4s-4.2-9.4-9.4-9.4H103.3v18.8h0Z"/>
          </g>
          <g>
            <path class="st2" d="M102.3,178.3h53.4c5.8,0,10.4-4.7,10.4-10.4h0c0-5.8-4.7-10.4-10.4-10.4h-53.4v20.8h0Z"/>
            <path class="st0" d="M155.7,179.3h-53.4c-.5,0-1-.5-1-1v-20.8c0-.5.5-1,1-1h53.4c6.3,0,11.4,5.1,11.4,11.4s-5.1,11.4-11.4,11.4h0ZM103.3,177.3h52.4c5.2,0,9.4-4.2,9.4-9.4s-4.2-9.4-9.4-9.4h-52.4v18.8h0Z"/>
          </g>
          <path class="st0" d="M152.6,164.1h-49.8c-.5,0-1-.5-1-1s.5-1,1-1h49.8c.5,0,1,.5,1,1s-.5,1-1,1Z"/>
        </g>
        <path class="st0" d="M236,167.9h-61.6c-.5,0-1-.5-1-1s.5-1,1-1h61.6c.5,0,1,.5,1,1s-.5,1-1,1Z"/>
        <polygon class="st1" points="139.2 193.7 139.2 170.4 147.4 170.4 155.5 170.4 155.5 193.7 147.4 189 139.2 193.7"/>
        <g>
          <path class="st0" d="M131.2,39.4s-22.6-5-23.1-14.9c-.5-9.9,20.2-21.7,25.5-23.4,5.3-1.7,14.8-2.8,20.6,8,5.9,10.8,11.6,19.3,19.5,22.1,13,4.6,1.5,32.4-9.4,20.4-9.7-10.5-21.2-2.3-21.2-2.3,0,0,0-9.2-11.9-9.8h0Z"/>
          <circle class="st0" cx="162.4" cy="44.5" r="23.3" transform="translate(87.8 195.4) rotate(-79)"/>
          <path class="st0" d="M176.1,22.5c1.1,7.3-3.9,14.2-11.2,15.3-7.3,1.2-14.2-3.9-15.3-11.2s3.9-14.2,11.2-15.3c7.3-1.2,14.2,3.9,15.3,11.2Z"/>
          <g>
            <path class="st2" d="M134.5,43.2l1.9,4.1,4.8-2.8s-1.9-8.8,1.4-12.7c3.7-4.4,2.5-8.5.2-10.7-3-2.9-6.9-.3-6.7,5,0,2,1,4.4,1,4.4,0,0-9.7,7.5-20.4-8.3,0,0-3.5-1.5-3.8,4-.1,2.4.3,8.1-.4,11.6-.2,1.2.7,2.4,1.9,2.5.9,0,1.6.2,1.7.5.9,3.4,1.5,6,1.5,6,0,0,.6,10.6,19.5-5.7l-2.6,2.4h0Z"/>
            <path class="st0" d="M121.3,50.9c-.8,0-1.4-.1-2-.4-2.2-1-2.6-3.3-2.7-3.8-.1-.4-.7-2.6-1.4-5.5-.2,0-.5,0-.9-.1-.9,0-1.7-.5-2.2-1.2s-.8-1.6-.6-2.5c.4-2.2.4-5.5.3-8.2,0-1.3,0-2.5,0-3.3.1-2.3.8-3.9,2.1-4.7,1.5-.9,3-.3,3.2-.2.2,0,.3.2.4.4,3.8,5.6,7.9,8.8,12,9.5,3,.5,5.3-.5,6.3-1-.3-.9-.7-2.5-.8-3.9,0-3.3,1.2-5.9,3.4-6.9,1.7-.7,3.5-.3,5,1.1,2.5,2.4,4,7-.2,12.1-2.9,3.5-1.2,11.8-1.1,11.9,0,.4-.1.8-.5,1.1l-4.8,2.8c-.2.1-.5.2-.8,0-.3,0-.5-.3-.6-.5l-1.5-3.1c-5.4,4.2-9.6,6.3-12.7,6.3h0ZM115.6,22.8c-.2,0-.5,0-.7.2-.6.4-1,1.5-1.1,3.1,0,.7,0,1.9,0,3.2,0,2.7,0,6.1-.4,8.5,0,.3,0,.6.2.9s.5.4.8.4c1.2,0,2.4.3,2.6,1.2.9,3.4,1.5,5.9,1.5,5.9,0,0,0,.1,0,.2s.1,1.7,1.5,2.2c1.6.7,5.8.4,16.3-8.6.4-.4,1-.3,1.4,0,.4.4.3,1-.1,1.4-.7.6-1.4,1.2-2.1,1.8l1.2,2.5,3.2-1.9c-.4-2.3-1.3-9.3,1.7-12.9,3.3-4,2.3-7.4.3-9.3-.9-.9-1.9-1.1-2.8-.7-1.4.6-2.3,2.6-2.2,5,0,1.8.9,4,.9,4.1.1.4,0,.9-.3,1.1-.1.1-3.5,2.6-8.4,1.8-4.7-.8-9.1-4.2-13.2-10.1-.1,0-.2,0-.4,0h0Z"/>
          </g>
          <path class="st0" d="M121.4,43.8c-.5,0-1-.4-1-1,0-.5.4-1,1-1,1,0,1.9-.9,2-1.8,0-.5.6-.9,1.1-.9.5,0,.9.6.9,1.1-.2,1.9-1.9,3.5-3.9,3.5h0Z"/>
          <path class="st0" d="M119.5,33.8c.4.7,1.2,1.1,1.7.8s.6-1.1.2-1.9-1.2-1.1-1.7-.8-.6,1.1-.2,1.9Z"/>
          <g>
            <path class="st2" d="M148,74.6c.6-5.3-2.6-9.1-4-10.6s-3.8-1.4-6.3-.4c-2.6,1-5.1,5.1-6.6,7-1.5,1.9-6.1,12.5-6.1,12.5,0,0-5.9,17.3-7.6,26l-32.1,7.7,5.4,4.9,45.7,3.1c7.5.5,13.1-5.5,9.1-10l-7-7.9c1.3-3,2.5-6.1,3.5-8.7,3-7.8,5.5-18.2,6.1-23.5h0Z"/>
            <path class="st0" d="M137.1,125.7c-.3,0-.6,0-.9,0l-45.7-3.1c-.2,0-.4,0-.6-.2l-5.4-4.9c-.3-.2-.4-.6-.3-1,0-.4.4-.6.7-.7l31.5-7.5c1.9-8.8,7.3-24.8,7.5-25.5.5-1.2,4.6-10.8,6.2-12.8.3-.4.7-.9,1.1-1.5,1.6-2.2,3.7-5,6-5.9,4-1.5,6.2-.5,7.4.7,1.2,1.2,5,5.4,4.3,11.4-.6,5.2-3.1,15.8-6.1,23.8-.9,2.3-2,5.2-3.3,8.2l6.6,7.5c1.7,1.9,2,4.2.9,6.4-1.6,3.2-5.6,5.2-10,5.2h0ZM91,120.6l45.4,3.1c4.4.3,7.9-1.8,9-4.1.5-1,.8-2.6-.6-4.2l-7-7.9c-.3-.3-.3-.7-.2-1.1,1.4-3.1,2.6-6.2,3.5-8.7,3-7.8,5.5-18.2,6-23.3.5-5.1-2.7-8.7-3.7-9.7-1.3-1.3-3.6-.8-5.3-.2-1.7.7-3.7,3.3-5.1,5.2-.4.6-.8,1.1-1.1,1.5-1.2,1.5-4.7,9.3-5.9,12.2,0,0-5.8,17.3-7.5,25.8,0,.4-.4.7-.8.8l-30.3,7.2,3.7,3.3h0Z"/>
          </g>
          <path class="st1" d="M144.6,101.9c3.1-11.5,5.5-25.1,6-32,.5-7.7-3.6-12.1-5.6-13.6-1.9-1.5-4.9-.6-8.2,1.7s-6.4,9.1-8.3,12.4c-1.5,2.5-5,13-6.6,17.7.6.5,1.3.9,2,1.3,6.9,4.7,13.9,8.9,20.8,12.5h0Z"/>
          <g>
            <polygon class="st2" points="44.1 208.1 38 222.6 20.9 225 33.2 198.4 44.1 208.1"/>
            <path class="st0" d="M20.9,226c-.3,0-.6-.2-.8-.4-.2-.3-.3-.7-.1-1l12.3-26.6c.1-.3.4-.5.7-.6.3,0,.6,0,.9.2l10.9,9.7c.3.3.4.7.3,1.1l-6.1,14.5c-.1.3-.4.6-.8.6l-17,2.4h-.1ZM33.6,200.1l-10.9,23.7,14.6-2.1,5.6-13.3-9.3-8.3h0Z"/>
          </g>
          <path class="st0" d="M41.4,218.5v15.7H2.8c-3.2,0-3.8-5.8-.9-8.7l24.2-10.3s3.6,9.1,15.2,3.3h0Z"/>
          <path class="st1" d="M41.4,228.9v-10.4c-11.6,5.8-15.2-3.3-15.2-3.3l-24.2,10.3c-1,.9-1.5,2.2-1.8,3.5h41.2Z"/>
          <g>
            <polygon class="st2" points="76.7 207 74.3 221.5 58.8 223.9 64.2 197.3 76.7 207"/>
            <path class="st0" d="M58.8,224.9c-.3,0-.5-.1-.7-.3-.2-.2-.3-.6-.3-.9l5.4-26.6c0-.3.3-.6.6-.7s.7,0,1,.1l12.5,9.7c.3.2.4.6.4,1l-2.4,14.5c0,.4-.4.8-.8.8l-15.5,2.4s-.1,0-.1,0h0ZM64.9,199.1l-4.8,23.6,13.4-2.1,2.2-13.2-10.8-8.3Z"/>
          </g>
          <path class="st0" d="M76,218.5v15.7h-38.6c-3.2,0-3.8-5.8-.9-8.7l24.2-10.3s3.6,9.1,15.2,3.3h0Z"/>
          <path class="st1" d="M76,228.9v-10.4c-11.6,5.8-15.2-3.3-15.2-3.3l-24.2,10.3c-1,.9-1.5,2.2-1.8,3.5h41.2Z"/>
          <path class="st0" d="M153.5,124h-87.7c-6,0-11.3,3.7-13.5,9.2l-27.1,69.5,19.7,8,27.6-63.4s66.5,14.2,76,1.5l3.2-4.2c3.9-5.2,5-12,2.8-18.2l-.9-2.5h0Z"/>
          <path class="st0" d="M170.3,122.6l-84.9,2.7c-9.1.3-16.6,7.3-17.4,16.4l-8,69.3,18.5,2.8,14.6-57.7h61.5c12,0,20.8-11.4,17.8-23-1.6-6.2-2.7-11.1-2.1-10.5h0Z"/>
          <path class="st2" d="M72.5,213.1c0,0-.2,0-.2,0-.5-.1-.9-.7-.7-1.2l16.1-66.8c.1-.5.5-.8,1-.8h53.2c9.6,0,17.3-7.8,17.3-17.3v-3.8c0-.5.5-1,1-1s1,.5,1,1v3.8c0,10.7-8.7,19.3-19.3,19.3h-52.4l-15.9,66c-.1.5-.5.8-1,.8h0Z"/>
          <rect class="st1" x="136.8" y="43.4" width="14.9" height="17.6" transform="translate(-8.6 65.5) rotate(-24.9)"/>
          <path class="st1" d="M132.3,123.7l-2.1-41.6c.8-5.7,2.3-11.2,4.6-16.5l4.5-10.3s9-13.8,23.1,1.6,21.5,76.4,21.5,76.4c0,0-3.4,9.7-16.5,6.2-18.3-4.8-35.2-15.9-35.2-15.9Z"/>
          <g>
            <path class="st0" d="M126,122.2s0,0,0,0v-1.8H52.6s.9,1.8.9,1.8l.2.3c.9,1.5,1.6,1.8,2.6,1.8h55.6c11.2,0,12.9-.3,13.9-1.8l.2-.3h0Z"/>
            <g>
              <path class="st0" d="M97.9,120.5l-19-35.8c-.5-1-1.7-1.7-2.6-1.7h-41.7c-.9,0-1.3.8-.8,1.7l19,35.8h45.2Z"/>
              <path class="st2" d="M68.5,103.6c.5,1.8-.6,3.3-2.4,3.3s-3.7-1.5-4.2-3.3.6-3.3,2.4-3.3,3.7,1.5,4.2,3.3Z"/>
            </g>
          </g>
          <g>
            <path class="st2" d="M172.1,88.9c-3.4-10.3-9-22.8-12.4-28.5-3.4-5.7-8.6-6.8-10.7-6.9-2.2-.2-3.9,1.9-5.1,5.1s-.2,9.5,0,12.7,4.4,17.6,4.4,17.6c0,0,3,10.2,6,18.4l-27.2,1c-5.1-1-12.2-2.7-12.9-2.5-.7.1-4.8,2.1-7.8,3.8-2,1.1-2.5,5-2.8,5.7-.8,1.8-2.2,4.9,4.5,5.5,2.1.2,9.5-1,9.6-2,0-.8,7.2,3.2,11.1,1.8,1.7-.6,3.1-1.8,4-3.3l34,9.3c4.8,1.3,9.3-.3,11-3.1.1-.1.2-.2.3-.4,3.6-4.5-2.2-23.1-5.9-34.1h0Z"/>
            <path class="st0" d="M170.1,127.9c-1.2,0-2.4-.2-3.6-.5l-33.3-9.1c-1,1.4-2.4,2.5-4.1,3.1-2.8,1-6.9-.4-9.5-1.3-.5-.2-1-.3-1.4-.5,0,0,0,0,0,0-1.5,1.3-8.3,2.2-10.2,2-3.1-.3-4.9-1.1-5.7-2.5-.9-1.6,0-3.5.4-4.4,0-.1.1-.4.2-.7.4-1.6,1.2-4.3,3-5.4,2.8-1.5,7.2-3.7,8.1-3.9.6-.1,1.9.1,6.9,1.2,2,.4,4.3.9,6.3,1.3l25.7-.9c-2.8-7.9-5.5-17.1-5.5-17.2-.2-.6-4.2-14.5-4.5-17.8,0-.7-.1-1.5-.2-2.4-.4-3.6-.8-8,.3-10.8,2-4.9,4.4-5.8,6.1-5.7,1.8.1,7.7,1,11.5,7.4,3.3,5.6,9.1,18.2,12.5,28.8h0c4.8,14.8,9.3,30.5,5.7,35-.1.1-.2.3-.4.4-1.6,2.5-4.8,3.9-8.4,3.9h0ZM132.7,116.2c0,0,.2,0,.3,0l34,9.3c4.6,1.2,8.5-.4,9.9-2.6,0,0,.1-.2.2-.2,0,0,.2-.2.2-.3,3.4-4.3-3.7-26-6-33.2-3.4-10.4-9.1-22.8-12.4-28.3-3.3-5.6-8.5-6.3-10-6.5-1.9-.2-3.3,2.3-4.1,4.5-.9,2.3-.5,6.6-.1,9.8,0,.9.2,1.8.2,2.5.2,2.5,2.9,12.5,4.4,17.4,0,0,3,10.2,6,18.3.1.3,0,.6-.1.9-.2.3-.5.4-.8.4l-27.2,1c0,0-.1,0-.2,0-2-.4-4.3-.9-6.4-1.3-2.6-.6-5.5-1.2-6.1-1.2-.7.2-4.4,2-7.5,3.7-1.1.7-1.8,3-2.1,4.2-.1.5-.2.8-.3,1-.4.8-.9,1.9-.5,2.6.2.4,1.1,1.2,4.2,1.5,1.9.2,7.6-.8,8.6-1.5,0-.2.2-.4.4-.5.6-.4,1.3-.2,3.1.5,2.2.8,6,2.1,8.2,1.3,1.5-.5,2.7-1.5,3.4-2.8.2-.3.5-.5.9-.5h0Z"/>
          </g>
          <path class="st0" d="M154,108.5c-.5,0-1-.4-1-1,0-.5.4-1,1-1,4.7-.1,9.3-.3,9.3-.3.6,0,1,.4,1,1s-.4,1-1,1c0,0-4.7.1-9.3.3h0,0Z"/>
          <path class="st1" d="M174.1,89.1c-4-11.2-9.8-23.8-13.4-29.9-4-6.7-10.1-8-12.6-8.2s-4.5,2.2-6,6-.2,11.1,0,15c.2,3,3.2,13.6,4.5,18.4.8,0,1.6,0,2.5,0,8.6,0,17-.4,24.9-1.2h0Z"/>
          <g>
            <path class="st0" d="M107.6,122.3c-.3,0-.6-.1-.8-.4-.2-.3-.5-.8-.2-1.7,1-2.5,8.2-6.4,9-6.6.5-.1,1.1.2,1.2.8.1.5-.2,1-.7,1.2-1.2.5-7.1,4-7.6,5.3.2.4,0,.9-.3,1.2-.2.1-.4.2-.6.2h0Z"/>
            <path class="st0" d="M104.1,120.2c0,0-.2,0-.3,0-.5-.2-.8-.7-.7-1.2.3-.9,1.7-5.4,3.6-6.6,2.5-1.6,6.9-2.9,7-2.9.5-.2,1.1.1,1.2.7.2.5-.1,1.1-.7,1.2,0,0-4.3,1.3-6.6,2.7-.9.5-2.1,3.2-2.8,5.5-.1.4-.5.7-1,.7Z"/>
          </g>
          <path class="st2" d="M129.6,94.6s-.1,0-.2,0c-.5,0-.9-.6-.8-1.2l3.8-23.4c0-.5.6-.9,1.1-.8.5,0,.9.6.8,1.2l-3.8,23.4c0,.5-.5.8-1,.8h0Z"/>
          <path class="st0" d="M117.1,31.1c-.3,0-.5,0-.7-.3-.4-.4-.4-1,0-1.4,0,0,2.2-2.2,5.6-1.2.5.2.8.7.7,1.2-.1.5-.7.8-1.2.7-2.3-.6-3.6.7-3.7.7-.2.2-.5.3-.7.3h0Z"/>
        </g>
        <path class="st2" d="M64.9,165.7c0,0-.1,0-.2,0-.5,0-.9-.6-.8-1.2l5.2-28.7c1.4-7.6,7.8-13.1,15.4-13.1h47.7c.5,0,1,.5,1,1s-.5,1-1,1h-47.7c-6.6,0-12.2,4.8-13.4,11.4l-5.2,28.7c0,.5-.5.8-1,.8h0Z"/>
        <g>
          <g>
            <polygon class="st2" points="291.5 36.6 311.4 56.5 286.9 93.9 274.4 69.5 291.5 36.6"/>
            <path class="st0" d="M286.9,94.9h0c-.4,0-.7-.2-.8-.5l-12.5-24.4c-.1-.3-.1-.6,0-.9l17.1-32.9c.1-.3.4-.5.7-.5.3,0,.6,0,.9.3l19.9,19.9c.3.3.4.9.1,1.2l-24.5,37.4c-.2.3-.5.5-.8.5h0ZM275.5,69.5l11.5,22.4,23.1-35.2-18.4-18.4-16.2,31.2h0Z"/>
          </g>
          <g>
            <path class="st2" d="M205.2,71.9l63.1,1.2s4.4,0,6.1-1.7c3.2-3.2,2.7-8.2,2.7-8.2l3.4-1.4c1.3-.5,2.2-1.7,2.4-3l.3-1.5-11,2.2-6.6,6-63.9-11.8,3.5,18.3h0Z"/>
            <path class="st0" d="M268.4,74h0l-63.1-1.2c-.5,0-1-.5-1-1,0-.5.5-1,1-1h0l63.1,1.2c1.6,0,4.4-.3,5.4-1.4,2.8-2.8,2.4-7.3,2.4-7.4,0-.4.2-.9.6-1l3.4-1.4c1-.4,1.6-1.2,1.8-2.2h0s-9.3,1.8-9.3,1.8l-6.4,5.8c-.2.2-.5.3-.9.2l-63.9-11.8c-.5,0-.9-.6-.8-1.2.1-.5.6-.9,1.2-.8l63.4,11.8,6.3-5.7c.1-.1.3-.2.5-.2l11-2.2c.3,0,.7,0,.9.3.2.2.3.6.3.9l-.3,1.5c-.3,1.7-1.5,3.1-3,3.7l-2.8,1.1c0,1.6-.3,5.5-3,8.2-1.9,1.9-6,2-6.8,2h0Z"/>
          </g>
          <polygon class="st0" points="202.4 54.8 229.2 58.5 229.2 80.3 207 80.3 202.4 54.8"/>
          <g>
            <g>
              <polygon class="st2" points="189.7 63.1 210.2 67.4 221.4 51.3 206.4 40.9 189.7 63.1"/>
              <path class="st0" d="M210.2,68.4c0,0-.1,0-.2,0l-20.5-4.3c-.3,0-.6-.3-.7-.6s0-.7.1-1l16.8-22.2c.3-.4.9-.5,1.4-.2l15,10.4c.5.3.6.9.2,1.4l-11.2,16.1c-.2.3-.5.4-.8.4h0ZM191.4,62.5l18.4,3.8,10.2-14.8-13.4-9.3-15.2,20.2h0Z"/>
            </g>
            <path class="st0" d="M225.8,24.5s3.3,10.8,5.7,11.3c2.4.5,8.9.7,9.9-3.6s-.8-3.8-2.6-4.4c-1.8-.6.1-4.8-.9-5.3s-2.5-.5-5.4-.1-6.6,2.1-6.6,2.1h0Z"/>
            <g>
              <path class="st2" d="M206.2,49.3c-2.8-3.4-4.3-7.9-3.9-12.7.8-9.7,9-16.7,18.5-16.1,15.4.9,16.6,14.9,15.9,17.7-.2.7-.3,1.3-.5,1.9-.1,1.1-.3,2.1-.6,3.1-.4,2.2-.3,4,.6,5.2,1.4,1.8-8.8,15.2-18.7,7.2l-11.4-6.2h0Z"/>
              <path class="st0" d="M224.2,59c-2.4,0-4.8-.8-7.2-2.7-.4-.3-.5-1-.1-1.4s1-.5,1.4-.2c4.2,3.4,8.2,2.4,10.9.9,3.9-2.2,6.2-5.9,6.2-6.9-1.2-1.7-1-4-.7-5.8,0,0,0,0,0-.1.3-.9.5-1.9.6-2.9,0,0,0,0,0-.1.1-.6.3-1.2.5-1.9.3-1.3.2-6.3-2.9-10.5-2.6-3.6-6.7-5.6-12.1-5.9-9-.5-16.6,6.2-17.4,15.2-.4,4.4.9,8.6,3.6,12,.4.4.3,1.1-.1,1.4-.4.3-1.1.3-1.4-.2-3-3.8-4.5-8.5-4.1-13.4.8-10.2,9.4-17.7,19.5-17.1,6,.4,10.6,2.6,13.6,6.8,3.3,4.5,3.7,10.2,3.2,12.2-.2.6-.3,1.2-.5,1.8-.1,1.1-.3,2.1-.6,3.1-.3,2.2-.2,3.5.4,4.3,1.3,1.7-1.5,5.3-3.2,6.9-2.5,2.5-6,4.4-9.7,4.4h0Z"/>
            </g>
            <path class="st0" d="M219.9,16.3c6.3.5,11.5,4.2,14.5,9.4-1.6-.6-3.3-1-5-1.1-11.9-1-22.5,9.1-23.6,22.5,0,.7,0,1.5,0,2.2-4-3.8-6.3-9.5-5.8-15.5.9-10.5,9.8-18.3,20-17.5h0Z"/>
            <path class="st0" d="M211.7,24.4l-9.1,18.5-1.3,4.9,4.6,2.5c1.5.8,3.4.6,4.6-.6l6.5-6.3c-.1,0-.2,0-.3,0-2.2-.2-3.9-2.2-3.7-4.4.2-2.2,2.1-3.9,4.4-3.7,2.2.2,3.9,2.2,3.7,4.4h0c.6.2,2,.4,2.1-.7.2-1.4,2.6-4.1,3.5-6.5s-2-4,.5-3.8c4.8.3,8.8-3.1,8.8-3.1-7-8-24.4-1-24.4-1h0Z"/>
            <path class="st0" d="M229.7,54.5c-.2,0-.5,0-.6-.2-1.6-1.3-1.4-3.4-1.4-3.5,0-.5.5-1,1.1-.9.5,0,1,.5.9,1.1,0,0,0,1.2.7,1.8.4.3.5,1,.1,1.4-.2.2-.5.4-.8.4h0Z"/>
            <path class="st0" d="M218.6,41.2c0,0-.2,0-.2,0-.5-.1-.9-.7-.7-1.2,0,0,.2-1.2-.4-1.9-.4-.4-.3-1,0-1.4.4-.4,1-.3,1.4,0,1.4,1.5.9,3.6.9,3.7-.1.5-.5.8-1,.8h0Z"/>
            <path class="st0" d="M230.7,39.2c-.1,0-.3,0-.4,0-.5-.2-.7-.8-.5-1.3.4-.9,1.6-1.7,3-1.8,1.4-.2,2.7.3,3.6,1.3.4.4.3,1,0,1.4-.4.4-1,.3-1.4,0-.6-.7-1.3-.7-1.9-.6-.8.1-1.4.5-1.5.7-.2.4-.5.6-.9.6h0Z"/>
            <path class="st0" d="M232.3,42.6c0,.5.3.9.7.9.4,0,.7-.5.7-1,0-.5-.3-.9-.7-.9-.4,0-.7.5-.7,1Z"/>
            <path class="st0" d="M219.4,55.9l-3.6,5.2c-1.6-2.4-2.4-5.3-2.1-8.4.1-1.2.4-2.4.8-3.5.9,2.8,2.6,5.1,4.9,6.8h0Z"/>
          </g>
          <path class="st0" d="M280.4,220.7c-.5,0-.9-.4-1-.9l-2.2-18.6c0-.5.3-1,.9-1.1.5,0,1,.3,1.1.9l2.2,18.6c0,.6-.3,1.1-.9,1.1h-.1,0Z"/>
          <path class="st0" d="M265.2,214.1c-.5,0-.9-.3-1-.8l-1.6-8.6c-.1-.5.3-1.1.8-1.2.5,0,1.1.3,1.2.8l1.6,8.6c.1.5-.3,1.1-.8,1.2,0,0-.1,0-.2,0h0Z"/>
          <g>
            <path class="st2" d="M201,143.3l64-66.5,6,.6c3.6.3,6.6,2.8,7.8,6.2l20.7,46.9-14.4,4.9-13.4-25.6-26.4,38.8-44.3-5.2h0Z"/>
            <path class="st0" d="M245.3,149.5h-.1l-44.3-5.2c-.4,0-.7-.3-.8-.7s0-.8.2-1l64-66.5c.2-.2.5-.3.8-.3l6,.6c4,.4,7.3,3.1,8.6,6.8l20.7,46.8c.1.3.1.5,0,.8s-.3.5-.6.5l-14.4,4.9c-.5.2-1,0-1.2-.5l-12.6-24.1-25.4,37.4c-.2.3-.5.4-.8.4h0ZM203.1,142.5l41.7,4.9,26-38.2c.2-.3.5-.5.9-.4.4,0,.7.2.8.5l13,24.8,12.6-4.3-20.3-45.9c-1.1-3.1-3.8-5.3-7-5.6l-5.5-.5-62.3,64.7h0Z"/>
          </g>
          <g>
            <path class="st2" d="M206.1,123.7l47.3,2.3c7,.4,12.9,5.5,14.4,12.3l14.3,61.8-22.2,4-22-47.4h-25.9c-5.2,0-10.1-2.9-12.5-7.6l-4.1-9.2c-4-7.7,1.9-16.8,10.6-16.3h0Z"/>
            <path class="st0" d="M259.9,205.1c-.4,0-.7-.2-.9-.6l-21.7-46.8h-25.2c-5.6,0-10.8-3.1-13.4-8.1l-4.1-9.2c-2-3.9-1.8-8.5.6-12.2,2.4-3.7,6.5-5.8,10.9-5.5l47.3,2.3c7.5.4,13.8,5.8,15.4,13.1l14.3,61.8c0,.3,0,.5-.1.8-.1.2-.4.4-.7.4l-22.2,4c0,0-.1,0-.2,0h0ZM205.4,124.7c-3.5,0-6.6,1.7-8.5,4.6-2,3.1-2.2,6.9-.5,10.2l4.1,9.2c2.2,4.3,6.7,7,11.6,7h25.9c.4,0,.7.2.9.6l21.7,46.7,20.4-3.6-14.1-60.8c-1.4-6.4-6.9-11.2-13.5-11.6l-47.3-2.3h0c-.2,0-.4,0-.6,0Z"/>
          </g>
          <path class="st0" d="M289.7,142.8c-.3,0-.6-.2-.8-.4l-4.8-6.8c-.3-.5-.2-1.1.2-1.4.5-.3,1.1-.2,1.4.2l4.8,6.8c.3.5.2,1.1-.2,1.4-.2.1-.4.2-.6.2h0Z"/>
          <path class="st0" d="M302.7,139.4c-.4,0-.8-.2-.9-.6l-3.2-8c-.2-.5,0-1.1.5-1.3.5-.2,1.1,0,1.3.5l3.2,8c.2.5,0,1.1-.5,1.3-.1,0-.2,0-.4,0h0Z"/>
          <polygon class="st1" points="291.3 54 313.6 55.6 287.7 95.3 259.3 106.4 291.3 54"/>
          <g>
            <path class="st2" d="M287.8,139.6v15.4h36.4c3,0,3.6-5.8.8-8.6l-22.8-10.1s-3.4,9-14.4,3.3h0Z"/>
            <path class="st0" d="M287.8,140v11h36.4c3,0,3.6-3.3.8-5.3l-22.5-9.4s-3.7,7.8-14.6,3.7h0Z"/>
            <path class="st0" d="M324.2,156h-36.4c-.5,0-1-.5-1-1v-15.4c0-.3.2-.7.5-.9.3-.2.7-.2,1,0,3.4,1.8,6.4,2.2,8.8,1.3,3-1.1,4.2-4.1,4.2-4.1.1-.2.3-.5.5-.6s.5,0,.8,0l22.8,10.1c.1,0,.2.1.3.2,2.2,2.2,2.5,5.8,1.6,8-.6,1.5-1.8,2.3-3.1,2.3h0ZM288.8,154h35.4c.6,0,1-.3,1.3-1,.6-1.5.4-4.1-1.1-5.7l-21.8-9.7c-.7,1.2-2.2,3.3-4.9,4.3-2.6,1-5.6.7-9-.7v12.8h0Z"/>
          </g>
          <g>
            <path class="st2" d="M264.5,213.4l-5.3,14.5,34.1,12.5c2.9,1.1,5.3-4.2,3.7-7.8l-17.9-17.4s-6.3,7.3-14.6-1.8h0Z"/>
            <path class="st0" d="M264.4,213.8l-3.8,10.3,34.1,12.5c2.9,1.1,4.5-1.9,2.6-4.7l-18-16.6s-6.1,6-15-1.6h0Z"/>
            <path class="st0" d="M294.1,241.5c-.4,0-.7,0-1.1-.2l-34.1-12.5c-.2,0-.5-.3-.6-.5s-.1-.5,0-.8l5.3-14.5c.1-.3.4-.6.8-.6.3,0,.7,0,.9.3,2.6,2.8,5.2,4.3,7.8,4.3,3.2,0,5.3-2.4,5.3-2.4.2-.2.4-.3.7-.3.3,0,.5,0,.7.3l17.9,17.4c0,0,.2.2.2.3,1.3,2.8.4,6.3-1.2,8.1-.8.8-1.7,1.3-2.6,1.3h0ZM260.5,227.3l33.2,12.2c.5.2,1,0,1.6-.6,1.1-1.2,1.7-3.7,1-5.7l-17.1-16.6c-1.1.9-3.2,2.3-6,2.4-2.8,0-5.5-1.2-8.2-3.8l-4.4,12.1h0Z"/>
          </g>
          <path class="st0" d="M193,140.9l36.4-16.4-13.6-45.9-24-19.5-3.5,2.7c-10.7,8.2-15,22.3-10.6,35l15.4,44.2h0Z"/>
          <path class="st0" d="M238,157.8c-.4,0-.7-.2-.9-.5l-3.8-7.1c-.3-.5,0-1.1.4-1.3.5-.3,1.1,0,1.4.4l3.8,7.1c.3.5,0,1.1-.4,1.3-.1,0-.3.1-.5.1h0Z"/>
          <g>
            <path class="st2" d="M280.3,85.4l-62.3-1.1-3.5-18.3,63.9,11.8,6.6-6,5.8-2.5c1.1-.5,2.3.3,2.3,1.5h0c0,.5-.2.9-.5,1.2l-2.5,2.3c-.9.8,0,2.4,1.1,2.1l9.1-2.6c1.5,1.3.6,2.6-1.1,3.2l-3.3,6.5-4.6,2.4c-2.2,1.1-4.7,1.4-7,.7l-3.9-1.2h0Z"/>
            <path class="st0" d="M286.9,88c-1,0-2-.2-3-.5l-3.8-1.2-62.2-1.1c-.5,0-.9-.3-1-.8l-3.5-18.3c0-.3,0-.7.3-.9.2-.2.6-.3.9-.3l63.4,11.8,6.3-5.7c0,0,.2-.1.3-.2l5.8-2.5c.8-.3,1.8-.3,2.5.2.7.5,1.2,1.3,1.2,2.2s-.3,1.4-.8,1.9l-2.5,2.3s-.1.1,0,.2.2.1.2,0l9-2.6c.3,0,.7,0,.9.2,1.1,1,1.2,2,1.1,2.5-.2.9-.9,1.7-2.1,2.2l-3.1,6.2c0,.2-.2.3-.4.4l-4.6,2.4c-1.5.8-3.1,1.2-4.8,1.2h0ZM218.8,83.3l61.5,1.1c0,0,.2,0,.3,0l3.9,1.2c2.1.6,4.3.4,6.3-.6l4.3-2.3,3.1-6.2c.1-.2.3-.4.6-.5.8-.3,1.1-.7,1.2-.9,0,0,0-.2,0-.3l-8.5,2.4c-1,.2-2-.2-2.5-1.1s-.3-2,.4-2.7l2.5-2.3c.1-.1.2-.3.2-.5,0-.3-.2-.5-.3-.5,0,0-.3-.2-.6,0l-5.6,2.5-6.5,5.9c-.2.2-.5.3-.9.2l-62.5-11.6,3.1,16h0Z"/>
          </g>
          <g>
            <path class="st2" d="M292.4,79.4l6.8-2.4-6.8,2.4Z"/>
            <path class="st0" d="M292.4,80.4c-.4,0-.8-.3-.9-.7-.2-.5,0-1.1.6-1.3l6.8-2.4c.5-.2,1.1,0,1.3.6.2.5,0,1.1-.6,1.3l-6.8,2.4c-.1,0-.2,0-.3,0h0Z"/>
          </g>
          <g>
            <path class="st2" d="M292.3,82.4l4.7-1.7-4.7,1.7Z"/>
            <path class="st0" d="M292.3,83.4c-.4,0-.8-.2-.9-.7-.2-.5,0-1.1.6-1.3l4.7-1.7c.5-.2,1.1,0,1.3.6.2.5,0,1.1-.6,1.3l-4.7,1.7c-.1,0-.2,0-.3,0Z"/>
          </g>
          <polygon class="st0" points="191.7 59 231.3 67.8 231.3 89.3 210.6 87.7 191.7 59"/>
          <path class="st2" d="M218.6,89.9h0l-17.6-.4c-.5,0-1-.5-1-1,0-.5.5-1,1-1h0l17.6.4c.5,0,1,.5,1,1,0,.5-.5,1-1,1Z"/>
        </g>
      </g>
    </g>
  </g>
</svg>