<?xml version="1.0" encoding="UTF-8"?>
<svg id="Layer_1" xmlns="http://www.w3.org/2000/svg" version="1.1" viewBox="0 0 286 213.2">
  <!-- Generator: Adobe Illustrator 29.2.0, SVG Export Plug-In . SVG Version: 2.1.0 Build 108)  -->
  <defs>
    <style>
      .st0 {
        fill: #f8c7a7;
      }

      .st1 {
        fill: #303030;
      }

      .st2 {
        fill: #26a8df;
      }

      .st3 {
        fill: #d3de98;
      }

      .st4 {
        fill: #fbeaa5;
      }

      .st5 {
        fill: #d4c8e3;
      }

      .st6 {
        fill: #b2d4ef;
      }

      .st7 {
        fill: #ee9a7e;
      }

      .st8 {
        fill: #fafafa;
      }
    </style>
  </defs>
  <g id="Layer_2">
    <g id="_Layer_">
      <g>
        <g>
          <g>
            <g>
              <g>
                <rect class="st8" x="25.3" y="20.4" width="250.7" height="174.6" rx="11.2" ry="11.2"/>
                <path class="st1" d="M264.8,196H36.5c-6.7,0-12.2-5.5-12.2-12.2V31.6c0-6.7,5.5-12.2,12.2-12.2h228.3c6.7,0,12.2,5.5,12.2,12.2v152.2c0,6.7-5.5,12.2-12.2,12.2ZM36.5,21.4c-5.6,0-10.2,4.6-10.2,10.2v152.2c0,5.6,4.6,10.2,10.2,10.2h228.3c5.6,0,10.2-4.6,10.2-10.2V31.6c0-5.6-4.6-10.2-10.2-10.2H36.5Z"/>
              </g>
              <path class="st1" d="M39.7,37.6c-2.8,0-5-2.3-5-5s2.3-5,5-5,5,2.3,5,5-2.3,5-5,5ZM39.7,29.5c-1.7,0-3,1.4-3,3.1s1.4,3,3,3,3-1.4,3-3-1.4-3-3-3.1Z"/>
              <path class="st1" d="M53.3,37.6c-2.8,0-5-2.3-5-5s2.3-5,5-5,5,2.3,5,5-2.3,5-5,5ZM53.3,29.5c-1.7,0-3,1.4-3,3.1s1.4,3,3,3,3-1.4,3-3-1.4-3-3-3.1Z"/>
              <path class="st1" d="M66.9,37.6c-2.8,0-5-2.3-5-5s2.3-5,5-5,5,2.3,5,5-2.3,5-5,5ZM66.9,29.5c-1.7,0-3,1.4-3,3.1s1.4,3,3,3,3-1.4,3-3-1.4-3-3-3.1Z"/>
            </g>
            <g>
              <path class="st8" d="M71.5,193.5l8.6-27c3.2-10.1,12.6-16.9,23.1-16.8l51.4.4c10.7,0,20,7.2,23,17.4l7.7,26.6-113.7-.7h0Z"/>
              <path class="st1" d="M185.2,195.1c-.4,0-.8-.3-1-.7l-7.7-26.6c-2.8-9.8-11.9-16.6-22-16.7l-51.4-.4h-.2c-10.1,0-18.9,6.4-22,16.1l-8.6,27c-.2.5-.7.8-1.3.6-.5-.2-.8-.7-.6-1.3l8.6-27c3.3-10.5,12.9-17.5,23.9-17.5h.2l51.4.4c11,0,20.9,7.6,23.9,18.2l7.7,26.6c.1.5-.1,1.1-.7,1.2,0,0-.2,0-.3,0h0Z"/>
            </g>
            <polygon class="st1" points="215.4 0 120.3 0 120.3 66.3 169.3 66.3 169.3 83.6 186.6 66.3 215.4 66.3 215.4 0"/>
            <g>
              <circle class="st1" cx="102.5" cy="126.6" r="14.7" transform="translate(-59.5 109.5) rotate(-45)"/>
              <circle class="st1" cx="132" cy="106.5" r="35"/>
              <circle class="st1" cx="119.2" cy="126.3" r="17.5" transform="translate(-24.5 223.7) rotate(-80.8)"/>
              <circle class="st1" cx="148.5" cy="126.3" r="17.5" transform="translate(0 252.6) rotate(-80.8)"/>
              <circle class="st1" cx="101.1" cy="109.3" r="14.7"/>
              <circle class="st1" cx="160.1" cy="126.4" r="14.7" transform="translate(-18.2 27.3) rotate(-9.2)"/>
              <circle class="st1" cx="161.4" cy="109.3" r="14.7"/>
              <g>
                <path class="st8" d="M148.2,149.4c0-.6.1-1.2.1-1.8v-45.5h-31.9v45.5c0,.6,0,1.2.1,1.8h-12.2c4.8,10.1,15.1,17,27,17s22.2-6.9,27-17h-10.1Z"/>
                <path class="st1" d="M131.3,167.4c-11.8,0-22.8-6.9-27.9-17.6-.1-.3-.1-.7,0-1,.2-.3.5-.5.9-.5h11.1c0-.3,0-.5,0-.8v-45.5c0-.6.5-1,1-1h31.9c.5,0,1,.4,1,1v45.5c0,.3,0,.5,0,.8h9c.3,0,.7.2.9.5.2.3.2.7,0,1-5.1,10.7-16.1,17.6-27.9,17.6h0ZM105.9,150.4c5,9.2,14.8,15,25.4,15s20.3-5.8,25.4-15h-8.5c-.3,0-.6-.1-.8-.3s-.3-.5-.2-.8c0-.6.1-1.2.1-1.7v-44.5h-29.9v44.5c0,.5,0,1.1.1,1.7,0,.3,0,.6-.2.8-.2.2-.5.3-.8.3h-10.5,0Z"/>
              </g>
              <g>
                <path class="st8" d="M164.1,106.8c-1.2,0-2.4.3-3.4.9-1.6-14-13.5-24.9-28-24.9s-25.8,10.4-27.9,24c0,0-.2,0-.2,0-3.8,0-6.8,3.1-6.8,6.8s3,6.8,6.8,6.8,1,0,1.5-.2c3.8,11,14.3,18.8,26.6,18.8s23.6-8.5,27-20.2c1.2,1,2.7,1.5,4.3,1.5,3.8,0,6.8-3.1,6.8-6.8s-3-6.8-6.8-6.8h0Z"/>
                <path class="st1" d="M132.8,140.1c-12.1,0-22.9-7.5-27.2-18.7-4.7.6-8.7-3.2-8.7-7.8s3.2-7.5,7.2-7.8c2.5-13.8,14.6-24,28.7-24s26.5,10.4,28.8,24.4c.8-.3,1.7-.4,2.6-.4,4.3,0,7.8,3.5,7.8,7.8s-3.5,7.8-7.8,7.8-2.6-.3-3.8-1c-4,11.6-15.2,19.6-27.6,19.6h0ZM106.2,119.3c.4,0,.8.3.9.7,3.8,10.9,14.1,18.2,25.6,18.2s22.7-8,26-19.5c0-.3.3-.6.7-.7.3,0,.7,0,.9.2,1,.8,2.3,1.3,3.7,1.3,3.2,0,5.8-2.6,5.8-5.8s-2.6-5.8-5.8-5.8-2,.3-2.9.8c-.3.2-.6.2-1,0-.3-.2-.5-.4-.5-.8-1.6-13.7-13.2-24-27-24s-24.9,10-26.9,23.2c0,.5-.5.9-1,.8h-.1c-3.3,0-5.9,2.6-5.9,5.8s3.3,6.5,7.1,5.7c0,0,.1,0,.2,0h0Z"/>
              </g>
              <path class="st1" d="M132,71.5c-12.9,0-24.2,7-30.3,17.5,3.8,3.1,8.7,4.9,13.9,4.9,12.2,0,22-9.7,22.3-21.8-2-.3-4-.5-6-.5Z"/>
              <path class="st1" d="M135.4,113.8c-2.9,0-8-1.3-8.7-1.4-.5-.1-.9-.7-.7-1.2.1-.5.7-.9,1.2-.7,2.7.7,7.4,1.6,8.9,1.3.5-.1,1.1.2,1.2.8.1.5-.2,1.1-.8,1.2-.3,0-.7,0-1.1,0h0Z"/>
              <path class="st2" d="M122.3,110c-6.1,0-11-4.9-11-11s4.9-11,11-11,11,4.9,11,11-4.9,11-11,11ZM122.3,90c-5,0-9,4-9,9s4,9,9,9,9-4,9-9-4-9-9-9Z"/>
              <path class="st2" d="M149.4,110c-6.1,0-11-4.9-11-11s4.9-11,11-11,11,4.9,11,11-4.9,11-11,11ZM149.4,90c-5,0-9,4-9,9s4,9,9,9,9-4,9-9-4-9-9-9Z"/>
              <path class="st2" d="M105.7,107.5c-.3,0-.5,0-.7-.3-.4-.4-.4-1,0-1.4l6.6-6.7c.4-.4,1-.4,1.4,0s.4,1,0,1.4l-6.6,6.7c-.2.2-.5.3-.7.3h0Z"/>
              <path class="st2" d="M139,100h-6.2c-.5,0-1-.4-1-1s.5-1,1-1h6.2c.5,0,1,.4,1,1s-.5,1-1,1Z"/>
              <path class="st1" d="M127.9,97.4c0,1.6-1.1,2.9-2.4,2.9s-2.4-1.3-2.4-2.9,1.1-2.9,2.4-2.9,2.4,1.3,2.4,2.9Z"/>
              <path class="st1" d="M153.2,97.1c0,1.6-1.1,2.9-2.4,2.9s-2.4-1.3-2.4-2.9,1.1-2.9,2.4-2.9,2.4,1.3,2.4,2.9Z"/>
            </g>
            <g>
              <path class="st8" d="M187.7,122.4l-4.1-13.2c-.2-.7-.8-1.3-1.5-1.5s-1.5,0-2.1.5c-1.6,1.3-2.4,3.3-2.1,5.4l.6,5.4-1.5,1.5.7-6.7c0,0,0-.2,0-.3l-2.9-10.9c-.2-.6-.6-1.2-1.2-1.4s-1.3-.2-1.9,0c-1.3.7-2.3,2-2.7,3.4v.3c0,0-2.5-5-2.5-5-.1-.3-.5-.5-.8-.4-1.1.3-3,1.4-3.6,3.9-.2,0-.4-.2-.6-.2-.6,0-1.2.2-1.5.7-1.3,1.8-1.7,4.2-1.2,6.4l1.4,5.2-2.7,10.3-12,6.1c-5,2.6-8.7,7.2-10,12.6l-13.2,53.2c0,.2,0-.2.1,0,.1.2.3,0,.6,0h29.8c.4,0,.6.4.7,0l7-51.9,27.1-22.9c.2-.2.3-.5.2-.8h0Z"/>
              <g>
                <path class="st1" d="M152.6,199h-.1c-.5,0-.9-.6-.9-1.1l7.1-52.3c0-.2.2-.5.4-.6l26.8-22.7-3.9-12.6c0-.2-.3-.3-.4-.4s-.3,0-.5.1c-1.1,1-1.7,2.4-1.5,3.9l.7,5.8c0,.3,0,.6-.3.8l-3.3,3.4c-.4.4-1,.4-1.4,0-.4-.4-.4-1,0-1.4l2.9-3.1-.6-5.3c-.2-2.1.6-4.2,2.2-5.6.6-.6,1.5-.8,2.4-.5.8.2,1.5.9,1.7,1.7l4.1,13.2c.1.4,0,.8-.3,1.1l-27,22.8-7,51.9c0,.5-.5.9-1,.9h0Z"/>
                <path class="st1" d="M175.5,128.6h-.1c-.5,0-1-.6-.9-1.1l1.4-13.7-2.9-10.7c0-.2-.2-.2-.2-.3s-.2,0-.4,0c-.9.5-1.6,1.3-1.9,2.3l-.5,1.7c-.1.5-.7.8-1.2.7-.5-.1-.9-.7-.7-1.2l.5-1.7c.4-1.5,1.5-2.8,2.8-3.6.7-.4,1.4-.4,2.1,0,.7.3,1.2.9,1.4,1.6l2.9,10.9c0,.1,0,.2,0,.4l-1.4,13.9c0,.5-.5.9-1,.9h0Z"/>
                <path class="st1" d="M170.6,129.3h-.1c-.5,0-.9-.6-.9-1.1l1.9-13.4-6.2-13c-.8.5-1.9,1.6-1.8,4,0,.6-.4,1-.9,1.1-.6,0-1-.4-1.1-.9-.3-4.2,2.5-6.1,4-6.4.5-.1.9.1,1.1.5l6.8,14.2c0,.2.1.4,0,.6l-2,13.7c0,.5-.5.9-1,.9h0Z"/>
                <path class="st1" d="M122.8,199c0,0-.2,0-.2,0-.5-.1-.9-.7-.7-1.2l13.2-53.1c1.4-5.5,5.1-10.2,10.2-12.8l11.8-6.1,2.6-10.1-1.4-5.1c-.6-2.3-.2-4.7,1.2-6.6.4-.6,1.1-.9,1.8-.8.7,0,1.3.5,1.6,1.1l5.5,11.8c0,.2.1.4,0,.6l-2,12.2c0,.5-.6.9-1.1.8-.5,0-.9-.6-.8-1.1l1.9-11.9-5.4-11.6c-1,1.4-1.3,3.2-.8,4.9l1.4,5.4c0,.2,0,.3,0,.5l-2.8,10.8c0,.3-.3.5-.5.6l-12.2,6.3c-4.6,2.4-7.9,6.6-9.2,11.5l-13.2,53.1c-.1.5-.5.8-1,.8h0Z"/>
              </g>
            </g>
            <g>
              <path class="st8" d="M88.9,190.8s22.5-10.9,29-10.6,10.8.3,15.3,2.9c0,0,7.1,4.2,9,7.1s3.4,5.5,3.1,7.1c-.3,1.6-.8,2.6-2.6,2.3s-1.4,1.2-1.9,1.7-1.4,1.3-2.9.6c-1.8-.9-4.5-3.2-5.7-4.6s-3.1-2.1-4.5-3.6-2.5-2.1-2.6-1.3c-.1.8.4,6.9.2,9.5s-.1,2-1.6,2.5c-1.2.4-2.5-2.1-3.2-3.8-.7-2.1-1.2-6.9-1.8-7.4s-16.8,3.5-29.7-2.3h0Z"/>
              <path class="st1" d="M143.1,200.2c-.5,0-1.2,0-1.9-.3-.5-.1-.8-.7-.7-1.2.1-.5.7-.8,1.2-.7.7.2,1.9.4,2.3-.1.4-.6.3-1.9-.2-2.8-.1-.2-.2-.5-.4-.8-.9-2.1-2.9-7-13.6-11.9-11.5-5.3-30.8,4.5-38.1,8.1-1.7.9-2.8,1.4-3.4,1.6-.5.2-1.1-.1-1.2-.7s.1-1.1.7-1.2c.4-.1,1.6-.7,3-1.5,8.2-4.1,27.4-13.9,39.8-8.2,11.5,5.2,13.7,10.7,14.7,13,.1.2.2.5.3.6.6,1.2,1.1,3.5,0,4.9-.4.5-1.2,1.1-2.5,1.1h0Z"/>
              <path class="st1" d="M139,202.6c-1.5,0-3.1-.6-3.7-1.4-1-1.1-11.3-10.6-13.3-11.3-.5-.2-.8-.8-.6-1.3.2-.5.8-.8,1.3-.6,2.5,1,13.1,10.8,14.1,11.9.3.4,2.1.9,3,.5.2,0,.4-.2.3-.9-.3-1.9-7.2-8.3-12-12.2-.4-.4-.5-1-.1-1.4.4-.4,1-.5,1.4-.1,2,1.7,12.3,10.2,12.7,13.5.2,1.4-.4,2.4-1.5,2.9-.5.2-1,.3-1.6.3h0Z"/>
              <path class="st1" d="M123.2,205.1c-.4,0-.7-.1-1-.3-.3-.2-1-.7-4.5-10.9-2,.4-7.2,1.2-14.4.9-.5,0-1-.5-1-1,0-.6.5-1,1-1,8.8.4,14.7-1,14.8-1,.5-.1,1,.2,1.2.6,1.5,4.5,3.3,9.4,4,10.6.2-.1.7-.5.8-1.3.2-1.1.2-6.8.2-10.4,0-.6.4-1,1-1,.6,0,1,.4,1,1,0,.9,0,9.1-.2,10.7-.2,1.3-1,2.4-2,2.8-.3.1-.6.2-.9.2h0Z"/>
            </g>
          </g>
          <g>
            <path class="st5" d="M162.2,32.1c0-3.9,1.9-7.4,4.9-9.5-1.5-.7-3.1-1.1-4.8-1.1-5.9,0-10.7,4.8-10.7,10.7s4.8,10.7,10.7,10.7,3.4-.4,4.8-1.1c-3-2.2-4.9-5.6-4.9-9.5h0Z"/>
            <path class="st6" d="M173.9,32.1c0-3.9,1.9-7.4,4.9-9.5-1.5-.7-3.1-1.1-4.8-1.1-5.9,0-10.7,4.8-10.7,10.7s4.8,10.7,10.7,10.7,3.4-.4,4.8-1.1c-3-2.2-4.9-5.6-4.9-9.5h0Z"/>
            <path class="st3" d="M185.7,32.1c0-3.9,1.9-7.4,4.9-9.5-1.5-.7-3.1-1.1-4.8-1.1-5.9,0-10.7,4.8-10.7,10.7s4.8,10.7,10.7,10.7,3.4-.4,4.8-1.1c-3-2.2-4.9-5.6-4.9-9.5h0Z"/>
            <circle class="st4" cx="197.5" cy="32.1" r="10.7"/>
            <path class="st0" d="M138.7,32.1c0-3.9,1.9-7.4,4.9-9.5-1.5-.7-3.1-1.1-4.8-1.1-5.9,0-10.7,4.8-10.7,10.7s4.8,10.7,10.7,10.7,3.4-.4,4.8-1.1c-3-2.2-4.9-5.6-4.9-9.5h0Z"/>
            <path class="st7" d="M150.5,32.1c0-3.9,1.9-7.4,4.9-9.5-1.5-.7-3.1-1.1-4.8-1.1-5.9,0-10.7,4.8-10.7,10.7s4.8,10.7,10.7,10.7,3.4-.4,4.8-1.1c-3-2.2-4.9-5.6-4.9-9.5h0Z"/>
          </g>
          <polygon class="st2" points="194.6 80 194.6 143.4 210.6 143.4 210.6 160.7 227.9 143.4 263.8 143.4 263.8 80 194.6 80"/>
          <polygon class="st2" points="69.2 85.9 69.2 149.3 53.1 149.3 53.1 166.6 35.8 149.3 0 149.3 0 85.9 69.2 85.9"/>
          <g>
            <path class="st1" d="M18.8,125.7c-4.6,0-8.4-3.8-8.4-8.4s3.8-8.4,8.4-8.4,8.4,3.8,8.4,8.4-3.8,8.4-8.4,8.4ZM18.8,110.9c-3.5,0-6.4,2.9-6.4,6.4s2.9,6.4,6.4,6.4,6.4-2.9,6.4-6.4-2.9-6.4-6.4-6.4Z"/>
            <path class="st1" d="M44.3,109.8c-4.6,0-8.4-3.8-8.4-8.4s3.8-8.4,8.4-8.4,8.4,3.8,8.4,8.4-3.8,8.4-8.4,8.4ZM44.3,94.9c-3.5,0-6.4,2.9-6.4,6.4s2.9,6.4,6.4,6.4,6.4-2.9,6.4-6.4-2.9-6.4-6.4-6.4Z"/>
            <rect class="st1" x="24" y="109.2" width="15.9" height="2" transform="translate(-55.6 36.1) rotate(-33.6)"/>
            <path class="st1" d="M44.3,140.5c-4.6,0-8.4-3.8-8.4-8.4s3.8-8.4,8.4-8.4,8.4,3.8,8.4,8.4-3.8,8.4-8.4,8.4ZM44.3,125.7c-3.5,0-6.4,2.9-6.4,6.4s2.9,6.4,6.4,6.4,6.4-2.9,6.4-6.4-2.9-6.4-6.4-6.4Z"/>
            <rect class="st1" x="31" y="115.6" width="2" height="15.9" transform="translate(-88.6 81.8) rotate(-56.4)"/>
          </g>
          <g>
            <g>
              <rect class="st1" x="221.6" y="97.5" width="15.1" height="32.4"/>
              <path class="st1" d="M237.7,130.9h-17.1v-34.4h17.1v34.4ZM222.6,128.9h13.1v-30.4h-13.1v30.4Z"/>
            </g>
            <rect class="st1" x="215.1" y="96.5" width="10.8" height="2"/>
            <rect class="st1" x="232.4" y="128.9" width="10.8" height="2"/>
          </g>
          <g>
            <circle class="st1" cx="228" cy="82.2" r="8.6" transform="translate(-10.2 37.6) rotate(-9.2)"/>
            <path class="st1" d="M228,92c-5.3,0-9.6-4.3-9.6-9.6s4.3-9.6,9.6-9.6,9.6,4.3,9.6,9.6-4.3,9.6-9.6,9.6ZM228,74.8c-4.2,0-7.6,3.4-7.6,7.6s3.4,7.6,7.6,7.6,7.6-3.4,7.6-7.6-3.4-7.6-7.6-7.6Z"/>
          </g>
        </g>
        <g>
          <polygon class="st8" points="285 196 273 192.1 260.9 188.2 264.9 200.2 268.8 212.2 273 204 279.4 210.4 283.2 206.6 276.8 200.2 285 196"/>
          <path class="st1" d="M268.8,213.2h0c-.4,0-.8-.3-.9-.7l-7.8-24c-.1-.4,0-.8.2-1,.3-.3.7-.4,1-.2l24,7.8c.4.1.7.5.7.9s-.2.8-.5,1l-7,3.6,5.5,5.4c.2.2.3.4.3.7s-.1.5-.3.7l-3.8,3.8c-.4.4-1,.4-1.4,0l-5.5-5.4-3.6,7c-.2.3-.5.5-.9.5h0ZM262.5,189.7l6.5,19.9,3.1-6.1c.1-.3.4-.5.7-.5.3,0,.6,0,.9.3l5.7,5.7,2.4-2.4-5.7-5.7c-.2-.2-.3-.6-.3-.9,0-.3.2-.6.5-.7l6.1-3.1-19.9-6.5h0Z"/>
        </g>
      </g>
    </g>
  </g>
</svg>