<?xml version="1.0" encoding="UTF-8"?>
<svg id="Layer_1" xmlns="http://www.w3.org/2000/svg" version="1.1" viewBox="0 0 307 223.4">
  <!-- Generator: Adobe Illustrator 29.2.0, SVG Export Plug-In . SVG Version: 2.1.0 Build 108)  -->
  <defs>
    <style>
      .st0 {
        fill: none;
        stroke: #303030;
        stroke-linecap: round;
        stroke-linejoin: round;
        stroke-width: 2px;
      }

      .st1 {
        fill: #303030;
      }

      .st2 {
        fill: #26a8df;
      }

      .st3 {
        fill: #fafafa;
      }
    </style>
  </defs>
  <g id="Layer_2">
    <g id="_Layer_">
      <g>
        <g>
          <g>
            <circle class="st2" cx="74.1" cy="51.9" r="51.9"/>
            <polygon class="st2" points="126.2 104.1 100 97 73.7 90 92.9 70.8 112.1 51.5 119.2 77.8 126.2 104.1"/>
          </g>
          <path class="st1" d="M213.3,154.8c39.1-4.2,36.5-11.4,69.9-22.9,27-9.3,26.1-59.5-20.6-60.7-24.7-.6-27.7-10-27.9-10.9-5.2-26.4-31.2-43.3-57.6-37.1-23.7,5.6-39.5,28.7-36,52.8,3.1,21.8,20.2,37.6,40.6,40.4.1.8.3,1.7.4,2.5,3.4,17.2,15.7,30.5,31.2,35.8h0Z"/>
          <path class="st1" d="M306,92.7c-.4,0-.8-.2-.9-.6-10-23.8-22.1-27.6-37.1-26-26.1,2.9-29.9-7.8-30-8.3-3.8-11.8-11.9-21.5-23-27.2s-23.6-6.8-35.5-3c-.5.2-1.1-.1-1.3-.7s.1-1.1.6-1.3c12.3-3.9,25.5-2.8,37,3.1,11.5,5.9,20,16,24,28.3,0,0,3.4,9.6,27.9,6.9,22-2.4,31.5,9.1,39.1,27.2.2.5,0,1.1-.5,1.3-.1,0-.3,0-.4,0h0Z"/>
          <g>
            <path class="st1" d="M74.2,88.1c-20.3,0-36.8-16.5-36.8-36.8S53.9,14.6,74.2,14.6s36.8,16.5,36.8,36.8-.4,6.1-1.1,9.1l-1.9-.5c.7-2.8,1.1-5.7,1.1-8.6,0-19.2-15.6-34.8-34.8-34.8s-34.8,15.6-34.8,34.8,15.6,34.8,34.8,34.8,20.9-4.9,27.5-13.6l1.6,1.2c-7,9.1-17.6,14.3-29.1,14.3Z"/>
            <path class="st1" d="M102.3,75l-1.4-1.4c1.3-1.3,2-3,2-4.9s-.7-3.6-2-4.9c-2-2-5-2.6-7.6-1.5l-.8-1.8c3.4-1.4,7.2-.7,9.8,1.9,1.7,1.7,2.6,3.9,2.6,6.3s-.9,4.6-2.6,6.3h0Z"/>
          </g>
          <g>
            <path class="st3" d="M282.3,194.1l-30.7-79.6c-3.8-9.7-12.9-16.3-23.2-16.9l-17.1-.9c-12.6,4.3-22.8,13.8-28,26l-.3.7-43.9,99h122.8c14.7,0,25-14.3,20.5-28.3Z"/>
            <path class="st1" d="M261.8,223.4h-122.8c-.3,0-.6-.2-.8-.5-.2-.3-.2-.6,0-.9l43.9-99,.3-.6c5.3-12.5,15.7-22.2,28.6-26.6.1,0,.2,0,.4,0l17.1.9c10.8.6,20.2,7.5,24.1,17.5l30.7,79.6s0,0,0,0c2.3,6.9,1.1,14.3-3.1,20.3s-11,9.3-18.3,9.3h0ZM140.6,221.4h121.2c6.7,0,12.7-3.1,16.6-8.5,3.9-5.4,5-12.1,2.9-18.4l-30.6-79.5c-3.6-9.3-12.4-15.7-22.4-16.3l-17-.9c-12.3,4.2-22.2,13.5-27.2,25.4l-.3.7-43.3,97.6h0Z"/>
          </g>
          <g>
            <path class="st3" d="M159.1,221.5h31.6s2.5-9,0-13.9-16-12.1-24.8-8.5-6.7,22.4-6.7,22.4h0Z"/>
            <path class="st1" d="M190.7,222.5h-31.6c-.5,0-.9-.4-1-.9,0-.8-2.1-19.6,7.4-23.4,9.4-3.8,23.4,3.8,26.1,9,2.7,5.2.2,14.2,0,14.6-.1.4-.5.7-1,.7ZM160,220.5h29.9c.5-2.2,1.8-8.7-.1-12.4-2.3-4.6-15.2-11.4-23.6-8-7,2.8-6.5,16.8-6.2,20.5h0Z"/>
          </g>
          <path class="st1" d="M82.7,214.2h107.1c3.8,0,6.9,3.1,6.9,6.9v2.1h-114v-9h0Z"/>
          <path class="st1" d="M126.9,223.2H23.3L.5,154.4c-2.2-6.7,2.8-13.5,9.8-13.5h82c4.4,0,8.4,2.8,9.8,7l24.9,75.3h0Z"/>
          <path class="st1" d="M190,205.5c-.4,0-.8-.3-1-.7-.1-.5.2-1.1.7-1.2l53.2-14.8-16.6-55.8c-.2-.5.1-1.1.7-1.2.5-.2,1.1.2,1.2.7l16.9,56.7c0,.3,0,.5,0,.8-.1.2-.4.4-.6.5l-54.1,15c0,0-.2,0-.3,0h0Z"/>
          <path class="st1" d="M194.4,203.6h-.1c-.5,0-.9-.6-.9-1.1l2.1-18.3-2.4-1.4c-7.2-4.2-11.4-11.9-11.1-20.2l1-23.9c0-.5.5-1,1-1,.5,0,1,.5,1,1l-1,23.9c-.3,7.6,3.5,14.6,10.1,18.4l3,1.7c.3.2.5.6.5,1l-2.2,19c0,.5-.5.9-1,.9Z"/>
          <g>
            <path class="st3" d="M147.6,190.9l-3-.3c-2.5-.3-5.1-.2-7.6.3l-12.3,2.5c-2.5.5-3.6,3.5-2,5.4h0c1.6,2,4.1,3.2,6.7,3.2l14.9-2.5,3.2-8.6h0Z"/>
            <path class="st1" d="M129.4,203.1c-2.9,0-5.7-1.3-7.5-3.6-1-1.2-1.2-2.8-.7-4.2s1.7-2.5,3.3-2.8l12.3-2.5c2.6-.5,5.3-.7,7.9-.4l3,.3c.3,0,.6.2.8.5.2.3.2.6,0,.9l-3.2,8.6c-.1.3-.4.6-.8.6l-14.9,2.5s-.1,0-.2,0h0ZM141.9,191.5c-1.6,0-3.2.2-4.8.5l-12.3,2.5c-.8.2-1.5.7-1.8,1.5-.3.8-.1,1.7.4,2.3,1.4,1.8,3.6,2.8,5.9,2.8l14.3-2.4,2.6-6.9-1.7-.2c-.9,0-1.7-.1-2.5-.1h0Z"/>
          </g>
          <g>
            <path class="st3" d="M153.3,192.4l-5.1-1.3c-2.2-.6-4.5.1-6.1,1.7l-13.2,13.5c-1.7,1.9-.8,4.9,1.6,5.6h0c2.5.7,5.2.2,7.3-1.4l9.3-11,6.1-7.2h0Z"/>
            <path class="st1" d="M132.8,213.2c-.8,0-1.7-.1-2.5-.3-1.5-.4-2.6-1.5-3.1-3-.4-1.5,0-3.1,1-4.2l13.2-13.5c1.8-1.9,4.5-2.7,7.1-2l5.1,1.3c.3,0,.6.3.7.7.1.3,0,.7-.2.9l-15.5,18.2c0,0-.1.1-.2.2-1.7,1.2-3.6,1.8-5.7,1.8h0ZM146.7,191.9c-1.4,0-2.8.6-3.9,1.6l-13.2,13.5c-.5.6-.8,1.4-.5,2.2.2.8.9,1.4,1.7,1.6,2.2.6,4.5.2,6.4-1.1l14.3-16.9-3.5-.9c-.4-.1-.9-.2-1.3-.2Z"/>
          </g>
          <g>
            <path class="st3" d="M165.7,195.1l-8.1-2.9c-2.2-.6-4.5.1-6.1,1.7l-10.3,12.4c-1.7,1.9-.8,4.9,1.6,5.6h0c2.5.7,5.2.2,7.3-1.4l8.8-9.2,6.8-6.3h0Z"/>
            <path class="st1" d="M145,213.2c-.8,0-1.7-.1-2.5-.3-1.5-.4-2.6-1.5-3.1-3-.4-1.5,0-3.1,1-4.2l10.3-12.4c1.9-1.9,4.6-2.7,7.1-2.1l8.2,2.9c.3.1.6.4.6.7,0,.3,0,.7-.3.9l-6.8,6.3-8.8,9.2s0,0-.1.1c-1.7,1.2-3.6,1.8-5.7,1.8h0ZM156.1,193c-1.4,0-2.8.6-3.9,1.6l-10.3,12.4c-.6.7-.8,1.5-.6,2.3.2.8.9,1.4,1.7,1.6,2.2.6,4.5.2,6.4-1.2l8.7-9.1,5.7-5.2-6.6-2.3c-.4,0-.8-.1-1.2-.1h0Z"/>
          </g>
          <g>
            <path class="st3" d="M182.5,201l-15.9-5.7c-2-.5-4.1,0-5.5,1.6l-9.2,11.2c-1.5,1.7-.8,4.4,1.4,5h0c2.3.6,4.7.2,6.6-1.2l5.7-6.8,16.9-4h0Z"/>
            <path class="st1" d="M155.3,214.2c-.8,0-1.5,0-2.3-.3-1.4-.4-2.4-1.4-2.8-2.8s0-2.8.9-3.8l9.2-11.1c1.7-1.8,4.2-2.5,6.5-1.9,0,0,0,0,.1,0l15.9,5.7c.5.2.8.8.6,1.3s-.8.8-1.3.6l-15.8-5.7c-1.6-.4-3.3.1-4.5,1.3l-9.2,11.1c-.5.6-.7,1.3-.5,2,.2.7.7,1.2,1.4,1.4,1.9.5,4,.2,5.6-1l5.6-6.7c.4-.4,1-.5,1.4-.1s.5,1,.1,1.4l-5.7,6.8c0,0-.1.1-.2.2-1.5,1.1-3.3,1.7-5.1,1.7h0Z"/>
          </g>
          <g>
            <circle class="st3" cx="56.8" cy="183.7" r="7.3" transform="translate(-113.2 94) rotate(-45)"/>
            <path class="st1" d="M56.8,192c-4.6,0-8.3-3.7-8.3-8.3s3.7-8.3,8.3-8.3,8.3,3.7,8.3,8.3-3.7,8.3-8.3,8.3ZM56.8,177.4c-3.5,0-6.3,2.8-6.3,6.3s2.8,6.3,6.3,6.3,6.3-2.8,6.3-6.3-2.8-6.3-6.3-6.3Z"/>
          </g>
          <g>
            <path class="st3" d="M158.3,77.5c2.2,11.2,13.1,18.5,24.3,16.3l2.3-.4,10.1,13.5,2,2.9c4.4,6.3,13.9,5.8,17.6-.9l6-10.8-11.6-15.5c2.7,2.4,6.5,3.6,10.3,2.8,6.2-1.2,10.5-7.3,9.5-13.6-1-6.8-7.5-11.3-14.1-10,.2-2.8,0-5.7-.6-8.6l-1.8-9.4c-1.4-6.9-8.1-11.5-15.1-10.1l-19.6,3.8c-14.4,2.8-23.8,16.8-21,31.2l1.7,8.9h0Z"/>
            <path class="st1" d="M205.5,115.1c-3.7,0-7.2-1.8-9.4-4.9l-2-2.9-9.7-12.9-1.6.3c-5.7,1.1-11.4,0-16.3-3.3s-8.1-8.2-9.2-13.8h0l-1.7-8.9c-2.9-14.9,6.9-29.5,21.8-32.4l19.6-3.8c7.5-1.5,14.8,3.4,16.2,10.9l1.8,9.4c.5,2.5.7,5.1.6,7.7,3.1-.3,6.1.5,8.7,2.3,2.9,2,4.8,5.1,5.4,8.7,1,6.8-3.6,13.4-10.3,14.8-2.3.5-4.6.3-6.8-.5l8.6,11.5c.2.3.3.7,0,1.1l-6,10.8c-1.9,3.5-5.4,5.7-9.4,5.9-.2,0-.4,0-.6,0h0ZM184.9,92.4c.3,0,.6.2.8.4l10.1,13.5,2,2.9c1.9,2.7,4.9,4.2,8.2,4,3.3-.2,6.2-2,7.8-4.8l5.7-10.2-11.2-15c-.3-.4-.2-1,.1-1.3.4-.3,1-.3,1.3,0,2.6,2.3,6.1,3.3,9.5,2.6,5.7-1.1,9.6-6.7,8.8-12.5-.5-3-2.1-5.6-4.5-7.3-2.5-1.7-5.5-2.4-8.4-1.8-.3,0-.6,0-.9-.2-.2-.2-.4-.5-.3-.8.2-2.8,0-5.6-.5-8.4l-1.8-9.4c-.6-3.1-2.4-5.8-5-7.5-2.6-1.8-5.8-2.4-8.9-1.8l-19.6,3.8c-13.9,2.7-22.9,16.2-20.2,30l1.7,8.9c1,5.1,4,9.6,8.4,12.5s9.6,4,14.8,3l2.3-.4c0,0,.1,0,.2,0h0Z"/>
          </g>
          <path class="st1" d="M173.4,96.4c-.4,0-.8-.3-.9-.7-.1-.5.2-1,.7-1.1l15.9-3.1c3.1-.6,6.1-1.7,8.9-3.2.4-.2,1,0,1.2.3.2.4,0,1-.4,1.2-2.9,1.6-6.1,2.8-9.4,3.5l-15.9,3.1c0,0-.1,0-.2,0h0Z"/>
          <path class="st1" d="M185,22.1c23-1.5,44,13.8,49.4,36.6-4.4,4.3-10.1,7.5-16.8,8.8-17.2,3.4-33.8-7.2-37-23.5-1.5-7.8.2-15.5,4.4-21.8h0Z"/>
          <path class="st1" d="M212.3,75.1h0c-.5,0-.9-.4-.9-.9,0-.2.1-5.3,4.2-7.8.4-.3,1-.1,1.2.3s.1,1-.3,1.2c-3.2,1.9-3.3,6.2-3.3,6.3,0,.5-.4.9-.9.9h0Z"/>
          <path class="st1" d="M182.8,64.8c0,1.6-.9,2.9-1.9,2.9-1,0-1.8-1.3-1.8-3,0-1.6.9-2.9,1.9-2.9,1,0,1.8,1.3,1.8,3Z"/>
          <path class="st1" d="M165.3,67.1c0,1.6-.9,2.9-1.9,2.9-1,0-1.8-1.3-1.8-3,0-1.6.9-2.9,1.9-2.9,1,0,1.8,1.3,1.8,3Z"/>
          <path class="st1" d="M186.1,58.6c-.2,0-.4,0-.5-.2-3.1-2.3-7.2-.8-7.3-.8-.5.2-1,0-1.2-.5-.2-.5,0-1,.5-1.2.2,0,5.1-1.9,9,1,.4.3.5.9.2,1.3-.2.2-.5.4-.7.4h0Z"/>
          <path class="st1" d="M175.7,85.8c-3.6,0-7.4-3-7.6-3.1-.2-.2-.4-.5-.3-.8,0-.3.2-.6.5-.7l12.1-5.2c.3-.1.6,0,.9,0,.3.2.4.5.4.8-.1,4.5-1.4,7.4-3.7,8.5-.7.3-1.5.5-2.3.5h0ZM170.6,82.1c1.9,1.1,4.7,2.4,6.7,1.5,1.4-.7,2.3-2.5,2.6-5.4l-9.3,3.9h0Z"/>
          <path class="st1" d="M167.2,73.6c-.3,0-.6-.1-.8-.4-.3-.4-.2-1,.2-1.3,1.3-.9,2.1-2.3,2.3-4,.2-1.7-.3-3.5-1.3-5s-2.5-2.5-4.2-3c-1.6-.4-3.2-.1-4.5.8-.4.3-1,.2-1.3-.2s-.2-1,.2-1.3c1.7-1.2,3.8-1.6,6-1,2.1.5,4,1.8,5.3,3.7s1.9,4.1,1.6,6.2c-.3,2.2-1.3,4-3,5.2-.2.1-.3.2-.5.2h0Z"/>
        </g>
        <g>
          <path class="st0" d="M54.7,61.8c4.9-8.3,8.9-17.2,11.7-26.3,3.9,8.5,7.8,17,11.8,25.4"/>
          <path class="st0" d="M55.7,52.8c6.7-.4,13.4-.7,20.1-1.1"/>
        </g>
        <path class="st0" d="M83.3,35.2c.5,9.2,1,16.6,1.5,25.7"/>
      </g>
    </g>
  </g>
</svg>