<?xml version="1.0" encoding="UTF-8"?>
<svg id="Layer_1" xmlns="http://www.w3.org/2000/svg" version="1.1" viewBox="0 0 282.6 248.6">
  <!-- Generator: Adobe Illustrator 29.2.0, SVG Export Plug-In . SVG Version: 2.1.0 Build 108)  -->
  <defs>
    <style>
      .st0 {
        fill: #303030;
      }

      .st1 {
        fill: #26a8df;
      }

      .st2 {
        fill: #fafafa;
      }
    </style>
  </defs>
  <g id="Layer_2">
    <g id="_Layer_">
      <g>
        <g>
          <path class="st2" d="M33.8,152.3c-1,1-2.1,1.8-3.3,2.4-4.3-2.2-7.1-6.7-7.1-11.6s1.4-6.8,3.8-9.2c1-1,2.1-1.8,3.3-2.4,4.3,2.2,7.1,6.7,7.1,11.6s-1.4,6.8-3.8,9.2h0Z"/>
          <path class="st0" d="M28,134.6c.8-.8,1.6-1.4,2.6-2,3.7,2.1,6.1,6.1,6.1,10.5s-1.2,6.2-3.5,8.5c-.8.8-1.6,1.4-2.6,2-3.7-2.1-6.1-6.1-6.1-10.5s1.2-6.2,3.5-8.5h0ZM26.6,133.1c-2.5,2.5-4.1,6.1-4.1,9.9,0,5.6,3.3,10.5,8.1,12.7,1.5-.7,2.8-1.6,4-2.8,2.5-2.5,4.1-6.1,4.1-9.9,0-5.6-3.3-10.5-8.1-12.7-1.5.7-2.8,1.6-4,2.8h0Z"/>
        </g>
        <g>
          <path class="st0" d="M47.8,227.8l30.7-10.9c13-4.6,23.9-13.9,30.5-26.1l21.7-40-37.8-25.7-20.1,57.6-53.6,26.2,28.6,18.8h0Z"/>
          <path class="st0" d="M126.6,99.9l39.5-29.7,104.5,13.1c6.9.9,12.1,6.8,12.1,13.8h0c-.2,24.5-22.6,42.8-46.6,38l-35.8-8.6,18.2,61.2-64.1,18.7c-7.9,2.3-16.3-1.1-20.3-8.3l-41-72.9,33.7-25.3h0Z"/>
          <g>
            <circle class="st0" cx="104.6" cy="55.3" r="33.1" transform="translate(32 148.7) rotate(-79.9)"/>
            <g>
              <path class="st2" d="M102,92.7c1.3-.1,2.6-.4,3.8-.8l8.3,18.8-11.1,8h0c7.9,9.5,17.1,14.5,26,12.9,30.9-6.9,24.5-50.7,24.5-50.7l-14,10-8.3-18.8c1.1.2,2.3.2,3.4-.2,5.2-1.6,7.6-8.9,5.2-16-2.3-6.6-8.1-10.8-13-9.3-3.5,1.1-5.8,4.7-6.1,9.1-3.4-13-13.6-22-24.5-20.9-12.5,1.3-21.2,15.2-19.6,31.2,1.6,16,13.1,27.9,25.5,26.6h0Z"/>
              <path class="st0" d="M125.7,132.9c-7.9,0-16.2-4.7-23.5-13.5-.2-.2-.2-.5-.2-.7,0-.3.2-.5.4-.7,0,0,.1,0,.1,0l10.4-7.5-7.6-17.2c-1,.3-2.1.5-3.1.6h0c-6.3.6-12.6-1.9-17.6-7.1-5-5.2-8.2-12.4-9-20.4-1.7-16.5,7.5-31,20.5-32.3,10.2-1,20,6.4,24.4,18,1.1-3.1,3.3-5.4,6-6.2,5.4-1.6,11.8,2.8,14.2,9.9,1.5,4.4,1.3,9.1-.4,12.5-1.2,2.4-3.1,4.1-5.4,4.8-.7.2-1.4.3-2.1.3l7.1,16.1,13-9.3c.3-.2.6-.2,1-.1.3.1.6.4.6.8,0,.4,6.2,44.7-25.2,51.8-1.1.2-2.3.3-3.5.3h0ZM104.3,118.9c7.8,9,16.4,13.1,24.4,11.7,26.2-5.9,24.6-39.9,23.8-47.9l-12.6,9c-.2.2-.6.2-.9.2-.3,0-.5-.3-.6-.6l-8.3-18.8c-.1-.3-.1-.7.1-1,.2-.3.6-.4.9-.4,1.1.2,2.1.1,3-.2,1.8-.6,3.2-1.8,4.2-3.8,1.5-3,1.7-7.1.3-11-2.1-6.1-7.4-10-11.7-8.7-3,.9-5.1,4.1-5.4,8.2,0,.5-.4.9-.9.9-.5,0-.9-.3-1.1-.7-3.4-12.7-13.2-21.2-23.4-20.2-11.9,1.2-20.3,14.7-18.7,30.1.8,7.5,3.8,14.3,8.4,19.2,4.6,4.8,10.3,7.1,16,6.5h0c1.2-.1,2.4-.4,3.6-.8.5-.2,1,0,1.2.5l8.3,18.8c.2.4,0,.9-.3,1.2l-10.3,7.4h0Z"/>
            </g>
            <path class="st0" d="M121,50.6c-.2.2-.4.4-.6.6-11,11.1-31.2,9-45.3-4.7-.2-.2-.3-.3-.5-.5,2.9-4.8,7.1-8.4,12.3-10.3,12.1-4.4,25.9,2.1,34,14.8Z"/>
            <path class="st0" d="M106.3,92.7c-.4,0-.7-.2-.9-.6-.2-.5,0-1.1.5-1.3,5.9-2.7,10.5-8.7,12.5-16.4.1-.5.7-.8,1.2-.7.5.1.9.7.7,1.2-2.2,8.3-7.1,14.7-13.6,17.7-.1,0-.3,0-.4,0h0Z"/>
            <path class="st0" d="M83.4,67.4c.6.5,0,2.3-1.4,4.1s-3.1,2.7-3.7,2.2,0-2.3,1.4-4.1c1.4-1.7,3.1-2.7,3.7-2.2Z"/>
            <path class="st0" d="M103.1,63.4c.1,1-2,2.1-4.7,2.5-2.8.4-5.1,0-5.2-1.1-.1-1,2-2.1,4.7-2.5,2.8-.4,5.1,0,5.2,1.1Z"/>
            <path class="st0" d="M91.9,79.6c-.1,0-.2,0-.4,0-1.4-.6-2.4-1.8-2.7-3.3l-1-6.5c0-.6.3-1.1.8-1.1.6,0,1.1.3,1.1.8l1,6.5c.1.8.7,1.5,1.4,1.8.5.2.8.8.6,1.3-.2.4-.5.6-.9.6h0Z"/>
            <path class="st0" d="M95.1,83.4c-.4,0-.8,0-1.3-.1-.5,0-.9-.6-.8-1.2,0-.5.6-.9,1.1-.8,2.6.4,3-.9,3.1-1.2.1-.5.7-.9,1.2-.7s.9.6.8,1.2c-.2,1.1-1.4,2.8-4.1,2.8h0Z"/>
            <path class="st0" d="M126.5,61c-.4,0-.8-.2-.9-.6-1.1-2.7-1.2-5.1-.3-7.2,1.3-3,4.3-4.1,4.4-4.2.5-.2,1.1,0,1.3.6s0,1.1-.6,1.3c0,0-2.3.9-3.3,3.1-.7,1.6-.6,3.5.3,5.6.2.5,0,1.1-.5,1.3-.1,0-.2,0-.4,0Z"/>
            <path class="st0" d="M84.7,76.4c.3,1.2-.1,2.2-.9,2.4s-1.6-.6-1.8-1.8.1-2.2.9-2.4,1.6.6,1.8,1.8Z"/>
            <path class="st0" d="M99.8,70.5c.3,1.2-.1,2.2-.9,2.4s-1.6-.6-1.8-1.8.1-2.2.9-2.4,1.6.6,1.8,1.8Z"/>
          </g>
          <g>
            <path class="st1" d="M174.1,82.8c-1.6,1-13.8,8.9-22.7,14.6,0,0-4,2.6-9.2,5.9-8.9,5.7-21.1,13.5-22.7,14.6l20.4,61.4c3.8,11.5,17.4,16.3,27.6,9.8l21.1-13.5,9.2-5.9,21.1-13.5c10.2-6.5,11.5-20.9,2.6-29.2l-47.3-44.1h0Z"/>
            <polygon class="st1" points="147.7 156.2 95.4 145.2 92.2 154.7 145.4 184.3 147.7 156.2"/>
            <polygon class="st1" points="97.6 150.1 86.3 159.3 75.1 168.5 79.9 146.2 84.8 123.9 91.2 137 97.6 150.1"/>
            <path class="st1" d="M213.5,126.5l-35.9-24.9,1.6-5.9c1.9-7,7.3-12.4,14.2-14.4,7-2,14.3-.3,19.7,4.6l3.6,3.3c7.6,6.8,9,18.1,3.5,26.6l-6.9,10.7h0ZM179.9,100.8l33,22.9,5.8-8.9c5-7.7,3.7-17.9-3.2-24.1l-3.6-3.3c-4.9-4.4-11.5-5.9-17.8-4.1-6.3,1.8-11.1,6.7-12.9,13l-1.2,4.5h0Z"/>
          </g>
          <path class="st2" d="M273.1,84.7c0-.4-.3-.7-.7-.8l-72.3-22.9c-3.9-1.2-8.1.7-9.7,4.4l-4.4,10c-1.6,3.6-.7,7.9,2.2,10.6l3.9,3.5c.2.2.4.2.6.2.6,1.1,1.5,2.1,2.6,2.8,0,0,0,0,.1,0l4.7,2.1s0,0,0,0c.6,1.3,1.6,2.3,2.8,3.1,0,0,.1,0,.2.1l4.1,1.4c.2,1.4,1.3,2.7,2.8,3.1l3.8,1.1c.5.1,1,.2,1.4.2,1.8,0,3.5-.9,4.5-2.5l.7-1.1,1.7.3c5.3,1.7,11.1.5,15.3-3.2l.3-.3,22.7,15.4c.2.1.4.2.6.2s.1,0,.2,0c.1,0,15.4-3.6,11.7-27.8h0Z"/>
          <g>
            <path class="st0" d="M192.8,89.8c-.2,0-.5,0-.7-.3l-3.9-3.5c-2.9-2.7-3.8-6.9-2.2-10.6l4.4-10c1.6-3.7,5.8-5.6,9.7-4.4l72.3,22.9c.5.2.8.7.6,1.2-.2.5-.7.8-1.3.7l-72.3-22.9c-2.9-.9-6,.5-7.3,3.3l-4.4,10c-1.3,2.9-.6,6.2,1.8,8.3l3.9,3.5c.4.4.4,1,0,1.4-.2.2-.5.3-.7.3h0Z"/>
            <path class="st0" d="M200.6,94.8c-.1,0-.3,0-.4,0l-4.7-2.1s0,0-.1,0c-2.1-1.4-3.5-3.7-3.6-6.2v-1.4c-.2-1.8.1-3.5.9-5.1l4.7-10.1c.2-.5.8-.7,1.3-.5.5.2.7.8.5,1.3l-4.7,10.1c-.6,1.3-.9,2.7-.8,4.1v1.4c.2,1.8,1.2,3.6,2.8,4.6l4.7,2.1c.5.2.7.8.5,1.3-.2.4-.5.6-.9.6h0Z"/>
            <path class="st0" d="M208.2,99.6c-.1,0-.2,0-.3,0l-4.5-1.5c0,0-.1,0-.2-.1-2.1-1.4-3.5-3.7-3.6-6.2v-1.4c-.2-1.8.1-3.5.9-5.1l4.7-10.1c.2-.5.8-.7,1.3-.5.5.2.7.8.5,1.3l-4.7,10.1c-.6,1.3-.9,2.7-.8,4.1v1.4c.2,1.8,1.2,3.5,2.7,4.6l4.4,1.5c.5.2.8.8.6,1.3-.1.4-.5.7-.9.7h0Z"/>
            <path class="st0" d="M215.4,103.7c-.5,0-1,0-1.4-.2l-3.8-1.1c-1.6-.4-2.7-1.8-2.8-3.3l-.2-3.5c-.1-1.8.2-3.5,1-5.1l4.7-10.1c.2-.5.8-.7,1.3-.5.5.2.7.8.5,1.3l-4.7,10.1c-.6,1.3-.9,2.7-.8,4.1l.2,3.5c0,.7.6,1.3,1.3,1.5l3.8,1.1c1.4.4,2.9-.2,3.8-1.4l2.2-3.6c-.2-.7-1-2.5-4.7-2.3-.6,0-1-.4-1.1-.9s.4-1,.9-1.1c2.3-.1,4.1.4,5.3,1.5,1.4,1.3,1.5,2.8,1.5,3,0,.2,0,.4-.1.6l-2.4,3.9c-1,1.6-2.7,2.5-4.5,2.5h0Z"/>
            <path class="st0" d="M261.2,112.6c-.2,0-.4,0-.6-.2l-22.7-15.4-.3.3c-4.2,3.6-10,4.8-15.3,3.2l-2.2-.4c-.5,0-.9-.6-.8-1.2.1-.5.6-.9,1.2-.8l2.2.4s0,0,.1,0c4.6,1.5,9.7.4,13.4-2.8l.9-.8c.3-.3.8-.3,1.2,0l23.4,15.8c.5.3.6.9.3,1.4-.2.3-.5.4-.8.4h0Z"/>
          </g>
          <path class="st1" d="M213.5,126.5l-35.9-24.9,1.6-5.9,1.9.5-1.2,4.5,33,22.9,5.8-8.9c5-7.7,3.7-17.9-3.2-24l1.3-1.5c7.6,6.8,9,18,3.5,26.6l-6.9,10.7h0Z"/>
          <g>
            <g>
              <path class="st2" d="M17.9,221.3l6.1,1.3-4.8,3.2c-1.9,1.2-4.1,1.8-6.3,1.5h0c-2-.2-2.8-1.2-3.7-3.8l-4.2-13.9h3c2.2.2,4.1,1.3,5.2,3.2l4.8,8.5h0Z"/>
              <path class="st0" d="M14,228.4c-.4,0-.9,0-1.3,0-2.7-.3-3.6-1.8-4.6-4.5l-4.2-13.9c0-.3,0-.6.2-.9.2-.3.5-.4.8-.4h3c2.5.2,4.8,1.6,6,3.7l4.6,8.1,5.7,1.2c.4,0,.7.4.8.8,0,.4,0,.8-.4,1l-4.8,3.2c-1.7,1.1-3.7,1.7-5.7,1.7h0ZM6.3,210.7l3.8,12.6c.8,2.4,1.5,2.9,2.9,3.1,2,.2,4-.2,5.7-1.3l2.9-1.9-3.8-.8c-.3,0-.5-.2-.7-.5l-4.8-8.5c-.9-1.6-2.6-2.6-4.4-2.6h-1.6c0,0,0,0,0,0Z"/>
            </g>
            <g>
              <path class="st2" d="M26,223.1l6.1,1.3-4.8,3.2c-1.9,1.2-4.1,1.8-6.3,1.5h0c-2-.2-3.5-1.8-3.7-3.8l-2.1-17,4.1.7c2.1.3,3.8,1.9,4.4,4l2.4,10.1h0Z"/>
              <path class="st0" d="M22.1,230.2c-.4,0-.9,0-1.3,0-2.4-.3-4.3-2.2-4.6-4.7l-2.1-17c0-.3,0-.6.3-.8s.5-.3.9-.3l4.1.7c2.5.4,4.5,2.2,5.2,4.7l2.2,9.5,5.5,1.2c.4,0,.7.4.8.8,0,.4,0,.8-.4,1l-4.8,3.2c-1.7,1.1-3.7,1.7-5.7,1.7h0ZM16.3,209.5l1.9,15.6c.2,1.5,1.4,2.8,2.9,2.9,2,.2,4-.2,5.7-1.3l2.9-1.9-3.8-.8c-.4,0-.7-.4-.8-.8l-2.4-10.1c-.4-1.7-1.8-2.9-3.6-3.2l-2.8-.4h0Z"/>
            </g>
            <g>
              <path class="st2" d="M34,224.8l6.1,1.3-4.8,3.2c-1.9,1.2-4.1,1.8-6.3,1.5h0c-2-.2-3.5-1.8-3.7-3.8l-1.8-15.5,4.1.7c2.1.3,3.8,1.9,4.4,4l2.1,8.7h0Z"/>
              <path class="st0" d="M30.2,231.9c-.4,0-.9,0-1.3,0-2.4-.3-4.4-2.2-4.6-4.7l-1.8-15.5c0-.3,0-.6.3-.8.2-.2.5-.3.9-.3l4.1.7c2.5.4,4.5,2.2,5.2,4.7l2,8.1,5.5,1.2c.4,0,.7.4.8.8,0,.4,0,.8-.4,1l-4.8,3.2c-1.7,1.1-3.7,1.7-5.7,1.7h0ZM24.6,212.7l1.7,14.2c.2,1.5,1.3,2.7,2.9,2.9,2,.2,4-.2,5.7-1.3l2.9-1.9-3.8-.8c-.4,0-.7-.4-.8-.7l-2.1-8.7c-.4-1.7-1.8-2.9-3.6-3.2l-2.8-.4h0Z"/>
            </g>
            <g>
              <path class="st2" d="M41.7,226.5l6.1,1.3-4.8,3.2c-1.9,1.2-4.1,1.8-6.3,1.5h0c-2-.2-3.5-1.8-3.7-3.8l-1.4-13.4,4.1.7c2.1.3,3.8,1.9,4.4,4l1.8,6.6h0Z"/>
              <path class="st0" d="M37.8,233.6c-.4,0-.9,0-1.3,0-2.4-.3-4.3-2.2-4.6-4.7l-1.4-13.4c0-.3,0-.6.3-.8s.5-.3.9-.3l4.1.7c2.5.4,4.5,2.2,5.2,4.7l1.6,6,5.5,1.2c.4,0,.7.4.8.8,0,.4,0,.8-.4,1l-4.8,3.2c-1.7,1.1-3.7,1.7-5.7,1.7h0ZM32.6,216.4l1.3,12.1c.2,1.5,1.3,2.7,2.9,2.9,2,.3,4-.2,5.7-1.3l2.9-1.9-3.8-.8c-.4,0-.7-.4-.8-.7l-1.8-6.6c-.4-1.7-1.9-2.9-3.6-3.2l-2.8-.4h0Z"/>
            </g>
          </g>
          <circle class="st0" cx="118.6" cy="21" r="20.9" transform="translate(1.2 47.6) rotate(-22.8)"/>
          <g>
            <path class="st2" d="M151.6,247.6l1-42.9,65.7-17.1,9.5,9.2c12,11.6,19.9,26.8,22.4,43.4l1.1,7.4h-99.8,0Z"/>
            <path class="st0" d="M251.4,248.6c-.5,0-.9-.4-1-.9l-1.1-7.4c-2.5-16.2-10.3-31.4-22.1-42.8l-9.1-8.8-64.5,16.7-1,42.1c0,.6-.5,1-1,1-.6,0-1-.5-1-1l1-42.9c0-.4.3-.8.8-.9l65.7-17.1c.3,0,.7,0,.9.2l9.5,9.2c12.1,11.7,20.2,27.3,22.7,43.9l1.1,7.4c0,.6-.3,1.1-.8,1.1,0,0-.1,0-.1,0h0Z"/>
          </g>
          <g>
            <g>
              <g>
                <path class="st2" d="M15.4,161.1c-3.5,0-6.8-1.4-9.2-3.8-3.4-3.4-4.7-8.6-3.2-13.2,1.3-.4,2.6-.6,4-.6,3.5,0,6.8,1.4,9.2,3.8,3.4,3.4,4.7,8.6,3.2,13.2-1.3.4-2.6.6-4,.6h0Z"/>
                <path class="st0" d="M7,144.5c3.2,0,6.2,1.2,8.5,3.5,3.1,3.1,4.2,7.6,3.1,11.7-1,.3-2.1.4-3.2.4-3.2,0-6.2-1.2-8.5-3.5-3.1-3.1-4.2-7.6-3.1-11.7,1-.3,2.1-.4,3.2-.4h0ZM7,142.5c-1.6,0-3.2.3-4.8.8-1.8,5-.7,10.7,3.3,14.7,2.7,2.7,6.3,4.1,9.9,4.1s3.2-.3,4.8-.8c1.8-5,.7-10.7-3.3-14.7-2.7-2.7-6.3-4.1-9.9-4.1h0Z"/>
              </g>
              <g>
                <path class="st2" d="M45.7,161.1c-1.4,0-2.7-.2-4-.6-1.5-4.6-.2-9.8,3.2-13.2,2.5-2.5,5.7-3.8,9.2-3.8s2.7.2,4,.6c1.5,4.6.2,9.8-3.2,13.2-2.5,2.5-5.7,3.8-9.2,3.8h0Z"/>
                <path class="st0" d="M54.1,144.5c1.1,0,2.2.1,3.2.4,1.1,4.1,0,8.7-3.1,11.7-2.3,2.3-5.3,3.5-8.5,3.5s-2.2-.1-3.2-.4c-1.1-4.1,0-8.7,3.1-11.7,2.3-2.3,5.3-3.5,8.5-3.5h0ZM54.1,142.5c-3.6,0-7.2,1.4-9.9,4.1-4,4-5.1,9.8-3.3,14.7,1.5.6,3.2.8,4.8.8,3.6,0,7.2-1.4,9.9-4.1,4-4,5.1-9.8,3.3-14.7-1.5-.6-3.2-.8-4.8-.8h0Z"/>
              </g>
            </g>
            <path class="st0" d="M30.6,178.2c-.6,0-1-.4-1-1v-45c0-.6.4-1,1-1s1,.4,1,1v45c0,.6-.4,1-1,1Z"/>
            <g>
              <g>
                <path class="st2" d="M29.9,171.6l27.5-27.5-27.5,27.5Z"/>
                <path class="st0" d="M29.9,172.6c-.3,0-.5-.1-.7-.3-.4-.4-.4-1,0-1.4l27.5-27.5c.4-.4,1-.4,1.4,0s.4,1,0,1.4l-27.5,27.5c-.2.2-.4.3-.7.3h0Z"/>
              </g>
              <g>
                <path class="st2" d="M29.9,171.6l-26.2-26.2,26.2,26.2Z"/>
                <path class="st0" d="M29.9,172.6c-.3,0-.5-.1-.7-.3l-26.2-26.2c-.4-.4-.4-1,0-1.4s1-.4,1.4,0l26.2,26.2c.4.4.4,1,0,1.4-.2.2-.4.3-.7.3h0Z"/>
              </g>
            </g>
            <g>
              <path class="st2" d="M60.1,175.7l-5.6,44.8c0,3.4-2.5,6.2-5.6,6.2H12.3c-3.1,0-5.6-2.8-5.6-6.2L1,175.7s60.1-1,59.1,0h0Z"/>
              <path class="st0" d="M48.8,227.7H12.3c-3.6,0-6.6-3.2-6.6-7.1L0,175.8c0-.3,0-.6.2-.8.2-.2.5-.3.7-.3s14.9-.2,29.4-.4c30.1-.2,30.3,0,30.6.9,0,.2.1.4,0,.6l-5.6,44.7c0,3.9-3,7.1-6.6,7.1h0ZM2.1,176.7l5.5,43.7h0c0,3,2.1,5.3,4.6,5.3h36.6c2.6,0,4.6-2.3,4.6-5.2h0c0-.1,5.5-44,5.5-44-5.4-.4-35.8-.1-56.9.2h0Z"/>
            </g>
            <path class="st0" d="M51.8,186.4H3c-.6,0-1-.4-1-1s.4-1,1-1h48.8c.6,0,1,.4,1,1s-.4,1-1,1Z"/>
          </g>
        </g>
      </g>
    </g>
  </g>
</svg>