<?xml version="1.0" encoding="UTF-8"?>
<svg id="Layer_1" xmlns="http://www.w3.org/2000/svg" version="1.1" viewBox="0 0 310.6 232.3">
  <!-- Generator: Adobe Illustrator 29.2.0, SVG Export Plug-In . SVG Version: 2.1.0 Build 108)  -->
  <defs>
    <style>
      .st0 {
        fill: #303030;
      }

      .st1 {
        fill: #26a8df;
      }

      .st2 {
        fill: #fafafa;
      }
    </style>
  </defs>
  <g id="Layer_2">
    <g id="_Layer_">
      <g>
        <path class="st1" d="M308.9,230.5h-84.1l8.3-74.7c1-8.8,7.5-16.1,16.1-18.2h0c3.6-.8,7.3-.7,10.9.3l26.5,8,23.9,17.6s-2,67.2-1.7,66.8Z"/>
        <path class="st1" d="M100.7,28.2v56c0,6.8,5.5,12.3,12.3,12.3h93.9c6.8,0,12.3-5.5,12.3-12.3v-6.2h21.6l-21.6-21.6v-28.3c0-6.8-5.5-12.3-12.3-12.3h-93.9c-6.8,0-12.3,5.5-12.3,12.3h0Z"/>
        <g>
          <g>
            <path class="st2" d="M296.1,151.8l5.2-56.6-28.6-2.6-4.4,48.3-3.2-.6c-8.5,5.5-13.1,14.2-10.6,22,3.2,9.9,16.6,14.4,30.1,10.1,8.4-2.7,14.9-8.3,17.6-14.5l-6.1-6.1h0Z"/>
            <path class="st0" d="M274.4,175c-9.9,0-18.4-4.7-20.9-12.4-2.5-7.9,1.9-17.2,11-23.1.2-.1.5-.2.7-.1l2.1.4,4.3-47.2c0-.5.5-1,1.1-.9l28.6,2.6c.3,0,.5.2.7.4.2.2.2.5.2.7l-5.1,56.1,5.8,5.8c.3.3.4.7.2,1.1-3,6.7-9.9,12.3-18.2,15.1-3.5,1.1-7.1,1.7-10.5,1.7h0ZM265.2,141.4c-8.1,5.4-12.1,13.7-9.8,20.6,3,9.4,15.9,13.6,28.8,9.5,7.6-2.5,13.8-7.4,16.8-13.4l-5.6-5.6c-.2-.2-.3-.5-.3-.8l5.1-55.6-26.6-2.4-4.3,47.3c0,.3-.2.5-.4.7s-.5.2-.8.2l-2.8-.5h0Z"/>
          </g>
          <path class="st0" d="M280.2,61.5l-1.1,4.4c-.6,0-1.3,0-1.9.2-1.4,4.5-2.1,9.3-2.1,14.3,0,15.5,10.6,35.5,23.9,35.9.9,0,11.1-11.5,10.8-22.2v-4.4c-.5-15.9-13.8-28.5-29.6-28.2h0Z"/>
          <path class="st0" d="M288.6,94.4c-.9-8.2-6.7-15.5-14.5-17.2h0c-4.9-1.1-9.5.2-13,3.1,2.2-.5,8.5-1.4,11,2.2,3,4.4,6.1,13.7,16.5,11.9h0Z"/>
          <path class="st0" d="M248.4,82.1c.1,6.4,5.5,11.5,11.8,11.3,6.4-.2,11.5-5.5,11.3-11.8-.1-6.4-5.5-11.5-11.8-11.3-6.4.2-11.5,5.5-11.3,11.8Z"/>
          <path class="st0" d="M284.8,65c12.5,1.3,22.5,11.5,23.3,24.3-2.8,1.9-6.2,3.1-9.9,3.2-9.6.2-17.6-7-17.8-16.2-.1-4.4,1.6-8.4,4.4-11.4Z"/>
          <path class="st0" d="M268.2,73.4c.1,6.4,5.5,11.5,11.8,11.3,6.4-.2,11.5-5.5,11.3-11.8-.1-6.4-5.5-11.5-11.8-11.3-6.4.2-11.5,5.5-11.3,11.8Z"/>
          <path class="st0" d="M254.8,74.3c.1,6.6,5.6,11.8,12.2,11.6s11.8-5.6,11.6-12.2-5.6-11.8-12.2-11.6-11.8,5.6-11.6,12.2Z"/>
          <path class="st0" d="M297.6,74.1c0,0-.2,0-.2,0-.5-.1-.9-.7-.7-1.2,1.1-4.2,5.7-5.3,5.9-5.3.5-.1,1.1.2,1.2.8.1.5-.2,1.1-.8,1.2,0,0-3.7.9-4.4,3.9-.1.5-.5.8-1,.8h0Z"/>
          <path class="st0" d="M297.1,73.8c-.3,0-.6-.2-.8-.4-.3-.5-.2-1.1.3-1.4,2.6-1.7,2.2-5.5,2.2-5.5,0-.5.3-1,.9-1.1.5,0,1,.3,1.1.9,0,.2.6,5-3,7.4-.2.1-.4.2-.6.2h0Z"/>
          <g>
            <path class="st2" d="M294.8,100.4h0c-.7-3.5-3.8-5.8-7.2-5.8-.7-8-6.6-14.8-14.9-16.2h0c-9.8-1.7-19.1,4.9-20.8,14.7l-.3,2c-2-.1-3.8,1.3-4.1,3.3h0c-.3,2,.9,3.8,2.8,4.4l-.7,3.9c1.9.6,4.1.9,6.4.9s2.1,0,3.1-.2c-2.1,2.2-5.9,3.7-10.2,4.1-.6,9.1,5.7,17.3,14.9,18.9,9.8,1.7,19.1-4.9,20.8-14.7l1-5.9,3.6-.8c3.9-.8,6.4-4.7,5.6-8.6h0Z"/>
            <path class="st0" d="M266.9,131.6c-1.1,0-2.2,0-3.2-.3-9.6-1.7-16.4-10.2-15.7-20,0-.5.4-.9.9-.9,2.6-.2,5-.9,7-1.9-2.2,0-4.4-.3-6.4-.9-.5-.1-.8-.6-.7-1.1l.5-3.1c-1.9-.9-3-3-2.7-5.2.4-2.2,2.1-3.8,4.2-4.1l.2-1.2c.9-5,3.6-9.4,7.8-12.3s9.2-4.1,14.2-3.2c8.2,1.4,14.5,8,15.6,16.2,3.5.3,6.5,3,7.3,6.5.5,2.2,0,4.4-1.2,6.2s-3,3.1-5.2,3.6l-2.9.6-.9,5.2c-.9,5-3.6,9.4-7.8,12.3-3.2,2.3-7,3.5-10.9,3.5h0ZM249.9,112.3c-.2,8.4,5.8,15.6,14.1,17,4.5.8,9-.3,12.7-2.9,3.7-2.6,6.2-6.5,6.9-11l1-5.9c0-.4.4-.7.8-.8l3.6-.8c1.6-.3,3-1.3,4-2.7.9-1.4,1.2-3.1.9-4.7h0c-.6-2.9-3.2-5-6.2-5-.5,0-1-.4-1-.9-.6-7.7-6.4-14-14.1-15.3-4.5-.8-9,.2-12.7,2.9-3.7,2.6-6.2,6.5-6.9,11l-.3,2c0,.5-.5.8-1,.8-1.5,0-2.8,1-3.1,2.4-.2,1.5.7,2.9,2.1,3.3.5.1.8.6.7,1.1l-.5,3c2.6.6,5.4.8,8.2.4.4,0,.8.2,1,.5s.1.8-.2,1.2c-2.2,2.2-5.8,3.8-10,4.3h0Z"/>
          </g>
          <path class="st0" d="M290,110.7c-.5,0-.9-.3-1-.8-.1-.5.2-1.1.8-1.2,3.4-.7,5.5-4,4.8-7.4-.1-.5.2-1.1.8-1.2s1.1.2,1.2.8c.9,4.5-1.9,8.8-6.4,9.8,0,0-.1,0-.2,0h0Z"/>
          <path class="st0" d="M287,105.1c-.5,0-1-.4-1-.9-.3-3.7,2.8-5.3,2.9-5.3.5-.2,1.1,0,1.3.5.2.5,0,1.1-.5,1.3,0,0-2,1.1-1.8,3.4,0,.5-.4,1-.9,1.1h0,0Z"/>
          <path class="st0" d="M256.2,95.5c0,1,.6,1.8,1.5,1.8.8,0,1.5-.8,1.5-1.8s-.6-1.8-1.5-1.8c-.8,0-1.5.8-1.5,1.8Z"/>
          <path class="st0" d="M258.1,89.3c-.3.6.7,1.7,2.3,2.5s3,1,3.3.5-.7-1.7-2.3-2.5c-1.5-.8-3-1-3.3-.5Z"/>
          <path class="st0" d="M278.4,79.6c7.3.2,13.6,6.4,14.8,14.8-1.5,1.4-3.3,2.4-5.5,2.6-5.5.6-10.5-3.7-11.2-9.7-.3-2.8.4-5.6,1.8-7.7h0Z"/>
        </g>
        <ellipse class="st0" cx="216.2" cy="135.2" rx="15.1" ry="18.3" transform="translate(76.9 348.8) rotate(-88.9)"/>
        <g>
          <path class="st2" d="M251.3,148.1c-16.1-23.6-39.4-12.2-43.1-8.5-.9.9-1.7,1.7-2.6,2.5-1.6,1.2-3,2.5-4.3,3.9-3.2,2.6-6,4.2-8.8,3.9-1.9-.2-5.7,6.1-7,13.8,4,0,7.8-.7,11.4-1.7-2.8,3.8-7,6.4-11.9,7.6.1,7.4,3.1,14.8,12.4,18.2,0,0,5.2,2.7,11.4,3.2v28.9c.1,0,31.2-.1,31.2-.1l1.8-26.3c.5-.3,1-.6,1.5-1,14.6-10.5,17.9-30.2,8.1-44.5h0Z"/>
          <path class="st0" d="M208.9,221c-.5,0-1-.4-1-1v-28c-5.7-.7-10.3-2.9-10.9-3.2-10.6-3.9-13-12.6-13-19.2,0-.5.3-.9.8-1,3.7-.9,6.8-2.6,9.3-4.9-2.7.6-5.6.9-8.5,1-.3,0-.6-.1-.8-.3s-.3-.5-.2-.8c1.2-7.1,5.1-15,8.1-14.6,2.2.2,4.6-.9,8-3.7,1.3-1.4,2.8-2.7,4.3-3.9.8-.8,1.6-1.6,2.5-2.5,2.6-2.6,11.7-7.1,21.7-6.2,9.1.9,16.9,5.8,23,14.8,10.3,15,6.6,35.2-8.3,45.9-.4.3-.7.5-1.1.7l-1.7,25.8c0,.5-.5.9-1,.9h-31.1c0,.1,0,.1,0,.1ZM240,219.9h0ZM186,170.4c.3,5.9,2.6,13.2,11.8,16.5,0,0,0,0,.1,0,0,0,5.1,2.6,11,3.1.5,0,.9.5.9,1v27.9c.1,0,29.2-.1,29.2-.1l1.7-25.4c0-.3.2-.6.5-.8.5-.3,1-.6,1.4-1,14-10.1,17.5-29,7.8-43.2h0c-5.8-8.5-13-13.2-21.5-14-10-.9-18.3,3.9-20.1,5.6-.9.9-1.7,1.7-2.6,2.5,0,0,0,0,0,0-1.5,1.2-2.9,2.4-4.1,3.8,0,0,0,0-.1,0-3.8,3.2-6.8,4.5-9.5,4.2-1,0-4.2,4.8-5.7,11.8,3.5-.2,6.8-.7,9.9-1.6.4-.1.9,0,1.1.4.2.3.2.8,0,1.2-2.7,3.7-6.8,6.4-11.7,7.8h0Z"/>
        </g>
        <circle class="st0" cx="203.4" cy="210.8" r="16.2" transform="translate(-89.5 205.5) rotate(-45)"/>
        <g>
          <path class="st2" d="M76.3,105.6c0-.5-.5-1-1-1h-4.6c-4.5,0-8.2-3.7-8.2-8.2v-36.7c0-4.5,3.7-8.2,8.2-8.2h66.2c4.5,0,8.2,3.7,8.2,8.2v36.7c0,4.5-3.7,8.2-8.2,8.2h-45.5c-.3,0-.5.1-.7.3l-14.4,14.3v-13.6h0Z"/>
          <path class="st0" d="M136.8,52.5c4,0,7.2,3.2,7.2,7.2v36.7c0,4-3.2,7.2-7.2,7.2h-45.5c-.5,0-1,.2-1.4.6l-12.6,12.6v-11.2c0-1.1-.9-2-2-2h-4.6c-4,0-7.2-3.2-7.2-7.2v-36.7c0-4,3.2-7.2,7.2-7.2h66.2ZM136.8,50.5h-66.2c-5.1,0-9.2,4.1-9.2,9.2v36.7c0,5.1,4.1,9.2,9.2,9.2h4.6v16.1l16.1-16.1h45.5c5.1,0,9.2-4.1,9.2-9.2v-36.7c0-5.1-4.1-9.2-9.2-9.2h0Z"/>
        </g>
        <path class="st0" d="M108.8,82.8h66.2c5.1,0,9.2,4.1,9.2,9.2v36.7c0,5.1-4.1,9.2-9.2,9.2h-4.6v16.1l-16.1-16.1h-45.5c-5.1,0-9.2-4.1-9.2-9.2v-36.7c0-5.1,4.1-9.2,9.2-9.2h0Z"/>
        <path class="st0" d="M247.6,132.3c-10.1-5.8-22-5.7-31.9-.8,3,.8,6,2,8.8,3.6,19.2,11,24.7,37.3,12.4,58.9-.7,1.2-1.4,2.3-2.2,3.5,10.1-1.7,19.4-7.8,25-17.6,9.7-16.9,4.2-38.2-12.1-47.6h0Z"/>
        <path class="st0" d="M213.6,129.2s2.5,9.3,10.1,13.9c4,2.4-3.8,1.5-3.3,6.4,3.8,36.3,6.6,43.2,6.6,43.2.6,3.1,3.2,5.5,6.4,5.8l9.5,1,3.2-8.7,5.6-37.7s-19.1-28.7-38.1-23.9h0Z"/>
        <path class="st0" d="M213.8,150.1c-.2,0-.4,0-.5-.2-.5-.3-.6-.9-.3-1.4.4-.7.5-2.3-.2-3.8-.4-.9-1.3-2.5-3.4-2.8-.5,0-.9-.6-.8-1.2.1-.5.6-.9,1.2-.8,2.2.4,3.9,1.8,4.9,4,.9,2,.9,4.4,0,5.7-.2.3-.5.5-.8.5h0Z"/>
        <path class="st0" d="M205.4,150.8c-.9.5-1.8.4-2.2-.2s0-1.5.9-2c.9-.5,1.8-.4,2.2.2.3.6,0,1.5-.9,2Z"/>
        <path class="st0" d="M221.7,146.3s-13.3,9.3-11.8,16.1,13.5,8.4,11.9,20.1c-1.6,11.7-3.6,17.4-17.9,17.9-19,.6-22.8,4-23,14.6-.2,10.6,45.5-.8,45.5-.8,0,0,17-16.8-4.7-68h0Z"/>
        <circle class="st2" cx="220.7" cy="174.8" r="9.3" transform="translate(-59.5 201.9) rotate(-43.9)"/>
        <path class="st0" d="M216.3,177.7h0c-.5,0-1-.5-1-1,0-4.6,7-6.5,7.3-6.6.5-.2,1.1.2,1.2.7s-.2,1.1-.7,1.2c-1.6.5-5.8,2.2-5.8,4.7,0,.5-.5,1-1,1h0Z"/>
        <circle class="st0" cx="263.1" cy="204.1" r="16" transform="translate(-68.7 232.1) rotate(-42.6)"/>
        <g>
          <path class="st2" d="M294.5,231c-4.4-6.1-11.4-10.7-19.9-12.3l-74.2-14.4c-14-2.7-28.4,2.6-36.1,13.3-3,4.2-6.3,8.7-9.8,13.4h140Z"/>
          <path class="st0" d="M294.5,232c-.3,0-.6-.2-.8-.4-4.4-6.1-11.2-10.4-19.2-11.9l-74.2-14.4c-13.6-2.6-27.7,2.6-35.1,12.9-2.8,3.9-6,8.3-9.8,13.4-.3.4-1,.5-1.4.2-.4-.3-.5-1-.2-1.4,3.8-5.1,7-9.5,9.8-13.4,7.9-11,22.8-16.5,37.1-13.7l74.2,14.4c8.5,1.7,15.8,6.2,20.5,12.7.3.4.2,1.1-.2,1.4-.2.1-.4.2-.6.2h0Z"/>
        </g>
        <path class="st0" d="M231.6,126.8c9.1-4.5,40.5,5.7,36.4,37.8-2.1,16-6.2,40-1.5,48.2,4.8,8.3,4.2,2.4-2.2,8.9s-30.9,4.1-35.5-.9-16.4-1.1,1.8-30.5c18.3-29.4.3-44.4-1.6-45.5-1.9-1.1-10.8-11.4,2.5-17.9h0Z"/>
        <circle class="st0" cx="237.7" cy="209.2" r="19.9" transform="translate(-18.5 23.1) rotate(-5.3)"/>
        <path class="st0" d="M22.8,122.9c1,6.6,8.3,10.9,16.2,9.6s13.5-7.6,12.5-14.2c-1-6.6-8.3-10.9-16.2-9.6s-13.5,7.6-12.5,14.2Z"/>
        <g>
          <path class="st2" d="M82.7,151.5c-5-.5-9.5-2.5-12.8-5.9,3.7.5,7.6.6,11.5.1-2.4-7.4-7-13.2-8.9-12.7-2.7.7-5.7-.5-9.2-2.7-1.5-1.2-3.1-2.3-4.8-3.3-.9-.7-1.9-1.4-2.9-2.2-4.2-3.2-28.9-11.2-41.6,14.3-7.1,14.3-2.7,31.5,10.4,40.7l-8.9,32.6,38.1-6.8,6.7-29.4c6.8-1,12.4-5,12.4-5,8.8-4.6,10.7-12.4,9.8-19.8h0Z"/>
          <path class="st0" d="M15.6,213.5c-.3,0-.6-.1-.7-.3-.2-.2-.3-.6-.2-.9l8.7-31.9c-13.1-9.7-17.4-27-10.1-41.6,4.8-9.7,11.8-15.7,20.7-17.8,9.8-2.3,19.4.9,22.3,3.2,1,.7,1.9,1.4,2.8,2.1,1.7,1,3.3,2.1,4.8,3.3,3.7,2.3,6.3,3.1,8.4,2.5,3-.8,7.9,6.5,10.1,13.4,0,.3,0,.6-.1.8-.2.2-.4.4-.7.5-2.9.3-5.8.4-8.6.2,2.7,2,6.1,3.2,9.9,3.6.5,0,.8.4.9.9.8,6.5-.3,15.4-10.3,20.8-.6.4-5.7,3.9-12.1,5.1l-6.6,28.8c0,.4-.4.7-.8.8l-38.1,6.8c0,0-.1,0-.2,0h0ZM40.9,122.1c-2.1,0-4.3.2-6.5.7-8.3,2-14.9,7.6-19.4,16.8-6.9,13.9-2.7,30.5,10.1,39.5.3.2.5.7.4,1.1l-8.4,31.1,35.9-6.4,6.6-28.8c0-.4.4-.7.8-.8,6.5-1,11.9-4.8,12-4.9,0,0,0,0,.1,0,8.6-4.6,9.9-12.2,9.4-18-5.1-.7-9.4-2.8-12.6-6.1-.3-.3-.4-.8-.2-1.2.2-.4.6-.6,1-.5,3.2.5,6.6.5,10,.2-2.4-6.7-6.2-10.9-7.3-10.9h0c-2.7.7-5.8-.2-10-2.8,0,0,0,0-.1,0-1.4-1.2-3-2.2-4.6-3.2,0,0,0,0-.1,0-.9-.7-1.9-1.4-2.9-2.2-1.5-1.2-7.2-3.5-14.1-3.5h0Z"/>
        </g>
        <path class="st0" d="M15.5,123c9.2-7.1,21-8.6,31.5-5.1-2.9,1.2-5.7,2.8-8.2,4.7-17.5,13.5-19.3,40.3-4.2,60,.8,1.1,1.7,2.1,2.6,3.1-10.2-.3-20.3-5.1-27.2-14-11.9-15.4-9.4-37.3,5.5-48.8h0Z"/>
        <path class="st0" d="M48.8,115.4s-1.2,9.5-8.1,15.1c-3.6,3,3.9,1,4.1,5.9,1.2,36.5-.6,43.7-.6,43.7-.2,3.2-2.4,5.9-5.5,6.6l-16,1.2.9-5.3-9.2-38.4s15-31,34.5-28.9h0Z"/>
        <path class="st0" d="M51.6,137.3c-.2,0-.5,0-.7-.3-1-.9-1.6-2.9-1.4-4.9.1-2.1,1-3.8,2.5-4.8.5-.3,1.1-.2,1.4.3.3.5.2,1.1-.3,1.4-1.3.9-1.6,2.4-1.6,3.3-.1,1.6.4,2.9.8,3.3.4.4.4,1,0,1.4-.2.2-.5.3-.7.3h0Z"/>
        <path class="st0" d="M59.9,135.6c.9.3,1.9.1,2.1-.5s-.3-1.5-1.2-1.8c-.9-.3-1.9-.1-2.1.5s.3,1.5,1.2,1.8Z"/>
        <path class="st2" d="M57.3,159.7c.8,5.1-2.7,9.9-7.8,10.7-5.1.8-9.9-2.7-10.7-7.8-.8-5.1,2.7-9.9,7.8-10.7,5.1-.8,9.9,2.7,10.7,7.8Z"/>
        <path class="st0" d="M52.6,163.8c-.5,0-.9-.3-1-.8-.4-2.5-4.8-3.7-6.4-3.9-.6,0-.9-.6-.9-1.1,0-.5.6-.9,1.1-.9.3,0,7.4,1.1,8.1,5.6,0,.5-.3,1.1-.8,1.1,0,0-.1,0-.2,0h0Z"/>
        <circle class="st0" cx="258.5" cy="213.8" r="18.5" transform="translate(-76.4 233) rotate(-42.9)"/>
        <polygon class="st0" points="39.7 142.5 53.6 150.7 51.3 154.5 40 150.5 39.7 142.5"/>
        <path class="st0" d="M10.7,143.3c-.2,0-.4,0-.6-.2-1.9-1.5-7.2-.7-8.9-.2-.5.1-1.1-.2-1.2-.7s.2-1.1.7-1.2c.8-.2,7.7-1.8,10.6.6.4.3.5,1,.1,1.4-.2.2-.5.4-.8.4h0Z"/>
        <path class="st0" d="M10.6,142c-2.3,0-7.3-.3-9.2-2.7-.4-.4-.3-1.1.1-1.4s1.1-.3,1.4.2c1.5,1.9,6.9,2,8.7,2,.6,0,1,.4,1.1,1s-.4,1-.9,1c-.1,0-.5,0-1.1,0h0Z"/>
        <path class="st0" d="M6.8,231v-33.2h38.7c17.2,0,33.7,6.8,45.9,19l14.5,14.4s-98.2-.2-99.1-.2h0Z"/>
        <path class="st2" d="M156.2,118.2c-.7,0-1.4,0-2.2,0-2.9-.2-4.9-1.6-6-3.8-.4.3-.9.6-1.3.9-4.4,2.8-7.5,2-9.3.7-1.3-.9-2.2-2.2-2.9-3.6-1,.8-2,1.5-3,2.1-3.7,2.1-7,2.2-9.4.2-1-.9-1.8-1.9-2.1-3.2-2.5.3-4.6.2-4.8.1-.5,0-1-.5-.9-1.1s.5-1,1.1-.9c0,0,2,.1,4.3-.1,0-1.5.2-3.1,1-4.8,1.3-2.9,3.8-5.8,6.2-5.4.8,0,2.3.7,2.8,3.6.3,2.1-.1,3.9-1.5,5.3-1.5,1.6-3.8,2.5-6.1,2.9.3.7.7,1.3,1.4,1.9,1.7,1.4,4.1,1.3,7.1-.4,1.1-.6,2.2-1.4,3.2-2.3-.5-1.8-.7-3.5-.4-4.7.6-2.8,4.7-7.9,7.3-7.9h0c.5,0,1.7.2,2,2.1.4,2.5-2.7,7.4-6.6,11.1.5,1.3,1.4,2.6,2.5,3.3,1.9,1.3,4.2,1.1,7-.7.7-.4,1.3-.9,1.8-1.3,0-.3,0-.6,0-.9-.2-4.3,2.3-9.7,4.8-10.2,1.3-.2,2.4.3,2.8,1.5.9,2.3-.7,6.5-5.3,10.4.6,1.9,2.1,2.9,4.5,3.1,8.8.8,11.5-3.7,11.6-3.8.3-.5.9-.6,1.4-.4.5.3.6.9.4,1.3-.1.2-2.9,4.9-11.4,4.9h0ZM152.8,103.1c0,0-.1,0-.2,0-1.1.2-3.2,3.9-3.2,7.5,3.4-3.2,4.2-6.1,3.8-7.2,0-.2-.1-.3-.4-.3h0ZM126.6,101.2c-1,0-2.9,1.8-4,4.3-.3.6-.8,2.1-.8,3.7,1.9-.4,3.8-1.1,5-2.3.9-1,1.2-2.2,1-3.7,0-.5-.4-1.8-1-1.9h-.1ZM140.6,99.7c-1,0-4.7,3.9-5.3,6.4-.1.6,0,1.6.1,2.7,3.3-3.4,5.5-7.3,5.3-8.6,0-.4-.1-.5-.1-.5h0Z"/>
        <g>
          <path class="st0" d="M170.2,64.4c-.3,0-.6-.1-.8-.4-3.8-4.8-8.3-8.8-13.5-12l-3.5-2.2c-9.6-6-13.9-17.8-10.2-28.5,4.3-12.8,18.2-19.7,31-15.4,10.8,3.6,17.6,14,16.6,25.4l-.4,4.1c-.5,6.1,0,12.2,1.5,18.1.1.5-.2,1.1-.7,1.2-.5.1-1.1-.2-1.2-.7-1.6-6.2-2.1-12.5-1.6-18.8l.4-4.1c.9-10.4-5.4-20-15.2-23.3-5.7-1.9-11.8-1.5-17.2,1.2s-9.4,7.3-11.3,13c-3.3,9.9.5,20.7,9.4,26.2l3.5,2.2c5.4,3.3,10.1,7.5,14,12.5.3.4.3,1.1-.2,1.4-.2.2-.4.2-.6.2h0Z"/>
          <path class="st0" d="M182.6,77c-1.4,0-2.7-.2-4.1-.7-3.2-1.1-5.9-3.4-7.4-6.4l-2.8-5.6c-.1-.2-.1-.5,0-.8,0-.2.3-.5.5-.6l21.1-10.5c.2-.1.5-.1.8,0,.2,0,.5.3.6.5l2.8,5.6c3.1,6.3.6,14-5.7,17.1-1.8.9-3.7,1.3-5.7,1.3h0ZM170.6,64.3l2.3,4.7c1.3,2.6,3.5,4.5,6.2,5.4s5.6.7,8.2-.6h0c2.6-1.3,4.5-3.5,5.4-6.2s.7-5.7-.6-8.2l-2.3-4.7-19.3,9.6h0Z"/>
          <path class="st0" d="M176.5,60.5c-.4,0-.7-.2-.9-.5l-7.9-15.9c-.7.3-1.4.5-2.1.7-4.6,1-8.1-.9-8.8-3.2-.4-1.4.2-3.2,3-4,4.4-1.4,8.5,3.7,8.7,3.9,0,0,0,0,0,0,1.2-.6,2.3-1.4,3.3-2.3-.3-.5-.5-.9-.7-1.2-2.1-3.5-3-5.7-2.1-8.7,1-3.1,2.9-4.8,5.3-4.7,2.1.1,3.9,1.8,4.2,3.9.7,3.9-1.3,8-4.3,11.1,3,5.7,8.2,16.6,8.4,17.2.2.5,0,1.1-.5,1.3-.5.2-1.1,0-1.3-.5,0-.1-5.2-10.9-8.1-16.7-1.1.9-2.2,1.7-3.4,2.3l7.9,15.8c.2.5,0,1.1-.5,1.3-.1,0-.3,0-.4,0h0ZM161.3,39.2c-.3,0-.6,0-.9.1-.5.1-1.9.7-1.7,1.6.3,1.1,2.7,2.6,6.4,1.8.5-.1,1-.3,1.6-.5-1-1.1-3.3-3.1-5.4-3.1ZM174.2,26.6c-1.3,0-2.4,1.2-3.1,3.3-.6,2.1-.2,3.6,1.9,7.1.1.2.3.5.4.8,2.4-2.6,3.9-5.8,3.3-8.9-.2-1.2-1.2-2.2-2.4-2.3h-.1,0Z"/>
        </g>
        <path class="st1" d="M90.7,89.8s-24.3-28.1-2-18.6c7.3,3.1-1.5,7.1-1.5,7.1,0,0,2.9-11.5,11.3-13.3,8.4-1.8,0,14.4-7.8,24.8h0Z"/>
        <path class="st0" d="M193.9,19.6c-.4,0-.8-.2-.9-.6-.2-.5,0-1.1.6-1.3l10-3.9c.5-.2,1.1,0,1.3.6.2.5,0,1.1-.6,1.3l-10,3.9c-.1,0-.2,0-.4,0h0Z"/>
        <path class="st0" d="M186.9,8.9c-.3,0-.5-.1-.7-.3-.4-.4-.3-1,0-1.4l7.6-6.9c.4-.4,1-.3,1.4,0,.4.4.3,1,0,1.4l-7.6,6.9c-.2.2-.4.3-.7.3Z"/>
        <path class="st0" d="M205.5,34.1c-.1,0-.2,0-.3,0l-9.9-3.2c-.5-.2-.8-.7-.6-1.3s.7-.8,1.3-.6l9.9,3.2c.5.2.8.7.6,1.3-.1.4-.5.7-1,.7h0Z"/>
      </g>
    </g>
  </g>
</svg>