<?xml version="1.0" encoding="UTF-8"?>
<svg id="Layer_1" xmlns="http://www.w3.org/2000/svg" version="1.1" viewBox="0 0 239.4 233.9">
  <!-- Generator: Adobe Illustrator 29.1.0, SVG Export Plug-In . SVG Version: 2.1.0 Build 142)  -->
  <defs>
    <style>
      .st0 {
        fill: #3e3e3e;
      }

      .st1 {
        fill: #303030;
      }

      .st2 {
        fill: #afd3f0;
      }

      .st3 {
        fill: #fafafa;
      }
    </style>
  </defs>
  <g id="Layer_2">
    <g id="_Layer_">
      <g>
        <g>
          <g>
            <path class="st2" d="M78,46.9l-29.4,138.8c-1,5.4-7.1,8.8-13.6,7.6l-11.9-2.1c-6.6-1.2-11.1-6.5-10.2-11.8L42.3,40.6l35.8,6.3h0Z"/>
            <g>
              <polygon class="st3" points="44 39.9 67.5 2.6 76.7 45.7 44 39.9"/>
              <path class="st1" d="M67,5.2l8.4,39.3-29.8-5.3L67,5.2h0ZM67.9,0l-25.6,40.7,35.6,6.3L67.9,0h0Z"/>
            </g>
            <polygon class="st0" points="55.4 19.9 72.8 23 67.9 0 55.4 19.9"/>
          </g>
          <g>
            <path class="st3" d="M79.4,232.9c0-.3-8.3-36-6.1-48.9v-.3c2-2.9,3.7-6.8,3.9-11.8,0-1.7,0-3.7.2-6,.7-16,1.9-42.7-2.6-48.8-3.8-5.2-11.2-9.8-16.5-10.4-2.1-.2-3.8.2-4.9,1.2-1.3,1.2-3,5.1-4.4,10.1-5.3-5.9-28.2-6.7-35.7-3.4-6.7,2.9-10.8,7.8-11.3,13.7-.5,5.1.9,9.6.9,9.8,0,.3.4.5.6.5h.2c-2.6,2.9-3,6.2-3.2,8.4-.5,4.6,4.2,8.6,4.4,8.7h0c-2.1,1.8-3.7,3.9-4.5,6-1.8,4.9,3.8,10.8,5,11.9,0,1.3,1.1,7.2,6.2,10.2,3.6,2.2,6.2,3.1,9.2,3.7h0v45.3c0,.2,0-.1.2,0,0,.1.3,0,.5,0h57.2c.2,0,.4.2.5,0s.2.2,0,0h0Z"/>
            <g>
              <path class="st1" d="M21.6,233.9c-.5,0-1-.4-1-1v-45.4c0-.6.5-1,1-1s1,.4,1,1v45.4c0,.6-.5,1-1,1Z"/>
              <path class="st1" d="M3.4,138.9c-.4,0-.8-.3-1-.7,0-.2-1.4-4.8-.9-9.9.5-6,4.6-11,11.5-14,7.7-3.4,31.3-2.5,36.3,3.7.4.4.3,1.1,0,1.4s-1.1.3-1.4-.2c-4.4-5.4-27-6.1-34-3.1-6.2,2.7-9.8,7.1-10.3,12.3-.4,4.7.9,9.1.9,9.1.2.5,0,1.1-.7,1.2h-.3v.2Z"/>
              <path class="st1" d="M5.3,156.5c-.2,0-.5,0-.7-.3-.2-.2-5-4.7-4.5-9.4.4-3.8,1.1-10.9,13.5-14,10-2.5,20.9-2.3,32.4.4.5.1.9.7.7,1.2,0,.5-.7.9-1.2.7-11.2-2.7-21.8-2.9-31.5-.5-10.9,2.7-11.6,8.7-11.9,12.3-.4,3.8,3.8,7.7,3.8,7.8.4.4.4,1,0,1.4s-.5.3-.7.3h.1Z"/>
              <path class="st1" d="M25.1,188.4h0c-5.1-.5-8.3-1.2-13.5-4.3-5.8-3.5-13.3-17.1-11.3-22.5,2.1-5.8,8.9-10,14.7-11.5,9.2-2.5,22.4-4.8,32.5-1.8.5.1.8.7.7,1.2s-.7.8-1.2.7c-9.7-2.8-22.5-.6-31.4,1.8-6.3,1.7-11.8,5.9-13.4,10.3-1.5,4.2,5,16.8,10.5,20.1,4.9,2.9,7.8,3.6,12.6,4,.5,0,1,.5.9,1.1,0,.5-.5.9-1,.9h0Z"/>
              <path class="st1" d="M52.9,165.6c-.3,0-.7-.2-.9-.5-.3-.5,0-1.1.3-1.4,0,0,4.7-2.9,4.9-6.2,0-1.4-.7-2.7-2.2-3.9-.4-.3-.5-1-.2-1.4s1-.5,1.4-.2c2.1,1.7,3.1,3.5,3,5.6-.2,4.4-5.6,7.7-5.8,7.8-.2.1-.3.1-.5.1h0Z"/>
              <path class="st1" d="M65.1,191c-.4,0-.7-.2-.9-.6-.2-.5,0-1.1.5-1.3.4-.2,10.3-4.9,10.8-17.3,0-1.7,0-3.7.2-6,.6-14.7,1.8-42.1-2.3-47.8-3.5-4.8-10.4-9.2-15.3-9.7-1.6-.2-2.8,0-3.6.8-2.3,2-6.6,16-7.3,28.2-.4,7.5.6,12.8,2.8,15.3.9,1,1.6,1,2,.9,4.3-1.2,9.2-18.7,11.3-29.4,0-.5.6-.9,1.2-.8.5,0,.9.6.8,1.2-.6,3-5.8,29.1-12.7,31-1,.3-2.5.2-4-1.5-2.7-3-3.8-8.6-3.4-16.8.7-12.5,5-27,8-29.6,1.2-1.1,3-1.5,5.2-1.3,5.4.6,12.9,5.3,16.7,10.5,4.5,6.2,3.4,33,2.7,49,0,2.3-.2,4.3-.2,6-.5,13.6-11.5,18.8-11.9,19h-.4l-.2.2Z"/>
              <path class="st1" d="M78.7,233.9c-.5,0-.9-.3-1-.8-.3-1.5-8.4-36.2-6.1-49.4,0-.5.6-.9,1.2-.8.5,0,.9.6.8,1.2-2.2,12.8,6,48.2,6.1,48.6,0,.5-.2,1.1-.8,1.2h-.2Z"/>
              <rect class="st1" x="26.3" y="185.9" width="2" height="36" transform="translate(-177.8 187.1) rotate(-77.7)"/>
              <path class="st2" d="M35.5,163.7c-16.5.2-20.9,7.5-21.7,10.1l-6.8,35.8c-1.2,5.3,3.2,10.8,9.7,12.2l11.8,2.6c6.5,1.4,12.8-1.7,13.9-7.1l9.8-51.2c.5-2.5-16.8-2.5-16.8-2.5h0Z"/>
              <g>
                <path class="st3" d="M31.7,223.8c-1,0-2-.1-2.9-.3l-11.8-2.6c-6-1.3-10-6.3-9-11l1.6-7.3,33.5,7.3-1.6,7.3c-.9,3.9-4.9,6.6-9.8,6.6h0Z"/>
                <path class="st1" d="M10.3,203.8l31.6,6.9-1.4,6.4c-.8,3.4-4.4,5.8-8.8,5.8s-1.8-.1-2.7-.3l-11.8-2.6c-2.7-.6-5.1-2-6.6-3.9-1.5-1.8-2-3.9-1.6-5.9l1.4-6.4h-.1ZM8.8,201.4l-1.8,8.3c-1.2,5.3,3.2,10.8,9.7,12.2l11.8,2.6c1.1.2,2.1.3,3.1.3,5.3,0,9.8-2.9,10.8-7.4l1.8-8.3-35.5-7.8h0Z"/>
              </g>
            </g>
          </g>
          <g>
            <path class="st1" d="M157.6,178.5l19.7,2.8c22.7,3.2,43.9-12.7,47.1-35.4l1.1-7.8c4-28.4-15.9-54.9-44.3-58.9l-3.3,7.5c-17.8-2.5-34.4,10-37,27.8l-5,35.3c-2,13.9,7.8,26.8,21.6,28.8h.1Z"/>
            <g>
              <polygon class="st3" points="155.5 231.9 131.3 148.5 181 132.7 205.2 206.2 155.5 231.9"/>
              <path class="st1" d="M155.5,232.9h-.4c-.3-.1-.5-.4-.6-.6l-24.2-83.4c-.1-.5.1-1.1.7-1.2l49.7-15.8c.5-.2,1.1.1,1.2.6l24.2,73.5c.1.5,0,1-.5,1.2l-49.7,25.7c-.1,0-.3.1-.5.1h.1ZM132.5,149.2l23.6,81.2,47.8-24.7-23.6-71.7-47.8,15.2h0Z"/>
            </g>
            <circle class="st1" cx="188.2" cy="96.3" r="19.7"/>
            <path class="st1" d="M186.1,86c20.7,5.7,34.6,25.6,32.3,47.4-5.2,2.5-11.2,3.5-17.5,2.6-16.2-2.3-27.6-16.7-25.4-32.1,1-7.3,5-13.6,10.6-17.9h0Z"/>
            <path class="st1" d="M213.5,113.3c8.6,19.7,1.7,43-16.6,54.9-5.2-2.5-9.8-6.6-13-12-8.4-14.1-4.3-31.9,9.1-39.9,6.4-3.8,13.7-4.7,20.6-3h-.1Z"/>
            <circle class="st1" cx="175.5" cy="98.4" r="19.7"/>
            <circle class="st1" cx="177.2" cy="99.2" r="34.3"/>
            <path class="st1" d="M154.8,88.2c-1.6,11.1,6.1,21.3,17.2,22.9,11.1,1.6,21.3-6.1,22.9-17.2,1.6-11.1-6.1-21.3-17.2-22.9-11.1-1.6-21.3,6.1-22.9,17.2Z"/>
            <path class="st1" d="M214.5,113.2c-.3,0-.6,0-.8-.4-.3-.4-.2-1.1.2-1.4,5.6-4.2,12.6-.8,12.9-.7.5.2.7.8.5,1.3s-.8.7-1.3.4c0,0-6.2-3-10.8.5-.2,0-.4.2-.6.2h0Z"/>
            <path class="st1" d="M215,112.3h-.9c-.5,0-1-.5-.9-1.1,0-.6.5-.9,1.1-.9,5.7.5,9.4-5.2,9.4-5.3.3-.5.9-.6,1.4-.3.5.3.6.9.3,1.4-.2.3-4,6.2-10.4,6.2h0Z"/>
            <g>
              <path class="st3" d="M126.8,116.1c13-25.8,41.2-37.9,63-26.9,18.4,9.3,26.4,32,20.6,54.4.5,0,1,.1,1.5.3,7.5,1.8,12.6,9.1,11.7,16.7-1,8.6-8.9,14.6-17.4,13.4-3.8-.5-7-2.4-9.3-5-14.6,16.4-36.4,22.6-54.1,13.7-21.8-11-29-40.8-16-66.6h0Z"/>
              <path class="st1" d="M160.1,187.8c-6.1,0-12.2-1.4-17.8-4.2-22.3-11.2-29.6-41.7-16.4-67.9,13.2-26.3,42.1-38.6,64.3-27.4,18.2,9.2,26.9,31.4,21.4,54.5.1,0,.3,0,.5.1,8,1.9,13.4,9.7,12.5,17.8-.5,4.4-2.8,8.3-6.3,11s-7.9,3.9-12.3,3.2c-3.4-.5-6.6-2.1-9.1-4.5-10.4,11.3-23.7,17.4-36.7,17.4h0ZM127.7,116.5h0c-12.7,25.3-5.7,54.6,15.5,65.3,16.9,8.5,38.1,3.1,52.9-13.5.2-.2.5-.3.8-.3h0c.3,0,.6.1.8.3,2.3,2.6,5.4,4.2,8.7,4.7,3.9.6,7.7-.5,10.8-2.8,3.1-2.4,5-5.8,5.5-9.7.8-7.1-4-14-10.9-15.6-.5-.1-1-.2-1.4-.2s-.5-.2-.7-.4-.2-.5-.1-.8c5.8-22.5-2.4-44.4-20.1-53.3-21.3-10.7-48.9,1.2-61.6,26.5h0l-.2-.2Z"/>
            </g>
            <path class="st1" d="M177.1,123.9c-1.3,1.6-3.2,2.2-4.2,1.4-1-.8-.8-2.8.5-4.4s3.2-2.2,4.2-1.4c1,.8.8,2.8-.5,4.4Z"/>
            <path class="st1" d="M152,110.8c-1.3,1.6-3.2,2.2-4.2,1.4-1-.8-.8-2.8.5-4.4s3.2-2.2,4.2-1.4c1,.8.8,2.8-.5,4.4Z"/>
            <path class="st1" d="M186.6,123.6c-.4,0-.8-.3-1-.7-1.3-4.8-6.8-6.6-6.9-6.6-.5-.2-.8-.7-.7-1.2s.7-.8,1.2-.7c.3,0,6.6,2.1,8.2,8,.1.5-.2,1.1-.7,1.2h-.3.2Z"/>
            <path class="st1" d="M158,141h-.1c-.6,0-14.4-1.5-19-6.3-.4-.4-.4-1,0-1.4s1-.4,1.4,0c4.1,4.3,17.6,5.7,17.8,5.7.5,0,1,.6.9,1.1,0,.5-.5.9-1,.9h0Z"/>
            <path class="st1" d="M149.9,122.4c-.2,0-.5,0-.7-.3-.4-.4-.4-1,0-1.4l12.6-12.8c-1.7-2.2-7.8-8.8-15.4-3.9-.5.3-1.1.2-1.4-.3-.3-.5-.2-1.1.3-1.4,10.5-6.7,18.6,5,18.6,5.1.3.4.2.9-.1,1.3l-13.2,13.4c-.2.2-.5.3-.7.3h0Z"/>
            <path class="st1" d="M205,123.6l-13.6,27.2c-.4.9-.4,1.9,0,2.7h0c.9,1.7,3,2.2,4.5,1l14.5-10.9-5.4-20h0Z"/>
            <path class="st1" d="M202.4,158.5h-.4c-.5-.2-.8-.8-.6-1.3,0-.3,2.4-6.3,8.2-7.5.5-.1,1.1.2,1.2.8.1.5-.2,1.1-.8,1.2-4.7,1-6.7,6.2-6.7,6.3-.1.4-.5.6-.9.6h0Z"/>
            <path class="st1" d="M218.5,104c6,9.9,8.7,21.8,7,34.1l-.8,5.9c-2.1.4-4.3.5-6.5.1-11.1-1.6-18.8-11.8-17.2-22.9,1.3-9.3,8.7-16.2,17.6-17.2h-.1Z"/>
          </g>
          <path class="st1" d="M91.7,232.5c1.6-1.2,37.2-17.4,62.6-29,16.4-7.4,35.1-7.8,51.8-1h0c12.8,5.2,23.6,14.4,30.9,26.2l2.4,3.8H91.7Z"/>
        </g>
        <path class="st1" d="M14,171.8c-.2,0-.5,0-.7-.2-.4-.4-.5-1,0-1.4.5-.5,11.7-12.8,39.6-5.9.5.1.9.7.7,1.2,0,.5-.7.9-1.2.7-13.9-3.5-23.4-1.9-28.9.1-5.9,2.1-8.6,5.1-8.7,5.1-.2.2-.5.3-.8.3h0Z"/>
      </g>
    </g>
  </g>
</svg>