<?xml version="1.0" encoding="UTF-8"?>
<svg xmlns="http://www.w3.org/2000/svg" viewBox="0 0 4470.29 1759.12">
  <g id="Layer_1" data-name="Layer 1">
    <g>
      <path d="M.88.88h960.13v593.8H.88V.88ZM959.96,1.94H1.94s0,591.68,0,591.68h958.02V1.94Z" style="fill: #231916;"/>
      <path d="M367.22.88h593.8v593.8H367.22V.88ZM959.96,1.94H368.27v591.69h591.68V1.94Z" style="fill: #231916;"/>
      <path d="M227.82,0c77.93,0,141.34,63.4,141.34,141.34,0,48.46-39.43,87.89-87.89,87.89-30.25,0-54.86-24.61-54.86-54.86,0-18.99,15.45-34.44,34.44-34.44,12.03,0,21.82,9.79,21.82,21.83,0,7.73-6.29,14.03-14.03,14.03-5.08,0-9.21-4.13-9.21-9.21,0-3.43,2.79-6.23,6.23-6.23,2.42,0,4.39,1.97,4.39,4.39,0,1.79-1.46,3.25-3.25,3.25-1.41,0-2.55-1.14-2.55-2.55,0-.78.63-1.41,1.41-1.41.66,0,1.22.46,1.37,1.08.12-.08.2-.21.2-.36,0-.87-.7-1.57-1.57-1.57-1.88,0-3.41,1.53-3.41,3.41,0,3.52,2.87,6.39,6.39,6.39,6.18,0,11.21-5.03,11.21-11.21,0-10.48-8.52-19.01-19-19.01-17.44,0-31.62,14.19-31.62,31.62,0,28.69,23.34,52.04,52.04,52.04,46.91,0,85.07-38.16,85.07-85.07,0-76.38-62.14-138.52-138.52-138.52C103.75,2.82,2.82,103.75,2.82,227.82c0,201.22,163.7,364.93,364.93,364.93,326.06,0,591.33-265.27,591.33-591.33,0-.78.63-1.41,1.41-1.41s1.41.63,1.41,1.41c0,80.21-15.71,158.02-46.69,231.27-29.93,70.75-72.77,134.29-127.33,188.86-54.56,54.57-118.11,97.41-188.86,127.33-73.25,30.98-151.06,46.69-231.27,46.69-98.23,0-190.58-38.25-260.03-107.71C38.25,418.39,0,326.05,0,227.82,0,102.2,102.2,0,227.82,0Z" style="fill: #231916;"/>
      <path d="M.88,227.29h367.39v367.39H.88V227.29ZM367.22,228.35H1.94v365.28h365.28V228.35Z" style="fill: #231916;"/>
      <path d="M.88.88h227.46v227.46H.88V.88ZM227.29,1.94H1.94v225.35h225.35V1.94Z" style="fill: #231916;"/>
      <path d="M227.29.88h140.99v140.99h-140.99V.88ZM367.22,1.94h-138.87v138.87h138.87V1.94Z" style="fill: #231916;"/>
      <path d="M280.74,140.81h87.54v87.54h-87.54v-87.54ZM367.22,141.87h-85.42v85.42h85.42v-85.42Z" style="fill: #231916;"/>
      <path d="M227.29,173.84h54.5v54.5h-54.5v-54.5ZM280.74,174.9h-52.39v52.39h52.39v-52.39Z" style="fill: #231916;"/>
      <path d="M227.29,140.81h34.09v34.09h-34.09v-34.09ZM260.32,141.87h-31.97v31.98h31.97v-31.98Z" style="fill: #231916;"/>
      <path d="M260.32,140.81h21.47v21.47h-21.47v-21.47ZM280.74,141.87h-19.36v19.36h19.36v-19.36Z" style="fill: #231916;"/>
      <path d="M268.12,161.22h13.67v13.67h-13.67v-13.67ZM280.74,162.28h-11.56v11.56h11.56v-11.56Z" style="fill: #231916;"/>
      <path d="M260.32,166.04h8.85v8.86h-8.85v-8.86ZM268.12,167.1h-6.74v6.74h6.74v-6.74Z" style="fill: #231916;"/>
      <path d="M260.32,161.22h5.88v5.88h-5.88v-5.88ZM265.14,162.28h-3.76v3.76h3.76v-3.76Z" style="fill: #231916;"/>
      <path d="M265.14,161.22h4.04v4.04h-4.04v-4.04ZM268.12,162.28h-1.92v1.92h1.92v-1.92Z" style="fill: #231916;"/>
      <path d="M266.28,164.2h2.9v2.9h-2.9v-2.9ZM268.12,165.26h-.78v.78h.78v-.78Z" style="fill: #231916;"/>
      <path d="M265.14,164.9h2.2v2.2h-2.2v-2.2ZM266.28,165.96h-.08v.08h.08v-.08Z" style="fill: #231916;"/>
    </g>
  </g>
  <g id="Layer_2" data-name="Layer 2">
    <g id="_Layer_" data-name="&amp;lt;Layer&amp;gt;">
      <g>
        <circle cx="4283.77" cy="1561.12" r="34.79" transform="translate(-273.01 1714.69) rotate(-21.95)" style="fill: #303030;"/>
        <circle cx="4249.78" cy="1571.77" r="30.06" style="fill: #303030;"/>
        <g>
          <path d="M4263.82,1577.72c-2.12-5.09-7.16-8.66-13.02-8.62-7.39.04-13.64,6.07-13.93,13.46-.31,8,6.08,14.59,14.01,14.59,1.7,0,3.32-.32,4.83-.87l-11.1,69.59,18.64,2.97c14.12,2.25,27.39-7.37,29.65-21.49l10.11-63.38-39.18-6.25Z" style="fill: #fafafa;"/>
          <path d="M4267.34,1670.24c-1.41,0-2.83-.11-4.27-.34l-18.64-2.97c-.28-.04-.54-.2-.71-.44-.17-.23-.24-.52-.19-.81l10.83-67.88c-1.15.28-2.31.42-3.48.42-4.15,0-8.02-1.65-10.89-4.64-2.87-2.99-4.37-6.92-4.21-11.08.31-7.95,7.05-14.46,15.01-14.5h.08c5.91,0,11.22,3.4,13.7,8.73l38.59,6.16c.28.04.54.2.71.44.17.23.24.52.19.81l-10.11,63.38c-2.12,13.26-13.61,22.73-26.63,22.73ZM4245.85,1664.96l17.56,2.8c13.51,2.15,26.25-7.08,28.4-20.58l9.94-62.3-38.1-6.08c-.37-.06-.69-.31-.83-.65-2.02-4.84-6.7-7.96-11.94-7.96h-.07c-6.82.04-12.58,5.61-12.85,12.41-.14,3.56,1.14,6.93,3.6,9.49,2.46,2.56,5.77,3.97,9.32,3.97,1.5,0,3-.27,4.45-.8.36-.13.77-.06,1.07.18.3.25.44.63.38,1.01l-10.93,68.52Z" style="fill: #303030;"/>
        </g>
        <g>
          <path d="M4185.19,1743.71l39.76-81.45c3.2-6.55,9.43-11.58,17.12-13.8h0c13.21-3.83,27.61,1.38,33.96,12.27l49.28,84.55-140.11-1.56Z" style="fill: #fafafa;"/>
          <path d="M4325.3,1746.28c-.34,0-.68-.18-.86-.5l-49.28-84.55c-6.16-10.57-19.96-15.54-32.82-11.81-7.41,2.15-13.43,6.99-16.5,13.28l-39.75,81.45c-.24.5-.84.7-1.34.46s-.7-.84-.46-1.34l39.75-81.45c3.32-6.8,9.78-12.02,17.74-14.33,13.72-3.97,28.49,1.38,35.1,12.73l49.28,84.55c.28.48.12,1.09-.36,1.37-.16.09-.33.14-.5.14Z" style="fill: #303030;"/>
        </g>
        <g>
          <path d="M4279.62,1618.43h171.08c1.76,0,3.19,1.43,3.19,3.19v114.95h-177.45v-114.95c0-1.76,1.43-3.19,3.19-3.19Z" style="fill: #fafafa;"/>
          <path d="M4453.88,1737.65h-177.45c-.6,0-1.09-.49-1.09-1.09v-114.95c0-2.36,1.92-4.27,4.27-4.27h171.08c2.36,0,4.27,1.92,4.27,4.27v114.95c0,.6-.49,1.09-1.09,1.09ZM4277.52,1735.48h175.28v-113.86c0-1.16-.94-2.1-2.1-2.1h-171.08c-1.16,0-2.1.94-2.1,2.1v113.86Z" style="fill: #303030;"/>
        </g>
        <g>
          <g>
            <path d="M4350.45,1655.38l-20.37,13.58-.67-18.66c-.19-5.41,1.94-10.64,5.86-14.36l13.23-12.57,1.94,32.01Z" style="fill: #303030;"/>
            <path d="M4379.86,1655.38l20.37,13.58.67-18.66c.19-5.41-1.94-10.64-5.86-14.36l-13.23-12.57-1.94,32.01Z" style="fill: #303030;"/>
          </g>
          <path d="M4365.16,1654.41c5.51,0,10.84.76,15.98,2.07,4.05-14,6.34-29.45,6.34-45.72,0-31.7-8.54-47.23-22.31-67.89-13.77,20.66-22.31,36.2-22.31,67.89,0,16.27,2.28,31.72,6.34,45.72,5.14-1.31,10.47-2.07,15.98-2.07Z" style="fill: #26a8df;"/>
          <path d="M4361.9,1628.22h6.52c.59,0,1.08.48,1.08,1.08v39.67h-8.67v-39.67c0-.59.48-1.08,1.08-1.08Z" style="fill: #303030;"/>
          <circle cx="4365.16" cy="1590.63" r="8.97" style="fill: #303030;"/>
        </g>
        <g>
          <path d="M4355.98,1742.6c9.03,0,16.34-7.32,16.34-16.34s-7.32-16.34-16.34-16.34h-.75c-3.47-9.05-12.21-15.48-22.47-15.48-13.3,0-24.08,10.78-24.08,24.08h-3.44c-6.65,0-12.04,5.39-12.04,12.04s5.39,12.04,12.04,12.04h50.75Z" style="fill: #26a8df;"/>
          <path d="M4374.33,1742.6c-9.03,0-16.34-7.32-16.34-16.34s7.32-16.34,16.34-16.34h.75c3.47-9.05,12.21-15.48,22.47-15.48,13.3,0,24.08,10.78,24.08,24.08h3.44c6.65,0,12.04,5.39,12.04,12.04s-5.39,12.04-12.04,12.04h-50.75Z" style="fill: #26a8df;"/>
        </g>
        <path d="M4260.02,1729.1v4.17c0,7.05,5.77,12.83,12.83,12.83h184.61c7.05,0,12.83-5.77,12.83-12.83v-4.17h-210.27Z" style="fill: #303030;"/>
        <circle cx="4365.16" cy="1699.53" r="18.92" transform="translate(1715.51 5562.48) rotate(-76.83)" style="fill: #26a8df;"/>
        <rect x="4358.61" y="1671.88" width="13.1" height="30.56" rx="1.63" ry="1.63" style="fill: #26a8df;"/>
        <path d="M4256.81,1588.52s-.07,0-.1,0c-.6-.05-1.04-.58-.98-1.18.32-3.49-.37-6.25-2.05-8.2-2.39-2.78-6.06-3.02-6.1-3.02-.6-.04-1.06-.55-1.02-1.15.03-.6.55-1.06,1.14-1.03.19,0,4.6.28,7.61,3.75,2.09,2.41,2.96,5.72,2.59,9.83-.05.56-.53.99-1.08.99Z" style="fill: #303030;"/>
        <circle cx="4307.97" cy="1552.81" r="20.81" style="fill: #303030;"/>
        <path d="M4250.85,1598.16c-.6,0-1.09-.49-1.09-1.09s.49-1.09,1.09-1.09c2.32,0,4.6-.62,6.58-1.8.93-.55,1.8-1.22,2.57-1.99.42-.43,1.11-.43,1.54,0,.42.42.42,1.11,0,1.54-.9.9-1.9,1.68-2.99,2.33-2.32,1.37-4.98,2.1-7.69,2.1Z" style="fill: #303030;"/>
        <g>
          <path d="M4263.49,1570.87c1.9-15.78,11.24-28.47,24.56-31.16,17.77-3.58,35.89,11.97,40.49,34.74,4.59,22.77-6.09,44.13-23.85,47.72-13.33,2.69-26.85-5.39-34.72-19.2l-6.47-32.09Z" style="fill: #fafafa;"/>
          <path d="M4299.54,1623.76c-11.7,0-23.26-7.52-30.52-20.26-.3-.52-.12-1.19.41-1.48.52-.3,1.18-.12,1.48.41,7.9,13.86,21.07,21.18,33.56,18.67,17.15-3.46,27.47-24.29,23-46.44-4.47-22.14-22.05-37.34-39.21-33.89-12.49,2.52-21.79,14.38-23.7,30.22-.07.6-.62,1.03-1.21.95-.6-.07-1.02-.61-.95-1.21,2.02-16.79,12-29.39,25.43-32.09,18.32-3.7,37.06,12.27,41.77,35.59s-6.38,45.3-24.7,49c-1.78.36-3.57.53-5.36.54Z" style="fill: #303030;"/>
        </g>
        <path d="M4262.04,1579.09c.32.1.63.21.96.3,18.01,5,37.41-11.23,43.32-36.26.07-.28.12-.57.18-.85-5.93-3.36-12.45-4.64-18.92-3.23-15.04,3.29-25.12,20.05-25.54,40.03Z" style="fill: #303030;"/>
        <path d="M4319.95,1568.11c-.59,1.01,1.22,3.15,4.02,4.77s5.56,2.11,6.14,1.1c.59-1.01-1.22-3.15-4.02-4.77-2.81-1.62-5.56-2.11-6.14-1.1Z" style="fill: #303030;"/>
        <path d="M4291.3,1572.77c.3,1.42,3.74,1.89,7.67,1.05,3.93-.84,6.87-2.67,6.57-4.09-.3-1.42-3.74-1.89-7.67-1.05-3.93.84-6.87,2.67-6.57,4.09Z" style="fill: #303030;"/>
        <path d="M4314.26,1588.66c-.3,0-.59-.12-.81-.36-.4-.44-.37-1.13.08-1.54.97-.88,1.4-2.17,1.13-3.46l-1.92-9.31c-.12-.59.26-1.16.84-1.28.59-.12,1.16.26,1.28.84l1.92,9.31c.42,2.01-.27,4.12-1.8,5.51-.21.19-.47.28-.73.28Z" style="fill: #303030;"/>
        <path d="M4298.08,1581.73c-.21,0-.41-.06-.6-.18-.5-.33-.64-1.01-.31-1.51,2.82-4.25,6.28-3.76,7.72-2.9.52.31.68.97.38,1.49-.31.51-.97.68-1.48.38-.26-.15-2.5-1.25-4.81,2.23-.21.32-.55.49-.91.49Z" style="fill: #303030;"/>
        <path d="M4326.33,1580.01c-.42,0-.82-.24-1-.65-.12-.27-1.28-2.49-5.19-1.04-.56.21-1.19-.08-1.4-.64-.21-.56.08-1.19.64-1.4,4.79-1.77,7.29.68,7.94,2.22.23.55-.02,1.19-.58,1.43-.14.06-.28.09-.42.09Z" style="fill: #303030;"/>
        <path d="M4309.76,1595.88c-2.12,0-3.54-1.15-4.13-2.06-.33-.5-.18-1.18.32-1.5.5-.32,1.17-.19,1.5.31.17.24,1.69,2.23,5.3.12.52-.3,1.18-.13,1.49.39.3.52.13,1.18-.39,1.49-1.56.91-2.92,1.25-4.08,1.25Z" style="fill: #303030;"/>
        <g>
          <g>
            <path d="M4456.48,1653.94l-.18,7.21,4.91-4.53c1.9-1.75,3.09-4.13,3.38-6.69h0c.25-2.28-.54-3.48-3.26-5.21l-14.41-8.48-.71,3.41c-.51,2.43.29,4.95,2.1,6.65l8.17,7.64Z" style="fill: #fafafa;"/>
            <path d="M4456.3,1662.15c-.14,0-.28-.03-.41-.09-.37-.16-.6-.53-.59-.94l.16-6.76-7.85-7.33c-2.06-1.92-2.98-4.83-2.4-7.59l.71-3.41c.07-.32.28-.58.57-.71.29-.13.63-.11.91.05l14.41,8.48c2.7,1.71,4.08,3.2,3.75,6.18-.31,2.8-1.62,5.4-3.69,7.32l-4.91,4.53c-.19.17-.43.27-.68.27ZM4447.61,1637.8l-.43,2.05c-.43,2.08.26,4.27,1.81,5.71l8.17,7.64c.21.2.32.47.32.75l-.12,4.85,3.17-2.93c1.72-1.59,2.81-3.74,3.06-6.07.19-1.71-.21-2.61-2.8-4.26l-13.18-7.75Z" style="fill: #303030;"/>
          </g>
          <g>
            <path d="M4454.73,1663.82l-.21,8.56,5.83-5.38c2.25-2.08,3.67-4.9,4.01-7.95h0c.3-2.71-1.3-5.27-3.87-6.19l-21.89-8.16-.43,5.63c-.22,2.92,1.29,5.69,3.86,7.08l12.7,6.4Z" style="fill: #fafafa;"/>
            <path d="M4454.52,1673.38c-.14,0-.28-.03-.41-.09-.37-.17-.6-.53-.59-.94l.19-7.93-12.14-6.11c-2.94-1.59-4.66-4.75-4.41-8.05l.43-5.63c.02-.31.19-.6.46-.77.26-.17.59-.2.89-.09l21.89,8.16c3.01,1.07,4.87,4.05,4.52,7.23-.36,3.29-1.9,6.33-4.33,8.57l-5.83,5.38c-.19.17-.43.27-.68.27ZM4439.49,1646.11l-.33,4.31c-.19,2.52,1.12,4.92,3.34,6.13l12.67,6.38c.35.17.56.53.55.92l-.15,6.2,4.09-3.78c2.07-1.92,3.39-4.52,3.69-7.32.25-2.26-1.07-4.37-3.21-5.14l-20.66-7.7Z" style="fill: #303030;"/>
          </g>
          <g>
            <path d="M4454.46,1675.08l-.21,8.56,5.83-5.38c2.25-2.08,3.67-4.9,4.01-7.95h0c.3-2.71-1.3-5.27-3.87-6.19l-20.03-7.38-.43,5.63c-.22,2.91,1.29,5.69,3.86,7.08l10.84,5.62Z" style="fill: #fafafa;"/>
            <path d="M4454.25,1684.65c-.14,0-.28-.03-.41-.09-.37-.16-.6-.53-.59-.94l.19-7.94-10.29-5.33c-2.93-1.59-4.65-4.74-4.4-8.04l.43-5.63c.02-.31.19-.6.46-.77.26-.17.59-.21.89-.1l20.03,7.38c3.01,1.07,4.87,4.05,4.52,7.24-.36,3.29-1.9,6.33-4.33,8.57l-5.83,5.38c-.19.17-.43.27-.68.27ZM4441.08,1658.15l-.33,4.31c-.19,2.52,1.12,4.92,3.34,6.13l10.83,5.61c.34.18.55.53.54.91l-.15,6.2,4.09-3.78c2.07-1.92,3.39-4.52,3.69-7.32.25-2.26-1.07-4.37-3.21-5.14l-18.8-6.92Z" style="fill: #303030;"/>
          </g>
          <g>
            <path d="M4454.2,1685.79l-.21,8.56,5.83-5.38c2.25-2.08,3.67-4.9,4.01-7.95h0c.3-2.71-1.3-5.27-3.87-6.19l-17.39-6.2-.43,5.63c-.22,2.92,1.29,5.69,3.86,7.08l8.2,4.44Z" style="fill: #fafafa;"/>
            <path d="M4453.99,1695.35c-.14,0-.28-.03-.41-.09-.37-.16-.6-.53-.59-.94l.19-7.95-7.66-4.15c-2.91-1.58-4.63-4.73-4.38-8.04l.43-5.63c.02-.31.19-.59.45-.76.26-.17.59-.21.88-.1l17.39,6.2c3.02,1.08,4.88,4.05,4.53,7.24-.36,3.29-1.9,6.33-4.33,8.57l-5.83,5.38c-.19.17-.43.27-.68.27ZM4443.46,1670.02l-.33,4.33c-.19,2.52,1.12,4.92,3.34,6.13l8.2,4.44c.33.18.53.53.52.9l-.15,6.2,4.09-3.78c2.07-1.92,3.39-4.52,3.69-7.32.25-2.26-1.07-4.37-3.21-5.14l-16.15-5.76Z" style="fill: #303030;"/>
          </g>
        </g>
        <g>
          <g>
            <path d="M4259.64,1758.12l19.97-65.64,1.45-.2c5.87-.82,11.16-4,14.64-8.8l3.24-4.48,2.8,1.57c2.96,1.66,6.68.96,8.83-1.65l1.8-2.19,5.54-7.09-3.85-11.41c-.85-2.52-2.91-4.44-5.49-5.11l-3.59-.94,16.06-7.87c3.39-1.68,5.5-5.15,5.44-8.93-.03-1.63-1.65-2.75-3.18-2.21l-24.29,8.61-22.54,14.62c-13.88,9-24.92,21.74-31.86,36.75l-42.65,64.96h57.67Z" style="fill: #fafafa;"/>
            <path d="M4259.64,1759.12c-.1,0-.19-.01-.29-.04-.53-.16-.83-.72-.67-1.25l19.97-65.64c.11-.37.43-.65.82-.7l1.45-.2c5.57-.78,10.66-3.84,13.96-8.4l3.24-4.48c.3-.41.86-.53,1.3-.29l2.8,1.57c2.54,1.42,5.72.83,7.57-1.42l1.8-2.19,5.2-6.64-3.68-10.9c-.74-2.21-2.54-3.88-4.79-4.47l-3.59-.94c-.4-.11-.7-.45-.74-.87-.04-.42.18-.81.56-1l16.06-7.87c3.02-1.49,4.94-4.64,4.88-8.02,0-.45-.22-.86-.6-1.11-.37-.26-.83-.32-1.25-.17l-24.18,8.58-22.44,14.56c-13.74,8.91-24.63,21.48-31.5,36.34-.02.04-.04.09-.07.13l-42.65,64.96c-.3.46-.92.59-1.38.29-.46-.3-.59-.92-.29-1.38l42.61-64.9c7.03-15.17,18.16-28,32.19-37.11l22.54-14.62c.07-.04.14-.08.21-.1l24.29-8.61c1.04-.37,2.15-.22,3.06.41.91.63,1.44,1.62,1.45,2.72.07,4.14-2.28,8.01-6,9.84l-13.65,6.69.98.25c2.91.76,5.22,2.91,6.18,5.76l3.85,11.41c.11.32.05.67-.16.94l-5.54,7.09-1.82,2.21c-2.47,2.99-6.71,3.79-10.09,1.89l-2.02-1.13-2.72,3.76c-3.62,5-9.2,8.35-15.31,9.2l-.81.11-19.79,65.03c-.13.43-.53.71-.96.71Z" style="fill: #303030;"/>
          </g>
          <path d="M4308.74,1680.89c-.19,0-.38-.05-.55-.16-.46-.3-.59-.92-.28-1.39l2.98-4.52-3.43-9.38c-.71-1.93-2.22-3.43-4.16-4.12l-9.91-3.53c-.52-.19-.79-.76-.61-1.28.18-.52.76-.79,1.28-.61l9.91,3.53c2.5.89,4.46,2.83,5.37,5.32l3.61,9.85c.11.3.07.63-.1.89l-3.26,4.94c-.19.29-.51.45-.84.45Z" style="fill: #303030;"/>
          <path d="M4292.15,1682.87s-.07,0-.11,0l-4.88-.06c-.42,0-.79-.27-.93-.66l-2.3-6.39c-.19-.52.08-1.09.6-1.28.52-.19,1.09.08,1.28.6l2.06,5.74,4.19.05s.06,0,.09,0c2.03,0,3.99-.84,5.39-2.33l2.89-3.07-1.28-4.75c-.69-2.58-2.85-4.55-5.48-5l-9.42-1.63c-.54-.09-.91-.61-.82-1.16.09-.54.61-.91,1.16-.82l9.42,1.63c3.4.59,6.18,3.12,7.07,6.45l1.42,5.29c.09.33,0,.69-.24.95l-3.28,3.47c-1.77,1.88-4.26,2.95-6.85,2.95Z" style="fill: #303030;"/>
          <path d="M4264.59,1693.69c-.4,0-.78-.24-.93-.63-.2-.51.05-1.09.57-1.3l1.69-.66c7.3-2.86,13.14-8.69,16.03-15.98.11-.27.33-.49.61-.58l9.18-3.09c.52-.17,1.09.11,1.27.63.18.52-.11,1.09-.63,1.27l-8.75,2.94c-3.15,7.6-9.31,13.66-16.98,16.67l-1.69.66c-.12.05-.24.07-.36.07Z" style="fill: #303030;"/>
          <path d="M4308.95,1653.94c-.06,0-.11,0-.17-.01l-9.38-1.63c-.54-.09-.91-.61-.81-1.16.1-.54.61-.9,1.16-.81l9.38,1.63c.54.09.91.61.81,1.16-.08.49-.51.83-.98.83Z" style="fill: #303030;"/>
        </g>
      </g>
    </g>
  </g>
</svg>