<?xml version="1.0" encoding="UTF-8"?>
<svg id="Layer_1" xmlns="http://www.w3.org/2000/svg" version="1.1" viewBox="0 0 235.4 227.4">
  <!-- Generator: Adobe Illustrator 29.2.0, SVG Export Plug-In . SVG Version: 2.1.0 Build 108)  -->
  <defs>
    <style>
      .st0 {
        fill: #303030;
      }

      .st1 {
        fill: #26a8df;
      }

      .st2 {
        fill: #fafafa;
      }
    </style>
  </defs>
  <g id="Layer_2">
    <g id="_Layer_">
      <g>
        <g>
          <g>
            <path class="st2" d="M168.8,106.6l.6,2.1c1.5,4.9,5.8,8.6,10.9,9.3l4,.6,8.1,1.3c2.5.4,4.5-2.1,3.6-4.4h0c-.4-1.1-1.4-1.9-2.5-2.1l-5.3-1,6.2-8,6.6-.9c3.4-.5,6.1-3.2,6.7-6.6h0l-21.3-1.3-17.7,11.1h0Z"/>
            <path class="st0" d="M193,120.9c-.2,0-.5,0-.7,0l-8.1-1.3-4-.6c-5.5-.8-10.1-4.7-11.7-10l-.6-2.1c-.1-.4,0-.9.4-1.1l17.7-11.1c.2-.1.4-.2.6-.2l21.3,1.3c.3,0,.5.2.7.4s.2.5.2.8c-.6,3.9-3.6,6.9-7.5,7.4l-6.2.9-4.9,6.4,3.6.7c1.5.3,2.7,1.3,3.2,2.7.6,1.5.3,3-.7,4.2-.8,1-2,1.6-3.3,1.6h0ZM170,107.1l.4,1.3c1.4,4.6,5.3,7.9,10.1,8.6l4,.6,8.1,1.3c.8.1,1.6-.2,2.2-.8s.7-1.5.4-2.3c-.3-.8-.9-1.3-1.7-1.5l-5.3-1c-.3,0-.6-.3-.8-.6s0-.7.1-1l6.2-8c.2-.2.4-.3.6-.4l6.6-.9c2.6-.4,4.8-2.2,5.6-4.7l-19.8-1.2-16.8,10.5h0Z"/>
          </g>
          <g>
            <path class="st2" d="M188.8,98.6l12.9-2.2-12.9,2.2Z"/>
            <path class="st0" d="M188.8,99.6c-.5,0-.9-.3-1-.8,0-.5.3-1.1.8-1.2l12.9-2.2c.5,0,1.1.3,1.2.8,0,.5-.3,1.1-.8,1.2l-12.9,2.2c0,0-.1,0-.2,0h0Z"/>
          </g>
          <g>
            <polygon class="st2" points="190.7 180.1 172.2 190.7 160.4 167.5 178.9 156.9 190.7 180.1"/>
            <path class="st0" d="M172.2,191.7c-.1,0-.2,0-.3,0-.3,0-.5-.3-.6-.5l-11.8-23.2c-.2-.5,0-1.1.4-1.3l18.4-10.6c.2-.1.5-.2.8,0,.3,0,.5.3.6.5l11.8,23.2c.2.5,0,1.1-.4,1.3l-18.4,10.6c-.1,0-.3.1-.5.1h0ZM161.7,167.9l10.9,21.4,16.7-9.6-10.9-21.4-16.7,9.6Z"/>
          </g>
          <g>
            <polygon class="st2" points="130.6 150.5 109.3 150.5 110.6 127 131.9 127 130.6 150.5"/>
            <path class="st0" d="M130.6,151.5h-21.3c-.3,0-.5-.1-.7-.3-.2-.2-.3-.5-.3-.7l1.3-23.5c0-.5.5-.9,1-.9h21.3c.3,0,.5.1.7.3.2.2.3.5.3.7l-1.3,23.5c0,.5-.5.9-1,.9ZM110.4,149.5h19.3l1.2-21.5h-19.3l-1.2,21.5Z"/>
          </g>
          <path class="st0" d="M95.5,39.2c2,2,2.8,3.8,2.7,5,0,0,45.9,30.1,61.1,23.4,12.4-5.4,3.4-16.4.3-17.8-5.9-2.7-6.1-3.2-1.9-9.1s8.9-8.9-.6-12c-6.7-2.2-6.6-4.3-5.2-12.3,1.4-7.9-10.7-11.7-15.6-10.6-4.9,1.1.7-3.1-3.2-5-3.9-1.9-5.4.2-6.5,1.8s-9.8.4-12.9,6.2-9.8,3.6-9.6,14.4c.1,10.8-2.4,5.9-5.4,6.4-3,.4-7.3,5.6-3.2,9.7h0Z"/>
          <g>
            <path class="st2" d="M81.8,77.3l15.5-19.5-39.9-4.9,39.6-14.1c5.1-1.8,10.6-1.7,15.7.3l20.4,8.1c3.6,1.4,6.8,3.8,9.2,6.8l42,50.8-.4.6c-2.9,4.6-8.6,6.7-13.8,5.2h0l-38.1-35.5-3.1,13.8-47-11.5h0Z"/>
            <path class="st0" d="M173.5,112.1c-1.2,0-2.5-.2-3.8-.6-.1,0-.3-.1-.4-.2l-36.9-34.3-2.7,12.1c0,.3-.2.5-.4.6s-.5.2-.8.1l-47-11.5c-.3,0-.6-.3-.7-.7-.1-.3,0-.7.2-.9l14.4-18.1-38.1-4.7c-.5,0-.8-.4-.9-.9s.2-.9.7-1.1l39.6-14.1c5.3-1.9,11.1-1.8,16.4.3l20.4,8.1c3.8,1.5,7.1,3.9,9.6,7.1l42,50.8c.3.3.3.8,0,1.2l-.4.6c-2.5,3.9-6.7,6.1-11.2,6.1h0ZM170.5,109.7c4.7,1.3,9.8-.6,12.4-4.8l-41.5-50.2c-2.3-2.9-5.4-5.1-8.8-6.5l-20.4-8.1c-4.8-1.9-10.1-2-15-.3l-35.6,12.6,35.7,4.4c.4,0,.7.3.8.6.1.3,0,.7-.1,1l-14.6,18.3,44.5,10.9,2.9-12.8c0-.3.3-.6.7-.7.3-.1.7,0,1,.2l38,35.3h0Z"/>
          </g>
          <g>
            <path class="st2" d="M122.8,99.3l6.2,1.8c9.2,2.7,17.2,8.3,23,15.9l39.3,52.1h-.2c-8.9-.4-17.6,2.4-24.4,8l-5.3,4.3-31.9-57.5-6.6-24.6h0Z"/>
            <path class="st0" d="M161.4,182.4c0,0-.1,0-.2,0-.3,0-.5-.2-.7-.5l-31.9-57.5c0,0,0-.2,0-.2l-6.6-24.6c0-.3,0-.7.3-1,.3-.2.6-.3,1-.2l6.2,1.8c9.3,2.8,17.7,8.5,23.5,16.3l39.3,52.1c.2.3.3.7,0,1.1s-.6.6-.9.5h-.2c-8.6-.4-17.1,2.3-23.7,7.8l-5.3,4.3c-.2.2-.4.2-.6.2h0ZM130.4,123.5l31.3,56.4,4.4-3.5c6.6-5.4,14.8-8.3,23.2-8.3l-38.1-50.4c-5.6-7.4-13.6-12.9-22.5-15.6l-4.4-1.3,6.1,22.8h0Z"/>
          </g>
          <g>
            <g>
              <path class="st2" d="M104.5,139.2l7.2-3.7c5.9-3,12.6-4,19.1-2.8l5,.9-6.6-50.5c-1.2-9.3-11.1-14.9-19.7-11.2l-15,6.5h-13.6l-6.8,6.9c-13.1,13.4-2.9,35.9,15.8,35h0l13-4.3,1.7,23.3h0Z"/>
              <path class="st0" d="M104.5,140.2c-.2,0-.3,0-.5-.1-.3-.2-.5-.5-.5-.8l-1.6-22-11.8,3.9c0,0-.2,0-.3,0-9.1.4-17-4.4-20.8-12.7-3.7-8.3-2.1-17.5,4.2-24l6.8-6.9c.2-.2.4-.3.7-.3h13.4l14.8-6.4c4.4-1.9,9.4-1.6,13.5.7,4.2,2.4,6.9,6.5,7.6,11.2l6.6,50.5c0,.3,0,.6-.3.8s-.6.3-.9.3l-5-.9c-6.2-1.1-12.8-.1-18.4,2.8l-7.2,3.7c-.1,0-.3.1-.4.1h0ZM102.9,114.9c.2,0,.4,0,.6.2.3.2.4.4.4.8l1.6,21.8,5.9-3c6-3.1,13-4.1,19.7-2.9l3.6.6-6.4-49.1c-.5-4.1-2.9-7.7-6.6-9.8-3.6-2.1-7.9-2.3-11.8-.6l-15,6.5c-.1,0-.3,0-.4,0h-13.2l-6.5,6.6c-5.8,5.9-7.2,14.2-3.9,21.8,3.4,7.5,10.5,11.9,18.7,11.5l12.8-4.3c.1,0,.2,0,.3,0h0Z"/>
            </g>
            <path class="st0" d="M102.9,116.9c-.5,0-1-.4-1-1l-.7-24.6c0-.6.4-1,1-1s1,.4,1,1l.7,24.6c0,.6-.4,1-1,1h0Z"/>
            <path class="st0" d="M79.3,86c-.4,0-.8-.2-.9-.6-.2-.5,0-1.1.5-1.3l15.3-6.7c.5-.2,1.1,0,1.3.5s0,1.1-.5,1.3l-15.3,6.7c-.1,0-.3,0-.4,0h0Z"/>
          </g>
          <circle class="st0" cx="122.3" cy="18.9" r="18.1" transform="translate(26.7 97.6) rotate(-48.2)"/>
          <g>
            <path class="st2" d="M142.2,29.5c-.7-.3-1.5-.4-2.2-.3,2.9-6.8.7-14.8-5.5-19.1-7.1-4.9-16.9-2.9-21.9,4.1l-2.6,3.6c-4.6,6.3-2.1,15.2,5,18.3l1.3.6-.8,3.8c-.9,4.2,1.7,8.4,5.9,9.3l2.7.6c3.7.8,7.3-1.5,8.1-5.2l1.1-5.1c1.2-.8,2.3-1.9,3-3.3v-.2c.6.7,1.3,1.3,2.1,1.7,2.3,1.1,5.1,0,6.1-2.3,1-2.3,0-5.2-2.4-6.2h0Z"/>
            <path class="st0" d="M125.6,51.4c-.6,0-1.1,0-1.7-.2l-2.7-.6c-2.3-.5-4.3-1.9-5.5-3.9-1.3-2-1.7-4.3-1.2-6.6l.6-2.9-.6-.2c-3.7-1.6-6.4-4.7-7.4-8.6-1.1-3.9-.3-8,2-11.2l2.6-3.6c5.4-7.5,15.9-9.4,23.3-4.3,6.1,4.2,8.7,12.1,6.4,19,.4,0,.8.2,1.1.3h0c1.4.6,2.5,1.7,3,3.1s.5,3,0,4.4c-1.3,2.8-4.6,4.1-7.5,2.9-.5-.2-1-.5-1.4-.9-.6,1-1.5,1.8-2.4,2.5l-1,4.7c-.4,2-1.7,3.8-3.4,4.9-1.3.8-2.7,1.2-4.2,1.2h0ZM125.7,8.3c-4.7,0-9.4,2.2-12.4,6.4l-2.6,3.6c-2,2.8-2.6,6.2-1.7,9.5s3.2,5.9,6.3,7.3l1.3.6c.4.2.7.7.6,1.1l-.8,3.8c-.4,1.8,0,3.6.9,5.1s2.5,2.6,4.3,3l2.7.6c3.1.7,6.3-1.3,7-4.4l1.1-5.1c0-.3.2-.5.4-.6,1.1-.7,2-1.8,2.6-2.9v-.2c.3-.3.6-.5,1-.6.4,0,.7.2.9.4.4.6.9,1.1,1.6,1.3,1.8.8,4,0,4.8-1.8.4-.9.4-1.9,0-2.8-.4-.9-1.1-1.7-2-2h0c-.5-.2-1.1-.3-1.7-.3-.4,0-.7-.1-.9-.4-.2-.3-.2-.7-.1-1,2.8-6.4.6-13.9-5.2-17.9-2.5-1.7-5.3-2.5-8.2-2.5h0Z"/>
          </g>
          <path class="st0" d="M138,35.1c-.1,0-.3,0-.4,0-.5-.2-.7-.8-.5-1.3,1-2.2,3.6-3.2,5.9-2.2.5.2.7.8.5,1.3s-.8.7-1.3.5c-1.2-.5-2.7,0-3.2,1.2-.2.4-.5.6-.9.6h0Z"/>
          <path class="st0" d="M118.4,20.2c-.3,0-.6-.1-.8-.4-.3-.4-.2-1.1.2-1.4l3.1-2.3c.7-.5,1.2-1.3,1.3-2.2,0-.9-.2-1.8-.9-2.4,0,0,0,0,0,0,0,0-1.1-1.2-3.7-.7-.5.1-1.1-.2-1.2-.8-.1-.5.2-1.1.8-1.2,3.6-.8,5.4,1,5.7,1.3,1,1.1,1.5,2.5,1.4,4-.1,1.5-.9,2.8-2.1,3.7l-3.1,2.3c-.2.1-.4.2-.6.2h0Z"/>
          <path class="st0" d="M131,20.4c-.7.6-1.6.6-1.9,0s0-1.5.7-2.1,1.6-.6,1.9,0,0,1.5-.7,2.1Z"/>
          <path class="st0" d="M118.9,14.6c-.7.6-1.6.6-1.9,0-.3-.6,0-1.5.7-2.1s1.6-.6,1.9,0c.3.6,0,1.5-.7,2.1Z"/>
          <g>
            <path class="st2" d="M116.2,23.2l8.5,1.9s-6.8,8.9-8.5-1.9Z"/>
            <path class="st0" d="M119.7,29.5c-.3,0-.5,0-.8,0-1.9-.5-3.1-2.5-3.7-6.1,0-.3,0-.7.3-.9s.6-.3.9-.2l8.5,1.9c.3,0,.6.3.7.6.1.3,0,.7-.1.9-.3.4-3,3.8-5.8,3.8h0ZM117.5,24.5c.4,1.8,1.1,2.8,1.9,3,1,.2,2.4-.8,3.5-1.8l-5.4-1.2h0Z"/>
          </g>
          <path class="st0" d="M140.2,28.5c2.4-6.3.5-13.5-4.8-17.8-1.7,6,.2,12.6,4.8,17.8Z"/>
          <path class="st0" d="M135.9,22c-.5,0-.9-.4-1-.9-.4-4.4-5.2-5.9-5.4-6-.5-.2-.8-.7-.7-1.2.2-.5.7-.8,1.2-.7.3,0,6.3,1.9,6.9,7.7,0,.6-.4,1-.9,1.1h0Z"/>
          <path class="st0" d="M118.4,37.7c-.8,0-1.6,0-2.3-.2-.5,0-.9-.6-.8-1.2.1-.5.6-.9,1.2-.8,3,.5,8.6-.6,8.7-.6.6-.1,1.1.2,1.2.8.1.5-.2,1.1-.8,1.2-.2,0-3.9.8-7.1.8h0Z"/>
          <path class="st0" d="M110.9,148l12.6-6.2c5.8-2.8,12.2-2.7,17.9.3h0c4,2.1,3.7,8.9-.5,10.5l-23.6,9.1c-1.6.6-3.4.2-4.7-1.1l-3.1-3.2c-2.7-2.8-2-7.9,1.3-9.5h0Z"/>
          <g>
            <path class="st2" d="M135,64.5l-3.1,10.6,3.1-10.6Z"/>
            <path class="st0" d="M131.9,76.1c0,0-.2,0-.3,0-.5-.2-.8-.7-.7-1.2l3.1-10.6c.1-.5.7-.8,1.2-.7.5.2.8.7.7,1.2l-3.1,10.6c-.1.4-.5.7-1,.7h0Z"/>
          </g>
          <g>
            <path class="st2" d="M99.3,52.2l4.3-6.4.6.5c1.1.8,1.6,2.3,1.2,3.7h0l-6.2,2.3h0Z"/>
            <path class="st0" d="M99.3,53.2c-.2,0-.4,0-.6-.2-.5-.3-.6-.9-.3-1.4l4.3-6.4c.1-.2.4-.4.7-.4.3,0,.5,0,.8.2l.6.5c1.5,1.1,2.1,3,1.6,4.7-.2.5-.7.8-1.2.7-.5-.2-.8-.7-.7-1.2.2-.9,0-1.8-.6-2.4l-3.7,5.6c-.2.3-.5.4-.8.4h0Z"/>
          </g>
          <g>
            <path class="st2" d="M100.9,52.1h-39.7c-4.6,0-8.4,3.6-8.6,8.2h0c-.3,5.4,4.5,9.7,9.8,8.9l37.2-5.3c2.9-.4,5.5-1.8,7.5-3.8l3.7-3.8h2.8c2.3,0,3.9-2.3,3-4.5l-.8-1.9-9.3-1.3-5.8,3.6h0Z"/>
            <path class="st0" d="M61.2,70.3c-2.4,0-4.7-.9-6.4-2.5-2.1-1.9-3.3-4.7-3.1-7.6.2-5.1,4.5-9.2,9.6-9.2h39.4l5.5-3.4c.2-.1.4-.2.7-.1l9.3,1.3c.4,0,.6.3.8.6l.8,1.9c.5,1.3.4,2.8-.4,4-.8,1.2-2.1,1.9-3.5,1.9h-2.4l-3.4,3.5c-2.2,2.2-5,3.7-8.1,4.1l-37.2,5.3c-.5,0-.9,0-1.4,0h0ZM61.2,53.1c-4.1,0-7.4,3.2-7.6,7.2-.1,2.3.8,4.5,2.5,6,1.7,1.5,3.9,2.2,6.2,1.9l37.2-5.3c2.6-.4,5.1-1.6,7-3.5l3.7-3.8c.2-.2.4-.3.7-.3h2.8c.8,0,1.4-.4,1.9-1,.4-.6.5-1.4.2-2.1l-.6-1.4-8.4-1.2-5.5,3.4c-.2,0-.3.2-.5.2h-39.7Z"/>
          </g>
          <g>
            <path class="st2" d="M108.9,52.6h7.9s-7.9,0-7.9,0Z"/>
            <path class="st0" d="M116.7,53.6h-7.9c-.6,0-1-.5-1-1s.4-1,1-1h7.9c.6,0,1,.5,1,1s-.4,1-1,1Z"/>
          </g>
          <path class="st0" d="M187.1,174l-2.6,5.7c-5.8,1.6-18.7,2.7-13.4,10.7l.2.8c1.4,2.9,1.7,3.8,5.7,2.5l22.6-7.7c1.6-.5,2.7-1.6,3-2.9l.7-3.1c.6-2.7-12.8-7-16.1-6.1h0Z"/>
        </g>
        <g>
          <g>
            <path class="st2" d="M232.2,219.9v-12.9c.1,0-20.8-12.8-20.8-12.8-4.1-2.5-9.2-2.9-13.7-.9h0l-2.9-5.6c-1.3-2.4-3.2-4.4-5.5-5.8l-62.9-37.8L7.1,173.3l-3.1,8,113.5,29.7,114.7,8.9h0Z"/>
            <path class="st0" d="M232.2,220.9h0l-114.7-8.9c0,0-.1,0-.2,0L3.7,182.3c-.3,0-.5-.3-.6-.5s-.1-.6,0-.8l3.1-8c.1-.3.4-.5.7-.6l119.3-29.3c.2,0,.5,0,.8.1l62.9,37.8c2.5,1.5,4.5,3.7,5.9,6.2l2.5,4.8c4.5-1.7,9.6-1.2,13.8,1.4l20.9,12.8c.3.2.5.5.5.9v12.9c-.1.3-.2.5-.4.7-.2.2-.4.3-.7.3h0ZM117.7,210l113.6,8.8v-11.2c.1,0-20.3-12.5-20.3-12.5-3.9-2.4-8.6-2.7-12.8-.9-.5.2-1,0-1.3-.4l-2.9-5.6c-1.2-2.2-3-4.1-5.1-5.4l-62.6-37.6L7.8,174.2l-2.5,6.4,112.3,29.4h0Z"/>
          </g>
          <path class="st1" d="M235.4,220.8c-2.7-2.7-112.6-66.1-112.6-66.1L0,183.1l101.5,44.3,133.9-6.7h0Z"/>
          <path class="st0" d="M73.2,216.5c-.5,0-.9-.4-1-.9,0-.6.3-1.1.9-1.1l117.9-16c.6,0,1.1.3,1.1.9,0,.6-.3,1.1-.9,1.1l-117.9,16h-.1Z"/>
        </g>
      </g>
    </g>
  </g>
</svg>