<?xml version="1.0" encoding="UTF-8"?>
<svg id="Layer_1" xmlns="http://www.w3.org/2000/svg" version="1.1" viewBox="0 0 308.9 227">
  <!-- Generator: Adobe Illustrator 29.2.0, SVG Export Plug-In . SVG Version: 2.1.0 Build 108)  -->
  <defs>
    <style>
      .st0 {
        fill: #303030;
      }

      .st1 {
        fill: #26a8df;
      }

      .st2 {
        fill: #fafafa;
      }
    </style>
  </defs>
  <g id="Layer_2">
    <g id="_Layer_">
      <g>
        <g>
          <g>
            <path class="st2" d="M33.5,136.5c-2.5,0-4.5-2-4.5-4.5V5.5c0-2.5,2-4.5,4.5-4.5h151.3c2.5,0,4.5,2,4.5,4.5v126.5c0,2.5-2,4.5-4.5,4.5H33.5Z"/>
            <path class="st0" d="M184.8,2c1.9,0,3.5,1.6,3.5,3.5v126.5c0,1.9-1.6,3.5-3.5,3.5H33.5c-1.9,0-3.5-1.6-3.5-3.5V5.5c0-1.9,1.6-3.5,3.5-3.5h151.3ZM184.8,0H33.5c-3,0-5.5,2.5-5.5,5.5v126.5c0,3,2.5,5.5,5.5,5.5h151.3c3,0,5.5-2.5,5.5-5.5V5.5c0-3-2.5-5.5-5.5-5.5h0Z"/>
          </g>
          <path class="st0" d="M28,19.9V5.5c0-3,2.5-5.5,5.5-5.5h151.3c3,0,5.5,2.5,5.5,5.5v14.4H28Z"/>
          <g>
            <g>
              <rect class="st2" x="92.3" y="42.2" width="9" height="9"/>
              <path class="st0" d="M100.4,43.2v7h-7v-7h7ZM102.4,41.2h-11v11h11v-11h0Z"/>
            </g>
            <g>
              <rect class="st2" x="114.4" y="42.2" width="9" height="9"/>
              <path class="st0" d="M122.4,43.2v7h-7v-7h7ZM124.4,41.2h-11v11h11v-11h0Z"/>
            </g>
            <g>
              <rect class="st2" x="136.4" y="42.2" width="9" height="9"/>
              <path class="st0" d="M144.4,43.2v7h-7v-7h7ZM146.4,41.2h-11v11h11v-11h0Z"/>
            </g>
            <g>
              <rect class="st2" x="158.4" y="42.2" width="9" height="9"/>
              <path class="st0" d="M166.4,43.2v7h-7v-7h7ZM168.4,41.2h-11v11h11v-11h0Z"/>
            </g>
            <g>
              <rect class="st2" x="48.3" y="64.2" width="9" height="9"/>
              <path class="st0" d="M56.3,65.2v7h-7v-7h7ZM58.3,63.2h-11v11h11v-11h0Z"/>
            </g>
            <g>
              <rect class="st2" x="70.3" y="64.2" width="9" height="9"/>
              <path class="st0" d="M78.3,65.2v7h-7v-7h7ZM80.3,63.2h-11v11h11v-11h0Z"/>
            </g>
            <rect class="st1" x="91.3" y="63.2" width="11" height="11"/>
            <rect class="st1" x="113.4" y="63.2" width="11" height="11"/>
            <g>
              <rect class="st2" x="136.4" y="64.2" width="9" height="9"/>
              <path class="st0" d="M144.4,65.2v7h-7v-7h7ZM146.4,63.2h-11v11h11v-11h0Z"/>
            </g>
            <g>
              <rect class="st2" x="158.4" y="64.2" width="9" height="9"/>
              <path class="st0" d="M166.4,65.2v7h-7v-7h7ZM168.4,63.2h-11v11h11v-11h0Z"/>
            </g>
            <rect class="st1" x="47.3" y="85.2" width="11" height="11"/>
            <rect class="st1" x="69.3" y="85.2" width="11" height="11"/>
            <rect class="st1" x="91.3" y="85.2" width="11" height="11"/>
            <g>
              <rect class="st2" x="114.4" y="86.2" width="9" height="9"/>
              <path class="st0" d="M122.4,87.2v7h-7v-7h7ZM124.4,85.2h-11v11h11v-11h0Z"/>
            </g>
            <rect class="st1" x="135.4" y="85.2" width="11" height="11"/>
            <g>
              <rect class="st2" x="158.4" y="86.2" width="9" height="9"/>
              <path class="st0" d="M166.4,87.2v7h-7v-7h7ZM168.4,85.2h-11v11h11v-11h0Z"/>
            </g>
            <g>
              <rect class="st2" x="48.3" y="108.3" width="9" height="9"/>
              <path class="st0" d="M56.3,109.2v7h-7v-7h7ZM58.3,107.2h-11v11h11v-11h0Z"/>
            </g>
            <g>
              <rect class="st2" x="70.3" y="108.3" width="9" height="9"/>
              <path class="st0" d="M78.3,109.2v7h-7v-7h7ZM80.3,107.2h-11v11h11v-11h0Z"/>
            </g>
            <g>
              <rect class="st2" x="92.3" y="108.3" width="9" height="9"/>
              <path class="st0" d="M100.4,109.2v7h-7v-7h7ZM102.4,107.2h-11v11h11v-11h0Z"/>
            </g>
          </g>
          <rect class="st0" x="50.1" y="45.8" width="5.5" height="2"/>
          <rect class="st0" x="72.1" y="45.8" width="5.5" height="2"/>
          <rect class="st0" x="160.1" y="111.8" width="5.5" height="2"/>
          <rect class="st0" x="138.1" y="111.8" width="5.5" height="2"/>
          <rect class="st0" x="116.1" y="111.8" width="5.5" height="2"/>
          <rect class="st2" x="88.5" y="10" width="49.5" height="2"/>
          <rect class="st2" x="39" y="10" width="5.5" height="2"/>
          <rect class="st2" x="173.8" y="10" width="5.5" height="2"/>
        </g>
        <g>
          <path class="st2" d="M116.1,161.1h0c-4.2-14.3-20.3-24.8-20.3-24.8l-29.7.2h-23.3s-2.3-14-4.2-18.7c-1.9-4.7-9.4-4.6-9.4-4.6l2.2,14.5s-6-12.9-8.1-15.8c-2.1-2.9-9.2-2.6-9.2-2.6l3.6,9.1s-4.3-5.8-8-7.2c-3.7-1.4-8.7.4-8.7.4l26.2,36.9,60.9,18,3.1,9.8h0l3,30.1h44c-11.1-23.8-22.1-45.4-22.1-45.4h0Z"/>
          <path class="st0" d="M138.2,207.5h-44c-.5,0-.9-.4-1-.9l-3-30-2.9-9.2-60.4-17.8c-.2,0-.4-.2-.5-.4L.2,112.3c-.2-.2-.2-.6-.1-.9s.3-.5.6-.6c.2,0,5.4-1.9,9.4-.3,1.6.6,3.3,1.9,4.7,3.3l-1.5-4c-.1-.3,0-.6,0-.9.2-.3.5-.4.8-.4.8,0,7.6-.2,10,3,1.2,1.6,3.5,6.1,5.4,9.9l-1.2-7.9c0-.3,0-.6.2-.8.2-.2.5-.3.7-.4.3,0,8.2-.1,10.3,5.2,1.6,4.2,3.6,15,4.1,18.1h22.4l29.7-.2c.2,0,.4,0,.6.2.7.4,16.4,10.8,20.7,25.3.8,1.5,11.4,22.5,22,45.3.1.3.1.7,0,1-.2.3-.5.5-.8.5h0ZM95.1,205.5h41.5c-10.7-23-21.3-43.7-21.4-43.9,0,0,0-.1,0-.2-3.7-12.8-17.6-22.7-19.6-24.1l-29.4.2h-23.3c-.5,0-.9-.3-1-.8,0-.1-2.3-13.9-4.1-18.5-1.2-3-5.3-3.7-7.3-3.9l2,13.3c0,.5-.2,1-.7,1.1-.5.1-1,0-1.2-.5,0-.1-5.9-12.9-8-15.6-1.2-1.6-4.7-2.1-6.9-2.2l3,7.8c.2.5,0,1-.4,1.2-.4.2-1,.1-1.3-.3,0,0-4.2-5.6-7.6-6.8-2.2-.9-5.1-.4-6.7,0l25.2,35.5,60.6,17.9c.3,0,.6.3.7.7l3.1,9.8c0,0,0,.1,0,.2l2.9,29.2h0Z"/>
        </g>
        <g>
          <path class="st0" d="M95.1,154c-.4,0-.8-.3-1-.7-.2-.6-4.7-14.9-25.1-15.4-21.2-.5-26.4-.6-26.5-.6-.6,0-1-.5-1-1,0-.6.4-1,1-1h0c0,0,5.3,0,26.5.6,11.4.3,18.1,4.8,21.8,8.5,4,4.1,5.2,8.1,5.2,8.2.2.5-.1,1.1-.7,1.2,0,0-.2,0-.3,0h0Z"/>
          <path class="st0" d="M35.3,151.1c-.5,0-.9-.4-1-.9-.3-2.2-6-36.4-6-36.8,0-.5.3-1.1.8-1.2.5,0,1.1.3,1.1.8.2,1.4,5.7,34.6,6,36.8,0,.6-.3,1.1-.9,1.1h-.1Z"/>
          <path class="st0" d="M30.3,150.5c-.4,0-.8-.2-.9-.6l-16.2-39.8c-.2-.5,0-1.1.6-1.3.5-.2,1.1,0,1.3.6l16.2,39.8c.2.5,0,1.1-.6,1.3-.1,0-.2,0-.4,0h0Z"/>
        </g>
        <path class="st0" d="M94.2,206.5v20.4h195l-12.9-39.6c-4.3-13.2-15.8-22.7-29.6-24.5l-67.1-8.6c-11.9-1.5-23.7,3.7-30.6,13.6l-18.8,27.1-36.1,11.5h0Z"/>
        <path class="st2" d="M142.2,221.3c-.4,0-.7-.2-.9-.6l-12-25.3c-.2-.5,0-1.1.5-1.3s1.1,0,1.3.5l12,25.3c.2.5,0,1.1-.5,1.3-.1,0-.3,0-.4,0h0Z"/>
        <g>
          <circle class="st0" cx="246.7" cy="119.5" r="40.6" transform="translate(40.6 300.1) rotate(-67.1)"/>
          <circle class="st0" cx="218.9" cy="96.6" r="26.9" transform="translate(-20.4 93.7) rotate(-23.1)"/>
          <circle class="st0" cx="203.8" cy="84" r="16.1"/>
          <ellipse class="st0" cx="279.3" cy="103.3" rx="27.4" ry="26.6" transform="translate(82.1 326.4) rotate(-68.8)"/>
          <path class="st0" d="M286.3,134.2c-.5,0-.9-.3-1-.8-.1-.5.3-1.1.8-1.2,8.2-1.5,15.4-7.8,18.8-16.5,5-12.9,0-26.8-11-31.1-.5-.2-.8-.8-.6-1.3.2-.5.8-.8,1.3-.6,12.1,4.7,17.5,19.8,12.1,33.7-3.6,9.4-11.4,16.2-20.3,17.8,0,0-.1,0-.2,0h0Z"/>
          <circle class="st0" cx="219.5" cy="83.7" r="36.5"/>
          <circle class="st0" cx="245.2" cy="81.2" r="36.5"/>
          <path class="st0" d="M248.8,118.4c-4.6,0-9.2-.8-13.6-2.6-9.3-3.6-16.7-10.7-20.8-19.8-4.1-9.2-4.3-19.4-.7-28.7h0c3.6-9.3,10.7-16.7,19.8-20.8,9.2-4.1,19.4-4.3,28.7-.7,9.3,3.6,16.7,10.7,20.8,19.8,4.1,9.2,4.3,19.4.7,28.7-3.6,9.3-10.7,16.7-19.8,20.8-4.9,2.1-10,3.2-15.1,3.2h0ZM215.7,68c-3.4,8.8-3.2,18.5.6,27.2,3.8,8.7,10.8,15.3,19.7,18.8,8.8,3.4,18.5,3.2,27.2-.6s15.3-10.8,18.8-19.7c3.4-8.8,3.2-18.5-.6-27.2-3.8-8.7-10.8-15.3-19.7-18.8-8.8-3.4-18.5-3.2-27.2.6s-15.3,10.8-18.8,19.7h0Z"/>
          <path class="st0" d="M232.2,133.7c-.1,0-.2,0-.4,0-2-.8-3.7-2.1-5-3.7-.6-.8-1.1-1.6-1.5-2.5-.2-.5,0-1.1.5-1.3.5-.2,1.1,0,1.3.5.3.8.8,1.5,1.3,2.1,1.1,1.4,2.5,2.4,4.2,3.1.5.2.8.8.6,1.3-.1.4-.5.6-.9.6h0Z"/>
          <g>
            <path class="st2" d="M231.6,131.9c6.2,2.4,13-.5,15.1-6.4,1.9-5.5-1.3-11.8-7-14.1-3.2-1.3-6.6-1.1-9.4.2,4-12.6,1-25.5-8.4-31.5-11.8-7.5-29.2-1.4-38.9,13.7-9.7,15.1-7.9,33.5,3.9,41,.6.4,1.3.7,1.9,1.1l1.3,20.7-8.4-1.1c-.3,1.2-.4,2.4-.4,3.6,0,12.8,14.6,23.1,32.6,23.1s28.9-7.9,31.9-18.5l-14.5-1.8-3.2-32.2c1,.9,2.2,1.6,3.5,2.1h0Z"/>
            <path class="st0" d="M213.8,183.3c-18.5,0-33.6-10.8-33.6-24.1s.1-2.6.4-3.8c.1-.5.6-.8,1.1-.8l7.2.9-1.2-18.9c-.5-.2-1-.5-1.5-.8-12.2-7.8-14.1-26.8-4.2-42.4,4.8-7.5,11.6-13.1,19.1-15.8,7.6-2.7,15.1-2.1,21.1,1.7,9.1,5.8,12.7,18,9.3,30.7,2.7-.8,5.6-.6,8.3.4,6.2,2.4,9.7,9.3,7.6,15.3-1,3-3.2,5.4-6.1,6.8-3.1,1.5-6.9,1.6-10.2.3-.7-.3-1.3-.6-1.9-.9l2.9,29.2,13.7,1.8c.3,0,.6.2.7.4s.2.5.1.8c-3.2,11.2-17,19.2-32.9,19.2h0ZM182.4,156.7c-.1.8-.2,1.7-.2,2.5,0,12.2,14.2,22.1,31.6,22.1s27.1-6.9,30.6-16.7l-13.3-1.7c-.5,0-.8-.4-.9-.9l-3.2-32.2c0-.4.2-.8.5-1s.8-.1,1.1.1c1,.8,2.1,1.5,3.2,1.9h0c2.8,1.1,6,1,8.6-.2,2.4-1.1,4.2-3.1,5.1-5.6,1.7-5-1.2-10.7-6.5-12.8-2.8-1.1-6-1-8.7.2-.4.2-.8.1-1.1-.2-.3-.3-.4-.7-.3-1.1,4-12.6.8-24.7-7.9-30.3-5.4-3.5-12.3-4-19.4-1.5-7.1,2.5-13.6,7.8-18.1,15-9.4,14.6-7.8,32.4,3.6,39.7.6.4,1.3.7,1.8,1,.3.2.5.5.6.8l1.3,20.7c0,.3-.1.6-.3.8-.2.2-.5.3-.8.3l-7.4-.9h0Z"/>
          </g>
          <path class="st0" d="M230.5,113.3c-.3,0-.5,0-.8,0-14.2-1.7-24.1-17.8-21.9-36,0-.2,0-.4,0-.6,5.1-.6,10.1.4,14.4,3.2,10,6.4,13,20.2,8.2,33.5h0Z"/>
          <path class="st0" d="M198.3,138.7c-3.2,0-6.5-.5-9.7-1.5-.5-.2-.8-.7-.6-1.3.2-.5.7-.8,1.3-.7,8.3,2.7,17.3,1.6,24.7-3,.5-.3,1.1-.2,1.4.3.3.5.1,1.1-.3,1.4-5.1,3.2-10.8,4.8-16.6,4.8h0Z"/>
          <path class="st0" d="M190.9,91.7c.1.9-1.8,1.9-4.2,2.3s-4.6,0-4.7-.9,1.8-1.9,4.2-2.3c2.5-.4,4.6,0,4.7.9Z"/>
          <path class="st0" d="M210.2,103c-.6.9-3.2.3-5.8-1.4s-4.2-3.8-3.6-4.8c.6-.9,3.2-.3,5.8,1.4s4.2,3.8,3.6,4.8Z"/>
          <path class="st0" d="M189.5,108.3c-.4,0-.7-.2-.9-.6-.7-1.5-.6-3.2.2-4.6l4-6.2c.3-.5.9-.6,1.4-.3.5.3.6.9.3,1.4l-4,6.2c-.5.8-.6,1.8-.1,2.6.2.5,0,1.1-.4,1.3-.1,0-.3.1-.4.1h0Z"/>
          <path class="st0" d="M193.7,124.3c-.2,0-.4,0-.6,0-2.4-.3-4.4-2.5-5.8-6.5h0c-.2-.4,0-.9.2-1.2.4-.4,1.2-1.3,12.3,2,.3,0,.6.3.7.6.1.3,0,.6-.1.9-.1.2-3.1,4.2-6.6,4.2h0ZM189.5,118.1c.8,1.9,2.1,3.9,3.8,4.1,1.6.2,3.3-1.1,4.4-2.2-3.2-.9-6.6-1.7-8.2-1.9h0ZM189.1,117.1h0Z"/>
          <path class="st0" d="M231,124.2c0,0-.2,0-.3,0-.5-.2-.8-.7-.7-1.2.9-3.1,2.5-5.3,4.7-6.5,3.2-1.7,6.5-.6,6.6-.6.5.2.8.7.6,1.3-.2.5-.7.8-1.3.6h0s-2.7-.8-5.1.5c-1.7.9-2.9,2.7-3.7,5.2-.1.4-.5.7-1,.7h0Z"/>
          <path class="st0" d="M188.3,100.8c-.8,1.7-2.4,2.6-3.7,2.1-1.3-.6-1.7-2.4-.9-4.1.8-1.7,2.4-2.6,3.7-2.1s1.7,2.4.9,4.1Z"/>
          <path class="st0" d="M202.7,107.3c-.8,1.7-2.4,2.6-3.7,2.1-1.3-.6-1.7-2.4-.9-4.1.8-1.7,2.4-2.6,3.7-2.1,1.3.6,1.7,2.4.9,4.1Z"/>
        </g>
      </g>
    </g>
  </g>
</svg>