<?xml version="1.0" encoding="UTF-8"?>
<svg id="Layer_1" xmlns="http://www.w3.org/2000/svg" version="1.1" viewBox="0 0 285.3 232.6">
  <!-- Generator: Adobe Illustrator 29.2.0, SVG Export Plug-In . SVG Version: 2.1.0 Build 108)  -->
  <defs>
    <style>
      .st0 {
        fill: #303030;
      }

      .st1 {
        fill: #26a8df;
      }

      .st2 {
        fill: #fafafa;
      }
    </style>
  </defs>
  <g id="Layer_2">
    <g id="_Layer_">
      <g>
        <path class="st2" d="M194.4,184.9s28.9-14.6,36.8-15,29.1.3,29.1.3l-58.1,60.6-11.1-8.8,3.2-37.1h0Z"/>
        <path class="st2" d="M202.2,230.8l82.1.7s.7-16.2-4.4-33.9-19.6-27.3-19.6-27.3l-58.1,60.6h0Z"/>
        <path class="st0" d="M284.2,231.8h0c-.6,0-1-.5-.9-1,2-44.8-23.7-60.3-23.9-60.5-.5-.3-.6-.9-.4-1.4.3-.5.9-.6,1.4-.4.3.2,26.9,16.2,24.9,62.3,0,.5-.5,1-1,1Z"/>
        <path class="st0" d="M249.3,231.8c-.5,0-1-.4-1-1,0,0,0-5.5-.4-11.6,0-.6.4-1,1-1,.6,0,1,.4,1,1,.3,6.2.4,11.6.4,11.7,0,.6-.4,1-1,1h0Z"/>
        <g>
          <g>
            <path class="st0" d="M135.5,111.7c20,4.5,40.7,4.5,60.6,0,11.6-3,20.6-16.4,20.7-27.4v-23.3c0-11-9.1-24.4-20.7-27.4-20-4.5-40.7-4.5-60.6,0-11.6,3-20.7,16.4-20.7,27.4v23.3c0,11,9.1,24.4,20.7,27.4Z"/>
            <path class="st0" d="M201.1,97l6.2,23.5c1,3.8-3,7.1-6.5,5.3l-29-14.5c-3.6-1.8-3.4-7,.4-8.4l22.8-9c2.6-1,5.4.4,6.2,3.1h0Z"/>
          </g>
          <g>
            <path class="st1" d="M167.8,81.5c-20,4.5-40.7,4.5-60.6,0-11.6-3-20.7-16.4-20.7-27.4v-23.3c0-11,9.1-24.4,20.7-27.4,20-4.5,40.7-4.5,60.6,0,11.6,3,20.7,16.4,20.7,27.4v23.3c0,11-9.1,24.4-20.7,27.4Z"/>
            <path class="st1" d="M102.2,66.8l-6.2,23.5c-1,3.8,3,7.1,6.5,5.3l29-14.5c3.6-1.8,3.4-7-.4-8.4l-22.8-9c-2.6-1-5.4.4-6.2,3.1h0Z"/>
          </g>
          <g>
            <rect class="st2" x="131.5" y="63.7" width="5.9" height="5"/>
            <path class="st2" d="M142.5,46.5v-5c3.4,0,6.1-2.7,6.1-6.1v-4.3c0-3.4-2.7-6.1-6.1-6.1h-8.6c-3.4,0-6.1,2.7-6.1,6.1h-5c0-6.1,5-11.1,11.1-11.1h8.6c6.1,0,11.1,5,11.1,11.1v4.3c0,6.1-5,11.1-11.1,11.1Z"/>
            <path class="st2" d="M136.4,57h-5v-4.3c0-6.1,5-11.1,11.1-11.1v5c-3.4,0-6.1,2.7-6.1,6.1v4.3Z"/>
          </g>
          <g>
            <g>
              <path class="st2" d="M257.3,168.6c-3.6-9.5-4.6-24.1,1.8-46.4,12.1-42-23.6,28.4-23.6,28.4.2,2.5,2.7,8.7-6,19.7l3.9,5.2,23.8-6.9h0Z"/>
              <path class="st0" d="M229.6,171.3c-.2,0-.4,0-.6-.2-.4-.3-.5-1-.2-1.4,7.4-9.3,6.5-14.9,6-17.9,0-.4-.1-.8-.2-1.1,0-.2,0-.4.1-.5,0-.1,5.6-10.9,11.4-21.5,12.3-22,14.2-21.3,15.4-20.8,1.3.5,2.2,2-1.4,14.5-5.5,19.1-6.1,34.5-1.9,45.8.2.5,0,1.1-.6,1.3-.5.2-1.1,0-1.3-.6-4.4-11.7-3.8-27.6,1.8-47.1,2.4-8.3,2.6-11,2.5-11.9-3.2,2.1-14.5,21.9-24,40.8,0,.2,0,.4.1.7.5,3.1,1.6,9.4-6.4,19.5-.2.2-.5.4-.8.4h0Z"/>
              <path class="st2" d="M234.6,101.1s-11.2,41.4-9.5,51.2c1.7,9.8,9.6,12.9,20.5.8,21-23.2,22.4-43,17.3-46.9-5.1-4-18.7-18.4-28.3-5h0Z"/>
              <path class="st0" d="M245.5,108.4c-6.7.4-17.5,3-22.5-14.7-5-17.7,10.3-19.5,16.8-9.9s5.4,13.6,1.1,9c-4.3-4.6,4.4-16,10.4-7.2,5.9,8.9,7.4,21.4,4.1,20.3-3.3-1,9-13.5,12.4-6.9s5.2,15.7.2,17.9-9.5-7.9-5.1-4c4.4,3.9,3.8,22.4-2.6,24.4-6.4,2.1-5.9-2.7.1-7.5,6-4.9-.3-16.8-4.1-6.3-.3.9-2.8,6.9-2.8,6.9l-4.4,3s1.3-12.2,4.5-16.3c7.2-9.3,7-9.6-8-8.7h0Z"/>
            </g>
            <g>
              <polygon class="st2" points="234.7 176.1 235 185.5 259.7 169.4 260 167.1 234.7 176.1"/>
              <path class="st0" d="M235,186.5c-.2,0-.3,0-.5-.1-.3-.2-.5-.5-.5-.8l-.4-9.4c0-.4.2-.8.7-1l25.3-9c.3-.1.7,0,.9.2.3.2.4.6.4.9l-.2,2.3c0,.3-.2.6-.4.7l-24.7,16.1c-.2.1-.4.2-.6.2h0ZM235.7,176.8l.3,6.9,22.8-14.9v-.3s-23.1,8.2-23.1,8.2h0Z"/>
            </g>
            <g>
              <polygon class="st2" points="229.6 166.9 226.2 181.4 233.9 176 229.6 166.9"/>
              <path class="st0" d="M226.2,182.4c-.2,0-.4,0-.6-.2-.3-.2-.5-.7-.4-1.1l3.4-14.4c.1-.4.4-.7.9-.8.4,0,.8.2,1,.6l4.3,9.1c.2.4,0,1-.3,1.2l-7.7,5.3c-.2.1-.4.2-.6.2h0ZM229.9,169.9l-2.1,9.1,4.9-3.4-2.7-5.7h0Z"/>
            </g>
            <path class="st0" d="M232.9,161.9c-.8,0-1.5-.1-2.2-.3-3.4-1-5.7-4.2-6.6-9.2-1.3-7.4,4.3-31.4,7.8-45.1.1-.5.7-.9,1.2-.7s.9.7.7,1.2c-2.8,10.9-9,36.9-7.8,44.2.7,4.2,2.6,6.9,5.2,7.6,3.6,1,8.4-1.6,13.6-7.3.4-.4,1-.4,1.4,0s.4,1,0,1.4c-5.8,6.5-10.3,8.2-13.5,8.2h0Z"/>
            <path class="st0" d="M233.9,141.8h-2.7c-.3-.1-.6-.2-.8-.5-.2-.2-.2-.5-.2-.8l4.1-18.9c.1-.5.6-.9,1.2-.8.5.1.9.7.8,1.2l-3.9,17.7h1.5c.6,0,1,.5,1,1.1,0,.5-.5,1-1,1h0Z"/>
            <path class="st0" d="M230.8,128.3c0,.7-.7,1.2-1.4,1.1-.7,0-1.2-.7-1.1-1.4,0-.7.7-1.2,1.4-1.1.7,0,1.2.7,1.1,1.4Z"/>
            <path class="st0" d="M231.8,125c-.5,0-.9-.3-1-.8,0,0,0-.2-.3-.3-.3-.1-1.1-.4-3,.3-.5.2-1.1,0-1.3-.6s.1-1.1.6-1.3c2.1-.7,3.7-.7,4.8,0,.8.5,1.1,1.2,1.2,1.6,0,.6-.3,1.1-.9,1.1h-.1Z"/>
            <path class="st0" d="M241.4,129.4c0,.7-.7,1.2-1.4,1.1-.7,0-1.2-.7-1.1-1.4,0-.7.7-1.2,1.4-1.1.7,0,1.2.7,1.1,1.4Z"/>
            <path class="st0" d="M242.5,126.1c-.5,0-.9-.3-1-.8,0,0,0-.2-.3-.3-.3-.1-1.1-.4-3,.3-.5.2-1.1,0-1.3-.6s.1-1.1.6-1.3c2.1-.7,3.7-.7,4.8,0,.8.5,1.1,1.2,1.2,1.6,0,.6-.3,1.1-.9,1.1h-.1Z"/>
            <path class="st0" d="M239.4,150.9c-.4,0-.8-.3-1-.7-.1-.5.2-1.1.7-1.2,1.6-.4,2.8-2.7,3.2-3.5.2-.5.8-.8,1.3-.5.5.2.8.8.5,1.3-.2.4-1.7,3.9-4.5,4.7,0,0-.2,0-.3,0h0Z"/>
          </g>
          <path class="st0" d="M202.3,183.2c-.3,0-.6-.1-.8-.3-.4-.4-.3-1.1.1-1.4,6.9-5.9,26.9-11.8,27.7-12.1.5-.2,1.1.2,1.2.7.2.5-.1,1.1-.7,1.2-.2,0-20.3,6.1-27,11.7-.2.2-.4.2-.6.2h0Z"/>
          <g>
            <path class="st0" d="M132.9,179.6l18.7,52H0l11-30.9c2.7-7.7,8.6-13.8,16.2-16.8l44.1-17.4c10.6-4.6,22.9-1.4,29.9,7.8l6.2,8.1,25.4-2.8h0Z"/>
            <g>
              <path class="st2" d="M107.3,181.5l-4-16.1c-1.8-7.2-.7-14.9,3.1-21.3l10.8-18.4c.9-1.6,2.8-2.5,4.7-2.2h0c2.9.4,4.7,3.3,3.7,6.1l-4.8,14.1,20.6,1.5,21.1-13.5c1.9-1.2,4.5-.9,6.1.8h0c.9,1.1.8,2.7-.3,3.6l-36.6,30.4,1,12.1-25.3,2.8h0Z"/>
              <path class="st0" d="M107.3,182.5c-.4,0-.9-.3-1-.8l-4-16.1c-1.9-7.5-.8-15.4,3.2-22.1l10.8-18.4c1.2-2,3.4-3.1,5.7-2.7,1.7.2,3.1,1.2,4,2.6.9,1.4,1.1,3.2.5,4.8l-4.4,12.9,19,1.4,20.8-13.3c2.4-1.5,5.5-1.1,7.4,1,.6.7,1,1.6.9,2.6,0,1-.5,1.8-1.3,2.4l-36.2,30.1.9,11.6c0,.6-.4,1-.9,1.1-.6,0-1-.4-1.1-.9l-1-12.1c0-.3.1-.6.4-.8l36.6-30.4c.3-.3.5-.6.5-1.1s-.1-.8-.4-1.1c-1.2-1.4-3.2-1.6-4.8-.7l-21.1,13.5c-.2.1-.4.2-.6.2l-20.6-1.5c-.3,0-.6-.2-.8-.4s-.2-.6-.1-.9l4.8-14.1c.4-1,.2-2.2-.3-3.1-.6-.9-1.5-1.6-2.6-1.7-1.5-.2-2.9.5-3.7,1.8l-10.8,18.4c-3.7,6.2-4.7,13.6-2.9,20.6l4,16.1c.1.5-.2,1.1-.7,1.2,0,0-.2,0-.2,0h0Z"/>
            </g>
            <g>
              <path class="st2" d="M151.9,143.8l5.8-17.2c.5-1.6-.9-3.1-2.6-2.6h0c-2,.6-3.7,2.1-4.6,4l-8.1,15.9h9.5c0-.1,0-.1,0-.1Z"/>
              <path class="st0" d="M142.4,144.9c-.1,0-.3,0-.4-.1-.5-.2-.7-.8-.4-1.3l8.1-15.9c1-2.2,2.9-3.8,5.2-4.5,1.1-.3,2.3,0,3.1.8.8.8,1.1,2,.7,3.1l-5.8,17.2c-.2.5-.7.8-1.3.6-.5-.2-.8-.7-.6-1.3l5.8-17.2c.1-.4,0-.8-.2-1.1-.3-.3-.7-.4-1.1-.3-1.8.6-3.2,1.8-4,3.5l-8.1,15.9c-.2.3-.5.6-.9.6h0Z"/>
            </g>
            <g>
              <path class="st2" d="M122.8,158.5l12.1-9.8,4.4-16.6c.6-2.3,2.4-4,4.6-4.7h0c1.5-.4,2.9.8,2.7,2.3l-2.5,20.9-21.3,7.8Z"/>
              <path class="st0" d="M122.8,159.5c-.3,0-.6-.1-.8-.4-.4-.4-.3-1.1.1-1.4l11.8-9.6,4.3-16.2c.7-2.6,2.7-4.7,5.3-5.4,1-.3,2.1,0,2.9.6.8.7,1.2,1.7,1.1,2.7l-2.5,20.9c0,.6-.6.9-1.1.9-.6,0-.9-.6-.9-1.1l2.5-20.9c0-.4-.1-.7-.4-1-.3-.2-.7-.3-1-.2-1.9.5-3.4,2.1-3.9,4l-4.4,16.6c0,.2-.2.4-.3.5l-12.1,9.8c-.2.2-.4.2-.6.2h0Z"/>
            </g>
            <g>
              <path class="st0" d="M59.6,149.7l-8.6,2.6c-9.9,3-20.5-2.6-23.5-12.5l-1-3.4c-3.8-12.4,3.3-25.7,15.7-29.4l2,3.1c7.8-2.4,16.1,2.1,18.4,9.8l4.7,15.4c1.8,6.1-1.6,12.5-7.6,14.4h0Z"/>
              <ellipse class="st0" cx="49.3" cy="131.6" rx="21.1" ry="19.9" transform="translate(-2.1 .8) rotate(-.9)"/>
              <path class="st0" d="M68.9,165.2c-6.3-1.3-11.8-5.8-14.1-12.3l-2.1-6,15.9-5.7.4,24Z"/>
              <path class="st0" d="M44,134.6c-1.4-6.6,1.2-13.7,6.8-17.1h0c3.5-2.1,7.4-2.3,10.9-.9-1.8.2-7,1.1-7.9,4.5-1.2,4.2-1.2,12.2-9.8,13.5h0Z"/>
              <path class="st0" d="M72,114.8c1.5,5-1.3,10.3-6.3,11.8s-10.3-1.3-11.8-6.3,1.3-10.3,6.3-11.8,10.3,1.3,11.8,6.3Z"/>
              <path class="st0" d="M39.3,110.9c-9.4,4.2-14.5,14.7-11.8,24.9,2.7.8,5.6.8,8.5,0,7.5-2.3,11.8-10,9.7-17.1-1-3.4-3.4-6.1-6.3-7.7Z"/>
              <path class="st0" d="M54.4,113.1c1.5,5-1.3,10.3-6.3,11.8s-10.3-1.3-11.8-6.3,1.3-10.3,6.3-11.8,10.3,1.3,11.8,6.3Z"/>
              <path class="st0" d="M65.1,110.3c1.6,5.1-1.3,10.6-6.5,12.1s-10.6-1.3-12.1-6.5c-1.6-5.1,1.3-10.6,6.5-12.1s10.6,1.3,12.1,6.5Z"/>
              <path class="st0" d="M31.5,121.4c-.3,0-.7-.2-.8-.5-1.3-2.1-4.2-1.8-4.3-1.8-.6,0-1-.3-1.1-.9,0-.6.3-1,.9-1.1.2,0,4.2-.4,6.2,2.7.3.5.2,1.1-.3,1.4-.2.1-.3.2-.5.2Z"/>
              <path class="st0" d="M31.8,121.1c0,0-.2,0-.3,0-3.5-1-4.3-4.9-4.4-5.1-.1-.5.2-1.1.8-1.2.5-.1,1.1.2,1.2.8,0,0,.6,2.9,3,3.6.5.2.8.7.7,1.2-.1.4-.5.7-1,.7h0Z"/>
              <g>
                <path class="st2" d="M71.6,167.6l-2.6.3-.2-10.4c1.2-.3,2.5-.7,3.7-1.3,7.2-3.8,9.9-12.7,6.1-19.9l-2.7-5c1.3-.9,1.8-2.7,1-4.1h0c-.8-1.5-2.5-2.1-4-1.5l-.8-1.4c-3.8-7.2-12.7-9.9-19.9-6.1h0c-6,3.2-8.9,10.1-7.4,16.4-2.7.8-4.4,3.4-4.1,6.3.3,2.5,2.1,4.4,4.4,5.1l.5,29.1-5.3,4.6c1.9,5.2,6.8,10.2,13.5,12.9,10.7,4.3,21.9,1.5,25.1-6.4,2.5-6.2-.7-13.5-7.3-18.6h0Z"/>
                <path class="st0" d="M63.7,195.6c-3.3,0-6.9-.7-10.4-2.1-6.7-2.7-12-7.8-14.1-13.5-.1-.4,0-.8.3-1.1l5-4.3-.4-27.9c-2.4-.9-4.1-3.1-4.4-5.7-.3-3,1.3-5.8,3.9-7.1-1.2-6.7,2-13.4,8.1-16.7,7.6-4.1,17.2-1.2,21.2,6.5l.4.7c1.8-.3,3.6.6,4.4,2.2.8,1.6.5,3.5-.7,4.8l2.3,4.3c4.1,7.6,1.2,17.2-6.5,21.2-1,.5-2,.9-3.1,1.2v8.6c.1,0,1.7-.2,1.7-.2.2,0,.5,0,.7.2,7.1,5.4,10.2,13.3,7.6,19.7-2.3,5.8-8.7,9-16,9h0ZM41.4,180c2,4.9,6.7,9.3,12.7,11.7,10.1,4.1,20.8,1.5,23.8-5.8,2.2-5.4-.4-12.3-6.6-17.1l-2.2.2c-.3,0-.6,0-.8-.2s-.3-.4-.3-.7l-.2-10.4c0-.5.3-.9.8-1,1.2-.3,2.4-.7,3.4-1.2,6.7-3.6,9.2-11.8,5.7-18.5l-2.7-5c-.2-.4,0-1,.3-1.3.9-.6,1.2-1.8.7-2.8-.5-1-1.7-1.4-2.8-1-.5.2-1,0-1.2-.5l-.8-1.4c-1.7-3.2-4.6-5.6-8.1-6.7-3.5-1.1-7.2-.7-10.4,1-5.5,2.9-8.3,9.2-6.9,15.3.1.5-.2,1-.7,1.2-2.2.7-3.7,2.9-3.4,5.2.2,2,1.7,3.7,3.6,4.2.4.1.7.5.7.9l.5,29.1c0,.3-.1.6-.3.8l-4.8,4.1h0Z"/>
              </g>
              <path class="st0" d="M47.7,142.7c-.4,0-.9-.3-1-.8-.4-1.7-2.1-2-2.1-2-.5,0-.9-.6-.8-1.1,0-.5.6-.9,1.1-.8.1,0,3.1.5,3.8,3.5.1.5-.2,1.1-.7,1.2,0,0-.2,0-.2,0h0Z"/>
              <path class="st0" d="M71.2,136.2c-1,0-2.2-.3-3.4-1.4-.4-.3-.5-1-.2-1.4.3-.4,1-.5,1.4-.2,2.1,1.7,3.3.6,3.5.4.4-.4,1-.4,1.4,0,.4.4.4,1,0,1.4-.5.6-1.5,1.2-2.8,1.2h0Z"/>
              <path class="st0" d="M69.4,127.1c.3.8,0,1.6-.7,1.8-.6.2-1.4-.2-1.7-1s0-1.6.7-1.8c.6-.2,1.4.2,1.7,1Z"/>
              <path class="st0" d="M66.3,122.8c.4.4-.1,1.5-1.1,2.5-1,1-2.1,1.6-2.5,1.2s.1-1.5,1.1-2.5c1-1,2.1-1.6,2.5-1.2Z"/>
              <path class="st0" d="M47.9,120.6c-6.1,2.1-9.8,8.3-8.7,14.7,1.6.6,3.4.8,5.3.5,4.8-1,7.9-5.5,7-10-.4-2.2-1.7-4-3.5-5.1h0Z"/>
              <path class="st0" d="M65.8,158.6c-5.7,0-11.2-3.2-13.9-8.3-.3-.5,0-1.1.4-1.3.5-.3,1.1,0,1.3.4,2.8,5.3,8.9,8.2,14.8,7,.5-.1,1.1.2,1.2.8.1.5-.2,1.1-.8,1.2-1,.2-2.1.3-3.1.3h0Z"/>
            </g>
            <path class="st2" d="M114.8,232.6c-.5,0-.9-.4-1-.9l-6.8-47.5c0-.6.3-1.1.9-1.1s1.1.3,1.1.8l6.8,47.5c0,.6-.3,1.1-.9,1.1h-.1Z"/>
            <path class="st2" d="M40.7,230.9c0,0-.1,0-.2,0-.5-.1-.9-.6-.8-1.2l1.7-8.5c.1-.5.6-.9,1.2-.8.5.1.9.6.8,1.2l-1.7,8.5c0,.5-.5.8-1,.8h0Z"/>
          </g>
          <g>
            <path class="st2" d="M168.5,228.8c0,.7-.1,1.3-.1,2h34.7l-3.1-40.5,11-26.5c.1-.3,0-.8-.3-1l-17.5-12.4-1.6-16.4c-.3-2.8-2.5-5-5.3-5-3.2,0-5.6,2.7-5.3,5.8l1.6,16.5c-.2,0-.3,0-.5,0-1.4.1-2.7.8-3.6,1.9-1.1,1.3-1.4,3.1-1,4.7-1.4,0-2.8.7-3.7,1.9-.9,1.1-1.3,2.5-1.2,3.9,0,.3,0,.6.2.9-1.1.2-2.2.8-3,1.8-1,1.2-1.4,2.8-1.1,4.4l-.5,5c-.7,7,1.4,14.2,5.8,19.8l-5.5,33.4h0Z"/>
            <g>
              <path class="st2" d="M193.4,160.1l-8.9.9-2.6-26.2c-.2-2.5,1.6-4.7,4-4.9h0c2.5-.2,4.7,1.6,4.9,4l2.6,26.2h0Z"/>
              <path class="st0" d="M184.4,162c-.5,0-.9-.4-1-.9l-2.5-26c-.3-2.8,1.6-5.6,4.4-6.2,3.2-.6,6.2,1.7,6.5,4.8l2.6,26.2c0,.3,0,.5-.2.7s-.4.3-.7.4l-8.9.9h-.1ZM186.3,130.8c-.1,0-.2,0-.3,0-1.9.2-3.3,1.9-3.1,3.8l2.5,25.2,6.9-.7-2.5-25.2c-.2-1.8-1.7-3.2-3.5-3.2Z"/>
            </g>
            <g>
              <path class="st2" d="M197.2,168.5h0c-1.6,1.9-4.4,2.2-6.3.6l-11.1-9.1c-1.9-1.6-2.2-4.4-.6-6.3h0c1.6-1.9,4.4-2.2,6.3-.6l11.1,9.1c1.9,1.6,2.2,4.4.6,6.3Z"/>
              <path class="st0" d="M193.8,171.2c-1.3,0-2.5-.4-3.5-1.2l-10.9-9c-1-.8-1.8-2-2.1-3.3-.3-1.6.1-3.2,1.1-4.5,1-1.3,2.6-2,4.2-2,1.3,0,2.6.5,3.7,1.4l10.8,8.8c1,.8,1.8,2,2.1,3.3.3,1.6-.1,3.3-1.1,4.5q-.7.8,0,0c-.9,1.1-2.2,1.8-3.7,2-.2,0-.4,0-.5,0h0ZM182.7,153.1c-.1,0-.2,0-.3,0-.9,0-1.8.5-2.4,1.2-.7.9-1,2.1-.6,3.2.2.7.7,1.3,1.2,1.8l11,9c.7.6,1.6.9,2.6.8.9,0,1.8-.5,2.4-1.2.7-.9,1-2.1.6-3.2-.2-.7-.7-1.3-1.2-1.8l-11-9c-.6-.5-1.4-.8-2.2-.8h0ZM197.2,168.5h0Z"/>
            </g>
            <g>
              <path class="st2" d="M192.5,175.1h0c-1.6,1.9-4.4,2.2-6.3.6l-11.1-9.1c-1.9-1.6-2.2-4.4-.6-6.3h0c1.6-1.9,4.4-2.2,6.3-.6l11.1,9.1c1.9,1.6,2.2,4.4.6,6.3Z"/>
              <path class="st0" d="M189,177.8c-1.3,0-2.5-.4-3.5-1.2l-10.9-9c-1-.8-1.8-2-2.1-3.3-.3-1.6.1-3.3,1.1-4.5,1.9-2.3,5.4-2.7,7.7-.8l10.9,9c1,.8,1.8,2,2.1,3.3.3,1.6-.1,3.2-1.1,4.5-.9,1.1-2.2,1.8-3.7,2-.2,0-.4,0-.5,0h0ZM177.9,159.7c-1,0-2,.4-2.7,1.3-.7.9-1,2.1-.6,3.2.2.7.7,1.3,1.2,1.8l11,9c.7.6,1.6.9,2.6.8.9,0,1.8-.5,2.4-1.2.7-.9,1-2.1.6-3.2-.2-.7-.7-1.3-1.2-1.8l-11-9c-.6-.5-1.4-.8-2.2-.8h0Z"/>
            </g>
            <g>
              <path class="st2" d="M169.1,231.4c0-.8,0-1.7.1-2.6l5.5-33.7h0c-4.4-5.4-6.6-12.4-5.8-19.4l.5-5.2c-.3-1.3,0-2.7.9-3.8,1.6-1.9,4.5-2,6.5-.4l3.4,2.8c1.1.9,1.6,2.1,1.6,3.4,0,.2,0,.3,0,.5l.4,4.4c.2,2.3-1.3,4.6-3.6,5-2.6.5-5.1-1.4-5.3-4l-.4-3.6,1.6,20.3-5.6,36.2h0Z"/>
              <path class="st0" d="M169.1,232.4h0c-.6,0-1-.4-1-1,0-.9,0-1.8.1-2.7l5.4-33.3c-4.4-5.6-6.5-12.8-5.8-19.8l.5-5c-.3-1.6.1-3.2,1.2-4.5,1.9-2.3,5.4-2.6,7.9-.6l3.4,2.8c1.2,1,1.9,2.5,2,4.1,0,.2,0,.3,0,.5l.4,4.4c.3,2.9-1.6,5.6-4.4,6.1-1.5.3-3.1,0-4.3-1-1.2-.9-2-2.3-2.2-3.9l-.4-3.6c0-.6.4-1,.9-1.1.6,0,1,.3,1.1.9l.3,3.5c0,.9.4,1.7,1.1,2.3.8.8,2,1.1,3.1.9,1.7-.3,2.9-2.1,2.8-3.9l-.4-4.4c0-.1,0-.3,0-.4,0,0,0-.1,0-.2,0-1-.5-2-1.2-2.6l-3.4-2.8c-1.6-1.3-3.8-1.1-5,.3-.7.8-1,1.9-.7,2.9v.3s-.3,3.2-.3,3.2c-.6,6.2,1.2,15.9,5.4,20.6.2.2.3.5.2.8l-5.5,33.7c0,.8-.1,1.6-.1,2.4s-.4,1-1,1h0Z"/>
            </g>
            <g>
              <path class="st2" d="M191.2,181.9c0-11.5,8.6-14.9,8.6-14.9l-8.6-9.2c-1.4-1.5-2-3.5-1.6-5.5h0c.3-1.4,1.9-2.1,3.1-1.3l17.6,12.4-11.1,26.7,3,40.6-11-48.8h0Z"/>
              <path class="st0" d="M202.2,231.8c-.5,0-1-.4-1-.9l-3-40.6c0-.2,0-.3,0-.5l10.8-25.9-16.9-12c-.3-.2-.6-.2-1-.1-.3.1-.6.4-.6.7-.3,1.7.2,3.4,1.4,4.7l8.6,9.2c.2.2.3.6.2.9,0,.3-.3.6-.6.7-.3.1-8,3.3-8,14,0,.6-.4,1-1,1h0c-.6,0-1-.4-1-1,0-9.3,5.5-13.7,8-15.2l-7.7-8.2c-1.5-1.6-2.2-3.8-1.9-5.9.1-1,.6-2,1.5-2.5,1-.6,2.3-.5,3.2.2l17.6,12.5c.4.3.5.8.4,1.2l-11,26.4,3,40.4c0,.6-.4,1-.9,1.1h0,0Z"/>
            </g>
          </g>
        </g>
      </g>
    </g>
  </g>
</svg>