<?xml version="1.0" encoding="UTF-8"?>
<svg id="Layer_1" xmlns="http://www.w3.org/2000/svg" version="1.1" viewBox="0 0 292.6 226.8">
  <!-- Generator: Adobe Illustrator 29.1.0, SVG Export Plug-In . SVG Version: 2.1.0 Build 142)  -->
  <defs>
    <style>
      .st0 {
        fill: #fff;
      }

      .st1 {
        fill: #303030;
      }

      .st2 {
        fill: #26a8df;
      }
    </style>
  </defs>
  <g id="Layer_2">
    <g id="_Layer_">
      <g>
        <g>
          <path class="st0" d="M1,127.8l3.7,25.3c3.2,16.8,12.9,31.7,27.1,41.3h0c23.5,16,54.7,14.7,76.8-3.3l32.3-26.2,15.9,48.7,97.4,3.4,34.6-84.2c9.5-23.1-5.7-48.8-30.5-51.7l-62-7.2-48.7,9.2-79.6,69-25.5-28-41.5,3.9h0Z"/>
          <path class="st1" d="M254.1,218h0l-97.4-3.4c-.4,0-.8-.3-.9-.7l-15.5-47.3-31.1,25.3c-22.6,18.3-53.9,19.7-78,3.3-14.5-9.8-24.2-24.7-27.5-41.9L0,127.9c0-.3,0-.5.2-.8s.4-.3.7-.4l41.5-3.9c.3,0,.6,0,.8.3l24.9,27.2,78.8-68.3c.1-.1.3-.2.5-.2l48.7-9.2c.1,0,.2,0,.3,0l62,7.2c12.1,1.4,22.6,8.3,28.8,18.8s7.1,23,2.4,34.3l-34.6,84.2c-.1.4-.5.6-.9.6h0ZM157.5,212.7l96,3.3,34.4-83.6c4.4-10.7,3.6-22.6-2.3-32.5-5.9-10-15.8-16.5-27.3-17.8l-61.9-7.2-48.3,9.1-79.4,68.8c-.4.3-1,.3-1.4,0l-25.2-27.6-39.9,3.7,3.6,24.3c3.1,16.6,12.6,31.1,26.6,40.6,23.3,15.9,53.7,14.6,75.6-3.2l32.3-26.2c.3-.2.6-.3.9-.2.3,0,.6.3.7.7l15.7,48h0Z"/>
        </g>
        <path class="st2" d="M141,68.3c-4.6,1.8-7.8,5.6-9.2,9.9-.3.9-1,1.7-1.8,2h0c-1.8.8-3.8,0-4.6-1.8l-8.2-18.6-47.2,20.7c-7.4,3.2-10.7,11.8-7.5,19.1l20.7,47.2,19.7-8.6c1-1,1.4-2.5.8-3.9h0c-.4-.9-1.2-1.6-2.1-1.9-4.3-1.4-8-4.6-9.9-9.2-3-7.5.3-16.4,7.6-20,8.1-4,17.9-.4,21.4,7.8,1.9,4.3,1.7,8.9-.1,12.8-.4.8-.5,1.7-.3,2.6.5,1.7,2,2.6,3.6,2.5l19.7-8.6-8.1-18.5c-.6-1.4-.4-3.1.8-4.1,1.1-1,2.6-1.2,3.9-.6,4,1.8,8.6,2,13,.2,8.2-3.6,11.8-13.3,7.8-21.4-3.6-7.3-12.4-10.6-20-7.6h0Z"/>
        <path class="st0" d="M99.2,78.6c.9-.9,1.4-2.2,1.4-3.5,0-1.3-.6-2.6-1.5-3.5l-31.8-31.8s0,0-.1,0h0c-4.2-4.2-9.8-6.5-15.7-6.5s-11.5,2.3-15.7,6.5l-10.4,10.4C9.5,65.9.8,87,.8,109.5v20.2c0,.6.5,1,1,1s.3,0,.5-.1c1.1,1.1,6.3,5.5,18.7,5.5s15-1.2,26-4.8c.6-.2.9-.8.7-1.4,0,0,0-.1-.1-.2,0-.2.1-.3.1-.5v-20.5c0-.2,0-.4-.2-.6,3-1.2,5.8-3,8.2-5.4l4.4-4.5.2-.7c.2-.1-.4-.4.2-9.5,2.6-1.5,5.6-6.8,5.3-9l14.5,14.5c2,2,4.7,3.1,7.5,3.1s5.5-1.1,7.5-3.1c2-2,2-5.2,0-7.2l-4.9-4.9c.6,0,1.1.1,1.7.1,2.6,0,5.2-1,7.2-2.9h0Z"/>
        <g>
          <g>
            <path class="st0" d="M218.2,59.6l4,14.4,6.8,3.7-8.8,15.6c-5.5,9.9-20.2,8.4-23.6-2.4l-3.3-10.4,25-20.9h0Z"/>
            <path class="st1" d="M208.9,100.9c-.5,0-1,0-1.5,0-5.6-.6-10.1-4.2-11.9-9.6l-3.3-10.4c-.1-.4,0-.8.3-1.1l25-20.9c.3-.2.6-.3.9-.2.3.1.6.4.7.7l3.9,13.9,6.4,3.5c.2.1.4.4.5.6,0,.3,0,.5,0,.8l-8.8,15.6c-2.5,4.5-7.1,7.1-12.1,7.1h0ZM194.3,80.8l3.1,9.7c1.5,4.6,5.4,7.8,10.2,8.2,4.8.5,9.3-1.8,11.6-6l8.3-14.8-5.9-3.2c-.2-.1-.4-.4-.5-.6l-3.6-12.9-23.3,19.5h0Z"/>
          </g>
          <path class="st1" d="M196.5,90.9c.2.7.5,1.3.8,1.9,2.4-1.7,4.6-4,6.2-6.9l13.9-24.7-.7-.4-23.5,19.7,3.3,10.4h0Z"/>
          <path class="st1" d="M213.6,6.8c-10.4-5.4-24.1-2.8-26.3,1.2-2-2-4.7-3.5-7.9-4-7.4-1.3-14.4,2.7-15.6,9.1-1,5.5,2.6,10.9,8.4,13.1-1.7,3.7-3,7.8-3.8,12.2-3.3,17.4,24.7,23.9,30.1,24.9,14.4,2.6,28.5-8,31.5-23.8,3-15.7-3.9-26.2-16.4-32.7h0Z"/>
          <path class="st1" d="M213.5,11.2c-4.1.8-7.4,2.5-9.5,5.3-5.7,7.8-.5,26.2,15.1,29.5,1,.2,2.1,0,3,.4,2.7-14.3-.9-27.5-8.6-35.1h0Z"/>
          <path class="st1" d="M171.6,26c5.9,3.1,14,4.9,22.8,4.7,14.8-.4,27.2-6.4,30.7-14.3-4.1-7.8-10.5-13.1-18.4-14.5-13.6-2.3-27.6,7.9-35.1,24.1h0Z"/>
          <g>
            <path class="st0" d="M220.4,42.3c-2.3,0-4.4.8-6.1,2.1-6.2-3-10.2-8.7-11.7-14.4-2.6.5-5.4.7-8.2.8-8.6.2-16.5-1.5-22.4-4.5-1.6,3.7-2.9,7.8-3.6,12.1-3.9,21.1,4.3,40.4,18.5,43,10.6,2,21.5-6,27.9-18.9,1.8,1.2,4,1.9,6.3,1.8,6-.2,10.8-5.2,10.6-11.2-.2-6-5.2-10.8-11.2-10.6h0Z"/>
            <path class="st1" d="M190.1,82.6c-1.1,0-2.3-.1-3.4-.3-7.2-1.3-13.1-6.7-16.8-15.2-3.6-8.3-4.5-18.6-2.5-29,.8-4.3,2-8.4,3.7-12.3.1-.2.3-.5.6-.5.3,0,.5,0,.8,0,6,3.1,13.8,4.6,21.9,4.4,2.7,0,5.4-.3,8-.8.5,0,1,.2,1.1.7,1.6,6,5.5,10.9,10.7,13.5,1.8-1.2,4-1.9,6.2-1.9h0c3.2,0,6.2,1.1,8.5,3.3s3.6,5.2,3.7,8.3c0,3.2-1.1,6.2-3.3,8.5s-5.2,3.6-8.3,3.7c-2.1,0-4.1-.4-5.9-1.4-6.2,11.8-15.6,18.8-25.1,18.8h0ZM172.5,27.6c-1.4,3.5-2.5,7.1-3.2,10.9-1.9,10-1,19.9,2.4,27.9,3.4,7.8,8.8,12.8,15.3,14,9.9,1.8,20.4-5.4,26.8-18.4.1-.3.4-.5.6-.5.3,0,.6,0,.8.1,1.7,1.1,3.7,1.7,5.7,1.6,2.6,0,5.1-1.2,6.9-3.1,1.8-1.9,2.8-4.4,2.7-7.1s-1.2-5.1-3.1-6.9c-1.9-1.8-4.5-2.8-7.1-2.7-2,0-3.9.7-5.5,1.9-.3.2-.7.2-1,0-5.7-2.8-10-7.9-12-14.2-2.4.4-4.9.6-7.5.7-8.1.2-15.8-1.3-21.9-4.2h0Z"/>
          </g>
          <path class="st1" d="M187.5,8.6c-.4,0-.7-.2-.9-.5-2.1-3.9-5.7-6-10.7-6.1-3.9,0-7.1,1.1-7.2,1.1-.5.2-1.1,0-1.3-.6-.2-.5,0-1.1.6-1.3.1,0,14.4-5.1,20.3,5.9.3.5,0,1.1-.4,1.4-.1,0-.3.1-.5.1h0Z"/>
          <path class="st1" d="M169.4,46.8c.3,1.7,1.4,2.8,2.5,2.6,1-.2,1.6-1.7,1.3-3.4s-1.4-2.8-2.5-2.6c-1,.2-1.6,1.7-1.3,3.4Z"/>
          <path class="st1" d="M166.6,41.4c-.4,0-.7-.2-.9-.6-.2-.5,0-1.1.5-1.3,3.5-1.6,7.3-1.1,7.4-1.1.5,0,.9.6.9,1.1s-.6.9-1.1.9c0,0-3.4-.4-6.3.9-.1,0-.3,0-.4,0h0Z"/>
          <path class="st1" d="M185.7,46.8c.3,1.7,1.4,2.8,2.5,2.6,1-.2,1.6-1.7,1.3-3.4s-1.4-2.8-2.5-2.6c-1,.2-1.6,1.7-1.3,3.4Z"/>
          <path class="st1" d="M194.1,43c-.2,0-.5,0-.7-.2,0,0-4.5-3.9-9.1-2.5-.5.2-1.1-.1-1.2-.7s.1-1.1.7-1.2c5.7-1.7,10.8,2.7,11,2.9.4.4.5,1,0,1.4-.2.2-.5.3-.8.3h0Z"/>
          <path class="st1" d="M179.1,57c-.8,0-3.6-.1-4.7-1.7-.4-.5-.7-1.4-.3-2.6.8-2.4,2.2-10.1,2.2-10.2.1-.5.6-.9,1.2-.8.5.1.9.6.8,1.2,0,.3-1.4,8-2.3,10.5-.2.5,0,.7,0,.8.5.6,2.2.9,3.2.9.6,0,1,.4,1,1,0,.5-.4,1-1,1h-.2Z"/>
          <path class="st1" d="M180.2,65.6c-1.1,0-1.8-.2-1.9-.2-.5-.1-.9-.7-.7-1.2s.7-.9,1.2-.7c.3,0,7.1,1.7,10-7.7.2-.5.7-.8,1.2-.7.5.2.8.7.7,1.2-2.5,8.1-7.8,9.2-10.6,9.2h0Z"/>
          <path class="st1" d="M216,51.9c-.2,0-.4,0-.6-.2-.5-.3-.6-.9-.3-1.4.1-.2,3.1-4.5,8.1-3.9.5,0,.9.6.9,1.1,0,.5-.6.9-1.1.9-3.8-.5-6.1,2.9-6.2,3-.2.3-.5.4-.8.4h0Z"/>
        </g>
        <g>
          <path class="st2" d="M177.2,209.5c5,.2,9.4-2,12.4-5.4.6-.7,1.5-1.1,2.5-1.1h0c1.9,0,3.5,1.6,3.5,3.5v20.4h51.6c8,0,14.5-6.5,14.5-14.5v-51.6h-66.1v20.4c0,1.9-1.6,3.5-3.5,3.5h0c-1,0-2-.5-2.6-1.2-2.9-3.3-7.1-5.3-11.8-5.3-9,0-16.2,7.5-15.7,16.5.4,8.1,7.1,14.7,15.2,15h0Z"/>
          <path class="st1" d="M244.4,179c.1-4.9-2-9.3-5.4-12.3-.8-.7-1.2-1.6-1.2-2.6h0c0-1.9,1.6-3.5,3.5-3.5h20.4v-51.6c0-8-6.5-14.5-14.5-14.5h-51.6v66.1h20.4c1.9,0,3.5,1.6,3.5,3.5h0c0,1-.5,2-1.2,2.6-3.3,2.9-5.4,7.1-5.4,11.8,0,9,7.5,16.2,16.5,15.7,8.1-.4,14.7-7.1,15-15.2h0Z"/>
          <path class="st1" d="M146.8,142.3c-.1,5,2,9.4,5.4,12.4.7.6,1.1,1.5,1.1,2.5h0c0,2-1.6,3.6-3.5,3.6h-20.4v51.6c0,8,6.5,14.5,14.5,14.5h51.6v-66.1h-20.4c-1.9,0-3.5-1.6-3.5-3.5h0c0-1,.5-2,1.2-2.6,3.3-2.9,5.4-7.1,5.4-11.8,0-9-7.5-16.2-16.5-15.7-8.1.4-14.7,7.1-15,15.2h0Z"/>
        </g>
        <g>
          <path class="st0" d="M262.3,185.2l.2,18.1s18.3-2,22.8-19.6c4.4-17.6,5.8-45.6-8.6-51.2s-35.3-20.6-34.6-9.2c.5,8.5,25.3,23.1,25.3,23.1l-36.6-.5s-2.4,6.7-.8,12.4c4.1,14.5,4.4,8,5.1,9.8,2.6,6.5,8.2,13.9,27.2,17.2h0Z"/>
          <path class="st1" d="M262.5,204.9c-.4,0-.8-.3-.9-.7-.2-.5,0-1.1.6-1.3,8.9-3.2,20-9.1,22.2-19.5,2.7-12.6,7.3-42.8-8.1-50l-30-13.5c-.6-.3-1.2-.3-1.8,0s-1,.8-1.2,1.4c-1,3.7.4,7.6,3.5,9.8l22.2,15.5c.5.3.6.9.2,1.4-.3.5-.9.6-1.4.2l-22.2-15.5c-3.8-2.7-5.5-7.5-4.3-12,.3-1.2,1.1-2.1,2.2-2.7,1.1-.5,2.4-.5,3.5,0l30,13.5c6.9,3.2,17.3,14.4,9.2,52.3-2.4,11.3-14.1,17.6-23.5,21-.1,0-.2,0-.3,0h0Z"/>
          <path class="st1" d="M231.9,157.3c-.2,0-.4,0-.5-.2-5-3.1-3.3-9.2-1.7-12,.2-.3.5-.5.9-.5l47.2,2.3c.5,0,1,.5,1,1s-.5,1-1,1l-46.6-2.2c-.8,1.6-2.6,6.4,1.3,8.8.5.3.6.9.3,1.4-.2.3-.5.5-.9.5h0Z"/>
          <path class="st1" d="M274.4,175.7s-.1,0-.2,0c-1.4-.2-34.8-5.7-40-7.4-5.8-1.9-5.8-11.2-5.8-11.6,0-.3.1-.5.3-.7s.5-.3.8-.2l48,4.7c.5,0,1,.5.9,1.1,0,.5-.5,1-1.1.9l-46.9-4.6c.2,2.3.9,7.5,4.3,8.6,5.1,1.7,39.3,7.3,39.7,7.3.5,0,.9.6.8,1.2,0,.5-.5.8-1,.8h0Z"/>
          <path class="st1" d="M269.9,186.7h-.1c-1.4-.2-35-3.8-35.7-19,0-.5.4-1,1-1,.5,0,1,.4,1,1,.7,13.5,33.6,17.1,34,17.2.5,0,1,.5.9,1.1,0,.5-.5.9-1,.9h0Z"/>
        </g>
        <g>
          <path class="st1" d="M92,81.6c-2.7,0-5.5-1.1-7.6-3.2-.4-.4-.4-1.1,0-1.5s1.1-.4,1.5,0c3.3,3.3,8.6,3.4,11.8.2.5-.5.8-1.2.8-2,0-.8-.3-1.5-.9-2.1l-31.8-31.8c-.4-.4-.4-1.1,0-1.5s1.1-.4,1.5,0l31.8,31.8c1,1,1.5,2.2,1.5,3.5,0,1.4-.5,2.6-1.4,3.5-2,2-4.6,2.9-7.2,2.9h0Z"/>
          <path class="st1" d="M87.7,96.6c-2.8,0-5.5-1.1-7.5-3.1l-36.3-36.3c-.4-.4-.4-1.1,0-1.5s1.1-.4,1.5,0l36.3,36.3c3.3,3.3,8.7,3.3,12,0,1.2-1.2,1.2-3,0-4.2l-40.3-40.3c-.4-.4-.4-1.1,0-1.5s1.1-.4,1.5,0l40.3,40.3c2,2,2,5.2,0,7.2s-4.7,3.1-7.5,3.1h0Z"/>
          <path class="st1" d="M56,90.1c-2,0-4-.6-5.8-1.9-.5-.3-.6-1-.2-1.5s1-.6,1.5-.2c3,2.2,7.3,1.9,10-.8,3-3,3-7.9,0-10.9l-18.4-18.4c-.4-.4-.4-1.1,0-1.5s1.1-.4,1.5,0l18.4,18.4c3.8,3.8,3.8,10,0,13.8-1.9,1.9-4.4,2.9-6.9,2.9h0Z"/>
          <path class="st1" d="M34.7,88.2c-.3,0-.5-.1-.7-.3l-10.4-10.4c-.4-.4-.4-1.1,0-1.5s1.1-.4,1.5,0l10.4,10.4c.4.4.4,1.1,0,1.5-.2.2-.5.3-.7.3h0Z"/>
          <path class="st1" d="M39.1,99.2c-3.1,0-6-1.2-8.3-3.4l-6.7-6.7c-.3-.3-.4-.8-.2-1.2,0-.2,1.9-4.2,6.3-5.5.6-.2,1.1.2,1.3.7.2.6-.1,1.1-.7,1.3-2.5.7-4,2.7-4.6,3.7l6.1,6.1c1.8,1.8,4.2,2.8,6.8,2.8s5-1,6.8-2.8c3.7-3.7,3.7-9.8,0-13.5l-12.4-12.4c-.4-.4-.4-1.1,0-1.5s1.1-.4,1.5,0l12.4,12.4c4.5,4.5,4.5,12,0,16.5-2.2,2.2-5.1,3.4-8.3,3.4h0Z"/>
          <path class="st1" d="M38.6,109.7c-6.2,0-12.3-2.3-17-7-.4-.4-.4-1.1,0-1.5s1.1-.4,1.5,0c8.5,8.6,22.5,8.6,31,0l6.1-6.1c.4-.4,1.1-.4,1.5,0s.4,1.1,0,1.5l-6.1,6.1c-4.7,4.7-10.8,7-17,7h0Z"/>
          <path class="st1" d="M1.8,130.7c-.6,0-1-.5-1-1v-20.2c0-22.4,8.7-43.5,24.6-59.4l10.4-10.4c4.2-4.2,9.8-6.5,15.7-6.5s11.5,2.3,15.7,6.5c.4.4.4,1.1,0,1.5s-1.1.4-1.5,0c-7.8-7.8-20.6-7.8-28.5,0l-10.4,10.4C11.4,67,2.9,87.6,2.9,109.4v20.2c0,.6-.5,1-1,1h0Z"/>
          <path class="st1" d="M46.6,130.2c-.6,0-1-.5-1-1v-20.5c0-.6.5-1,1-1s1,.5,1,1v20.5c0,.6-.5,1-1,1Z"/>
        </g>
        <path class="st1" d="M20.9,136c-13.6,0-18.5-5.4-18.8-5.7-.4-.4-.3-1,.1-1.4s1-.3,1.4,0c.1.1,10.3,11,42.6.3.5-.2,1.1.1,1.3.6.2.5-.1,1.1-.6,1.3-10.9,3.6-19.4,4.8-25.9,4.8h0Z"/>
        <path class="st1" d="M79.1,167.4c-.3,0-.6-.1-.8-.4l-11.1-14.5c-.3-.4-.2-1.1.2-1.4.4-.3,1.1-.2,1.4.2l11.1,14.5c.3.4.2,1.1-.2,1.4-.2.1-.4.2-.6.2h0Z"/>
      </g>
    </g>
  </g>
</svg>