<?xml version="1.0" encoding="UTF-8"?>
<svg id="Layer_1" xmlns="http://www.w3.org/2000/svg" version="1.1" viewBox="0 0 232.8 202">
  <!-- Generator: Adobe Illustrator 29.2.0, SVG Export Plug-In . SVG Version: 2.1.0 Build 108)  -->
  <defs>
    <style>
      .st0 {
        fill: #fff;
      }

      .st1 {
        fill: #303030;
      }

      .st2 {
        fill: #39c;
      }
    </style>
  </defs>
  <g id="Layer_2">
    <g id="_Layer_">
      <g>
        <path class="st1" d="M132.8,73.9c-3.3,3-5.3,6.6-5.9,19.3-1.4,25.9-74.9,33.5-99,21.5-19.5-9.7-4.2-26.6.9-28.7,9.6-3.9,10.1-4.6,3.8-14.4-6.3-9.8-13.6-15,1.9-19.2,11-3,10.9-6.5,9.3-19.4-1.6-12.9,18.1-18,25.9-15.9s-.9-5,5.5-7.8c6.4-2.8,8.7.8,10.3,3.4s15.7,1.3,20.2,10.9,15.5,6.5,14.4,23.9c-1,17.4,3.4,9.7,8.1,10.7s11.4,9.5,4.4,15.9h0Z"/>
        <g>
          <g>
            <path class="st0" d="M66.6,93.1l-20.6,4.5c-10.1,2.2-18.6,8.9-23.1,18.2l-18.7,38.8c-11.9,24.8,11.2,51.9,37.5,44.1l29.6-8.7h96.9l-16.9-82.2c-3-14.8-17.1-24.6-32-22.5l-52.8,7.7h0Z"/>
            <path class="st1" d="M32.6,201.1c-9.4,0-18.3-4.1-24.7-11.6-8.5-10-10.2-23.5-4.6-35.3l18.7-38.8c4.6-9.7,13.3-16.5,23.8-18.8l20.6-4.5s0,0,0,0l52.8-7.7c15.4-2.2,30,8,33.1,23.2l16.9,82.2c0,.3,0,.6-.2.8s-.5.4-.8.4h-96.7l-29.5,8.7c-3.1.9-6.3,1.4-9.4,1.4h0ZM66.7,94.1l-20.6,4.5c-9.9,2.1-18,8.6-22.4,17.7l-18.7,38.8c-5.3,11.1-3.7,23.8,4.3,33.2,8,9.4,20.2,13,32,9.6l29.6-8.7c0,0,.2,0,.3,0h95.7l-16.6-81c-2.9-14.2-16.5-23.8-30.9-21.7l-52.7,7.7h0Z"/>
          </g>
          <g>
            <path class="st0" d="M226.1,65.5l-3.7,14.5c-3,11.6-9.9,21.7-19.6,28.7l-9.5,6.9-12.6,74.5h-59.2l30.1-83.6,48.8-61.9,28,9.8-2.2,11.1h0Z"/>
            <path class="st1" d="M180.7,191.1h-59.2c-.3,0-.6-.2-.8-.4-.2-.3-.2-.6-.1-.9l30.1-83.6c0,0,0-.2.2-.3l48.8-61.9c.3-.3.7-.5,1.1-.3l28,9.8c.5.2.8.7.7,1.1l-2.2,11.1s0,0,0,0l-3.7,14.5c-3,11.8-10.1,22.2-19.9,29.3l-9.2,6.7-12.5,74.1c0,.5-.5.8-1,.8h0ZM122.9,189.1h57l12.4-73.7c0-.3.2-.5.4-.6l9.5-6.9c9.5-6.8,16.3-16.8,19.2-28.2l3.7-14.5,2.1-10.2-26.5-9.3-48.2,61.2-29.5,82.1h0ZM226.1,65.5h0Z"/>
          </g>
          <g>
            <path class="st2" d="M227.6,8l-9.6-6.2c-5.3-3.4-12.4-1.9-15.8,3.4l-99.2,153.4,28.8,18.6L231,23.9c3.4-5.3,1.9-12.4-3.4-15.8h0Z"/>
            <rect class="st1" x="208.1" y="9" width="2" height="34" transform="translate(73.7 187.5) rotate(-57.1)"/>
            <path class="st1" d="M196.8,13.5l28.8,18.6,5.4-8.3c3.4-5.3,1.9-12.4-3.4-15.8l-9.6-6.2c-5.3-3.4-12.4-1.9-15.8,3.4l-5.4,8.3h0Z"/>
            <g>
              <polygon class="st0" points="129.8 177.6 96.8 199.9 103.5 160.6 129.8 177.6"/>
              <path class="st1" d="M98.2,197.7l6-35.4,23.8,15.4-29.8,20.1h0ZM95.4,202h0ZM95.4,202l36.2-24.4-28.9-18.7-7.3,43h0Z"/>
            </g>
            <polygon class="st1" points="113.2 190.1 99 180.9 95.4 202 113.2 190.1"/>
          </g>
          <path class="st0" d="M214.4,94.2c4.9-7.3,10.2-27.9,10.4-28.8l2.6-10.2c.2-.7-.2-1.3-.8-1.5l-25.4-8.2c-.5-.2-1,0-1.4.4-1.5,1.7-3.7,5.4-2.8,8.8l-5.9-2c-.5-.2-1.1,0-1.5.5-.2.3-4.8,6.9-1.2,11.7-.9,1.4-2.3,4.1-2,6.8.2,1.6.9,3,2.2,4.1-1.2,1.5-2.3,3.9-1.4,6.6.9,2.6,8.2,6.5,11.5,8.1-1.6.7-5.5,2.8-6.7,5.2-.3.7,16.9,6.6,22.3-1.4h0Z"/>
          <path class="st1" d="M224.8,65.8c-.1,0-.2,0-.3,0l-34.6-12.4c-1,1.6-3.1,6.1-.6,9.2.3.4.3,1.1-.2,1.4s-1.1.3-1.4-.2c-4-5.1.7-12,.9-12.2.3-.4.7-.5,1.2-.4l35.4,12.7c.5.2.8.8.6,1.3-.2.4-.5.7-.9.7h0Z"/>
          <path class="st1" d="M226.1,66.5c0,0-.2,0-.2,0-.5-.1-.9-.7-.8-1.2l2.4-10.1-26.9-9.3c-1.1,1.4-3.5,5.3-1,8.4.3.4.3,1.1-.2,1.4-.4.3-1.1.3-1.4-.2-3.3-4.2-.4-9.3,1.5-11.5.3-.3.7-.4,1.1-.3l28.4,9.8c.5.2.8.7.7,1.2l-2.6,11c-.1.5-.5.8-1,.8h0Z"/>
          <path class="st1" d="M222.5,77.3c-.1,0-.2,0-.3,0l-32.7-12.2c-.7,1.1-2.1,3.6-1.7,6,.2,1.4.9,2.6,2.2,3.5.5.3.5.9.2,1.4-.3.4-1,.5-1.4.2-1.8-1.3-2.8-2.9-3-4.8-.6-4,2.4-7.9,2.5-8.1.3-.3.7-.5,1.1-.3l33.5,12.4c.5.2.8.8.6,1.3-.2.4-.5.7-.9.7h0Z"/>
          <path class="st1" d="M192.3,96.6c-.2,0-.4,0-.5-.2-.5-.3-.6-.9-.3-1.4,1.7-2.7,3.8-4,5.7-4.5-3.8-1.8-9.1-4.7-10.2-7.6-1.4-3.8,1.1-6.9,2.6-8.1.3-.2.7-.2,1-.1l26.1,11.1c.5.2.8.8.5,1.3s-.8.8-1.3.5l-25.6-10.9c-.8.8-2.5,2.8-1.5,5.4,1,2.7,8.4,6.4,12.8,8.1.5.2.7.7.6,1.2-.1.5-.6.8-1.1.7-.2,0-5-.8-7.9,3.9-.2.3-.5.5-.8.5h0Z"/>
          <g>
            <g>
              <path class="st0" d="M127.9,112.3l12.8-22.8c1.1-1.9,3.5-2.5,5.3-1.3h0c2.8,1.9,4.2,5.3,3.3,8.6l-2.3,9-19.2,6.4Z"/>
              <path class="st1" d="M127.9,113.3c-.3,0-.6-.1-.8-.4-.3-.3-.3-.8,0-1.1l12.8-22.8c.7-1.1,1.8-2,3-2.3,1.3-.3,2.6,0,3.7.7,3.2,2.1,4.7,6,3.7,9.7l-2.3,9c0,.3-.3.6-.7.7l-19.2,6.4c0,0-.2,0-.3,0h0ZM144,88.7c-.2,0-.4,0-.6,0-.8.2-1.4.7-1.8,1.3l-11.6,20.5,16.2-5.4,2.1-8.5c.7-2.9-.4-5.9-2.9-7.6-.5-.3-1-.5-1.5-.5h0Z"/>
            </g>
            <g>
              <g>
                <path class="st0" d="M139.9,104l30.6-7.8c1.7-.4,3.4.8,3.5,2.5l.2,1.7c.3,3.2-1.4,6.3-4.3,7.8l-7.8,4-.4,1,10.5-1.3c2.3-.3,4.4,1.4,4.6,3.7.4,3.5-1.8,6.7-5.1,7.6,2,0,3.8,1.5,4,3.6.4,3.5-1.8,6.8-5.1,7.7,2,0,3.8,1.5,4,3.6.5,3.9-2.3,7.5-6.3,8l-21.3,2.6-1.4,3.3c-1.6,4-4.9,7-9,8.3l-65.3,29.8s-25.8-27.2,2.7-49.6c0,0,.2,0,.3,0l45.5-13.5.6-2.6c2.1-9.9,9.7-17.8,19.5-20.3h0Z"/>
                <path class="st1" d="M71.3,191.1c-.3,0-.5-.1-.7-.3-.5-.5-12-12.8-10.9-28,.6-8.6,5.2-16.4,13.7-23,.2-.2.5-.2.7-.3l45-13.3.4-2.1c2.2-10.4,10-18.5,20.3-21.1l30.6-7.8c1.1-.3,2.2,0,3.2.6s1.5,1.7,1.6,2.8v1.7c.5,3.6-1.4,7.1-4.7,8.8l-5.2,2.7,7-.8c1.4-.2,2.8.2,3.8,1.1,1.1.9,1.8,2.1,1.9,3.4.3,3-1,5.9-3.4,7.5,1.2.8,2.1,2.1,2.3,3.7.4,3.1-1,6-3.4,7.7,1.2.8,2.1,2.1,2.3,3.7.5,4.5-2.7,8.6-7.2,9.1l-20.7,2.5-1.2,2.8c-1.8,4.2-5.2,7.4-9.6,8.8l-65.3,29.8c-.1,0-.3,0-.4,0h0ZM74.5,141.4c-7.9,6.3-12.2,13.5-12.8,21.5-.9,12.6,7.7,23.5,9.9,26l64.7-29.5s0,0,.1,0c3.8-1.2,6.9-4,8.4-7.7l1.4-3.3c.1-.3.5-.6.8-.6l21.3-2.5c3.4-.4,5.8-3.5,5.4-6.9-.2-1.5-1.5-2.7-3-2.7-.5,0-.9-.4-1-.9,0-.5.2-.9.7-1.1,2.9-.9,4.8-3.7,4.4-6.7-.2-1.5-1.5-2.7-3-2.7-.5,0-.9-.4-1-.9,0-.5.2-1,.7-1.1,2.9-.8,4.7-3.6,4.4-6.6,0-.8-.5-1.6-1.2-2.1-.7-.5-1.5-.8-2.4-.7l-10.5,1.3c-.4,0-.7-.1-.9-.4-.2-.3-.3-.7-.1-1l.4-1c0-.2.2-.4.5-.5l7.8-4c2.5-1.3,4-4,3.8-6.8v-1.7c-.2-.5-.5-1-.9-1.3-.4-.3-1-.4-1.5-.3l-30.6,7.8h0c-9.5,2.4-16.8,9.9-18.8,19.6l-.6,2.6c0,.4-.3.7-.7.8l-45.5,13.5s0,0-.1,0h0ZM74.6,141.3h0ZM139.9,104h0Z"/>
              </g>
              <path class="st1" d="M144.9,127.6c-.5,0-.9-.4-1-.9,0-.6.3-1.1.9-1.1l25.6-3.1c.6,0,1,.3,1.1.9,0,.6-.3,1.1-.9,1.1l-25.6,3.1h-.1Z"/>
              <path class="st1" d="M145.1,116.2c-.5,0-.9-.4-1-.9,0-.6.3-1.1.9-1.1l27.2-3.2c.6,0,1,.3,1.1.9,0,.6-.3,1.1-.9,1.1l-27.2,3.2h-.1Z"/>
              <path class="st1" d="M145.7,138.6c-.5,0-.9-.4-1-.9,0-.6.3-1.1.9-1.1l27.2-3.2c.6,0,1,.3,1.1.9,0,.6-.3,1.1-.9,1.1l-27.2,3.2h-.1Z"/>
            </g>
          </g>
          <g>
            <path class="st0" d="M28.1,151.1l45.9-10.6-45.9,10.6Z"/>
            <path class="st1" d="M28.1,152.1c-.5,0-.9-.3-1-.8-.1-.5.2-1.1.8-1.2l45.9-10.6c.5-.1,1.1.2,1.2.8s-.2,1.1-.8,1.2l-45.9,10.6c0,0-.2,0-.2,0h0Z"/>
          </g>
        </g>
        <circle class="st1" cx="91.3" cy="39.1" r="29.2" transform="translate(6.6 91) rotate(-54.7)"/>
        <g>
          <path class="st0" d="M58.3,54.8c1.2-.5,2.5-.6,3.7-.4-4-10.8-.3-23,9.2-29.6,11.7-8.2,27.9-5.1,35.8,6.9l4.3,6.6c6.9,10.5,2.3,24.6-9.5,29.1l-2.1.8,3.2,18.5,11-1.9c-2,10.9-11,20-23.1,22.1s-23.7-3.5-29.2-13.1l13.5-2.3s-6.8-22.4-7.8-24.8l-.2-.4c-.8,1.1-2,2.1-3.3,2.6-3.8,1.5-8.2-.4-9.7-4.2s.4-8.2,4.2-9.7h0Z"/>
          <path class="st1" d="M85.7,108.2c-10.3,0-20-5.3-25-14-.2-.3-.2-.6,0-.9s.4-.5.7-.6l12.4-2.1c-2.2-7.1-5.8-18.7-7.1-22.5-.8.7-1.7,1.3-2.7,1.7-4.4,1.7-9.3-.5-11-4.8-.8-2.1-.8-4.4.1-6.5.9-2.1,2.6-3.7,4.7-4.5h0c.8-.3,1.7-.5,2.6-.6-3.4-10.9.6-22.8,10.1-29.4,5.9-4.1,13-5.6,20.1-4.3,7.1,1.4,13.1,5.4,17.1,11.5l4.3,6.6c3.4,5.3,4.3,11.7,2.3,17.7-1.9,6-6.4,10.7-12.3,12.9l-1.4.5,2.9,16.7,10.1-1.7c.3,0,.7,0,.9.3s.3.6.3.9c-2.1,11.6-11.7,20.8-23.9,22.9-1.7.3-3.5.4-5.2.4ZM63.2,94.4c5.7,8.7,16.5,13.2,27.4,11.4,10.9-1.9,19.6-9.8,22-19.8l-9.6,1.6c-.3,0-.5,0-.8-.2s-.4-.4-.4-.7l-3.2-18.5c0-.5.2-.9.6-1.1l2.1-.8c5.3-2,9.3-6.3,11.1-11.7,1.8-5.4,1-11.2-2.1-16l-4.3-6.6c-3.6-5.6-9.2-9.3-15.8-10.6-6.5-1.3-13.1.1-18.6,3.9-9.1,6.4-12.7,18.1-8.8,28.5.1.3,0,.7-.2,1-.2.3-.6.4-.9.4-1.1-.1-2.2,0-3.2.4h0c-1.6.6-2.9,1.8-3.6,3.4-.7,1.6-.7,3.3,0,5,.6,1.6,1.8,2.9,3.4,3.6,1.6.7,3.3.7,5,0,1.2-.4,2.2-1.2,2.9-2.2.2-.3.6-.4.9-.4.4,0,.7.3.8.6l.2.4c1,2.4,7.6,24,7.9,24.9,0,.3,0,.6-.1.8-.2.2-.4.4-.7.5l-12.1,2.1h0Z"/>
        </g>
        <path class="st1" d="M64.7,63.4c-.4,0-.8-.2-.9-.6-.9-2.3-3.5-3.5-5.9-2.6-.5.2-1.1,0-1.3-.6-.2-.5,0-1.1.6-1.3,3.4-1.3,7.2.3,8.5,3.7.2.5,0,1.1-.6,1.3-.1,0-.2,0-.4,0h0Z"/>
        <path class="st1" d="M97.5,40.9c-.2,0-.4,0-.6-.2l-4.9-3.9c-1.7-1.4-2.8-3.4-2.8-5.6,0-2.2.8-4.3,2.4-5.8.4-.4,3.1-3,8.7-1.6.5.1.8.7.7,1.2-.1.5-.7.8-1.2.7-4.6-1.2-6.6.9-6.7,1,0,0,0,0,0,0-1.2,1.1-1.8,2.7-1.8,4.3,0,1.6.8,3.1,2.1,4.1l4.9,3.9c.4.3.5,1,.2,1.4-.2.2-.5.4-.8.4h0Z"/>
        <path class="st1" d="M77.1,40.9c1.1,1,2.5,1.1,3.1.2.6-.9.2-2.4-1-3.4-1.1-1-2.5-1.1-3.1-.2s-.2,2.4,1,3.4Z"/>
        <path class="st1" d="M97,32.5c1.1,1,2.5,1.1,3.1.2.6-.9.2-2.4-1-3.4-1.1-1-2.5-1.1-3.1-.2-.6.9-.2,2.4,1,3.4Z"/>
        <g>
          <path class="st0" d="M99.3,43.2l-13.9,2.4s10.2,14.8,13.9-2.4Z"/>
          <path class="st1" d="M93.4,52.6c-4.3,0-8.3-5.7-8.8-6.3-.2-.3-.2-.6,0-.9.1-.3.4-.5.8-.6l13.9-2.4c.3,0,.7,0,.9.3.2.2.3.6.3.9-1.2,5.5-3.2,8.5-5.9,9.1-.3,0-.6,0-.9,0h0ZM87.2,46.4c1.6,2,4.5,4.6,6.8,4.2,1.7-.3,3-2.4,4-6.1l-10.8,1.9Z"/>
        </g>
        <path class="st1" d="M61.7,53.3c-3.4-10.3.2-21.7,9-28.2,2.3,9.8-1.3,20.3-9,28.2Z"/>
        <path class="st1" d="M69.1,42.5h-.1c-.5,0-.9-.6-.8-1.1,1.2-8.8,10.8-11.3,11.2-11.4.5-.1,1.1.2,1.2.7s-.2,1.1-.7,1.2c0,0-8.6,2.2-9.7,9.8,0,.5-.5.9-1,.9h0Z"/>
        <path class="st1" d="M90.5,70.9c-6,0-11.5-1.7-11.8-1.8-.5-.2-.8-.7-.7-1.2.2-.5.7-.8,1.2-.7.1,0,12.3,3.8,20,0,.5-.2,1.1,0,1.3.4.2.5,0,1.1-.4,1.3-2.9,1.5-6.4,2-9.6,2h0Z"/>
      </g>
    </g>
  </g>
</svg>