<?xml version="1.0" encoding="UTF-8"?>
<svg id="Layer_1" xmlns="http://www.w3.org/2000/svg" version="1.1" viewBox="0 0 286.1 232.5">
  <!-- Generator: Adobe Illustrator 29.1.0, SVG Export Plug-In . SVG Version: 2.1.0 Build 142)  -->
  <defs>
    <style>
      .st0 {
        fill: #303030;
      }

      .st1 {
        fill: #26a8df;
      }

      .st2 {
        fill: #fafafa;
      }
    </style>
  </defs>
  <g id="Layer_2">
    <g id="_Layer_">
      <g>
        <circle class="st0" cx="99.6" cy="34.8" r="34.8"/>
        <circle class="st0" cx="65.6" cy="45.2" r="30.1"/>
        <g>
          <path class="st2" d="M79.6,51.1c-2.1-5.1-7.2-8.7-13-8.6-7.4,0-13.6,6.1-13.9,13.5-.3,8,6.1,14.6,14,14.6s3.3-.3,4.8-.9l-11.1,69.6,18.6,3c14.1,2.2,27.4-7.4,29.6-21.5l10.1-63.4-39.2-6.2h0Z"/>
          <path class="st0" d="M83.2,143.7c-1.4,0-2.8-.1-4.3-.3l-18.6-3c-.3,0-.5-.2-.7-.4-.2-.2-.2-.5-.2-.8l10.8-67.9c-1.1.3-2.3.4-3.5.4-4.1,0-8-1.7-10.9-4.6s-4.4-6.9-4.2-11.1c.3-7.9,7-14.5,15-14.5h0c5.9,0,11.2,3.4,13.7,8.7l38.6,6.2c.3,0,.5.2.7.4.2.2.2.5.2.8l-10.1,63.4c-2.1,13.3-13.6,22.7-26.6,22.7h0ZM61.7,138.4l17.6,2.8c13.5,2.2,26.2-7.1,28.4-20.6l9.9-62.3-38.1-6.1c-.4,0-.7-.3-.8-.7-2-4.8-6.7-8-11.9-8h0c-6.8,0-12.6,5.6-12.9,12.4-.1,3.6,1.1,6.9,3.6,9.5,2.5,2.6,5.8,4,9.3,4s3-.3,4.5-.8c.4-.1.8,0,1.1.2.3.2.4.6.4,1l-10.9,68.5h0Z"/>
        </g>
        <g>
          <path class="st2" d="M1,217.1l39.8-81.4c3.2-6.6,9.4-11.6,17.1-13.8h0c13.2-3.8,27.6,1.4,34,12.3l49.3,84.6-140.1-1.6h0Z"/>
          <path class="st0" d="M141.1,219.7c-.3,0-.7-.2-.9-.5l-49.3-84.6c-6.2-10.6-20-15.5-32.8-11.8-7.4,2.2-13.4,7-16.5,13.3L1.9,217.6c-.2.5-.8.7-1.3.5s-.7-.8-.5-1.3l39.8-81.4c3.3-6.8,9.8-12,17.7-14.3,13.7-4,28.5,1.4,35.1,12.7l49.3,84.6c.3.5.1,1.1-.4,1.4-.2,0-.3.1-.5.1h0Z"/>
        </g>
        <g>
          <path class="st2" d="M95.4,91.8h171.1c1.8,0,3.2,1.4,3.2,3.2v114.9H92.3v-114.9c0-1.8,1.4-3.2,3.2-3.2h0Z"/>
          <path class="st0" d="M269.7,211.1H92.2c-.6,0-1.1-.5-1.1-1.1v-114.9c0-2.4,1.9-4.3,4.3-4.3h171.1c2.4,0,4.3,1.9,4.3,4.3v114.9c0,.6-.5,1.1-1.1,1.1h0ZM93.3,208.9h175.3v-113.9c0-1.2-.9-2.1-2.1-2.1H95.4c-1.2,0-2.1.9-2.1,2.1v113.9h0Z"/>
        </g>
        <g>
          <g>
            <path class="st0" d="M166.3,128.8l-20.4,13.6-.7-18.7c-.2-5.4,1.9-10.6,5.9-14.4l13.2-12.6,1.9,32h0Z"/>
            <path class="st0" d="M195.7,128.8l20.4,13.6.7-18.7c.2-5.4-1.9-10.6-5.9-14.4l-13.2-12.6-1.9,32h0Z"/>
          </g>
          <path class="st1" d="M181,127.8c5.5,0,10.8.8,16,2.1,4-14,6.3-29.4,6.3-45.7,0-31.7-8.5-47.2-22.3-67.9-13.8,20.7-22.3,36.2-22.3,67.9s2.3,31.7,6.3,45.7c5.1-1.3,10.5-2.1,16-2.1h0Z"/>
          <path class="st0" d="M177.7,101.6h6.5c.6,0,1.1.5,1.1,1.1v39.7h-8.7v-39.7c0-.6.5-1.1,1.1-1.1h0Z"/>
          <circle class="st0" cx="181" cy="64" r="9"/>
        </g>
        <g>
          <path class="st1" d="M171.8,216c9,0,16.3-7.3,16.3-16.3s-7.3-16.3-16.3-16.3h-.8c-3.5-9.1-12.2-15.5-22.5-15.5s-24.1,10.8-24.1,24.1h-3.4c-6.6,0-12,5.4-12,12s5.4,12,12,12h50.8,0Z"/>
          <path class="st1" d="M190.1,216c-9,0-16.3-7.3-16.3-16.3s7.3-16.3,16.3-16.3h.8c3.5-9.1,12.2-15.5,22.5-15.5s24.1,10.8,24.1,24.1h3.4c6.6,0,12,5.4,12,12s-5.4,12-12,12h-50.8,0Z"/>
        </g>
        <path class="st0" d="M75.8,202.5v4.2c0,7.1,5.8,12.8,12.8,12.8h184.6c7,0,12.8-5.8,12.8-12.8v-4.2H75.8Z"/>
        <circle class="st1" cx="180.7" cy="172.8" r="18.9" transform="translate(-28.7 309.4) rotate(-76.8)"/>
        <rect class="st1" x="174.4" y="145.3" width="13.1" height="30.6" rx="1.6" ry="1.6"/>
        <path class="st0" d="M72.6,61.9h-.1c-.6,0-1-.6-1-1.2.3-3.5-.4-6.2-2-8.2-2.4-2.8-6.1-3-6.1-3-.6,0-1.1-.6-1-1.2,0-.6.5-1.1,1.1-1,.2,0,4.6.3,7.6,3.8,2.1,2.4,3,5.7,2.6,9.8,0,.6-.5,1-1.1,1h0Z"/>
        <circle class="st0" cx="123.8" cy="26.2" r="20.8"/>
        <path class="st0" d="M66.7,71.6c-.6,0-1.1-.5-1.1-1.1s.5-1.1,1.1-1.1c2.3,0,4.6-.6,6.6-1.8.9-.6,1.8-1.2,2.6-2,.4-.4,1.1-.4,1.5,0,.4.4.4,1.1,0,1.5-.9.9-1.9,1.7-3,2.3-2.3,1.4-5,2.1-7.7,2.1h0Z"/>
        <g>
          <path class="st2" d="M79.3,44.3c1.9-15.8,11.2-28.5,24.6-31.2,17.8-3.6,35.9,12,40.5,34.7,4.6,22.8-6.1,44.1-23.9,47.7-13.3,2.7-26.9-5.4-34.7-19.2l-6.5-32.1h0Z"/>
          <path class="st0" d="M115.4,97.2c-11.7,0-23.3-7.5-30.5-20.3-.3-.5-.1-1.2.4-1.5.5-.3,1.2-.1,1.5.4,7.9,13.9,21.1,21.2,33.6,18.7,17.1-3.5,27.5-24.3,23-46.4-4.5-22.1-22-37.3-39.2-33.9-12.5,2.5-21.8,14.4-23.7,30.2,0,.6-.6,1-1.2.9-.6,0-1-.6-1-1.2,2-16.8,12-29.4,25.4-32.1,18.3-3.7,37.1,12.3,41.8,35.6s-6.4,45.3-24.7,49c-1.8.4-3.6.5-5.4.5h0Z"/>
        </g>
        <path class="st0" d="M77.9,52.5c.3,0,.6.2,1,.3,18,5,37.4-11.2,43.3-36.3,0-.3.1-.6.2-.8-5.9-3.4-12.5-4.6-18.9-3.2-15,3.3-25.1,20.1-25.5,40h0Z"/>
        <path class="st0" d="M135.8,41.5c-.6,1,1.2,3.2,4,4.8s5.6,2.1,6.1,1.1c.6-1-1.2-3.2-4-4.8-2.8-1.6-5.6-2.1-6.1-1.1Z"/>
        <path class="st0" d="M107.1,46.2c.3,1.4,3.7,1.9,7.7,1.1,3.9-.8,6.9-2.7,6.6-4.1-.3-1.4-3.7-1.9-7.7-1.1-3.9.8-6.9,2.7-6.6,4.1Z"/>
        <path class="st0" d="M130.1,62.1c-.3,0-.6-.1-.8-.4-.4-.4-.4-1.1,0-1.5,1-.9,1.4-2.2,1.1-3.5l-1.9-9.3c-.1-.6.3-1.2.8-1.3.6-.1,1.2.3,1.3.8l1.9,9.3c.4,2-.3,4.1-1.8,5.5-.2.2-.5.3-.7.3h0Z"/>
        <path class="st0" d="M113.9,55.1c-.2,0-.4,0-.6-.2-.5-.3-.6-1-.3-1.5,2.8-4.2,6.3-3.8,7.7-2.9.5.3.7,1,.4,1.5-.3.5-1,.7-1.5.4-.3-.2-2.5-1.2-4.8,2.2-.2.3-.5.5-.9.5h0Z"/>
        <path class="st0" d="M142.1,53.4c-.4,0-.8-.2-1-.7-.1-.3-1.3-2.5-5.2-1-.6.2-1.2,0-1.4-.6s0-1.2.6-1.4c4.8-1.8,7.3.7,7.9,2.2.2.6,0,1.2-.6,1.4-.1,0-.3,0-.4,0h0Z"/>
        <path class="st0" d="M125.6,69.3c-2.1,0-3.5-1.2-4.1-2.1-.3-.5-.2-1.2.3-1.5s1.2-.2,1.5.3c.2.2,1.7,2.2,5.3.1.5-.3,1.2-.1,1.5.4.3.5.1,1.2-.4,1.5-1.6.9-2.9,1.2-4.1,1.2h0Z"/>
        <g>
          <g>
            <path class="st2" d="M272.3,127.4l-.2,7.2,4.9-4.5c1.9-1.8,3.1-4.1,3.4-6.7h0c.2-2.3-.5-3.5-3.3-5.2l-14.4-8.5-.7,3.4c-.5,2.4.3,4.9,2.1,6.7l8.2,7.6h0Z"/>
            <path class="st0" d="M272.1,135.6c-.1,0-.3,0-.4,0-.4-.2-.6-.5-.6-.9l.2-6.8-7.9-7.3c-2.1-1.9-3-4.8-2.4-7.6l.7-3.4c0-.3.3-.6.6-.7s.6-.1.9,0l14.4,8.5c2.7,1.7,4.1,3.2,3.8,6.2-.3,2.8-1.6,5.4-3.7,7.3l-4.9,4.5c-.2.2-.4.3-.7.3h0ZM263.4,111.2l-.4,2.1c-.4,2.1.3,4.3,1.8,5.7l8.2,7.6c.2.2.3.5.3.8v4.8c-.1,0,3-2.9,3-2.9,1.7-1.6,2.8-3.7,3.1-6.1.2-1.7-.2-2.6-2.8-4.3l-13.2-7.8h0Z"/>
          </g>
          <g>
            <path class="st2" d="M270.5,137.2l-.2,8.6,5.8-5.4c2.2-2.1,3.7-4.9,4-7.9h0c.3-2.7-1.3-5.3-3.9-6.2l-21.9-8.2-.4,5.6c-.2,2.9,1.3,5.7,3.9,7.1l12.7,6.4h0Z"/>
            <path class="st0" d="M270.3,146.8c-.1,0-.3,0-.4,0-.4-.2-.6-.5-.6-.9l.2-7.9-12.1-6.1c-2.9-1.6-4.7-4.8-4.4-8.1l.4-5.6c0-.3.2-.6.5-.8.3-.2.6-.2.9,0l21.9,8.2c3,1.1,4.9,4.1,4.5,7.2-.4,3.3-1.9,6.3-4.3,8.6l-5.8,5.4c-.2.2-.4.3-.7.3h0ZM255.3,119.5l-.3,4.3c-.2,2.5,1.1,4.9,3.3,6.1l12.7,6.4c.4.2.6.5.5.9v6.2c-.1,0,3.9-3.8,3.9-3.8,2.1-1.9,3.4-4.5,3.7-7.3.2-2.3-1.1-4.4-3.2-5.1l-20.7-7.7h0Z"/>
          </g>
          <g>
            <path class="st2" d="M270.3,148.5l-.2,8.6,5.8-5.4c2.2-2.1,3.7-4.9,4-7.9h0c.3-2.7-1.3-5.3-3.9-6.2l-20-7.4-.4,5.6c-.2,2.9,1.3,5.7,3.9,7.1l10.8,5.6h0Z"/>
            <path class="st0" d="M270.1,158.1c-.1,0-.3,0-.4,0-.4-.2-.6-.5-.6-.9l.2-7.9-10.3-5.3c-2.9-1.6-4.6-4.7-4.4-8l.4-5.6c0-.3.2-.6.5-.8.3-.2.6-.2.9,0l20,7.4c3,1.1,4.9,4.1,4.5,7.2-.4,3.3-1.9,6.3-4.3,8.6l-5.8,5.4c-.2.2-.4.3-.7.3h0ZM256.9,131.6l-.3,4.3c-.2,2.5,1.1,4.9,3.3,6.1l10.8,5.6c.3.2.5.5.5.9v6.2c-.1,0,3.9-3.8,3.9-3.8,2.1-1.9,3.4-4.5,3.7-7.3.2-2.3-1.1-4.4-3.2-5.1l-18.8-6.9Z"/>
          </g>
          <g>
            <path class="st2" d="M270,159.2l-.2,8.6,5.8-5.4c2.2-2.1,3.7-4.9,4-7.9h0c.3-2.7-1.3-5.3-3.9-6.2l-17.4-6.2-.4,5.6c-.2,2.9,1.3,5.7,3.9,7.1l8.2,4.4h0Z"/>
            <path class="st0" d="M269.8,168.8c-.1,0-.3,0-.4,0-.4-.2-.6-.5-.6-.9l.2-7.9-7.7-4.2c-2.9-1.6-4.6-4.7-4.4-8l.4-5.6c0-.3.2-.6.5-.8.3-.2.6-.2.9,0l17.4,6.2c3,1.1,4.9,4.1,4.5,7.2-.4,3.3-1.9,6.3-4.3,8.6l-5.8,5.4c-.2.2-.4.3-.7.3h0ZM259.3,143.4l-.3,4.3c-.2,2.5,1.1,4.9,3.3,6.1l8.2,4.4c.3.2.5.5.5.9v6.2c-.1,0,3.9-3.8,3.9-3.8,2.1-1.9,3.4-4.5,3.7-7.3.2-2.3-1.1-4.4-3.2-5.1l-16.1-5.8h0Z"/>
          </g>
        </g>
        <g>
          <g>
            <path class="st2" d="M75.5,231.5l20-65.6,1.5-.2c5.9-.8,11.2-4,14.6-8.8l3.2-4.5,2.8,1.6c3,1.7,6.7,1,8.8-1.7l1.8-2.2,5.5-7.1-3.9-11.4c-.9-2.5-2.9-4.4-5.5-5.1l-3.6-.9,16.1-7.9c3.4-1.7,5.5-5.2,5.4-8.9,0-1.6-1.6-2.8-3.2-2.2l-24.3,8.6-22.5,14.6c-13.9,9-24.9,21.7-31.9,36.8l-42.6,65h57.7Z"/>
            <path class="st0" d="M75.5,232.5c-.1,0-.2,0-.3,0-.5-.2-.8-.7-.7-1.2l20-65.6c.1-.4.4-.7.8-.7l1.5-.2c5.6-.8,10.7-3.8,14-8.4l3.2-4.5c.3-.4.9-.5,1.3-.3l2.8,1.6c2.5,1.4,5.7.8,7.6-1.4l1.8-2.2,5.2-6.6-3.7-10.9c-.7-2.2-2.5-3.9-4.8-4.5l-3.6-.9c-.4-.1-.7-.4-.7-.9s.2-.8.6-1l16.1-7.9c3-1.5,4.9-4.6,4.9-8,0-.4-.2-.9-.6-1.1-.4-.3-.8-.3-1.2-.2l-24.2,8.6-22.4,14.6c-13.7,8.9-24.6,21.5-31.5,36.3,0,0,0,0,0,.1l-42.6,65c-.3.5-.9.6-1.4.3-.5-.3-.6-.9-.3-1.4l42.6-64.9c7-15.2,18.2-28,32.2-37.1l22.5-14.6c0,0,.1,0,.2,0l24.3-8.6c1-.4,2.1-.2,3.1.4s1.4,1.6,1.5,2.7c0,4.1-2.3,8-6,9.8l-13.6,6.7,1,.2c2.9.8,5.2,2.9,6.2,5.8l3.9,11.4c.1.3,0,.7-.2.9l-5.5,7.1-1.8,2.2c-2.5,3-6.7,3.8-10.1,1.9l-2-1.1-2.7,3.8c-3.6,5-9.2,8.3-15.3,9.2h-.8c0,.1-19.8,65.1-19.8,65.1-.1.4-.5.7-1,.7h0Z"/>
          </g>
          <path class="st0" d="M124.6,154.3c-.2,0-.4,0-.5-.2-.5-.3-.6-.9-.3-1.4l3-4.5-3.4-9.4c-.7-1.9-2.2-3.4-4.2-4.1l-9.9-3.5c-.5-.2-.8-.8-.6-1.3s.8-.8,1.3-.6l9.9,3.5c2.5.9,4.5,2.8,5.4,5.3l3.6,9.8c.1.3,0,.6-.1.9l-3.3,4.9c-.2.3-.5.4-.8.4h0Z"/>
          <path class="st0" d="M108,156.3h-5c-.4,0-.8-.3-.9-.7l-2.3-6.4c-.2-.5,0-1.1.6-1.3.5-.2,1.1,0,1.3.6l2.1,5.7h4.2c0,0,0,0,0,0,2,0,4-.8,5.4-2.3l2.9-3.1-1.3-4.8c-.7-2.6-2.9-4.6-5.5-5l-9.4-1.6c-.5,0-.9-.6-.8-1.2,0-.5.6-.9,1.2-.8l9.4,1.6c3.4.6,6.2,3.1,7.1,6.4l1.4,5.3c0,.3,0,.7-.2.9l-3.3,3.5c-1.8,1.9-4.3,2.9-6.9,2.9h0Z"/>
          <path class="st0" d="M80.4,167.1c-.4,0-.8-.2-.9-.6-.2-.5,0-1.1.6-1.3l1.7-.7c7.3-2.9,13.1-8.7,16-16,.1-.3.3-.5.6-.6l9.2-3.1c.5-.2,1.1.1,1.3.6s-.1,1.1-.6,1.3l-8.8,2.9c-3.1,7.6-9.3,13.7-17,16.7l-1.7.7c-.1,0-.2,0-.4,0h0Z"/>
          <path class="st0" d="M124.8,127.4c0,0-.1,0-.2,0l-9.4-1.6c-.5,0-.9-.6-.8-1.2.1-.5.6-.9,1.2-.8l9.4,1.6c.5,0,.9.6.8,1.2,0,.5-.5.8-1,.8h0Z"/>
        </g>
      </g>
    </g>
  </g>
</svg>