<?xml version="1.0" encoding="UTF-8"?>
<svg id="Layer_1" xmlns="http://www.w3.org/2000/svg" version="1.1" viewBox="0 0 288.8 215">
  <!-- Generator: Adobe Illustrator 29.1.0, SVG Export Plug-In . SVG Version: 2.1.0 Build 142)  -->
  <defs>
    <style>
      .st0 {
        fill: #303030;
      }

      .st1 {
        fill: #26a8df;
      }

      .st2 {
        fill: #fafafa;
      }
    </style>
  </defs>
  <g id="Layer_2">
    <g id="_Layer_">
      <g>
        <g>
          <rect class="st2" x="76.6" y="78.3" width="60.9" height="27.6" rx="9.5" ry="9.5" transform="translate(-26.8 137.1) rotate(-59.3)"/>
          <path class="st0" d="M100.2,122.7c-1.8,0-3.7-.5-5.4-1.5l-7.3-4.3h0c-5-3-6.6-9.4-3.7-14.4l21.4-36c3-5,9.4-6.6,14.4-3.7l7.3,4.3c5,3,6.6,9.4,3.7,14.4l-21.4,36c-2,3.3-5.5,5.2-9.1,5.2h0ZM88.5,115.1l7.3,4.3c4,2.4,9.3,1.1,11.7-3l21.4-36c2.4-4,1.1-9.3-3-11.7l-7.3-4.3c-4-2.4-9.3-1.1-11.7,3l-21.4,36c-2.4,4-1.1,9.3,3,11.7Z"/>
        </g>
        <g>
          <g>
            <ellipse class="st0" cx="128.3" cy="47.2" rx="20.9" ry="33.6" transform="translate(73.8 172.5) rotate(-86.7)"/>
            <g>
              <path class="st2" d="M77.8,64.2c1.8-3.2,6.7-3.9,10.9-1.5.5.3,1,.6,1.5,1,1.6-18.9,16.7-33.4,34.2-32.3,17.8,1,31.3,17.6,30.2,37.1-1.1,19.4-16.5,34.4-34.3,33.3-14.6-.8-26.2-12.1-29.4-26.8-2.3,1.2-5.7,1.1-8.7-.6-4.2-2.4-6.2-6.9-4.4-10.1h0Z"/>
              <path class="st0" d="M122,102.7c-.6,0-1.2,0-1.8,0-14.2-.8-26.4-11.6-30.1-26.4-2.6.8-5.7.4-8.5-1.1-4.7-2.6-6.9-7.8-4.8-11.5,1-1.8,2.9-3,5.3-3.4,2.3-.3,4.8.2,7,1.4,0,0,.1,0,.2,0,2.4-18.8,17.5-32.6,35.1-31.6,18.3,1.1,32.3,18.2,31.1,38.1-1.1,19.3-16,34.3-33.5,34.3h0ZM90.9,73.9c.1,0,.3,0,.4,0,.3.1.5.4.6.7,3.2,14.8,14.6,25.2,28.5,26,17.2,1,32.1-13.5,33.2-32.4,1.1-18.9-12-35-29.2-36-17-1-31.6,12.8-33.1,31.4,0,.4-.3.7-.6.8-.3.2-.7,0-1-.1-.4-.3-.9-.6-1.3-.9-1.9-1-3.9-1.5-5.8-1.2-1.8.2-3.1,1.1-3.8,2.4-1.5,2.7.3,6.7,4.1,8.8,2.6,1.4,5.6,1.7,7.7.6.1,0,.3-.1.5-.1h0Z"/>
            </g>
            <path class="st0" d="M125,21.2c12.2-2.2,23.6,0,30.3,4.9,1.9,1.4.2,4.3-1.9,3.5-6.5-2.4-14.9-3-23.6-1.4-18.1,3.3-31.1,14.9-29.1,25.9,0,.4.2.9.3,1.3-2.7-2.3-4.4-5.1-5-8.3-2-11,11-22.6,29.1-25.9Z"/>
            <path class="st0" d="M70,44.5h0c4.5-13.4,17.7-21.8,31.7-20.1l24.8,3-3,3.8c2.7-4.2,12.5,16.4-13.7,16.9-5.5,0-7.6,5.9-9.2,11.5-1.1,3.8-2,7.5-2.7,10.8-.4,1.7-8,1.3-7.7-6.9-.4-.3-.9-.7-1.5-1-4.2-2.4-9.1-1.7-10.9,1.5s.2,7.8,4.4,10.1c3,1.7,6.4,1.8,8.7.6,1.3,5.9,3.9,11.2,7.5,15.5l-6.8-.4c-3.7-.2-7-2.5-8.5-5.9l-2.8-6.5-.4-.3c-9.9-7.7-13.9-20.9-9.9-32.8h0Z"/>
          </g>
          <path class="st0" d="M144.6,69.1c-.2,1.7.6,3.1,1.8,3.2s2.3-1.1,2.5-2.7c.2-1.7-.6-3.1-1.8-3.2s-2.3,1.1-2.5,2.7Z"/>
          <path class="st0" d="M122.8,67c-.2,1.7.6,3.1,1.8,3.2s2.3-1.1,2.5-2.7-.6-3.1-1.8-3.2-2.3,1.1-2.5,2.7Z"/>
          <path class="st0" d="M125.8,87.8c0,0-.1,0-.2,0-2.5-.5-4.7-2.1-5.9-4.3-.3-.5-.1-1.2.4-1.5.5-.3,1.2,0,1.5.4.9,1.7,2.6,2.8,4.4,3.2.6.1,1,.7.9,1.3-.1.5-.6.9-1.1.9h0Z"/>
          <path class="st0" d="M135.7,78c-.5,0-1-.4-1.1-.9-.1-.6.3-1.2.9-1.3,1.7-.3,2.9-1.8,2.9-3.5v-5.3c-.1-.6.3-1.1.9-1.1.6,0,1.1.5,1.1,1.1v5.3c.2,2.8-1.8,5.2-4.5,5.7,0,0-.1,0-.2,0h0Z"/>
          <path class="st0" d="M121.6,61.6c-.2,0-.5,0-.7-.2-.5-.4-.6-1.1-.2-1.5,1.5-1.9,4.3-2.6,6.6-1.6.6.2.8.9.5,1.4-.2.6-.9.8-1.4.5-1.3-.6-3.1-.2-3.9.9-.2.3-.5.4-.9.4h0Z"/>
          <path class="st0" d="M150.5,64.3c-.2,0-.5,0-.7-.2-1.1-.9-2.4-1.6-3.8-1.9-.6-.2-.9-.7-.8-1.3s.7-.9,1.3-.8c1.7.4,3.3,1.2,4.6,2.3.5.4.5,1.1.1,1.5-.2.3-.5.4-.8.4h0Z"/>
        </g>
        <path class="st1" d="M91,112.5l26.1-4.7c7.6-1.4,15.3,2.2,19.2,9l51.4,90.5h-82.4l-14.4-94.8h0Z"/>
        <g>
          <polygon class="st2" points="104.3 207.3 186.8 207.3 151.6 145.5 95 145.5 104.3 207.3"/>
          <path class="st0" d="M186.8,208.3h-82.4c-.5,0-.9-.4-1-.8l-9.4-61.8c0-.3,0-.6.2-.8.2-.2.5-.3.8-.3h56.6c.4,0,.7.2.9.5l35.2,61.8c.2.3.2.7,0,1-.2.3-.5.5-.9.5h0ZM105.2,206.3h79.8l-34-59.8h-54.9l9.1,59.8Z"/>
        </g>
        <path class="st1" d="M32.7,140.1l27.1-35.6c6.6-8.7,19.1-10.3,27.7-3.5l12.7,10,5.5-5.9h.2c10.5,0,19.5,7.4,21.6,17.7l4.7,89.9H22.2l10.5-72.6h0Z"/>
        <g>
          <g>
            <path class="st2" d="M138.1,175.4h2.9c3.4,0,6.4-2.1,7.6-5.3h0c.9-2.3-.9-4.8-3.4-4.8h-24.6l17.5,10.1h0Z"/>
            <path class="st0" d="M141.1,176.4h-2.9c-.6,0-1-.4-1-1s.4-1,1-1h2.9c3,0,5.6-1.9,6.6-4.7.3-.8.2-1.7-.3-2.4s-1.3-1.1-2.1-1.1h-24.6c-.6,0-1-.4-1-1s.4-1,1-1h24.6c1.5,0,2.9.7,3.8,1.9.9,1.2,1.1,2.8.6,4.2-1.3,3.6-4.7,6-8.5,6h0Z"/>
          </g>
          <g>
            <path class="st2" d="M32.7,140.1l-26.6,35.1c-13.5,17.8,2.3,42.7,24.1,38.2l83.5-17.5,10.1,7.1c3.3,2.3,7.5,2.7,11.1,1l2.8-1.3h0c3.4,2.2,7.7,2.3,11.2.2l2.3-1.4-21.7-20.3c2.7,1.5,15.7,6.8,23.6,7.4,2.2.2,4.3-.8,5.7-2.5l.7-.9-24.8-14.3c-7.9-4.1-10.4-6.3-16.4-5.5l-60.4,8.2,15.9-17.5s-10.1-15.9-41.1-15.9h0Z"/>
            <path class="st0" d="M24.9,215c-8.5,0-16.2-4.2-20.9-11.7-5.7-9.1-5.3-20,1.2-28.6l26.6-35.1c.2-.2.5-.4.8-.4,31.2,0,41.5,15.7,41.9,16.4.2.4.2.9-.1,1.2l-14.1,15.4,57.6-7.8c5.3-.7,8.2.8,13.4,3.7,1.1.6,2.3,1.2,3.6,1.9l24.9,14.3c.2.2.4.4.5.7s0,.6-.2.8l-.7.9c-1.6,2-4.1,3.1-6.6,2.9-5.6-.4-13.3-3.1-18.6-5.1l17.4,16.3c.2.2.3.5.3.8,0,.3-.2.6-.5.8l-2.3,1.4c-3.6,2.2-8.2,2.2-11.8,0l-2.3,1.1c-3.9,1.8-8.6,1.4-12.1-1.1l-9.7-6.8-83,17.4c-1.8.4-3.6.6-5.4.6h0ZM33.2,141.1l-26.3,34.7c-6,7.9-6.4,18-1.1,26.3,5.3,8.4,14.6,12.3,24.3,10.3l83.5-17.5c.3,0,.6,0,.8.2l10.1,7.1c3,2.1,6.8,2.4,10.1.9l2.8-1.3c.3-.2.7-.1,1,0,3,2,7,2.1,10.1.2l1.2-.7-20.7-19.4c-.4-.3-.4-.9-.1-1.3.3-.4.9-.5,1.3-.3,2.9,1.6,15.7,6.7,23.2,7.3,1.9.2,3.6-.7,4.8-2.2h0l-23.8-13.7c-1.3-.7-2.5-1.3-3.6-1.9-5.1-2.8-7.5-4.1-12.1-3.4l-60.4,8.2c-.4,0-.8-.2-1-.5-.2-.4-.1-.8.1-1.1l15.4-16.9c-1-1.2-3.6-4.2-8.3-7.1-5.7-3.5-15.6-7.7-31-7.8h0Z"/>
          </g>
          <g>
            <path class="st2" d="M121.9,188.9l15.6,13.8-15.6-13.8Z"/>
            <path class="st0" d="M137.5,203.7c-.2,0-.5,0-.7-.2l-15.6-13.8c-.4-.4-.4-1,0-1.4.4-.4,1-.4,1.4,0l15.6,13.8c.4.4.4,1,0,1.4-.2.2-.5.3-.8.3Z"/>
          </g>
          <g>
            <path class="st2" d="M129.8,181.6l-5.2-4.2,5.2,4.2Z"/>
            <path class="st0" d="M129.8,182.6c-.2,0-.4,0-.6-.2l-5.2-4.2c-.4-.3-.5-1-.1-1.4s1-.5,1.4-.2l5.2,4.2c.4.3.5,1,.1,1.4-.2.2-.5.4-.8.4Z"/>
          </g>
        </g>
        <path class="st2" d="M73.8,157.1c-.2,0-.5,0-.7-.3-.4-.4-.4-1,0-1.4l16.3-17.1c.4-.4,1-.4,1.4,0s.4,1,0,1.4l-16.3,17.1c-.2.2-.5.3-.7.3Z"/>
        <path class="st0" d="M203,212.8h-118.2v-2.2c0-3.9,3.2-7.2,7.1-7.2h111v9.3h0Z"/>
        <path class="st0" d="M157.2,212.8h107.4l23.6-71.4c2.3-6.9-2.9-14-10.1-14h-85c-4.6,0-8.7,2.9-10.1,7.3l-25.8,78.1h0Z"/>
        <g>
          <circle class="st2" cx="229.9" cy="171.7" r="7.6" transform="translate(-16.7 318.4) rotate(-67.5)"/>
          <path class="st0" d="M229.9,180.3c-4.7,0-8.6-3.8-8.6-8.6s3.8-8.6,8.6-8.6,8.6,3.8,8.6,8.6-3.8,8.6-8.6,8.6ZM229.9,165.2c-3.6,0-6.6,2.9-6.6,6.6s2.9,6.6,6.6,6.6,6.6-2.9,6.6-6.6-2.9-6.6-6.6-6.6Z"/>
        </g>
        <g>
          <path class="st2" d="M33.9,177.2l23.9-3.7-23.9,3.7Z"/>
          <path class="st0" d="M33.9,178.2c-.5,0-.9-.3-1-.8,0-.6.3-1.1.8-1.1l23.9-3.7c.6,0,1.1.3,1.1.8,0,.6-.3,1.1-.8,1.1l-23.9,3.7c0,0-.1,0-.1,0Z"/>
        </g>
        <path class="st2" d="M89.2,101.8l35,6.4-.6,2.6c-2.8,11.8-16.3,15.5-23.7,6.5l-10.7-15.5h0Z"/>
        <g>
          <path class="st2" d="M115.6,105.3l8.9,2.4-8.9-2.4Z"/>
          <path class="st0" d="M124.5,108.8c0,0-.2,0-.3,0l-8.9-2.4c-.5-.2-.8-.7-.7-1.2.1-.5.7-.8,1.2-.7l8.9,2.4c.5.2.8.7.7,1.2-.1.4-.5.7-1,.7Z"/>
        </g>
        <g>
          <path class="st2" d="M116.3,103.8l-4.7,8.4,4.7-8.4Z"/>
          <path class="st0" d="M111.6,113.2c-.2,0-.3,0-.5-.1-.5-.3-.7-.9-.4-1.4l4.7-8.4c.3-.5.9-.7,1.4-.4.5.3.7.9.4,1.4l-4.7,8.4c-.2.3-.5.5-.9.5h0Z"/>
        </g>
        <g>
          <path class="st0" d="M273.6,13.1h-43.8c-.6,0-1-.4-1-1s.4-1,1-1h43.8c.6,0,1,.4,1,1s-.4,1-1,1Z"/>
          <path class="st0" d="M270.1,21.4h-40.4c-.6,0-1-.4-1-1s.4-1,1-1h40.4c.6,0,1,.4,1,1s-.4,1-1,1Z"/>
          <g>
            <rect class="st2" x="195.6" y="1" width="27.7" height="27.7"/>
            <path class="st0" d="M223.3,29.7h-27.7c-.6,0-1-.4-1-1V1c0-.6.4-1,1-1h27.7c.6,0,1,.4,1,1v27.7c0,.6-.4,1-1,1ZM196.6,27.7h25.7V2h-25.7v25.7Z"/>
          </g>
          <path class="st0" d="M206.5,20.6c-.3,0-.5,0-.7-.3l-4.5-4.5c-.4-.4-.4-1,0-1.4s1-.4,1.4,0l3.8,3.8,10.2-10.2c.4-.4,1-.4,1.4,0s.4,1,0,1.4l-10.9,10.9c-.2.2-.4.3-.7.3h0Z"/>
        </g>
        <g>
          <path class="st0" d="M273.6,53.7h-43.8c-.6,0-1-.4-1-1s.4-1,1-1h43.8c.6,0,1,.4,1,1s-.4,1-1,1Z"/>
          <path class="st0" d="M270.1,62h-40.4c-.6,0-1-.4-1-1s.4-1,1-1h40.4c.6,0,1,.4,1,1s-.4,1-1,1Z"/>
          <g>
            <rect class="st2" x="195.6" y="41.6" width="27.7" height="27.7"/>
            <path class="st0" d="M223.3,70.3h-27.7c-.6,0-1-.4-1-1v-27.7c0-.6.4-1,1-1h27.7c.6,0,1,.4,1,1v27.7c0,.6-.4,1-1,1ZM196.6,68.3h25.7v-25.7h-25.7v25.7Z"/>
          </g>
          <path class="st0" d="M206.5,61.2h0c-.3,0-.5-.1-.7-.3l-4.5-4.5c-.4-.4-.4-1,0-1.4s1-.4,1.4,0l3.8,3.8,10.2-10.2c.4-.4,1-.4,1.4,0s.4,1,0,1.4l-10.9,10.9c-.2.2-.4.3-.7.3h0Z"/>
        </g>
        <g>
          <path class="st0" d="M273.6,94.2h-43.8c-.6,0-1-.4-1-1s.4-1,1-1h43.8c.6,0,1,.4,1,1s-.4,1-1,1Z"/>
          <path class="st0" d="M270.1,102.5h-40.4c-.6,0-1-.4-1-1s.4-1,1-1h40.4c.6,0,1,.4,1,1s-.4,1-1,1Z"/>
          <g>
            <rect class="st2" x="195.6" y="82.1" width="27.7" height="27.7"/>
            <path class="st0" d="M223.3,110.8h-27.7c-.6,0-1-.4-1-1v-27.7c0-.6.4-1,1-1h27.7c.6,0,1,.4,1,1v27.7c0,.6-.4,1-1,1ZM196.6,108.8h25.7v-25.7h-25.7v25.7Z"/>
          </g>
          <path class="st0" d="M206.5,101.7h0c-.3,0-.5-.1-.7-.3l-4.5-4.5c-.4-.4-.4-1,0-1.4s1-.4,1.4,0l3.8,3.8,10.2-10.2c.4-.4,1-.4,1.4,0s.4,1,0,1.4l-10.9,10.9c-.2.2-.4.3-.7.3h0Z"/>
        </g>
      </g>
    </g>
  </g>
</svg>