<?xml version="1.0" encoding="UTF-8"?>
<svg id="Layer_1" xmlns="http://www.w3.org/2000/svg" version="1.1" viewBox="0 0 258.7 243.7">
  <!-- Generator: Adobe Illustrator 29.2.0, SVG Export Plug-In . SVG Version: 2.1.0 Build 108)  -->
  <defs>
    <style>
      .st0 {
        fill: #303030;
      }

      .st1 {
        fill: #26a8df;
      }

      .st2 {
        fill: #fafafa;
      }
    </style>
  </defs>
  <g id="Layer_2">
    <g id="_Layer_">
      <g>
        <path class="st2" d="M162,27.8C125-9.3,64.9-9.3,27.8,27.8c-37.1,37.1-37,97.2,0,134.2,37.1,37,97.2,37.1,134.2,0,37.1-37,37-97.1,0-134.2Z"/>
        <g>
          <path class="st1" d="M133.3,56.5c-21.2-21.2-55.6-21.2-76.8,0-21.2,21.2-21.2,55.6,0,76.8,21.2,21.2,55.6,21.2,76.8,0,21.2-21.2,21.2-55.6,0-76.8h0ZM121.3,121.2c-14.6,14.6-38.2,14.5-52.7,0-14.5-14.5-14.6-38.2,0-52.7,14.6-14.5,38.2-14.5,52.7,0s14.6,38.2,0,52.7h0Z"/>
          <path class="st1" d="M162,27.8C125-9.3,64.9-9.3,27.8,27.8c-37.1,37.1-37,97.2,0,134.2,37.1,37,97.2,37.1,134.2,0,37.1-37,37-97.1,0-134.2ZM147.7,147.6c-29.1,29.2-76.4,29.1-105.6,0-29.1-29.1-29.1-76.4,0-105.6,29.2-29.1,76.5-29.1,105.6,0,29.1,29.2,29.2,76.4,0,105.6Z"/>
          <path class="st1" d="M106.9,82.9c-6.6-6.6-17.3-6.6-24,0s-6.6,17.3,0,24c6.6,6.6,17.4,6.6,24,0,6.6-6.6,6.6-17.3,0-24h0Z"/>
        </g>
        <path class="st2" d="M90.7,166.8l-11-17.4c-.2-.3-.5-.5-1-.5-1.9,0-3.7,1-4.8,2.5-1.2,1.5-1.6,3.5-1.1,5.3l3.8,16.1-22.6-5.7c-2.3-.6-4.3-2.1-5.5-4.2l-4.2-7.1c-1.6-2.7-4.6-4.2-7.7-3.8l-1.6.2c-.6,0-1,.6-.9,1.2l.8,7.7c-1.9-.4-3.9-.2-5.8.7-.3.1-.5.3-.6.6-.1.3,0,.6,0,.8l3.8,7.8c-.9,0-1.8.3-2.6.8-2.5,1.7-3.3,5.1-3.3,5.2-.1.5.2,1,.7,1.2l14.1,5.5c.1,0,.3,0,.4,0s.2,0,.4,0c.7.4,1.5.7,2.2.9l24.9,7.8-8.9,17.5-17.1,31.9c-.2.3-.2.7,0,1.1s.5.5.9.5h46.9c.6,0,1-.4,1.1-1l2.4-30.8h0s1.1-27.3,1.1-27.3c.2-6.3-1.4-12.4-4.7-17.7h0Z"/>
        <path class="st0" d="M93.3,212.7h0l-32.2-1.2c-.3,0-.6-.2-.8-.5-.2-.3-.2-.7,0-1l9-17.5-25-7.8c-5-1.5-8.8-5.5-10.2-10.5l-5.4-11c-.1-.2-.1-.5,0-.8,0-.2.3-.5.5-.6,1.9-.8,3.9-1,5.8-.6l-.8-7.8c0-.5.3-1,.9-1.1l1.6-.2c3.1-.4,6.1,1.1,7.6,3.8l4.2,7.1c1.2,2.1,3.3,3.6,5.6,4.2l22.7,5.7-3.9-16.2c-.4-1.8,0-3.8,1.1-5.3,1.1-1.5,2.9-2.4,4.8-2.5.4,0,.7.2.9.5l11,17.4c3.3,5.3,5,11.4,4.7,17.6l-1.1,27.2c0,.5-.5,1-1,1h0ZM62.7,209.6l29.6,1.1,1-26.2c.2-5.8-1.3-11.5-4.4-16.5l-10.7-16.9c-1.1.2-2,.8-2.7,1.6-.8,1-1.1,2.3-.8,3.6l4.2,17.8c0,.3,0,.7-.3.9-.2.2-.6.3-1,.3l-24.3-6.1c-2.9-.7-5.3-2.6-6.8-5.1l-4.2-7.1c-1.2-2-3.4-3.1-5.7-2.8h-.6c0,0,.9,8.4.9,8.4,0,.3-.1.7-.4.9s-.6.3-1,.1c-1.6-.6-3.2-.7-4.8-.2l4.9,10.1s0,.1,0,.2c1.2,4.4,4.5,7.8,8.9,9.2l26.1,8.2c.3,0,.5.3.6.6s.1.6,0,.8l-8.8,17.2h0Z"/>
        <path class="st0" d="M51.8,181.2c-.1,0-.3,0-.4,0l-6.7-2.9c-3.3-1.4-5.9-4.2-7-7.6l-2.6-7.7c-.2-.5.1-1.1.6-1.3.5-.2,1.1,0,1.3.6l2.6,7.7c1,2.9,3.1,5.2,5.9,6.4l6.7,2.9c.5.2.7.8.5,1.3-.2.4-.5.6-.9.6h0Z"/>
        <path class="st0" d="M41.6,183.8c-.1,0-.2,0-.4,0l-14.1-5.5c-.5-.2-.7-.7-.6-1.1,0-.1.8-3.6,3.3-5.2,1.2-.8,2.6-1,4.2-.7.5.1.9.7.8,1.2-.1.5-.6.9-1.2.8-3-.7-4.4,2.1-4.9,3.5l13.2,5.2c.5.2.8.8.6,1.3-.1.4-.5.6-.9.6h0Z"/>
        <path class="st0" d="M44,243.4c-.2,0-.3,0-.5-.1-.5-.3-.7-.9-.4-1.3l17.2-31.9c.2-.3.5-.5.9-.5l32.2,1.2c.3,0,.5.1.7.3.2.2.3.5.2.8l-2.4,28.6c0,.5-.5,1-1.1.9-.5,0-1-.5-.9-1.1l2.3-27.5-30.5-1.1-16.9,31.4c-.2.3-.5.5-.9.5h0Z"/>
        <path class="st2" d="M103,166.8l11-17.4c.2-.3.5-.5,1-.5,1.9,0,3.7,1,4.8,2.5,1.2,1.5,1.6,3.5,1.1,5.3l-3.8,16.1,22.6-5.7c2.3-.6,4.3-2.1,5.5-4.2l4.2-7.1c1.6-2.7,4.6-4.2,7.7-3.8l1.6.2c.6,0,1,.6.9,1.2l-.8,7.7c1.9-.4,3.9-.2,5.8.7.3.1.5.3.6.6.1.3,0,.6,0,.8l-3.8,7.8c.9,0,1.8.3,2.6.8,2.5,1.7,3.3,5.1,3.3,5.2.1.5-.2,1-.7,1.2l-14.1,5.5c-.1,0-.3,0-.4,0s-.2,0-.4,0c-.7.4-1.5.7-2.2.9l-24.9,7.8,9,17.5,17.1,31.9c.2.3.2.7,0,1.1s-.5.5-.9.5h-47c-.6,0-1-.4-1.1-1l-2.4-30.8h0s-1.1-27.3-1.1-27.3c-.2-6.3,1.4-12.4,4.7-17.7h0Z"/>
        <path class="st0" d="M100.4,212.7c-.5,0-1-.4-1-1l-1.1-27.2c-.2-6.2,1.4-12.3,4.7-17.6l11-17.4c.2-.3.5-.5.9-.5,1.9,0,3.6,1,4.8,2.5,1.1,1.5,1.5,3.4,1.1,5.3l-3.9,16.2,22.7-5.7c2.3-.6,4.4-2.1,5.6-4.2l4.2-7.1c1.6-2.7,4.6-4.1,7.6-3.8l1.6.2c.5,0,.9.5.9,1.1l-.8,7.8c2-.4,4-.2,5.8.6.2.1.4.3.5.6s0,.5,0,.8l-5.4,11c-1.4,5-5.2,8.9-10.2,10.5l-25,7.8,9,17.5c.2.3.1.7,0,1-.2.3-.5.5-.8.5l-32.2,1.2h0,0ZM115.5,151l-10.7,16.9c-3.1,4.9-4.6,10.7-4.4,16.5l1,26.2,29.6-1.1-8.8-17.2c-.1-.3-.1-.6,0-.8.1-.3.3-.5.6-.6l26.1-8.2c4.4-1.4,7.7-4.8,8.9-9.2,0,0,0-.1,0-.2l4.9-10.1c-1.6-.5-3.2-.4-4.8.2-.3.1-.7,0-1-.1-.3-.2-.4-.5-.4-.9l.9-8.3h-.6c-2.3-.4-4.5.8-5.7,2.7l-4.2,7.1c-1.5,2.5-4,4.4-6.8,5.1l-24.3,6.1c-.3,0-.7,0-1-.3s-.4-.6-.3-.9l4.2-17.8c.3-1.2,0-2.6-.8-3.6-.7-.9-1.6-1.5-2.7-1.6h0Z"/>
        <path class="st0" d="M141.9,181.2c-.4,0-.8-.2-.9-.6-.2-.5,0-1.1.5-1.3l6.7-2.9c2.8-1.2,4.9-3.6,5.9-6.4l2.6-7.7c.2-.5.7-.8,1.3-.6.5.2.8.8.6,1.3l-2.6,7.7c-1.2,3.4-3.7,6.2-7,7.6l-6.7,2.9c-.1,0-.3,0-.4,0h0Z"/>
        <path class="st0" d="M152.1,183.8c-.4,0-.8-.2-.9-.6-.2-.5,0-1.1.6-1.3l13.2-5.2c-.5-1.4-1.9-4.2-4.9-3.5-.5.1-1.1-.2-1.2-.8-.1-.5.2-1.1.8-1.2,1.6-.3,3,0,4.2.7,2.5,1.6,3.3,5,3.3,5.2.1.5-.2,1-.6,1.1l-14.1,5.5c-.1,0-.2,0-.4,0Z"/>
        <path class="st0" d="M149.8,243.4c-.4,0-.7-.2-.9-.5l-16.9-31.4-30.5,1.1,2.3,27.5c0,.5-.4,1-.9,1.1-.6,0-1-.4-1.1-.9l-2.4-28.6c0-.3,0-.5.2-.8s.4-.3.7-.3l32.2-1.2c.4,0,.7.2.9.5l17.2,31.9c.3.5,0,1.1-.4,1.3-.1,0-.3.1-.5.1h0Z"/>
        <g>
          <g>
            <g>
              <polygon class="st2" points="231.4 235.3 194.2 220.6 193.4 183.2 228 182.4 231.4 235.3"/>
              <path class="st0" d="M231.4,236.3c-.1,0-.2,0-.4,0l-37.1-14.8c-.4-.2-.6-.5-.6-.9l-.9-37.3c0-.5.4-1,1-1l34.7-.8c.5,0,1,.4,1,.9l3.3,52.9c0,.3-.1.7-.4.9-.2.1-.4.2-.6.2ZM195.2,219.9l35,13.9-3.2-50.3-32.7.8.8,35.7h0Z"/>
            </g>
            <path class="st0" d="M230.2,145s-20,8-23.6,5-11.6-12.3-6.5-19c5.1-6.7,6.6-3.3,9.7-1.3,3.1,1.9,6.9-5.9,9-5s3.8,3.2,6.6,7.9c2.8,4.8,4.7,12.4,4.7,12.4h0Z"/>
            <g>
              <path class="st2" d="M216.5,203.6c8.4,0,16.9-3.1,23.5-9.3,13.5-12.7,14.1-33.3,2.1-46.6-19.7-21.9-41.9-7.1-45.3-2.7-.8,1-1.5,2-2.3,3-1.4,1.4-2.7,3-3.8,4.6-2.9,3.1-5.6,5.2-8.4,5.2-4.4,0-12.1,31.2,11.4,36.4l22.8,9.6h0Z"/>
              <path class="st0" d="M216.7,204.6h-.2c-.5,0-1-.5-1-1,0-.5.5-1,1-1,0,0,.1,0,.2,0,8.4,0,16.4-3.2,22.6-9.1,13-12.2,13.9-32.1,2-45.2-7.1-7.8-15.1-11.7-23.9-11.3-10.3.4-18.2,6.5-19.8,8.5-.8,1-1.5,2-2.3,3,0,0,0,0,0,0-1.4,1.4-2.6,2.9-3.7,4.5,0,0,0,0,0,0-3.5,3.8-6.3,5.5-9.2,5.5-1,.1-3.5,5-3.8,12.3-.2,5.6.8,18.9,15.4,22.1.5.1.9.7.8,1.2s-.6.9-1.2.8c-6.7-1.5-11.5-5.1-14.4-10.7-2.1-4.3-3-9.8-2.4-15.5.6-5.9,2.9-12.1,5.6-12.1,2.2,0,4.6-1.5,7.7-4.8,1.1-1.6,2.4-3.2,3.9-4.6.7-.9,1.5-1.9,2.2-2.9,2.3-3,11-8.9,21.3-9.3,9.4-.4,18,3.7,25.5,12,12.6,13.9,11.6,35-2.2,48-6.6,6.2-15.1,9.6-24,9.6h0Z"/>
            </g>
            <path class="st0" d="M249.4,144.1c-8.2-8.7-20-12.2-31.2-10.3,2.8,1.7,5.3,3.7,7.6,6.2,15.6,16.6,13.2,44.2-5.5,61.8-1,1-2.1,1.9-3.2,2.8,10.4,1.4,21.5-1.9,29.9-9.8,14.6-13.8,15.6-36.4,2.3-50.6h0Z"/>
            <path class="st0" d="M217.4,153c2.6-4.3,8.4-1.7,5.1-5.3-6.1-6.8-5.9-16.7-5.9-16.7,20.2,1,30.5,35,30.5,35l-16.8,35.5-.9,6.7-13.9-2.9c-3-1.3-4.9-4.4-4.5-7.7l1.7-17.1c.1.1.2.3.4.4,2.9,3.1,7.9,3.3,11,.3s3.3-7.8.3-11-7.9-3.3-11-.3c0,0,0,0,0,0-.9-.7-2.8-2.5-1.4-4.1,1.8-2,3-8.7,5.6-13h0Z"/>
            <path class="st0" d="M183.5,174.8c-.4,0-.8,0-1.2-.1-.5-.1-.9-.6-.8-1.2s.6-.9,1.2-.8c2.3.5,4.3-1.3,4.3-1.3.4-.4,1-.3,1.4,0,.4.4.4,1,0,1.4-.1,0-2.1,1.9-4.9,1.9h0Z"/>
            <path class="st0" d="M215.3,175.4c-.2,0-.4,0-.6-.2-.4-.3-.5-1-.2-1.4,0-.1,2.3-2.9,5.7-2.7.5,0,1,.5,1,1s-.5,1-1,1c-2.4-.2-4,1.9-4.1,2-.2.2-.5.4-.8.4Z"/>
            <path class="st0" d="M204,154.9c-.1,0-.3,0-.4,0-.5-.2-.7-.8-.5-1.3.4-.8.2-2.4-.7-3.9-.5-.9-1.7-2.3-3.9-2.4-.5,0-1-.5-1-1,0-.5.5-1,1-1,2.3,0,4.3,1.3,5.5,3.4,1.2,1.9,1.5,4.3.8,5.8-.2.4-.5.6-.9.6h0Z"/>
            <path class="st0" d="M195.6,156.7c-.8.6-1.8.6-2.2,0s-.1-1.5.7-2.1c.8-.6,1.8-.6,2.2,0s.1,1.5-.7,2.1Z"/>
            <path class="st0" d="M193.6,193.2l.3,12c5-2.2,9.4-6,12.3-11.2,1.1-2.1,2-4.2,2.5-6.4-4.3,3.5-9.6,5.4-15,5.7h0Z"/>
          </g>
          <path class="st0" d="M140.2,243.7c13.5-10.1,52.2-27.7,62.7-28.8l27.4-2.9,15.5,31.7h-105.6,0Z"/>
        </g>
        <path class="st0" d="M99.4,211.7h0s2.4,30.8,2.4,30.8c0,.6.5,1,1.1,1h47c.4,0,.7-.2.9-.5s.2-.7,0-1.1l-16.9-31.4h-34.5v1.2h0Z"/>
        <path class="st0" d="M94.3,211.7h0s-2.4,30.8-2.4,30.8c0,.6-.5,1-1.1,1h-46.9c-.4,0-.7-.2-.9-.5s-.2-.7,0-1.1l16.9-31.4h34.5v1.2h0Z"/>
      </g>
    </g>
  </g>
</svg>