<?xml version="1.0" encoding="UTF-8"?>
<svg id="Layer_1" xmlns="http://www.w3.org/2000/svg" version="1.1" viewBox="0 0 305.2 236">
  <!-- Generator: Adobe Illustrator 29.2.0, SVG Export Plug-In . SVG Version: 2.1.0 Build 108)  -->
  <defs>
    <style>
      .st0 {
        fill: #26a8df;
      }

      .st1 {
        fill: #080717;
      }

      .st2 {
        fill: #fafafa;
      }
    </style>
  </defs>
  <g id="Layer_2">
    <g id="_Layer_">
      <g>
        <g>
          <path class="st2" d="M271.7,223.6l-43-122.8c0-1.1-25.1-3.4-43-4.8-11.1-.9-21.9,3.6-29,12.2h0c-4.5,5.3-7.2,11.9-7.8,18.9l-8.8,96.6h131.7Z"/>
          <path class="st1" d="M270.8,223.9l-42.9-122.5c-1.2-.4-7.8-1.7-42.3-4.5-10.7-.9-21.3,3.5-28.2,11.8-4.4,5.2-7,11.5-7.6,18.3l-8.8,96.6-2-.2,8.8-96.6c.7-7.2,3.4-13.9,8.1-19.4,7.3-8.8,18.5-13.4,29.9-12.5,41.9,3.4,43.9,4.4,43.9,5.7l43,122.7-1.9.7h0Z"/>
        </g>
        <g>
          <g>
            <path class="st2" d="M176.8,70.6l34.3-8,9.9,42.6c1.4,6.2-2.4,12.4-8.6,13.8l-14.7,3.4c-4.7,1.1-9.3-1.8-10.4-6.5l-10.5-45.3h0Z"/>
            <path class="st1" d="M195.8,123.7c-4.4,0-8.4-3-9.4-7.5l-10.5-45.3c-.1-.5.2-1.1.8-1.2l34.3-8c.5-.1,1.1.2,1.2.8l9.9,42.6c.8,3.2.2,6.6-1.6,9.4-1.8,2.8-4.5,4.8-7.8,5.6l-14.7,3.4c-.7.2-1.5.2-2.2.2ZM178,71.4l10.3,44.3c1,4.1,5.1,6.7,9.2,5.8l14.7-3.4h0c2.7-.6,5.1-2.3,6.5-4.7,1.5-2.4,1.9-5.2,1.3-7.9l-9.7-41.6-32.4,7.5h0Z"/>
          </g>
          <path class="st1" d="M184.5,100.4l-6.3-22.7,20.7-5.7,8.7,5.9c-2.7,10.1-10.8,18.3-23.1,22.4Z"/>
          <path class="st1" d="M194.6,8.5h0c19.1,0,34.5,15.5,34.5,34.5v1.8c0,19.1-15.5,34.5-34.5,34.5h0c-19.1,0-34.5-15.5-34.5-34.5v-1.8c0-19.1,15.5-34.5,34.5-34.5Z"/>
          <path class="st1" d="M185.2,76.6h0c-15.9,0-28.8-12.9-28.8-28.8v-5.9c0-15.9,12.9-28.8,28.8-28.8h0c15.9,0,28.8,12.9,28.8,28.8v5.9c0,15.9-12.9,28.8-28.8,28.8Z"/>
          <g>
            <path class="st2" d="M159.7,48.8v-.2c0-16.1,13-29.1,29.1-29.1h1.6c10.9,0,20.4,6,25.4,14.8l1.9-.6c3.8-1.1,7.8,1,8.9,4.8,1.1,3.8-1,7.8-4.8,8.9l-2.2.7v11.5c0,16.1-13,29.1-29.1,29.1h-1.6c-14.9,0-27.2-11.2-28.9-25.7l-.2-14.4h0Z"/>
            <path class="st1" d="M190.4,89.9h-1.6c-15.3,0-28.1-11.4-29.9-26.6h0c0,0-.2-14.5-.2-14.5h0v-.2c0-16.6,13.5-30.1,30.1-30.1h1.6c10.6,0,20.4,5.6,25.8,14.7l1.1-.3c4.3-1.3,8.9,1.2,10.2,5.5,1.3,4.3-1.2,8.9-5.5,10.2l-1.5.4v10.8c0,16.6-13.5,30.1-30.1,30.1h0ZM160.9,63.2c1.7,14.1,13.7,24.7,27.9,24.7h1.6c15.5,0,28.1-12.6,28.1-28.1v-11.5c0-.4.3-.8.7-1l2.2-.7c3.3-1,5.2-4.4,4.2-7.7-1-3.3-4.4-5.2-7.7-4.2l-1.9.6c-.4.1-.9,0-1.2-.5-5-8.8-14.4-14.3-24.5-14.3h-1.6c-15.5,0-28.1,12.6-28.1,28.1v.2l.2,14.3Z"/>
          </g>
          <path class="st1" d="M218.9,44.3c-.5,0-.9-.3-1-.8-.8-4.7,3.1-7.1,3.2-7.2.5-.3,1.1-.1,1.4.3s.1,1.1-.3,1.4c-.1,0-2.8,1.8-2.3,5.2,0,.5-.3,1.1-.8,1.2,0,0-.1,0-.2,0h0Z"/>
          <path class="st1" d="M172.6,49.3c.4,1.1-1.7,3-4.8,4.2-3.1,1.2-6,1.2-6.4.1s1.7-3,4.8-4.2c3.1-1.2,6-1.2,6.4-.1Z"/>
          <path class="st1" d="M194.9,47.7c0,1.2-2.8,2-6.1,1.8s-5.9-1.4-5.8-2.6c0-1.2,2.8-2,6.1-1.8s5.9,1.4,5.8,2.6Z"/>
          <path class="st1" d="M181.5,68h0c-1.4-.1-2.6-.9-3.5-2-.8-1.1-1.1-2.5-.8-3.9l1.6-7.7c.1-.5.6-.9,1.2-.8s.9.6.8,1.2l-1.6,7.7c-.2.8,0,1.6.5,2.3.5.7,1.2,1.1,2.1,1.2.6,0,.9.6.9,1.1,0,.5-.5.9-1,.9h0Z"/>
          <path class="st1" d="M187.3,76.3c-.8,0-1.7-.2-2.6-.5-.5-.2-.8-.8-.6-1.3.2-.5.8-.8,1.3-.6,1.4.5,2.5.5,3.6,0,2.6-1.4,3.6-5.5,3.6-5.5.1-.5.7-.9,1.2-.8.5.1.9.7.8,1.2,0,.2-1.2,5-4.6,6.8-.8.4-1.7.7-2.7.7h0Z"/>
          <path class="st1" d="M196.3,20c5.9,2,11,4.6,14.8,7.3-.1,1.1-.4,2.1-.7,3.2-1.7,5-5.6,8.7-10.7,10.8-3.1-.5-6.4-1.3-9.7-2.4-13.6-4.6-23.1-12.5-21.4-17.7,1.8-5.2,14.2-5.7,27.7-1.2h0Z"/>
          <path class="st1" d="M189.6,56.4c0,2-.9,3.7-2.2,3.8s-2.4-1.5-2.5-3.6c0-2,.9-3.7,2.2-3.8s2.4,1.5,2.5,3.6Z"/>
          <path class="st1" d="M170.6,61c0,2-.9,3.7-2.2,3.8s-2.4-1.5-2.5-3.6.9-3.7,2.2-3.8,2.4,1.5,2.5,3.6Z"/>
          <path class="st1" d="M202.1,13.3c-.1,0-.3,0-.4,0-.5-.2-.7-.8-.5-1.3,2.2-4.9,8.8-4.6,9-4.6.6,0,1,.5.9,1.1s-.5,1-1.1.9c0,0-5.5-.2-7.1,3.4-.2.4-.5.6-.9.6h0Z"/>
          <path class="st1" d="M202.9,11.1c-.1,0-.2,0-.3,0-.5-.2-.8-.8-.6-1.3.6-1.9-.7-2.7-.7-2.7-.5-.3-.6-.9-.4-1.4.3-.5.9-.6,1.4-.4,1,.6,2.6,2.3,1.6,5.1-.1.4-.5.7-.9.7h0Z"/>
          <path class="st1" d="M187.4,41.1c0,0-.2,0-.2,0-8.5-1.9-15-6-19.2-12.3-.3-.5-.2-1.1.3-1.4s1.1-.2,1.4.3c3.9,5.8,9.9,9.7,18,11.4.5.1.9.7.8,1.2,0,.5-.5.8-1,.8h0Z"/>
          <path class="st1" d="M216.8,29.2l-.6,22.7c0,1.1-1.1,2-2.5,2.2h0c-1.6.2-3.2-.6-3.6-1.8l-10-27.1,16.7,4h0Z"/>
        </g>
        <g>
          <path class="st1" d="M129.4,179.9c2-9,3.1-21.2,3.1-37.9l-.4-3.6c-1.2-10.2-8.7-18.6-18.7-21.1l-53.1-13c-9-2.2-18.4.8-24.5,7.7L3.7,179.9h125.6Z"/>
          <g>
            <path class="st2" d="M80.8,108.8l13.1,20.7c3.5,5.5,11.8,4.4,13.7-1.8l14.8-48.6-29.2-9.3-12.4,39h0Z"/>
            <path class="st1" d="M100.2,134.1c-2.9,0-5.6-1.5-7.2-4l-13.1-20.7c-.2-.2-.2-.6-.1-.8l12.4-39c0-.2.3-.5.5-.6.2-.1.5-.2.8,0l29.2,9.3c.5.2.8.7.7,1.2l-14.8,48.6c-1,3.2-3.7,5.6-7.1,6-.4,0-.8,0-1.2,0h0ZM81.8,108.7l12.8,20.3c1.4,2.2,3.9,3.4,6.4,3s4.7-2.1,5.4-4.6l14.5-47.7-27.3-8.7-11.9,37.6h0Z"/>
          </g>
          <path class="st1" d="M87.6,92.9l7.3-23.1,27.5,8.7-7.8,24.7c-9.8.8-19.8-2.7-26.9-10.3Z"/>
          <path class="st1" d="M99.3,23.2l7.4.9c17.2,2.1,30.7,15,32.7,31.2l2.4,19.6c.9,7.3-4.6,14-12.3,14.9l-29.8,3.7-.3-70.3h0Z"/>
          <path class="st1" d="M113.1,23.9l-8.6-.6c-20-1.4-37.8,9.1-43.1,25.5l-6.5,19.8c-2.4,7.4,2.6,15.4,11.2,18.1l33.2,10,13.7-72.8h0Z"/>
          <path class="st1" d="M110.1,32.3c-.1,0-.2,0-.4,0-.5-.2-.8-.8-.6-1.3l6.9-18.1c.9-2.4.5-4.9-1.2-7.2-.3-.4-.2-1.1.2-1.4.4-.3,1.1-.2,1.4.2,2.1,2.8,2.6,6.1,1.4,9.1l-6.9,18.1c-.2.4-.5.7-.9.7h0Z"/>
          <path class="st1" d="M109.8,31.5l4.7-18.5c1.5-5.8-2.8-11.5-9.1-12.2l-6.9-.8c-6.9-.8-12.7,4.9-11.6,11.4l3.6,21.3,19.3-1.3h0Z"/>
          <g>
            <path class="st2" d="M62.1,55.5c1.4-4.8,6.5-7.5,11.3-6.1h.2c4-13.8,14.4-23.6,26.6-23.6s24.8,12.1,27.6,28.2c4.2.2,7.8,3.3,8.6,7.6h0c.8,4.9-2.5,9.6-7.5,10.4l-1.6.3c-3.5,15-14.3,25.9-27.1,25.9s-25.7-13-27.9-30.1l-4-1.2c-4.8-1.4-7.5-6.5-6.1-11.3h0Z"/>
            <path class="st1" d="M100.1,99.1c-14.2,0-26.2-12.7-28.8-30.4l-3.4-1c-2.6-.8-4.7-2.5-6-4.9s-1.6-5.1-.8-7.7c.8-2.6,2.5-4.7,4.9-6,2.1-1.2,4.5-1.5,6.9-1,4.4-14.1,15.2-23.5,27.2-23.5s25.2,11.6,28.4,28.3c4.4.6,8,3.9,8.7,8.3.9,5.5-2.8,10.7-8.3,11.6l-.9.2c-3.8,15.3-15.2,26-27.9,26h0ZM70.8,50c-1.3,0-2.6.3-3.8,1-1.9,1-3.3,2.7-3.9,4.8h0c-.6,2.1-.4,4.2.6,6.2s2.7,3.3,4.8,3.9l4,1.2c.4.1.7.4.7.8,2.2,17,13.5,29.3,26.9,29.3s22.7-10.3,26.2-25.1c0-.4.4-.7.8-.8l1.6-.3c4.4-.7,7.4-4.9,6.6-9.3-.6-3.7-3.8-6.6-7.6-6.7-.5,0-.9-.4-.9-.8-2.8-15.9-14-27.4-26.6-27.4s-21.6,9.2-25.6,22.9c0,.3-.2.5-.5.6s-.5.2-.8,0h-.2c-.8-.3-1.5-.4-2.3-.4h0ZM62.1,55.5h0Z"/>
          </g>
          <path class="st1" d="M87.7,27.8c3.9-2.6,8.2-4,12.8-4,13.9,0,25.5,13.1,28.4,30.6.9,0,1.8.2,2.7.5-16.3.8-33-9.7-43.9-27.2h0Z"/>
          <path class="st1" d="M120.7,58.5h0c-13.2-1.3-25.6-11.8-32.3-27.3-.2-.5,0-1.1.5-1.3.5-.2,1.1,0,1.3.5,6.4,14.9,18.2,24.9,30.7,26.1.6,0,.9.5.9,1.1,0,.5-.5.9-1,.9h0Z"/>
          <path class="st1" d="M93.3,45.1c-.3,0-.6-.2-.8-.4-3.2-4.6-5.1-10.1-5.7-16.3,0-.6.4-1,.9-1.1.5,0,1,.4,1.1.9.5,5.9,2.3,11,5.3,15.4.3.4.2,1.1-.2,1.4-.2.1-.4.2-.6.2h0Z"/>
          <path class="st1" d="M72.6,61.8c0,0-.1,0-.2,0-.5,0-.9-.6-.8-1.2.5-3-1.9-4.5-2-4.6-.5-.3-.6-.9-.3-1.4s.9-.6,1.4-.3c.2,0,3.7,2.3,3,6.6,0,.5-.5.8-1,.8h0Z"/>
          <path class="st1" d="M128.7,65.9c-.5,0-.9-.4-1-.9,0-.2-.5-4.3,3.3-6.4.5-.3,1.1,0,1.4.4s0,1.1-.4,1.4c-2.7,1.5-2.3,4.3-2.3,4.4,0,.6-.3,1.1-.9,1.1h-.1Z"/>
          <path class="st1" d="M110,61.8c-.1,1.8-1.2,3.3-2.3,3.2-1.2,0-2-1.6-1.9-3.5.1-1.8,1.2-3.3,2.3-3.2,1.2,0,2,1.6,1.9,3.5Z"/>
          <path class="st1" d="M91.2,61.6c0,1.8-.9,3.3-2.1,3.3s-2.1-1.5-2.1-3.3.9-3.3,2.1-3.3,2.1,1.5,2.1,3.3Z"/>
          <path class="st1" d="M100.6,87c-.5,0-.9-.3-1-.8-.1-.5.2-1.1.8-1.2,5.3-1.1,7.8-5,7.8-5,.3-.5.9-.6,1.4-.3.5.3.6.9.3,1.4-.1.2-3,4.6-9.1,5.9,0,0-.1,0-.2,0h0Z"/>
          <path class="st1" d="M97.3,76.2c0,0-.2,0-.2,0-1.2-.3-2.3-1.1-3-2.2s-.8-2.5-.3-3.7l2.3-6.8c.2-.5.8-.8,1.3-.6.5.2.8.8.6,1.3l-2.3,6.8c-.2.7-.2,1.4.2,2.1.4.6.9,1.1,1.7,1.2.5.1.9.7.8,1.2-.1.5-.5.8-1,.8h0Z"/>
          <path class="st0" d="M112.9,25.6c-.1,0-.2,0-.3,0-13.9-4.9-23.6-.7-23.7-.7-.5.2-1.1,0-1.3-.5-.2-.5,0-1.1.5-1.3.4-.2,10.5-4.6,25.2.6.5.2.8.8.6,1.3-.2.4-.5.7-.9.7h0Z"/>
        </g>
        <path class="st2" d="M47.5,180.7c-.1,0-.3,0-.4,0-.5-.2-.7-.8-.5-1.3l7.5-17.4c.2-.5.8-.7,1.3-.5.5.2.7.8.5,1.3l-7.5,17.4c-.2.4-.5.6-.9.6h0Z"/>
        <g>
          <g>
            <path class="st2" d="M149.6,219.6c8.9-29.1,18.1-58.2,27.8-87.3-2.3-1.7-4.7-3.4-7.1-5.2-18.6.6-36.9,1.2-55,1.8-7.5.2-14.9,2-21.3,5.2h0c9.1,28.7,15.9,57.3,20.4,85.8,11.7-.1,23.4-.2,35.3-.3h0Z"/>
            <path class="st1" d="M114.3,220.9c-.5,0-.9-.4-1-.8-4.4-28.3-11.3-57.1-20.4-85.6-.2-.5,0-1,.5-1.2,6.5-3.2,14-5.1,21.7-5.3,18.1-.6,36.5-1.2,55-1.8.2,0,.4,0,.6.2,2.4,1.7,4.8,3.4,7.1,5.2.3.3.5.7.4,1.1-9.6,28.9-18.9,58.3-27.7,87.3-.1.4-.5.7-.9.7-11.8,0-23.6.2-35.3.3h0ZM149.6,219.6h0ZM95.1,134.7c8.9,28.1,15.6,56.4,20.1,84.2,11.1,0,22.4-.2,33.7-.3,8.7-28.5,17.9-57.4,27.3-85.9-2.1-1.5-4.1-3-6.2-4.5-18.5.6-36.7,1.2-54.7,1.7-7.1.2-14,1.9-20.1,4.8h0Z"/>
          </g>
          <path class="st0" d="M182.7,131.1c-8.9,31.3-17.9,62.5-26.8,93.8-24,2.9-47.1,5.9-69.2,9,2-33.3,4-66.5,6-99.8-.7,0,91.6-4.4,90-2.9h0Z"/>
          <g>
            <path class="st2" d="M26.6,212.1c-5.3-30-10.9-60-16.9-90,2.5-1.4,5.1-2.8,7.7-4.3,18.4,2.8,36.5,5.6,54.4,8.4,7.4,1.2,14.5,3.8,20.5,7.8h0c-12.6,27.4-22.8,55-30.7,82.7-11.6-1.5-23.2-3.1-35-4.6h0Z"/>
            <path class="st1" d="M61.6,217.7h-.1c-11.6-1.5-23.2-3.1-35-4.6-.4,0-.8-.4-.8-.8-5.3-29.8-10.9-60.1-16.9-90,0-.4.1-.9.5-1.1,2.5-1.4,5.1-2.8,7.7-4.3.2-.1.4-.1.6-.1,18.4,2.8,36.5,5.6,54.4,8.4,7.6,1.2,14.8,3.9,20.9,7.9.4.3.6.8.4,1.2-12.5,27.2-22.8,55-30.6,82.5-.1.4-.5.7-1,.7h0ZM27.5,211.2c11.2,1.5,22.3,2.9,33.4,4.4,7.8-27.1,17.9-54.4,30.2-81.2-5.6-3.6-12.3-6.1-19.3-7.2-17.8-2.8-35.8-5.6-54.1-8.4-2.3,1.2-4.5,2.5-6.8,3.7,5.9,29.4,11.5,59.2,16.7,88.6h0Z"/>
          </g>
          <path class="st0" d="M4.5,120.2c5.1,32.1,10.2,64.2,15.2,96.3,23.5,5.8,46,11.6,67.6,17.3,2.1-33.3,4.1-66.5,6.2-99.8.7,0-90.4-15.5-89-13.9h0Z"/>
          <path class="st1" d="M80.9,231.8h0c-.6,0-1-.5-1-1l3.8-95.8c0-.6.5-1,1-1s1,.5,1,1l-3.8,95.8c0,.5-.5,1-1,1Z"/>
          <path class="st1" d="M92.6,232.5h0c-.6,0-1-.5-.9-1.1l7.6-95.6c0-.6.5-1,1.1-.9.6,0,1,.5.9,1.1l-7.6,95.6c0,.5-.5.9-1,.9Z"/>
        </g>
        <g>
          <g>
            <path class="st2" d="M9.6,156.8l.9,7.1-5.3-3.9c-2.1-1.5-3.5-3.7-4.1-6.2h0c-.5-2.2.2-3.5,2.7-5.5l13.3-9.9,1.1,3.3c.8,2.3.2,4.9-1.4,6.8l-7.2,8.4h0Z"/>
            <path class="st1" d="M10.5,164.9c-.2,0-.4,0-.6-.2l-5.3-3.9c-2.2-1.7-3.8-4.1-4.4-6.8-.7-2.9.6-4.5,3-6.5l13.3-9.9c.3-.2.6-.2.9-.2s.6.3.7.6l1.1,3.3c.9,2.7.3,5.6-1.6,7.8l-7,8.1.9,6.7c0,.4-.1.8-.5,1-.2,0-.3.1-.5.1h0ZM16.6,140l-12.2,9.1c-2.4,1.9-2.7,2.8-2.3,4.5.5,2.3,1.8,4.3,3.7,5.7l3.4,2.5-.6-4.8c0-.3,0-.6.2-.8l7.2-8.4c1.4-1.6,1.8-3.8,1.2-5.8l-.6-2h0Z"/>
          </g>
          <g>
            <path class="st2" d="M12.4,166.4l1.1,8.4-6.3-4.7c-2.4-1.8-4.2-4.4-4.8-7.4h0c-.6-2.7.7-5.3,3.2-6.5l20.7-10.4,1,5.5c.5,2.9-.7,5.8-3.1,7.4l-11.9,7.7h0Z"/>
            <path class="st1" d="M13.5,175.8c-.2,0-.4,0-.6-.2l-6.3-4.7c-2.6-2-4.5-4.8-5.2-8-.7-3.1.8-6.3,3.7-7.7l20.7-10.4c.3-.1.6-.1.9,0s.5.4.5.7l1,5.5c.6,3.2-.8,6.5-3.5,8.4l-11.3,7.4,1.1,7.8c0,.4-.1.8-.5,1-.2,0-.3.1-.5.1h0ZM25.5,147.3l-19.6,9.8c-2,1-3.1,3.2-2.6,5.4.6,2.7,2.2,5.2,4.4,6.8l4.4,3.3-.8-6.1c0-.4.1-.8.4-1l11.9-7.7c2-1.4,3.1-3.9,2.6-6.4l-.8-4.2h0Z"/>
          </g>
          <g>
            <path class="st2" d="M13.9,177.5l1.1,8.4-6.3-4.7c-2.4-1.8-4.2-4.4-4.8-7.4h0c-.6-2.7.7-5.3,3.2-6.5l19-9.4,1,5.5c.5,2.9-.7,5.8-3.1,7.4l-10.1,6.7h0Z"/>
            <path class="st1" d="M15,187c-.2,0-.4,0-.6-.2l-6.3-4.7c-2.6-2-4.5-4.8-5.2-8-.7-3.1.8-6.3,3.7-7.7l19-9.4c.3-.1.6-.1.9,0s.5.4.5.7l1,5.5c.6,3.2-.8,6.5-3.5,8.4l-9.6,6.4,1.1,7.8c0,.4-.1.8-.5,1-.2,0-.3.1-.5.1h0ZM25.3,159.3l-17.8,8.9c-2,1-3.1,3.2-2.6,5.4.6,2.7,2.2,5.2,4.4,6.8l4.4,3.3-.8-6.1c0-.4.1-.8.4-1l10.1-6.7c2.1-1.4,3.1-3.9,2.6-6.4l-.8-4.2h0Z"/>
          </g>
          <g>
            <path class="st2" d="M15.3,188.1l1.1,8.4-6.3-4.7c-2.4-1.8-4.2-4.4-4.8-7.4h0c-.6-2.7.7-5.3,3.2-6.5l16.5-8,1,5.5c.5,2.9-.7,5.8-3.1,7.4l-7.6,5.3h0Z"/>
            <path class="st1" d="M16.4,197.5c-.2,0-.4,0-.6-.2l-6.3-4.7c-2.6-2-4.5-4.8-5.2-8-.7-3.1.8-6.3,3.7-7.7l16.5-8c.3-.1.6-.1.9,0,.3.1.5.4.5.7l1,5.5c.6,3.2-.8,6.5-3.5,8.4l-7.1,4.9,1.1,7.8c0,.4-.1.8-.5,1-.2,0-.3.1-.5.1h0ZM24.2,171.3l-15.3,7.4c-2,1-3.1,3.2-2.6,5.4.6,2.7,2.2,5.2,4.4,6.8l4.4,3.3-.8-6.1c0-.4.1-.7.4-1l7.6-5.3c2.1-1.4,3.1-3.9,2.6-6.4l-.8-4.2h0Z"/>
          </g>
        </g>
        <path class="st1" d="M81.9,54.3c-.2,0-.4,0-.6-.2-.4-.3-.5-1-.2-1.4.2-.2,4.1-5.1,10.5-4.4.6,0,.9.6.9,1.1,0,.6-.6.9-1.1.9-5.3-.6-8.6,3.4-8.8,3.6-.2.2-.5.4-.8.4h0Z"/>
        <g>
          <g>
            <path class="st2" d="M194.1,184.8l-64.7-12.1-14.6,5c-1.8.6-2.2,3.1-.6,4.2h0c.8.5,1.7.7,2.6.6l11.2-2.2,6.3,1.5-22.5,8.4c-1.2.4-1.7,1.8-1.1,2.9h0c.5,1,1.5,1.7,2.7,1.8h0l-1.5.8c-1.2.6-1.6,2.1-.9,3.3,0,0,1.2,1.7,3.6,1.7,3.2,0,12-3.5,12-3.5l9.7,3.1-9.4,5.7-4.9,5.2c-.8.9-.5,2.3.6,2.7h0c3.3,1.1,4.6-.1,7.6-1.9l1-.6,14.9-6.1s17.8,8.6,24.2,8.1c4.7-.4,8.6-4.6,8.6-4.6l13.1,4.7,2-28.5h0Z"/>
            <path class="st1" d="M125,215.2c-.8,0-1.6-.2-2.6-.5-.9-.3-1.5-1-1.7-1.9-.2-.9,0-1.8.7-2.4l5.1-5.4,7.5-4.5-7.2-2.3c-1.7.6-9,3.4-12.1,3.5-2.9,0-4.4-2-4.4-2.1-.5-.8-.7-1.8-.4-2.7.2-.8.7-1.4,1.3-1.8-.5-.4-.9-.8-1.2-1.4-.4-.8-.5-1.7-.2-2.6.3-.8,1-1.5,1.8-1.8l19.4-7.3-2.9-.7-11,2.2c-1.2.2-2.4,0-3.4-.7-1-.7-1.6-2-1.4-3.3.2-1.3,1.1-2.3,2.3-2.7l14.8-5.1h.3c0,0,65.6,12.3,65.6,12.3l-2.2,30.7-13.7-4.9c-1.2,1.2-4.7,4.1-8.8,4.4-6.1.5-21.5-6.7-24.3-8l-14.4,5.9-1,.6c-.4.2-.7.4-1,.6-1.7,1-3,1.8-4.8,1.8h0ZM127.6,206.6l-4.8,5.1c-.2.2-.2.5-.2.6s.1.4.4.5c2.4.8,3.5.2,5.7-1.2.3-.2.7-.4,1.1-.6l1.2-.7,15.3-6.3.4.2c.2,0,17.6,8.4,23.7,8,4.3-.3,7.9-4.2,7.9-4.3l.4-.5,12.4,4.5,1.9-26.3-63.6-11.9-14.3,4.9c-.5.2-.9.6-.9,1.1s.1,1,.6,1.3c.5.4,1.2.5,1.8.4l11.4-2.3,9.7,2.3-25.5,9.6c-.3.1-.5.3-.6.6-.1.3,0,.6,0,.9.4.7,1.1,1.2,1.9,1.2l3.5.3-4.7,2.4c-.3.2-.6.4-.7.8,0,.3,0,.7.2,1,0,0,1,1.2,2.7,1.2,2.5,0,9.3-2.5,11.7-3.5h.3c0-.1,12.1,3.7,12.1,3.7l-11.1,6.7h0Z"/>
          </g>
          <g>
            <polygon class="st2" points="137 189.2 126 190.1 113.5 194.9 137 189.2"/>
            <polygon class="st1" points="113.8 195.9 113.1 194 125.9 189.1 137 188.2 137.1 190.2 126.3 191.1 113.8 195.9"/>
          </g>
        </g>
        <g>
          <path class="st2" d="M194.1,185l-2.1,28.3,65.3,20.1c19.3,5.9,39.7-5,45.4-24.3h0c3.1-10.6,1.2-22-5.1-31l-46.9-66.8c-5.6-7.9-14.6-12.6-24.3-12.6h0c-12,0-22.8,7.2-27.4,18.3l-3.5,8.4-1.3,59.8h0Z"/>
          <path class="st1" d="M268,236c-3.7,0-7.4-.6-11-1.7l-66-20.3,2.1-29.1,2,.2-2,27.5,64.5,19.9c9.1,2.8,18.7,1.9,27-2.6,8.3-4.5,14.4-12,17.1-21.1,3.1-10.3,1.2-21.3-4.9-30.2l-46.9-66.8c-5.4-7.7-14.2-12.2-23.5-12.2s-22,6.9-26.5,17.7l-3.5,8.4-1.8-.8,3.5-8.4c4.8-11.5,15.9-18.9,28.3-18.9s19.4,4.9,25.1,13.1l46.9,66.8c6.6,9.3,8.5,21,5.2,31.9-2.8,9.6-9.2,17.5-18.1,22.2-5.5,2.9-11.5,4.4-17.5,4.4h0Z"/>
        </g>
        <g>
          <path class="st2" d="M260.4,193.6l-66.3-8.8,66.3,8.8Z"/>
          <rect class="st1" x="226.3" y="155.8" width="2" height="66.9" transform="translate(9.6 389.5) rotate(-82.4)"/>
        </g>
        <g>
          <path class="st2" d="M246.9,192.1l-27.9-38.1,27.9,38.1Z"/>
          <path class="st1" d="M246.9,193.1c-.3,0-.6-.1-.8-.4l-27.9-38.1c-.3-.4-.2-1.1.2-1.4.4-.3,1.1-.2,1.4.2l27.9,38.1c.3.4.2,1.1-.2,1.4-.2.1-.4.2-.6.2h0Z"/>
        </g>
      </g>
    </g>
  </g>
</svg>