<?xml version="1.0" encoding="UTF-8"?>
<svg id="Layer_1" xmlns="http://www.w3.org/2000/svg" version="1.1" viewBox="0 0 267.2 218.7">
  <!-- Generator: Adobe Illustrator 29.1.0, SVG Export Plug-In . SVG Version: 2.1.0 Build 142)  -->
  <defs>
    <style>
      .st0 {
        fill: #fff;
      }

      .st1 {
        fill: #303030;
      }

      .st2 {
        fill: #26a8df;
      }
    </style>
  </defs>
  <g id="Layer_2">
    <g id="_Layer_">
      <g>
        <path class="st2" d="M163.3,90.1h-2.7c0,0,1.4-67,1.4-67,.1-10,4.7-14.5,10.3-14.3l14.7.3c5.6.1,10,4.7,9.9,10.3l-.8,39.2c-.4,17.8-15.1,31.9-32.9,31.5h0Z"/>
        <g>
          <rect class="st1" x="246.9" y="16.5" width="2" height="35.3"/>
          <path class="st1" d="M43.6,16.5h213.9c5.4,0,9.7,5.3,9.7,11.9v11.9c0,6.6-4.3,11.9-9.7,11.9H43.6V16.5h0Z"/>
          <path class="st2" d="M249.2,16.5v35.6h8.4c5.4,0,9.7-5.3,9.7-11.9v-11.9c0-6.6-4.3-11.9-9.7-11.9h-8.4Z"/>
          <g>
            <polygon class="st0" points="2.7 34.3 42.7 18 42.7 50.6 2.7 34.3"/>
            <path class="st1" d="M41.7,19.5v29.6L5.3,34.3l36.4-14.8h0ZM43.7,16.5L0,34.3l43.7,17.8V16.5h0Z"/>
          </g>
          <polygon class="st1" points="21.4 43 21.4 25.6 0 34.3 21.4 43"/>
        </g>
        <path class="st2" d="M206.2,218.7c-5.6-71.9-23.8-148.9-23.8-148.9l-78.5,11.7.6,137.2h101.7Z"/>
        <path class="st2" d="M118,93.6h0c-19.3-.4-34.6-16.4-34.2-35.7l1-47.8c.1-5.6,4.7-10,10.3-9.9l14.7.3c5.6.1,10,4.7,9.9,10.3l-1.8,82.8h0Z"/>
        <path class="st2" d="M123.3,0l14.7.3c5.6.1,10,4.7,9.9,10.3l-1.6,75.8c0,3.8-3.2,6.9-7.1,6.8l-21.1-.4c-3.8,0-6.9-3.2-6.8-7.1l1.6-75.8C113.1,4.3,117.7-.1,123.3,0h0Z"/>
        <path class="st2" d="M152.4,1.6l14.7.3c5.6.1,10,4.7,9.9,10.3l-1.6,75.8c0,3.8-3.2,6.9-7.1,6.8l-21.1-.4c-3.8,0-6.9-3.2-6.8-7.1l1.6-75.8c.1-5.6,4.7-10,10.3-9.9h0Z"/>
        <path class="st1" d="M140.7,77.9h-.1c-.5,0-.9-.6-.9-1.1.1-1.1,2.9-25.9-21.4-31.5-.5-.1-.9-.7-.8-1.2.1-.5.7-.9,1.2-.8,26,6,22.9,33.4,22.9,33.7,0,.5-.5.9-1,.9h0Z"/>
        <path class="st1" d="M131.3,50.7c-.3,0-.7-.2-.9-.5-.3-.5-.1-1.1.3-1.4l8.7-5.2c3.2-1.9,5.7-5,6.9-8.6.6-1.8.3-3.7-.8-5.2s-2.8-2.4-4.7-2.4h-48.4l-7.7,20.2c-.2.5-.8.8-1.3.6-.5-.2-.8-.8-.6-1.3l7.9-20.8c.1-.4.5-.6.9-.6h49c2.5,0,4.9,1.2,6.4,3.2,1.5,2.1,1.9,4.6,1.1,7.1-1.3,4-4.1,7.4-7.7,9.6l-8.7,5.2c-.2,0-.3.1-.5.1h0Z"/>
        <path class="st1" d="M115.6,25.9c-.5,0-1-.4-1-1V6.5c0-.5.5-1,1-1s1,.5,1,1v18.3c0,.6-.5,1-1,1Z"/>
        <path class="st1" d="M144.8,28.3c-.5,0-1-.4-1-1V7c0-.5.5-1,1-1s1,.5,1,1v20.3c0,.6-.5,1-1,1Z"/>
        <path class="st1" d="M136.6,57.6c-.5,0-1-.4-1-1s.5-1,1-1c3.5,0,6.8-1.9,8.4-5.1.3-.5.9-.7,1.4-.4s.7.9.4,1.3c-2,3.8-5.9,6.2-10.2,6.2h0Z"/>
        <path class="st2" d="M174.9,12.1l14,.3-.6,30c-.1,5.6-4.7,10-10.3,9.9h-3.9c-5.6-.2-10-4.8-9.9-10.4l.4-19.9c.1-5.6,4.7-10,10.3-9.9h0Z"/>
        <path class="st1" d="M179.5,53c-6.3,0-11.4-5.1-11.4-11.4v-20.2c0-4.4,1.2-8.7,3.6-12.5.3-.5.9-.6,1.4-.3.5.3.6.9.3,1.4-2.2,3.4-3.3,7.3-3.3,11.4v20.2c0,5.2,4.2,9.4,9.4,9.4s9.4-4.2,9.4-9.4v-13.3c0-.6.5-1,1-1s1,.4,1,1v13.3c0,6.3-5.1,11.4-11.4,11.4h0Z"/>
        <path class="st1" d="M157,57.7c-7.2,0-13.1-6.1-13.1-13.5v-4c0-.6.5-1,1-1s1,.4,1,1v4c0,6.3,5,11.5,11.1,11.5s11.1-5.2,11.1-11.5v-1.5c0-.6.5-1,1-1s1,.4,1,1v1.5c0,7.4-5.9,13.5-13.1,13.5Z"/>
      </g>
    </g>
  </g>
</svg>