<?xml version="1.0" encoding="UTF-8"?>
<svg id="Layer_1" xmlns="http://www.w3.org/2000/svg" version="1.1" viewBox="0 0 239.2 237.3">
  <!-- Generator: Adobe Illustrator 29.2.0, SVG Export Plug-In . SVG Version: 2.1.0 Build 108)  -->
  <defs>
    <style>
      .st0 {
        fill: #303030;
      }

      .st1 {
        fill: #26a8df;
      }

      .st2 {
        fill: #fafafa;
      }
    </style>
  </defs>
  <g id="Layer_2">
    <g id="_Layer_">
      <g>
        <g>
          <g>
            <path class="st2" d="M88.5,235.2c-.6,0-1-.4-1-1l-.4-151c-10.7-5.3-17.5-16.3-17.2-28.3l.9-40.7c.1-5.2,4.4-9.4,9.6-9.4l12.7.3c1.9,0,3.7.6,5.2,1.7,1.7-1.4,3.8-2.1,6-2.1l12.7.3c2.5,0,4.8,1.1,6.6,2.8,1.6-1.1,3.5-1.7,5.4-1.7l12.7.3c3.8,0,7.2,2.4,8.6,5.9l8.3.2c5.3.1,9.5,4.5,9.4,9.8l-.7,33.3c-.2,7.8-3.5,15.1-9.2,20.4,6.8,34.8,15,123.1,17.8,158.2,0,.3,0,.6-.3.8-.2.2-.5.3-.7.3h-86.5Z"/>
            <path class="st0" d="M104.2,5.8h.2l12.5.3c2.6,0,4.9,1.3,6.5,3.2,1.5-1.3,3.4-2.1,5.6-2.1h.2l12.5.3c3.7,0,6.8,2.5,8,5.8l8.9.2c4.8,0,8.5,4,8.4,8.8l-.7,33.3c-.2,8-3.7,15.1-9.3,20,6.8,34.5,15.2,124.1,17.9,158.6h-86.5l-.4-151.6c-10.4-4.8-17.5-15.4-17.2-27.6l.9-40.7c0-4.7,3.9-8.4,8.6-8.4h.2l12.5.3c2,0,3.9.8,5.3,2,1.6-1.5,3.7-2.4,5.9-2.4h0ZM104.2,3.8h0c-2.2,0-4.3.7-6,1.9-1.6-.9-3.3-1.4-5.2-1.5l-12.5-.3h-.2c-5.7,0-10.5,4.7-10.6,10.4l-.9,40.7c-.3,12.2,6.5,23.4,17.2,28.9l.4,150.3c0,1.1.9,2,2,2h86.5c.6,0,1.1-.2,1.5-.6s.6-1,.5-1.5c-2.8-35-11-122.5-17.7-157.8,5.7-5.4,9-12.9,9.1-20.7l.7-33.3c.1-5.8-4.5-10.7-10.4-10.8l-7.6-.2c-1.7-3.5-5.3-5.8-9.3-5.9l-12.5-.3h-.2c-1.9,0-3.7.5-5.3,1.4-1.8-1.6-4.2-2.5-6.7-2.6l-12.5-.3h-.2Z"/>
          </g>
          <path class="st2" d="M138.4,82.4h-2.3c0,0,1.2-57,1.2-57,0-8.5,4-12.3,8.8-12.2l12.5.3c4.8,0,8.5,4,8.4,8.8l-.7,33.3c-.3,15.1-12.8,27.1-27.9,26.8h0Z"/>
          <g>
            <path class="st1" d="M182.1,30.4c0-5.9-4.8-10.6-10.6-10.6h-21.4s-82.9,0-82.9,0C60.8,8.1,48.4,0,34,0,18.9,0,6,9,0,21.9h32s9.1,15.7,9.1,15.7l-9.1,15.8H0c6,12.9,19,21.8,34.1,21.8,14.3,0,26.8-8.1,33.1-19.8h27.4s77,0,77,0c5.9,0,10.6-4.8,10.6-10.6v-14.2h0Z"/>
            <path class="st1" d="M57.1,44.7c0,5.9,4.8,10.6,10.6,10.6h21.4s82.9,0,82.9,0c6.3,11.8,18.8,19.8,33.1,19.8,15.1,0,28.1-8.9,34-21.8h-32s-9.1-15.7-9.1-15.7l9.1-15.8h32C233.2,8.9,220.2,0,205.1,0,190.8,0,178.4,8.1,172,19.8h-27.4s-77,0-77,0c-5.9,0-10.6,4.8-10.6,10.6v14.2h0Z"/>
          </g>
          <path class="st2" d="M175,234.2c-4.8-61.2-27.4-204.3-27.4-204.3l-59.6,45.2.5,159.1h86.5Z"/>
          <path class="st2" d="M79.5,5.9l14.6.3c4.1,0,7.4,3.5,7.3,7.7l-1.5,68.8h-3.6c-14.3-.4-25.7-12.2-25.4-26.6l.9-42.8c0-4.1,3.5-7.4,7.7-7.3h0Z"/>
          <path class="st2" d="M103.3,5.7l14.7.3c4.1,0,7.4,3.5,7.3,7.7l-1.4,66.4c0,2.8-2.4,5.1-5.2,5l-19.5-.4c-2.8,0-5.1-2.4-5-5.2l1.4-66.4c0-4.1,3.5-7.4,7.7-7.3h0Z"/>
          <path class="st2" d="M134,55.4h0c-8.3-.2-14.9-7.1-14.5-15.4l.9-24.3c0-4.8,4-8.5,8.8-8.4l12.5.3c4.8,0,8.5,4,8.4,8.8l-.9,24.8c-.3,8.1-7.1,14.5-15.2,14.3h0Z"/>
          <path class="st0" d="M119.2,72.1h-.1c-.6,0-.9-.6-.9-1.1.1-.9,2.4-21.9-18.1-26.6-.5-.1-.9-.7-.8-1.2.1-.5.7-.9,1.2-.8,22.2,5.2,19.6,28.6,19.6,28.8,0,.5-.5.9-1,.9h0Z"/>
          <path class="st0" d="M111.2,48.9c-.3,0-.7-.2-.9-.5-.3-.5-.1-1.1.3-1.4l7.4-4.4c2.7-1.6,4.8-4.2,5.8-7.2.5-1.5.2-3.1-.7-4.3-.9-1.3-2.3-2-3.9-2h-41l-6.5,17.1c-.2.5-.8.8-1.3.6-.5-.2-.8-.8-.6-1.3l6.8-17.7c.2-.4.5-.6.9-.6h41.7c2.2,0,4.2,1,5.5,2.8,1.3,1.8,1.6,4,.9,6.1-1.2,3.5-3.5,6.4-6.6,8.3l-7.4,4.4c-.2,0-.3.1-.5.1h0Z"/>
          <path class="st0" d="M97.9,27.4c-.6,0-1-.4-1-1V7c0-.6.4-1,1-1s1,.4,1,1v19.4c0,.6-.4,1-1,1Z"/>
          <path class="st0" d="M122.8,30c-.6,0-1-.4-1-1V7.5c0-.6.4-1,1-1s1,.4,1,1v21.5c0,.6-.4,1-1,1Z"/>
          <path class="st0" d="M115.7,54.9c-.6,0-1-.4-1-1s.4-1,1-1c2.9,0,5.6-1.6,7-4.2.3-.5.9-.7,1.3-.4s.7.9.4,1.3c-1.7,3.3-5.1,5.3-8.8,5.3h0Z"/>
          <path class="st2" d="M147.7,16l12.5.3-.6,30.6c0,4.4-3.7,7.9-8.2,7.8h-4.6c-4.4-.2-7.9-3.8-7.8-8.3l.5-22.6c0-4.4,3.7-7.9,8.2-7.8h0Z"/>
          <path class="st0" d="M152.3,55.7c-5.4,0-9.9-4.9-9.9-11v-19.4c0-2.6.4-5.2,1.2-7.7.9-2.7,2.9-4.9,5.5-6.1.5-.2,1.1,0,1.3.5s0,1.1-.5,1.3c-2.1,1-3.8,2.8-4.5,4.9-.7,2.3-1.1,4.7-1.1,7.1v19.4c0,5,3.5,9,7.9,9s7.9-4,7.9-9v-12.8c0-.6.4-1,1-1s1,.4,1,1v12.8c0,6.1-4.4,11-9.9,11h0Z"/>
          <path class="st0" d="M133.1,55c-6.2,0-11.3-5.2-11.3-11.6v-3.4c0-.6.4-1,1-1s1,.4,1,1v3.4c0,5.3,4.2,9.6,9.3,9.6s9.3-4.3,9.3-9.6v-1.3c0-.6.4-1,1-1s1,.4,1,1v1.3c0,6.4-5.1,11.6-11.3,11.6Z"/>
        </g>
        <g>
          <path class="st0" d="M78.1,179.1s11.2-17.7,14.6-26c3.4-8.2-1.1-16.2-8.9-26.4-7.9-10.2-7.1-8.3-3.4-8.6,3.7-.3-3.7-8.1-17.2-10.9-13.6-2.8-37.9-3-37.9,23,0,26,38.7,66.7,52.8,48.8h0Z"/>
          <circle class="st0" cx="50.6" cy="134.5" r="24.3"/>
          <circle class="st0" cx="76.3" cy="165.5" r="33.7"/>
          <g>
            <path class="st2" d="M90.2,236.3s-.8-36.8.2-40.9l.2-.7c1.7,1.6,3.8,2.8,6.2,3.3,6.7,1.4,13.3-2.9,14.7-9.7,1.4-6.7-2.9-13.3-9.7-14.7-2.1-.4-4.2-.3-6.2.3,3.6-18.7-5.9-37.7-23.4-45.9-21.5-10.1-47.1-.5-56.5,21.3l-5.2,11.9c-8.3,19.1,3.2,40.9,23.6,44.9l3.7.7v29.3h52.3Z"/>
            <path class="st0" d="M37.9,237.3c-.6,0-1-.4-1-1v-28.5l-2.9-.6c-10-2-18.5-8.3-23.3-17.3-4.8-9.1-5.2-19.6-1.1-29l5.2-11.9c4.7-10.8,13.3-19,24.3-23.2s22.9-3.7,33.6,1.3c17.3,8.1,27.1,26.7,24.2,45.4,1.7-.3,3.4-.3,5.1,0,3.5.7,6.5,2.8,8.5,5.8,2,3,2.7,6.6,1.9,10.1-1.5,7.2-8.6,11.9-15.8,10.4-1.9-.4-3.8-1.2-5.3-2.4-.6,5.7-.3,30.2,0,39.7,0,.6-.4,1-1,1-.5,0-1-.4-1-1,0-1.5-.8-37,.3-41.2l.2-.7c0-.3.3-.6.7-.7s.7,0,1,.2c1.6,1.6,3.6,2.6,5.7,3.1,6.2,1.3,12.2-2.7,13.5-8.9.6-3,0-6-1.7-8.6-1.7-2.6-4.2-4.3-7.2-4.9-1.9-.4-3.8-.3-5.7.3-.3,0-.7,0-1-.2s-.4-.6-.3-.9c3.5-18.4-5.9-36.8-22.8-44.8-10.1-4.8-21.5-5.2-32-1.3s-18.7,11.8-23.2,22.1l-5.2,11.9c-3.8,8.8-3.4,18.8,1,27.3s12.4,14.4,21.9,16.3l3.7.7c.5,0,.8.5.8,1v29.3c0,.6-.4,1-1,1h0Z"/>
          </g>
          <path class="st0" d="M93.5,188.9c0,0-.1,0-.2,0-.5-.1-.9-.6-.8-1.2.6-2.7,2.1-4.9,4.4-6.4s5-2,7.7-1.5c.5.1.9.6.8,1.2s-.6.9-1.2.8c-2.1-.4-4.3,0-6.1,1.2-1.8,1.2-3.1,3-3.5,5.2,0,.5-.5.8-1,.8h0Z"/>
          <path class="st0" d="M31.5,161c-.2,0-.4,0-.6-.2-.4-.3-.5-1-.2-1.4l6.1-7.9c1.8-2.4,2.7-5.6,2.2-8.6-.3-2.6-1.6-4.8-3.4-6.2,0,0,0,0,0,0-.1-.1-3.4-3-9.8.6-.5.3-1.1,0-1.4-.4-.3-.5-.1-1.1.4-1.4,7.4-4.2,11.5-.8,12.1-.3,2.2,1.7,3.7,4.3,4.1,7.5.5,3.6-.5,7.3-2.7,10.1l-6.1,7.9c-.2.3-.5.4-.8.4h0Z"/>
          <path class="st0" d="M58.7,153.7c-1.5,2-3.8,2.5-5,1.2-1.2-1.3-.9-3.9.6-5.9s3.8-2.5,5-1.2c1.2,1.3.9,3.9-.6,5.9Z"/>
          <path class="st0" d="M32.4,148.1c-1.5,2-3.8,2.5-5,1.2s-.9-3.9.6-5.9c1.5-2,3.8-2.5,5-1.2s.9,3.9-.6,5.9Z"/>
          <g>
            <path class="st2" d="M27.6,168.4h23.4c0,.1-12.6,27.2-23.4,0Z"/>
            <path class="st0" d="M38.5,181.5h-.2c-4.4-.1-8.3-4.4-11.6-12.8-.1-.3,0-.7,0-.9.2-.3.5-.4.8-.4h23.4c.3.1.7.3.8.6.2.3.2.7,0,1-.2.5-5.9,12.6-13.4,12.6h0ZM29.1,169.4c2.8,6.6,5.9,10,9.3,10.1h.2c4.9,0,9.2-6.9,10.8-10h-20.3Z"/>
          </g>
          <path class="st0" d="M95.9,172.2c2.6-17.8-6.4-35.5-22.6-43.7-1,16.6,7.8,32.8,22.6,43.7Z"/>
          <path class="st0" d="M72.6,153.4c-.4,0-.8-.3-.9-.7-4-12.4-18.9-13.7-19.1-13.7-.6,0-1-.5-.9-1.1,0-.6.5-1,1.1-.9.2,0,16.5,1.4,20.9,15.1.2.5-.1,1.1-.7,1.3,0,0-.2,0-.3,0h0Z"/>
          <path class="st0" d="M87.1,144.1c-.1,0-.3,0-.4,0-.5-.2-.8-.8-.5-1.3,3-7.1,11.5-7.7,11.9-7.8.5,0,1,.4,1.1.9,0,.6-.4,1-.9,1.1,0,0-7.7.6-10.2,6.5-.2.4-.5.6-.9.6h0Z"/>
          <path class="st0" d="M86.3,143.4c-.4,0-.7-.2-.9-.6-.2-.5,0-1.1.5-1.3,5.8-2.8,6.2-10.3,6.2-10.4,0-.6.5-1,1-1s1,.5,1,1c0,.4-.3,8.9-7.3,12.2-.1,0-.3,0-.4,0h0Z"/>
          <path class="st0" d="M41.3,208.1c-1.1,0-2.3,0-3.4-.2-.6,0-.9-.5-.9-1.1s.5-.9,1.1-.9c15.9,1.6,27-9.1,27.1-9.2.4-.4,1-.4,1.4,0,.4.4.4,1,0,1.4-.4.4-10.4,10-25.3,10h0Z"/>
        </g>
      </g>
    </g>
  </g>
</svg>