<?xml version="1.0" encoding="UTF-8"?>
<svg id="Layer_1" xmlns="http://www.w3.org/2000/svg" version="1.1" viewBox="0 0 301.8 283.4">
  <!-- Generator: Adobe Illustrator 29.1.0, SVG Export Plug-In . SVG Version: 2.1.0 Build 142)  -->
  <defs>
    <style>
      .st0 {
        fill: #303030;
      }

      .st1 {
        fill: #26a8df;
      }

      .st2 {
        fill: #fafafa;
      }
    </style>
  </defs>
  <g id="Layer_2">
    <g id="_Layer_">
      <g>
        <g>
          <path class="st0" d="M99.1,275.8h-39.1c-4.7,0-6.1-6.3-1.9-8.4l71.6-35.1c.6-.3,1.3-.4,1.9-.4h39.2c4.7,0,6.1,6.3,1.9,8.4l-71.6,35.1c-.6.3-1.3.5-1.9.5h0Z"/>
          <polygon class="st0" points="96 222.6 63.4 241.2 86 183.4 118.6 164.7 96 222.6"/>
          <path class="st0" d="M96,222.6l-32.6,18.6,27.2,1.9c.5,0,.9,0,1.3-.3l25.3-14.5c2-1.1,1.3-4.2-1-4.3l-20.3-1.4h0Z"/>
          <path class="st0" d="M247.2,190.1c-6.6,0-13.3-.7-20-2.2-15.9-3.5-28.1-10.3-30.6-15-1-1.7-.6-3.3.9-4.2,5.6-3.4,4-21.8,2.9-35.2-.5-5.4-.8-10.1-.8-13.3.2-9.2,7.7-17.5,21.7-23.8,7.3-3.3,17.5-2.8,27.9,1.5,7.2,3,10.9,9.6,13.8,14.9.9,1.7,1.8,3.3,2.7,4.6,1.9,2.6,5.7,3.4,9.1,4,2.7.5,5.3,1,6.7,2.4,1.8,1.8,2,5,2.3,8.5.2,3.1.5,6.2,1.8,8.4.9,1.5,3.1,2.9,5.4,4.5,4.9,3.3,11.1,7.4,10.6,14.9-.7,10.9-18.3,21.7-19,22.1,0,0,0,0,0,0-10.7,5.2-22.9,7.8-35.5,7.8h0ZM232.2,96.2c-3.7,0-7.1.7-10,2-9.3,4.2-20.4,11.4-20.6,22,0,3.2.3,7.8.8,13.2,1.2,14.7,2.7,33.1-3.9,37.1-.3.2-.8.5-.2,1.6,1.9,3.5,12.5,10.3,29.3,14,11,2.4,32.7,4.9,54.1-5.4.9-.6,17.4-10.9,18-20.5.4-6.3-5-9.9-9.8-13.1-2.7-1.8-5-3.3-6-5.2-1.5-2.6-1.8-6-2-9.2-.2-3.1-.5-6-1.7-7.2-1-1-3.3-1.4-5.7-1.9-3.8-.7-8-1.6-10.3-4.8-1-1.3-1.9-3-2.8-4.8-2.8-5.1-6.2-11.3-12.8-14-5.7-2.3-11.3-3.5-16.3-3.5h0ZM282.2,181.4h0Z"/>
          <path class="st0" d="M274.8,185.9s18.6-10.3,19.9-21.4-12.2-15.6-14.7-20.9c-2.5-5.3,0-14.6-2.8-17.9s-12.2-2.4-15.5-8c-3.3-5.6-5.8-16.6-14.8-21.2s-19.1-6.5-27-3.3-23.6,10.2-22.6,22.9c3.1,38.1-13.2,30.6-11.7,40.4,4.1,26.3,44.5,48.8,89.1,29.5h0Z"/>
          <path class="st0" d="M189.9,168c-.2,0-.4,0-.6-.2-5.4-4.1-8-8.2-8-12.1,0-3.5,2.2-6.8,6.5-9.8,8.1-5.8,9.4-14.8,9.5-14.9,0-.6.6-.9,1.1-.9.5,0,.9.6.9,1.1,0,.4-1.4,9.9-10.3,16.2-3.7,2.7-5.6,5.4-5.7,8.2,0,3.2,2.4,6.8,7.2,10.5.4.3.5,1,.2,1.4-.2.2-.5.4-.8.4h0Z"/>
          <g>
            <polygon class="st2" points="231.1 199.6 197.3 185.9 196.7 151.9 228.3 151.3 231.1 199.6"/>
            <path class="st0" d="M231.1,200.6c-.1,0-.2,0-.4,0l-33.8-13.6c-.4-.1-.6-.5-.6-.9l-.6-34.1c0-.6.4-1,1-1l31.6-.6c.5,0,1,.4,1,.9l2.8,48.2c0,.3-.1.7-.4.9-.2.1-.4.2-.6.2h0ZM198.3,185.2l31.7,12.8-2.6-45.7-29.6.5.6,32.4h0Z"/>
          </g>
          <g>
            <path class="st2" d="M279.4,209.7l-20.9-40.8h-60.8c-12.7,0-24.1,8-28.4,20l-20.1,56.4-26.3-11.6c-2.5-1.1-5.4-.9-7.7.5l-18.9,11.6-16.4,17.4,1,.7c4,2.9,9.4,2.9,13.5,0l6.6-4.8,5.6,4.9c5.6,4.8,13,7.1,20.4,6.1l1.7-.2,34.8,11.5c9.8,3.2,20.4-2.3,23.3-12.2l8.5-29,5,8c6.4,10.3,17.7,16.6,29.9,16.6l39.2-22.2c11.6-6.6,15.9-21.1,9.9-32.9h0Z"/>
            <path class="st0" d="M169.4,283.4c-2,0-4.1-.3-6.1-1l-34.6-11.4-1.5.2c-7.6,1-15.3-1.4-21.1-6.4l-5-4.3-6,4.4c-4.4,3.2-10.3,3.2-14.6,0l-1-.7c-.2-.2-.4-.4-.4-.7,0-.3,0-.6.3-.8l16.4-17.4c0,0,.1-.1.2-.2l18.9-11.6c2.6-1.6,5.8-1.8,8.6-.6l25.3,11.1,19.7-55.4c4.4-12.4,16.2-20.7,29.3-20.7h60.8c.4,0,.7.2.9.6l20.9,40.8h0c6.3,12.4,1.8,27.4-10.3,34.2l-39.2,22.2c-.1,0-.3.1-.5.1-12.6,0-24.1-6.4-30.7-17.1l-3.8-6.1-7.9,26.9c-1.5,5.1-4.9,9.2-9.6,11.7-2.8,1.5-5.9,2.2-8.9,2.2h0ZM128.8,268.9c.1,0,.2,0,.3,0l34.9,11.5c4.5,1.5,9.3,1.1,13.5-1.1,4.2-2.2,7.2-5.9,8.6-10.5l8.5-29c.1-.4.4-.7.8-.7.4,0,.8.1,1,.5l5,8c6.2,10,17,16,28.8,16.1l39-22.1c11.1-6.3,15.3-20.2,9.5-31.6l-20.6-40.3h-60.2c-12.3,0-23.3,7.8-27.4,19.4l-20.1,56.4c0,.3-.3.5-.6.6-.2.1-.5.1-.8,0l-26.3-11.6c-2.2-1-4.7-.8-6.8.5l-18.8,11.5-15.6,16.5h0c3.7,2.7,8.6,2.7,12.3,0l6.6-4.8c.4-.3.9-.2,1.2,0l5.6,4.9c5.4,4.6,12.5,6.8,19.6,5.9l1.7-.2h.1Z"/>
          </g>
          <g>
            <path class="st2" d="M221.1,162.4c7.6-.8,15-4.5,20.4-10.9,10.9-12.9,9.4-31.6-2.8-42.5-20.1-17.8-38.7-2.1-41.3,2.2-.6,1-1.2,2-1.8,2.9-1.1,1.4-2.1,3-3,4.5-2.3,3.1-4.5,5.3-7.1,5.6-4,.5-7.8,29.5,14,31.8l21.6,6.4h0Z"/>
            <path class="st0" d="M221.1,163.4c-.5,0-.9-.4-1-.9,0-.6.3-1,.9-1.1,7.6-.8,14.6-4.6,19.7-10.5,10.5-12.4,9.3-30.4-2.7-41.1-7.2-6.4-14.9-9-22.8-7.8-9.3,1.4-15.8,7.7-17,9.7-.6,1-1.2,2-1.8,2.9,0,0,0,0,0,0-1.1,1.4-2.1,2.9-2.9,4.4,0,0,0,0,0,.1-2.8,3.8-5.2,5.7-7.8,6-1,.3-2.8,5.8-2,12.8.7,5.8,3.7,15.8,16,17,.5,0,1,.6.9,1.1s-.5.9-1.1.9c-4.2-.4-17.8-3.3-18-22.1,0-5.4,1.3-11.3,3.9-11.7,2-.3,4-1.8,6.4-5.1.9-1.6,1.9-3.1,3-4.6.6-.9,1.1-1.9,1.7-2.8,1.8-3,9.1-9.2,18.4-10.6,8.5-1.3,16.8,1.5,24.4,8.3,12.8,11.4,14.1,30.7,2.9,43.9-5.4,6.4-12.9,10.4-21,11.2h-.1Z"/>
          </g>
          <path class="st0" d="M244.8,105.1c-8.3-7.1-19.4-9-29.3-6.2,2.7,1.2,5.2,2.8,7.5,4.8,15.8,13.4,16.4,38.7,1.4,56.6-.8,1-1.7,1.9-2.6,2.8,9.6.2,19.3-3.9,26.1-12,11.8-14,10.5-34.6-3.1-46.1Z"/>
          <path class="st0" d="M220.5,96.5c-5.5.5-9.8,4.8-9.4,10.2l-2.5,8.6c-2.4,8.2-2.1,16.9.7,24.9l6.1,17.2c0,3,2,5.6,4.9,6.5l8.6,2.6,4.4-7.5,4.4-56.4s1.3-7.9-17.4-6h0Z"/>
          <path class="st0" d="M187.7,139.7c-.2,0-.3,0-.5,0-.5,0-1-.5-.9-1.1,0-.6.5-1,1.1-.9,2.1.2,3.7-1.6,3.7-1.6.4-.4,1-.5,1.4-.1s.5,1,.1,1.4c0,.1-2,2.3-4.9,2.3h0Z"/>
          <path class="st0" d="M204.7,119.5c-.1,0-.2,0-.3,0-.5-.2-.8-.8-.6-1.3.2-.7,0-2.2-1-3.4-.5-.7-1.8-1.9-3.7-1.8-.5,0-1-.4-1.1-.9,0-.6.4-1,.9-1.1,2.1-.2,4,.8,5.4,2.6,1.3,1.7,1.8,3.8,1.3,5.2-.1.4-.5.7-.9.7h0Z"/>
          <path class="st0" d="M197.4,122c-.7.6-1.6.7-2,.3-.5-.5-.3-1.4.4-2,.7-.6,1.6-.7,2-.3.5.5.3,1.4-.4,2Z"/>
          <path class="st0" d="M275.9,156.2c-6.8-11.8-22.6-15.9-35.5-9.2-4.5,2.3-8,5.7-10.4,9.6-4.7-2.1-15-5.2-15.5.5-2,21.9-11.3,13.8-7,21.2s35.6,24.6,66.2,8.2c12.8-6.9,9-18.5,2.2-30.3Z"/>
          <path class="st2" d="M209.7,142.2c-1,4.8,2.1,9.4,6.9,10.4,4.8,1,9.4-2.1,10.4-6.9,1-4.8-2.1-9.4-6.9-10.4s-9.4,2.1-10.4,6.9Z"/>
          <path class="st0" d="M214,146.2c0,0-.1,0-.2,0-.5-.1-.9-.6-.8-1.2.9-4.2,7.6-4.9,7.9-4.9.5,0,1,.4,1.1.9s-.4,1-.9,1.1c-1.5.1-5.7,1-6.1,3.3-.1.5-.5.8-1,.8h0Z"/>
          <g>
            <path class="st2" d="M112.9,248.9l-16.4-3.1,16.4,3.1Z"/>
            <path class="st0" d="M112.9,249.9c0,0-.1,0-.2,0l-16.4-3.1c-.5-.1-.9-.6-.8-1.2.1-.5.6-.9,1.2-.8l16.4,3.1c.5.1.9.6.8,1.2,0,.5-.5.8-1,.8Z"/>
          </g>
          <g>
            <path class="st2" d="M115.9,243.6l-10.6-3.1,10.6,3.1Z"/>
            <path class="st0" d="M115.9,244.6c0,0-.2,0-.3,0l-10.6-3.1c-.5-.1-.8-.7-.7-1.2.1-.5.7-.8,1.2-.7l10.6,3.1c.5.1.8.7.7,1.2-.1.4-.5.7-1,.7h0Z"/>
          </g>
          <g>
            <path class="st2" d="M120.4,238.8l-7.4-2.6,7.4,2.6Z"/>
            <path class="st0" d="M120.4,239.8c-.1,0-.2,0-.3,0l-7.4-2.6c-.5-.2-.8-.8-.6-1.3s.8-.8,1.3-.6l7.4,2.6c.5.2.8.8.6,1.3-.1.4-.5.7-.9.7h0Z"/>
          </g>
          <g>
            <path class="st2" d="M144.2,260.7l5.1-15.4-5.1,15.4Z"/>
            <path class="st0" d="M144.2,261.7c-.1,0-.2,0-.3,0-.5-.2-.8-.7-.6-1.3l5.1-15.4c.2-.5.7-.8,1.3-.6.5.2.8.7.6,1.3l-5.1,15.4c-.1.4-.5.7-.9.7h0Z"/>
          </g>
          <g>
            <path class="st2" d="M199.5,220.2l-4.1,20,4.1-20Z"/>
            <path class="st0" d="M195.4,241.2c0,0-.1,0-.2,0-.5-.1-.9-.6-.8-1.2l4.1-20c.1-.5.6-.9,1.2-.8.5.1.9.6.8,1.2l-4.1,20c-.1.5-.5.8-1,.8Z"/>
          </g>
          <g>
            <path class="st2" d="M156.2,228.4s2.3,15.4,34.6,23.1l-34.6-23.1Z"/>
            <path class="st0" d="M190.8,252.5c0,0-.1,0-.2,0-32.6-7.8-35.3-23.2-35.4-23.9,0-.6.3-1.1.8-1.1.6,0,1,.3,1.1.8,0,.2,2.8,14.9,33.9,22.3.5.1.9.7.7,1.2-.1.5-.5.8-1,.8Z"/>
          </g>
          <path class="st0" d="M15.5,99.3l116.5-16.6c5.7-.8,10.9,3,12,8.6l15.1,78.9c.9,4.9-1.6,9.8-6.2,11.8l-113.3,50c-6.4,2.8-13.8-1.2-14.9-8.1L6.4,111.6c-1-5.9,3.1-11.5,9.1-12.3h0Z"/>
          <path class="st0" d="M9.2,101.7l117.8-18c5.7-.9,11.1,2.8,12.3,8.4l16.3,78.2c1,4.9-1.5,9.8-6.1,11.8l-114.2,51.2c-6.5,2.9-14-1-15.2-7.8L.2,114.1c-1.1-5.9,3-11.4,9-12.3h0Z"/>
          <polygon class="st2" points="13.9 107.6 33.1 226.1 151.6 173.8 135.6 90.2 13.9 107.6"/>
          <g>
            <path class="st0" d="M69.4,141.5s-5.5-10.1-7.1-14.7,1.1-8.8,5.8-14.1c4.6-5.3,4.1-4.3,2.1-4.6-2-.3,2.3-4.3,9.8-5.3s20.8-.3,19.9,13.8-23.4,35-30.5,24.8h0Z"/>
            <g>
              <path class="st2" d="M70.7,171.9s4.5-2.8,5.4-8.1.6-11-2-13.6c-2.6-2.5-9.6-10.5-6-13.6,2.4-2.1,4.9,2.1,6.8,3.6,1.9,1.4,1.4,0,1-2.8-.5-2.7,0-8.1,1.9-10s-2.4-9.3-4.8-10.1,7-1.9,12.7-4.1,7.8-3.8,12.7-.4c4.9,3.4,7.5,8.5,9.1,14.3,1.5,5.8,1.7,20,2.3,23,.6,3,.2,5-4.3,7.3-1,.5-2.1,2.4-1.6,6.2,1.6,10.3-.9,13.5-13.1,15.9-7.1,1.4-13-1.1-20.1-7.6h0Z"/>
              <path class="st0" d="M87.1,180.8c-5.6,0-10.9-2.6-17.1-8.2-.2-.2-.4-.5-.3-.8s.2-.6.5-.8c0,0,4.1-2.6,4.9-7.4,1-5.7.3-10.7-1.7-12.7-.8-.8-7.4-7.4-7.3-12.2,0-1.2.5-2.2,1.3-2.9,2.5-2.1,4.9.4,6.5,2.1.4.4.8.8,1.2,1.1,0-.2,0-.4-.1-.6,0-.3-.1-.6-.2-1-.4-2.6,0-8.6,2.2-10.8.1-.1.2-.6,0-1.5-.6-2.7-3.2-6.5-4.5-6.9-.9-.3-1-.9-1-1.3,0-1.1,1.3-1.4,5.4-2.4,2.6-.6,5.9-1.3,8.3-2.3.7-.3,1.3-.5,1.9-.8,4.5-1.8,6.9-2.8,11.7.5,4.6,3.1,7.7,8,9.4,14.8,1,3.7,1.4,10.5,1.8,16,.2,3.2.4,6,.6,7,.7,3.4.1,5.8-4.8,8.4-.5.2-1.6,1.6-1,5.1,1.7,10.9-1.3,14.6-13.9,17.1-1.3.3-2.6.4-3.9.4h0ZM72.3,172c6.6,5.9,12,7.7,18.3,6.5,11.6-2.3,13.8-4.9,12.3-14.8-.6-4.2.7-6.5,2.1-7.2,4.3-2.2,4.3-3.8,3.8-6.2-.2-1.2-.4-3.9-.6-7.3-.3-5.4-.8-12.1-1.7-15.6-1.7-6.4-4.4-10.8-8.6-13.7-3.9-2.7-5.5-2-9.8-.3-.6.2-1.2.5-1.9.8-2.6,1-5.9,1.8-8.6,2.4-.9.2-2,.5-2.8.7,1.9,1.7,3.9,5.1,4.4,7.6.3,1.5.1,2.7-.6,3.4-1.6,1.5-2.1,6.6-1.6,9.1,0,.3.1.6.2.9.3,1.8.5,2.8-.4,3.4-.9.5-1.8-.2-2.4-.6-.6-.4-1.1-1-1.8-1.6-1.9-2-2.9-2.7-3.8-2-.4.4-.6.8-.6,1.5,0,3.1,4.3,8.4,6.7,10.7,2.6,2.5,3.4,7.9,2.3,14.5-.7,4.1-3.3,6.8-4.8,8h0Z"/>
            </g>
            <path class="st0" d="M79.3,152.3s6.9,5.6,10.4,6.5c3.5.9,13.6-2,17.1-3,3.5-.9-1.3-.3-7.2,6-5.9,6.4-12.5,16.5-14.4,13.2-1.9-3.3-5.3-9.4-5.5-12.3-.2-2.8-.4-10.5-.4-10.5h0Z"/>
            <path class="st0" d="M100.8,138.6c-.4,0-.8-.2-.9-.6-.2-.5,0-1.1.6-1.3,1.4-.6,2.5-2,2.9-2.7l-6.5-8.6c-.3-.4-.2-1.1.2-1.4s1.1-.2,1.4.2l6.9,9.1c.2.3.3.7.1,1,0,.1-1.5,3.1-4.3,4.2-.1,0-.2,0-.4,0h0Z"/>
            <path class="st0" d="M84,126.7c-.2,0-.4,0-.6-.2-.4-.3-.5-1-.2-1.4,2.6-3.4,4.9-3.2,7.2-3,.3,0,.7,0,1,0,.6,0,1,.5.9,1.1,0,.6-.5,1-1.1.9-.4,0-.7,0-1.1,0-2.1-.2-3.5-.3-5.4,2.2-.2.3-.5.4-.8.4h0Z"/>
            <path class="st0" d="M99.7,123c-.4,0-.8-.2-.9-.6-.2-.5,0-1.1.5-1.3.4-.2.8-.6,1.3-.9.5-.5,1.1-1,1.8-1.3,1.4-.6,3.6,0,4.6,1.1.4.4.3,1.1-.1,1.4s-1.1.3-1.4-.1c-.4-.5-1.7-.8-2.3-.5-.4.2-.8.6-1.3.9-.5.5-1.1,1-1.8,1.3-.1,0-.3,0-.4,0h0Z"/>
            <path class="st0" d="M92.7,129.7c.3,1,0,2-.7,2.2-.7.2-1.5-.4-1.8-1.4s0-2,.7-2.2c.7-.2,1.5.4,1.8,1.4Z"/>
            <path class="st0" d="M105.6,125.7c.3,1,0,2-.7,2.2s-1.5-.4-1.8-1.4c-.3-1,0-2,.7-2.2s1.5.4,1.8,1.4Z"/>
            <path class="st0" d="M99.8,149.4c-1.5,0-2.9-1.3-3.7-2.8-.8-1.3-.8-2.4-.2-3.1.8-.9,4.7-1.9,7.9-2.6.3,0,.6,0,.8.2s.4.4.4.7c.8,5.8-3,7.2-4.7,7.6-.2,0-.3,0-.5,0h0ZM97.5,144.8c0,.4.6,1.4,1.3,2.1.4.4.9.6,1.1.5,2.1-.4,3.2-1.9,3.2-4.2-2.4.6-4.8,1.2-5.6,1.6h0Z"/>
            <path class="st0" d="M135.7,181.7c-.3,0-.6-.1-.8-.4l-8.1-10.7c-4-5.5-10.9-8.3-17.5-7l-5.2,1c-.6.1-1.1-.3-1.2-.8-.1-.5.3-1.1.8-1.2l5.2-1c7.4-1.4,15.1,1.7,19.5,7.8l8.1,10.7c.3.4.2,1.1-.2,1.4-.2.1-.4.2-.6.2h0Z"/>
            <path class="st0" d="M50.1,220.9c-.5,0-1-.4-1-.9l-1.7-23.8h0c0-.1.5-7.1.5-7.1.5-3.2,1.6-5.9,3.2-8.2,1.6-2.3,3.4-3.8,5.6-4.6l13.6-5.3c.5-.2,1.1,0,1.3.6.2.5,0,1.1-.6,1.3l-13.6,5.3c-1.8.7-3.3,1.9-4.7,3.9-1.4,2.1-2.4,4.5-2.9,7.3l-.4,6.8,1.7,23.7c0,.6-.4,1-.9,1.1h0Z"/>
          </g>
          <path class="st1" d="M134.2,107.3c0,3.6-2.9,6.5-6.5,6.5s-6.5-2.9-6.5-6.5,2.9-6.5,6.5-6.5,6.5,2.9,6.5,6.5Z"/>
          <path class="st0" d="M137.1,121.9c0,3.6-2.9,6.5-6.5,6.5s-6.5-2.9-6.5-6.5,2.9-6.5,6.5-6.5,6.5,2.9,6.5,6.5Z"/>
          <g>
            <path class="st2" d="M133.1,142.2c-3.1,0-5.5-2.5-5.5-5.5s2.5-5.5,5.5-5.5,5.5,2.5,5.5,5.5-2.5,5.5-5.5,5.5Z"/>
            <path class="st0" d="M133.1,132.2c2.5,0,4.5,2,4.5,4.5s-2,4.5-4.5,4.5-4.5-2-4.5-4.5,2-4.5,4.5-4.5h0ZM133.1,130.2c-3.6,0-6.5,2.9-6.5,6.5s2.9,6.5,6.5,6.5,6.5-2.9,6.5-6.5-2.9-6.5-6.5-6.5h0Z"/>
          </g>
          <g>
            <path class="st0" d="M209.9,10h-33.5c-.4,0-.8-.3-.8-.8s.3-.8.8-.8h33.5c.4,0,.8.3.8.8s-.3.8-.8.8Z"/>
            <path class="st0" d="M207.3,16.4h-30.9c-.4,0-.8-.3-.8-.8s.3-.8.8-.8h30.9c.4,0,.8.3.8.8s-.3.8-.8.8Z"/>
            <g>
              <rect class="st2" x="150.3" y=".8" width="21.2" height="21.2"/>
              <path class="st0" d="M171.5,22.7h-21.2c-.4,0-.8-.3-.8-.8V.8c0-.4.3-.8.8-.8h21.2c.4,0,.8.3.8.8v21.2c0,.4-.3.8-.8.8h0ZM151.1,21.2h19.7V1.5h-19.7v19.7Z"/>
            </g>
            <path class="st0" d="M158.6,15.8c-.2,0-.4,0-.5-.2l-3.5-3.5c-.3-.3-.3-.8,0-1.1s.8-.3,1.1,0l2.9,2.9,7.8-7.8c.3-.3.8-.3,1.1,0,.3.3.3.8,0,1.1l-8.3,8.3c-.1.1-.3.2-.5.2h0Z"/>
          </g>
          <g>
            <path class="st0" d="M209.9,41h-33.5c-.4,0-.8-.3-.8-.8s.3-.8.8-.8h33.5c.4,0,.8.3.8.8s-.3.8-.8.8Z"/>
            <path class="st0" d="M207.3,47.4h-30.9c-.4,0-.8-.3-.8-.8s.3-.8.8-.8h30.9c.4,0,.8.3.8.8s-.3.8-.8.8Z"/>
            <g>
              <rect class="st2" x="150.3" y="31.8" width="21.2" height="21.2"/>
              <path class="st0" d="M171.5,53.7h-21.2c-.4,0-.8-.3-.8-.8v-21.2c0-.4.3-.8.8-.8h21.2c.4,0,.8.3.8.8v21.2c0,.4-.3.8-.8.8ZM151.1,52.2h19.7v-19.7h-19.7v19.7Z"/>
            </g>
            <path class="st0" d="M158.6,46.8h0c-.2,0-.4,0-.5-.2l-3.5-3.5c-.3-.3-.3-.8,0-1.1s.8-.3,1.1,0l2.9,2.9,7.8-7.8c.3-.3.8-.3,1.1,0s.3.8,0,1.1l-8.3,8.3c-.1.1-.3.2-.5.2h0Z"/>
          </g>
          <g>
            <path class="st0" d="M209.9,72h-33.5c-.4,0-.8-.3-.8-.8s.3-.8.8-.8h33.5c.4,0,.8.3.8.8s-.3.8-.8.8Z"/>
            <path class="st0" d="M207.3,78.4h-30.9c-.4,0-.8-.3-.8-.8s.3-.8.8-.8h30.9c.4,0,.8.3.8.8s-.3.8-.8.8Z"/>
            <g>
              <rect class="st2" x="150.3" y="62.8" width="21.2" height="21.2"/>
              <path class="st0" d="M171.5,84.7h-21.2c-.4,0-.8-.3-.8-.8v-21.2c0-.4.3-.8.8-.8h21.2c.4,0,.8.3.8.8v21.2c0,.4-.3.8-.8.8ZM151.1,83.2h19.7v-19.7h-19.7v19.7Z"/>
            </g>
            <path class="st0" d="M158.6,77.8h0c-.2,0-.4,0-.5-.2l-3.5-3.5c-.3-.3-.3-.8,0-1.1s.8-.3,1.1,0l2.9,2.9,7.8-7.8c.3-.3.8-.3,1.1,0,.3.3.3.8,0,1.1l-8.3,8.3c-.1.1-.3.2-.5.2h0Z"/>
          </g>
        </g>
        <circle class="st0" cx="65" cy="134.6" r="1.6"/>
        <path class="st0" d="M77.2,128.6s28.8-7.3,30-6.6,4.1,10.1,2.7,10.8-46.5,1.8-46.5,1.8l13.8-5.9h0Z"/>
        <polygon class="st0" points="57.1 139.9 65.6 133.8 60.9 144.4 57.1 139.9"/>
        <polyline class="st0" points="67.1 145.2 61.3 143.8 64.6 133.9"/>
        <path class="st2" d="M194.5,112.1l-5.6,7.1c-.6.8-.4,2,.5,2.5,4.9,2.5,18.6,9.2,28.9,9.5,12.6.4,40.8-9.8,40.8-9.8,0,0-53.1-9.5-62.9-10-.6,0-1.3.2-1.7.8h0Z"/>
        <g>
          <circle class="st2" cx="259" cy="121.3" r="1.6"/>
          <polygon class="st2" points="259.2 131.2 259 120.7 265 130.6 259.2 131.2"/>
          <polyline class="st2" points="269.9 122.3 266.9 127.4 258.3 121.5"/>
        </g>
        <path class="st2" d="M258,121.2s1.1-7.2,1.9-7.2,4.1,4.6,3.5,5.7-5.4,1.5-5.4,1.5Z"/>
      </g>
    </g>
  </g>
</svg>