<?xml version="1.0" encoding="UTF-8"?>
<svg id="Layer_1" xmlns="http://www.w3.org/2000/svg" version="1.1" viewBox="0 0 300.4 230.3">
  <!-- Generator: Adobe Illustrator 29.2.0, SVG Export Plug-In . SVG Version: 2.1.0 Build 108)  -->
  <defs>
    <style>
      .st0 {
        fill: #303030;
      }

      .st1 {
        fill: #26a8df;
      }

      .st2 {
        fill: #fafafa;
      }
    </style>
  </defs>
  <g id="Layer_2">
    <g id="_Layer_">
      <g>
        <g>
          <g>
            <g>
              <path class="st2" d="M150.4,1h140.2c4.9,0,8.8,3.9,8.8,8.8v111.3c0,4.9-4,8.8-8.8,8.8h-140.1c-4.9,0-8.8-3.9-8.8-8.8V9.8c0-4.9,3.9-8.8,8.8-8.8h0Z"/>
              <path class="st0" d="M290.5,131h-140.1c-5.4,0-9.8-4.4-9.8-9.8V9.8c0-5.4,4.4-9.8,9.8-9.8h140.1c5.4,0,9.8,4.4,9.8,9.8v111.3c0,5.4-4.4,9.8-9.8,9.8ZM150.4,2c-4.3,0-7.8,3.5-7.8,7.8v111.3c0,4.3,3.5,7.8,7.8,7.8h140.2c4.3,0,7.8-3.5,7.8-7.8V9.8c0-4.3-3.5-7.8-7.8-7.8h-140.2Z"/>
            </g>
            <path class="st0" d="M152.2,14c-2.2,0-4-1.8-4-4s1.8-4,4-4,4,1.8,4,4-1.8,4-4,4ZM152.2,8c-1.1,0-2,.9-2,2s.9,2,2,2,2-.9,2-2-.9-2-2-2Z"/>
            <path class="st0" d="M162.2,14c-2.2,0-4-1.8-4-4s1.8-4,4-4,4,1.8,4,4-1.8,4-4,4ZM162.2,8c-1.1,0-2,.9-2,2s.9,2,2,2,2-.9,2-2-.9-2-2-2Z"/>
            <path class="st0" d="M172.3,14c-2.2,0-4-1.8-4-4s1.8-4,4-4,4,1.8,4,4-1.8,4-4,4ZM172.3,8c-1.1,0-2,.9-2,2s.9,2,2,2,2-.9,2-2-.9-2-2-2Z"/>
          </g>
          <path class="st0" d="M288,129.2l-4.1-12.1c-2.8-8.2-9.8-14.2-18.2-15.9l-34-6.6-38.1,5.6c-9.7,1.4-17.6,8.6-20,18.2l-2.6,10.8h117.1Z"/>
          <g>
            <polygon class="st2" points="217.1 130.1 237.5 130.1 240.2 111.2 228 104.5 214.2 111.9 217.1 130.1"/>
            <path class="st0" d="M238.4,131.1h-22.1l-3.1-19.7,14.9-7.9,13.3,7.3-2.9,20.4h0ZM218,129.1h18.7l2.4-17.3-11.1-6.1-12.6,6.8,2.6,16.6Z"/>
          </g>
          <g>
            <path class="st0" d="M202.2,53.9s-7.4-27.2-2-35.3c5.5-8.2,12.3-7.1,22.2-2,9.9,5,8.8-3.1,22.2,1.5,7.4,2.5,12.3,8.1,11.8,13.6-.5,5.6-.5,20.2-5.4,25.7-4.9,5.6-40.9,10.6-48.8-3.5h0Z"/>
            <g>
              <path class="st2" d="M227.2,104.5h0c-6.1,0-10.9-4.9-10.9-10.9v-39.8c0-6.1,4.9-10.9,10.9-10.9h0c6.1,0,10.9,4.9,10.9,10.9v39.8c0,6.1-4.9,10.9-10.9,10.9Z"/>
              <path class="st0" d="M227.2,105.5h0c-6.6,0-11.9-5.4-11.9-11.9v-39.8c0-6.6,5.3-11.9,11.9-11.9h.1c6.6,0,11.9,5.4,11.9,11.9v39.8c0,6.6-5.3,11.9-11.9,11.9h0ZM227.2,43.8c-5.5,0-9.9,4.5-9.9,9.9v39.8c0,5.5,4.4,9.9,9.9,9.9,5.5,0,9.9-4.5,9.9-9.9v-39.8c0-5.5-4.4-9.9-9.9-9.9h0Z"/>
            </g>
            <g>
              <path class="st2" d="M210.1,56.9c1.4,5,.3,9.7-2.3,10.4-2.6.7-5.9-2.8-7.2-7.8s-.3-9.7,2.3-10.4c2.6-.7,5.9,2.8,7.2,7.8Z"/>
              <path class="st0" d="M207.1,68.4c-3,0-6.1-3.5-7.5-8.6-.7-2.6-.8-5.2-.4-7.3.5-2.3,1.7-3.9,3.4-4.3,1.6-.4,3.5.3,5.1,2,1.5,1.6,2.7,3.9,3.4,6.5,1.5,5.6.2,10.7-3,11.6-.3,0-.6.1-.9.1ZM203.5,50c-.1,0-.3,0-.4,0-.9.2-1.6,1.3-1.9,2.8-.4,1.8-.3,4.1.3,6.3,1.3,4.8,4.2,7.6,6,7.1,1.8-.5,2.9-4.4,1.6-9.2-.6-2.3-1.6-4.3-2.9-5.6-.9-1-1.9-1.5-2.7-1.5h0Z"/>
            </g>
            <g>
              <path class="st2" d="M243.3,56.9c-1.4,5-.3,9.7,2.3,10.4,2.6.7,5.9-2.8,7.2-7.8,1.4-5,.3-9.7-2.3-10.4-2.6-.7-5.9,2.8-7.2,7.8Z"/>
              <path class="st0" d="M246.2,68.4c-.3,0-.6,0-1-.1-3.2-.9-4.5-6-3-11.6h0c.7-2.6,1.9-4.9,3.4-6.5,1.6-1.8,3.4-2.5,5.1-2s2.8,2,3.4,4.3c.5,2.1.3,4.7-.4,7.3-1.4,5.1-4.5,8.6-7.5,8.6h0ZM244.2,57.2h0c-1.3,4.8-.2,8.7,1.6,9.2,1.8.5,4.7-2.3,6-7.1.6-2.3.7-4.5.3-6.3-.3-1.6-1-2.6-1.9-2.8-.9-.2-2,.3-3.1,1.5-1.3,1.3-2.3,3.3-2.9,5.6h0Z"/>
            </g>
            <g>
              <rect class="st2" x="206.1" y="24.4" width="41.1" height="65.6" rx="14.9" ry="14.9"/>
              <path class="st0" d="M232.4,91h-11.3c-8.8,0-15.9-7.2-15.9-15.9v-35.7c0-8.8,7.1-15.9,15.9-15.9h11.3c8.8,0,15.9,7.2,15.9,15.9v35.7c0,8.8-7.1,15.9-15.9,15.9h0ZM221.1,25.4c-7.7,0-13.9,6.2-13.9,13.9v35.7c0,7.7,6.2,13.9,13.9,13.9h11.3c7.7,0,13.9-6.2,13.9-13.9v-35.7c0-7.7-6.2-13.9-13.9-13.9h-11.3,0Z"/>
            </g>
            <ellipse class="st0" cx="215.1" cy="57.1" rx="1.9" ry="2.7" transform="translate(-6 82.3) rotate(-21.4)"/>
            <path class="st0" d="M220.2,53.4c-.2,0-.4,0-.6-.2-.9-.7-2.2-1.2-3.6-1.2-1.7-.1-3.3.3-4.3,1.1-.4.3-1.1.3-1.4-.1-.4-.4-.3-1.1.1-1.4,1.4-1.1,3.5-1.7,5.7-1.6,1.8.1,3.4.7,4.7,1.7.4.3.5,1,.2,1.4-.2.2-.5.4-.8.4h0Z"/>
            <path class="st0" d="M234.1,57.7c.5,1.4,1.8,2.2,2.8,1.8s1.4-1.8.8-3.2-1.8-2.2-2.8-1.8-1.4,1.8-.8,3.2Z"/>
            <path class="st0" d="M240.9,53.4c-.2,0-.4,0-.6-.2-.9-.7-2.2-1.2-3.6-1.2-1.7-.1-3.3.3-4.3,1.1-.4.3-1.1.3-1.4-.1s-.3-1.1.1-1.4c1.4-1.1,3.5-1.7,5.7-1.6,1.8.1,3.4.7,4.7,1.7.4.3.5,1,.2,1.4-.2.2-.5.4-.8.4h0Z"/>
            <path class="st0" d="M225.6,67.2c-.6,0-1.2-.2-1.6-.7-.7-.8-.7-1.8-.6-2.7.2-3.8.6-7.7,1-11.5,0-.6.6-.9,1.1-.9.6,0,.9.6.9,1.1-.4,3.8-.8,7.6-1,11.4,0,.3,0,1,.1,1.3.2-.4.6-.6,1-.6.6,0,.9.6.8,1.1-.1.7-.6,1.2-1.2,1.4-.2,0-.4,0-.6,0h0Z"/>
            <path class="st0" d="M229.8,73.8c-.7,0-1.4-.1-2-.4-.5-.2-.8-.8-.6-1.3.2-.5.8-.8,1.3-.6,1,.4,2.2.3,3.4-.3,1.1-.6,1.9-1.5,2.2-2.6s.7-.8,1.2-.7.9.7.7,1.2c-.4,1.6-1.6,3-3.2,3.8-.9.5-2,.7-2.9.7h0Z"/>
            <path class="st0" d="M206.8,45.9s1.6-13.4,5.8-11.5,4.4,5.7,10.9,6.1c6.5.5,10.7-1.8,13,.5,2.3,2.3,6.5,7.3,12.1,3.7,5.6-3.7,6.1-12.4-2.7-17-8.9-4.6-22.1-5.3-29.6-5.7-7.4-.5-15.1,13.1-9.6,24.1h0Z"/>
          </g>
          <polygon class="st0" points="227.5 117.1 223.9 110.8 220.2 104.4 227.5 104.4 234.9 104.4 231.2 110.8 227.5 117.1"/>
          <polygon class="st0" points="227.5 107.9 223.9 118.7 220.2 129.5 227.5 129.5 234.9 129.5 231.2 118.7 227.5 107.9"/>
          <g>
            <polygon class="st2" points="227.2 104.5 214.9 119.2 212 99 216.3 93.6 227.2 104.5"/>
            <path class="st0" d="M214.2,121.6l-3.3-22.8,5.2-6.7,12.3,12.4-14.3,17.1h0ZM213.1,99.3l2.5,17.5,10.3-12.2-9.5-9.5-3.3,4.2h0Z"/>
          </g>
          <g>
            <polygon class="st2" points="228 104.5 240.3 119.2 243.1 99 238.9 93.6 228 104.5"/>
            <path class="st0" d="M240.9,121.6l-14.3-17.1,12.3-12.4,5.2,6.7-3.3,22.8h0ZM229.3,104.6l10.3,12.2,2.5-17.5-3.3-4.2-9.5,9.5h0Z"/>
          </g>
        </g>
        <g>
          <path class="st2" d="M192,121.2l-2.4-7.8c-.7-1.8-2.3-3.2-4.2-3.6,0,0,0-.2,0-.3l-.6-1.4c-.8-1.9-2.5-3.3-4.6-3.6-.2,0-.3,0-.5,0,0,0,0-.1,0-.2l-.6-1.4c-.7-1.8-2.3-3.1-4.2-3.6l9.3-14.6c.8-1.3.9-2.9.3-4.3-.6-1.4-1.9-2.3-3.4-2.6-1.5-.2-3,.3-4,1.4l-25.3,27.6c0,0-.1.2-.2.3l-11.6,29.8-20.9,65.8-7.7,25.5c0,.3,0,.6.2.8.2.2.4.4.7.4h0l47.8-.8c.5,0,.9-.4.9-.9l3.4-61.7,4.1-2.2c5.1-2.7,9.2-6.9,11.9-12.1l1.2-2.3c2.6-5,3.4-10.9,2.4-16.4l-.6-3.5c3.1,0,5.9-1.8,7.2-4.7l1.5-3.2c0-.2.1-.4,0-.7h0Z"/>
          <g>
            <path class="st2" d="M169.8,105.4l13.5-21.2c.6-1,.7-2.3.2-3.4h0c-1.1-2.3-4.2-2.8-5.9-.9l-25.3,27.6-11.5,29.8-20.9,65.8,49.8-97.6h0Z"/>
            <path class="st0" d="M120,204.1c-.1,0-.2,0-.3,0-.5-.2-.8-.7-.6-1.2l20.9-65.8,11.6-29.8c0-.1.1-.2.2-.3l25.3-27.6c1-1.1,2.6-1.7,4.1-1.4,1.5.2,2.8,1.2,3.4,2.6.6,1.4.5,3-.3,4.3l-13.5,21.2c-.3.5-.9.6-1.4.3-.5-.3-.6-.9-.3-1.4l13.5-21.2c.5-.7.5-1.7.2-2.4-.4-.8-1.1-1.3-1.9-1.5-.9-.1-1.7.2-2.3.8l-25.2,27.5-11.5,29.6-20.8,65.8c-.1.4-.5.7-.9.7h0Z"/>
          </g>
          <g>
            <path class="st2" d="M159.7,111.5l10.4-10c1.1-1.1,2.7-1.6,4.2-1.3h0c1.8.3,3.2,1.4,3.9,3.1l.6,1.4-19,6.9h0Z"/>
            <path class="st0" d="M159.7,112.5c-.3,0-.5,0-.7-.3-.4-.4-.4-1,0-1.4l10.4-10c1.3-1.3,3.2-1.9,5.1-1.6,2.1.3,3.9,1.7,4.6,3.7l.6,1.4c.2.5,0,1.1-.6,1.3-.5.2-1.1,0-1.3-.6l-.6-1.4c-.5-1.3-1.7-2.2-3.1-2.5-1.2-.2-2.5.2-3.4,1.1l-10.4,10c-.2.2-.4.3-.7.3h0Z"/>
          </g>
          <g>
            <path class="st2" d="M165.4,116.8l10.4-10c1.1-1.1,2.7-1.6,4.2-1.3h0c1.8.3,3.2,1.4,3.9,3.1l.6,1.4-19,6.9h0Z"/>
            <path class="st0" d="M165.4,117.8c-.3,0-.5,0-.7-.3-.4-.4-.4-1,0-1.4l10.4-10c1.3-1.3,3.2-1.9,5.1-1.6,2.1.3,3.9,1.7,4.6,3.7l.6,1.4c.2.5,0,1.1-.6,1.3-.5.2-1.1,0-1.3-.6l-.6-1.4c-.5-1.3-1.7-2.2-3.1-2.5-1.2-.2-2.5.2-3.4,1.1l-10.4,10c-.2.2-.4.3-.7.3h0Z"/>
          </g>
          <g>
            <path class="st2" d="M170.2,122.1l10.4-10c1.1-1.1,2.7-1.6,4.2-1.3h0c1.8.3,3.2,1.4,3.9,3.1l2.4,7.7-1.5,3.2c-1.3,2.9-4.3,4.5-7.4,4.1h0l.9,4.7c1,5.4.2,10.9-2.3,15.8l-1.2,2.3c-2.5,5-6.5,9-11.5,11.7l-4.6,2.4-3.4,62.2,10.1-105.7h0Z"/>
            <path class="st0" d="M160.1,228.8h0c-.6,0-1-.5-.9-1.1l3.4-62.2c0-.3.2-.7.5-.8l4.6-2.4c4.8-2.5,8.6-6.4,11.1-11.2l1.2-2.3c2.4-4.7,3.2-10.1,2.2-15.2l-.9-4.7c0-.3,0-.7.3-.9.2-.2.6-.3.9-.3,2.6.4,5.3-1,6.4-3.5l1.3-2.9-2.3-7.3c-.5-1.2-1.7-2.2-3.1-2.4-1.2-.2-2.5.2-3.4,1.1l-10.4,10c-.4.4-1,.4-1.4,0-.4-.4-.4-1,0-1.4l10.4-10c1.3-1.3,3.2-1.9,5.1-1.6,2.1.3,3.9,1.7,4.6,3.7l2.4,7.8c0,.2,0,.5,0,.7l-1.5,3.2c-1.3,2.8-4.1,4.7-7.1,4.7l.6,3.4c1.1,5.6.2,11.4-2.4,16.5l-1.2,2.3c-2.6,5.2-6.8,9.3-11.9,12.1l-4.1,2.2-3.4,61.6c0,.5-.5.9-1,.9h0Z"/>
          </g>
          <g>
            <path class="st2" d="M185.4,120.6s-4.1,3.2-3.4,7.7l3.4-7.7Z"/>
            <path class="st0" d="M182,129.3c-.5,0-.9-.4-1-.9-.7-5,3.6-8.5,3.8-8.6.4-.3,1.1-.3,1.4.2.3.4.3,1.1-.2,1.4,0,0-3.6,3-3.1,6.8,0,.6-.3,1.1-.9,1.1h-.1,0Z"/>
          </g>
        </g>
        <g>
          <ellipse class="st0" cx="87.5" cy="75.3" rx="21.6" ry="17.9"/>
          <g>
            <polygon class="st2" points="51.4 192.6 94 175.7 94.9 133 55.2 132.1 51.4 192.6"/>
            <path class="st0" d="M51.4,193.6c-.2,0-.4,0-.6-.2-.3-.2-.4-.5-.4-.9l3.8-60.6c0-.5.5-.9,1-.9l39.7.9c.3,0,.5.1.7.3.2.2.3.4.3.7l-1,42.8c0,.4-.3.8-.6.9l-42.5,16.9c-.1,0-.2,0-.4,0h0ZM56.2,133.1l-3.7,58.1,40.5-16.1.9-41.1-37.8-.9h0Z"/>
          </g>
          <g>
            <path class="st2" d="M65,147.7c-9.1-2.9-17.3-9.3-22.3-18.5-10.2-18.6-3.6-41.3,14.2-51.6,29.2-16.9,48.2,7.1,50.3,13.1.5,1.4,1,2.7,1.4,4,1.1,2.1,1.9,4.2,2.5,6.3,2,4.4,4.2,7.6,7.4,8.7,4.7,1.6,2.2,38.3-25.3,35.6l-28.2,2.4h0Z"/>
            <path class="st0" d="M65,148.7c0,0-.2,0-.3,0-9.8-3.1-17.9-9.8-22.9-19-10.4-19-4-42.2,14.6-52.9,11.1-6.4,21.8-7.7,31.9-4,11.1,4.1,18.4,13.5,19.8,17.6.5,1.4.9,2.7,1.4,3.9,1,2.1,1.9,4.2,2.6,6.4,2.2,4.7,4.2,7.2,6.7,8.1,2.9,1,3.2,8.4,1.7,15.1-1.4,6.4-4.3,12.1-8.1,16-5,5.1-11.5,7.3-19.3,6.5-.6,0-.9-.5-.9-1.1,0-.6.5-.9,1.1-.9,18.8,1.9,24.1-15.6,25.3-20.9,1.6-7.3.5-12.4-.4-12.7-3.1-1.1-5.5-3.9-7.9-9.2,0,0,0,0,0-.1-.6-2.1-1.5-4.2-2.5-6.2,0,0,0,0,0-.1-.5-1.3-.9-2.6-1.4-4-1-2.8-7.5-12.2-18.6-16.4-9.5-3.5-19.7-2.2-30.2,3.8-17.6,10.2-23.7,32.2-13.8,50.2,4.8,8.7,12.5,15.1,21.8,18,.5.2.8.7.7,1.3-.1.4-.5.7-.9.7h0Z"/>
          </g>
          <path class="st0" d="M50.2,71.2c12.1-6.6,26.1-6.2,37.7-.2-3.6.9-7.1,2.2-10.5,4-22.9,12.5-30,43.5-15.9,69.3.8,1.4,1.6,2.8,2.5,4.1-11.9-2.2-22.8-9.7-29.2-21.3-11-20.2-4.2-45.2,15.4-55.9h0Z"/>
          <path class="st0" d="M90.5,68.4s-3.2,10.9-12.3,16.2c-4.8,2.8,4.4,1.9,3.7,7.6-5.3,42.8-8.7,50.9-8.7,50.9-.8,3.7-3.9,6.4-7.7,6.7l-11.3,1-3.6-10.4-5.8-44.7s23.2-33.4,45.6-27.4h0Z"/>
          <path class="st0" d="M112.6,128.1h-.1c-3.8-.4-5.8-3.9-5.9-4.1-.3-.5,0-1.1.4-1.4.5-.3,1.1,0,1.4.4,0,0,1.6,2.7,4.3,3,.6,0,.9.6.9,1.1,0,.5-.5.9-1,.9h0Z"/>
          <path class="st0" d="M96.2,98.9c-.5,0-.9-.4-1-.9-.2-1.8.9-4.2,2.8-5.9,2.1-1.8,4.6-2.4,7.1-1.7.5.2.8.7.7,1.2-.2.5-.7.8-1.2.7-2.5-.7-4.3.5-5.2,1.3-1.5,1.3-2.3,3.2-2.2,4.1,0,.6-.3,1.1-.9,1.1h-.1Z"/>
          <path class="st0" d="M104.3,104c.7.9,1.8,1.3,2.4.8s.7-1.6,0-2.6c-.7-.9-1.8-1.3-2.4-.8s-.7,1.6,0,2.6Z"/>
          <path class="st0" d="M80.4,88.3s15.5,11.3,13.5,19.3c-1.9,8.1-16.1,9.7-14.5,23.5,1.6,13.8,3.9,20.6,20.7,21.5,22.4,1.2,30.5,21.7,30.5,34.2s-57.3-18.3-57.3-18.3c0,0-19.6-20.3,7.1-80.2h0Z"/>
          <path class="st0" d="M69.2,65.2c-10.6-5.5-48,5.8-43.8,43.8,2.1,18.9,6.4,47.3.6,57s-20.9,20-13.5,27.7,48,12.2,53.5,6.4,23.8-24.8,2.9-59.9.6-52.5,2.9-53.8c2.2-1.3,13-13.2-2.6-21.2h0Z"/>
          <circle class="st2" cx="81.2" cy="121.7" r="11"/>
          <path class="st0" d="M86.1,125.4c-.6,0-1-.4-1-1,0-3.1-5-5.3-6.9-5.9-.5-.2-.8-.7-.7-1.2s.7-.8,1.2-.7c.3,0,8.3,2.6,8.3,7.8s-.4,1-1,1Z"/>
          <path class="st1" d="M4.7,230.3l8.5-47.4c3-16.6,18.2-28,34.9-26.4l50.1,5c8,.8,15.3,4.6,20.5,10.7l48.2,58.1H4.7Z"/>
          <circle class="st0" cx="54.2" cy="179.2" r="32" transform="translate(-96.3 67.8) rotate(-36.7)"/>
          <circle class="st0" cx="29.7" cy="181.4" r="29.7"/>
          <circle class="st0" cx="30.3" cy="155.7" r="18.9" transform="translate(-101.2 67) rotate(-45)"/>
          <path class="st0" d="M100.6,229.7c-.3,0-.7-.2-.8-.5l-9.1-14.2c-.3-.5-.2-1.1.3-1.4.5-.3,1.1-.2,1.4.3l9.1,14.2c.3.5.2,1.1-.3,1.4-.2.1-.3.2-.5.2h0Z"/>
        </g>
      </g>
    </g>
  </g>
</svg>