<?xml version="1.0" encoding="UTF-8"?>
<svg id="Layer_1" xmlns="http://www.w3.org/2000/svg" version="1.1" viewBox="0 0 217 217">
  <!-- Generator: Adobe Illustrator 29.1.0, SVG Export Plug-In . SVG Version: 2.1.0 Build 142)  -->
  <defs>
    <style>
      .st0 {
        fill: #303030;
      }

      .st1 {
        fill: #26a8df;
      }

      .st2 {
        fill: #fafafa;
      }
    </style>
  </defs>
  <g id="Layer_2">
    <g id="_Layer_">
      <g>
        <g>
          <path class="st2" d="M108.5,216c-.8,0-1.6,0-2.5,0C46.8,214.6-.3,165.3,1,106.1c.6-28.2,12.1-54.7,32.4-74.4C53.7,11.9,80.3,1,108.5,1s1.7,0,2.5,0c28.7.6,55.4,12.5,75.2,33.2,19.9,20.8,30.4,48,29.8,76.7-.6,28.2-12.2,54.7-32.4,74.4-20.2,19.7-46.9,30.6-75,30.6h0Z"/>
          <path class="st0" d="M108.5,2c.8,0,1.6,0,2.5,0,58.7,1.3,105.4,50.2,104,108.9-1.3,57.9-48.9,104.1-106.5,104.1s-1.6,0-2.5,0C47.3,213.7.7,164.8,2,106.1,3.3,48.2,50.8,2,108.5,2h0ZM108.5,0C80,0,53.2,11,32.7,30.9,12.3,50.9.7,77.6,0,106c-1.4,59.8,46.2,109.6,106,111,.8,0,1.7,0,2.5,0,28.4,0,55.3-11,75.8-30.9,20.5-20,32.1-46.6,32.7-75.1.7-28.9-10-56.4-30.1-77.4C166.9,12.6,139.9.7,111,0c-.8,0-1.7,0-2.5,0h0Z"/>
        </g>
        <g>
          <path class="st1" d="M149,44.5l-10.5,3c-4.5,1.3-11.7,1-16.1-.6h0c-4.4-1.6-10.8-.5-14.4,2.6l-2.5,2.2c-3.5,3.1-5,7.8-3.4,10.5s-.3,6.8-4.4,9h-.1c-4.1,2.3-7.3,5.2-7.1,6.5s3.8,3,8,3.8c4.2.8,11,3.4,15,5.7l3.5,2c4,2.3,3.6,5.1-.9,6.1h-.2c-4.6,1.1-9.9.8-11.8-.5-1.9-1.3-6-1.9-9.2-1.2s-7.1,4.8-8.8,9.1l-2,5.1c-1.7,4.3-1.8,10.2-.2,13.1s5.9,5.4,9.6,5.6c3.7.2,7.4,4.2,8.1,8.8l1.7,11c.7,4.6,2.7,11.9,4.5,16.2l.4,1c1.8,4.3,5.1,6.7,7.3,5.4,2.2-1.4,5.5-6,7.4-10.2l12.3-28.4c1.9-4.3,1-8.8-1.8-10-2.8-1.2-5.7-5.3-6.3-9.2-.6-3.9,1.9-5.8,5.5-4.3,3.7,1.5,7.6,3,8.8,3.3,1.1.3,4-1.8,6.4-4.6s6.1-1.9,8.3,2.3l1.5,2.8c2.2,4.1,7.2,5.4,11.1,2.9l.5-.4c3.9-2.5,8.8-1.1,10.8,3.1l2.1,4.4c2,4.2,5.4,4.3,7.6.1l8.3-15.9c2.1-4.1,6.3-10.5,9.2-14.1l5-6.3c-5.2-22.2-17.4-41.7-34.1-56.2l-14.2,9c-3.7,2.8-10.5,6.1-14.9,7.4h0Z"/>
          <path class="st1" d="M16.4,111.9c-2.5-3.3-4.8-6.7-4.8-7s.8-2.4,1.6-4.7c.9-2.3,2.1-4.9,2.4-5,.3-.1,3.7-.5,7.5-.7,3.8-.3,9.8-3,13.3-6l11.9-10.2c3.5-3,4.1-8.5,1.2-12.2l-1.7-2.2c-2.9-3.7-6.7-4.4-8.5-1.6s-3.6,5.4-4,5.8h-1c-.5-.4-2.6-3.5-4.5-6.8-2-3.3-3.8-6.8-3.7-7.1,0-.3,2-3.9,4.4-7.9l2.5-4.3c1.7-2.9,2.8-7.4,3-11.4C15.7,49.5,2.7,76.3,2,106.1c0,.6,0,1.1,0,1.6,3.7,2.3,8.4,5,11.5,6.5,4,2,5.3.9,2.9-2.4h0Z"/>
          <path class="st1" d="M19.3,114.4c-4.4-1.5-8.1,1.2-8,5.9v7.2c0,4.7,3,10.9,6.6,13.8l2.9,2.3c3.6,2.9,6.7,5.4,6.8,5.5.1.1,1.8,3.9,3.7,8.2l2.7,6.1c1.9,4.3,5.5,9.7,8,12,2.5,2.3,4.7.4,4.9-4.3l1.3-38.7c.1-4.7-3.4-9.7-7.8-11.1l-20.9-6.8h0Z"/>
          <path class="st1" d="M82.9,33.4l1.6-6.6c1.1-4.5-1.6-7.8-6.1-7.2-4.5.6-17.6,6.7-17.6,6.7-4.4,1.5-6.4,6.3-4.5,10.5l4.5,9.9c1.9,4.2,6.5,5.4,10.2,2.6l3.2-2.5c3.7-2.9,7.6-8.9,8.7-13.4h0Z"/>
        </g>
      </g>
    </g>
  </g>
</svg>