<?xml version="1.0" encoding="UTF-8"?>
<svg id="Layer_1" xmlns="http://www.w3.org/2000/svg" version="1.1" viewBox="0 0 281.2 238">
  <!-- Generator: Adobe Illustrator 29.1.0, SVG Export Plug-In . SVG Version: 2.1.0 Build 142)  -->
  <defs>
    <style>
      .st0 {
        fill: #303030;
      }

      .st1 {
        fill: #afd3f0;
      }

      .st2 {
        fill: #fafafa;
      }
    </style>
  </defs>
  <g id="Layer_2">
    <g id="_Layer_">
      <g>
        <path class="st0" d="M193.5,208.5l61.1,26.4c6.1,2.5,10.5-3.7,16.3-6.7h0c9-4.6,11.6-14.2,5.8-21.3l-47.4-58.3c-9.5-11.7-24.2-20-41.2-23.1l-48.9-6.1v109.6h54.9l-.5-20.5h0Z"/>
        <path class="st0" d="M79.9,211.8l-33.1,17.2c-13.9,6.2-33.4,2.3-39.2-.7l6.5,2.5c-9-4.6-18.1-16.7-12.3-23.9l47.4-58.3c9.5-11.7,24.2-20,41.2-23.1l48.9-9.1v112.6h-60.1l.6-17.2h0Z"/>
        <g>
          <path class="st2" d="M139.8,222.9h0c-6.6-5.8-15-9.1-23.7-9.6l-51-2.4,1.7,9.5,73,2.5Z"/>
          <path class="st0" d="M139.8,223.9h0l-73-2.5c-.5,0-.9-.4-.9-.8l-1.7-9.5c0-.3,0-.6.2-.8s.5-.3.8-.3l51,2.4c8.9.4,17.6,3.9,24.3,9.8.3.3.4.7.3,1.1-.1.4-.5.6-.9.6h0ZM67.6,219.4l69.2,2.4c-6-4.5-13.3-7.1-20.8-7.4l-49.7-2.4,1.3,7.5h0Z"/>
        </g>
        <g>
          <path class="st0" d="M196.6,56.2c.5-2.6-.1-5.2-1.6-7.4-1.2-1.7-2.9-2.9-4.8-3.6.3-.3.7-.7.9-1.1,1.5-2.2,2.1-4.8,1.6-7.4-.8-4.8-4.9-8.2-9.8-8.2h0c1.2-2.8,1.1-6.1-.5-8.9-1.8-3.1-5.1-5-8.6-5s-2.3.2-3.4.6c0-.5,0-1,0-1.4-.2-2.6-1.5-5-3.5-6.7-1.8-1.5-4.1-2.3-6.4-2.3s-4.6.9-6.4,2.4c-.9-2.9-3-5.4-6.1-6.5-1.1-.4-2.2-.6-3.4-.6-3.6,0-6.9,2-8.6,5-1.8-2.4-4.7-4-7.9-4-4.9,0-9,3.6-9.8,8.3-1.6-1.1-3.5-1.7-5.5-1.7s-2.3.2-3.4.6c-2.5.9-4.5,2.7-5.6,5.1-.9,1.9-1.1,3.9-.8,6-.7-.2-1.5-.3-2.3-.3-2.3,0-4.6.8-6.4,2.3-2,1.7-3.3,4.1-3.5,6.7-.2,2.1.3,4.1,1.3,5.8-3.1.4-5.9,2.2-7.4,4.9-1.3,2.3-1.7,5-1,7.5.5,2,1.7,3.8,3.3,5.1-2.7,1.4-4.8,3.9-5.3,7.1-.5,2.6.1,5.2,1.6,7.4,1.2,1.7,2.9,2.9,4.8,3.6-2.1,2.2-3.2,5.3-2.6,8.5.8,4.8,4.9,8.2,9.8,8.2h0c-1.2,2.8-1.1,6.1.5,8.9,1.8,3.1,5.1,5,8.6,5s2.3-.2,3.4-.6c0,.5,0,1,0,1.4.2,2.6,1.5,5,3.5,6.7,1.8,1.5,4.1,2.3,6.4,2.3s4.6-.9,6.4-2.4c.9,2.9,3,5.4,6.1,6.5,1.1.4,2.2.6,3.4.6,3.6,0,6.9-2,8.6-5,1.8,2.4,4.7,4,7.9,4,4.9,0,9-3.6,9.8-8.3,1.6,1.1,3.5,1.7,5.5,1.7s2.3-.2,3.4-.6c2.5-.9,4.5-2.7,5.6-5.1.9-1.9,1.1-3.9.8-6,.7.2,1.5.3,2.3.3,2.3,0,4.6-.8,6.4-2.3,3.8-3.2,4.6-8.5,2.2-12.6,3.1-.4,5.9-2.2,7.4-4.9,1.3-2.3,1.7-5,1-7.5-.5-2-1.7-3.8-3.3-5.1,2.7-1.4,4.8-3.9,5.4-7.1h0Z"/>
          <g>
            <g>
              <path class="st2" d="M148.1,121.2c0-.6.1-1.2.1-1.8v-46.5c0-7.1-5.7-12.8-12.8-12.8-7.1,0-12.8,5.7-12.8,12.8v46.5c0,.5,0,1.6,0,2.1-4.1.3-7.4.5-8.4.8-.1,0-.2.2,0,.3.8.9,3.6,3.8,4.8,4.8,6.7,5.3,15.2,7.3,23.1,5.5,4.3-1,8.3-3.2,12-5.7,1.6-1.1,3.1-2.1,4.6-3.4.2-.2.4-.4.6-.5.1-.1.2-.2.4-.4-3.6-.7-7.6-1.3-11.7-1.7h0Z"/>
              <path class="st0" d="M136.3,134.5c-6.4,0-12.7-2.2-17.9-6.4-1.3-1-4.2-3.9-5-5-.2-.3-.3-.7-.2-1.1.1-.4.4-.7.8-.8.9-.3,3.1-.4,7.2-.8h.4v-47.7c0-7.6,6.2-13.8,13.8-13.8,7.6,0,13.8,6.2,13.8,13.8v46.5c0,.3,0,.6,0,.9,3.8.4,7.5.9,10.8,1.6.4,0,.7.3.8.7s0,.7-.3,1h-.1c0,.2-.2.3-.3.4-.2.2-.4.4-.6.6-1.5,1.3-3.1,2.3-4.6,3.4h0c-4.6,3.2-8.6,5.1-12.4,5.9-2,.4-4,.7-6.1.7h0ZM116,123c1.1,1.2,2.8,2.9,3.7,3.6,6.4,5.1,14.5,7.1,22.2,5.3,3.6-.8,7.3-2.6,11.7-5.6h0c1.3-.9,2.6-1.9,3.9-2.9-3-.5-6.2-1-9.6-1.3-.3,0-.5-.2-.7-.4-.2-.2-.2-.5-.2-.8,0-.6.1-1.2.1-1.7v-46.5c0-6.5-5.3-11.8-11.8-11.8-6.5,0-11.8,5.3-11.8,11.8v46.9c0,.5,0,1.2,0,1.5,0,.3,0,.5-.2.8s-.4.3-.7.4h-1.3c-2.1.3-4.1.4-5.4.6h0Z"/>
            </g>
            <g>
              <path class="st2" d="M135.4,60h0,0Z"/>
              <path class="st0" d="M135.5,61h-.1c-.5,0-.9-.5-.9-1,0-.5.4-.9.9-.9h.1c.6,0,1,.4,1,1s-.4,1-1,1h0Z"/>
            </g>
          </g>
          <g>
            <path class="st2" d="M115.4,67c1.6,5.9.4,11.3-2.7,12.1-3.1.8-6.9-3.2-8.4-9.1-1.6-5.9-.4-11.3,2.7-12.1,3.1-.8,6.9,3.2,8.4,9.1Z"/>
            <path class="st0" d="M111.9,80.2c-1.6,0-3.2-.8-4.7-2.5-1.7-1.8-3.1-4.5-3.9-7.5-1.8-6.5-.3-12.4,3.4-13.3,3.7-1,7.9,3.3,9.7,9.8h0c1.8,6.5.3,12.4-3.4,13.3-.4,0-.7.2-1.1.2h0ZM107.7,58.8c-.2,0-.4,0-.5,0-2.2.6-3.5,5.2-2,10.9.7,2.7,1.9,5,3.4,6.6,1.3,1.4,2.7,2.1,3.8,1.8,2.2-.6,3.5-5.2,2-10.9h0c-1.4-5.2-4.5-8.5-6.7-8.5Z"/>
          </g>
          <g>
            <path class="st2" d="M154.2,67c-1.6,5.9-.4,11.3,2.7,12.1s6.9-3.2,8.4-9.1c1.6-5.9.4-11.3-2.7-12.1-3.1-.8-6.9,3.2-8.4,9.1Z"/>
            <path class="st0" d="M157.7,80.2c-.4,0-.7,0-1.1-.1-1.9-.5-3.2-2.3-3.8-4.9-.5-2.4-.4-5.4.4-8.4.8-3,2.2-5.7,3.9-7.5,1.9-2,3.9-2.8,5.8-2.3,3.7,1,5.1,6.9,3.4,13.3-1.6,5.9-5.2,9.9-8.6,9.9h0ZM161.9,58.8c-1,0-2.1.6-3.2,1.8-1.5,1.6-2.7,4-3.4,6.6h0c-.7,2.7-.9,5.3-.4,7.5.4,1.9,1.3,3.1,2.4,3.4,2.2.6,5.7-2.7,7.2-8.4,1.5-5.7.2-10.3-2-10.9-.2,0-.4,0-.6,0h0ZM154.2,67h0Z"/>
          </g>
          <g>
            <path class="st2" d="M134.9,110.5h0c-13.3,0-24.1-15.6-24.1-28.9v-28.5c0-13.3,15.2-5.8,24.1-24.1h0c4.1,13.4,24.1,10.8,24.1,24.1v28.5c0,13.3-10.8,28.9-24.1,28.9Z"/>
            <path class="st0" d="M134.9,111.5c-13.9,0-25.1-16.3-25.1-29.9v-28.5c0-7.2,4.2-8.9,9-10.9,4.8-2,10.8-4.6,15.1-13.6.2-.4.6-.6,1-.6.4,0,.8.3.9.7,1.8,6.1,7.2,8.7,12.4,11.2,5.7,2.8,11.7,5.7,11.7,13.2v28.5c0,13.5-11.2,29.9-25.1,29.9h0ZM134.7,31.5c-4.6,8.1-10.4,10.5-15.1,12.5-4.7,2-7.8,3.3-7.8,9.1v28.5c0,12.6,10.3,27.9,23.1,27.9s23.1-15.2,23.1-27.9v-28.5c0-6.2-4.9-8.6-10.5-11.3-4.8-2.3-10.1-4.9-12.6-10.3h0Z"/>
          </g>
          <path class="st0" d="M119.3,68c.6,1.6,2.1,2.6,3.2,2.1,1.2-.4,1.6-2.1,1-3.7-.6-1.6-2.1-2.6-3.2-2.1-1.2.4-1.6,2.1-1,3.7Z"/>
          <path class="st0" d="M127.3,62.8c-.2,0-.4,0-.6-.2-1.1-.8-2.6-1.4-4.3-1.5-2-.1-3.9.4-5.1,1.3-.4.3-1.1.3-1.4-.1-.4-.4-.3-1.1.1-1.4,1.6-1.3,4-2,6.6-1.8,2.1.1,3.9.8,5.4,1.9.4.3.5,1,.2,1.4-.2.2-.5.4-.8.4h0Z"/>
          <path class="st0" d="M145.1,68c.6,1.6,2.1,2.6,3.2,2.1,1.2-.4,1.6-2.1,1-3.7-.6-1.6-2.1-2.6-3.2-2.1-1.2.4-1.6,2.1-1,3.7Z"/>
          <path class="st0" d="M153,62.8c-.2,0-.4,0-.6-.2-1.1-.8-2.6-1.4-4.3-1.5-2-.1-3.9.4-5.1,1.3-.4.3-1.1.3-1.4-.1-.4-.4-.3-1.1.1-1.4,1.6-1.3,4-2,6.6-1.8,2.1.1,3.9.8,5.4,1.9.4.3.5,1,.2,1.4-.2.2-.5.4-.8.4h0Z"/>
          <path class="st0" d="M133.6,78.9c-.7,0-1.3-.3-1.7-.8-.8-1-.7-2.3-.7-3,.3-4.5.7-9,1.2-13.5,0-.6.6-.9,1.1-.9.6,0,.9.6.9,1.1-.5,4.4-.9,8.9-1.2,13.4,0,.6,0,1.3.2,1.6,0,0,0,0,.2,0,.1-.4.6-.7,1.1-.7.6,0,.9.6.8,1.1-.1.7-.6,1.2-1.3,1.4-.2,0-.4,0-.6,0h0Z"/>
          <path class="st0" d="M138.5,86.5c-.8,0-1.6-.1-2.3-.4-.5-.2-.8-.8-.6-1.3.2-.5.8-.8,1.3-.6,1.2.5,2.7.4,4.1-.3,1.3-.7,2.3-1.8,2.6-3.1.1-.5.7-.8,1.2-.7s.9.7.7,1.2c-.5,1.8-1.8,3.4-3.7,4.4-1.1.6-2.2.8-3.4.8h0Z"/>
          <path class="st0" d="M112,58.4s1.9-15.6,6.8-13.5c4.9,2.1,5.1,6.6,12.7,7.1,7.6.5,12.5-2.1,15.2.5s7.6,8.6,14.1,4.3c6.5-4.3,7.2-14.6-3.2-19.9-10.3-5.4-25.9-6.2-34.6-6.7-8.7-.5-17.7,15.3-11.2,28.1h0Z"/>
        </g>
        <g>
          <g>
            <g>
              <path class="st2" d="M37.3,122.2l4.8-4.1c11.7-10,17.8-25.2,16.2-40.5l-3.3-32.3c-.5-2.8-3.6-4.4-6.2-3.1-1.4.7-2.2,2-2.4,3.6l-2.1,16.3c-.8-1.9-2.6-3.2-4.8-3.2-2.8,0-5,2.2-5.2,4.9v1.1c-1-.5-2-.8-3.1-.7-2.6.2-4.6,2.3-4.8,4.9l-.2,2.6c-2.7-.9-5.7.6-6.6,3.3l-1.7,4.9c-.7,2.1-.7,4.4.3,6.4.8,1.7,1.8,2.2,2.8,2.4l-.7,12.6c-.6,10.3,6.8,19.3,17,20.9h0Z"/>
              <path class="st0" d="M37.3,123.2s-.1,0-.1,0c-10.8-1.6-18.5-11-17.8-21.9l.7-11.8c-.9-.4-1.9-1.1-2.6-2.7-1-2.2-1.1-4.7-.3-7.2l1.7-4.9c.9-2.8,3.8-4.5,6.6-4.2v-1.4c.4-3.1,2.8-5.6,5.8-5.8.8,0,1.5,0,2.2.2.4-3.2,3.1-5.6,6.2-5.6h0c1.6,0,3,.6,4.1,1.6l1.8-13.8c.2-1.9,1.4-3.5,3-4.3,1.5-.7,3.2-.7,4.7,0s2.5,2.1,2.9,3.8l3.3,32.4c1.6,15.7-4.6,31.2-16.6,41.4l-4.8,4.1c-.2.2-.4.2-.6.2h0ZM24.5,72.4c-1.8,0-3.4,1.1-4,2.9l-1.6,4.9c-.6,1.9-.6,4,.2,5.7.7,1.4,1.4,1.7,2.1,1.9.5.1.8.6.8,1l-.7,12.6c-.6,9.7,6.2,18.1,15.7,19.8l4.4-3.8c11.5-9.8,17.4-24.6,15.9-39.7l-3.3-32.3c-.2-.9-.8-1.8-1.8-2.3-.9-.5-2-.5-3,0-1,.5-1.7,1.6-1.9,2.8l-2.1,16.3c0,.4-.4.8-.9.9-.4,0-.9-.2-1.1-.6-.6-1.6-2.2-2.6-3.9-2.6-2.1,0-4,1.8-4.2,4v1.1c-.1.3-.3.6-.6.8s-.7.2-1,0c-.7-.4-1.6-.6-2.4-.5-2,.2-3.7,1.9-3.9,4l-.2,2.6c0,.3-.2.6-.4.7s-.6.2-.9.1c-.4-.1-.9-.2-1.3-.2h0Z"/>
            </g>
            <path class="st0" d="M34.8,84.5c-.3,0-.6-.1-.8-.4-.9-1.2-1.3-2.6-1.2-4l.5-15.8c0-.5.5-1,1-1h0c.6,0,1,.5,1,1l-.5,15.8c0,1,.2,2,.8,2.8.3.4.2,1.1-.2,1.4-.2.1-.4.2-.6.2h0Z"/>
            <path class="st0" d="M44.4,68.5h0c-.6,0-1-.5-1-1v-5.1c0-.6.5-1,1.1-1,.6,0,1,.5,1,1v5.1c0,.6-.5,1-1.1,1Z"/>
            <path class="st0" d="M22.2,89.8c-.7,0-1.3-.1-2-.3-.5-.2-.8-.7-.6-1.3.2-.5.7-.8,1.3-.6,1.4.5,2.9.2,4-.7.4-.3,1.1-.3,1.4.2.4.4.3,1.1-.1,1.4-1.1.9-2.5,1.4-3.9,1.4h0Z"/>
            <path class="st0" d="M31,103.5c-.4,0-.9-.3-1-.8l-.2-1.1c-1.9-7.8.7-15.8,6.7-21.1l1.8-10.4c.3-2,1.9-3.5,3.8-3.8,2.4-.4,4.7,1.1,5.4,3.4l5.6,20.6c.1.5-.2,1.1-.7,1.2-.5.1-1.1-.2-1.2-.7l-5.6-20.6c-.4-1.4-1.7-2.2-3.1-2-1.1.2-2,1.1-2.2,2.2l-1.9,10.8c0,.2-.2.4-.3.6-5.6,4.8-8,12.2-6.3,19.4l.2,1.1c.1.5-.2,1.1-.7,1.2,0,0-.2,0-.2,0h0Z"/>
            <path class="st0" d="M30.6,92.2c-.2,0-.4,0-.6,0-1.7-.2-3.2-.9-4.2-2.2s-1.6-2.9-1.4-4.6l.8-13.6c0-.6.5-1,1.1-.9.6,0,1,.5.9,1.1l-.8,13.6c-.1,1.2.2,2.2,1,3.1.7.9,1.7,1.4,2.9,1.5.2,0,.4,0,.6,0,.6,0,1,.4,1.1.9,0,.6-.4,1-.9,1.1h-.3Z"/>
          </g>
          <g>
            <path class="st2" d="M26.1,116.7L3.4,208.3s1.1,15.5,16,18.6c14.1,2.9,27.4-7.6,28.5-22l7.7-106.5-29.5,18.3h0Z"/>
            <path class="st0" d="M24.1,228.4c-1.6,0-3.3-.2-4.9-.5-15.5-3.2-16.8-19.3-16.8-19.5,0,0,0-.2,0-.3l22.7-91.6c.1-.5.7-.9,1.2-.7s.9.7.7,1.2L4.5,208.4c.1,1.7,1.8,14.7,15.2,17.5,6.3,1.3,12.9-.2,18.1-4.1,5.4-4.1,8.8-10.2,9.2-17l7.7-106.5c0-.6.5-1,1.1-.9.6,0,1,.5.9,1.1l-7.7,106.5c-.5,7.3-4.2,14-10,18.4-4.3,3.2-9.5,5-14.8,5h0Z"/>
          </g>
        </g>
        <g>
          <path class="st2" d="M238.8,180.3l22.6,15c7.1,4.7,13.1,11.1,17.2,18.6h0c3.4,7.2,1,15.8-5.6,20.2h0c-6.5,4.4-15.1,3.5-20.6-2.1l-27.2-27.8,13.5-23.9h0Z"/>
          <path class="st0" d="M264,238c-4.5,0-8.9-1.8-12.3-5.2l-27.2-27.8c-.3-.3-.4-.8-.2-1.2l13.5-23.9c.1-.2.4-.4.6-.5.3,0,.6,0,.8.1l22.6,15c7.3,4.8,13.3,11.4,17.6,19,3.6,7.8,1.1,16.8-5.9,21.6-2.9,2-6.3,2.9-9.6,2.9h0ZM226.6,204.1l26.6,27.3c5.1,5.2,13.2,6.1,19.3,2,6.2-4.2,8.4-12.2,5.3-19-4-7.3-9.9-13.6-16.9-18.2l-21.7-14.4-12.6,22.4h0Z"/>
        </g>
        <rect class="st1" x="55.5" y="224.7" width="162.9" height="6.5"/>
        <path class="st2" d="M135.9,231.2c-.6,0-1-.4-1-1v-2.6c0-.6.4-1,1-1s1,.4,1,1v2.6c0,.6-.4,1-1,1Z"/>
        <path class="st2" d="M142.4,231.2c-.6,0-1-.4-1-1v-2.6c0-.6.4-1,1-1s1,.4,1,1v2.6c0,.6-.4,1-1,1Z"/>
        <g>
          <path class="st2" d="M138,223.2l71.2-23.2-7.9-43.1-7,2.4c-22.2,7.6-39.9,24-48.5,44.9l-7.8,19h0Z"/>
          <path class="st0" d="M138,224.2c-.3,0-.5-.1-.7-.3-.3-.3-.3-.7-.2-1.1l7.8-19c8.7-21.2,26.6-37.7,49.1-45.4l7-2.4c.3,0,.6,0,.8,0,.2.2.4.4.5.7l7.9,43.1c0,.5-.2,1-.7,1.1l-71.2,23.2c-.1,0-.2,0-.3,0h0ZM200.5,158.2l-5.9,2c-22,7.5-39.4,23.7-47.9,44.3l-7,17,68.3-22.2-7.5-41.1h0Z"/>
        </g>
        <g>
          <path class="st2" d="M214,192.8l4.1,1s-1.1,12.4,10.9,14.1c2.9.4,13.8-11.1,14-18.3.5-14-3-35.2-14.8-37.1s-30.2-1.3-30.2-1.3c0,0-.9,9,5.6,9.6,9.1.8,18.5,3.9,18.5,3.9l-26.6,5.7s-.1,4.9,2.1,8.9,3.8,10.8,16.4,13.7h0Z"/>
          <path class="st0" d="M243.1,190.6c-.6,0-1-.4-1-1,0-9.9-1.4-33.2-14-36.2-10.2-2.4-25.6-1.5-29.6-1.2.2,2,1,6.5,4.6,7.3,2,.5,4.6.8,7.4,1.2,5.5.7,11.2,1.4,13.6,3.3.4.3.5,1,.2,1.4-.3.4-1,.5-1.4.2-2-1.6-7.6-2.3-12.6-2.9-2.9-.4-5.5-.7-7.6-1.2-6.1-1.4-6.2-9.8-6.2-10.2,0-.5.4-.9.9-1,.8,0,19.2-1.6,31.2,1.2,5.8,1.3,15.5,8.1,15.6,38.1,0,.6-.4,1-1,1h0Z"/>
          <path class="st0" d="M198.4,178.7c-.1,0-.2,0-.3,0-4.4-1.6-4.1-6.6-3.4-9.1.1-.4.4-.6.8-.7l35.9-5.9c.6,0,1.1.3,1.1.8,0,.5-.3,1.1-.8,1.2l-35.3,5.8c-.3,1.4-.7,5,2.3,6,.5.2.8.8.6,1.3-.1.4-.5.7-.9.7h0Z"/>
          <path class="st0" d="M205.2,186.7c-1.4,0-2.5,0-3.1,0-4.9-.5-6.4-7.7-6.4-8,0-.3,0-.6.2-.8.2-.2.4-.4.7-.4l36.9-4.3c.6,0,1.1.3,1.1.9s-.3,1-.9,1.1l-35.8,4.1c.6,2,2.1,5.1,4.4,5.3,4.1.4,30.8-.9,31-.9.6,0,1,.4,1.1.9,0,.6-.4,1-.9,1.1-.9,0-20,1-28.2,1h0Z"/>
          <path class="st0" d="M224.4,195.1c-8.3,0-20.7-1.3-22.8-9.1-.1-.5.2-1.1.7-1.2.5-.1,1.1.2,1.2.7,2.2,8.2,21,8,28.1,7.2.5,0,1,.3,1.1.9s-.3,1-.9,1.1c-.4,0-3.4.3-7.4.3h0Z"/>
          <path class="st0" d="M229.5,209.4h-.1c-.1,0-12-1.7-12-14.9s.4-1,1-1,1,.4,1,1c0,10.3,8.1,12.5,9.9,12.8,5.9-3.8,12.8-9.8,12.8-17.7,0-9.9-1.4-33.2-14-36.2-.5-.1-.9-.7-.8-1.2.1-.5.7-.9,1.2-.8,5.8,1.3,15.5,8.1,15.6,38.1,0,8.9-7.6,15.6-14.1,19.6-.2,0-.3.2-.5.2Z"/>
        </g>
        <g>
          <path class="st2" d="M210.7,216.8h-58c-4.8,0-9.4,1.8-12.9,5.2l-.8.7h0c-3.5-3.8-8.5-5.9-13.6-5.9h-62.1v7.9h147.5v-7.9h0Z"/>
          <path class="st0" d="M210.7,225.7H63.2c-.6,0-1-.4-1-1v-7.9c0-.6.4-1,1-1h62.1c5.1,0,10,2,13.7,5.5h0c3.7-3.6,8.5-5.5,13.6-5.5h58c.6,0,1,.4,1,1v7.9c0,.6-.4,1-1,1ZM64.2,223.7h145.5v-5.9h-57c-4.6,0-8.9,1.7-12.2,4.9l-.8.7c-.2.2-.5.3-.7.3-.3,0-.5-.1-.7-.3-3.3-3.6-8.1-5.6-12.9-5.6h-61.1v5.9h0Z"/>
        </g>
      </g>
    </g>
  </g>
</svg>