<?xml version="1.0" encoding="UTF-8"?>
<svg id="Layer_1" xmlns="http://www.w3.org/2000/svg" version="1.1" viewBox="0 0 297.6 233">
  <!-- Generator: Adobe Illustrator 29.1.0, SVG Export Plug-In . SVG Version: 2.1.0 Build 142)  -->
  <defs>
    <style>
      .st0 {
        fill: #303030;
      }

      .st1 {
        fill: #afd3f0;
      }

      .st2 {
        fill: #fafafa;
      }
    </style>
  </defs>
  <g id="Layer_2">
    <g id="_Layer_">
      <g>
        <g>
          <circle class="st0" cx="255.9" cy="68.6" r="8.5"/>
          <path class="st0" d="M273.6,91.4c0,9.7-7.9,21.2-17.6,21.2s-17.6-11.5-17.6-21.2,7.9-17.6,17.6-17.6,17.6,7.9,17.6,17.6Z"/>
          <path class="st0" d="M277.7,87.4h-43.5c-5.6,0-8.9,6.2-5.9,10.9l7.3,14.9h40.8l7.3-14.9c3-4.7-.3-10.9-5.9-10.9h0Z"/>
          <polygon class="st0" points="271.8 120.1 269.4 120.1 242.5 120.1 240 120.1 228.6 180.7 242.5 180.7 269.4 180.7 283.3 180.7 271.8 120.1"/>
          <path class="st0" d="M288,198.4v-5.5h-48.2c-14.1,0-25.4,11.4-25.4,25.4v14.7h83.3v-14.7c0-8.1-3.8-15.2-9.6-19.9h0Z"/>
          <g>
            <path class="st0" d="M232.3,111.4h37.1v13.9h-37.1c-1.1,0-1.9-.9-1.9-1.9v-10.1c0-1.1.9-1.9,1.9-1.9h0Z"/>
            <path class="st0" d="M279.6,125.3h-37.1v-13.9h37.1c1.1,0,1.9.9,1.9,1.9v10.1c0,1.1-.9,1.9-1.9,1.9h0Z"/>
          </g>
          <g>
            <path class="st0" d="M224.1,178.9h52.7v17.4h-52.7c-1.1,0-2-.9-2-2v-13.3c0-1.1.9-2,2-2h0Z"/>
            <path class="st0" d="M287.8,196.3h-37.8v-17.4h37.8c1.1,0,2,.9,2,2v13.3c0,1.1-.9,2-2,2h0Z"/>
          </g>
        </g>
        <g>
          <g>
            <path class="st2" d="M194,50.3l14.3-2,1,9.1c.1,6.3,3.5,12,8.9,15.2l21.1,12.3c2.1,1.2,4.7.3,5.6-2l.7-1.8c1.4-3.9.2-8.3-3.2-10.9l-9-6.9c-2.8-2.2-4.3-5.7-3.9-9.2h0c0,0,29.6,4.8,29.6,4.8l4,18.6c.7,3.1,2.6,5.7,5.3,7.2l1.1.7c2,1.2,4.5-.3,4.5-2.7l-.4-17.5,2.7-13.6c.9-4.4-.1-9.1-2.8-12.7v-.2c-.1,0,0-.9,0-.9.2-5.5-2.4-10.8-6.9-14l-9.1-6.4,12.3-2.8,10.2,10.7c2.2,1.9,5.3,2.5,8.1,1.5l2.3-.9c1.9-.7,2.5-3.2,1.1-4.7l-15.8-16.9c-2.4-2.6-6-3.8-9.5-3l-19,3.9c-9.7-3.6-20.2-3.9-30.1-.9l-16.6,4.9-14.2,2.9,8,38.2h0Z"/>
            <path class="st0" d="M271,86.8c-.7,0-1.4-.2-2-.5l-1.1-.7c-3-1.7-5.1-4.6-5.8-7.9l-3.9-18-27.8-4.6c0,2.9,1.3,5.6,3.5,7.3l9,6.9c3.7,2.8,5.1,7.7,3.5,12l-.7,1.8c-.5,1.3-1.6,2.4-2.9,2.9-1.4.5-2.8.3-4.1-.4l-21.1-12.3c-5.7-3.3-9.3-9.5-9.4-16l-.9-8-13.3,1.8c-.6,0-1.1-.3-1.1-.9,0-.6.3-1.1.9-1.1l14.3-2c.3,0,.5,0,.8.2.2.2.4.4.4.7l1,9.1c.1,6,3.3,11.5,8.4,14.4l21.1,12.3c.7.4,1.6.5,2.4.2.8-.3,1.4-.9,1.7-1.7l.7-1.8c1.3-3.5.2-7.5-2.8-9.8l-9-6.9c-3.1-2.4-4.7-6.2-4.2-10.1,0-.3.2-.5.4-.7.2-.2.5-.3.8-.2l29.6,4.9c.4,0,.7.4.8.8l4,18.6c.6,2.8,2.4,5.2,4.8,6.6l1.1.7c.6.4,1.4.3,2,0,.6-.4,1-1,1-1.8l-.4-17.5c0,0,0-.2,0-.2l2.7-13.6c.8-4.2-.1-8.5-2.6-11.9v-.2c-.3-.2-.3-.4-.3-.6v-.9c.2-5.2-2.2-10.1-6.4-13.1l-9.1-6.4c-.3-.2-.5-.6-.4-1s.4-.7.8-.8l12.3-2.8c.3,0,.7,0,.9.3l10.2,10.7c1.9,1.7,4.6,2.2,7,1.2l2.3-.9c.6-.2,1.1-.7,1.2-1.4.1-.6,0-1.3-.5-1.8l-15.8-16.9c-2.2-2.3-5.5-3.4-8.6-2.7l-19,3.9c-.2,0-.4,0-.6,0-9.4-3.5-19.9-3.8-29.5-.9l-16.6,4.9-14.3,2.9c-.5.1-1.1-.2-1.2-.8-.1-.5.2-1.1.8-1.2l14.2-2.9,16.5-4.9c9.9-3,20.8-2.7,30.5.9l18.8-3.9c3.8-.8,7.8.5,10.5,3.3l15.8,16.9c.9,1,1.2,2.3.9,3.6-.3,1.3-1.2,2.3-2.4,2.8l-2.3.9c-3.1,1.2-6.6.6-9.1-1.7l-9.9-10.4-9.6,2.1,7.3,5.1c4.8,3.4,7.6,8.9,7.3,14.8v.6c2.8,3.9,3.8,8.7,2.9,13.4l-2.6,13.5.4,17.4c0,1.5-.7,2.8-1.9,3.5-.6.4-1.4.6-2.1.6h0Z"/>
          </g>
          <path class="st0" d="M273.5,66.2c-.5,0-.9-.4-1-.9l-1.1-12.1c-.3-2.7-2-5.2-4.5-6.3l-16-7.5c-.5-.2-.7-.8-.5-1.3.2-.5.8-.7,1.3-.5l16,7.5c3.1,1.5,5.3,4.5,5.6,7.9l1.1,12.1c0,.6-.4,1-.9,1.1h-.1Z"/>
          <path class="st0" d="M273.3,38.8c-.1,0-.3,0-.4,0l-20.2-9.4c-.5-.2-.7-.8-.5-1.3.2-.5.8-.7,1.3-.5l20.2,9.4c.5.2.7.8.5,1.3-.2.4-.5.6-.9.6h0Z"/>
          <path class="st0" d="M257.2,18.4c-.1,0-.2,0-.3,0l-3.8-1.3c-.5-.2-.8-.7-.6-1.3s.7-.8,1.3-.6l3.8,1.3c.5.2.8.7.6,1.3-.1.4-.5.7-.9.7h0Z"/>
        </g>
        <path class="st1" d="M198,28.7l-6.7-25.2c-.4.1-1.1.3-12.3,3.5-44.6,12.8-84.7,38.7-115.9,74.8C32.1,117.8,11.5,162.1,3.4,210.1l-3.4,20.2h52.7l1.9-11.5c6.5-38.5,23-74.1,47.8-102.8,24.5-28.5,55.9-48.8,90.8-58.8,9.3-2.7,11.1-3.2,11.4-3.3l-6.8-25.1h0Z"/>
        <path class="st0" d="M36.9,121.9c1,6.6,8.3,10.9,16.2,9.6s13.5-7.6,12.5-14.2c-1-6.6-8.3-10.9-16.2-9.6s-13.5,7.6-12.5,14.2Z"/>
        <g>
          <path class="st2" d="M96.8,150.5c-5-.5-9.5-2.5-12.8-5.9,3.7.5,7.6.6,11.5.1-2.4-7.4-7-13.2-8.9-12.7-2.7.7-5.7-.5-9.2-2.7-1.5-1.2-3.1-2.3-4.8-3.3-.9-.7-1.9-1.4-2.9-2.2-4.2-3.2-28.9-11.2-41.6,14.3-7.1,14.3-2.7,31.5,10.4,40.7l-8.9,32.6,38.1-6.8,6.7-29.4c6.8-1,12.4-5,12.4-5,8.8-4.6,10.7-12.4,9.8-19.8h0Z"/>
          <path class="st0" d="M29.7,212.5c-.3,0-.6-.1-.7-.3-.2-.2-.3-.6-.2-.9l8.7-31.9c-13.1-9.7-17.4-27-10.1-41.6,4.8-9.7,11.8-15.7,20.7-17.8,9.8-2.3,19.4.9,22.3,3.2,1,.7,1.9,1.4,2.8,2.1,1.7,1,3.3,2.1,4.8,3.3,3.7,2.3,6.3,3.1,8.4,2.5,3-.8,7.9,6.6,10.1,13.4,0,.3,0,.6-.1.8-.2.2-.4.4-.7.4-2.9.3-5.8.4-8.6.2,2.7,1.9,6.1,3.2,9.9,3.6.5,0,.8.4.9.9.8,6.5-.3,15.4-10.3,20.8-.6.4-5.7,3.9-12.1,5.1l-6.6,28.8c0,.4-.4.7-.8.8l-38.1,6.8c0,0-.1,0-.2,0h0ZM55,121.1c-2.1,0-4.3.2-6.5.7-8.3,2-14.9,7.6-19.4,16.8-6.9,13.9-2.7,30.5,10.1,39.5.3.2.5.7.4,1.1l-8.4,31.1,35.9-6.4,6.6-28.8c0-.4.4-.7.8-.8,6.5-1,11.9-4.8,12-4.9,0,0,0,0,.1,0,8.6-4.6,9.9-12.2,9.4-18-5.1-.7-9.4-2.8-12.6-6.1-.3-.3-.4-.8-.2-1.2.2-.4.6-.6,1-.5,3.2.5,6.6.5,10,.2-2.4-6.7-6.2-10.9-7.3-10.9h0c-2.7.7-5.8-.2-10-2.8,0,0,0,0-.1,0-1.4-1.2-3-2.2-4.6-3.2,0,0,0,0-.1,0-.9-.7-1.9-1.4-2.9-2.2-1.5-1.2-7.2-3.6-14.1-3.6h0Z"/>
        </g>
        <path class="st0" d="M29.6,122c9.2-7.1,21-8.6,31.5-5.1-2.9,1.2-5.7,2.8-8.2,4.7-17.5,13.5-19.3,40.3-4.2,60,.8,1.1,1.7,2.1,2.6,3.1-10.2-.3-20.3-5.1-27.2-14-11.9-15.4-9.4-37.3,5.5-48.8h0Z"/>
        <path class="st0" d="M62.9,114.3s-1.2,9.5-8.1,15.1c-3.6,3,3.9,1,4.1,5.9,1.2,36.5-.6,43.7-.6,43.7-.2,3.2-2.4,5.9-5.5,6.6l-16,1.2.9-5.3-9.2-38.4s15-31,34.5-28.9h0Z"/>
        <path class="st0" d="M65.7,136.3c-.2,0-.5,0-.7-.3-1-.9-1.6-2.9-1.4-4.9.1-2.1,1-3.8,2.5-4.8.5-.3,1.1-.2,1.4.3.3.5.2,1.1-.3,1.4-1.3.9-1.6,2.4-1.6,3.3-.1,1.6.4,2.9.8,3.3.4.4.4,1,0,1.4-.2.2-.5.3-.7.3h0Z"/>
        <path class="st0" d="M74,134.6c.9.3,1.9.1,2.1-.6s-.3-1.5-1.2-1.8-1.9-.1-2.1.6.3,1.5,1.2,1.8Z"/>
        <path class="st2" d="M71.4,158.7c.8,5.1-2.7,9.9-7.8,10.7-5.1.8-9.9-2.7-10.7-7.8-.8-5.1,2.7-9.9,7.8-10.7,5.1-.8,9.9,2.7,10.7,7.8Z"/>
        <path class="st0" d="M66.7,162.8c-.5,0-.9-.3-1-.8-.4-2.5-4.8-3.7-6.4-3.9-.6,0-.9-.6-.9-1.1,0-.6.6-.9,1.1-.9.3,0,7.4,1.1,8.1,5.6,0,.5-.3,1.1-.8,1.1,0,0-.1,0-.2,0h0Z"/>
        <polygon class="st0" points="53.8 141.5 67.6 149.7 65.3 153.5 54 149.5 53.8 141.5"/>
        <path class="st0" d="M24.8,142.3c-.2,0-.4,0-.6-.2-1.6-1.4-6.3-.9-8.9-.2-.5.1-1.1-.2-1.2-.7s.2-1.1.7-1.2c.8-.2,7.7-1.8,10.6.6.4.3.5,1,.1,1.4-.2.2-.5.4-.8.4h0Z"/>
        <path class="st0" d="M24.7,141c-2.3,0-7.3-.3-9.2-2.7-.4-.4-.3-1.1.1-1.4s1.1-.3,1.4.2c1.5,1.9,6.9,2,8.7,1.9.6,0,1,.4,1.1.9,0,.6-.4,1-.9,1.1-.1,0-.5,0-1.1,0h0Z"/>
        <path class="st1" d="M20.8,230v-33.2h38.7c17.2,0,33.8,6.8,45.9,19l14.4,14.4s-98.2-.2-99.1-.2h0Z"/>
      </g>
    </g>
  </g>
</svg>