<?xml version="1.0" encoding="UTF-8"?>
<svg id="Layer_1" xmlns="http://www.w3.org/2000/svg" version="1.1" viewBox="0 0 271.2 217">
  <!-- Generator: Adobe Illustrator 29.1.0, SVG Export Plug-In . SVG Version: 2.1.0 Build 142)  -->
  <defs>
    <style>
      .st0 {
        fill: #303030;
      }

      .st1 {
        fill: #bfdaf4;
      }

      .st2 {
        fill: #fafafa;
      }
    </style>
  </defs>
  <g id="Layer_2">
    <g id="_Layer_">
      <g>
        <polygon class="st0" points="271.2 163.4 263.7 122.5 210.6 114.3 203.5 154.4 271.2 163.4"/>
        <polygon class="st0" points="0 164.1 7.4 123.7 59.8 115.7 66.8 155.2 0 164.1"/>
        <g>
          <g>
            <path class="st2" d="M135.1,216c-.8,0-1.6,0-2.5,0-59.3-1.4-106.4-50.7-105-109.9.6-28.2,12.1-54.7,32.4-74.4C80.2,11.9,106.9,1,135,1s1.7,0,2.5,0c28.7.6,55.4,12.5,75.2,33.3,19.9,20.8,30.4,48,29.8,76.7-.6,28.2-12.2,54.7-32.4,74.4-20.2,19.7-46.9,30.6-75,30.6h0Z"/>
            <path class="st0" d="M135,2c.8,0,1.6,0,2.5,0,58.7,1.3,105.4,50.2,104,108.9-1.3,57.9-48.9,104.1-106.5,104.1s-1.6,0-2.5,0c-58.7-1.4-105.4-50.2-104-108.9C29.9,48.2,77.4,2,135,2h0ZM135,0C106.6,0,79.7,11,59.3,30.9c-20.5,20-32.1,46.6-32.7,75.1-1.4,59.8,46.2,109.6,106,111,.8,0,1.7,0,2.5,0,28.4,0,55.3-11,75.8-30.9,20.5-20,32.1-46.6,32.7-75.1.7-28.9-10-56.4-30.1-77.4C193.4,12.6,166.5.7,137.6,0c-.8,0-1.7,0-2.5,0h0Z"/>
          </g>
          <g>
            <path class="st0" d="M175.6,44.5l-10.5,3c-4.5,1.3-11.7,1-16.1-.6h0c-4.4-1.7-10.8-.5-14.4,2.6l-2.5,2.2c-3.5,3.1-5,7.8-3.4,10.5,1.7,2.7-.3,6.8-4.4,9h-.1c-4.1,2.3-7.3,5.2-7.1,6.5s3.8,3,8,3.8,11,3.4,15,5.7l3.5,2c4,2.3,3.6,5.1-.9,6.1h-.2c-4.6,1.1-9.9.8-11.8-.5-1.9-1.3-6-1.9-9.2-1.2s-7.1,4.8-8.8,9.1l-2,5.1c-1.7,4.3-1.8,10.2-.2,13.1,1.5,2.8,5.9,5.4,9.6,5.6,3.7.2,7.4,4.2,8.1,8.8l1.7,10.9c.7,4.6,2.7,11.9,4.5,16.2l.4,1c1.8,4.3,5.1,6.7,7.3,5.4,2.2-1.4,5.5-6,7.4-10.2l12.3-28.4c1.9-4.3,1-8.8-1.8-9.9-2.8-1.2-5.7-5.3-6.3-9.2-.6-3.9,1.9-5.8,5.5-4.3,3.7,1.5,7.6,3,8.8,3.3s4-1.8,6.4-4.7,6.1-1.8,8.3,2.3l1.5,2.8c2.2,4.1,7.2,5.4,11.1,2.9l.5-.3c3.9-2.5,8.8-1.1,10.8,3.1l2.1,4.4c2,4.2,5.4,4.3,7.6.1l8.3-15.9c2.1-4.1,6.3-10.5,9.2-14.2l5-6.3c-5.2-22.2-17.4-41.7-34.1-56.2l-14.2,9c-3.7,2.8-10.5,6.2-14.9,7.4h0Z"/>
            <path class="st0" d="M43,111.9c-2.5-3.3-4.8-6.7-4.8-7,0-.3.8-2.4,1.6-4.7.9-2.3,2.1-4.9,2.4-5,.3-.1,3.7-.5,7.5-.7,3.8-.3,9.8-3,13.3-6l11.9-10.2c3.5-3,4.1-8.5,1.2-12.2l-1.7-2.2c-2.9-3.7-6.7-4.4-8.5-1.6-1.8,2.8-3.6,5.4-4,5.8h-1c-.5-.4-2.6-3.5-4.5-6.8-2-3.3-3.8-6.8-3.7-7.1,0-.3,2-3.9,4.4-7.9l2.5-4.3c1.7-2.9,2.8-7.4,3-11.4-20.3,18.9-33.3,45.6-34,75.5,0,.6,0,1.1,0,1.6,3.7,2.3,8.4,5,11.5,6.5,4,2,5.3.9,2.9-2.4h0Z"/>
            <path class="st0" d="M45.9,114.4c-4.4-1.4-8.1,1.2-8,5.8v7.2c0,4.7,3,10.9,6.6,13.8l2.9,2.3c3.6,2.9,6.7,5.4,6.8,5.5.1.1,1.8,3.9,3.7,8.2l2.7,6.1c1.9,4.3,5.5,9.7,8,11.9,2.5,2.3,4.7.4,4.9-4.3l1.3-38.7c.1-4.7-3.4-9.7-7.8-11.1l-20.9-6.8h0Z"/>
            <path class="st0" d="M109.5,33.4l1.6-6.6c1.1-4.5-1.6-7.8-6.1-7.2-4.5.6-17.6,6.7-17.6,6.7-4.4,1.5-6.4,6.3-4.5,10.5l4.5,9.9c1.9,4.2,6.5,5.4,10.2,2.5l3.2-2.5c3.7-2.8,7.6-8.9,8.7-13.4Z"/>
          </g>
        </g>
        <g>
          <path class="st1" d="M7.2,153.7l45-19.8c5.5-2.4,11.8-2.2,17.2.6l6.3,3.3c4.2,2.2,4.5,8.1.5,10.7l-52.2,33.8c-7.7,5-18.1,1.4-21-7.3l-2.2-6.6c-2-5.8.8-12.2,6.5-14.7h0Z"/>
          <path class="st1" d="M53.5,202.2l50.1-39.2c6-4.7,5.4-14.1-1.3-17.9l-2.7-1.5c-7.6-4.3-16.9-4-24.2.8l-56.2,37.2,3.1,11.1c2.3,8.4,10.5,13.8,19.1,12.7l12.1-3.2h0Z"/>
          <path class="st1" d="M96.6,161.3l12.3-1.8c5.7-.8,11,3,11.9,8.7h0c.3,1.9-.2,3.8-1.4,5.3l-25.6,31.1c-8.4,10.2-23.6,11.5-33.6,2.8l-10.8-9.4,47.2-36.8h0Z"/>
          <path class="st1" d="M100.4,187.7l10.5.9c4.6.4,7.2,5.4,4.9,9.4l-5.1,9c-3.2,5.6-9.5,8.8-16,7.9h-.9c-5.8-.9-8.6-7.7-5-12.3l11.6-14.8h0Z"/>
          <g>
            <path class="st0" d="M19.5,185.1c-.5,0-.9-.3-1-.8-.1-.5.2-1.1.8-1.2,1.5-.3,2.9-.9,4.2-1.8l52.2-33.8c1.6-1,2.5-2.7,2.4-4.6,0-1.9-1.1-3.5-2.8-4.4-.5-.3-.7-.9-.4-1.4.2-.5.9-.7,1.4-.4,2.3,1.2,3.7,3.5,3.9,6,.1,2.6-1.1,5-3.3,6.4l-52.2,33.8c-1.5,1-3.1,1.6-4.8,2.1,0,0-.1,0-.2,0h0Z"/>
            <path class="st0" d="M53.5,203.2c-.3,0-.6-.1-.8-.4-.3-.4-.3-1.1.2-1.4l50.1-39.2c1.1-.9,2-1.9,2.7-3.2.2-.5.9-.7,1.4-.4.5.2.7.9.4,1.4-.8,1.5-1.9,2.8-3.2,3.8l-50.1,39.2c-.2.1-.4.2-.6.2h0Z"/>
            <path class="st0" d="M87.6,211c-.3,0-.7-.2-.9-.5-.3-.5-.1-1.1.4-1.4,2.3-1.3,4.3-3.1,6-5.1l13.7-16.6c.4-.4,1-.5,1.4-.1s.5,1,.1,1.4l-13.7,16.6c-1.8,2.2-4,4.1-6.5,5.6-.2,0-.3.1-.5.1h0Z"/>
          </g>
          <path class="st1" d="M7.9,132.9l9.7,9.1c3,2.8,7.6,3.1,10.8.6l6.4-4.8c4.9-3.7,6-10.6,2.5-15.6l-6.3-9.1v-23.9l-9.5,1.5c-6,.9-10.9,5.2-12.8,10.9l-5,15.4c-1.8,5.7-.2,11.9,4.1,16h0Z"/>
        </g>
        <g>
          <path class="st1" d="M263.9,152.8l-45.6-20c-5.6-2.5-12-2.2-17.4.6l-6.4,3.3c-4.3,2.2-4.5,8.2-.5,10.8l52.9,34.2c7.8,5.1,18.3,1.4,21.3-7.4l2.2-6.6c2-5.9-.9-12.4-6.6-14.9h0Z"/>
          <path class="st1" d="M216.9,202l-50.8-39.7c-6.1-4.8-5.4-14.3,1.4-18.1l2.7-1.6c7.7-4.4,17.1-4,24.5.9l57,37.7-3.1,11.3c-2.4,8.5-10.6,14-19.4,12.8l-12.3-3.3h0Z"/>
          <path class="st1" d="M173.3,160.6l-12.4-1.8c-5.8-.8-11.1,3.1-12.1,8.8h0c-.3,1.9.2,3.9,1.4,5.4l25.9,31.6c8.5,10.4,23.9,11.7,34,2.9l11-9.5-47.9-37.3Z"/>
          <path class="st1" d="M169.4,187.3l-10.6.9c-4.6.4-7.3,5.4-5,9.5l5.2,9.1c3.3,5.7,9.7,8.9,16.2,8h.9c5.9-.9,8.7-7.8,5-12.5l-11.7-15h0Z"/>
          <g>
            <path class="st0" d="M251.4,184.7c0,0-.1,0-.2,0-1.7-.4-3.4-1.1-4.9-2.1l-52.9-34.2c-2.2-1.4-3.4-3.8-3.3-6.4.1-2.6,1.6-4.9,3.9-6.1.5-.3,1.1,0,1.4.4.3.5,0,1.1-.4,1.4-1.7.9-2.7,2.5-2.8,4.4,0,1.9.8,3.6,2.4,4.7l52.9,34.2c1.3.9,2.7,1.5,4.2,1.8.5.1.9.7.8,1.2-.1.5-.5.8-1,.8h0Z"/>
            <path class="st0" d="M216.9,203c-.2,0-.4,0-.6-.2l-50.8-39.7c-1.4-1.1-2.5-2.4-3.2-3.9-.2-.5,0-1.1.4-1.4.5-.3,1.1,0,1.4.4.6,1.2,1.6,2.3,2.7,3.2l50.8,39.7c.4.3.5,1,.2,1.4-.2.2-.5.4-.8.4h0Z"/>
            <path class="st0" d="M182.4,210.9c-.2,0-.4,0-.5-.1-2.5-1.5-4.7-3.4-6.6-5.6l-13.9-16.9c-.4-.4-.3-1.1.1-1.4s1.1-.3,1.4.1l13.9,16.9c1.7,2.1,3.8,3.8,6,5.2.5.3.6.9.4,1.4-.2.3-.5.5-.9.5h0Z"/>
          </g>
          <path class="st1" d="M263.1,131.7l-9.8,9.2c-3,2.8-7.7,3.1-11,.6l-6.5-4.9c-5-3.7-6.1-10.8-2.5-15.9l6.4-9.2v-24.2l9.6,1.5c6,.9,11.1,5.2,12.9,11.1l5,15.6c1.9,5.7.2,12-4.2,16.2h0Z"/>
        </g>
      </g>
    </g>
  </g>
</svg>