<?xml version="1.0" encoding="UTF-8"?>
<svg id="Layer_1" xmlns="http://www.w3.org/2000/svg" version="1.1" viewBox="0 0 342.9 192.5">
  <!-- Generator: Adobe Illustrator 29.1.0, SVG Export Plug-In . SVG Version: 2.1.0 Build 142)  -->
  <defs>
    <style>
      .st0 {
        fill: #303030;
      }

      .st1 {
        fill: #26a8df;
      }

      .st2 {
        fill: none;
        stroke: #303030;
        stroke-miterlimit: 10;
        stroke-width: 2px;
      }

      .st3 {
        fill: #fafafa;
      }
    </style>
  </defs>
  <g id="Layer_2">
    <g id="_Layer_">
      <g>
        <g>
          <rect class="st1" x="117.4" y="5.5" width="21.8" height="174.6" rx="4.4" ry="4.4"/>
          <rect class="st0" y="1.7" width="253.6" height="175.6"/>
          <rect class="st1" y="1.7" width="253.6" height="175.6"/>
          <g>
            <rect class="st3" x="7.4" y="8.7" width="238.8" height="161.6"/>
            <path class="st0" d="M246.2,171.2H7.4c-.5,0-.9-.4-.9-.9V8.7c0-.5.4-.9.9-.9h238.8c.5,0,.9.4.9.9v161.6c0,.5-.4.9-.9.9ZM8.3,169.4h236.9V9.6H8.3v159.7Z"/>
          </g>
          <g>
            <path class="st3" d="M7.4,170.3V8.7L17.7.9h83.7c6.6,0,13,1.6,18.8,4.8l5.5,3v161.6H7.4Z"/>
            <path class="st0" d="M125.7,171.2H7.4c-.5,0-.9-.4-.9-.9V8.7c0-.3.1-.6.4-.8L17.2.2c.2-.1.4-.2.6-.2h83.7c6.7,0,13.3,1.7,19.2,4.9l5.5,3c.3.2.5.5.5.8v161.6c0,.5-.4.9-.9.9h0ZM8.3,169.4h116.4V9.2l-5-2.7c-5.6-3-11.9-4.6-18.3-4.6H18.1l-9.7,7.3v160.2Z"/>
          </g>
          <g>
            <path class="st3" d="M246.2,170.3V8.7l-10.5-7.7h-85.2c-6.7,0-13.2,1.6-19.1,4.8l-5.6,3v161.6h120.4Z"/>
            <path class="st0" d="M246.2,171.2h-120.4c-.5,0-.9-.4-.9-.9V8.7c0-.3.2-.7.5-.8l5.6-3C136.9,1.7,143.7,0,150.5,0h85.2c.2,0,.4,0,.6.2l10.5,7.7c.2.2.4.5.4.8v161.6c0,.5-.4.9-.9.9h0ZM126.7,169.4h118.6V9.2l-9.9-7.3h-84.8c-6.5,0-12.9,1.6-18.7,4.6l-5.1,2.7v160.1h0Z"/>
          </g>
          <g>
            <path class="st3" d="M126.4,170.3l-5.3-8.9c-4.1-6.9-11.4-11.1-19.4-11.3l-83.2-1.5-11,21.7h119Z"/>
            <path class="st0" d="M126.4,171.2H7.4c-.3,0-.6-.2-.8-.4-.2-.3-.2-.6,0-.9l11-21.7c.2-.3.5-.5.8-.5h0l83.2,1.5c8.4.2,15.9,4.5,20.2,11.7l5.3,8.9c.2.3.2.7,0,.9-.2.3-.5.5-.8.5h0ZM8.9,169.4h115.8l-4.5-7.5c-3.9-6.6-10.9-10.7-18.6-10.8l-82.7-1.5-10.1,19.8Z"/>
          </g>
          <g>
            <path class="st3" d="M125.7,170.3l5.4-8.9c4.1-6.9,11.6-11.1,19.7-11.3l84.2-1.5,11.2,21.7h-120.4Z"/>
            <path class="st0" d="M246.2,171.2h-120.4c-.3,0-.7-.2-.8-.5-.2-.3-.2-.7,0-.9l5.4-8.9c4.3-7.2,12-11.6,20.4-11.7l84.2-1.5c.4,0,.7.2.8.5l11.2,21.7c.2.3.1.6,0,.9s-.5.4-.8.4h0ZM127.4,169.4h117.2l-10.2-19.8-83.6,1.5c-7.8.1-14.9,4.2-18.9,10.8l-4.5,7.5h0Z"/>
          </g>
          <g>
            <polygon class="st3" points="18.4 148.6 17.7 .9 7.4 8.7 7.4 170.3 18.4 148.6"/>
            <path class="st0" d="M7.4,171.2c0,0-.2,0-.2,0-.4,0-.7-.5-.7-.9V8.7c0-.3.1-.6.4-.8L17.2.2c.3-.2.7-.2,1,0s.5.5.5.8l.7,147.7c0,.2,0,.3,0,.4l-11,21.7c-.2.3-.5.5-.8.5h0ZM8.3,9.2v157.2l9.2-18L16.8,2.8l-8.5,6.3h0Z"/>
          </g>
          <g>
            <path class="st3" d="M235.6.9l-.6,147.7.6-147.7Z"/>
            <path class="st0" d="M235,149.5h0c-.5,0-.9-.4-.9-.9l.6-147.7c0-.5.4-.9.9-.9h0c.5,0,.9.4.9.9l-.6,147.7c0,.5-.4.9-.9.9Z"/>
          </g>
        </g>
        <path class="st2" d="M74.7,82.2c9.2,3.9,19.7,5.1,29.6,3.4,3.3-.6,6.6-1.5,9.3-3.4,2.7-1.9,4.8-4.9,5-8.2.2-4.1-2.8-7.9-6.6-9.5s-8.2-1.1-11.9.5-7,4.3-9.9,7.2-5.6,6-8.6,8.8c-10.8,9.8-26.3,14.3-40.7,11.7-4.6-.8-9.4-2.5-12.4-6.1-3.3-3.8-4.1-9.6-2.3-14.3,1.8-4.7,6.1-8.4,11-9.7,4.1-1.1,8-.5,11.9.7,3.1,1,6.9,2.5,10.3,4.9,6.5,4.6,8,10.8,15.4,14h0Z"/>
        <g>
          <g>
            <g>
              <path class="st3" d="M169.4,57.4l-10.4,23.2,2.3,1c4.2,1.9,9,0,10.9-4.2l6.1-13.7-8.9-6.4h0Z"/>
              <path class="st0" d="M164.7,83.3c-1.3,0-2.6-.3-3.8-.8l-2.3-1c-.2-.1-.4-.3-.5-.6,0-.2,0-.5,0-.8l10.4-23.2c.1-.3.4-.5.7-.6.3,0,.6,0,.8.2l8.9,6.4c.4.3.5.8.3,1.2l-6.1,13.7c-1,2.2-2.8,4-5.1,4.9-1.1.4-2.2.6-3.3.6h0ZM160.4,80.1l1.3.6c1.8.8,3.7.8,5.5.2s3.2-2,4-3.8l5.8-12.9-7.2-5.2-9.5,21.2h0Z"/>
            </g>
            <g>
              <path class="st3" d="M167,57.8l-19.6,16.2,1.6,1.9c2.9,3.5,8.1,4,11.6,1.1l11.5-9.5-5.1-9.7Z"/>
              <path class="st0" d="M155.4,79.9c-2.7,0-5.3-1.1-7.1-3.3l-1.6-1.9c-.3-.4-.3-1.1.1-1.4l19.6-16.2c.2-.2.5-.3.8-.2.3,0,.6.2.7.5l5.1,9.7c.2.4.1.9-.2,1.2l-11.5,9.5c-1.7,1.4-3.8,2.1-5.9,2.1h0ZM148.8,74.1l.9,1.1c2.5,3.1,7.1,3.5,10.2,1l10.9-9-4.2-7.9-17.9,14.8h0Z"/>
            </g>
            <g>
              <path class="st3" d="M282.5,150.4l-97.5-55c-7.4-3.3-13.2-9.4-16.1-17l-10.9-28.6-19.8,7.6c-4.6,1.8-9.8-.6-11.5-5.2l-1-2.5,40-15.3,30.2,6.6,24.3,37.1,121.7,44.1-59.4,28.3h0Z"/>
              <path class="st0" d="M282.5,151.4c-.2,0-.3,0-.5-.1l-97.5-55c-7.6-3.4-13.5-9.6-16.5-17.5l-10.6-27.7-18.8,7.2c-2.5.9-5.2.9-7.6-.2-2.4-1.1-4.3-3-5.2-5.5l-1-2.5c-.2-.5,0-1.1.6-1.3l40-15.3c.2,0,.4,0,.6,0l30.2,6.6c.3,0,.5.2.6.4l24.2,36.8,121.4,43.9c.5.2.8.8.6,1.3-.2.5-.8.8-1.3.6l-121.7-44.1c-.2,0-.4-.2-.5-.4l-24.1-36.7-29.5-6.4-38.8,14.8.6,1.6c.8,2,2.2,3.5,4.2,4.4,1.9.9,4.1.9,6.1.2l19.8-7.6c.5-.2,1.1,0,1.3.6l10.9,28.6c2.8,7.4,8.3,13.2,15.6,16.4l97.6,55.1c.5.3.7.9.4,1.4-.2.3-.5.5-.9.5h0Z"/>
            </g>
            <g>
              <path class="st3" d="M163.3,55.3l-23.7,9.1.9,2.3c1.6,4.2,6.4,6.4,10.6,4.8l14-5.3-1.8-10.8h0Z"/>
              <path class="st0" d="M148.1,73c-3.7,0-7.2-2.3-8.6-5.9l-.9-2.3c-.2-.5,0-1.1.6-1.3l23.7-9.1c.3-.1.6,0,.9,0,.3.2.4.4.5.7l1.8,10.8c0,.5-.2.9-.6,1.1l-14,5.3c-1.1.4-2.2.6-3.3.6h0ZM140.8,65l.5,1.4c1.4,3.7,5.6,5.6,9.3,4.2l13.2-5.1-1.4-8.8-21.7,8.3h0Z"/>
            </g>
            <g>
              <path class="st0" d="M212.4,28l-83.7,32.7-11.1,11.4,15.2,1.1,83.7-32.7v-.4c.8-4.5-.7-9-4-12.1h0Z"/>
              <path class="st3" d="M212.2,42.7c-.4,0-.8-.2-.9-.7l-4.1-11.6c-.2-.5,0-1.1.6-1.3.5-.2,1.1,0,1.3.6l4.1,11.6c.2.5,0,1.1-.6,1.3-.1,0-.2,0-.3,0h0Z"/>
              <polygon class="st0" points="122.4 67.1 117.6 72.1 124.5 72.6 122.4 67.1"/>
            </g>
            <g>
              <path class="st3" d="M181.1,63.8l-33.1-14.8v.2c-2.1,5.6,0,11.9,5.2,15l14.1,9.8,13.8-10.2h0Z"/>
              <path class="st0" d="M167.4,75c-.2,0-.4,0-.6-.2l-14.1-9.8c-5.4-3.3-7.8-10.2-5.6-16.2v-.2c.2-.3.4-.5.6-.6s.5,0,.8,0l33.1,14.8c.5.2.7.8.5,1.3-.2.5-.8.7-1.3.5l-32.1-14.3c-1.4,4.9.7,10.3,5.1,13l14.1,9.8c.4.3.6.9.2,1.4-.2.3-.5.4-.8.4h0Z"/>
            </g>
          </g>
          <polygon class="st0" points="257.4 91 238.2 124.7 341.9 192.5 341.9 122 257.4 91"/>
        </g>
      </g>
    </g>
  </g>
</svg>