<?xml version="1.0" encoding="UTF-8"?>
<svg id="Layer_1" xmlns="http://www.w3.org/2000/svg" version="1.1" viewBox="0 0 200.9 248.9">
  <!-- Generator: Adobe Illustrator 29.2.0, SVG Export Plug-In . SVG Version: 2.1.0 Build 108)  -->
  <defs>
    <style>
      .st0 {
        fill: none;
        stroke: #333;
        stroke-linecap: round;
        stroke-miterlimit: 10;
        stroke-width: 7px;
      }

      .st1 {
        fill: #fff;
      }

      .st2 {
        fill: #39c;
      }

      .st3 {
        fill: #333;
      }
    </style>
  </defs>
  <g id="Layer_2">
    <g id="_Layer_">
      <g>
        <path class="st3" d="M117.2,209.6c-2.1,0-46.9,8.7-78.8,15-16.8,3.3-32.7-8.8-33.9-25.9L0,137.3c-1.2-16.5,9.2-31.6,24.9-36.5l56.9-17.6,52.1,2.4c12.9.6,25,6.9,32.8,17.2l34.2,44.9-83.8,61.8h0Z"/>
        <g>
          <g>
            <path class="st1" d="M63,89.9l-5.9-18.6,31-9.8,7.5,23.8c3.1,0,6.1,0,9.2,0-.7,16.7-9.4,30.1-21.4,31.3-11.6,1.2-22.6-9.4-27-24.9,2.2-.7,4.4-1.3,6.6-1.9h0Z"/>
            <path class="st3" d="M81.7,117.8c-11.2,0-21.8-10.3-26.2-25.8-.1-.5.1-1.1.7-1.2,1.7-.5,3.5-1.1,5.6-1.6l-5.5-17.6c0-.2,0-.5,0-.8.1-.2.3-.4.6-.5l31-9.8c.2,0,.5,0,.8,0,.2.1.4.3.5.6l7.3,23.1c2.8,0,5.6,0,8.5,0,.3,0,.5.1.7.3.2.2.3.5.3.7-.8,17.4-10.1,31-22.3,32.3-.6,0-1.3,0-1.9,0h0ZM57.7,92.4c4.6,14.9,15,24.4,25.7,23.3,10.9-1.1,19.4-13.4,20.4-29.4-2.7,0-5.4,0-8.1,0-.5,0-.8-.3-1-.7l-7.2-22.8-29.1,9.2,5.6,17.7c0,.3,0,.5,0,.8-.1.2-.4.4-.6.5-2.1.6-3.9,1.1-5.6,1.6h0Z"/>
          </g>
          <path class="st3" d="M64,92.9l-6.8-21.6,19.7-6.2,8.6,5.4c-2.3,9.8-9.8,18-21.5,22.4h0Z"/>
          <path class="st3" d="M62.2,73h0c-18.4.7-33.8-13.7-34.4-32.1v-1.8c-.7-18.4,13.6-33.8,32-34.4h0c18.4-.7,33.8,13.7,34.4,32.1v1.8c.7,18.4-13.6,33.8-32,34.4Z"/>
          <path class="st3" d="M69.9,62.7h0c-15.3.6-28.2-11.4-28.7-26.8l-.2-5.7c-.5-15.3,11.4-28.2,26.8-28.7h0c15.3-.6,28.2,11.4,28.7,26.8l.2,5.7c.5,15.3-11.4,28.2-26.8,28.7Z"/>
          <path class="st3" d="M98.8,25.2c-.5,0-.9-.3-1-.8-2-8-6-13.8-12.1-17.4-6.4-3.8-14.9-4.8-22.9-2.7-.5.1-1.1-.2-1.2-.7-.1-.5.2-1.1.7-1.2,8.5-2.2,17.6-1.1,24.5,2.9,6.5,3.9,10.9,10.1,13,18.6.1.5-.2,1.1-.7,1.2,0,0-.2,0-.2,0h0Z"/>
          <g>
            <path class="st1" d="M92.1,42.7l5.9-2c3.6-1.2,5.6-5.2,4.4-8.8h0c-1.2-3.6-5.1-5.6-8.8-4.4l-5.9,2c-3.6,1.2-5.6,5.2-4.4,8.8h0c1.2,3.6,5.1,5.6,8.8,4.4Z"/>
            <path class="st3" d="M89.9,44.1c-3.3,0-6.4-2.1-7.5-5.4-1.4-4.1.8-8.7,5-10l5.9-2c4.1-1.4,8.6.8,10,5,1.4,4.1-.8,8.7-5,10l-5.9,2c-.8.3-1.7.4-2.5.4h0ZM95.8,28.2c-.6,0-1.3,0-1.9.3l-5.9,2c-3.1,1-4.8,4.4-3.7,7.5.5,1.5,1.6,2.7,3,3.4,1.4.7,3,.8,4.5.3h0l5.9-2c3.1-1,4.8-4.4,3.7-7.5-.8-2.5-3.1-4-5.6-4h0Z"/>
          </g>
          <g>
            <path class="st1" d="M40.9,57.9h-6.3c-3.8.2-7-2.9-7-6.7h0c0-3.8,3-7,6.8-7.1h6.3c3.8-.2,7,2.9,7,6.7h0c0,3.8-3,7-6.8,7.1Z"/>
            <path class="st3" d="M34.5,59c-2.1,0-4-.8-5.5-2.2-1.5-1.5-2.4-3.4-2.4-5.6,0-4.4,3.4-8,7.8-8.1h6.3c2.1-.1,4.1.6,5.6,2.1,1.5,1.5,2.4,3.4,2.4,5.6s-.8,4.1-2.2,5.7c-1.5,1.5-3.5,2.4-5.6,2.4h-6.3c0,.1,0,.1-.1.1h0ZM40.8,45h-6.4c-3.3.2-5.9,2.9-5.8,6.1,0,1.6.7,3.1,1.8,4.2,1.1,1.1,2.6,1.7,4.2,1.7h6.3c1.6-.1,3.1-.8,4.2-1.9s1.7-2.6,1.7-4.2-.7-3.1-1.8-4.2c-1.1-1.1-2.6-1.7-4.1-1.7h0Z"/>
          </g>
          <g>
            <path class="st1" d="M68.5,81.6h0c-15.9.6-29.3-11.9-29.9-27.8l-.3-9.2c-.6-15.9,11.9-29.3,27.8-29.8h0c15.9-.6,29.3,11.9,29.9,27.8l.3,9.2c.6,15.9-11.9,29.3-27.8,29.8Z"/>
            <path class="st3" d="M67.4,82.6c-16,0-29.2-12.7-29.8-28.8l-.3-9.2c-.6-16.4,12.3-30.3,28.8-30.9,8-.3,15.6,2.6,21.4,8,5.8,5.4,9.2,12.8,9.5,20.8l.3,9.2c.3,8-2.5,15.6-8,21.4-5.4,5.8-12.8,9.2-20.8,9.5-.4,0-.7,0-1.1,0h0ZM68.4,80.6v1s0-1,0-1c7.4-.3,14.3-3.4,19.4-8.8s7.7-12.5,7.5-20l-.3-9.2c-.3-7.4-3.4-14.3-8.9-19.4s-12.5-7.7-20-7.4c-15.3.6-27.4,13.5-26.8,28.8l.3,9.2c.5,15.3,13.5,27.4,28.8,26.8h0Z"/>
          </g>
          <path class="st3" d="M36.9,43.8h0c4.8-3.5,8.1-15.3,7.6-29.2h0c-4.8,3.5-8.1,15.3-7.6,29.2Z"/>
          <path class="st3" d="M95.1,37.7c-.5,0-.9-.3-1-.8-.9-4.6,2.7-7,2.9-7.1.5-.3,1.1-.2,1.4.3.3.5.2,1.1-.3,1.4-.1,0-2.6,1.8-2,5,.1.5-.2,1.1-.8,1.2,0,0-.1,0-.2,0h0Z"/>
          <path class="st3" d="M37.7,54.1c-.5,0-.9-.4-1-.9-.5-3.3-3.5-4-3.5-4-.5-.1-.9-.7-.7-1.2.1-.5.7-.9,1.2-.7.2,0,4.4,1.1,5.1,5.7,0,.6-.3,1.1-.9,1.1h-.1Z"/>
          <path class="st3" d="M58.2,37.1c.5,1.1-1.6,2.9-4.5,4.2s-5.7,1.4-6.1.3,1.6-2.9,4.5-4.2,5.7-1.4,6.1-.3Z"/>
          <path class="st3" d="M79.6,34.8c0,1.2-2.7,2-5.9,1.9s-5.8-1.1-5.7-2.3,2.7-2,5.9-1.9c3.2.1,5.8,1.1,5.7,2.3Z"/>
          <path class="st3" d="M67.4,54.8h0c-1.3,0-2.6-.8-3.4-1.8-.8-1.1-1.2-2.4-1-3.8l1.3-7.4c0-.5.6-.9,1.1-.8.5,0,.9.6.8,1.2l-1.3,7.4c-.1.8,0,1.6.6,2.2.5.6,1.2,1,2,1.1.5,0,1,.5.9,1.1,0,.5-.5.9-1,.9h0Z"/>
          <path class="st3" d="M72.1,68c-.7,0-1.5-.1-2.3-.4-.5-.2-.8-.8-.6-1.3.2-.5.8-.8,1.3-.6,1.3.5,2.4.4,3.4-.2,2.4-1.4,3.2-5.4,3.2-5.4.1-.5.6-.9,1.2-.8.5.1.9.6.8,1.2,0,.2-1,4.9-4.2,6.8-.9.5-1.8.7-2.8.7h0Z"/>
          <path class="st3" d="M75.2,8.6c5.7,1.7,10.8,4,14.5,6.5,0,1-.3,2.1-.6,3.1-1.4,4.8-5.1,8.6-9.9,10.8-3-.4-6.2-1.1-9.4-2-13.2-3.9-22.7-11.2-21.2-16.3,1.5-5.1,13.4-6,26.6-2.1h0Z"/>
          <path class="st3" d="M35.2,25.3c-3.4,4.9-4.1,10.3-2.9,14.6,1,.2,2.1.4,3.1.4,5,.1,9.7-2.2,13.3-6.1-1.4-3.2.3-9.7,4.6-14.7,9-10.4-8-9-18.1,5.8h0Z"/>
          <path class="st3" d="M74.8,43.4c.1,1.9-.7,3.6-2,3.7s-2.4-1.4-2.5-3.3.7-3.6,2-3.7,2.4,1.4,2.5,3.3Z"/>
          <path class="st3" d="M56.7,48.4c.1,1.9-.7,3.6-2,3.7s-2.4-1.4-2.5-3.3.7-3.6,2-3.7,2.4,1.4,2.5,3.3Z"/>
          <path class="st3" d="M53.5,9.2c-.5,0-.9-.4-1-.9C52,3.1,57.6.2,57.9.1c.5-.2,1.1,0,1.3.4s0,1.1-.4,1.3c0,0-4.6,2.4-4.3,6.2,0,.6-.4,1-.9,1.1h-.1Z"/>
          <path class="st3" d="M53.1,7c-.5,0-.9-.3-1-.8-.4-1.7-1.6-1.9-1.9-1.9-.5,0-1-.5-1-1,0-.6.4-1,1-1h0c1.1,0,3.3.7,3.8,3.5.1.5-.2,1.1-.8,1.2,0,0-.1,0-.2,0h0Z"/>
          <path class="st3" d="M71.6,30.7c0,0-.1,0-.2,0-8.3-1.5-14.7-5.3-18.9-11.2-.3-.4-.2-1.1.2-1.4.5-.3,1.1-.2,1.4.2,4,5.4,9.9,8.9,17.7,10.4.5,0,.9.6.8,1.2,0,.5-.5.8-1,.8h0Z"/>
          <polygon class="st3" points="91.6 20.8 93 39.5 90 40.4 81.7 19.1 91.6 20.8"/>
        </g>
        <g>
          <rect class="st2" x="30.6" y="107.2" width="141.7" height="141.7" rx="13.3" ry="13.3"/>
          <g>
            <line class="st0" x1="101.4" y1="144.3" x2="101.4" y2="211.8"/>
            <line class="st0" x1="135.1" y1="178.1" x2="67.6" y2="178.1"/>
          </g>
          <circle class="st0" cx="101.4" cy="178.1" r="50.4" transform="translate(-17.1 10.9) rotate(-5.7)"/>
        </g>
        <g>
          <path class="st1" d="M127.3,102.9l-2.2-3.2c-.8-1.2-2.1-1.8-3.5-1.8h-4.5c-1.7,0-3.2,1-3.9,2.5l-2,4.2c-.6,1.2-.5,2.6.1,3.8l3.5,6.6h6c1.5,0,2.9-.8,3.7-2.1l3.1-5.3c.9-1.4.8-3.3-.2-4.6h0Z"/>
          <path class="st3" d="M120.6,115.9h-6c-.4,0-.7-.2-.9-.5l-3.5-6.6c-.8-1.4-.8-3.2-.1-4.7l2-4.2c.9-1.9,2.8-3.1,4.8-3.1h4.5c1.7,0,3.4.8,4.3,2.3l2.2,3.2c1.2,1.7,1.3,3.9.2,5.7l-3.1,5.3c-1,1.6-2.7,2.6-4.6,2.6h0ZM115.3,113.9h5.4c1.2,0,2.2-.6,2.8-1.6l3.1-5.3c.7-1.1.6-2.5-.1-3.6h0l-2.2-3.2c-.6-.9-1.6-1.4-2.7-1.4h-4.5c-1.3,0-2.5.8-3,1.9l-2,4.2c-.4.9-.4,2,0,2.9l3.2,6h0Z"/>
        </g>
        <g>
          <path class="st1" d="M131.8,106.2h7.8c0,0-5-5.2-5-5.2-1.9-2-4.5-3.3-7.3-3.6h0c-2.5-.2-4.8,1.3-5.6,3.6l-7.1,20.2,5.2.3c2.7.2,5.2-1.3,6.4-3.6l5.7-11.7h0Z"/>
          <path class="st3" d="M120.1,122.6c-.1,0-.3,0-.5,0l-5.2-.3c-.3,0-.6-.2-.8-.4-.2-.3-.2-.6-.1-.9l7.1-20.2c1-2.8,3.7-4.6,6.6-4.3,3,.3,5.9,1.7,8,3.8l5,5.2c.3.3.3.7.2,1.1s-.5.6-.9.6h-7.2c0,0-5.4,11.1-5.4,11.1-1.4,2.6-4,4.2-6.9,4.2h0ZM115.9,120.3l3.8.2c2.3.2,4.4-1.1,5.5-3.1l5.7-11.7c.2-.3.5-.6.9-.6h5.5s-3.4-3.5-3.4-3.5c-1.8-1.8-4.2-3-6.7-3.2-2-.2-3.9,1-4.6,3l-6.7,18.9h0Z"/>
        </g>
        <g>
          <path class="st1" d="M142.1,106.3h7.8c0,0-5-5.2-5-5.2-1.9-2-4.5-3.3-7.3-3.6h0c-2.5-.2-4.8,1.3-5.6,3.6l-6.4,18.4,5.2.3c2.7.2,5.2-1.3,6.4-3.6l5-10h0Z"/>
          <path class="st3" d="M131.1,120.9c-.2,0-.3,0-.5,0l-5.2-.3c-.3,0-.6-.2-.8-.4-.2-.3-.2-.6-.1-.9l6.4-18.4c1-2.8,3.7-4.6,6.6-4.3,3,.3,5.9,1.7,8,3.8l5,5.2c.3.3.3.7.2,1.1-.2.4-.5.6-.9.6h-7.2c0,0-4.7,9.4-4.7,9.4-1.3,2.6-4,4.2-6.9,4.2h0ZM126.9,118.7l3.8.2c2.3.1,4.4-1.1,5.5-3.1l5-10c.2-.3.5-.6.9-.6h5.5s-3.4-3.5-3.4-3.5c-1.8-1.8-4.2-3-6.7-3.2-2-.2-3.9,1-4.6,3l-6,17.2h0Z"/>
        </g>
        <g>
          <path class="st1" d="M151.9,106.3h7.8c0,0-5-5.2-5-5.2-1.9-2-4.5-3.3-7.3-3.6h0c-2.5-.2-4.8,1.3-5.6,3.6l-5.4,16,5.2.3c2.7.2,5.2-1.3,6.4-3.6l3.9-7.6h0Z"/>
          <path class="st3" d="M141.9,118.6c-.2,0-.3,0-.5,0l-5.2-.3c-.3,0-.6-.2-.8-.4-.2-.3-.2-.6-.1-.9l5.4-16c1-2.8,3.7-4.6,6.6-4.3,3,.3,5.9,1.7,8,3.8l5,5.2c.3.3.3.7.2,1.1-.2.4-.5.6-.9.6h-7.2c0,0-3.7,7-3.7,7-1.3,2.6-4,4.2-6.9,4.2h0ZM137.7,116.3l3.8.2c2.3.1,4.4-1.1,5.5-3.1l3.9-7.6c.2-.3.5-.6.9-.5h5.5s-3.4-3.5-3.4-3.5c-1.8-1.8-4.2-3-6.7-3.2-2-.2-3.9,1-4.6,3l-5,14.8h0Z"/>
        </g>
        <path class="st1" d="M10.1,201.3c-.2,0-.3,0-.5-.1-.5-.3-.7-.9-.4-1.3l15.9-29.4c.3-.5.9-.7,1.4-.4.5.3.7.9.4,1.3l-15.9,29.4c-.2.3-.5.5-.9.5Z"/>
        <g>
          <g>
            <path class="st1" d="M30.3,141.7v6.9s-4.6-4.4-4.6-4.4c-1.8-1.7-2.9-4-3.1-6.4h0c-.2-2.2.6-3.3,3.2-4.9l13.9-7.8.6,3.3c.5,2.3-.4,4.7-2.1,6.3l-7.9,7.2h0Z"/>
            <path class="st3" d="M30.4,149.6c-.2,0-.5,0-.7-.3l-4.6-4.4c-2-1.9-3.2-4.4-3.4-7.1-.3-2.9,1.1-4.3,3.7-5.9l13.9-7.9c.3-.2.6-.2.9,0s.5.4.6.7l.6,3.3c.5,2.7-.4,5.4-2.4,7.2l-7.6,6.8v6.4c0,.4-.2.8-.6.9-.1,0-.3,0-.4,0h0ZM39,126.6l-12.7,7.2c-2.5,1.5-2.8,2.3-2.7,3.9.2,2.2,1.2,4.3,2.8,5.8l2.9,2.8v-4.5c0-.3,0-.6.3-.8l7.9-7.2c1.5-1.3,2.2-3.4,1.8-5.4l-.4-1.9h0Z"/>
          </g>
          <g>
            <path class="st1" d="M30.4,150.8v6.9s-4.6-4.4-4.6-4.4c-1.8-1.7-2.9-4-3.1-6.4h0c-.2-2.2,1.1-4.2,3.2-4.9l17.7-6.2.3,4.5c.1,2.3-1.1,4.6-3.2,5.6l-10.3,5h0Z"/>
            <path class="st3" d="M30.4,158.7c-.2,0-.5,0-.7-.3l-4.6-4.4c-2-1.9-3.2-4.4-3.4-7.1-.2-2.7,1.3-5.1,3.9-5.9l17.7-6.2c.3-.1.6,0,.9.1.3.2.4.5.4.8l.3,4.5c.2,2.7-1.3,5.3-3.7,6.6l-9.7,4.7v6.2c0,.4-.2.8-.6.9-.1,0-.3,0-.4,0h0ZM42.7,137l-16.4,5.8c-1.7.6-2.7,2.2-2.5,3.9.2,2.2,1.2,4.3,2.8,5.8l2.9,2.8v-4.5c0-.4.2-.7.5-.9l10.3-5c1.7-.9,2.8-2.7,2.6-4.7l-.2-3.2h0Z"/>
          </g>
          <g>
            <path class="st1" d="M30.5,159.8v6.9s-4.6-4.4-4.6-4.4c-1.8-1.7-2.9-4-3.1-6.4h0c-.2-2.2,1.1-4.2,3.2-4.9l16.2-5.7.3,4.5c.1,2.3-1.1,4.6-3.2,5.6l-8.8,4.4h0Z"/>
            <path class="st3" d="M30.5,167.7c-.2,0-.5,0-.7-.3l-4.6-4.4c-2-1.9-3.2-4.4-3.4-7.1-.2-2.7,1.3-5.1,3.9-5.9l16.2-5.7c.3,0,.6,0,.9.1s.4.5.4.8l.3,4.5c.2,2.7-1.3,5.3-3.7,6.6l-8.2,4.1v6.2c0,.4-.2.8-.6.9-.1,0-.3,0-.4,0h0ZM41.2,146.7l-14.9,5.2c-1.6.6-2.7,2.2-2.5,3.9.2,2.2,1.2,4.3,2.8,5.8l2.9,2.8v-4.5c0-.4.2-.7.5-.9l8.8-4.4c1.7-.9,2.8-2.7,2.6-4.7l-.2-3.2h0Z"/>
          </g>
          <g>
            <path class="st1" d="M30.5,168.4v6.9s-4.6-4.4-4.6-4.4c-1.8-1.7-2.9-4-3.1-6.4h0c-.2-2.2,1.1-4.2,3.2-4.9l14-4.7.3,4.5c.1,2.3-1.1,4.6-3.2,5.6l-6.6,3.4h0Z"/>
            <path class="st3" d="M30.6,176.3c-.2,0-.5,0-.7-.3l-4.6-4.4c-2-1.9-3.2-4.4-3.4-7.1-.2-2.7,1.3-5.1,3.9-5.9l14-4.7c.3,0,.6,0,.9.1.3.2.4.5.4.8l.3,4.5c.2,2.7-1.3,5.3-3.7,6.6l-6.1,3.2v6.3c0,.4-.2.8-.6.9-.1,0-.3,0-.4,0h0ZM39.2,156.2l-12.8,4.3c-1.6.6-2.7,2.2-2.5,3.9.2,2.2,1.2,4.3,2.8,5.8l2.9,2.8v-4.5c0-.4.2-.7.5-.9l6.6-3.4c1.7-.9,2.8-2.7,2.7-4.7l-.2-3.2h0Z"/>
          </g>
        </g>
      </g>
    </g>
  </g>
</svg>