<?xml version="1.0" encoding="UTF-8"?>
<svg id="Layer_1" xmlns="http://www.w3.org/2000/svg" version="1.1" viewBox="0 0 265.6 233.4">
  <!-- Generator: Adobe Illustrator 29.2.0, SVG Export Plug-In . SVG Version: 2.1.0 Build 108)  -->
  <defs>
    <style>
      .st0 {
        fill: none;
        stroke: #303030;
        stroke-linecap: round;
        stroke-linejoin: round;
        stroke-width: 2px;
      }

      .st1 {
        fill: #303030;
      }

      .st2 {
        fill: #26a8df;
      }

      .st3 {
        fill: #fafafa;
      }
    </style>
  </defs>
  <g id="Layer_2">
    <g id="_Layer_">
      <g>
        <g>
          <path class="st3" d="M37.8,232.4l-28.4-54.5,92.7-39.9,12.9.4c27.6-2.8,47.3,10.6,59.8,35.3l23.6,57.8-160.5.8Z"/>
          <path class="st1" d="M37.8,233.4c-.4,0-.7-.2-.9-.5l-28.4-54.5c-.1-.2-.1-.5,0-.8s.3-.5.5-.6l92.7-39.9c.1,0,.3,0,.4,0l12.8.4c26.9-2.7,47.3,9.3,60.7,35.9l23.6,57.8c.2.5,0,1.1-.5,1.3-.5.2-1.1,0-1.3-.5l-23.6-57.8c-13-25.7-32.7-37.4-58.7-34.7h-.1l-12.6-.4L10.8,178.4l27.9,53.5c.3.5,0,1.1-.4,1.3-.1,0-.3.1-.5.1h0Z"/>
        </g>
        <g>
          <g>
            <path class="st3" d="M183.4,162.9c-44.6,0-80.9-36.3-80.9-81s11.5-49.6,33.4-65.5c10.8-7.8,22-12.5,34.3-14.5,0,0,0,0,.1,0h.6c.9-.2,1.8-.3,2.8-.4,1.1-.1,2.1-.2,3.2-.3,0,0,.2,0,.2,0,1,0,2-.1,3-.2,1.1,0,2.2,0,3.3,0,7.1,0,13.5.8,20,2.5.2,0,.8.2.8.2.7.2,1.4.4,2,.6.7.2,1.4.4,2.1.6h.4c1.2.5,2.4.9,3.5,1.4l.7.3c1,.4,2,.8,3,1.2.2.1,1.1.5,1.1.5.8.4,1.5.7,2.3,1.1.6.3,1.1.6,1.7.9.6.3,1.1.6,1.7.9.7.4,1.4.8,2.1,1.2h.1c.3.3.7.5,1,.7.8.5,1.6,1,2.4,1.5l.7.5c.9.6,1.7,1.2,2.6,1.8l.5.4c.9.7,1.8,1.4,2.6,2l.4.4c.9.7,1.7,1.4,2.5,2.1l.5.5c.8.7,1.5,1.4,2.2,2.1.2.2.5.5.7.7.6.6,1.2,1.3,1.9,2,.3.4.7.7,1,1.1.5.5,1,1.1,1.4,1.6.5.5.9,1.1,1.3,1.6.3.4.6.8,1,1.2.6.7,1.1,1.5,1.6,2.2l.5.7c.6.9,1.3,1.9,1.9,2.8v.2c5.7,8.8,9.5,18.4,11.4,28.5v.5c.3,1,.4,2.1.6,3.2,0,.3,0,.6.1.9v.3c.1.9.2,1.7.3,2.6,0,.5,0,1.1.1,1.6v.5c0,.6.1,1.2.1,1.8,0,.8,0,1.5,0,2.3,0,.2,0,.4,0,.6,0,.2,0,.5,0,.7v.5c0,.7,0,1.4,0,2.1v.6c0,.5,0,1,0,1.5,0,.4,0,.7,0,1.1v.5c-.1.9-.2,1.8-.3,2.7v.5c-4.8,40.8-39.3,71.5-80.4,71.5h0Z"/>
            <path class="st1" d="M183.4,2h0c7.1,0,13.2.8,19.7,2.5.2,0,.3,0,.5.1h.3c.7.3,1.4.4,2,.7.7.2,1.4.4,2,.6h.1s0,0,0,0c0,0,.1,0,.2,0,1.2.4,2.3.8,3.4,1.2.1,0,.2,0,.4.1h.3c1.1.5,2,.9,2.9,1.3.3.1.5.2.8.4l.3.2c.7.3,1.5.7,2.3,1.1.5.3,1.1.6,1.6.8.5.3,1.1.6,1.7.9.6.3,1.3.7,2.1,1.2h.1c.3.3.7.5,1,.7.8.5,1.5,1,2.4,1.5h0c.2.2.4.3.6.5.8.6,1.7,1.2,2.6,1.8.2.1.3.2.5.4.9.6,1.7,1.3,2.6,2l.4.4c.8.7,1.7,1.4,2.5,2.1.2.1.3.3.5.5.8.7,1.5,1.4,2.2,2.1.2.2.5.5.7.7.7.7,1.3,1.3,1.8,1.9.3.4.6.7,1,1.1.5.5,1,1.1,1.4,1.6.4.5.9,1,1.3,1.6.3.4.6.8,1,1.2.5.7,1,1.4,1.6,2.2h.1c.1.3.3.5.4.7.6.9,1.2,1.8,1.9,2.8h0c0,.1,0,.2,0,.2,5.5,8.6,9.2,18.1,11.1,28.2v.3s0,.2,0,.2c.2,1.1.4,2.1.5,3.1,0,.3,0,.5.1.8v.4c.1.8.2,1.6.3,2.5,0,.5,0,1.1.1,1.6v.2s0,.2,0,.2c0,.6,0,1.2.1,1.8,0,.8,0,1.5,0,2.3,0,.2,0,.4,0,.6,0,.2,0,.4,0,.7v.4c0,.7,0,1.4,0,2v.6c0,.5,0,1,0,1.5,0,.4,0,.7,0,1.1v.5c-.1.9-.2,1.8-.3,2.6,0,0,0,.2,0,.2v.3c-4.7,40.3-38.8,70.7-79.4,70.7s-79.9-35.9-79.9-80,11.4-49,33-64.7c10.6-7.7,21.7-12.4,33.9-14.3,0,0,.1,0,.2,0,0,0,0,0,.1,0h.2s.2,0,.2,0c1.1-.1,1.9-.3,2.7-.4h0c1.1-.1,2.1-.2,3.1-.3h.2c1.1,0,2.1-.1,3-.2,1.1,0,2.2,0,3.3,0h0ZM183.4,0h0c-1.1,0-2.2,0-3.4,0-1,0-2.1,0-3.1.2,0,0-.1,0-.2,0-1.1,0-2.1.2-3.2.3h0c-.9.1-1.9.2-2.8.4-.1,0-.3,0-.4,0-.1,0-.2,0-.3,0h0c-12.5,2-23.9,6.7-34.7,14.6-22,16-33.8,39.1-33.8,66.3,0,45.3,36.7,82,81.9,82s76.6-31.7,81.4-72.4c0-.2,0-.4,0-.5.1-.9.2-1.8.2-2.7,0-.5,0-1.1.1-1.6,0-.6,0-1.3,0-2,0-.8,0-1.5,0-2.3,0-.1,0-.3,0-.5,0-.4,0-.9,0-1.3,0-.8,0-1.6,0-2.4,0-.7,0-1.4-.1-2,0-.6,0-1.3-.1-1.9,0-.9-.2-1.7-.3-2.6,0-.4-.1-.8-.1-1.2-.1-1.1-.3-2.1-.5-3.2,0-.2,0-.3,0-.5-1.9-10.5-5.9-20.2-11.4-28.9,0,0,0-.1-.1-.2-.6-1-1.2-1.9-1.9-2.9-.2-.2-.3-.5-.5-.7-.5-.8-1.1-1.5-1.6-2.2-.3-.4-.6-.8-1-1.2-.4-.5-.9-1.1-1.3-1.6-.5-.6-1-1.1-1.4-1.7-.3-.4-.7-.7-1-1.1-.6-.7-1.2-1.3-1.9-2-.2-.2-.5-.5-.7-.7-.7-.7-1.5-1.5-2.3-2.1-.2-.1-.3-.3-.5-.5-.8-.7-1.7-1.5-2.5-2.2-.1-.1-.3-.2-.4-.4-.9-.7-1.8-1.4-2.6-2.1-.2-.1-.3-.2-.5-.4-.9-.6-1.7-1.3-2.6-1.9-.2-.2-.5-.3-.7-.5-.8-.5-1.6-1.1-2.5-1.6-.4-.2-.8-.5-1.1-.7-.7-.4-1.4-.8-2.1-1.2-.6-.3-1.1-.6-1.7-.9-.6-.3-1.1-.6-1.7-.9-.8-.4-1.6-.8-2.4-1.1-.4-.2-.8-.4-1.2-.5-1-.4-2-.8-3-1.2-.2,0-.5-.2-.7-.3-1.1-.4-2.3-.9-3.5-1.2-.1,0-.2,0-.3-.1,0,0,0,0-.1,0-.7-.2-1.4-.4-2.1-.6-.7-.2-1.4-.4-2.1-.6-.3,0-.5-.1-.8-.2-6.6-1.7-12.9-2.5-20.2-2.5h0Z"/>
          </g>
          <g>
            <g>
              <path class="st1" d="M183.4,81.9L135.2,15.7C149.9,5,165.3,0,183.4,0v81.9Z"/>
              <path class="st1" d="M183.4,81.9L170,1c4.3-.7,8.8-1,13.4-1v81.9Z"/>
            </g>
            <path class="st2" d="M183.4,81.9l77.9,25.3c14-43-9.6-89.3-52.6-103.2C200.1,1.2,192.4,0,183.4,0v81.9Z"/>
          </g>
        </g>
        <path class="st3" d="M265.5,123.6l-6-19.4c-.3-1.1-1.2-1.9-2.2-2.2-1.1-.3-2.2,0-3.1.7-2.3,2-3.4,4.9-3.1,7.9l.9,8-2.2,2.3,1-9.9c0-.1,0-.3,0-.4l-4.3-15.9c-.2-.9-.9-1.7-1.8-2.1-.9-.4-1.9-.3-2.7.1-1.9,1-3.4,2.9-4,5v.5c-.1,0-3.7-7.4-3.7-7.4-.2-.5-.7-.7-1.2-.6-1.7.4-4.5,2.1-5.3,5.8-.3-.1-.6-.2-.9-.3-.9,0-1.7.3-2.2,1-1.9,2.7-2.5,6.1-1.7,9.3l2,7.6-4,15-17.5,9c-7.3,3.8-12.7,10.5-14.7,18.5l-19.4,76.1c0,.3,0-.3.2,0,.2.2.5,0,.8,0h43.6c.5,0,.9.5,1,0l10.3-74.1,39.8-33.6c.3-.3.5-.7.3-1.1h0Z"/>
        <g>
          <path class="st1" d="M214.1,233.4h-.1c-.5,0-.9-.6-.9-1.1l10.4-74.7c0-.2.2-.5.4-.6l39.6-33.4-5.8-18.7c-.1-.4-.4-.7-.9-.8s-.8,0-1.2.2c-1.8,1.5-2.7,3.8-2.4,6.1l1,8.5c0,.3,0,.6-.3.8l-4.8,5c-.4.4-1,.4-1.4,0-.4-.4-.4-1,0-1.4l4.5-4.7-.9-8c-.3-3,.8-5.9,3.1-7.8.8-.7,2-1,3-.7,1,.3,1.9,1.1,2.2,2.2l6,19.4c.1.4,0,.8-.3,1.1l-39.8,33.6-10.3,74.3c0,.5-.5.9-1,.9h0Z"/>
          <path class="st1" d="M247.7,132.2h-.1c-.5,0-1-.5-.9-1.1l2.1-20.2-4.2-15.8c0-.3-.3-.6-.6-.7-.3-.1-.6-.1-1,0-1.5.8-2.5,2.2-3,3.7l-.7,2.5c-.1.5-.7.8-1.2.7-.5-.1-.9-.7-.7-1.2l.7-2.5c.6-2.1,2-3.9,3.9-5,.8-.5,1.8-.5,2.7-.1s1.5,1.1,1.8,2l4.3,15.9c0,.1,0,.2,0,.4l-2.1,20.3c0,.5-.5.9-1,.9h0Z"/>
          <path class="st1" d="M240.4,133.2s-.1,0-.1,0c-.5,0-.9-.6-.9-1.1l2.9-19.8-9.4-19.7c-1.2.6-3.5,2.3-3.3,6.6,0,.5-.4,1-.9,1.1-.5,0-1-.4-1.1-.9-.5-7.4,5.5-8.9,5.5-8.9.5-.1.9.1,1.1.5l10,20.8c0,.2.1.4,0,.6l-2.9,20.1c0,.5-.5.9-1,.9h0Z"/>
          <path class="st1" d="M170.5,233.4c0,0-.2,0-.2,0-.5-.1-.9-.7-.7-1.2l19.4-75.8c2-8,7.4-14.7,14.7-18.5l17.5-9,4-15.1-2-7.6c-.9-3.2-.2-6.6,1.7-9.3.5-.7,1.3-1.1,2.2-1,.9,0,1.6.6,2,1.4l8.1,17.3c0,.2.1.4,0,.6l-2.9,17.9c0,.5-.6.9-1.1.8-.5,0-.9-.6-.8-1.2l2.9-17.5-8-17.1c0-.2-.2-.2-.3-.2,0,0-.2,0-.4.2-1.6,2.2-2.1,5-1.4,7.6l2.1,7.9c0,.2,0,.3,0,.5l-4.1,15.8c0,.3-.3.5-.5.6l-18,9.2c-6.8,3.5-11.8,9.8-13.7,17.2l-19.4,75.8c-.1.5-.5.8-1,.8Z"/>
        </g>
        <circle class="st1" cx="63.8" cy="57.1" r="27.4" transform="translate(-21.7 61.9) rotate(-45)"/>
        <g>
          <path class="st3" d="M84.8,140.5h-2.4c1.9-4-4.4-32.6-4.4-32.6l28,1.1c0,.5,2,21.4,3.1,29.9l8.8-.6c.9,10.9-2.7,20.4-10.4,24.1-11.4,5.6-27.5-3.7-35.8-20.7,0-.1-.1-.2-.1-.3l13.2-.9h0Z"/>
          <path class="st1" d="M100.3,165c-3.9,0-8.1-1.2-12.3-3.6-6.9-4-13-10.8-17.1-19.2l-.2-.3c-.1-.3-.1-.7,0-.9s.5-.5.8-.5l10.1-.7c1-3.3-2.2-21-4.6-31.6,0-.3,0-.6.2-.9s.5-.4.8-.4l28,1.1c.3,0,.5.1.7.4.2.2.2.4.2.7,0,1.1,1.9,19.8,3,28.8l7.9-.5c.5,0,1,.4,1.1.9,1,11.7-3.2,21.3-10.9,25.1-2.4,1.2-5,1.7-7.7,1.7h0ZM73.1,142.3c3.9,7.6,9.5,13.7,15.8,17.4,6.5,3.7,12.9,4.4,18.1,1.8,6.8-3.3,10.5-11.7,9.9-22.2l-7.8.5c-.5,0-1-.3-1.1-.9-.8-6.3-2.7-24.4-3.1-29.1l-25.8-1c1.3,6.2,5.1,24.5,4.4,30.5h1.2c.5,0,1,.5,1,1s-.4,1-.9,1l-11.7.8h0Z"/>
        </g>
        <circle class="st1" cx="95.4" cy="84.3" r="31.2" transform="translate(-28.2 53.7) rotate(-27.6)"/>
        <g>
          <path class="st3" d="M77.2,95.7c-1.5-4.6-1.7-9.7-.1-14.7,4-12.7,17.5-19.7,30.1-15.7,9.9,3.1,16.3,12,16.8,21.8,3.7,5.8,4.9,13.1,2.7,20.1-4,12.7-17.5,19.7-30.1,15.7-6.7-2.1-11.8-6.9-14.5-12.8-2.3,3-6.3,4.5-10.2,3.3-4.9-1.5-7.6-6.7-6.1-11.6,1.5-4.8,6.6-7.5,11.5-6.1h0Z"/>
          <path class="st1" d="M103.7,125.1c-2.5,0-5-.4-7.5-1.2-6.2-1.9-11.4-6.3-14.5-12-2.7,2.6-6.6,3.6-10.2,2.5-5.4-1.7-8.4-7.5-6.7-12.9,1.5-4.7,6.2-7.7,11-7.1-1.2-4.5-1.1-9.2.3-13.7,2-6.4,6.4-11.6,12.3-14.7s12.7-3.7,19.1-1.7c9.9,3.1,16.9,12.1,17.5,22.5,3.9,6.2,4.8,13.8,2.6,20.7-3.4,10.7-13.3,17.5-23.9,17.5h0ZM82,109.2h.1c.4,0,.6.2.8.6,2.7,5.8,7.8,10.3,13.9,12.2,12.1,3.8,25.1-3,28.9-15.1,2-6.5,1.1-13.5-2.6-19.3,0-.1-.1-.3-.2-.5-.5-9.6-6.9-18-16.1-20.9-5.9-1.8-12.1-1.3-17.6,1.6-5.5,2.9-9.5,7.6-11.3,13.5-1.4,4.6-1.4,9.5.1,14.1.1.3,0,.7-.2,1s-.6.4-1,.3c-4.3-1.3-8.9,1.2-10.2,5.5-1.4,4.4,1.1,9,5.4,10.4,3.3,1,7-.1,9.1-2.9.2-.2.5-.4.8-.4h0Z"/>
        </g>
        <path class="st1" d="M79.7,105.1c-.3,0-.5-.1-.8-.3-1.8-2-4.7-2.9-7.3-2.4-.5.1-1.1-.2-1.2-.8-.1-.5.2-1.1.8-1.2,3.3-.7,6.9.4,9.2,3,.4.4.3,1,0,1.4-.2.2-.4.2-.7.2h0Z"/>
        <path class="st1" d="M115.5,104.6c-2.5,0-4.9-1-6.3-2.8-.4-.4-.3-1.1.1-1.4.4-.3,1.1-.3,1.4.2,1.1,1.3,2.9,2.1,4.9,2.1,2,0,3.8-.9,4.8-2.2.3-.4,1-.5,1.4-.2s.5,1,.2,1.4c-1.4,1.9-3.8,3-6.4,3h-.1Z"/>
        <path class="st1" d="M98,84.1c-.1,0-.2,0-.4,0-.5-.2-.8-.8-.6-1.3,2.1-5.6,7.3-3.8,9-3.2h.2c.5.3.8.8.6,1.3-.2.5-.8.8-1.3.6h-.2c-2.4-.9-5.1-1.5-6.5,1.9-.1.4-.5.6-.9.6h0Z"/>
        <path class="st1" d="M119.4,92.7c-.2,0-.4,0-.5-.2-3.4-2.2-5.5-5.3-6.2-7.3-.8-2.1-.4-4.5.9-6.7,1.4-2.2,3.5-3.8,5.8-4.1.5,0,1,.3,1.1.9,0,.5-.3,1-.9,1.1-1.6.2-3.3,1.4-4.3,3.1-1,1.6-1.3,3.5-.7,5,.5,1.4,2.2,4.3,5.4,6.3.5.3.6.9.3,1.4-.2.3-.5.5-.8.5h0Z"/>
        <path class="st1" d="M120.2,85.6c0,1.6-.8,3-2,3-1.2,0-2.2-1.2-2.2-2.9s.8-3,2-3c1.2,0,2.2,1.2,2.2,2.9Z"/>
        <path class="st1" d="M106.6,88.5c0,1.6-.8,3-2,3-1.2,0-2.2-1.2-2.2-2.9s.8-3,2-3c1.2,0,2.2,1.2,2.2,2.9Z"/>
        <path class="st1" d="M70.8,84.1c-.5,4-.7,7.9-.9,11.9,0,.3.2.7.6.7,3.5,0,6.9-.5,10.2-1.6,6-2.1,11.3-6.1,14.7-11.4,3.8-5.8,5.4-13,4.4-19.9-.1-.8-1.2-.6-1.3,0-2.4-1.9-5.9-1.9-8.8-1.2-3.2.8-6.1,2.4-8.9,4.2-3,1.9-5.7,3.9-7.4,7.1-1.6,3.1-2.3,6.6-2.8,10.1Z"/>
        <g>
          <rect class="st2" x="3.3" y="133.1" width="73.3" height="73.3" rx="11.5" ry="11.5" transform="translate(-130.3 207.6) rotate(-89.3)"/>
          <polygon class="st1" points="71.6 163.4 71.6 145.1 53.2 145.1 71.6 163.4"/>
          <polygon class="st1" points="43.1 155.1 43.1 136.7 24.8 136.7 43.1 155.1"/>
          <polygon class="st1" points="16.4 156.8 9.7 150.1 3.1 156.7 2.9 170.2 9.7 163.4 16.4 170.1 39.8 146.7 33.1 140 16.4 156.8"/>
          <path class="st1" d="M59.9,150.1l-16.7,16.7-6.7-6.7L2.6,193.9v.4c0,3.6,1.5,6.8,4,8.9l29.8-29.8,6.7,6.7,23.4-23.4-6.7-6.7h0Z"/>
          <polygon class="st1" points="69.3 193.9 69.3 175.5 50.9 175.5 69.3 193.9"/>
          <polygon class="st1" points="66 185.6 59.3 178.9 31.9 206.2 45.3 206.2 66 185.6"/>
        </g>
        <g>
          <g>
            <path class="st3" d="M27.8,219.5h-12.4l-13.7-14.1c-1.1-1.2-1-3.1.3-4.1h0c2.6-2.1,6.3-2,8.9,0l13.8,11.2,3,6.9h0Z"/>
            <path class="st1" d="M27.8,220.5h-12.4c-.3,0-.5-.1-.7-.3l-13.7-14.1c-.7-.8-1.1-1.8-1.1-2.9,0-1.1.6-2.1,1.4-2.7,3-2.4,7.2-2.3,10.2,0l13.8,11.2c.1,0,.2.2.3.4l3,6.9c.1.3.1.7,0,.9-.2.3-.5.5-.8.5h0ZM15.9,218.5h10.4l-2.3-5.3-13.6-11.1c-2.2-1.8-5.4-1.8-7.7,0-.4.3-.6.8-.7,1.3,0,.5.1,1,.5,1.4l13.4,13.8Z"/>
          </g>
          <g>
            <path class="st3" d="M26.6,219.5h-9.7v-27c0-1.1.9-2.1,2.1-2.1h1.6c3.3,0,6,2.7,6,6v23.1h0Z"/>
            <path class="st1" d="M26.6,220.5h-9.7c-.5,0-1-.5-1-1v-27c0-1.7,1.4-3.1,3.1-3.1h1.6c3.9,0,7,3.2,7,7v23.1c0,.5-.5,1-1,1h0ZM17.9,218.5h7.7v-22.1c0-2.8-2.3-5-5-5h-1.6c-.6,0-1.1.5-1.1,1.1v26h0Z"/>
          </g>
          <g>
            <path class="st3" d="M36.1,219.5h-9.7v-27c0-1.1.9-2.1,2.1-2.1h1.6c3.3,0,6,2.7,6,6v23.1h0Z"/>
            <path class="st1" d="M36.1,220.5h-9.7c-.5,0-1-.5-1-1v-27c0-1.7,1.4-3.1,3.1-3.1h1.6c3.9,0,7,3.2,7,7v23.1c0,.5-.5,1-1,1h0ZM27.4,218.5h7.7v-22.1c0-2.8-2.3-5-5-5h-1.6c-.6,0-1.1.5-1.1,1.1v26h0Z"/>
          </g>
          <g>
            <path class="st3" d="M54.5,206.6l-8.9-.2v-3.1c0-3.8-3.1-7-7-7h-.3c-1.3,0-2.4,1.1-2.4,2.4v20.8h4.6c3.2,0,6.2-1.6,8-4.2l1.3-1.9,4.7-6.8h0Z"/>
            <path class="st1" d="M40.5,220.5h-4.6c-.5,0-1-.5-1-1v-20.8c0-1.9,1.5-3.4,3.4-3.4h.3c4.4,0,8,3.6,8,8v2.1l7.9.2c.5,0,1,.5,1,1,0,.5-.5,1-1,1l-8.9-.2c-.5,0-1-.5-1-1v-3.1c0-3.3-2.7-6-6-6h-.3c-.8,0-1.4.6-1.4,1.4v19.8h3.6c2.9,0,5.6-1.4,7.2-3.8l1.3-1.9c.3-.5.9-.6,1.4-.2.5.3.6.9.2,1.4l-1.3,1.9c-2,2.9-5.3,4.6-8.9,4.6h0Z"/>
          </g>
        </g>
        <g>
          <path class="st3" d="M76.7,232.4l-6.4-15c-3.1-6.8-9.9-11.1-17.4-11.1h-4.4l28.1,26.1h0Z"/>
          <path class="st1" d="M76.7,233.4c-.4,0-.8-.2-.9-.6l-6.4-15c-3-6.3-9.4-10.5-16.4-10.5h-4.4c-.5,0-1-.5-1-1s.5-1,1-1h4.4c7.8,0,15,4.6,18.3,11.7l6.4,15.1c.2.5,0,1.1-.5,1.3-.1,0-.3,0-.4,0h0Z"/>
        </g>
        <g>
          <path class="st0" d="M195.9,70.7c6.8-11.4,12.2-23.6,16.1-36.3,5.4,11.7,10.8,23.3,16.2,35"/>
          <path class="st0" d="M197.3,58.2c9.2-.5,18.4-1,27.7-1.5"/>
        </g>
        <path class="st0" d="M235.3,34.1c.7,12.6,1.3,22.8,2,35.4"/>
      </g>
    </g>
  </g>
</svg>