<?xml version="1.0" encoding="UTF-8"?>
<svg id="Layer_1" xmlns="http://www.w3.org/2000/svg" version="1.1" viewBox="0 0 231.6 235.2">
  <!-- Generator: Adobe Illustrator 29.1.0, SVG Export Plug-In . SVG Version: 2.1.0 Build 142)  -->
  <defs>
    <style>
      .st0 {
        fill: #303030;
      }

      .st1 {
        fill: #26a8df;
      }

      .st2 {
        fill: #fafafa;
      }
    </style>
  </defs>
  <g id="Layer_2">
    <g id="_Layer_">
      <g>
        <g>
          <path class="st0" d="M116.9,54.2c5.1-13.8,2-27.3,2-27.3C116.6,12.7,89.8-1.4,75.1.2c-2.4-.2-4.8-.2-7.2.2-14.4,2.4-24.1,16-21.7,30.4l1.3,8c0,4.5.2,8.4.3,11.1.4,12.7-11.2,14.2-15.7,21.5s2,11.9,2.7,21.5c.6,8.4-6.4,9.6-9.8,19.3-1.8,11.4,9.1,8.9,14.4,12.4,14.3.7,33.2-2.5,33.2-2.5,0,0,86.8,10.7,62.2-36.7-4.1-8-22.7-17.9-17.9-31.1h0Z"/>
          <path class="st0" d="M84.3,126.7c-2.4,0-3.9,0-3.9,0-.5,0-1-.5-1-1s.5-1,1-1c.5,0,50.8,1.7,61.5-16.9,3.5-6.2,2.3-14-3.6-23.4-1.4-2.3-4.4-4.8-7.6-7.4-7-5.8-15.7-13-13-22.9,3.8-13.7-.2-26.7-.2-26.9-1.5-6-8.4-12.4-18.3-17.1-9.4-4.4-19.8-6.4-26.5-5.1-.5,0-1.1-.2-1.2-.8-.1-.5.2-1.1.8-1.2,7.2-1.4,17.9.7,27.8,5.3,10.6,5,17.7,11.7,19.4,18.4.2.5,4.2,13.6.3,27.9-2.4,8.6,5.5,15.1,12.4,20.9,3.3,2.7,6.4,5.3,8,7.8,6.3,10,7.6,18.6,3.6,25.4-4.8,8.3-17,13.9-36.1,16.5-9.5,1.3-18.4,1.5-23.3,1.5h0Z"/>
          <path class="st0" d="M27.4,104.7c-.2,0-.5,0-.7-.2-.4-.4-.5-1,0-1.4,3.9-4.5,5.6-7.3,5.6-16.1,0-3.3-.9-6.1-1.6-8.6-1.2-4-2.4-7.8.8-12.2,1.8-2.5,4.5-4.2,7-5.8,4.5-2.9,8.8-5.6,9.2-12.7,0-.8,0-1.7.1-2.6,0-2.2.2-4.8.4-7.7l-.7-7.4c-1.3-14.1,9.2-26.6,23.5-28,2.4-.2,4.8-.1,7.1.3.5,0,.9.6.8,1.2s-.6.9-1.2.8c-2.2-.4-4.4-.5-6.6-.3-13.2,1.2-22.9,12.8-21.7,25.8l.7,7.5v.2c-.2,2.9-.3,5.6-.4,7.7,0,1,0,1.9-.1,2.7-.4,8.1-5.5,11.4-10.1,14.3-2.5,1.6-4.9,3.1-6.5,5.3-2.6,3.6-1.7,6.5-.5,10.4.8,2.6,1.7,5.6,1.7,9.2,0,8.9-1.8,12.5-6.1,17.4-.2.2-.5.3-.8.3h0Z"/>
          <rect class="st2" x="54.1" y="62.8" width="43.8" height="32.8" transform="translate(-10.6 146.6) rotate(-84)"/>
          <path class="st0" d="M92.3,81.8l2.4-22.7-20.7-2.2-7.4,7.1c4.2,9.2,13.3,15.8,25.8,17.8h0Z"/>
          <path class="st2" d="M90.5,72.5h0c-14.4,2.4-28-7.3-30.4-21.7l-2.7-16.3c-2.4-14.4,7.3-28,21.7-30.4h0c14.4-2.4,28,7.3,30.4,21.7l2.7,16.3c2.4,14.4-7.3,28-21.7,30.4Z"/>
          <path class="st0" d="M76.9,2.9h0c-15.6,2.6-26.2,16.9-23.7,31.9l.9,5.6c12.1,5.1,26.8,1.5,34.9-9.4l10.5-14.1c1.3-1.8,2.4-3.6,3.2-5.5-6.3-6.7-15.9-10.1-25.8-8.5h0Z"/>
          <path class="st2" d="M65.3,55.4h0c-3.7,2.5-8.6,1.5-11.1-2.2l-.7-1.1c-2.5-3.7-1.5-8.7,2.2-11.1h0c3.7-2.5,8.6-1.5,11.1,2.2l.7,1.1c2.5,3.7,1.5,8.6-2.2,11.1Z"/>
          <path class="st0" d="M108.2,37.5c0,2-1,3.6-2.3,3.6s-2.3-1.6-2.3-3.6c0-2,1-3.6,2.3-3.6s2.3,1.6,2.3,3.6Z"/>
          <path class="st0" d="M114,32.5c-.2,0-.5,0-.6-.2-4.4-3.7-11-1.5-11.1-1.5-.5.2-1.1-.1-1.3-.6s.1-1.1.6-1.3c.3-.1,7.7-2.6,13,1.8.4.4.5,1,.1,1.4-.2.2-.5.4-.8.4h0Z"/>
          <path class="st0" d="M90.5,38.7c0,2-1,3.6-2.3,3.6s-2.3-1.6-2.3-3.6c0-2,1-3.6,2.3-3.6s2.3,1.6,2.3,3.6Z"/>
          <path class="st0" d="M82.3,33.4c-.4,0-.7-.2-.9-.5-.3-.5,0-1.1.4-1.4.3-.2,7.2-3.8,13.1-.4.5.3.6.9.4,1.4-.3.5-.9.6-1.4.4-5-2.9-11.1.4-11.2.4-.1,0-.3.1-.5.1h0Z"/>
          <path class="st0" d="M99,51.3c-.5,0-.9-.3-1-.8,0-.5.3-1.1.8-1.2,1-.2,3.2-.8,3.7-1.8,0-.1.2-.4-.1-1-1.5-2.7-4.8-11.1-4.9-11.5-.2-.5,0-1.1.6-1.3.5-.2,1.1,0,1.3.6,0,0,3.3,8.7,4.8,11.2.7,1.3.5,2.3.2,2.9-1,2.2-4.7,2.8-5.1,2.9,0,0-.1,0-.2,0Z"/>
          <path class="st0" d="M90.9,62.6c-.9,0-1.7-.2-2.4-.7-2.9-2-1.7-7.5-1.5-8.1,0-.3.2-.5.5-.6.2-.1.5-.2.8,0,7.7,2.6,11.6,4.2,11.6,4.8,0,.4-.1.8-.4,1h0c-3.6,2.5-6.5,3.7-8.6,3.7h0ZM88.8,55.4c-.2,1.6-.3,4,.9,4.9.7.5,2.6.8,7.1-2-2-.7-5.4-1.9-8.1-2.8h0ZM99,58h0ZM99,58h0Z"/>
          <path class="st0" d="M63.3,51.8c-.5,0-.9-.4-1-.9-.5-5.3-3.8-6.2-3.9-6.2-.5-.1-.9-.7-.7-1.2s.7-.9,1.2-.7c.2,0,4.8,1.2,5.5,8,0,.5-.4,1-.9,1.1h-.1Z"/>
        </g>
        <path class="st0" d="M89.7,86.3l-27.4,5.8c-18.6,5.2-33.8,18.6-41.4,36.4L2.7,171.8c-12,28.5,18.9,56.1,45.9,40.9l37.3-21,41.5-8.2,2.6-73.5c-5.3-17.2-22.8-27.5-40.3-23.8h0Z"/>
        <g>
          <rect class="st1" x="58.5" y="156.4" width="150.2" height="14" transform="translate(-69.4 221.4) rotate(-66.7)"/>
          <path class="st1" d="M187,113.8c-1.3,0-2.6-.3-3.9-.8l-46.5-20c-5-2.2-7.4-8.1-5.2-13.1l14.3-33.2c1-2.4,3-4.3,5.5-5.3,2.5-1,5.2-.9,7.6.1l46.5,20c2.4,1,4.3,3,5.3,5.5,1,2.5.9,5.2-.1,7.6l-14.3,33.2c-1.6,3.8-5.3,6-9.2,6ZM145.8,81.7l39.1,16.8,11.1-25.8-39.1-16.8-11.1,25.8h0Z"/>
          <rect class="st1" x="103.1" y="171.7" width="14" height="26.7" transform="translate(-103.4 212.8) rotate(-66.7)"/>
          <rect class="st1" x="103.7" y="191.6" width="14" height="14.4" transform="translate(-115.6 221.7) rotate(-66.7)"/>
          <rect class="st1" x="93.3" y="194.4" width="14" height="26.7" transform="translate(-130.2 217.6) rotate(-66.7)"/>
        </g>
        <g>
          <g>
            <path class="st2" d="M149.2,133.9s16.1.2,20.2-4.2c4.6-4.9,2.9-10.3-2-15l-4-2.6-3.4,7.6-10.8,14.2h0Z"/>
            <path class="st2" d="M144.6,145.1s9.6,0,14.7-2.4c7.1-3.3,9.5-11,8.4-11.1l-23.1,13.5h0Z"/>
            <path class="st2" d="M142,153.2s5.1,0,10.2-1.8,7.7-5.3,7.1-8.7l-17.3,10.4Z"/>
            <path class="st2" d="M152.2,151.4s-1.3,5.2-8.7,7.1c-12,3.1-26.4-1.3-26.4-1.3l-38,29.1c-5.6,4.3-13.2,5.2-19.6,2.3h0c-8.7-3.9-13.3-13.6-10.8-22.7l1.3-4.7c1.3-4.9,4.5-9,8.9-11.6l43-25.1,9-8.1c6.4-5.8,14.8-8.8,23.4-8.5l15.6.8-6.3,14.1,8.5,28.8h0Z"/>
          </g>
          <path class="st2" d="M168.3,115.4c0-.4,4.9,4.4,4.7,7.9-.2,6.9-4.8,7.2-4.8,7.2,0,0,.2,8.8-8.8,12.2-.8.3.4,5.6-7.4,9.4-1.6.8-.9,5.4-10.8,7.3-14.8,2.9-27.2-3.1-27.2-3.1l17-40.7s10.5,8.4,19.7,8.1c12.9-.5,16.8-4,17.6-8.5h0Z"/>
          <g>
            <path class="st0" d="M148.4,125c-9.2,0-12.9-4-13.6-4.9-.3-.4-.3-1.1.2-1.4.4-.3,1.1-.3,1.4.2.5.6,5,5.8,18.1,3.7,5.4-.9,6-4.1,6-4.2.1-.5.6-.9,1.1-.8.5,0,.9.6.8,1.1,0,.2-.8,4.7-7.7,5.8-2.4.4-4.5.6-6.3.6h0Z"/>
            <path class="st0" d="M149.5,134.9h-.3c-.5,0-1-.5-1-1,0-.6.5-1,1-1h.5c4.7,0,16-.7,19.1-3.9,1.8-1.9,2.6-4,2.4-6.3-.3-3.1-2.4-6.2-6-8.9-.4-.3-.5-.9-.2-1.4.3-.4,1-.5,1.4-.2,4.1,3,6.5,6.7,6.8,10.3.3,2.8-.8,5.6-2.9,7.9-4.1,4.4-18.3,4.5-20.7,4.5h0Z"/>
            <path class="st0" d="M144.6,146.1c-.5,0-1-.4-1-1s.5-1,1-1,9.4,0,14.3-2.3c5.7-2.6,8-8.2,8.1-9.6-.2-.2-.3-.5-.2-.8,0-.5.6-.9,1.1-.8.4,0,1,.4,1.1,1.2.3,2.1-2.6,8.8-9.2,11.8-5.3,2.4-14.8,2.5-15.1,2.5h0Z"/>
            <path class="st0" d="M142,154.2c-.5,0-1-.4-1-1,0-.6.4-1,1-1,0,0,5-.1,9.9-1.7,4.3-1.4,7-4.5,6.5-7.6-.1-.5.3-1.1.8-1.2.5-.1,1.1.3,1.2.8.7,4-2.5,8-7.8,9.8-5.2,1.7-10.3,1.8-10.5,1.8h0,0Z"/>
            <path class="st0" d="M67.4,191.3c-2.8,0-5.6-.6-8.3-1.8-9.2-4.1-14-14.2-11.3-23.9l1.3-4.7c1.4-5.2,4.7-9.5,9.4-12.2l42.9-25.1,9.4-8.5c6.4-5.7,14.5-8.7,23.1-8.4l15.4.7c.5,0,1,.5,1,1,0,.6-.5,1-1,.9l-15.4-.7c-8-.3-15.7,2.5-21.6,7.9l-9.5,8.5c0,0-.1,0-.2.1l-43,25.1c-4.2,2.4-7.2,6.3-8.4,11l-1.3,4.7c-2.4,8.8,1.9,17.9,10.2,21.6,6.1,2.8,13.3,1.9,18.6-2.2l38-29.1c.2-.2.6-.2.9-.2.1,0,14.3,4.2,25.8,1.3,6.7-1.7,7.9-6.2,8-6.4.1-.5.7-.9,1.2-.7.5.1.9.7.7,1.2,0,.2-1.5,5.8-9.4,7.9-11,2.8-23.7-.4-26.4-1.1l-37.6,28.8c-3.6,2.8-8,4.2-12.4,4.2h0Z"/>
          </g>
        </g>
        <path class="st2" d="M92.7,82l-30.4,9c-5.4,1.6-10.5,3.9-15.3,6.9,7.4,12.4,22.9,17.9,37.2,12.2,2-.8,3.8-1.8,5.5-2.8l3-25.2h0Z"/>
        <path class="st1" d="M210.4,174.1c-.3,0-.7-.2-.9-.5l-7.8-12.6-13.1,3.4c-.4.1-.8,0-1.1-.4-.2-.3-.2-.8,0-1.1l7-10.2-6.6-13.3c-.2-.4-.1-.8.2-1.1.3-.3.7-.4,1.1-.3l13.3,5.1,9-11.9c.2-.3.7-.5,1.1-.4.4.1.7.5.7.9l1.2,15.6,16.2,2.2c.5,0,.8.4.9.9,0,.5-.2.9-.7,1l-18,5.9-1.6,15.8c0,.4-.4.8-.8.9,0,0-.1,0-.2,0h0ZM202.1,158.9c.3,0,.7.2.9.5l6.7,10.8,1.4-13.5c0-.4.3-.7.7-.9l14.5-4.7-12.7-1.8c-.5,0-.8-.4-.9-.9l-1.1-13.7-7.8,10.4c-.3.4-.7.5-1.2.3l-11.7-4.5,5.7,11.5c.2.3.1.7,0,1l-5.8,8.4,11.2-2.9c0,0,.2,0,.2,0h0Z"/>
        <path class="st1" d="M213.1,40.9c-.4,0-.7-.2-.9-.5l-2.2-4.1-4.1-2.2c-.3-.2-.5-.5-.5-.9s.2-.7.5-.9l4.1-2.2,2.2-4.1c.4-.6,1.4-.6,1.8,0l2.2,4.1,4.1,2.2c.3.2.5.5.5.9s-.2.7-.5.9l-4.1,2.2-2.2,4.1c-.2.3-.5.5-.9.5h0ZM208.4,33.1l2.8,1.5c.2,0,.3.2.4.4l1.5,2.8,1.5-2.8c0-.2.2-.3.4-.4l2.8-1.5-2.8-1.5c-.2,0-.3-.2-.4-.4l-1.5-2.8-1.5,2.8c0,.2-.2.3-.4.4l-2.8,1.5Z"/>
        <path class="st2" d="M11.6,179.2c-.4,0-.7-.2-.9-.5-.3-.5-.1-1.1.4-1.4l48.8-27.5c.5-.3,1.1-.1,1.4.4.3.5.1,1.1-.4,1.4l-48.8,27.5c-.2,0-.3.1-.5.1h0Z"/>
        <path class="st2" d="M129.3,106.9c-.4,0-.8-.2-.9-.6-6.1-13.7-20.5-21.7-35.1-19.5l-3.4.5c-.5,0-1.1-.3-1.1-.8,0-.6.3-1.1.8-1.1l3.4-.5c15.5-2.3,30.8,6.2,37.2,20.7.2.5,0,1.1-.5,1.3-.1,0-.3,0-.4,0h0Z"/>
      </g>
    </g>
  </g>
</svg>