<?xml version="1.0" encoding="UTF-8"?>
<svg id="Layer_1" xmlns="http://www.w3.org/2000/svg" version="1.1" viewBox="0 0 297.2 228.9">
  <!-- Generator: Adobe Illustrator 29.2.0, SVG Export Plug-In . SVG Version: 2.1.0 Build 108)  -->
  <defs>
    <style>
      .st0 {
        fill: #303030;
      }

      .st1 {
        fill: #26a8df;
      }

      .st2 {
        fill: #fafafa;
      }
    </style>
  </defs>
  <g id="Layer_2">
    <g id="_Layer_">
      <g>
        <g>
          <path class="st2" d="M276.8,226.2l-17.2-51.8c-4.2-12.5-14.5-21.9-27.3-24.8l-67-15.3c-16.2-3.7-32.8,3.7-41,18l-42.1,73.8h194.7Z"/>
          <path class="st0" d="M276.8,227.2c-.4,0-.8-.3-1-.7l-17.2-51.8c-4-12.1-14.2-21.3-26.6-24.1l-67-15.3c-15.8-3.6-31.9,3.4-39.9,17.6l-42.1,73.8c-.3.5-.9.7-1.4.4-.5-.3-.7-.9-.4-1.4l42-73.8c8.5-14.9,25.4-22.3,42.1-18.5l67,15.3c13.1,3,23.8,12.7,28,25.4l17.2,51.8c.2.5-.1,1.1-.6,1.3-.1,0-.2,0-.3,0h0Z"/>
        </g>
        <g>
          <path class="st2" d="M58.2,227l-1.2-97.7-15.9-83.3-31.6-4.5-3.4,11.7-3.6,15.7c-2.9,12.5-1.3,25.6,4.4,37.1l5.7,11.3L2.6,227.1h55.6Z"/>
          <path class="st0" d="M2.6,228.1h0c-.5,0-1-.5-.9-1.1l10-109.4-5.6-11.1C0,94.8-1.5,81.4,1.4,68.7l3.6-15.7,3.4-11.7c.1-.5.6-.8,1.1-.7l31.6,4.5c.4,0,.8.4.8.8l15.9,83.3c0,0,0,.1,0,.2l1.2,97.7c0,.6-.4,1-1,1h0c-.5,0-1-.4-1-1l-1.2-97.6-15.7-82.5-30-4.2-3.1,10.8-3.6,15.6c-2.8,12.3-1.3,25.2,4.4,36.4l5.7,11.3c0,.2.1.3.1.5L3.6,227.2c0,.5-.5.9-1,.9h0Z"/>
        </g>
        <g>
          <path class="st2" d="M132.9,227.9l-27-68.1c-9.2-23.2-11.4-48.6-6.3-73l8.4-40.6,31.6-4.5,3.4,11.7,3.6,15.7c2.9,12.5,1.3,25.6-4.4,37.1l-5.7,11.3,65.3,110.6h-68.9s0,0,0,0Z"/>
          <path class="st0" d="M201.8,228.9c-.3,0-.7-.2-.9-.5l-65.3-110.6c-.2-.3-.2-.7,0-1l5.7-11.3c5.7-11.2,7.2-24.2,4.4-36.4l-3.6-15.7-3.1-10.8-30.1,4.2-8.3,39.9c-5,24.3-2.9,49.4,6.3,72.5l27,68.1c.2.5,0,1.1-.6,1.3-.5.2-1.1,0-1.3-.6l-27-68.1c-9.3-23.5-11.5-48.9-6.4-73.6l8.4-40.6c0-.4.4-.7.8-.8l31.6-4.5c.5,0,1,.2,1.1.7l3.4,11.7,3.7,15.7c3,12.7,1.4,26.1-4.5,37.8l-5.4,10.8,65,110.1c.3.5.1,1.1-.4,1.4-.2,0-.3.1-.5.1h0Z"/>
        </g>
        <g>
          <path class="st1" d="M132.6,75.4v-21.5h-12c-1.2-5.4-3.3-10.4-6.2-14.9l8.5-8.5-15.2-15.2-8.5,8.5c-4.5-2.9-9.6-5-14.9-6.2V5.6h-21.5v12c-5.4,1.2-10.4,3.3-15,6.2l-8.5-8.5-15.2,15.2,8.5,8.5c-2.9,4.5-5,9.6-6.2,14.9h-12v21.5h12c1.2,5.4,3.4,10.4,6.2,14.9l-8.5,8.5,15.2,15.2,8.5-8.5c4.5,2.8,9.6,5,15,6.2v12h21.5v-12c5.4-1.2,10.4-3.3,14.9-6.2l8.5,8.5,15.2-15.2-8.5-8.5c2.9-4.5,5-9.6,6.2-14.9h12ZM73.6,80.8c-8.9,0-16.1-7.2-16.1-16.1s7.2-16.1,16.1-16.1,16.1,7.2,16.1,16.1-7.2,16.1-16.1,16.1Z"/>
          <path class="st2" d="M73.6,93.8c-16.1,0-29.1-13.1-29.1-29.1s13.1-29.1,29.1-29.1,29.2,13.1,29.2,29.1-13.1,29.1-29.2,29.1ZM73.6,37.5c-15,0-27.1,12.2-27.1,27.1s12.2,27.1,27.1,27.1,27.2-12.2,27.2-27.1-12.2-27.1-27.2-27.1Z"/>
        </g>
        <g>
          <path class="st0" d="M175.4,118.8c10.6,6.5,29.1,17.2,43.8,15.9,14.8-1.2,38.4,4.3,30.9-10.8s-13.9-17.7-8.5-23.4c5.4-5.7,40.4-31.8,13.3-52.6s-74-8.4-89.9,10.5c-16,18.9,7.6,22.1,1.6,28.2-6.1,6.1-14.1,8.3-9.3,15.2,4.8,6.9,10.5,12.3,18.1,16.9h0Z"/>
          <g>
            <path class="st2" d="M168.1,135.1c.1,0,.2,0,.3,0l7.6,1.9,11.8-51.1,34.7,8-11.9,51.5,12.8,3.1c.7.2,1.4.4,2,.6-.3.8-.7,1.5-1,2.2-8.2,16.2-26.8,23.3-41.4,15.9-11.5-5.8-17.1-19-15-32.2h0Z"/>
            <path class="st0" d="M195.4,171.3c-4.4,0-8.8-1-12.8-3.1-11.6-5.9-17.8-19.3-15.5-33.3,0-.3.2-.5.4-.7.2-.2.5-.2.8-.1h.1c0,0,.1,0,.2,0l6.6,1.6,11.6-50.1c0-.3.2-.5.4-.6.2-.1.5-.2.8-.1l34.7,8c.5.1.9.7.8,1.2l-11.7,50.5,11.9,2.9c.5.1,1,.3,1.5.4l.6.2c.3,0,.5.3.6.5s.1.6,0,.8c-.4.9-.7,1.6-1.1,2.3-4.1,8.1-10.8,14.2-18.8,17.3-3.7,1.4-7.4,2.1-11.1,2.1h0ZM168.9,136.3c-1.7,12.8,4.1,24.8,14.6,30.1,6.8,3.5,14.7,3.8,22.2.9,7.6-2.9,13.9-8.7,17.8-16.3.2-.4.4-.7.6-1.2-.3,0-.6-.2-.9-.2l-12.8-3.1c-.5-.1-.9-.7-.7-1.2l11.7-50.5-32.8-7.6-11.6,50.1c0,.3-.2.5-.4.6s-.5.2-.8.1l-6.9-1.7h0Z"/>
          </g>
          <path class="st0" d="M243.1,53s34.5,14.3,42.8,11.7c11.5-3.5,16.2-23.6,4.8-30.7-11.3-7.1-33.4-5.1-47.7,18.9h0Z"/>
          <g>
            <path class="st2" d="M208.1,106.2c-6.9,3.5-22.2,9.1-30.6,3.1-13.1-9.3-3.7-41,2.7-51.3,6.4-10.3,13.1-23.3,37.8-12.2,24.6,11.1,5.6,18.6,5.6,18.6,0,0-2.8,9,.2,12.3,3,3.3,20.8,11.1-15.7,29.6h0Z"/>
            <path class="st0" d="M187.2,113c-3.7,0-7.3-.8-10.2-2.8-7.6-5.4-7.7-17.3-6.4-26.2,1.5-10.5,5.6-21.3,8.8-26.4l.8-1.3c6.2-9.9,13.8-22.3,38.2-11.3,9,4.1,13.3,8,13.2,12.2-.1,4.5-5.5,7.2-7.2,8-.7,2.7-1.9,8.7.1,10.9.3.3.9.8,1.5,1.3,2.5,2,6.2,5,5.7,9.7-.6,6-8.2,12.6-23.1,20.2h0c-1.5.8-11.9,5.8-21.4,5.8h0ZM201.6,42.5c-10.5,0-15.1,7.4-19.6,14.7l-.8,1.3c-6.9,11-15.2,41.3-3,50,7.7,5.5,22.2.6,29.6-3.2h0c14.1-7.2,21.5-13.4,22.1-18.7.4-3.6-2.7-6.1-5-7.9-.7-.6-1.3-1.1-1.7-1.5-3.2-3.6-.7-12.3-.4-13.3,0-.3.3-.5.6-.6,0,0,6.3-2.5,6.4-6.4,0-2.2-2-5.8-12-10.3-6.6-3-11.8-4.2-16.1-4.2h0ZM208.1,106.2h0Z"/>
          </g>
          <path class="st0" d="M184.7,81.8c-.2,0-.4,0-.5-.2-2.3-1.5-3.4-5.6-3.5-6.1,0-.4,0-.8.4-1.1,0,0,4.7-3.2,6.6-9.4,1.7-5.7-5-8.8-5.3-8.9-.5-.2-.7-.8-.5-1.3s.8-.7,1.3-.5c3,1.3,8.2,5.4,6.4,11.3-1.7,5.6-5.4,8.9-6.8,10.1.4,1.3,1.2,3.5,2.4,4.2.5.3.6.9.3,1.4-.2.3-.5.5-.9.5h0Z"/>
          <path class="st0" d="M188.2,91.9c-1.3,0-2.5-.3-3.6-1.2-.4-.4-.5-1-.1-1.4.4-.4,1-.5,1.4-.1,3.3,2.8,10.7-2.7,13.3-5,.4-.4,1-.3,1.4,0,.4.4.3,1,0,1.4-.4.3-7,6.2-12.3,6.2h0Z"/>
          <path class="st0" d="M201.7,69.9c.5-1.7,1.9-2.8,3.2-2.4s1.8,2.1,1.3,3.8c-.5,1.7-1.9,2.8-3.2,2.4s-1.8-2.1-1.3-3.8Z"/>
          <path class="st0" d="M180.2,64.2c.5-1.7,1.9-2.8,3.2-2.4s1.8,2.1,1.3,3.8c-.5,1.7-1.9,2.8-3.2,2.4s-1.8-2.1-1.3-3.8Z"/>
          <path class="st0" d="M239.8,80.5c-.1.6-.3,1.1-.5,1.7-3.5,0-7.1-.3-10.8-1.1-18.5-4.3-30.8-19.3-27.4-33.5.8-3.6,2.5-6.7,4.9-9.4,23,10.6,37.3,27.4,33.8,42.3h0Z"/>
          <path class="st2" d="M221.4,84.9c-1.2,5,2,10,7,11.2,5,1.2,10-2,11.2-7,1.2-5-2-10-7-11.2-5-1.2-10,2-11.2,7h0Z"/>
          <path class="st0" d="M255.3,128.4c-.2,0-.4,0-.6-.2-.5-.3-.6-.9-.3-1.4,1.4-2.1.3-5.1-1.1-7.2-.5-.7-1.1-1.4-1.6-2.2-1.3-1.7-2.7-3.4-3.4-5.5-1.1-3.2-.4-7.2,1.8-10.9,1.6-2.6,3.7-4.7,5.7-6.8.4-.4.8-.9,1.3-1.3,5.6-5.8,8.8-11,10.1-16.2,1.4-5.5.4-12.9-4.7-17.1-.4-.3-.5-1-.1-1.4.4-.4,1-.5,1.4-.2,5,4.1,7.2,11.8,5.4,19.1-1.8,7.4-6.9,13.3-10.6,17.1-.4.4-.8.9-1.3,1.3-2,2-4,4.1-5.4,6.5-1.9,3.2-2.5,6.5-1.6,9.2.6,1.8,1.8,3.3,3.1,4.9.6.7,1.2,1.5,1.7,2.3,1.8,2.6,3.1,6.5,1.1,9.4-.2.3-.5.4-.8.4h0Z"/>
        </g>
        <path class="st2" d="M146.1,86.5c1.1-9.4-4.1-31.7-4.3-32.7l-2.5-11c-.2-.7-.8-1.1-1.5-1l-28.4,4.8c-.5,0-1,.5-1.1,1.1-.6,2.4-.8,6.9,1.6,9.8l-6.6,1c-.6,0-1.1.6-1.2,1.2,0,.4-1.2,9,4.7,11.7-.1,1.7-.1,5,1.5,7.5,1,1.5,2.4,2.4,4.1,2.8-.4,2.1-.3,4.9,1.9,7,2.2,2,11,2.2,15,2-1.2,1.4-3.9,5.4-3.8,8.2,0,.8,19.4-2.1,20.6-12.4h0Z"/>
        <path class="st0" d="M105.9,70.8c-.1,0-.3,0-.4,0-6.3-2.9-5.2-11.7-5.2-12.1,0-.4.4-.8.9-.9l40.1-5.4c.6,0,1.1.3,1.1.9,0,.6-.3,1.1-.9,1.1l-39.3,5.3c0,2,0,7.4,4.1,9.2.5.2.7.8.5,1.3-.2.4-.5.6-.9.6h0Z"/>
        <path class="st0" d="M111.7,57.7c-.1,0-.3,0-.4,0-5.1-2.3-5-8.7-4.2-11.7,0-.4.4-.7.8-.7l31.9-4.7c.5,0,1,.2,1.1.7l3,11.8c.1.5-.2,1.1-.7,1.2-.5.1-1.1-.2-1.2-.7l-2.8-10.9-30.3,4.5c-.3,1.8-.8,6.9,3.2,8.7.5.2.7.8.5,1.3-.2.4-.5.6-.9.6h0Z"/>
        <path class="st0" d="M112.9,81.9c0,0,0,0-.2,0-2.3-.3-4.1-1.4-5.3-3.1-2.5-3.6-1.6-8.7-1.6-8.9,0-.4.4-.8.9-.8l38.1-4.7c.6,0,1.1.3,1.1.9,0,.6-.3,1.1-.9,1.1l-37.3,4.6c-.1,1.4-.2,4.5,1.3,6.7.9,1.2,2.2,2,3.9,2.3.6,0,.9.6.8,1.1,0,.5-.5.8-1,.8h0Z"/>
        <path class="st0" d="M125.7,99.7h0c-.6,0-1-.5-.9-1.1.2-3.5,1.8-5.8,3.3-7.2-4.4.2-11.1,0-13.7-2.2-3.2-2.9-2.4-7.1-1.5-8.9.2-.3.5-.5.8-.6l30.4-2.3c.6,0,1,.4,1.1.9,0,.6-.4,1-.9,1.1l-29.8,2.3c-.4,1.2-1.1,4,1.2,6,2.6,2.3,12.6,1.8,16.2,1.4.5,0,1,.3,1.1.8.1.5-.2,1-.7,1.2-.2,0-5.2,1.8-5.7,7.7,0,.5-.5.9-1,.9h0Z"/>
        <path class="st2" d="M3,86.5c-1.1-9.4,4.1-31.7,4.3-32.7l2.5-11c.2-.7.8-1.1,1.5-1l28.4,4.8c.5,0,1,.5,1.1,1.1.6,2.4.8,6.9-1.6,9.8l6.6,1c.6,0,1.1.6,1.2,1.2,0,.4,1.2,9-4.7,11.7.1,1.7.1,5-1.5,7.5-1,1.5-2.4,2.4-4.1,2.8.4,2.1.3,4.9-1.9,7-2.2,2-11,2.2-15,2,1.2,1.4,3.9,5.4,3.8,8.2,0,.8-19.4-2.1-20.6-12.4h0Z"/>
        <path class="st0" d="M43.2,70.8c-.4,0-.7-.2-.9-.6-.2-.5,0-1.1.5-1.3,4-1.8,4.2-7.2,4-9.2l-39.3-5.3c-.6,0-.9-.6-.9-1.1,0-.6.6-.9,1.1-.9l40.1,5.4c.5,0,.8.4.9.9,0,.4,1.2,9.2-5.2,12.1-.1,0-.3,0-.4,0h0Z"/>
        <path class="st0" d="M37.4,57.7c-.4,0-.7-.2-.9-.6-.2-.5,0-1.1.5-1.3,4-1.8,3.5-6.9,3.2-8.7l-30.4-4.5-2.8,10.9c-.1.5-.7.9-1.2.7-.5-.1-.9-.7-.7-1.2l3-11.8c.1-.5.6-.8,1.1-.7l31.9,4.7c.4,0,.7.3.8.7.8,3,.9,9.3-4.2,11.7-.1,0-.3,0-.4,0h0Z"/>
        <path class="st0" d="M36.2,81.9c-.5,0-.9-.3-1-.8,0-.6.3-1.1.8-1.1,1.8-.3,3-1,3.9-2.3,1.5-2.2,1.5-5.3,1.3-6.7l-37.3-4.6c-.5,0-.9-.6-.9-1.1,0-.6.6-.9,1.1-.9l38.1,4.7c.4,0,.8.4.9.8,0,.2,1,5.4-1.6,8.9-1.2,1.7-3,2.7-5.3,3.1,0,0,0,0-.2,0h0Z"/>
        <path class="st0" d="M23.4,99.7c-.5,0-1-.4-1-.9-.4-6-5.4-7.7-5.6-7.7-.5-.2-.8-.7-.7-1.2.1-.5.6-.8,1.1-.8,3.6.4,13.6.9,16.2-1.4,2.3-2.1,1.6-4.9,1.2-6l-29.8-2.3c-.6,0-1-.5-.9-1.1s.5-1,1.1-.9l30.5,2.3c.3,0,.7.2.8.6.9,1.8,1.7,6-1.5,8.9-2.5,2.3-9.2,2.4-13.7,2.2,1.6,1.5,3.1,3.8,3.4,7.2,0,.6-.4,1-.9,1.1h0Z"/>
        <path class="st0" d="M160.3,21.5v-5.2l-4.6-.4c-.3-1.7-.9-3.3-1.8-4.7l3.1-3.7-3.7-3.7-3.6,3c-1.4-.9-3-1.7-4.6-2.1l-.4-4.8h-5.2l-.4,4.6c-1.7.3-3.3.9-4.7,1.8l-3.7-3.1-3.7,3.7,3,3.6c-.9,1.4-1.6,3-2.1,4.6l-4.8.4v5.2l4.6.4c.3,1.7,1,3.3,1.8,4.7l-3.1,3.7,3.7,3.7,3.6-3c1.4.9,3,1.7,4.6,2.1l.4,4.8h5.2l.4-4.6c1.7-.3,3.3-.9,4.7-1.8l3.7,3.1,3.7-3.7-3-3.6c.9-1.4,1.6-3,2.1-4.6l4.8-.4h0ZM141.8,26.3c-4.2,0-7.7-3.4-7.7-7.7s3.4-7.7,7.7-7.7,7.7,3.4,7.7,7.7-3.4,7.7-7.7,7.7Z"/>
      </g>
    </g>
  </g>
</svg>