<?xml version="1.0" encoding="UTF-8"?>
<svg id="Layer_1" xmlns="http://www.w3.org/2000/svg" version="1.1" viewBox="0 0 385.5 251.2">
  <!-- Generator: Adobe Illustrator 29.1.0, SVG Export Plug-In . SVG Version: 2.1.0 Build 142)  -->
  <defs>
    <style>
      .st0 {
        fill: #303030;
      }

      .st1 {
        fill: #afd3f0;
      }

      .st2 {
        fill: #fafafa;
      }
    </style>
  </defs>
  <g id="Layer_2">
    <g id="_Layer_">
      <g>
        <polygon class="st1" points="23.6 130.1 0 106.4 7.1 99.4 23.6 115.8 60.7 78 67.8 85 23.6 130.1"/>
        <polygon class="st1" points="341.3 116.7 317.7 93 324.7 86 341.2 102.4 378.3 64.6 385.5 71.6 341.3 116.7"/>
        <g>
          <g>
            <path class="st2" d="M286.5,57.7c-5.1-2.6-8.4-1-10.4.8-.3.2-.5.5-.8.8,2.1-11,.6-19.3-4.7-24.8-4.5-4.8-12-7.4-21.5-7.6-7.2-.1-13.1,1.2-13.1,1.2-.2,0-.3.2-.4.3-.6,1.2-14.3,30.5-13.4,45.8.9,15.3,1.2,20.2,1.2,20.2,0,.2,0,.3.2.4,0,0,5.7,4.3,15.7,4.6l-1.6,13.1c0,.2,0,.4.2.5.2.2,2.6,2.5,10.9,2.5,5.9,0,14.7-1.2,27.7-5.2.2,0,.4-.3.4-.5l1.4-29.6c4.1.3,8.6-2.6,11-7.6,2.9-6,1.7-12.6-2.9-14.9h0Z"/>
            <path class="st0" d="M279.4,21.8c-5.1,0-9.8,1.8-13.5,4.8,13.9,3.9,24.2,17,24.2,32.7,0,.7,0,1.4,0,2.1,6.3-3.7,10.6-10.5,10.6-18.4,0-11.7-9.5-21.2-21.2-21.2h0Z"/>
            <path class="st0" d="M275.7,72l13-.7,7.3-14.3c3.6-7.1,3-15.6-1.6-22.1-5.1-7.2-11.3-15.4-13.1-15.4s-25.4-3.4-40.1-4.1c-8.2-.4-15.2,5.9-15.7,14.1l2.2,17.3,8.4-18.9s13.1,14.2,35.1,12.6l4.4,31.6h0Z"/>
            <path class="st1" d="M250.2,64.1c-2.5,0-4.9-1-6.7-2.8-1.8-1.8-2.8-4.2-2.8-6.7h0c0-5.2,4.3-9.5,9.5-9.5h0c5.2,0,9.5,4.3,9.5,9.5s-1,4.9-2.8,6.7c-1.8,1.8-4.2,2.8-6.7,2.8h0ZM250.2,47h0c-4.1,0-7.5,3.4-7.5,7.5h0c0,2,.8,3.9,2.2,5.3,1.4,1.4,3.3,2.2,5.3,2.2h0c2,0,3.9-.8,5.3-2.2s2.2-3.3,2.2-5.3c0-4.2-3.4-7.5-7.5-7.5h0Z"/>
            <path class="st0" d="M235.7,77.1c-.5,0-.9-.4-1-.9,0-.6.3-1,.9-1.1l8.6-1c.6,0,1,.3,1.1.9,0,.6-.3,1-.9,1.1l-8.6,1h-.1Z"/>
            <g>
              <path class="st2" d="M276.1,79c4.2,2.1,10-.9,12.8-6.6s1.6-12.1-2.6-14.1c-4.2-2.1-10,.9-12.8,6.6l2.6,14.1Z"/>
              <path class="st0" d="M279,80.7c-1.2,0-2.3-.2-3.4-.8-.5-.2-.7-.8-.5-1.3s.8-.7,1.3-.5c1.8.9,3.9.7,6-.4,2.2-1.2,4.1-3.2,5.4-5.8,2.6-5.2,1.6-11-2.2-12.8-1.8-.9-3.9-.7-6,.4-2.2,1.2-4.1,3.2-5.4,5.8-.2.5-.8.7-1.3.5s-.7-.8-.5-1.3c1.4-3,3.7-5.3,6.3-6.7,2.7-1.4,5.5-1.5,7.8-.4,4.7,2.3,6.1,9.2,3.1,15.5-1.4,3-3.7,5.3-6.3,6.7-1.5.8-3,1.2-4.5,1.2h0Z"/>
            </g>
            <path class="st1" d="M235,52.1c-.6,0-1-.4-1-1s.4-1,1-1h5.9c.6,0,1,.4,1,1s-.4,1-1,1h-5.9Z"/>
            <path class="st0" d="M248.3,53.1c0,1.7.7,3.1,1.6,3.1s1.6-1.4,1.6-3.1-.7-3.1-1.6-3.1-1.6,1.4-1.6,3.1Z"/>
            <path class="st0" d="M229.4,50.8c0,1.7.7,3.1,1.6,3.1s1.6-1.4,1.6-3.1-.7-3.1-1.6-3.1-1.6,1.4-1.6,3.1Z"/>
            <path class="st1" d="M276,61.9c-.1,0-.2,0-.4,0l-17.2-6.3c-.5-.2-.8-.8-.6-1.3.2-.5.8-.8,1.3-.6l17.2,6.3c.5.2.8.8.6,1.3-.1.4-.5.7-.9.7h0Z"/>
            <path class="st0" d="M240.3,99.9c-10.6,0-16.5-4.5-16.9-4.8-.2-.2-.4-.4-.4-.7,0,0-.3-4.8-1.2-20.2-.9-15.4,12.9-44.8,13.4-46,.2-.5.8-.7,1.3-.5.5.2.7.8.5,1.3-.1.3-14.1,30.1-13.2,45,.8,12.6,1.1,18.2,1.2,19.7,2.3,1.5,15.6,9.1,37.1-1.7.5-.2,1.1,0,1.3.4s0,1.1-.4,1.3c-9,4.5-16.6,6-22.7,6h0Z"/>
            <path class="st0" d="M276.4,110.8h0c-.6,0-1-.5-.9-1.1l1.4-29.9c0-.6.5-1,1.1-.9.6,0,1,.5.9,1.1l-1.4,29.9c0,.5-.5.9-1,.9Z"/>
            <path class="st0" d="M238.4,113.6h-.1c-.6,0-.9-.6-.9-1.1l1.7-13.5c0-.6.6-.9,1.1-.9.6,0,.9.6.9,1.1l-1.7,13.5c0,.5-.5.9-1,.9h0Z"/>
            <path class="st1" d="M227.4,61.3c-2.5,0-4.9-1-6.7-2.8-1.8-1.8-2.8-4.2-2.8-6.7s1-4.9,2.8-6.7c1.8-1.8,4.2-2.8,6.7-2.8h0c4.5,0,8.4,3.2,9.3,7.6.1.5-.2,1.1-.8,1.2-.5.1-1.1-.2-1.2-.8-.7-3.5-3.8-6-7.4-6h0c-2,0-3.9.8-5.3,2.2-1.4,1.4-2.2,3.3-2.2,5.3s.8,3.9,2.2,5.3c1.4,1.4,3.3,2.2,5.3,2.2h0c1,0,2-.2,2.9-.6.5-.2,1.1,0,1.3.5.2.5,0,1.1-.5,1.3-1.2.5-2.4.8-3.7.8h0Z"/>
            <path class="st0" d="M235.5,71.2c-.2,0-.4,0-.6-.2-1.4-.9-6.1-4.2-6.4-6.4-.1-.6.1-1.1.3-1.3.8-1.1,5.6-12,8.5-18.7.2-.5.8-.7,1.3-.5.5.2.7.8.5,1.3-.8,1.8-7.3,16.8-8.7,19,.2.8,2.8,3.1,5.6,5,.5.3.6.9.3,1.4-.2.3-.5.4-.8.4h0Z"/>
          </g>
          <rect class="st0" x="233.6" y="106.3" width="47.2" height="29.5" rx="5.6" ry="5.6"/>
        </g>
        <path class="st0" d="M179.9,223.5h145.1v-61.6c0-18.3-14.9-33.2-33.2-33.2h-64.3c-13.7,0-26,8.4-31,21.2l-16.6,73.6h0Z"/>
        <g>
          <g>
            <path class="st2" d="M114.9,90.9l-19.3,16.5,1.6,1.9c2.9,3.5,8.1,3.9,11.6.9l11.4-9.7-5.3-9.6h0Z"/>
            <path class="st0" d="M103.4,113.2c-2.6,0-5.2-1.1-7-3.2l-1.6-1.9c-.4-.4-.3-1.1.1-1.4l19.3-16.5c.2-.2.5-.3.8-.2.3,0,.6.2.7.5l5.3,9.6c.2.4.1.9-.2,1.2l-11.4,9.7c-1.7,1.5-3.9,2.2-6,2.2h0ZM96.9,107.5l1,1.1c2.6,3,7.2,3.4,10.2.8l10.8-9.2-4.3-7.8-17.7,15h0Z"/>
          </g>
          <g>
            <path class="st2" d="M112.5,90.2l-24.7,6.2.6,2.4c1.1,4.4,5.6,7.1,10,6l14.5-3.6-.4-10.9Z"/>
            <path class="st0" d="M96.4,106c-4.1,0-7.9-2.8-9-7l-.6-2.4c0-.3,0-.5.1-.8.1-.2.4-.4.6-.5l24.7-6.2c.3,0,.6,0,.8.2s.4.5.4.8l.4,10.9c0,.5-.3.9-.8,1l-14.5,3.6c-.8.2-1.5.3-2.2.3h0ZM89.1,97.1l.4,1.4c1,3.9,4.9,6.2,8.8,5.3l13.7-3.4-.4-8.9-22.5,5.6h0Z"/>
          </g>
          <g>
            <path class="st2" d="M176.9,223.5l-64.3-91.6c-5.3-6.2-7.8-14.2-7.2-22.3l2.4-30.6-21.1-1.7c-4.9-.4-8.6-4.7-8.2-9.6l.2-2.7,42.7,3.4,24.4,18.9,6,43.9,90.9,92.2h-65.8Z"/>
            <path class="st0" d="M176.9,224.5c-.3,0-.6-.2-.8-.4l-64.3-91.6c-5.4-6.3-8.1-14.5-7.4-22.9l2.4-29.6-20.1-1.6c-5.5-.4-9.5-5.2-9.1-10.7l.2-2.7c0-.3.2-.5.3-.7s.5-.2.7-.2l42.7,3.4c.2,0,.4,0,.5.2l24.4,18.9c.2.2.3.4.4.7l6,43.6,90.7,91.9c.4.4.4,1,0,1.4-.4.4-1,.4-1.4,0l-90.9-92.2c-.2-.2-.2-.3-.3-.6l-6-43.5-23.9-18.5-41.4-3.3v1.7c-.5,4.4,2.8,8.2,7.1,8.5l21.1,1.7c.6,0,1,.5.9,1.1l-2.4,30.6c-.6,7.9,1.8,15.5,7,21.5l64.4,91.7c.3.4.2,1.1-.2,1.4-.2.1-.4.2-.6.2h0Z"/>
          </g>
          <g>
            <path class="st2" d="M110.2,86.4l-25.3-2-.2,2.5c-.4,4.5,3,8.5,7.6,8.9l14.9,1.2,3.1-10.5h0Z"/>
            <path class="st0" d="M107.1,97.9h0l-14.9-1.2c-5.1-.4-8.9-4.9-8.5-9.9l.2-2.5c0-.6.5-1,1.1-.9l25.3,2c.3,0,.6.2.7.4s.2.6.1.8l-3.1,10.5c-.1.4-.5.7-1,.7h0ZM85.8,85.4v1.5c-.4,4,2.5,7.5,6.5,7.8l14.1,1.1,2.5-8.5-23.1-1.8h0Z"/>
          </g>
          <g>
            <path class="st0" d="M166.3,82.9l-89.7-6.5-14.9,5.5,13.2,7.5,89.7,6.5.2-.3c2.6-3.7,3.2-8.5,1.5-12.7h0Z"/>
            <path class="st2" d="M160.2,96.2h0c-.6,0-.9-.6-.9-1.1l1.3-12.3c0-.6.5-.9,1.1-.9.6,0,.9.6.9,1.1l-1.3,12.3c0,.5-.5.9-1,.9h0Z"/>
            <polygon class="st0" points="68.3 79.4 61.7 81.8 67.8 85.3 68.3 79.4"/>
          </g>
          <g>
            <path class="st2" d="M122.7,101.7l-23.5-27.6h-.1c-4.3,4.3-5,11-1.7,16l8.5,14.9,16.8-3.3Z"/>
            <path class="st0" d="M105.8,106c-.3,0-.7-.2-.9-.5l-8.5-14.9c-3.5-5.3-2.7-12.5,1.9-17.1h.1c.2-.3.5-.4.8-.4.3,0,.5.1.7.3l23.5,27.6c.4.4.3,1.1-.1,1.4s-1.1.3-1.4-.1l-22.8-26.7c-3.4,3.9-3.8,9.6-1,13.9l8.5,14.9c.3.5.1,1.1-.4,1.4-.2,0-.3.1-.5.1h0Z"/>
          </g>
        </g>
        <polygon class="st0" points="179.8 159.1 148 181.2 176.9 223.5 242.7 223.5 179.8 159.1"/>
        <path class="st2" d="M186.9,207.5h-.1c-.6,0-.9-.6-.9-1.1l5-34.9c0-.6.6-.9,1.1-.8.6,0,.9.6.9,1.1l-5,34.9c0,.5-.5.9-1,.9h0Z"/>
        <g>
          <rect class="st2" x="196.8" y="138.9" width="94.9" height="85.8"/>
          <path class="st0" d="M291.7,225.7c-.6,0-1-.4-1-1v-84.8h-92.9v84.8c0,.6-.4,1-1,1s-1-.4-1-1v-85.8c0-.6.4-1,1-1h94.9c.6,0,1,.4,1,1v85.8c0,.6-.4,1-1,1Z"/>
        </g>
        <g>
          <path class="st2" d="M279.3,197.4l6.6,25.1s24-5.3,28-21.6c4.1-16.2,5.3-41.9-7.9-47.1-13.3-5.2-36-.9-36-.9,0,0-3.2,5.1,3.6,9,6.8,3.9,9.3,6.7,9.3,6.7l-19.2.3s-1.8,3.2-.2,8.4,1.8,13.6,15.7,20.1h0Z"/>
          <path class="st0" d="M293,220.6c-.4,0-.8-.3-.9-.7-.2-.5,0-1.1.6-1.3,8.2-2.9,18.3-8.3,20.3-17.9,2.5-11.6,6.7-39.3-7.4-45.9-11.7-5.5-31.4-1.7-34.8-1-.4,1.2-1.4,4.3-.3,6.5.5,1.1,1.5,1.8,3,2.2,2.6.7,6.4.8,10,.9,6.3.2,12.2.3,14.5,3.1.4.4.3,1.1-.1,1.4s-1.1.3-1.4-.1c-1.7-2-7.7-2.2-13-2.4-3.7-.1-7.6-.2-10.4-.9-2-.5-3.5-1.6-4.3-3.2-1.8-3.6.3-8.4.4-8.7.1-.3.4-.5.7-.6.9-.2,23.2-5.3,36.6,1,6.4,3,15.9,13.2,8.5,48.2-2.2,10.4-13,16.3-21.6,19.3-.1,0-.2,0-.3,0h0Z"/>
          <path class="st0" d="M264.8,176.9c-.2,0-.4,0-.5-.2-4.6-2.8-3.1-8.6-1.6-11.2.2-.3.5-.5.9-.5l43.4,2.1c.6,0,1,.5.9,1.1s-.5,1-1.1.9l-42.8-2.1c-.7,1.5-2.3,5.8,1.2,8,.5.3.6.9.3,1.4-.2.3-.5.5-.9.5h0Z"/>
          <path class="st0" d="M303.9,193.8c0,0-.1,0-.2,0-1.3-.2-32-5.3-36.8-6.8-5.4-1.8-5.4-10.4-5.4-10.7,0-.3.1-.5.3-.7s.5-.3.8-.2l44.2,4.3c.6,0,.9.5.9,1.1,0,.6-.5.9-1.1.9l-43-4.2c.2,2.1.9,6.7,3.9,7.7,4.6,1.5,36.1,6.7,36.5,6.8.6,0,.9.6.8,1.2,0,.5-.5.8-1,.8h0Z"/>
          <path class="st0" d="M299.7,203.9h-.1c-1.3-.1-32.2-3.5-32.9-17.6,0-.6.4-1,.9-1.1.5,0,1,.4,1.1.9.3,6.3,8.6,10.2,15.6,12.4,7.7,2.4,15.5,3.3,15.6,3.3.6,0,.9.6.9,1.1,0,.5-.5.9-1,.9h0Z"/>
        </g>
        <path class="st0" d="M291.6,227.5c-.6,0-1-.4-1-1v-23.9c0-.6.4-1,1-1s1,.4,1,1v23.9c0,.6-.4,1-1,1Z"/>
        <g>
          <g>
            <g>
              <polyline class="st1" points="155.4 37.9 192.6 0 199.7 7 155.5 52.1"/>
              <polyline class="st1" points="189.4 17.4 152.3 55.3 145.1 48.3 189.3 3.2"/>
            </g>
            <g>
              <polyline class="st1" points="182.6 44.6 144.7 7.5 151.7 .4 196.8 44.6"/>
              <polyline class="st1" points="162.2 10.7 200.1 47.8 193.1 55 148 10.8"/>
            </g>
          </g>
          <g>
            <polyline class="st1" points="155.4 37.9 192.6 0 199.7 7 155.5 52.1"/>
            <polyline class="st1" points="189.4 17.4 152.3 55.3 145.1 48.3 189.3 3.2"/>
          </g>
        </g>
        <g>
          <g>
            <g>
              <polyline class="st1" points="78.6 233.7 115.7 195.8 122.8 202.8 78.6 247.9"/>
              <polyline class="st1" points="112.5 213.3 75.4 251.2 68.2 244.2 112.4 199.1"/>
            </g>
            <g>
              <polyline class="st1" points="105.7 240.5 67.8 203.3 74.8 196.2 119.9 240.4"/>
              <polyline class="st1" points="85.3 206.6 123.2 243.6 116.2 250.8 71.1 206.7"/>
            </g>
          </g>
          <g>
            <polyline class="st1" points="78.6 233.7 115.7 195.8 122.8 202.8 78.6 247.9"/>
            <polyline class="st1" points="112.5 213.3 75.4 251.2 68.2 244.2 112.4 199.1"/>
          </g>
        </g>
      </g>
    </g>
  </g>
</svg>