<?xml version="1.0" encoding="UTF-8"?>
<svg id="Layer_1" xmlns="http://www.w3.org/2000/svg" version="1.1" viewBox="0 0 253.8 233.7">
  <!-- Generator: Adobe Illustrator 29.2.0, SVG Export Plug-In . SVG Version: 2.1.0 Build 108)  -->
  <defs>
    <style>
      .st0 {
        fill: #303030;
      }

      .st1 {
        fill: #26a8df;
      }

      .st2 {
        fill: #fafafa;
      }
    </style>
  </defs>
  <g id="Layer_2">
    <g id="_Layer_">
      <g>
        <g>
          <g>
            <g>
              <polygon class="st2" points="1 150.6 1 1 88.6 1 112.7 25.1 112.7 150.6 1 150.6"/>
              <path class="st0" d="M88.2,2l23.5,23.5v124.1H2V2h86.2ZM89,0H0v151.6h113.7V24.7L89,0h0Z"/>
            </g>
            <polygon class="st1" points="89.1 0 89.1 24.6 113.7 24.6 89.1 0"/>
          </g>
          <rect class="st0" x="11.4" y="32" width="27.5" height="2" transform="translate(-16 27.4) rotate(-45)"/>
          <rect class="st0" x="24.1" y="19.3" width="2" height="27.5" transform="translate(-16 27.4) rotate(-45)"/>
          <path class="st0" d="M76.3,128.3c-6.6,0-12-5.4-12-12s5.4-12,12-12,12,5.4,12,12-5.4,12-12,12ZM76.3,106.2c-5.5,0-10,4.5-10,10s4.5,10,10,10,10-4.5,10-10-4.5-10-10-10Z"/>
          <path class="st0" d="M35.8,133.6h-2v-24.6c0-6.1,2.4-11.8,6.7-16.1l20.5-20.5c3.1-3.1,4.8-7.3,4.8-11.7v-23.7h2v23.7c0,4.9-1.9,9.6-5.4,13.1l-20.5,20.5c-3.9,3.9-6.1,9.1-6.1,14.7,0,0,0,24.6,0,24.6Z"/>
          <polygon class="st0" points="53.5 50.5 52.1 49.1 66.9 34.3 81.7 49.1 80.3 50.5 66.9 37.1 53.5 50.5"/>
        </g>
        <g>
          <path class="st0" d="M110.2,62.6c1.6,4.3-.7,9.2-5,10.7-4.3,1.6-9.2-.7-10.7-5-1.6-4.3.7-9.2,5-10.7,4.3-1.6,9.2.7,10.7,5Z"/>
          <g>
            <path class="st2" d="M151.9,125.7l-33-64.7-.2.5-.4-1.9-26.3-12c-1.4-.6-3,0-3.7,1.3-.6,1.2-.2,2.7.8,3.5l13.9,10.4,1,2.1c2.5,5.1-1.6,10.9-7.2,10.3l-7.7-.9c-1-.1-2,.2-2.7.9-1.6,1.6-1.3,4.2.7,5.4l2.8,1.6c7,3.9,15,5.4,22.8,4.3l9.1,47.8c3.1,16.1,13.2,30,27.7,37.8l37.4,20.1,25.8-42.9-60.8-23.6h0Z"/>
            <path class="st0" d="M186.9,193.2c-.2,0-.3,0-.5-.1l-37.4-20.1c-14.8-7.9-25.1-22-28.2-38.5l-8.9-46.9c-7.8.9-15.7-.7-22.5-4.6l-2.8-1.6c-1.2-.7-2-1.9-2.2-3.2-.2-1.4.3-2.7,1.3-3.7.9-.9,2.2-1.3,3.5-1.2l7.7.9c2.3.2,4.4-.7,5.7-2.6,1.3-1.9,1.5-4.2.5-6.3l-.9-1.8-13.7-10.2c-1.5-1.1-1.9-3.1-1.1-4.7.9-1.9,3.1-2.7,5-1.8l26.3,12c.3.1.5.4.6.7v.7c.3,0,.4.2.5.4l32.8,64.4,60.5,23.4c.3.1.5.3.6.6.1.3,0,.6,0,.8l-25.8,42.9c-.2.3-.5.5-.9.5h0ZM112.8,85.5c.5,0,.9.3,1,.8l9.1,47.8c3,15.9,12.9,29.4,27.2,37.1l36.6,19.7,24.7-41.1-59.7-23.2c-.2,0-.4-.3-.5-.5l-32.5-63.7c-.4,0-.8-.4-.8-.8l-.3-1.3-25.9-11.7c-.9-.4-1.9,0-2.4.8-.4.8-.2,1.7.5,2.2l13.9,10.4c.1,0,.2.2.3.4l1,2.1c1.3,2.7,1.1,5.8-.6,8.3-1.7,2.5-4.6,3.8-7.6,3.4l-7.7-.9c-.7,0-1.4.2-1.9.7-.5.5-.8,1.2-.7,2,0,.8.5,1.4,1.2,1.8l2.8,1.6c6.7,3.8,14.6,5.3,22.2,4.2h.1Z"/>
          </g>
          <path class="st0" d="M63.7,152.1c-2.3-1.1-4.8-1.8-7.3-2.2-1.8-.2-2.7,2.2-1.2,3.2l21.8,15,1.5-8.9-14.7-7.1h0Z"/>
          <path class="st0" d="M75.1,153.7c-2.1-1.5-4.4-2.7-6.8-3.4-1.8-.6-3.1,1.6-1.8,2.9l18.8,18.6,3-8.5-13.2-9.6h0Z"/>
          <g>
            <path class="st2" d="M223.5,164.1h-.3c-3.1-.6-6.3-.3-9.2.9l-54.5,22-64.1-24-18.8-17.9c-.4-.4-.9-.6-1.5-.7-2-.3-3.5,1.7-2.8,3.6l1.9,4.6c.8,1.9-.9,4-2.9,3.6l-19.8-4.1c-2.5-.7-5-1-7.6-.9-1.8,0-2.3,2.6-.7,3.4l23.9,11.2,10.1,3.9,64.1,43.8c15.7,13.1,38.1,14.3,55.2,3.2l33.3-21.8c4.5-2.9,7.3-7.8,7.6-13.2.5-8.6-5.5-16.2-13.9-17.6h0Z"/>
            <path class="st0" d="M171.1,225.2c-10.8,0-21.5-3.7-30.3-11l-63.9-43.7-10-3.8-24-11.3c-1.2-.6-1.8-1.8-1.5-3.1.3-1.3,1.3-2.2,2.6-2.2,2.7-.1,5.3.2,7.9,1l19.7,4.1c.6.1,1.2,0,1.6-.6.4-.5.5-1.1.2-1.7l-1.9-4.6c-.5-1.2-.3-2.6.5-3.6.8-1,2-1.6,3.3-1.4.8,0,1.5.4,2,1l18.6,17.7,63.6,23.8,54.1-21.8c3.1-1.2,6.5-1.6,9.8-1h.3c8.9,1.6,15.3,9.7,14.8,18.7-.3,5.6-3.4,10.8-8.1,13.9l-33.3,21.8c-8,5.2-17,7.8-26,7.8h0ZM45,152.1c-.3,0-.6,0-.9,0-.6,0-.7.5-.7.6,0,.1,0,.6.4.8l23.9,11.2,10,3.8c0,0,.1,0,.2.1l64.1,43.8c15.5,12.9,37.2,14.2,54,3.2l33.3-21.8c4.2-2.7,6.9-7.4,7.2-12.4.5-8.1-5.2-15.2-13.1-16.6h-.3c-2.9-.6-5.9-.3-8.7.9l-54.5,22c-.2,0-.5,0-.7,0l-64.1-24c-.1,0-.2-.1-.3-.2l-18.8-17.9c-.2-.2-.6-.4-.9-.4-.6,0-1.1.2-1.5.6-.4.5-.4,1.1-.2,1.6l1.9,4.6c.5,1.2.3,2.7-.6,3.7-.9,1-2.2,1.5-3.5,1.2l-19.8-4.1c-2.1-.6-4.3-.9-6.4-.9Z"/>
          </g>
          <g>
            <g>
              <path class="st2" d="M228.5,155.7l5.2-56.6-28.6-2.6-4.4,48.3-3.2-.6c-8.5,5.5-13.1,14.2-10.6,22,3.2,9.9,16.6,14.4,30.1,10.1,8.4-2.7,14.9-8.3,17.6-14.5l-6.1-6.1h0Z"/>
              <path class="st0" d="M206.7,178.9c-3.1,0-6.2-.5-9-1.4-6-2-10.2-5.9-11.8-11-2.6-7.9,1.9-17.2,11-23.1.2-.1.5-.2.7-.1l2.1.4,4.3-47.2c0-.6.5-.9,1.1-.9l28.6,2.6c.3,0,.5.2.7.4.2.2.2.5.2.7l-5.1,56.1,5.8,5.8c.3.3.4.7.2,1.1-3,6.7-9.9,12.3-18.2,15.1-3.5,1.1-7.1,1.7-10.5,1.7h0ZM197.7,145.3c-8.1,5.4-12.1,13.7-9.8,20.6,1.4,4.5,5.2,7.9,10.6,9.7,5.5,1.8,11.9,1.7,18.2-.3,7.6-2.4,13.8-7.4,16.8-13.3l-5.6-5.6c-.2-.2-.3-.5-.3-.8l5.1-55.6-26.6-2.4-4.3,47.3c0,.3-.2.5-.4.7-.2.2-.5.2-.8.2l-2.8-.5h0Z"/>
            </g>
            <path class="st0" d="M212.6,65.4l-1.1,4.4c-.6,0-1.3,0-1.9.2-1.4,4.5-2.1,9.3-2.1,14.3,0,15.5,10.6,35.5,23.9,35.9.9,0,11.1-11.5,10.8-22.2v-4.4c-.5-15.9-13.8-28.6-29.6-28.2h0Z"/>
            <path class="st0" d="M221,98.2c-.9-8.2-6.7-15.5-14.5-17.2h0c-4.9-1.1-9.5.2-13,3.1,2.2-.5,8.6-1.4,11,2.2,3,4.4,6.1,13.7,16.5,11.9h0Z"/>
            <path class="st0" d="M180.8,86c.1,6.4,5.4,11.4,11.8,11.3,6.4-.2,11.4-5.4,11.3-11.8-.1-6.4-5.4-11.4-11.8-11.3-6.4.2-11.4,5.4-11.3,11.8Z"/>
            <path class="st0" d="M217.3,68.9c12.6,1.3,22.5,11.5,23.3,24.3-2.8,1.9-6.2,3.1-9.9,3.2-9.6.2-17.6-7-17.8-16.2-.1-4.4,1.6-8.4,4.4-11.4h0Z"/>
            <path class="st0" d="M200.6,77.3c.1,6.4,5.4,11.4,11.8,11.3,6.4-.2,11.4-5.4,11.3-11.8-.1-6.4-5.4-11.4-11.8-11.3-6.4.2-11.4,5.4-11.3,11.8Z"/>
            <path class="st0" d="M187.2,78.2c.1,6.6,5.6,11.8,12.2,11.6,6.6-.2,11.8-5.6,11.6-12.2-.1-6.6-5.6-11.8-12.2-11.6-6.6.2-11.8,5.6-11.6,12.2Z"/>
            <path class="st0" d="M230,78c0,0-.2,0-.2,0-.5-.1-.9-.7-.7-1.2,1.1-4.2,5.7-5.3,5.9-5.3.5-.1,1.1.2,1.2.8s-.2,1.1-.8,1.2c0,0-3.7.9-4.4,3.9-.1.4-.5.8-1,.8h0Z"/>
            <path class="st0" d="M229.6,77.7c-.3,0-.6-.2-.8-.4-.3-.5-.2-1.1.3-1.4,2.6-1.7,2.2-5.4,2.2-5.5,0-.6.3-1.1.9-1.1.6,0,1,.3,1.1.9,0,.2.6,5-3,7.4-.2.1-.4.2-.6.2h0Z"/>
            <g>
              <path class="st2" d="M220,98.5c-.7-8-6.6-14.8-14.9-16.2h0c-9.8-1.7-19.1,4.9-20.8,14.7l-.3,2c-2-.1-3.8,1.3-4.1,3.3h0c-.3,2,.9,3.8,2.8,4.4l-1.2,6.8c-1.7,9.8,4.9,19.1,14.7,20.8,9.8,1.7,19.1-4.9,20.8-14.7l1-5.9,3.6-.8c3.9-.8,6.4-4.7,5.6-8.6h0c-.7-3.4-3.8-5.8-7.2-5.8h0Z"/>
              <path class="st0" d="M199.3,135.4c-1.1,0-2.1,0-3.2-.3-5-.9-9.4-3.6-12.3-7.8s-4.1-9.2-3.2-14.2l1-6c-1.9-.9-3-3-2.7-5.2.4-2.2,2.1-3.8,4.2-4.1l.2-1.2c.9-5,3.6-9.4,7.7-12.3,4.1-2.9,9.2-4.1,14.2-3.2,8.2,1.4,14.6,8,15.6,16.2,3.5.3,6.5,3,7.3,6.5.9,4.4-1.9,8.8-6.4,9.8l-2.9.6-.9,5.2c-1.6,9.2-9.6,15.8-18.7,15.8h0ZM183.8,100c-1.4,0-2.6,1-2.9,2.4-.2,1.4.7,2.9,2.1,3.3.5.1.8.6.7,1.1l-1.2,6.8c-.8,4.5.2,9,2.9,12.7,2.6,3.7,6.5,6.2,11,6.9,9.2,1.6,18-4.6,19.6-13.9l1-5.9c0-.4.4-.7.8-.8l3.6-.8c3.4-.7,5.5-4,4.8-7.4-.6-2.9-3.2-5-6.2-5h0c-.5,0-.9-.4-1-.9-.6-7.7-6.4-14-14.1-15.3-4.5-.8-9,.3-12.7,2.9s-6.2,6.5-6.9,11l-.3,2c0,.5-.5.9-1.1.8h-.2,0Z"/>
            </g>
            <path class="st0" d="M222.4,114.6c-.5,0-.9-.3-1-.8-.1-.5.2-1.1.8-1.2,1.6-.3,3-1.3,3.9-2.7.9-1.4,1.2-3.1.9-4.7-.1-.5.2-1.1.8-1.2.5-.1,1.1.2,1.2.8.4,2.2,0,4.4-1.2,6.2s-3.1,3.1-5.2,3.6c0,0-.1,0-.2,0h0Z"/>
            <path class="st0" d="M219.4,108.9c-.5,0-.9-.4-1-.9-.3-3.7,2.8-5.3,2.9-5.3.5-.2,1.1,0,1.3.4.2.5,0,1.1-.4,1.3-.1,0-2,1.1-1.8,3.4,0,.6-.4,1-.9,1.1h0,0Z"/>
            <path class="st0" d="M188.4,110.6c-.9,0-1.6-.2-2.1-.5-.5-.3-.6-.9-.4-1.4.3-.5.9-.7,1.4-.4.2.1,2.3,1.1,4.2-1.9.3-.5.9-.6,1.4-.3.5.3.6.9.3,1.4-1.5,2.3-3.3,3-4.8,3h0Z"/>
            <path class="st0" d="M188.6,99.3c0,1,.6,1.8,1.5,1.8.8,0,1.5-.8,1.5-1.8s-.6-1.8-1.5-1.8-1.5.8-1.5,1.8Z"/>
            <path class="st0" d="M190.5,93.2c-.3.6.7,1.7,2.3,2.5s3,1,3.3.4-.7-1.7-2.3-2.5c-1.6-.8-3-1-3.3-.4Z"/>
            <path class="st0" d="M210.9,83.5c7.3.2,13.6,6.4,14.8,14.8-1.5,1.4-3.3,2.4-5.4,2.6-5.5.6-10.5-3.7-11.2-9.7-.3-2.8.4-5.6,1.8-7.7h0Z"/>
            <path class="st0" d="M201.4,136c-.5,0-.9-.4-1-.9,0-.6.3-1.1.9-1.1,7.4-.9,13.5-6.6,14.7-14,0-.5.6-.9,1.1-.8.5,0,.9.6.8,1.2-1.4,8.2-8.2,14.7-16.4,15.7h-.1Z"/>
          </g>
          <g>
            <path class="st2" d="M247.6,232.6l3.2-14c5.7-25-1.1-50.6-19.9-68l-.2-2.1v-5.3l-22.9,5.2-7.1.7-.2-4.6-25-9.7-18.2,42.2,11.5,6.2,11.5,39.8-2.5.3c-6.9.9-13.9.4-20.6-1.4-.9-.2-.9-.2.8.3l-3.1,10.4h92.7Z"/>
            <path class="st0" d="M154.9,233.6c0,0-.2,0-.3,0-.5-.2-.8-.7-.7-1.2l2.8-9.4c0,0-.2,0-.3,0,0,0,0,0,0,0h0c-.7-.3-1-.6-.8-1.2.3-1,1.2-.7,1.8-.6,6.7,1.8,13.5,2.3,20.3,1.4l1.3-.2-11.1-38.3-11.1-6c-.5-.2-.6-.8-.4-1.3l18.2-42.2c.2-.5.8-.7,1.3-.5l25,9.7c.4.1.6.5.6.9v3.6c.1,0,6.1-.6,6.1-.6l22.8-5.2c.3,0,.6,0,.9.2s.4.5.4.8v5.2l.2,1.7c18.4,17.2,25.9,42.8,19.9,68.7l-3.2,14c-.1.5-.7.9-1.2.8-.5-.1-.9-.7-.8-1.2l3.2-14c5.8-25.3-1.6-50.3-19.6-67-.2-.2-.3-.4-.3-.6l-.2-2.1h0v-4.2l-21.7,5s0,0-.1,0l-7.1.7c-.3,0-.6,0-.8-.2-.2-.2-.3-.4-.3-.7l-.2-4-23.5-9.1-17.5,40.5,10.7,5.7c.2.1.4.3.5.6l11.5,39.8c0,.3,0,.6-.1.8-.2.2-.4.4-.7.4l-2.5.3c-6.4.8-12.9.5-19.2-1l-2.8,9.5c-.1.4-.5.7-1,.7h0Z"/>
          </g>
          <path class="st0" d="M189.1,174.8c-.1,0-.3,0-.4,0-.5-.2-.7-.8-.5-1.3l11.8-24.6c.1-.3.4-.5.8-.6l6.5-.7c.5,0,1,.3,1.1.9,0,.6-.3,1-.9,1.1l-5.9.7-11.5,24.1c-.2.4-.5.6-.9.6h0Z"/>
          <path class="st0" d="M207.9,158.4c-.2,0-.4,0-.6-.2-.2-.2-.4-.4-.4-.8l-.5-9.2c0-.5.3-.9.8-1l23-5.2c.3,0,.6,0,.8.2.2.2.4.4.4.7l.5,8.6c0,.5-.3.9-.8,1l-23,5.7c0,0-.2,0-.2,0h0ZM208.5,149.1l.4,7.1,21.1-5.2-.4-6.6-21.1,4.7h0Z"/>
          <path class="st0" d="M191.3,151.5c-.4,0-.7-.2-.9-.5-.2-.4-.1-.9.2-1.2l9.6-9c.3-.3.8-.3,1.1-.2.4.2.6.6.6,1l-.6,6.3c0,.4-.3.7-.7.9l-9,2.7c0,0-.2,0-.3,0h0ZM199.7,144.1l-4.6,4.3,4.3-1.3.3-3h0Z"/>
          <path class="st0" d="M175.9,181.2c-.2,0-.4,0-.6-.2-.5-.3-.6-.9-.3-1.4l21.3-31.1c.3-.5.9-.6,1.4-.3.5.3.6.9.3,1.4l-21.3,31.1c-.2.3-.5.4-.8.4h0Z"/>
          <path class="st0" d="M180.7,223.9c-.4,0-.8-.3-1-.7l-11.5-39.7c-.1-.5,0-1,.5-1.2l38.7-18.4c.5-.2,1.1,0,1.3.5.2.5,0,1.1-.5,1.3l-38,18.1,11,37.9,32.4-9.4c.5-.2,1.1.2,1.2.7.1.5-.1,1.1-.7,1.2l-33.4,9.7c0,0-.2,0-.3,0h0Z"/>
        </g>
      </g>
    </g>
  </g>
</svg>