<?xml version="1.0" encoding="UTF-8"?>
<svg id="Layer_1" xmlns="http://www.w3.org/2000/svg" version="1.1" viewBox="0 0 320.2 240.4">
  <!-- Generator: Adobe Illustrator 29.2.0, SVG Export Plug-In . SVG Version: 2.1.0 Build 108)  -->
  <defs>
    <style>
      .st0 {
        fill: #303030;
      }

      .st1 {
        fill: #26a8df;
      }

      .st2 {
        fill: #fafafa;
      }
    </style>
  </defs>
  <g id="Layer_2">
    <g id="_Layer_">
      <g>
        <g>
          <g>
            <path class="st2" d="M132.2,230.4l-7-57.9-58.9,28.9-22,8.7c-25.1,9.9-50.4-14.1-41.6-39.7h0c3-8.8,9.6-16.1,18.1-19.9l100.3-44.9,57.9-14,48,19.8c12.4,5.1,21.6,16,24.6,29.1l12.5,54.8c2.3,10.2.1,20.9-6.1,29.3h0c-10.5,14.2-29.7,18.7-45.4,10.7l-9.7-5h-70.9Z"/>
            <path class="st0" d="M229.2,240.4c-5.7,0-11.5-1.3-16.9-4.1l-9.7-5c-.5-.2-.7-.9-.4-1.3.2-.5.9-.7,1.4-.4l9.7,5c15.3,7.9,33.9,3.5,44.1-10.4,6-8.2,8.2-18.6,5.9-28.5l-12.5-54.8c-2.9-12.8-11.9-23.4-24-28.4l-47.7-19.6-57.5,13.9-100.3,44.8c-8.3,3.7-14.7,10.7-17.6,19.3-3.9,11.5-.9,23.8,7.9,32.1,8.8,8.4,21.2,10.8,32.4,6.3l22-8.7,58.8-28.9c.3-.1.6-.1.9,0,.3.2.5.4.5.8l7,57.9c0,.6-.3,1.1-.9,1.1-.5,0-1.1-.3-1.1-.9l-6.8-56.5-57.6,28.3-22.1,8.7c-12,4.7-25.2,2.2-34.6-6.7s-12.5-22-8.4-34.2c3.1-9.1,9.9-16.5,18.7-20.5l100.3-44.9c0,0,.1,0,.2,0l57.9-14c.2,0,.4,0,.6,0l48,19.8c12.7,5.2,22.1,16.4,25.2,29.8l12.5,54.8c2.4,10.5.1,21.5-6.3,30.2-7.2,9.8-18.3,15.1-29.7,15.1h0Z"/>
          </g>
          <g>
            <path class="st2" d="M154.1,112.7h0c9.2,6.2,21.1,7.1,31.1,2.3l4.8-2.3v-49.9h-35.9v49.9h0Z"/>
            <path class="st0" d="M171.7,119c-6.4,0-12.7-1.8-18.1-5.4-.3-.2-.5-.5-.5-.9v-49.9c0-.6.4-1,1-1h35.9c.6,0,1,.4,1,1v49.9c0,.4-.2.7-.6.9l-4.8,2.3c-4.4,2.1-9.2,3.1-14,3.1h0ZM155.1,112.2c8.9,5.7,20.2,6.4,29.7,1.9l4.2-2v-48.2h-33.9v48.3Z"/>
          </g>
          <path class="st0" d="M239.9,186.6c-.2,0-.3,0-.5-.1l-41.7-23.3c-.5-.3-.6-.9-.4-1.4.3-.5.9-.7,1.4-.4l41.7,23.3c.5.3.6.9.4,1.4-.2.3-.5.5-.9.5h0Z"/>
          <path class="st0" d="M203,231.4c-.2,0-.5,0-.7-.2l-44-39.1c-.4-.4-.4-1,0-1.4.4-.4,1-.4,1.4,0l44,39.1c.4.4.4,1,0,1.4-.2.2-.5.3-.8.3h0Z"/>
          <g>
            <path class="st0" d="M210.5,62.4l-7.6,23.8c-.7,2.1-2.7,3.4-4.9,3.2h0s-2.4-12.2-3.1-11.9c-5.7,2.8,15.6-15,15.6-15h0Z"/>
            <g>
              <path class="st2" d="M148.7,22.8l38.7-8.7,18.8,38.7c.1,0,.2,0,.4.1,6.4,2.2,9.7,9.2,7.5,15.5s-9.2,9.7-15.5,7.5c-.4-.1-.7-.3-1.1-.5l-2.9,5.6c-5,9.6-15.1,15.5-25.9,15.2l-15.4-.4c-9.7-.3-17.4-8.2-17.4-17.9v-39.2c0-7.7,5.3-14.4,12.8-16.1h0Z"/>
              <path class="st0" d="M169.5,97.4c-.3,0-.5,0-.8,0l-15.4-.4c-10.3-.3-18.4-8.6-18.4-18.9v-39.2c0-8.2,5.6-15.2,13.6-17l38.7-8.7c.4,0,.9.1,1.1.5l18.6,38.3c3.3,1.2,6,3.5,7.5,6.7,1.5,3.2,1.8,6.8.6,10.1-2.4,6.9-9.9,10.5-16.8,8.1-.1,0-.2,0-.3-.1l-2.5,4.8c-5,9.6-15.2,15.7-26,15.7ZM149,23.8c-7.1,1.6-12.1,7.8-12.1,15.1v39.2c0,9.2,7.2,16.6,16.4,16.9l15.4.4c10.4.3,20.1-5.5,24.9-14.7l2.9-5.6c.2-.5.8-.7,1.3-.4h.2c.3.2.5.3.8.4,5.8,2,12.2-1.1,14.2-6.9,1-2.8.8-5.9-.5-8.6-1.3-2.7-3.6-4.7-6.4-5.7h-.3c-.3-.2-.5-.4-.6-.6l-18.5-38-37.9,8.5h0ZM148.7,22.8h0Z"/>
            </g>
            <ellipse class="st0" cx="144.3" cy="23.2" rx="18.9" ry="15.9" transform="translate(23.6 105.6) rotate(-43.4)"/>
            <path class="st0" d="M164.5,11.8c6.4-1.6,12.1-3.8,16.8-6.5.5,1,.9,2,1.2,3.1,2.1,8.6-4.4,17.5-14.6,20-10.1,2.5-20-2.5-22.1-11-.3-1.2-.4-2.4-.4-3.6,5.7.3,12.2-.2,19.1-1.9h0Z"/>
            <path class="st0" d="M173,57.8c0,2.2-1.1,4-2.8,4.1s-3-1.7-3.1-3.8,1.1-4,2.8-4.1,3,1.7,3.1,3.8Z"/>
            <path class="st0" d="M174.6,43c-.3,0-.6-.1-.8-.3-2.8-3.2-7.7-2.6-7.7-2.6-.6,0-1.1-.3-1.1-.8,0-.6.3-1.1.9-1.1.2,0,6-.8,9.5,3.3.4.4.3,1.1-.1,1.4-.2.2-.4.2-.6.2h0Z"/>
            <path class="st0" d="M144.8,55.7c0,2.2-1.1,4-2.8,4.1s-3-1.7-3.1-3.8,1.1-4,2.8-4.1,3,1.7,3.1,3.8Z"/>
            <path class="st0" d="M140.6,41.9c-.2,0-.4,0-.6-.2-.4-.3-.6-.9-.2-1.4.9-1.2,3.6-2.9,7.5-.3.5.3.6.9.3,1.4s-.9.6-1.4.3c-3.3-2.1-4.7-.2-4.8-.2-.2.3-.5.4-.8.4h0Z"/>
            <path class="st0" d="M150,72.5c-.2,0-.5,0-.7-.3l-1.1-1c-3-2.8-3.3-7.4-.7-10.6l4.5-5.4c.4-.4,1-.5,1.4-.1.4.3.5,1,.1,1.4l-4.5,5.4c-1.9,2.3-1.7,5.7.5,7.8l1.1,1c.4.4.4,1,0,1.4-.2.2-.5.3-.7.3h0Z"/>
            <path class="st0" d="M159.5,81.9c-1.4,0-2.8-.3-4.2-1.1-.5-.3-.6-.9-.3-1.4.3-.5.9-.6,1.4-.3,3.3,2,7.5-.2,7.6-.3.5-.3,1.1,0,1.4.4.3.5,0,1.1-.4,1.4-.1,0-2.5,1.3-5.4,1.3h0Z"/>
            <path class="st0" d="M174.2,71.3c-1.4,0-2.9,0-4.4-.2-6.3-.6-11.4-5.6-12.2-11.8l-1.2-10.6-26.2-.7c-1,0-2,.3-2.7,1.1-.7.7-1.1,1.7-1.1,2.7v4.9c0,5,3.8,11.3,8.3,11.6l6.5.2c1.9,0,3.8-.7,5.1-2,.4-.4,1-.4,1.4,0s.4,1,0,1.4c-1.7,1.7-4.1,2.6-6.5,2.5l-6.5-.2c-4.7-.3-10.2-6.3-10.2-13.6v-4.9c0-1.6.6-3,1.8-4.1,1.1-1.1,2.6-1.6,4.1-1.6l53.6,1.5c2.2,0,4.3,1.2,5.6,3,1.3,1.8,1.6,4.1.9,6.2-2,6.1-5.6,13.6-11.4,14.4-1.5.2-3.1.3-4.8.3h0ZM158.3,48.8l1.2,10.3c.6,5.3,5,9.6,10.4,10.1,3.2.3,6.2.3,8.8,0,3.7-.5,7.2-5.1,9.8-13,.5-1.5.2-3.1-.7-4.4-.9-1.3-2.4-2.1-4-2.2l-25.4-.7h0Z"/>
            <path class="st0" d="M149.3,60.7h0c-.6,0-1-.5-.9-1.1l1.1-12.2c0-.6.5-1,1.1-.9.6,0,1,.5.9,1.1l-1.1,12.2c0,.5-.5.9-1,.9h0Z"/>
            <ellipse class="st0" cx="205.9" cy="38.7" rx="19.8" ry="12.7" transform="translate(161.6 243.5) rotate(-88.4)"/>
            <ellipse class="st0" cx="192.2" cy="22.8" rx="12.7" ry="15.9" transform="translate(36.9 138.4) rotate(-43.4)"/>
            <path class="st0" d="M206.6,25.4s2.3-21.7-16.2-23.6S146.1,4.2,142.2,0c-.5-.5,2.6,20.3,12.8,21.1s41.4-5.2,51.6,4.3h0Z"/>
            <path class="st0" d="M198.2,49.6l-4.2,15.9c-.3,1.1.2,2.2,1.2,2.7h0c1.3.6,2.8,0,3.2-1.4l5.8-18-6.1.8h0Z"/>
            <path class="st0" d="M201.7,68.1c0,0-.2,0-.2,0-.5-.1-.9-.7-.7-1.2,0-.2,1.5-5.9,6.6-7.6.5-.2,1.1.1,1.3.6s-.1,1.1-.6,1.3c-4.1,1.4-5.3,6.2-5.3,6.2-.1.5-.5.8-1,.8h0Z"/>
          </g>
          <g>
            <path class="st1" d="M233.9,95.4l-7.3-9.9c-4-5.5-11.7-6.7-17.2-2.7L51,199l21.8,29.8,158.4-116.1c5.5-4,6.7-11.7,2.6-17.2Z"/>
            <rect class="st0" x="207.5" y="87.9" width="2" height="36.6" transform="translate(-22.5 143.8) rotate(-36.2)"/>
            <path class="st0" d="M200.9,89.1l21.8,29.8,8.6-6.3c5.5-4,6.7-11.7,2.6-17.2l-7.3-9.9c-4-5.5-11.7-6.7-17.2-2.7l-8.6,6.3Z"/>
            <g>
              <polygon class="st2" points="51.2 200.8 71.3 228.2 29.3 237.9 51.2 200.8"/>
              <path class="st0" d="M51.3,202.6l18.3,24.9-38.2,8.8,19.9-33.8h0ZM51.1,199l-23.9,40.4,45.7-10.6-21.9-29.8h0Z"/>
            </g>
            <polygon class="st0" points="49.6 234.2 38.9 219.6 27.2 239.4 49.6 234.2"/>
          </g>
          <g>
            <path class="st2" d="M168.5,177.3l-9.2,13.2s16.1,5.3,26.5-7.7c10.4-13,22.3-35.9,12.4-46.1-9.9-10.2-21.6-30.7-25.4-21-2.8,7.3,12.3,29.1,12.3,29.1l-30.4-14.4s-4.1,4.7-4.8,10c-.3,2.2-.6,6.2-.5,10.8.1,6.3,4.7,16.3,19.1,26.2h0Z"/>
            <path class="st0" d="M164.3,192.2c-1.9,0-3.7,0-5.4-.2-.6,0-1-.5-.9-1.1,0-.6.5-.9,1.1-.9,8.6.8,20.1,0,25.9-7.8,7.1-9.5,22.5-32.9,12.4-44.8l-19.9-22.8c-.4-.4-.9-.7-1.4-.7-.6,0-1.1.2-1.4.7-2.2,2.7-2.6,6.4-.8,9.4l12.6,21.4c.3.5.1,1.1-.4,1.4-.5.3-1.1.1-1.4-.4l-12.6-21.4c-2.2-3.7-1.8-8.4,1-11.7.7-.9,1.8-1.4,2.9-1.4h0c1.1,0,2.2.5,2.9,1.3l19.9,22.8c4.5,5.4,9,18.7-12.4,47.3-5.2,7-14.2,8.8-22.4,8.8h0Z"/>
            <path class="st0" d="M193.2,151c-.1,0-.3,0-.5-.1l-38-19.7c-1.3,1.1-4.5,4.3-2.2,7.7.3.5.2,1.1-.3,1.4s-1.1.2-1.4-.3c-3-4.5.8-9.1,3.2-10.8.3-.2.7-.2,1.1,0l38.6,20c.5.2.7.9.4,1.3-.2.3-.5.5-.9.5h0Z"/>
            <path class="st0" d="M180.1,172.2c-.2,0-.4,0-.6-.2-1.1-.7-26.9-18.1-30.6-21.5-4.2-3.9-.5-11.7-.4-12,.1-.2.3-.4.6-.5.3,0,.6,0,.8,0l38.4,22.3c.5.3.6.9.4,1.4-.3.5-.9.6-1.4.4l-37.4-21.7c-.8,2-2,6.5.4,8.7,3.6,3.3,30.1,21.2,30.3,21.3.5.3.6.9.3,1.4-.2.3-.5.4-.8.4h0Z"/>
            <path class="st0" d="M172.1,179.7c-.2,0-.4,0-.5-.1-1.1-.7-27.8-16.6-22.6-29.7.2-.5.8-.8,1.3-.6.5.2.8.8.6,1.3-2.3,5.9,3.6,12.9,9,17.8,6,5.4,12.7,9.4,12.8,9.5.5.3.6.9.4,1.4-.2.3-.5.5-.9.5Z"/>
          </g>
          <g>
            <path class="st2" d="M61.6,190l-12.9,9.3s-5.6-13.3,6.7-24.5c12.3-11.2,34.4-24.5,45.2-15.3s17.9,31.2,17.9,31.2c0,0-6.5,8.2-10.8,1.7-24.4-36.5-7.9-5.9-7.9-5.9l10.3,16s-4.7,4.5-10,5.5-20,8-38.5-18h0Z"/>
            <path class="st0" d="M49,203.1c-.5,0-.9-.3-1-.8-1.4-9.1-1.4-21.3,6.8-28.2,27.2-23.1,40.8-19.5,46.4-15.3,12,8.8,18,30.8,18.2,31.8,0,.3,0,.6-.2.9-.1.2-3.4,4.3-7.4,4.5-1.8,0-3.4-.7-4.9-2.2-2-2.2-3.9-5.5-5.8-8.8-2.6-4.6-5.7-9.8-8.2-10.3-.5-.1-.9-.6-.8-1.2.1-.5.6-.9,1.2-.8,3.5.7,6.5,5.8,9.6,11.3,1.8,3.2,3.7,6.4,5.5,8.4,1,1.1,2.1,1.6,3.3,1.6,2.4,0,4.8-2.4,5.6-3.3-1-3.3-6.9-22.5-17.4-30.2-12.5-9.2-34.9,7.6-43.9,15.3-7.4,6.3-7.4,17.8-6.1,26.4,0,.6-.3,1.1-.8,1.1,0,0-.1,0-.1,0h0Z"/>
            <path class="st0" d="M103.6,207.9c-1,0-2.1-.3-3.2-.9-.5-.3-.6-.9-.4-1.4.3-.5.9-.6,1.4-.4,3.5,2.1,6.6-1.4,7.6-2.7l-22.1-36.7c-.3-.5-.1-1.1.3-1.4.5-.3,1.1-.1,1.4.3l22.4,37.3c.2.3.2.7,0,1.1-1.2,1.9-4,4.8-7.4,4.8h0Z"/>
            <path class="st0" d="M94.7,211.2c-1.7,0-3.4-.4-4.7-1.7-3.7-3.5-22.6-28.1-23.4-29.1-.3-.4-.3-1.1.2-1.4.4-.3,1.1-.3,1.4.2.2.2,19.7,25.5,23.2,28.9,2.4,2.2,6.7.7,8.7-.2l-24.1-35.9c-.3-.5-.2-1.1.3-1.4.5-.3,1.1-.2,1.4.3l24.7,36.9c.2.2.2.5.1.8s-.2.5-.5.6c-.2.1-3.8,2.1-7.3,2.1h0Z"/>
            <path class="st0" d="M86.6,210.4c-12.1,0-26.3-20.6-26.9-21.6-.3-.5-.2-1.1.3-1.4.5-.3,1.1-.2,1.4.3,0,0,4.5,6.5,10.3,12.2,5.2,5.1,12.6,10.5,18.3,7.8.5-.2,1.1,0,1.3.5.2.5,0,1.1-.5,1.3-1.3.6-2.7.9-4.1.9h0Z"/>
          </g>
          <path class="st0" d="M159.1,192.5c-.2,0-.4,0-.6-.2-.5-.3-11.8-8.5-9.7-20.9,0-.5.6-.9,1.1-.8.5,0,.9.6.8,1.2-1.9,11.2,8.8,18.9,8.9,19,.4.3.6.9.2,1.4-.2.3-.5.4-.8.4h0Z"/>
        </g>
        <polygon class="st1" points="276 81.6 252.3 57.9 259.4 50.9 275.9 67.3 313 29.5 320.2 36.5 276 81.6"/>
        <g>
          <g>
            <g>
              <polyline class="st1" points="30.2 65.7 67.3 27.8 74.5 34.8 30.3 79.9"/>
              <polyline class="st1" points="64.1 45.3 27 83.2 19.9 76.2 64 31.1"/>
            </g>
            <g>
              <polyline class="st1" points="57.4 72.5 19.5 35.4 26.5 28.2 71.6 72.4"/>
              <polyline class="st1" points="36.9 38.6 74.9 75.7 67.9 82.8 22.7 38.7"/>
            </g>
          </g>
          <g>
            <polyline class="st1" points="30.2 65.7 67.3 27.8 74.5 34.8 30.3 79.9"/>
            <polyline class="st1" points="64.1 45.3 27 83.2 19.9 76.2 64 31.1"/>
          </g>
        </g>
      </g>
    </g>
  </g>
</svg>