<?xml version="1.0" encoding="UTF-8"?>
<svg id="Layer_1" xmlns="http://www.w3.org/2000/svg" version="1.1" viewBox="0 0 246.3 248.5">
  <!-- Generator: Adobe Illustrator 29.2.0, SVG Export Plug-In . SVG Version: 2.1.0 Build 108)  -->
  <defs>
    <style>
      .st0 {
        fill: #303030;
      }

      .st1 {
        fill: #26a8df;
      }

      .st2 {
        fill: #fafafa;
      }
    </style>
  </defs>
  <g id="Layer_2">
    <g id="_Layer_">
      <g>
        <path class="st0" d="M61.8,150.6l-1.3-50.1,64.5-15.9c11.3-2.8,23.2-1.3,33.4,4.2l63.9,34.2c3.7,3.5,6,8.2,6.4,13.2h0c1.2,13.9-11.3,25-24.9,22.1l-37.2-7.8H61.8Z"/>
        <g>
          <g>
            <rect class="st2" x="1" y="150.2" width="244.3" height="97.4"/>
            <path class="st0" d="M245.3,248.5H1c-.5,0-1-.4-1-1v-97.4c0-.6.5-1,1-1h244.3c.6,0,1,.4,1,1v97.4c0,.6-.4,1-1,1ZM2,246.5h242.3v-95.4H2v95.4h0Z"/>
          </g>
          <g>
            <path class="st1" d="M54,232.6c-.5,0-1-.4-1-1v-28h-6.4v28c0,.6-.5,1-1,1s-1-.4-1-1v-29c0-.6.5-1,1-1h8.4c.5,0,1,.4,1,1v29c0,.6-.5,1-1,1Z"/>
            <path class="st1" d="M75.9,232.6c-.5,0-1-.4-1-1v-49.6h-6.4v49.6c0,.6-.5,1-1,1s-1-.4-1-1v-50.6c0-.6.5-1,1-1h8.4c.5,0,1,.4,1,1v50.6c0,.6-.5,1-1,1Z"/>
            <path class="st1" d="M97.8,232.6c-.5,0-1-.4-1-1v-13h-6.4v13c0,.6-.5,1-1,1s-1-.4-1-1v-14c0-.6.5-1,1-1h8.4c.5,0,1,.4,1,1v14c0,.6-.5,1-1,1Z"/>
            <path class="st1" d="M119.7,232.6c-.5,0-1-.4-1-1v-32.7h-6.4v32.7c0,.6-.5,1-1,1s-1-.4-1-1v-33.7c0-.6.5-1,1-1h8.4c.5,0,1,.4,1,1v33.7c0,.6-.5,1-1,1Z"/>
            <path class="st1" d="M141.6,232.6c-.5,0-1-.4-1-1v-44.4h-6.4v44.4c0,.6-.5,1-1,1s-1-.4-1-1v-45.4c0-.6.5-1,1-1h8.4c.5,0,1,.4,1,1v45.4c0,.6-.5,1-1,1Z"/>
            <path class="st1" d="M163.5,232.6c-.5,0-1-.4-1-1v-5.1h-6.4v5.1c0,.6-.5,1-1,1s-1-.4-1-1v-6.1c0-.6.5-1,1-1h8.4c.5,0,1,.4,1,1v6.1c0,.6-.5,1-1,1Z"/>
            <path class="st1" d="M185.3,232.6c-.5,0-1-.4-1-1v-39.7h-6.4v39.7c0,.6-.5,1-1,1s-1-.4-1-1v-40.7c0-.6.5-1,1-1h8.4c.5,0,1,.4,1,1v40.7c0,.6-.5,1-1,1Z"/>
            <path class="st1" d="M207.2,232.6c-.5,0-1-.4-1-1v-23.8h-6.4v23.8c0,.6-.5,1-1,1s-1-.4-1-1v-24.8c0-.6.5-1,1-1h8.4c.5,0,1,.4,1,1v24.8c0,.6-.5,1-1,1Z"/>
            <path class="st1" d="M229.1,232.6c-.6,0-1-.4-1-1v-13h-6.4v13c0,.6-.5,1-1,1s-1-.4-1-1v-14c0-.6.5-1,1-1h8.4c.6,0,1,.4,1,1v14c0,.6-.4,1-1,1Z"/>
          </g>
          <g>
            <path class="st0" d="M234.7,166.9c-.3,0-.5,0-.7-.3l-6.8-6.8c-.4-.4-.4-1,0-1.4s1-.4,1.4,0l6.8,6.8c.4.4.4,1,0,1.4s-.4.3-.7.3h0Z"/>
            <path class="st0" d="M227.9,166.9c-.3,0-.5,0-.7-.3-.4-.4-.4-1,0-1.4l6.8-6.8c.4-.4,1-.4,1.4,0s.4,1,0,1.4l-6.8,6.8c-.2.2-.4.3-.7.3h0Z"/>
          </g>
          <path class="st0" d="M18.8,169.4h-6.9c-.5,0-1-.4-1-1v-6.9c0-.6.5-1,1-1h6.9c.5,0,1,.4,1,1v6.9c0,.6-.5,1-1,1ZM12.9,167.4h4.9v-4.9h-4.9v4.9Z"/>
          <path class="st0" d="M38.9,166h-15c-.5,0-1-.4-1-1s.5-1,1-1h15c.5,0,1,.4,1,1s-.5,1-1,1Z"/>
          <path class="st0" d="M18.8,181.6h-6.9c-.5,0-1-.4-1-1v-6.9c0-.6.5-1,1-1h6.9c.5,0,1,.4,1,1v6.9c0,.6-.5,1-1,1ZM12.9,179.6h4.9v-4.9h-4.9v4.9Z"/>
          <path class="st0" d="M38.9,178.2h-15c-.5,0-1-.4-1-1s.5-1,1-1h15c.5,0,1,.4,1,1s-.5,1-1,1Z"/>
        </g>
        <g>
          <g>
            <path class="st2" d="M79,71l2.5,14-4.3,6,14.1,9.8c8.9,6.2,20.8-1.2,19.3-11.9l-1.4-10.3-30.2-7.6h0Z"/>
            <path class="st0" d="M98.4,104.1c-2.7,0-5.3-.8-7.6-2.4l-14.1-9.8c-.2-.2-.4-.4-.4-.7s0-.5.2-.8l4-5.7-2.5-13.6c0-.3,0-.7.3-.9s.6-.3.9-.2l30.2,7.6c.4,0,.7.4.8.8l1.4,10.3c.8,5.3-1.6,10.4-6.2,13.2-2.2,1.3-4.6,2-7,2h0ZM78.7,90.8l13.2,9.2c3.8,2.6,8.5,2.8,12.5.3,3.9-2.4,5.9-6.7,5.3-11.3l-1.3-9.6-28-7.1,2.3,12.5c0,.3,0,.5-.2.8l-3.7,5.2h0Z"/>
          </g>
          <path class="st0" d="M110.7,89c0,.7.1,1.3.1,2-2.8-.4-5.6-1.5-8.2-3.3l-22.2-15.4.5-.7,28.4,7.1,1.4,10.3h0Z"/>
          <path class="st0" d="M61,23.8c6.7-8.9,19.5-12.4,23.1-9.9.9-2.5,2.6-4.9,5.1-6.7,5.8-4.2,13.5-3.6,17.2,1.3,3.2,4.3,2.3,10.4-1.7,14.7,3,2.5,5.8,5.5,8.3,8.9,10.1,13.6-11.3,30.8-15.5,33.9-11.3,8.2-27.8,4.9-37-7.3-9.1-12.3-7.6-24.1.5-34.9h0Z"/>
          <path class="st0" d="M62.9,27.6c3.8-1,7.4-.9,10.3.6,8.1,4.3,11.3,22.3-.8,31.7-.8.6-1.8.8-2.4,1.5-8.2-11.1-10.6-24-7.2-33.8Z"/>
          <path class="st0" d="M105.1,22.9c-3.8,5.1-9.9,10-17.6,13.5-12.9,5.8-26,5.8-32.3.5.3-8.3,3.5-15.6,9.8-20.1,10.7-7.6,27-4.7,40.2,6.1h0Z"/>
          <g>
            <path class="st2" d="M69.9,57.1c2-.9,4.1-1.1,6.1-.8,4.1-5.2,5.1-11.7,4.1-17.3,2.4-.7,4.9-1.6,7.4-2.7,7.5-3.4,13.6-8.2,17.4-13.2,2.9,2.5,5.7,5.5,8.2,8.8,12.2,16.5,13,36.5,2,44.7-8.3,6.1-20.9,3.8-31.8-4.7-1,1.8-2.6,3.2-4.7,4.1-5.2,2.4-11.4,0-13.8-5.2s0-11.4,5.2-13.8h0Z"/>
            <path class="st0" d="M103.9,81.1c-6.5,0-13.7-2.6-20.5-7.7-1.2,1.6-2.7,2.8-4.5,3.6-5.8,2.6-12.5,0-15.1-5.7-2.6-5.8,0-12.5,5.7-15.1h0c1.9-.9,4-1.2,6.1-.9,3.3-4.4,4.6-10.2,3.5-16,0-.5.2-1,.7-1.2,2.4-.7,4.9-1.6,7.2-2.7,7.1-3.2,13.1-7.8,17-12.9.2-.2.4-.4.7-.4s.5,0,.8.2c3,2.6,5.8,5.7,8.3,9,6,8.2,9.5,17.4,9.9,26,.4,8.8-2.5,15.9-8.1,20-3.3,2.4-7.3,3.6-11.7,3.6h0ZM83.1,71c.2,0,.4,0,.6.2,10.9,8.5,23,10.3,30.6,4.7,5.1-3.7,7.7-10.2,7.3-18.3-.4-8.2-3.8-17.1-9.5-24.9-2.2-2.9-4.6-5.6-7.2-8-4.1,5-10.1,9.5-17.1,12.7-2.2,1-4.4,1.8-6.7,2.5.9,6.2-.7,12.4-4.4,17.2-.2.3-.6.4-1,.4-1.9-.3-3.8,0-5.5.7h0c-4.7,2.1-6.9,7.7-4.7,12.5,2.1,4.7,7.7,6.9,12.5,4.7,1.8-.8,3.2-2.1,4.2-3.8.2-.2.4-.4.7-.5,0,0,.1,0,.2,0h0Z"/>
          </g>
          <path class="st0" d="M83.8,14.6h0c-.5,0-1-.5-1-1,.2-5,2.9-8.9,7.8-11.4C94.2.4,97.7,0,97.8,0c.5,0,1,.3,1.1.9s-.3,1-.9,1.1c0,0-3.3.4-6.6,2-4.2,2.2-6.5,5.4-6.6,9.6,0,.5-.5,1-1,1h0Z"/>
          <path class="st0" d="M115.6,39.8c.4,1.6,0,3-1,3.3-1,.3-2.1-.8-2.5-2.3-.4-1.6,0-3,1-3.3,1-.3,2.1.8,2.5,2.3Z"/>
          <path class="st0" d="M109.1,36.1c-.3,0-.6-.2-.8-.4-.3-.5-.2-1.1.3-1.4.1,0,3.2-2.1,6.9-2.1h0c.5,0,1,.4,1,1,0,.6-.4,1-1,1-3.1,0-5.7,1.8-5.8,1.8-.2.1-.4.2-.6.2h0Z"/>
          <path class="st0" d="M101.7,46.6c.4,1.6,0,3-1,3.3-1,.3-2.1-.8-2.5-2.3-.4-1.6,0-3,1-3.3,1-.3,2.1.8,2.5,2.3Z"/>
          <path class="st0" d="M92.4,46.9c-.1,0-.3,0-.4,0-.5-.2-.8-.8-.5-1.3.1-.2,2.6-6.2,8.3-7.1.5,0,1.1.3,1.1.8,0,.6-.3,1.1-.8,1.1-4.6.7-6.7,5.8-6.8,5.9-.2.4-.5.6-.9.6h0Z"/>
          <path class="st0" d="M111.1,52.8c-.4,0-.7-.2-.9-.6-.2-.5,0-1.1.5-1.3.9-.4,2.3-1.3,2.4-2.1,0,0,0-.3-.3-.6-1.8-1.8-6.1-7.8-6.3-8.1-.3-.4-.2-1.1.2-1.4.5-.3,1.1-.2,1.4.2,0,0,4.5,6.1,6.1,7.8.9.9.9,1.8.8,2.4-.4,2-3,3.3-3.5,3.5-.1,0-.3,0-.4,0h0Z"/>
          <path class="st0" d="M110,61.4c-2.5,0-5.6-1-8.8-4.5-.4-.4-.4-1,0-1.4.4-.4,1-.4,1.4,0,6.4,6.8,11.5,2.6,11.8,2.4.4-.3,1-.3,1.4.1s.3,1.1-.1,1.4c0,0-2.3,1.9-5.7,1.9h0Z"/>
          <path class="st0" d="M69.7,63.7c-.3,0-.7-.2-.8-.4-.3-.5-.2-1.1.3-1.4,4-2.7,8.5-.2,8.7,0,.5.3.6.9.4,1.4-.3.5-.9.6-1.4.4-.2,0-3.6-2-6.6,0-.2.1-.4.2-.5.2h0Z"/>
        </g>
        <path class="st2" d="M164.5,129.2c-.5,0-1-.4-1-1,0-.6.4-1,1-1l28.1-.5c.5,0,1,.4,1,1,0,.6-.4,1-1,1l-28.1.5h0Z"/>
        <g>
          <path class="st2" d="M128.7,136.2l-16.7,9.8c-.9.7-.6,2.1.5,2.3,1,.2,2.8.7,4.8-.8,1.2-.9,5.3-4.3,5.3-4.3l6.1-7h0Z"/>
          <path class="st2" d="M163.6,130.4l-4.5-.4-24.8,6.2,8.1,11.3c.8,1.2,2,2.2,3.3,2.8l2.2,1.2h12.2c3.6-3,5.3-7.7,4.7-12.3l-1.2-8.8h0Z"/>
          <g>
            <path class="st2" d="M163.6,129.8l-12.9.5-19.2,5.6c-1.8.5-3.4,1.5-4.7,2.8l-10.2,10.1c-1,1-.3,2.8,1.1,2.8h0c1.5,0,3-.4,4.1-1.4l11.8-9.8,30.2-10.5h0Z"/>
            <path class="st0" d="M117.7,152.6h-.2c-1.1,0-2-.7-2.4-1.7s-.2-2.1.6-2.8l10.2-10.1c1.4-1.4,3.2-2.5,5.2-3l19.2-5.6c0,0,.2,0,.2,0l12.9-.5c.5,0,1,.4,1,1,0,.6-.4,1-1,1l-12.8.5-19.1,5.5c-1.6.5-3.1,1.3-4.3,2.5l-10.2,10.1c-.3.3-.2.6-.2.7s.2.4.6.4c1.3,0,2.5-.4,3.4-1.2l11.8-9.8c.4-.3,1-.3,1.4.1s.3,1.1-.1,1.4l-11.8,9.8c-1.3,1.1-2.9,1.6-4.5,1.6h0Z"/>
          </g>
          <g>
            <path class="st2" d="M136.1,137.9l-12.2,12.1c-1,1-.3,2.8,1.1,2.8h0c1.5,0,3-.4,4.1-1.4l11.8-9.8-4.7-3.7h0Z"/>
            <path class="st0" d="M125.1,153.8h-.2c-1.1,0-2-.7-2.4-1.7s-.2-2.1.6-2.8l12.2-12.1c.4-.4,1-.4,1.4,0,.4.4.4,1,0,1.4l-12.2,12.1c-.3.3-.2.6-.2.7s.2.4.6.4c1.2,0,2.5-.4,3.4-1.2l11.8-9.8c.4-.3,1-.3,1.4.1s.3,1.1-.1,1.4l-11.8,9.8c-1.3,1.1-2.9,1.6-4.5,1.6h0Z"/>
          </g>
          <path class="st2" d="M142.2,140.1l-9.8,9.8c-1,1-.3,2.8,1.1,2.8h0c1.5,0,3-.4,4.1-1.4l11.8-9.8-7.2-1.4h0Z"/>
          <path class="st0" d="M133.7,153.8h-.2c-1.1,0-2-.7-2.4-1.7s-.2-2.1.6-2.8l9.8-9.8c.4-.4,1-.4,1.4,0,.4.4.4,1,0,1.4l-9.8,9.8c-.3.3-.2.6-.2.7,0,.1.2.4.6.4,1.2,0,2.5-.4,3.4-1.2l7.5-6.1c.4-.3,1.1-.3,1.4.1s.3,1.1-.1,1.4l-7.5,6.1c-1.3,1.1-2.9,1.6-4.5,1.6h0Z"/>
          <path class="st2" d="M152.3,129.8h-15.5c-1.1,0-1.7,1.4-1,2.2.5.5,1.2,1.4,2.3,1.8.5.2,8.8-2.7,8.8-2.7l5.3-1.4h0Z"/>
          <path class="st0" d="M157,152.2h-7.7c-3.1,0-6-1.6-7.7-4.1-.3-.5-.2-1.1.3-1.4s1.1-.2,1.4.3c1.4,2,3.6,3.2,6.1,3.2h7.7c3,0,5.1-.9,6.4-2.8,3.3-4.7.6-14-.2-16.6l-12.4.5-19.1,5.5c-1.6.5-3.1,1.3-4.3,2.5-.4.4-1,.4-1.4,0-.4-.4-.4-1,0-1.4,1.4-1.4,3.2-2.5,5.2-3l19.2-5.6c0,0,.2,0,.2,0l13.2-.5c.4,0,.8.2,1,.7.2.5,4.7,12.8.2,19.2-1.7,2.4-4.4,3.7-8.1,3.7h0Z"/>
        </g>
        <g>
          <path class="st2" d="M95.7,69.2s-12.5-5.5-13.5-13.5l-.2-.8c-.6-2.6-3.2-4.1-5.8-3.5-1,.2-1.8.8-2.5,1.5-1.1-.6-2.5-.7-3.7-.3-2.5.9-3.8,3.6-3,6.1l.3.8c1.5,4.4,4.6,8.1,8.7,10.4,1.9,1.1,3.4,2.8,4.2,4.8l.4,1.1-46,46.3c-10.5,10.6-3,28.5,11.9,28.5h4.9c6.3,0,12.1-3.6,15-9.3l29-58.1c2.3-4.7,3.9-10.3.3-14.1h0Z"/>
          <path class="st0" d="M51.5,151.6h-4.9c-7.3,0-13.6-4.2-16.4-10.9s-1.4-14.1,3.8-19.3l45.5-45.9-.2-.5c-.7-1.8-2-3.4-3.8-4.3-4.3-2.4-7.6-6.3-9.2-10.9l-.3-.8c-1-3,.6-6.3,3.6-7.3,1.2-.4,2.6-.4,3.8,0,.7-.6,1.5-1.1,2.4-1.3,1.5-.4,3-.2,4.4.6s2.3,2.1,2.6,3.6l.2.8s0,0,0,.1c.9,7.3,12.8,12.7,12.9,12.7.1,0,.2.1.3.2,3.3,3.4,3.2,8.5,0,15.2l-29,58.1c-3,6.1-9.1,9.8-15.9,9.8h0ZM71.6,53.4c-.4,0-.8,0-1.2.2-2,.7-3,2.8-2.3,4.8l.3.8c1.5,4.2,4.4,7.7,8.3,9.8,2.1,1.2,3.8,3.1,4.7,5.3l.4,1.1c.1.4,0,.8-.2,1.1l-46,46.3c-4.5,4.6-5.8,11.2-3.3,17.1,2.5,6,8,9.7,14.5,9.7h4.9c6,0,11.4-3.3,14.1-8.7l29-58.1c2.9-5.8,3.1-10,.6-12.8-1.7-.8-12.8-6.2-13.9-14.2l-.2-.8c-.2-1-.9-1.8-1.7-2.3-.9-.5-1.9-.7-2.9-.4-.8.2-1.4.6-1.9,1.2-.3.3-.8.4-1.2.2-.5-.3-1.1-.4-1.7-.4h0Z"/>
        </g>
        <path class="st0" d="M81.5,70.1c-.2,0-.4,0-.5-.2-4.1-2.7-7-6.9-8.2-11.7l-.2-.8c-.8-3.1,1.1-6.2,4.2-7,.5-.1,1.1.2,1.2.7s-.2,1.1-.7,1.2c-2,.5-3.2,2.6-2.7,4.6l.2.8c1.1,4.3,3.7,8,7.4,10.5.5.3.6.9.3,1.4-.2.3-.5.4-.8.4h0Z"/>
        <path class="st0" d="M73.9,82.6l-39.2,39.5c-10.5,10.6-3,28.5,11.9,28.5h4.9c6.3,0,12.1-3.6,15-9.3l24.2-48.4c-5-4.3-10.6-7.8-16.7-10.3h0Z"/>
        <path class="st2" d="M51.5,151.6c-.5,0-1-.4-1-1s.5-1,1-1c6,0,11.4-3.3,14.1-8.7l24.2-48.4c.2-.5.8-.7,1.3-.4.5.2.7.8.5,1.3l-24.2,48.4c-3,6.1-9.1,9.8-15.9,9.8h0Z"/>
      </g>
    </g>
  </g>
</svg>