<?xml version="1.0" encoding="UTF-8"?>
<svg id="Layer_1" xmlns="http://www.w3.org/2000/svg" version="1.1" viewBox="0 0 99.3 137.5">
  <!-- Generator: Adobe Illustrator 29.2.0, SVG Export Plug-In . SVG Version: 2.1.0 Build 108)  -->
  <defs>
    <style>
      .st0, .st1 {
        fill: #303030;
      }

      .st2 {
        fill: #26a8df;
      }

      .st1 {
        stroke: #303030;
        stroke-miterlimit: 10;
      }
    </style>
  </defs>
  <g id="Layer_2">
    <g id="_Layer_">
      <g>
        <g>
          <g>
            <path class="st2" d="M43.4,130.6l2.4-39.6c-1.5-2.4-4.4-5.5-4.4-8.6,0-5.3,0-9.9.2-10.1l-.8-21.3c-.6-1.8,1-3.8,2.4-4.4,1.5-.6,3.3.4,4.1,2.2l-.2,11.9.5-15.8c0-2,1.5-3.9,3.5-4.1,2.4-.3,4.5,1.4,4.7,3.7l1.4,16.1.6-20.4c0-2.3,2-4.1,4.4-4,2.1.1,3.6,1.9,3.8,3.9l.6,6.4v-1.5c.3-2,1.9-3.7,4-3.9,2.4-.2,4.4,1.7,4.4,4l.4,25.2v8.1c.1,0,6.5-8.6,6.5-8.6,1.6-2.2,4.1-3.6,6.8-3.9,1.8-.2,3.1,1.7,2.3,3.3l-4.7,9.9c-2.5,5.3-6.2,9.9-10.6,13.7-.7.6-1.4,1.1-2.1,1.5l2.2,42.2-32.3-5.9h0Z"/>
            <path class="st0" d="M75.3,137.4c-.5-.2-.7-.7-.5-1.2l-2.2-42.2c0-.2.2-.4.4-.5.8-.5,1.4-1,2-1.5,4.4-3.7,7.9-8.2,10.4-13.4l4.7-9.9c.2-.5.2-1-.1-1.4-.1-.2-.5-.6-1.1-.5-2.4.3-4.6,1.6-6.1,3.5l-6.3,8.6c-.3.4-.7.5-1.1.4-.4-.1-.7-.5-.7-.9l-.5-33.2c0-.9-.4-1.7-1-2.2s-1.5-.9-2.3-.8c-1.5.1-2.7,1.4-2.9,3v1.5c-.2.5-.6.9-1.1.9s-.9-.4-1-.9l-.6-6.4c-.1-1.6-1.4-2.9-2.9-3-.9,0-1.7.2-2.3.8-.6.6-1,1.4-1,2.2l-.6,20.4c0,.5-.4,1-1,1s-1-.4-1-.9l-1.4-16.1c0-.9-.5-1.6-1.2-2.2-.7-.5-1.5-.8-2.4-.6-1.5.2-2.6,1.6-2.7,3.2l-.5,15.8c0,.5-.4.9-.8,1-.5,0-.9-.2-1.1-.6l.2-11.9c-.3-.7-.8-1.2-1.3-1.5-.5-.3-1-.3-1.4-.1-.9.4-2,1.4-1.8,3.2l.8,21.3c0,.2,0,.4,0,.6,0,.4-.1,2-.1,9.8,0,2.8,2.7,5.7,4.2,8.1.2.3.2.6,0,.9l-2.4,39.6c-.2.5-.8.7-1.3.5h0c-.5-.2-.7-.8-.8-1.5l2.1-39.1c-1.2-2.4-4-5.5-4-8.5,0-6.8,0-9.2.2-10.1l-.9-21c-.1-2.5,1.3-4.9,3.1-5.6,1-.4,2.1-.3,3.2.2,1,.5,1.8,1.4,2.2,2.5l-2,7.6.3-11.2c0-2.6,2-4.8,4.4-5.1,1.4-.2,2.8.2,3.9,1.1.9.7,1.6,1.8,1.8,2.9v-3.5c.1-1.4.7-2.7,1.8-3.6s2.4-1.4,3.8-1.3c2.5.2,4.5,2.2,4.8,4.8v1.7c1-.9,2.2-1.5,3.4-1.6,1.4-.1,2.8.4,3.8,1.3,1,.9,1.6,2.3,1.7,3.7l.5,30.3,4.6-6.2c1.8-2.4,4.5-4,7.5-4.3,1.2-.1,2.3.4,3,1.3.7,1,.8,2.3.3,3.4l-4.7,9.9c-2.6,5.4-6.3,10.2-10.9,14-.6.5-1.2.9-1.9,1.4l2.4,41.9c-.2.5-.8.8-1.3.6,0,0,0,0,0,0h0Z"/>
          </g>
          <path class="st0" d="M66.7,63.5c-.4-.1-.6-.5-.6-.9l-.3-17.6c0-.5.4-1,1-1,.6,0,1,.4,1,1l.3,17.6c0,.5-.4,1-1,1-.1,0-.3,0-.4,0h0Z"/>
          <path class="st0" d="M59,90.2c-.4-.2-.6-.5-.6-1,0-.5.9-11,10.3-16.4.5-.3,1.1-.1,1.4.4s.1,1.1-.4,1.4c-8.5,4.8-9.3,14.6-9.3,14.8,0,.5-.5,1-1.1.9-.1,0-.2,0-.3,0h0Z"/>
          <path class="st0" d="M47.8,68.8c-.2,0-.3-.2-.4-.3-.3-.5-.2-1.1.2-1.4,8.2-6,23.2-2,23.9-1.9.5.1.9.7.7,1.2s-.7.9-1.2.7c-.1,0-14.8-3.9-22.2,1.5-.3.2-.7.2-1,.1h0Z"/>
        </g>
        <g>
          <path class="st1" d="M14.2,76.5c-7.5,0-13.7-6.1-13.7-13.7s6.1-13.7,13.7-13.7,13.7,6.1,13.7,13.7-6.1,13.7-13.7,13.7ZM14.2,51.1c-6.4,0-11.7,5.2-11.7,11.7s5.2,11.7,11.7,11.7,11.7-5.2,11.7-11.7-5.2-11.7-11.7-11.7Z"/>
          <path class="st1" d="M9.3,67.2c.8-.8,4.6-5.4,7.3-9.6l1.7,1.1c-4.4,6.9-6.6,8.8-7.7,10.1l-1.2-1.6h0Z"/>
          <path class="st1" d="M10.2,58.3c.8.8,5.4,4.6,9.6,7.3l-1.1,1.7c-6.9-4.4-8.8-6.6-10.1-7.7l1.6-1.2h0Z"/>
        </g>
        <g>
          <path class="st1" d="M90,115.3c-4.8,0-8.8-3.9-8.8-8.8s3.9-8.8,8.8-8.8,8.8,3.9,8.8,8.8-3.9,8.8-8.8,8.8ZM90,99c-4.1,0-7.5,3.4-7.5,7.5s3.4,7.5,7.5,7.5,7.5-3.4,7.5-7.5-3.4-7.5-7.5-7.5Z"/>
          <path class="st1" d="M86.9,109.3c.5-.5,2.9-3.4,4.7-6.2l1.1.7c-2.8,4.4-4.2,5.6-5,6.5l-.8-1Z"/>
          <path class="st1" d="M87.4,103.6c.5.5,3.4,2.9,6.2,4.7l-.7,1.1c-4.4-2.8-5.6-4.2-6.5-5l1-.8Z"/>
        </g>
        <g>
          <path class="st1" d="M77.2,33.2c-9,0-16.4-7.3-16.4-16.4S68.2.5,77.2.5s16.4,7.3,16.4,16.4-7.3,16.4-16.4,16.4ZM77.2,2.9c-7.7,0-14,6.3-14,14s6.3,14,14,14,14-6.3,14-14-6.3-14-14-14Z"/>
          <path class="st1" d="M71.4,22.1c1-1,5.5-6.4,8.7-11.5l2,1.3c-5.2,8.2-7.9,10.5-9.2,12.1l-1.5-1.9h0Z"/>
          <path class="st1" d="M72.4,11.5c1,1,6.4,5.5,11.5,8.7l-1.3,2c-8.2-5.2-10.5-7.9-12.1-9.2l1.9-1.5h0Z"/>
        </g>
      </g>
    </g>
  </g>
</svg>