<?xml version="1.0" encoding="UTF-8"?>
<svg id="Layer_1" xmlns="http://www.w3.org/2000/svg" version="1.1" viewBox="0 0 291.7 241.4">
  <!-- Generator: Adobe Illustrator 29.2.0, SVG Export Plug-In . SVG Version: 2.1.0 Build 108)  -->
  <defs>
    <style>
      .st0 {
        stroke: #26a8df;
        stroke-miterlimit: 10;
        stroke-width: .5px;
      }

      .st0, .st1 {
        fill: #26a8df;
      }

      .st2 {
        fill: #303030;
      }

      .st3 {
        fill: #fafafa;
      }
    </style>
  </defs>
  <g id="Layer_2">
    <g id="_Layer_">
      <g>
        <g>
          <rect class="st3" x="150.9" y="79.7" width="57.9" height="35" transform="translate(39.2 245.6) rotate(-74.9)"/>
          <path class="st2" d="M189,130.9c0,0-.2,0-.3,0l-33.8-9.1c-.3,0-.5-.2-.6-.5-.1-.2-.2-.5-.1-.8l15.1-55.9c.1-.5.7-.9,1.2-.7l33.8,9.1c.3,0,.5.2.6.5.1.2.2.5.1.8l-15.1,55.9c-.1.4-.5.7-1,.7h0ZM156.4,120.1l31.9,8.6,14.5-53.9-31.9-8.6-14.5,53.9Z"/>
        </g>
        <g>
          <path class="st3" d="M232.9,231.1l19.7,7.4c26.8,10.1,49.7-21.6,31.7-43.9l-48.4-60.1c-5.4-6.6-12.2-12-19.9-15.6l-12.5-5.9-6.7-9.5-10.9,10.2-19.9-27.3-65.2,142.3,132.1,2.3h0Z"/>
          <path class="st2" d="M262.9,241.4c-3.5,0-7.1-.6-10.6-2l-19.6-7.4-132-2.3c-.3,0-.6-.2-.8-.5-.2-.3-.2-.6,0-.9l65.2-142.3c.1-.3.4-.5.8-.6.4,0,.7.1.9.4l19.3,26.4,10-9.4c.2-.2.5-.3.8-.3.3,0,.6.2.7.4l6.6,9.2,12.3,5.8c7.8,3.7,14.8,9.2,20.3,15.9l48.4,60.1c8.5,10.5,8.8,24.3.9,35.3-5.7,7.9-14.2,12.1-23.2,12.1h0ZM102.3,227.8l130.6,2.3c.1,0,.2,0,.3,0l19.7,7.4c11.8,4.4,24.1.7,31.5-9.5,7.4-10.2,7-23.1-.9-32.8l-48.4-60.1c-5.2-6.5-12-11.8-19.6-15.3l-12.5-5.9c-.2,0-.3-.2-.4-.3l-6.1-8.5-10,9.4c-.2.2-.5.3-.8.3-.3,0-.6-.2-.7-.4l-18.9-25.9-63.8,139.4h0Z"/>
        </g>
        <path class="st2" d="M174.3,230h-.1c-.6,0-.9-.6-.9-1.1l11.6-115.5c0-.6.6-.9,1.1-.9.6,0,.9.6.9,1.1l-11.6,115.5c0,.5-.5.9-1,.9Z"/>
        <g>
          <path class="st3" d="M62.2,223.2c-7.8-24.7-25.4-77.9-25.4-77.9l3.1-6.9c.1-88.1-27.5-22.9-27.5-22.9,0,0-5.9,45.6-7.2,68l57,39.8h0Z"/>
          <path class="st2" d="M62.2,224.2c-.4,0-.8-.3-.9-.7-7.7-24.4-25.2-77.4-25.4-77.9,0-.2,0-.5,0-.7l3-6.7c0-37.6-5.1-44.2-8.2-44.9-5.2-1.1-13.4,13.1-17.4,22.4-.4,2.8-5.9,46.3-7.1,67.8,0,.6-.5,1-1.1.9s-1-.5-.9-1.1c1.3-22.1,7.1-67.6,7.2-68,0,0,0-.2,0-.3,1.1-2.6,11.1-25.5,19.7-23.7,2.4.5,9.9,2,9.8,47.1,0,.1,0,.3,0,.4l-2.9,6.5c1.6,4.8,17.9,54.2,25.3,77.6.2.5-.1,1.1-.6,1.2-.1,0-.2,0-.3,0h0Z"/>
        </g>
        <g>
          <path class="st3" d="M50.2,234.8h-25.1c-13.4,0-24-11.4-23.1-24.8l2.9-41.5h31.3l14,66.2h0Z"/>
          <path class="st2" d="M50.2,235.8h-25.1c-6.8,0-13-2.7-17.6-7.7-4.6-4.9-6.9-11.4-6.4-18.1l2.9-41.5c0-.5.5-.9,1-.9h31.3c.5,0,.9.3,1,.8l14,66.2c0,.3,0,.6-.2.8-.2.2-.5.4-.8.4h0ZM5.9,169.6l-2.9,40.6c-.4,6.2,1.7,12.1,5.9,16.6,4.2,4.5,10,7,16.2,7h23.8l-13.5-64.2H5.9Z"/>
        </g>
        <g>
          <path class="st2" d="M209.2,5.3c-4.5-1.6-9.3-.8-12.9,1.9l-4.4-1.6c-5.5-2-11.6.8-13.6,6.4l-9,24.7,7,2.6,3.6-10c1.4-3.9,5.7-5.9,9.6-4.5l4.1,1.5-6.5-2.4,4.3,1.6c7.1,2.6,15-1.1,17.6-8.2l3.8-10.5-3.6-1.3h0Z"/>
          <g>
            <path class="st3" d="M176.5,49.6c-1.2,3.4-5,5.1-8.4,3.9l-.5-.2c-3.4-1.2-5.1-4.9-3.9-8.3l2.7-7.4c1.2-3.4,5-5.1,8.3-3.9l.5.2c2.5.9,4.1,3.2,4.3,5.7l-3.1,10.1h0Z"/>
            <path class="st2" d="M170.4,54.9c-.9,0-1.8-.1-2.6-.5l-.5-.2c-1.9-.7-3.4-2.1-4.2-3.9-.9-1.8-.9-3.9-.2-5.7l2.7-7.4c.7-1.9,2.1-3.4,3.9-4.2,1.8-.9,3.9-.9,5.7-.2l.5.2c2.8,1,4.7,3.6,4.9,6.6,0,.6-.4,1-.9,1.1s-1-.4-1.1-.9c-.1-2.2-1.6-4.1-3.6-4.8l-.5-.2c-1.4-.5-2.9-.4-4.2.2-1.3.6-2.3,1.7-2.9,3.1l-2.7,7.4c-.5,1.4-.4,2.9.2,4.2.6,1.3,1.7,2.3,3.1,2.8l.5.2c1.4.5,2.9.4,4.2-.2,1.3-.6,2.4-1.7,2.9-3.1.2-.5.8-.8,1.3-.6s.8.8.6,1.3c-.7,1.9-2.1,3.4-3.9,4.2-1,.5-2.1.7-3.1.7h0Z"/>
          </g>
          <path class="st2" d="M200.2,13.1l3.6-9.8,4.1,1.5,10.7,3.9,6.4,2.4c7.1,2.6,10.8,10.5,8.2,17.6l-3.6,9.8-4.1-1.5-10.7-3.9-6.4-2.4c-7.1-2.6-10.8-10.5-8.2-17.6h0Z"/>
          <g>
            <path class="st3" d="M213.7,54.8c1.2-3.4,4.9-5.1,8.3-3.9l.5.2c3.4,1.2,5.1,5,3.9,8.3l-2.7,7.4c-1.2,3.4-5,5.1-8.4,3.9l-.5-.2c-2.5-.9-4.1-3.2-4.3-5.7l3.1-10.1h0Z"/>
            <path class="st2" d="M217.6,72.1c-.9,0-1.7-.1-2.6-.5l-.5-.2c-2.8-1-4.7-3.6-4.9-6.5,0-.6.4-1,.9-1.1.6,0,1,.4,1.1.9.1,2.2,1.6,4.1,3.6,4.8l.5.2c1.4.5,2.9.4,4.2-.2,1.3-.6,2.4-1.7,2.9-3.1l2.7-7.4c.5-1.4.4-2.9-.2-4.2-.6-1.3-1.7-2.3-3.1-2.9l-.5-.2c-2.9-1-6,.4-7.1,3.3-.2.5-.8.8-1.3.6s-.8-.8-.6-1.3c1.4-3.9,5.7-5.9,9.6-4.5l.5.2c1.9.7,3.4,2.1,4.2,3.9.9,1.8.9,3.9.3,5.7l-2.7,7.4c-.7,1.9-2.1,3.4-3.9,4.2-1,.5-2.1.7-3.2.7h0Z"/>
          </g>
          <g>
            <path class="st3" d="M214.5,74.1c-1.9,5.1-9,12.4-16.4,12.7-10.1.4-20.6-3.4-28.1-10.2-5.5-5.1-6.2-15.2-4.4-20.3,5.3-14.6,10.6-29.1,15.9-43.6,1.9-5.2,8.6-7.6,15-5.4,8.7,3.1,17.3,6.3,26,9.5,6.3,2.4,9.9,8.6,7.9,13.8-5.3,14.5-10.6,29.1-15.9,43.6h0Z"/>
            <path class="st2" d="M196.5,87.9c-9.9,0-19.9-3.9-27.2-10.5-5.9-5.5-6.5-16.1-4.7-21.4l15.9-43.6c2-5.7,9.3-8.4,16.2-6l26,9.5c6.9,2.6,10.7,9.4,8.5,15.1l-15.9,43.6h0c-1.9,5.2-9.2,13-17.3,13.4-.5,0-1.1,0-1.6,0h0ZM191.6,7.4c-4.3,0-8,2.1-9.2,5.6l-15.9,43.6c-1.7,4.8-1,14.5,4.1,19.2,7.3,6.7,17.5,10.4,27.4,10,7-.4,13.8-7.3,15.5-12.1l15.9-43.6c1.8-4.7-1.6-10.3-7.4-12.5l-26-9.5c-1.5-.5-3-.8-4.4-.8h0ZM214.5,74.1h0Z"/>
          </g>
          <path class="st2" d="M216.5,8c4.5,1.6,7.6,5.4,8.7,9.8l4.4,1.6c5.5,2,8.4,8.1,6.3,13.6l-9,24.7-7-2.6,3.6-10c1.4-3.9-.6-8.2-4.5-9.6h0s2.5.9,2.5.9l-11.4-4.1c-7.1-2.6-10.8-10.4-8.2-17.6l3.8-10.5,10.7,3.9h0Z"/>
          <path class="st2" d="M201.3,16.4c.4-.8.8-1.6,1.1-2.4l3.6-9.8-4.1-1.5-5.1-1.8c-7.1-2.6-15,1.1-17.6,8.2l-3.6,9.8,2.7,1,1.4.5,5.1,1.9c.9.3,1.8.6,2.7.7,2.9-4.7,8.2-7.2,13.7-6.4h0Z"/>
          <path class="st2" d="M186.7,74.9c-.2,0-.4,0-.6,0-4.4-.6-6.9-7.9-7.2-8.8-.1-.4,0-.8.3-1s.7-.4,1-.2l11.8,4.3c.3.1.5.3.6.6s0,.6-.1.9c-1.9,2.8-3.8,4.3-5.8,4.3h0ZM181.6,67.5c1,2.3,2.8,5.1,4.8,5.4,1.1.1,2.4-.6,3.7-2.3l-8.5-3.1h0Z"/>
          <path class="st2" d="M213,39.3c-.2,0-.5,0-.7-.3-2.2-2.1-5.3-3.4-8.4-3.4s-1-.4-1-1,.4-1,1-1h0c3.6,0,7.1,1.4,9.8,3.9.4.4.4,1,0,1.4-.2.2-.5.3-.7.3h0Z"/>
          <path class="st2" d="M189.6,30.8c-.2,0-.5,0-.6-.2-2.4-2.1-5-2.7-7.9-1.7-.5.2-1.1-.1-1.3-.6s.1-1.1.6-1.3c3.5-1.1,6.8-.4,9.8,2.1.4.4.5,1,.1,1.4-.2.2-.5.4-.8.4h0Z"/>
          <path class="st2" d="M201.8,48.9c-.4,1.2,0,2.4.8,2.8s1.9-.4,2.4-1.6c.4-1.2,0-2.4-.8-2.8s-1.9.4-2.4,1.6Z"/>
          <path class="st2" d="M181.8,41.6c-.4,1.2,0,2.4.8,2.8s1.9-.4,2.4-1.6c.4-1.2,0-2.4-.8-2.8s-1.9.4-2.4,1.6Z"/>
          <path class="st1" d="M182.3,51.1c-1.4,0-2.7-.3-4-.9-5-2.2-7.3-8.1-5.1-13.1s8.1-7.3,13.1-5.1c5,2.2,7.3,8.1,5.1,13.1-1.1,2.4-3,4.3-5.5,5.3-1.2.4-2.4.7-3.6.7h0ZM182.3,33.2c-3.1,0-6,1.8-7.3,4.7-1.8,4,0,8.7,4.1,10.5,1.9.9,4.1.9,6.1.1s3.5-2.3,4.4-4.2c1.8-4,0-8.7-4.1-10.5-1-.5-2.1-.7-3.2-.7h0Z"/>
          <path class="st2" d="M188.9,61.8c-.1,0-.3,0-.4,0-3.3-1.5-4.9-5.3-4.9-5.4-.1-.3,0-.7.2-1l9.1-11c.4-.4,1-.5,1.4-.1.4.4.5,1,.1,1.4l-8.7,10.5c.5.9,1.7,2.9,3.7,3.8.5.2.7.8.5,1.3-.2.4-.5.6-.9.6h0Z"/>
          <path class="st1" d="M204.3,58.4c-1,0-2.1-.2-3.1-.5-5.2-1.7-8-7.4-6.3-12.6,1.7-5.2,7.4-8,12.6-6.3,5.2,1.7,8,7.4,6.3,12.6h0c-1.4,4.2-5.3,6.8-9.4,6.8h0ZM204.4,40.5c-3.3,0-6.4,2.1-7.6,5.4-1.4,4.2.9,8.7,5,10.1,4.2,1.4,8.7-.9,10.1-5h0c1.4-4.2-.9-8.7-5-10.1-.8-.3-1.7-.4-2.5-.4h0Z"/>
          <path class="st1" d="M195.4,46.5c-.1,0-.2,0-.4,0l-3.9-1.6c-.5-.2-.8-.8-.6-1.3.2-.5.8-.8,1.3-.6l3.9,1.6c.5.2.8.8.6,1.3-.1.4-.5.6-.9.6h0Z"/>
        </g>
        <path class="st2" d="M175.9,129.4h0c-.4,0-.7-.2-.8-.5l-20.7-37.8c-.2-.4-.1-1,.3-1.3l8.6-6.5c.2-.2.5-.2.7-.2.3,0,.5.2.7.4l22.2,29.5c.3.3.3.8,0,1.2l-10,14.9c-.2.3-.5.4-.8.4h0ZM156.5,90.8l19.5,35.6,8.7-12.9-21.1-28.1-7.1,5.4h0Z"/>
        <path class="st2" d="M193.4,131.6h0c-.4,0-.7-.2-.9-.6l-7.5-17.1c-.2-.4,0-.9.2-1.1l10.8-9.9c.2-.2.5-.3.8-.3.3,0,.5.2.7.4l6.7,9.5c.2.3.2.7,0,1.1l-10.1,17.6c-.2.3-.5.5-.9.5h0ZM187.1,113.7l6.4,14.6,8.8-15.3-5.7-8-9.4,8.7Z"/>
        <g>
          <g>
            <path class="st3" d="M39.9,234.8c-6.9,0-12.4-5.6-12.4-12.4V52c0-6.9,5.6-12.4,12.4-12.4h80.3l48.7,48.7v134.1c0,6.9-5.6,12.4-12.4,12.4H39.9Z"/>
            <path class="st2" d="M119.7,40.5l48.2,48.2v133.7c0,6.3-5.1,11.4-11.4,11.4H39.9c-6.3,0-11.4-5.1-11.4-11.4V52c0-6.3,5.1-11.4,11.4-11.4h79.9ZM120.6,38.5H39.9c-7.4,0-13.4,6-13.4,13.4v170.4c0,7.4,6,13.4,13.4,13.4h116.6c7.4,0,13.4-6,13.4-13.4V87.8l-49.3-49.3h0Z"/>
          </g>
          <path class="st1" d="M120.6,38.5v35.9c0,7.4,6,13.4,13.4,13.4h35.9l-49.3-49.3h0Z"/>
          <rect class="st1" x="75.7" y="146.1" width="67.3" height="9"/>
          <rect class="st1" x="75.7" y="164.1" width="67.3" height="9"/>
          <rect class="st1" x="75.7" y="182" width="67.3" height="9"/>
          <rect class="st1" x="53.3" y="119.2" width="67.3" height="9"/>
          <g>
            <path class="st0" d="M58.1,155.2c-2.6,0-4.7-2.1-4.7-4.7s2.1-4.7,4.7-4.7,4.7,2.1,4.7,4.7-2.1,4.7-4.7,4.7ZM58.1,146.5c-2.2,0-4,1.8-4,4s1.8,4,4,4,4-1.8,4-4-1.8-4-4-4Z"/>
            <path class="st0" d="M57.5,152.4h0c-.8-.1-1.6-1.5-1.7-1.8l.6-.3c.4.6.9,1.3,1.2,1.4.4-.1,1.6-1.8,2.6-3.2l.6.4c-1.5,2.4-2.6,3.6-3.1,3.6h0Z"/>
          </g>
          <g>
            <path class="st0" d="M58.1,173.3c-2.6,0-4.7-2.1-4.7-4.7s2.1-4.7,4.7-4.7,4.7,2.1,4.7,4.7-2.1,4.7-4.7,4.7ZM58.1,164.6c-2.2,0-4,1.8-4,4s1.8,4,4,4,4-1.8,4-4-1.8-4-4-4Z"/>
            <path class="st0" d="M57.5,170.4h0c-.8-.1-1.6-1.5-1.7-1.8l.6-.3c.4.6.9,1.3,1.2,1.4.4-.1,1.6-1.8,2.6-3.2l.6.4c-1.5,2.4-2.6,3.6-3.1,3.6h0Z"/>
          </g>
          <g>
            <path class="st0" d="M58.1,191.2c-2.6,0-4.7-2.1-4.7-4.7s2.1-4.7,4.7-4.7,4.7,2.1,4.7,4.7-2.1,4.7-4.7,4.7ZM58.1,182.5c-2.2,0-4,1.8-4,4s1.8,4,4,4,4-1.8,4-4-1.8-4-4-4Z"/>
            <path class="st0" d="M57.5,188.3h0c-.8-.1-1.6-1.5-1.7-1.8l.6-.3c.4.6.9,1.3,1.2,1.4.4-.1,1.6-1.8,2.6-3.2l.6.4c-1.5,2.4-2.6,3.6-3.1,3.6h0Z"/>
          </g>
        </g>
        <g>
          <g>
            <path class="st3" d="M180.6,158.5l-13.3-24.7c-1.1-2.1-3.7-2.7-5.7-1.5h0c-3.1,2-4.6,5.6-3.8,9.2l2.2,9.7,20.5,7.3Z"/>
            <path class="st2" d="M180.6,159.5c-.1,0-.2,0-.3,0l-20.5-7.3c-.3-.1-.6-.4-.6-.7l-2.2-9.7c-.9-3.9.8-8.1,4.2-10.3,1.2-.8,2.6-1,4-.6,1.4.4,2.5,1.2,3.1,2.5l13.3,24.7c.2.4.1.8-.1,1.1-.2.2-.5.4-.8.4h0ZM161,150.4l17.6,6.2-12.1-22.4c-.4-.8-1.1-1.3-1.9-1.5-.8-.2-1.7,0-2.4.4-2.7,1.7-4,5-3.3,8.1l2.1,9.2h0Z"/>
          </g>
          <g>
            <g>
              <path class="st3" d="M167.9,149.2l-32.7-9c-1.8-.5-3.6.8-3.8,2.6l-.2,1.8c-.4,3.5,1.4,6.8,4.4,8.5l8.3,4.5.4,1.1-11.3-1.6c-2.4-.3-4.7,1.4-5.1,3.8-.5,3.8,1.8,7.2,5.3,8.3-2.2,0-4.1,1.6-4.4,3.8-.5,3.8,1.8,7.3,5.3,8.4-2.2,0-4.1,1.6-4.4,3.8-.6,4.2,2.4,8.1,6.6,8.7l22.8,3.2,1.4,3.6c1.7,4.3,5.2,7.6,9.5,9.1l62.7,21.3s16.8-22.9,5.1-41.2c0-.1-.2,0-.3-.1l-48.6-15.5-.5-2.9c-2.1-10.7-10-19.4-20.6-22.2h0Z"/>
              <path class="st2" d="M232.9,232.1c-.1,0-.2,0-.3,0l-62.7-21.3c-4.6-1.6-8.3-5.1-10.1-9.7l-1.2-3.1-22.2-3.1c-4.8-.7-8.1-5.1-7.4-9.9.2-1.7,1.2-3.1,2.6-3.9-2.6-1.8-4-5-3.6-8.3.2-1.7,1.2-3.1,2.6-3.9-2.6-1.8-4-4.9-3.6-8.2.2-1.4.9-2.7,2.1-3.6,1.2-.9,2.6-1.3,4.1-1.1l7.9,1.1-5.9-3.2c-3.4-1.9-5.4-5.6-5-9.4l.2-1.8c.1-1.2.8-2.2,1.7-2.9s2.2-.9,3.4-.6l32.7,9c11,3,19.1,11.8,21.3,23l.4,2.3,48.1,15.3h0c.1,0,.6,0,.9.5,5,7.7,5.7,17.5,2,28.3-2.8,8.1-6.9,13.8-7.1,14-.2.3-.5.4-.8.4h0ZM134.2,182.4c-1.7,0-3.1,1.2-3.4,2.9-.5,3.7,2.1,7.1,5.7,7.6l22.8,3.2c.4,0,.7.3.8.6l1.4,3.6c1.6,4,4.8,7.1,8.9,8.5l62,21c2.5-3.7,14.7-23.3,4.8-39.1l-48.6-15.5c-.4-.1-.6-.4-.7-.8l-.5-2.9c-2-10.4-9.6-18.7-19.8-21.5h0l-32.7-9c-.6-.2-1.2,0-1.7.3-.5.3-.8.9-.9,1.5l-.2,1.8c-.3,3.1,1.2,6,3.9,7.5l8.3,4.5c.2.1.4.3.4.5l.4,1.1c.1.3,0,.7-.1,1s-.6.4-.9.4l-11.3-1.6c-.9-.1-1.9.1-2.6.7-.7.6-1.2,1.4-1.3,2.3-.4,3.2,1.6,6.2,4.6,7.2.5.1.8.6.7,1.1,0,.5-.5.8-1,.8h0c-1.7,0-3.1,1.2-3.4,2.9-.4,3.2,1.5,6.3,4.6,7.3.5.1.8.6.7,1.1,0,.5-.5.9-1,.8h0,0ZM237.7,190.8h0,0Z"/>
            </g>
            <path class="st2" d="M162,174.4h-.1l-27.5-3.8c-.6,0-.9-.6-.9-1.1,0-.6.6-.9,1.1-.9l27.5,3.8c.6,0,.9.6.9,1.1,0,.5-.5.9-1,.9h0Z"/>
            <path class="st2" d="M162.1,162.2h-.1l-29.2-4.1c-.6,0-.9-.6-.9-1.1,0-.6.6-.9,1.1-.9l29.2,4.1c.6,0,.9.6.9,1.1,0,.5-.5.9-1,.9h0Z"/>
            <path class="st2" d="M160.9,186.2h-.1l-29.2-4.1c-.6,0-.9-.6-.9-1.1,0-.6.6-.9,1.1-.9l29.2,4.1c.6,0,.9.6.9,1.1,0,.5-.5.9-1,.9h0Z"/>
          </g>
        </g>
        <g>
          <path class="st3" d="M27.9,144.7c2.8-8.1,2.9-18.8-.3-29.7-1.3-4.5-3.1-8.6-5.2-12.4l9.5-5.4c10.6,1.3,16.4,2.1,20,0,5.6-3.3,5.1-6.7,5.2-6.9,0-.3,0-.7-.2-1-.2-.3-.5-.5-.8-.5l-2.1-.3c5.6-3.9,4.6-8.7,4.5-8.9-.1-.5-.5-.9-1-1l-28.8-5.9c1.3-.9,4.4-3.7,4.9-4,2.7.4,13.7,3.6,20.4.5,2.8-1.3,4.3-2.8,4.6-4.6.3-1.9-1.1-3.2-1.3-3.4-.2-.2-.4-.2-.6-.3l-26.9-5.8c-.4,0-.7,0-1,.2,0,0-.5.4-1.3,1l-1.4-7.3c1.7-1.5,6.5-5.9,8.9-10,3.1-5.4-.4-11.4-.6-11.7-.2-.3-.6-.5-.9-.5-.4,0-.7.1-1,.4l-18.3,19c-.3.3-.4.7-.3,1.1l.6,18.1c0,.3.2.6.5.8,0,0,.1,0,.1,0-1.8,1.4-3.4,2.8-4.7,3.8-2.1,1.8-3.1,3.6-3,5.4,0,1,.5,1.8.9,2.4,0,0,0,0,0,0-4.6,1.9-6.1,4.4-5,8.6.5,1.7.2,2.1-.4,3.3-.4.8-1,1.8-1.5,3.4-1.2,4.2,8.4,49.1,8.5,49.3l18.3,2h0Z"/>
          <path class="st2" d="M27.9,145.7c-.1,0-.2,0-.3,0-.5-.2-.8-.8-.6-1.3,2.8-8.2,2.7-18.8-.3-29.1-1.3-4.3-3-8.4-5.1-12.1-.3-.5-.1-1.1.4-1.4l9.5-5.4c.2-.1.4-.1.6-.1h.1c10.3,1.3,16,2,19.2.1,3-1.8,4.7-3.8,4.7-5.9s0-.2,0-.3,0-.1,0-.2c0,0-.1,0-.2-.1l-2.1-.3c-.4,0-.7-.4-.8-.8s0-.8.4-1c5-3.5,4.2-7.7,4.1-7.9,0-.1-.1-.2-.2-.2l-28.8-5.9c-.4,0-.7-.4-.8-.8,0-.4,0-.8.4-1,.6-.4,1.6-1.3,2.5-2.1,1.6-1.3,2.2-1.9,2.5-2,.2-.1.4-.1.6-.1.5,0,1.2.2,2,.4,4.1.9,12.5,2.7,17.8.2,2.4-1.1,3.8-2.4,4-3.8.2-1.4-.9-2.4-1-2.5s0,0-.1,0l-26.9-5.8c0,0-.2,0-.2,0l-1.3,1c-.3.2-.6.3-1,.1s-.6-.4-.6-.7l-1.4-7.3c0-.4,0-.7.3-.9,1.4-1.3,6.4-5.7,8.7-9.7,2.9-5-.6-10.6-.6-10.6,0,0-.1,0-.2,0s-.1,0-.2,0l-18.3,19c0,0,0,.1,0,.2,0,0,0,0,0,.1l.6,18s0,0,0,0c0,0,0,0,0,0,.3.2.5.5.5.8s-.1.6-.4.9c-1.8,1.4-3.4,2.7-4.7,3.8-1.9,1.6-2.8,3.1-2.7,4.6,0,.7.3,1.3.7,1.9.2.2.2.6.2.9s-.3.5-.6.7c-4.2,1.7-5.4,3.8-4.4,7.4.6,2,.2,2.7-.5,4-.4.8-1,1.6-1.4,3.1-1,3.6,8,46.9,8.5,48.8.2.5,0,1.1-.6,1.2s-1.1-.1-1.3-.6c-.1-.4-9.8-45.4-8.5-49.9.5-1.7,1.1-2.8,1.6-3.6.6-1.1.7-1.2.3-2.5-1.2-4.3.3-7.3,4.6-9.3-.3-.6-.4-1.2-.5-1.9-.1-2.2,1-4.3,3.4-6.3,1.1-.9,2.5-2,3.9-3.2,0-.2-.1-.4-.2-.6,0,0,0,0,0-.1l-.6-18.1c0-.7.1-1.4.6-1.8l18.3-19c.5-.5,1.1-.7,1.8-.7.7,0,1.3.4,1.7.9.8,1,3.9,7.2.7,12.8-2.2,3.9-6.5,8-8.7,9.9l1,5.2h0c.5-.4,1.2-.6,1.9-.5l26.9,5.8c.4,0,.7.3,1,.5.2.2,2,1.8,1.6,4.3-.3,2.1-2,3.9-5.1,5.3-5.9,2.7-14.8.8-19.1,0-.6-.1-1.1-.2-1.5-.3-.4.3-1.3,1.1-1.9,1.6-.3.3-.6.5-.9.8l26.7,5.4c.9.2,1.6.9,1.8,1.7,0,.2,1,4.6-3.1,8.5.6.1,1.1.4,1.4.9.3.5.5,1.1.4,1.6,0,2.8-2,5.5-5.7,7.6-3.8,2.2-9.7,1.5-20.3.2l-8.4,4.8c2,3.6,3.6,7.6,4.8,11.7,3.1,10.7,3.2,21.8.3,30.3-.1.4-.5.7-.9.7h0Z"/>
        </g>
        <path class="st2" d="M54.8,89.5c0,0-.1,0-.2,0l-27.4-4.4-14.1,3.9c-.5.1-1.1-.2-1.2-.7s.2-1.1.7-1.2l14.3-3.9c.1,0,.3,0,.4,0l27.6,4.4c.6,0,.9.6.8,1.1,0,.5-.5.8-1,.8h0Z"/>
        <path class="st2" d="M14.4,76.7c-.4,0-.8-.2-.9-.6-.2-.5,0-1.1.6-1.3,9.7-3.9,13.6-3.2,13.8-3.2l7,1.5c.5.1.9.6.8,1.2-.1.5-.6.9-1.2.8l-6.9-1.5s-3.6-.5-12.6,3.1c-.1,0-.2,0-.4,0h0Z"/>
        <path class="st2" d="M11.4,70.1c-.3,0-.6-.1-.8-.4-.4-.4-.3-1.1.1-1.4,4.7-3.9,13.6-10.8,17.2-13.6.4-.3,1.1-.3,1.4.2.3.4.3,1.1-.2,1.4-3.6,2.8-12.5,9.7-17.1,13.6-.2.2-.4.2-.6.2h0Z"/>
        <g>
          <path class="st3" d="M271.4,202.4s-5.8-7.1-33.5-12.5l33.5,12.5Z"/>
          <path class="st2" d="M271.4,203.4c-.3,0-.6-.1-.8-.4,0-.1-6.1-6.9-32.9-12.1-.5-.1-.9-.6-.8-1.2.1-.5.6-.9,1.2-.8,27.8,5.4,33.8,12.5,34.1,12.8.4.4.3,1.1-.1,1.4-.2.1-.4.2-.6.2h0Z"/>
        </g>
      </g>
    </g>
  </g>
</svg>