<?xml version="1.0" encoding="UTF-8"?>
<svg id="Layer_1" xmlns="http://www.w3.org/2000/svg" version="1.1" viewBox="0 0 262 235.6">
  <!-- Generator: Adobe Illustrator 29.1.0, SVG Export Plug-In . SVG Version: 2.1.0 Build 142)  -->
  <defs>
    <style>
      .st0 {
        fill: #303030;
      }

      .st1 {
        fill: #afd3f0;
      }

      .st2 {
        fill: #fafafa;
      }
    </style>
  </defs>
  <g id="Layer_2">
    <g id="_Layer_">
      <g>
        <path class="st0" d="M235.4,35c-4.7-15.8-43.7-56.2-82.1-21-16.1,14.7.6,32.1-27.6,31s-47.2-3.5-57.6,4.6c-9,7-7.6,11.9.1,27.9,6.9,14.4-16.5,10.3-29,8.1-12.5-2.1-29.7,4.7-34,14.6-30.3,68.9,81.4,106,81.4,106,0,0,168.9-102.9,148.8-171.2h0Z"/>
        <path class="st0" d="M145.9,179.3h-.1c-.3,0-29.1-4-60.4-13-42.2-12.1-68.5-27.2-78.2-44.6-5.2-9.4-5.5-19.6-.8-30.1,4.1-9.2,20.8-16.1,33.7-13.8h.4c8.3,1.5,23.7,4.2,26.9,0,.9-1.2.7-3.2-.6-5.8-7.4-14.7-9.5-20.1-.1-27.2,8.8-6.6,24-5.7,44.9-4.5,3.5.2,7.2.4,11.1.6,17.5.8,18.4-3.6,20.2-12.5.9-4.3,1.9-9.6,5.1-15.4,4.2-7.6,13.6-11.9,27.3-12.4,10.2-.4,19.1,1.3,19.4,1.4.5.1.9.6.8,1.2-.1.5-.6.9-1.2.8-.4,0-35.3-6.9-44.6,10-3.1,5.6-4,10.5-4.9,14.9-1.8,9.1-3,15.1-22.3,14.2-3.9-.2-7.6-.4-11.1-.6-20.5-1.2-35.4-2-43.6,4.1-7.8,5.8-6.9,9.6.7,24.7,1.7,3.3,1.8,5.9.4,7.8-3.9,5.3-18.9,2.7-28.8.9h-.4c-12.1-2.2-27.7,4.1-31.5,12.6-4.4,9.9-4.2,19.4.7,28.3,22.6,40.6,136,56.5,137.2,56.6.6,0,.9.6.9,1.1,0,.5-.5.9-1,.9h0Z"/>
        <g>
          <path class="st2" d="M195.7,229.9l26.6-117.7c-1.8-1.8-58.8-28.8-95.2-45.9-16.6-7.8-36.3-.9-44.4,15.5l-29,79.2c-9.2,25.2-1.2,53.5,20,70.1l4.4,3.5,117.7-4.7h0Z"/>
          <path class="st0" d="M78,235.6c-.2,0-.4,0-.6-.2l-4.4-3.5c-21.6-16.9-29.7-45.5-20.3-71.2l29.1-79.2s0,0,0,0c8.3-16.7,28.9-23.9,45.8-15.9,61.9,29.1,94,44.6,95.5,46.1.2.2.3.6.3.9l-26.6,117.7c-.1.5-.7.9-1.2.8s-.9-.7-.8-1.2l26.5-117.1c-4.4-2.7-38.5-19.1-94.5-45.4-15.9-7.5-35.2-.8-43.1,15l-29,79.2c-9.1,24.9-1.2,52.6,19.6,68.9l4.4,3.5c.4.3.5,1,.2,1.4-.2.2-.5.4-.8.4h0Z"/>
        </g>
        <g>
          <path class="st2" d="M131,69.2l1.8,5.6c7.9,24.7,32.8,39.8,58.3,35.4l6.4-1.1-66.5-39.9h0Z"/>
          <path class="st0" d="M182.3,112c-22.6,0-43.4-14.7-50.5-36.8l-1.8-5.6c-.2-.5.1-1.1.6-1.3.5-.2,1.1.1,1.3.7l1.8,5.6c7.7,24.1,32.3,39,57.2,34.7l6.4-1.1c.6,0,1.1.3,1.2.8,0,.5-.3,1.1-.8,1.2l-6.4,1.1c-3,.5-6,.8-9,.8h0Z"/>
        </g>
        <g>
          <rect class="st2" x="95.7" y="105.6" width="140.4" height="126.9"/>
          <path class="st0" d="M236.1,233.5c-.6,0-1-.4-1-1v-125.9H96.7v125.9c0,.6-.4,1-1,1s-1-.4-1-1v-126.9c0-.6.4-1,1-1h140.4c.6,0,1,.4,1,1v126.9c0,.6-.4,1-1,1Z"/>
        </g>
        <g>
          <path class="st2" d="M237.2,210.2l.2,16.6s16.9-1.9,20.9-18.1c4.1-16.2,5.3-41.9-7.9-47.1-13.3-5.2-32.5-18.9-31.8-8.5.5,7.8,23.3,21.3,23.3,21.3l-33.7-.4s-1.8,5.9-.2,11.1c1.6,5.2-.3,19.9,29.2,25h0Z"/>
          <path class="st0" d="M237.3,228.4c-.4,0-.8-.3-.9-.7-.2-.5,0-1.1.6-1.3,8.2-2.9,18.3-8.3,20.3-17.9,2.5-11.6,6.7-39.3-7.4-45.9l-27.6-12.4c-.5-.2-1.1-.2-1.6,0-.5.2-.9.7-1,1.2-.9,3.3.4,6.9,3.2,8.9l20.4,14.2c.4.3.6.9.2,1.4-.3.4-.9.6-1.4.2l-20.4-14.2c-3.5-2.5-5.1-6.9-4-11.1.3-1.1,1.1-2,2.1-2.5s2.2-.5,3.3,0l27.6,12.4c6.4,3,15.9,13.2,8.5,48.2-2.2,10.4-13,16.3-21.6,19.3-.1,0-.2,0-.3,0h0Z"/>
          <path class="st0" d="M209.2,184.6c-.2,0-.4,0-.5-.2-4.6-2.8-3.1-8.6-1.6-11.2.2-.3.5-.5.9-.5l43.4,2.1c.6,0,1,.5.9,1.1s-.5,1-1.1.9l-42.8-2.1c-.7,1.5-2.3,5.8,1.2,8,.5.3.6.9.3,1.4-.2.3-.5.5-.9.5h0Z"/>
          <path class="st0" d="M248.2,201.6c0,0-.1,0-.2,0-1.3-.2-32-5.3-36.8-6.8-5.4-1.8-5.4-10.4-5.4-10.7,0-.3.1-.5.3-.7s.5-.3.8-.2l44.2,4.3c.6,0,.9.5.9,1.1,0,.6-.5.9-1.1.9l-43-4.2c.2,2.1.9,6.7,3.9,7.7,4.6,1.5,36.1,6.7,36.5,6.8.5,0,.9.6.8,1.2,0,.5-.5.8-1,.8h0Z"/>
          <path class="st0" d="M244.1,211.7h-.1c-1.3-.1-32.2-3.5-32.9-17.6,0-.6.4-1,.9-1.1.5,0,1,.4,1.1.9.3,6.3,8.6,10.2,15.6,12.4,7.7,2.4,15.5,3.3,15.6,3.3.6,0,.9.6.9,1.1,0,.5-.5.9-1,.9h0Z"/>
        </g>
        <g>
          <path class="st2" d="M94.1,208.3v20.8s-21.4-4.1-25.4-20.3-5.3-41.9,7.9-47.1c13.3-5.2,36-.9,36-.9,0,0,4.1,9.6-3.7,10.3-43.7,4.2-9,4.2-9,4.2l18.9-1.5s1.7,6.3.1,11.4c-1.6,5.2-6.4,21.7-24.9,23.2h0Z"/>
          <path class="st0" d="M89.6,228.4c-.1,0-.2,0-.3,0-8.6-3.1-19.4-8.9-21.6-19.3-7.4-34.9,2.1-45.2,8.5-48.2,13.5-6.3,35.7-1.2,36.6-1,.3,0,.6.3.7.6,0,.2,2.2,5.1.4,8.7-.8,1.6-2.2,2.7-4.3,3.2-2.8.7-6.7.8-10.4.9-5.3.2-11.3.3-13,2.4-.4.4-1,.5-1.4.1s-.5-1-.1-1.4c2.3-2.8,8.2-2.9,14.5-3.1,3.6,0,7.4-.2,10-.9,1.5-.4,2.4-1.1,3-2.2,1.1-2.2.1-5.3-.3-6.5-3.4-.7-23.1-4.5-34.8,1-14.1,6.6-9.9,34.3-7.4,45.9,2,9.5,12.2,15,20.3,17.9.5.2.8.8.6,1.3-.1.4-.5.7-.9.7h0Z"/>
          <path class="st0" d="M117.8,184.6c-.3,0-.7-.2-.9-.5-.3-.5-.1-1.1.3-1.4,3.5-2.1,1.9-6.4,1.2-8l-42.8,2.1c-.6,0-1-.4-1.1-.9,0-.6.4-1,.9-1.1l43.4-2.1c.4,0,.7.2.9.5,1.5,2.6,3,8.3-1.6,11.2-.2,0-.3.2-.5.2h0Z"/>
          <path class="st0" d="M78.7,201.6c-.5,0-.9-.3-1-.8,0-.5.3-1.1.8-1.2.3,0,31.8-5.2,36.5-6.8,3-1,3.8-5.6,3.9-7.7l-43,4.2c-.5,0-1-.3-1.1-.9s.4-1,.9-1.1l44.2-4.3c.3,0,.6,0,.8.2.2.2.3.4.3.7s0,9-5.4,10.7c-4.8,1.6-35.5,6.6-36.8,6.8,0,0-.1,0-.2,0h0Z"/>
          <path class="st0" d="M82.9,211.7c-.5,0-.9-.4-1-.9,0-.6.3-1,.9-1.1,0,0,7.9-.8,15.6-3.3,6.9-2.2,15.2-6.1,15.6-12.4,0-.6.5-1,1.1-.9.6,0,1,.5.9,1.1-.7,14.1-31.6,17.4-32.9,17.6h-.1Z"/>
        </g>
        <path class="st2" d="M158.3,97c19.2-12.2,38.8-24.6,39.5-24.9l-2.6-28.7s-29.1,20.1-49.9,33.4l13,20.2h0Z"/>
        <g>
          <circle class="st0" cx="207.9" cy="60" r="38.5"/>
          <path class="st2" d="M178.8,50.2c3.4-4.9,8.3-8.8,14.4-10.8,15.4-5.3,32.2,2.8,37.5,18.2,4.1,12,0,24.9-9.2,32.5-3,7.8-9.3,14.4-17.9,17.3-15.4,5.3-32.2-2.8-37.5-18.2-2.8-8.1-1.8-16.6,2-23.6-4.7,0-9-3-10.6-7.7-2.1-5.9,1.1-12.4,7-14.5,5.9-2,12.2,1,14.4,6.8Z"/>
          <path class="st0" d="M193.9,110c-12.6,0-24.5-7.9-28.9-20.5-.2-.5.1-1.1.6-1.3s1.1,0,1.3.6c5.1,14.8,21.4,22.8,36.2,17.6,8-2.8,14.3-8.8,17.3-16.7.2-.5.8-.8,1.3-.6.5.2.8.8.6,1.3-3.2,8.4-10,15-18.5,17.9-3.3,1.1-6.6,1.7-9.9,1.7h0Z"/>
          <path class="st0" d="M172.3,59.8c0,0-.1,0-.2,0-.5-.1-.9-.6-.8-1.2.7-3.2-.5-6.9-3.1-9.1-.4-.4-.5-1-.1-1.4.4-.4,1-.5,1.4,0,3.1,2.7,4.5,7,3.7,11-.1.5-.5.8-1,.8h0Z"/>
          <path class="st0" d="M193.6,87.8h0c2.8,0,5.6,1.5,7.4,4,1.9,2.4,2.6,5.5,1.9,8.2-.1.5-.7.9-1.2.7-.5-.1-.9-.7-.7-1.2.5-2.1,0-4.6-1.5-6.5s-3.7-3.2-5.9-3.2c-.6,0-1-.5-1-1s.4-1,1-1h0Z"/>
          <path class="st0" d="M210.3,70.8c-.4,0-.8-.2-.9-.6l-.2-.4c-1.2-3.1-3.7-9.5-12.2-6.5-.5.2-1.1,0-1.3-.6s0-1.1.6-1.3c10.4-3.7,13.6,4.6,14.7,7.7l.2.4c.2.5,0,1.1-.6,1.3-.1,0-.2,0-.4,0h0Z"/>
          <path class="st0" d="M210,92.1c-.5,0-1-.4-1-.9-.3-4.9,1.2-9.1,2.7-11.3,1.4-2.2,4-3.6,7.1-3.9,3.1-.3,6.1.7,8,2.7.4.4.4,1,0,1.4-.4.4-1,.4-1.4,0-1.4-1.5-3.9-2.3-6.4-2.1-2.4.2-4.5,1.3-5.6,3-1,1.6-2.7,5.4-2.4,10.1,0,.6-.4,1-.9,1.1h0Z"/>
          <path class="st0" d="M226,80.3c-.3,0-.5,0-.7-.3-1.2-1.3-3.2-2-5.3-2.1-.6,0-1-.5-1-1s.5-1,1-1c2.7,0,5.1,1.1,6.7,2.7.4.4.4,1,0,1.4-.2.2-.4.3-.7.3Z"/>
          <path class="st0" d="M221.7,90.9c-4.9,0-6.5-4.9-7-6.7v-.3c-.3-.5,0-1.1.5-1.3.5-.2,1.1.1,1.3.6v.3c1.2,3.3,2.7,6.3,7.1,5.1.5-.1,1.1.2,1.2.7.1.5-.2,1.1-.7,1.2-.9.2-1.7.3-2.4.3h0Z"/>
          <path class="st0" d="M201.7,77.5c-4.9,0-6.5-4.9-7-6.7v-.3c-.3-.5,0-1.1.5-1.3.5-.2,1.1.1,1.3.6v.3c1.2,3.3,2.7,6.3,7.1,5.1.5-.1,1.1.2,1.2.7.1.5-.2,1.1-.7,1.2-.9.2-1.7.3-2.4.3h0Z"/>
          <path class="st0" d="M185.8,34.3c-4.4,2.5-8.6,5.3-12.8,8.2-.4.2-.6.8-.3,1.2,2.6,3.7,5.8,6.9,9.4,9.5,6.7,4.7,14.8,7.2,22.9,6.8,8.8-.5,17.3-4.3,23.6-10.6.7-.7-.3-1.8-1-1.3.1-4-2.6-7.7-5.5-10.2-3.3-2.8-7.1-4.6-11.1-6.1-4.2-1.7-8.4-3-12.9-2.3-4.4.6-8.5,2.6-12.4,4.8h0Z"/>
        </g>
        <path class="st1" d="M148.4,144c-4.8,0-9.5-1.3-14.2-4,0,0-.2,0-.2-.1-3.7,1.4-7.9,1.8-10.9.5-2-.9-4.3-2.8-4.1-7.1,0-.6.4-1,1-1,.6,0,1,.5,1,1,0,2.6.9,4.3,2.9,5.2,2.1.9,5.3.8,8.4-.1-1.4-1.6-1.9-3.6-1.4-5.8.8-3.9,4.4-7.6,7.7-7.9,2-.2,3.6.8,4.4,2.9,1.2,2.8.4,5.7-2.3,8.3-1.2,1.2-2.7,2.2-4.4,3.1,8.9,4.6,18,4,28.5-1.8.9-.5,1.7-1,2.4-1.5,0-.3-.1-.6-.1-.8-.4-4.2,2.6-9.8,5.8-10.5,1.7-.3,3,.3,3.5,1.6.9,2.3-1,6.4-6.8,10.5,1.1,2.2,3.8,2.7,6.1,2.7,8.3,0,12.6-2.3,14.4-3.8-.4-.4-.7-.7-.9-1.1-1.6-2.3-1.4-4.5-.7-5.8.5-1,1.4-1.7,2.4-1.7,1.7,0,2.6.7,3,1.3,1.4,2.2-.3,6-.8,7,3.4,2.3,10.9,4.7,27.4,2.8.5,0,1,.3,1.1.9s-.3,1-.9,1.1c-17.1,1.9-25.1-.6-29-3.3-2,1.7-6.7,4.5-16,4.4-4.6,0-6.8-1.8-7.8-3.6-.7.4-1.4.9-2.2,1.3-6.2,3.4-11.9,5.2-17.4,5.2h0ZM139,126.6c0,0-.2,0-.2,0-2.4.2-5.3,3.3-5.9,6.4-.3,1.4-.2,3.2,1.5,4.7,1.9-.8,3.7-1.9,5-3.2,1.4-1.4,2.9-3.6,1.8-6.1-.5-1.2-1.2-1.7-2.1-1.7h0ZM173.8,126.2c-.1,0-.3,0-.5,0-1.7.4-4.4,4.5-4.2,8.1,4.8-3.6,5.8-6.7,5.4-7.7-.1-.3-.4-.4-.8-.4h0ZM191,128.8h0c-.2,0-.4.2-.6.6-.4.8-.5,2.2.6,3.8.1.2.3.4.6.7.7-1.6,1.2-3.8.7-4.6,0-.1-.3-.4-1.1-.4h0Z"/>
        <path class="st1" d="M174.5,165.1c-4.8,0-10.1-1.7-14.3-4-4.9,2.7-11.6,4.7-19.1,3.6-4.1-.6-7.3-1.9-9.6-3.4-.9.6-1.8,1.1-2.8,1.5-6.3,2.8-9.1,1.3-9.4,1.1l1-1.7s2.2,1.1,7.6-1.2c.7-.3,1.3-.6,1.9-1-1.4-1.3-2.3-2.6-2.8-3.8-.6-1.7-.4-3.3.6-4.4,1.3-1.5,3.9-2,7.1-1.2,1.5.3,2.4,1.3,2.6,2.6.2,2-1.5,4.7-4.1,6.9,2.1,1.2,4.8,2.2,8.2,2.8,6.6,1,12.4-.6,16.9-2.8-2.2-1.5-4-3.2-4.9-4.9-1.1-1.9-.9-3.8.3-5.2,2.1-2.3,5.4-3.3,8.8-2.5,2.9.6,5.1,2.4,5.8,4.4.4,1.5-.7,3.2-1.8,4.5-1,1.2-2.5,2.4-4.3,3.7,4.4,2.3,10.1,3.8,14.9,3,4.8-.8,8.1-2.2,9.3-4.1-5.3-.8-8.3-2.3-8.5-4.6-.2-1.8,1.6-3.5,4.3-3.8,2.8-.4,5.8,2.2,6.5,4.8.2.7.3,1.3.2,2,2.8.2,6.3.4,10.8.2v2c-4.3.2-8.1,0-11.2-.2-.1.3-.3.5-.4.8-1.6,2.4-5.1,4.1-10.7,5-.9.2-1.9.2-2.9.2h0ZM160.1,149c-2,0-3.8.7-5,2.1-.2.3-1,1.1,0,2.9.8,1.5,2.7,3.2,5.1,4.7,2-1.2,3.6-2.6,4.7-3.8,1.3-1.5,1.4-2.4,1.4-2.6-.4-1.3-2.1-2.6-4.3-3.1-.6-.1-1.3-.2-1.9-.2h0ZM131.9,152c-1.3,0-2.2.3-2.7.9-.7.8-.4,1.8-.2,2.4.4,1.1,1.3,2.2,2.6,3.3,2.4-2,3.9-4.3,3.8-5.5,0-.2,0-.7-1-.8-.9-.2-1.7-.3-2.4-.3h0ZM182.9,152.3c-.1,0-.2,0-.3,0-1.6.2-2.7,1.1-2.6,1.7,0,.7,1.7,2.1,7.1,2.9,0-.4,0-.8-.2-1.2-.4-1.6-2.4-3.3-4-3.3h0Z"/>
      </g>
    </g>
  </g>
</svg>