<?xml version="1.0" encoding="UTF-8"?>
<svg id="Layer_1" xmlns="http://www.w3.org/2000/svg" version="1.1" viewBox="0 0 266.1 234.6">
  <!-- Generator: Adobe Illustrator 29.2.0, SVG Export Plug-In . SVG Version: 2.1.0 Build 108)  -->
  <defs>
    <style>
      .st0 {
        fill: #303030;
      }

      .st1 {
        fill: #26a8df;
      }

      .st2 {
        fill: #fafafa;
      }
    </style>
  </defs>
  <g id="Layer_2">
    <g id="_Layer_">
      <g>
        <g>
          <path class="st2" d="M132.2,224.6l-7-57.9-58.9,28.9-22,8.7c-25.1,9.9-50.4-14.1-41.6-39.7l4.7-13.9,113.7-50.9,57.9-14,48,19.8c12.4,5.1,21.6,16,24.6,29.1l12.5,54.8c2.3,10.2.1,20.9-6.1,29.3h0c-10.5,14.2-29.7,18.7-45.4,10.7l-9.7-5h-70.8Z"/>
          <path class="st0" d="M229.2,234.6c-5.7,0-11.5-1.3-16.9-4.1l-9.7-5c-.5-.2-.7-.9-.4-1.4.2-.5.8-.7,1.3-.4l9.7,5c15.3,7.9,33.9,3.5,44.1-10.4,6-8.2,8.2-18.6,5.9-28.5l-12.5-54.8c-2.9-12.8-11.9-23.4-24-28.4l-47.7-19.6-57.5,13.9L8.3,151.6l-4.6,13.5c-3.9,11.5-.9,23.8,7.8,32.1s21.2,10.8,32.5,6.3l22-8.7,58.8-28.9c.3-.1.6-.1.9,0,.3.1.5.4.5.8l7,57.9c0,.6-.3,1.1-.9,1.1-.5,0-1.1-.3-1.1-.9l-6.8-56.5-57.6,28.3-22.1,8.7c-12,4.7-25.2,2.2-34.6-6.8-9.3-8.9-12.5-22-8.4-34.2l4.7-13.9c0-.3.3-.5.5-.6l113.7-50.9c0,0,.1,0,.2,0l57.9-14c.2,0,.4,0,.6,0l48,19.8c12.7,5.2,22.2,16.4,25.2,29.8l12.5,54.8c2.4,10.5.1,21.5-6.3,30.1-7.2,9.8-18.3,15.1-29.7,15.1h0Z"/>
        </g>
        <g>
          <path class="st2" d="M171.8,121.2h0c-9.5,0-17.3-7.7-17.3-17.3v-62.8c0-9.5,7.7-17.3,17.3-17.3h0c9.5,0,17.3,7.7,17.3,17.3v62.8c0,9.5-7.7,17.3-17.3,17.3Z"/>
          <path class="st0" d="M171.9,122.2h0c-10,0-18.2-8.2-18.2-18.3v-62.8c0-10,8.1-18.2,18.2-18.3h.1c10,0,18.2,8.2,18.2,18.3v62.8c0,10-8.1,18.2-18.2,18.3h0ZM171.9,24.8c-9,0-16.2,7.3-16.2,16.3v62.8c0,9,7.3,16.3,16.2,16.3,9,0,16.2-7.3,16.2-16.3v-62.8c0-9-7.3-16.3-16.2-16.3Z"/>
        </g>
        <g>
          <g>
            <path class="st2" d="M149.6,119.9c-5.2-16.7-18.1-30.1-34.6-36-5.2-1.9-10.7-2.9-16.2-3.2l.7-22.5c8.3.3,15.2,1.7,23.1,4.5,1.2.4,2.5.9,3.9,1.5,20.9,8.6,36,24.4,43.5,45.7.4,1.2.8,2.4,1.2,3.6l-21.6,6.3h0Z"/>
            <path class="st0" d="M100.4,59.3c7.7.4,14.4,1.7,21.8,4.4h0c1.2.4,2.4.9,3.8,1.5,20.7,8.5,35.5,24.1,42.9,45.1.3.8.6,1.7.9,2.6l-19.7,5.8c-5.5-16.6-18.4-29.8-34.9-35.7-5-1.8-10.2-2.9-15.5-3.2l.6-20.5h0ZM97.8,57.2h.4-.4ZM98.4,57.2h-.3.3l-.7,24.5c5.6.2,11.3,1.2,16.9,3.2h0c17.2,6.2,29.5,20,34.2,36.3l23.5-6.9c-.5-1.6-1-3.1-1.5-4.6-7.6-21.6-22.9-37.6-44.1-46.3-1.3-.5-2.6-1-4-1.5h0c-8.3-2.9-15.7-4.3-24.4-4.6h0,0Z"/>
          </g>
          <path class="st1" d="M148.9,121.2c3.2,10.8,3.1,22.6-1,34l23.1,8.2h0c-.5,1.4-1,2.7-1.6,4,0,0,0,.1,0,.2.6-1.4,1.1-2.8,1.6-4.2,5.8-16.1,6-32.8,1.7-48.2-.5-1.9-.8-2.5-.3-.9l-23.5,6.9h0Z"/>
          <path class="st0" d="M111.6,189.4c-10.8,3.2-22.6,3.1-34-1-28.6-10.2-43.5-41.7-33.3-70.3,8.2-23,30.2-37.1,53.3-36.5l.7-24.5h-.7c-1,0-2.1,0-3.1,0-.3,0-.6,0-.9,0-32,.8-59.4,19.8-71.3,49.7-.3.7-.5,1.4-.8,2.1-.1.3-.2.6-.3.9,0,0,0,.1,0,.2-.4,1-.7,2-1,3,0,.3-.2.6-.3.9-.2.8-.4,1.6-.7,2.4-.2.6-.3,1.1-.4,1.7-.1.4-.2.9-.3,1.3-.2.9-.4,1.9-.6,2.8,0,0,0,0,0,.2-1.2,6.7-1.6,13.5-1.1,20.1,0,.8.1,1.6.2,2.4h0c2.9,26.8,19.3,51.2,44.6,63.3.2,0,.3.1.4.2.8.4,1.7.8,2.6,1.2.4.2.9.4,1.3.6.6.2,1.2.5,1.8.7.5.2,1,.4,1.6.6,16.4,5.9,33.5,6,49.1,1.4l-6.9-23.5h0Z"/>
          <path class="st1" d="M123,211.5c20.4-7.2,35.9-21.2,44.9-40.5,0-.1.1-.3.2-.4.5-1,.9-2,1.3-3,0,0,0-.1,0-.2.5-1.3,1.1-2.6,1.6-4h0l-23.1-8.2h0c-6.2,17.2-20,29.5-36.3,34.3l6.9,23.5h0c1.5-.4,2.9-.9,4.4-1.4h0Z"/>
        </g>
        <g>
          <path class="st2" d="M166,169.5l-6.7,15.2s16.1,5.3,26.5-7.7c10.4-13,22.3-35.9,12.4-46.1-9.9-10.2-21.7-30.7-25.4-21-2.8,7.3,12.3,29,12.3,29l-30.4-14.4s-4.1,4.6-4.8,10c-.7,5.4-8.6,18,16.1,34.9h0Z"/>
          <path class="st0" d="M164.3,186.4c-1.9,0-3.7-.1-5.4-.2-.6,0-1-.5-.9-1.1,0-.6.5-1,1.1-.9,8.6.8,20.1,0,25.9-7.8,7.1-9.5,22.5-32.9,12.4-44.8l-19.9-22.8c-.4-.4-.9-.7-1.4-.7h0c-.6,0-1.1.2-1.4.7-2.2,2.7-2.6,6.4-.8,9.4l12.6,21.4c.3.5.1,1.1-.4,1.4s-1.1.1-1.4-.4l-12.6-21.4c-2.2-3.7-1.8-8.4,1-11.7.7-.9,1.8-1.4,3-1.4h0c1.1,0,2.2.5,2.9,1.3l19.9,22.8c4.5,5.4,9,18.7-12.3,47.3-5.2,7-14.2,8.8-22.3,8.8h0Z"/>
          <path class="st0" d="M193.2,145.2c-.2,0-.3,0-.5-.1l-38-19.7c-1.3,1.1-4.5,4.3-2.2,7.7.3.5.2,1.1-.3,1.4s-1.1.2-1.4-.3c-3-4.5.8-9.1,3.2-10.8.3-.2.7-.2,1.1,0l38.6,20c.5.2.7.9.4,1.4-.2.3-.5.5-.9.5h0Z"/>
          <path class="st0" d="M180.1,166.4c-.2,0-.4,0-.6-.2-1.1-.7-26.9-18.1-30.6-21.5-4.2-3.9-.5-11.7-.4-12,.1-.2.3-.4.6-.5.3,0,.6,0,.8,0l38.4,22.3c.5.3.6.9.4,1.4s-.9.6-1.4.4l-37.4-21.7c-.8,2-2,6.5.3,8.7,3.6,3.3,30.1,21.2,30.3,21.3.5.3.6.9.3,1.4-.2.3-.5.4-.8.4h0Z"/>
          <path class="st0" d="M172.1,173.9c-.2,0-.3,0-.5-.1-1.1-.7-27.8-16.6-22.6-29.7.2-.5.8-.8,1.3-.6.5.2.8.8.6,1.3-2.3,5.9,3.6,12.9,9,17.8,6,5.4,12.7,9.4,12.8,9.5.5.3.6.9.3,1.4-.2.3-.5.5-.9.5h0Z"/>
        </g>
        <g>
          <path class="st2" d="M22.3,164.9l9.2,18.6s-21.4-4.1-25.4-20.3c-4.1-16.2-5.3-41.9,7.9-47.1s36-.9,36-.9c0,0,4.1,9.6-3.7,10.3-43.7,4.2-9,4.2-9,4.2l18.9-1.5s1.7,6.3.1,11.4c-1.6,5.2-2.5,21.4-34.1,25.4h0Z"/>
          <path class="st0" d="M27,182.7c-.1,0-.2,0-.3,0-8.6-3.1-19.4-8.9-21.6-19.3-7.4-34.9,2.1-45.2,8.5-48.2,13.5-6.3,35.7-1.2,36.6-1,.3,0,.6.3.7.6,0,.2,2.2,5.1.4,8.7-.8,1.6-2.2,2.7-4.3,3.2-2.8.7-6.7.8-10.4.9-5.3.2-11.3.3-13,2.4-.3.4-1,.5-1.4.1s-.5-1-.1-1.4c2.3-2.8,8.2-2.9,14.5-3.1,3.6,0,7.4-.2,10-.9,1.5-.4,2.4-1.1,3-2.2,1.1-2.2.2-5.3-.3-6.5-3.4-.7-23.1-4.5-34.8,1-14.1,6.6-9.8,34.3-7.4,45.9,2,9.5,12.2,15,20.3,17.9.5.2.8.8.6,1.3-.2.4-.5.7-.9.7h0Z"/>
          <path class="st0" d="M55.1,139c-.3,0-.7-.2-.8-.5-.3-.5-.1-1.1.3-1.4,3.5-2.1,1.9-6.4,1.2-8l-42.8,2.1c-.6,0-1-.4-1.1-.9s.4-1,.9-1.1l43.4-2.1c.4,0,.7.2.9.5,1.5,2.6,3,8.3-1.6,11.2-.2.1-.3.1-.5.1h0Z"/>
          <path class="st0" d="M16.1,155.9c-.5,0-.9-.4-1-.8,0-.5.3-1.1.8-1.1.3,0,31.8-5.2,36.5-6.8,3.1-1,3.8-5.6,3.9-7.7l-43.1,4.2c-.5,0-1-.4-1.1-.9,0-.6.3-1,.9-1.1l44.2-4.3c.3,0,.6,0,.8.2s.3.4.3.7,0,9-5.3,10.7c-4.8,1.6-35.5,6.6-36.8,6.8,0,0-.1,0-.2,0h0Z"/>
          <path class="st0" d="M20.2,166.1c-.5,0-.9-.4-1-.9,0-.6.3-1,.9-1.1,0,0,7.8-.8,15.6-3.3,6.9-2.2,15.2-6.1,15.6-12.4,0-.6.5-1,1.1-.9.6,0,1,.5.9,1.1-.7,14.1-31.6,17.4-32.9,17.6h-.1Z"/>
        </g>
        <g>
          <path class="st0" d="M143.9,49.5s-8.9-32.7-2.4-42.3c6.6-9.9,14.8-8.5,26.6-2.4,11.8,6.1,10.5-3.7,26.6,1.8,8.9,3,14.8,9.7,14.2,16.3s-.6,24.2-6.5,30.8-49,12.7-58.5-4.2h0Z"/>
          <g>
            <path class="st2" d="M153.3,53.1c1.6,6,.4,11.6-2.8,12.4-3.2.9-7-3.3-8.7-9.3-1.6-6-.4-11.6,2.8-12.4,3.2-.9,7,3.3,8.7,9.3Z"/>
            <path class="st0" d="M149.7,66.6c-1.6,0-3.2-.9-4.8-2.5-1.7-1.9-3.2-4.6-4-7.7-1.8-6.7-.3-12.6,3.5-13.7,3.8-1,8.1,3.4,9.9,10h0c1.8,6.7.3,12.7-3.5,13.7-.4,0-.7.2-1.1.2ZM145.4,44.6c-.2,0-.4,0-.6,0-2.3.6-3.7,5.3-2.1,11.2.8,2.8,2,5.2,3.5,6.8,1.3,1.5,2.8,2.1,3.9,1.8,2.3-.6,3.7-5.3,2.1-11.2h0c-1.5-5.5-4.6-8.7-6.9-8.7h0Z"/>
          </g>
          <g>
            <path class="st2" d="M193.1,53.1c-1.6,6-.4,11.6,2.8,12.4,3.2.9,7-3.3,8.7-9.3,1.6-6,.4-11.6-2.8-12.4s-7,3.3-8.7,9.3Z"/>
            <path class="st0" d="M196.7,66.6c-.4,0-.8,0-1.1-.2-3.7-1-5.3-7-3.5-13.7,1.8-6.7,6.2-11,9.9-10,1.9.5,3.3,2.3,3.9,5,.6,2.5.4,5.6-.4,8.6-.8,3.1-2.2,5.8-4,7.7-1.5,1.7-3.2,2.5-4.8,2.5ZM200.9,44.6c-2.3,0-5.4,3.2-6.9,8.7h0c-1.6,5.9-.2,10.6,2.1,11.2,1.1.3,2.6-.3,3.9-1.8,1.5-1.7,2.8-4.1,3.5-6.8.8-2.8.9-5.5.4-7.7-.4-1.9-1.3-3.2-2.5-3.5-.2,0-.4,0-.6,0h0ZM193.1,53.1h0Z"/>
          </g>
          <g>
            <rect class="st2" x="148.6" y="14.2" width="49.3" height="78.6" rx="14.9" ry="14.9"/>
            <path class="st0" d="M183,93.8h-19.5c-8.8,0-15.9-7.2-15.9-15.9V29.1c0-8.8,7.2-15.9,15.9-15.9h19.5c8.8,0,15.9,7.1,15.9,15.9v48.7c0,8.8-7.2,15.9-15.9,15.9h0ZM163.5,15.2c-7.7,0-13.9,6.2-13.9,13.9v48.7c0,7.7,6.2,13.9,13.9,13.9h19.5c7.7,0,13.9-6.2,13.9-13.9V29.1c0-7.7-6.2-13.9-13.9-13.9h-19.5Z"/>
          </g>
          <path class="st0" d="M157.3,54c.7,1.7,2.1,2.6,3.3,2.2s1.6-2.2,1-3.8-2.1-2.6-3.3-2.2-1.6,2.2-1,3.8Z"/>
          <path class="st0" d="M165.4,48.7c-.2,0-.4,0-.6-.2-1.1-.9-2.7-1.4-4.4-1.5-2.1-.2-4.1.4-5.3,1.4-.4.3-1.1.3-1.4-.1-.3-.4-.3-1.1.1-1.4,1.6-1.3,4.1-2,6.7-1.8,2.1.2,4,.8,5.5,2,.4.3.5,1,.2,1.4-.2.2-.5.4-.8.4h0Z"/>
          <path class="st0" d="M182.1,54c.7,1.7,2.1,2.6,3.3,2.2,1.2-.5,1.6-2.2,1-3.8s-2.1-2.6-3.3-2.2-1.6,2.2-1,3.8Z"/>
          <path class="st0" d="M190.2,48.7c-.2,0-.4,0-.6-.2-1.1-.9-2.7-1.4-4.4-1.5-2.1-.1-4.1.4-5.3,1.4-.4.3-1.1.3-1.4-.1-.3-.4-.3-1.1.1-1.4,1.6-1.3,4.1-2,6.7-1.8,2.1.2,4,.8,5.5,2,.4.3.5,1,.2,1.4-.2.2-.5.4-.8.4h0Z"/>
          <path class="st0" d="M171.9,65.3c-.7,0-1.3-.3-1.8-.8-.8-1-.8-2.3-.7-3.1.3-4.6.7-9.2,1.2-13.8,0-.5.6-.9,1.1-.9.6,0,.9.6.9,1.1-.5,4.5-.9,9.2-1.2,13.7,0,.7,0,1.3.2,1.7,0,0,.2,0,.2,0,.2-.5.6-.8,1.1-.7.6,0,.9.6.8,1.1,0,.7-.6,1.2-1.3,1.5-.2,0-.4,0-.6,0h0Z"/>
          <path class="st0" d="M150.3,39.8s1.9-16,6.9-13.8c4.9,2.2,5.1,6.8,12.8,7.3s12.6-2.2,15.4.5,7.7,8.8,14.3,4.4c6.6-4.4,7.2-14.9-3.2-20.4-10.4-5.5-26.1-6.3-34.9-6.9s-17.8,15.6-11.3,28.8h0Z"/>
          <path class="st0" d="M199.1,65.5s-1.3,4.8-6.3,5.8-8.4-2.8-15.2-3.3c-.2,0-.5,0-.7,0-1.1-.2-2.3-.2-3.6-.2-1.3,0-2.5,0-3.6.2-.2,0-.5,0-.7,0-6.8.6-10.1,4.4-15.2,3.3-5.1-1.1-6.3-5.8-6.3-5.8-10.8,35.9,28,34.4,28,34.4,0,0,34.7,1.5,23.8-34.4h0Z"/>
          <path class="st2" d="M171.3,78c-.5,0-1,0-1.4,0-.6,0-1-.5-.9-1.1,0-.6.5-.9,1.1-.9,2.9.2,5.5-.2,8.3-1.4.5-.2,1.1,0,1.3.5.2.5,0,1.1-.5,1.3-2.6,1.1-5.1,1.6-7.7,1.6h0Z"/>
        </g>
        <path class="st0" d="M239.9,180.7c-.2,0-.3,0-.5-.1l-41.8-23.1c-.5-.3-.7-.9-.4-1.4s.9-.7,1.4-.4l41.8,23.1c.5.3.7.9.4,1.4-.2.3-.5.5-.9.5h0Z"/>
        <path class="st0" d="M203,225.6c-.2,0-.5,0-.7-.3l-43.9-39.4c-.4-.4-.4-1,0-1.4s1-.4,1.4,0l43.9,39.3c.4.4.4,1,0,1.4-.2.2-.5.3-.8.3h0Z"/>
        <path class="st0" d="M125.2,167.8c-.5,0-.9-.4-1-.9l-3-19.9c0-.6.3-1.1.8-1.1.5,0,1.1.3,1.1.8l3,19.9c0,.6-.3,1.1-.8,1.1,0,0,0,0-.2,0h0Z"/>
      </g>
    </g>
  </g>
</svg>