<?xml version="1.0" encoding="UTF-8"?>
<svg id="Layer_1" xmlns="http://www.w3.org/2000/svg" version="1.1" viewBox="0 0 320.2 233.3">
  <!-- Generator: Adobe Illustrator 29.2.0, SVG Export Plug-In . SVG Version: 2.1.0 Build 108)  -->
  <defs>
    <style>
      .st0 {
        fill: #303030;
      }

      .st1 {
        fill: #26a8df;
      }

      .st2 {
        fill: #fafafa;
      }
    </style>
  </defs>
  <g id="Layer_2">
    <g id="_Layer_">
      <g>
        <g>
          <path class="st1" d="M132,79.6h0c-4.9,6.9-4.4,16.2,1.2,22.6l2.1,2.4c5.2,5.9,8.6,13.1,9.9,20.7v.6c.1,0,15.2-2.6,15.2-2.6v-.6c-1.4-7.7-.6-15.6,2.3-22.8l1.2-2.9c3.1-7.8.5-16.8-6.4-21.7h0c-8.2-5.8-19.6-3.9-25.4,4.3h0Z"/>
          <path class="st0" d="M153.3,129.1h0c-5,.8-9.7-2.5-10.6-7.5l-.8-4.8,18-3.1.8,4.8c.8,5-2.5,9.7-7.5,10.6h0Z"/>
          <path class="st0" d="M154.1,116.6c-.1,0-.2.1-.4.2-.5,0-1.1-.3-1.1-.8,0-.1-1.4-8.9-2.3-13.9-.8.3-1.5.6-2.3.7l2.3,13.4c0,.5-.3,1.1-.8,1.2-.5,0-1.1-.3-1.2-.8l-2.3-13.4c-.5,0-1,0-1.4,0-3.6-.3-5.8-2.7-5.7-4.7,0-1.1.9-2.5,3.2-2.5,3.2,0,5.1,4.1,5.5,5,.8-.2,1.5-.4,2.3-.8,0-.3-.1-.6-.2-.8-.8-3.2-.9-5,.3-7.1,1.9-3.1,4.2-2.6,4.8-2.4,1.6.6,2.7,2.3,2.5,4.2-.3,3.1-2.5,5.6-5.2,7.3.9,4.9,2.3,14.1,2.4,14.6,0,.4-.1.8-.4,1h0ZM153,91.8c-.4.3-.8.7-1.2,1.3-.8,1.3-.8,2.5,0,5.5,0,0,0,.2,0,.3,2-1.3,3.4-3.2,3.6-5.4,0-.9-.4-1.8-1.2-2.1-.4-.1-.8,0-1.2.2h0ZM141.2,98c-.1,0-.2.2-.2.3,0,.8,1.3,2.4,3.9,2.6.2,0,.5,0,.7,0-.6-1.2-1.9-3.2-3.4-3.2s-.7,0-1,.2h0Z"/>
          <path class="st0" d="M178,87c-.1,0-.2.1-.4.2l-6.9,1.2c-.5,0-1.1-.3-1.2-.8,0-.5.3-1.1.8-1.2l6.9-1.2c.5,0,1.1.3,1.2.8,0,.4-.1.8-.4,1Z"/>
          <path class="st0" d="M175.5,78.1c0,0-.1,0-.2.1l-6.4,2.3c-.5.2-1.1,0-1.3-.6s0-1.1.6-1.3l6.4-2.3c.5-.2,1.1,0,1.3.6.2.4,0,.9-.4,1.2h0Z"/>
          <path class="st0" d="M176,95.9c-.2.1-.4.2-.7.2l-3.8-.5c-.5,0-.9-.6-.8-1.1s.6-.9,1.1-.8l3.8.5c.5,0,.9.6.8,1.1,0,.3-.2.5-.4.7h0Z"/>
          <path class="st0" d="M127.3,100.6s0,0-.2,0l-6.4,2.9c-.5.2-1.1,0-1.3-.5-.2-.5,0-1.1.5-1.3l6.4-2.9c.5-.2,1.1,0,1.3.5.2.4,0,1-.3,1.2Z"/>
          <path class="st0" d="M124.6,93.1c0,0-.2.1-.3.1l-6.6,1.7c-.5.1-1.1-.2-1.2-.7-.1-.5.2-1.1.7-1.2l6.6-1.7c.5-.1,1.1.2,1.2.7.1.4,0,.8-.4,1.1Z"/>
          <path class="st0" d="M127.5,109.7c-.4.3-1,.2-1.3-.2-.4-.4-.3-1,0-1.4l2.9-2.6c.4-.4,1-.3,1.4,0,.4.4.3,1,0,1.4l-2.9,2.6s0,0-.1,0h0Z"/>
          <path class="st0" d="M124.5,85.9c-.2.2-.5.2-.8.1l-4.5-1.3c-.5-.2-.8-.7-.7-1.2.2-.5.7-.8,1.2-.7l4.5,1.3c.5.2.8.7.7,1.2,0,.2-.2.4-.4.6h0Z"/>
        </g>
        <g>
          <g>
            <path class="st0" d="M259.4,53.4s8.5-18.2,3.3-27.3c-5.1-9.2-17.9-5.2-22.8-7.8-4.9-2.7-8.1-11.1-12.1-12.1s-10.6,4.9-16.2,2.5c-5.6-2.5-13.7-9.5-23.1-8-9.4,1.5-18.2,5.7-22.4,12.4s-10.8,19.8-4.5,30c6.3,10.2,28.3,34.4,24.4,42.9-3.9,8.5,50.2,6.8,73.5-32.6h0Z"/>
            <path class="st0" d="M201.9,91.4c-2.8,0-5.1-.4-6.6-1-1.9-.9-2.7-2.3-2.1-4,2.2-5.8-9.7-19.8-18.5-30.1-3.5-4.1-6.5-7.6-8.4-10.3-5.3-7.5-4.4-18.3,2.6-31.3,3.7-6.7,11.8-11.9,22.3-14.3,7.3-1.6,14,1.7,19.4,4.4,1.7.9,3.3,1.7,4.8,2.2,2.9,1.1,6.2-.4,9.2-1.8,2.4-1.1,4.7-2.1,6.6-1.8,2.4.4,4.5,2.9,6.8,5.6,2,2.3,4,4.8,6.3,5.8,1.5.7,4.1.7,6.8.6,5.7,0,12.8-.2,16.9,6.1,5.9,9.2-1.2,27.6-1.5,28.4,0,0,0,0,0,0-15.1,29.7-48.5,41.4-64.4,41.4h0ZM195.1,2c-1.2,0-2.3.1-3.5.4-9.9,2.2-17.6,7.1-21,13.3-4.6,8.5-8.8,20.5-2.7,29.2,1.8,2.6,4.8,6.1,8.3,10.2,10.1,11.8,21.5,25.1,18.8,32.1-.1.3-.3.9,1,1.4,4.4,2,17.4.5,30.7-5.2,11.9-5.1,28-15.2,37.7-34.2.4-1,6.9-18.5,1.7-26.6-3.4-5.3-9.7-5.3-15.2-5.2-3.1,0-5.8,0-7.7-.8-2.6-1.2-4.8-3.8-7-6.3-2-2.4-3.9-4.6-5.6-4.9-1.4-.2-3.4.7-5.5,1.6-3.3,1.5-7.1,3.2-10.8,1.8-1.5-.6-3.2-1.4-5-2.3-4.2-2.1-9.2-4.6-14.6-4.6h0ZM265.5,49.6h0Z"/>
            <path class="st1" d="M238.3,135.1l6.2,2.7c7.8.4,15-3.9,18.5-10.9,1-2.1,2.2-3.5,3.8-3.5,17.1.2,28-19.7,17.1-34.6l-10.8-27c-4.7-8.3-14.1-12.9-23.5-11.5l-26,3.8-27.8,11.9c-8.1,5.2-14.3,13-17.6,22.1l-18.3,51c-3.9,10.8,4.2,22.3,15.7,22.3h0c6.2.3,12-2.8,15.3-8l13.4-26.6h0c4.9,15.8,28.8,17.3,34,8.4h0Z"/>
            <rect class="st2" x="197.1" y="30.4" width="25.4" height="37.7" transform="translate(9.4 128.4) rotate(-34.8)"/>
            <path class="st2" d="M174.2,16.7h.2c8.6,6.6,19.5,9.4,30.2,7.8h0l5.5,16.9-12.6,11.5c-1.9,1.7-4.2,3-6.7,3.7h0c-8.5,2.2-17.2-2.7-19.5-11.2l-3.2-11.5c-1.8-6.5.7-13.4,6.2-17.2h0Z"/>
            <path class="st2" d="M212.9,23.6c1.8,3.2.8,7.3-2.4,9.1-3.2,1.8-7.3.8-9.1-2.4-1.8-3.2-.8-7.3,2.4-9.1,3.2-1.8,7.3-.8,9.1,2.4Z"/>
            <path class="st0" d="M194.3,57.3c-.3,0-.7-.2-.9-.5-.3-.5-.1-1.1.4-1.4,13.2-7.6,12.1-16.2,12.1-16.6,0-.5.3-1.1.8-1.1.5,0,1.1.3,1.1.8,0,.4,1.4,10.2-13.1,18.6-.2,0-.3.1-.5.1h0Z"/>
            <path class="st0" d="M205.7,29.6c-.4,0-.8-.3-1-.8,0-.2-1.2-4.5,1.3-6.6.4-.3,1.1-.3,1.4.1.3.4.3,1.1-.1,1.4-1.2,1-.9,3.7-.7,4.6.1.5-.2,1.1-.7,1.2,0,0-.2,0-.2,0h0Z"/>
            <path class="st0" d="M191.1,47.5c-2.5,0-5.2-1.2-5.6-1.4-.3-.1-.5-.4-.6-.7,0-.3,0-.7.3-.9l7.2-7.2c.2-.2.5-.3.8-.3.3,0,.6.2.7.4.2.2,3.6,5.3.9,8.5-1,1.1-2.4,1.5-3.8,1.5h0ZM187.8,44.8c1.8.6,4.6,1.1,5.6-.2,1.2-1.4.3-3.7-.4-5l-5.2,5.2Z"/>
            <path class="st0" d="M173.2,37.8c-.4-.3-1-.1-1.2.3-.4.5-.5,1.2-.3,1.9,0,0,0,0,0,.2,0,.2,0,.4,0,.6,0,.3.2.5.4.7.2.2.5.4.9.4.4,0,.7-.1,1-.3.2-.2.4-.4.5-.7.2-.5.2-1.1,0-1.6-.3-.6-.8-1-1.3-1.3h0Z"/>
            <path class="st0" d="M183.7,30.4c-.3,0-.6,0-.8.1,0,0-.2.1-.2.2,0,.1-.1.3-.1.4,0,.5,0,1.1.3,1.6,0,.2.2.4.4.5,0,0,.1.2.2.3.3.3.7.6,1.1.7.2,0,.3,0,.5,0,.1,0,.2,0,.3-.2.2-.2.4-.4.4-.7.2-1.3-.7-2.6-2-3h0Z"/>
            <path class="st0" d="M180.4,42.8c0,0-.1,0-.2,0-.5,0-.9-.6-.8-1.2h0s.2-2.3-3.6-6c-1.4-1.3-2.7-1.9-4-1.6-2.4.6-4.3,4.2-4.8,5.5-.2.5-.8.8-1.3.6-.5-.2-.8-.8-.6-1.3,0-.2,2.2-5.8,6.2-6.8,1.9-.4,3.9.3,5.8,2.1,4.7,4.5,4.3,7.5,4.2,7.8,0,.5-.5.8-1,.8h0Z"/>
            <path class="st0" d="M178,29.7c0,0-.2,0-.3,0-.5-.2-.8-.7-.7-1.2,0-.2,1.8-5.7,8.8-6.1.5,0,1,.4,1,.9,0,.6-.4,1-1,1.1-5.5.3-6.9,4.5-7,4.7-.1.4-.5.7-1,.7h0Z"/>
            <g>
              <g>
                <path class="st2" d="M237.3,89.6l-44.2-1.8-17.4-25.9-21.3-3.8-13.3-2.5c-1.6,2.3-2.5,5,.8,7.4l5.8,1.4-12.7,1.6c-1.3.6-.7,4.6,3.4,5.7l9,.3-9.6,4.9c-.5.3-.7,1-.3,1.5h0c1.8,2.3,4.8,3.3,7.6,2.4l10-3.3-8.4,8,.4.4c1.8,1.8,4.7,2.2,7,1.1l9-4.6,8.4,12.9c2.8,4.3,7.1,7.3,12,8.5l8,1.9,41.6,7.6,4.2-23.7h0Z"/>
                <path class="st0" d="M233.1,114.3c0,0-.1,0-.2,0l-41.6-7.6-8-1.9c-5.2-1.2-9.7-4.4-12.6-8.9l-8-12.2-8.2,4.2c-2.7,1.4-6,.9-8.1-1.2l-.4-.4c-.2-.2-.3-.4-.3-.7s.1-.5.3-.7l5.2-4.9-5.8,1.9c-3.2,1-6.7,0-8.7-2.7-.3-.5-.5-1.1-.4-1.6s.5-1.1,1-1.3l6.2-3.2-5.1-.2c0,0-.1,0-.2,0-3-.8-4.6-3-4.8-4.9s.3-2.2,1.2-2.6c0,0,.2,0,.3,0l7.3-.9h-.5c-.1-.1-.2-.2-.4-.3-3.2-2.4-3.6-5.3-1.1-8.8.2-.3.6-.5,1-.4l13.3,2.5,21.3,3.8c.3,0,.5.2.7.4l17.1,25.5,43.6,1.8c.6,0,1,.5,1,1s-.5,1-1,1l-44.2-1.8c-.3,0-.6-.2-.8-.4l-17.1-25.5-20.9-3.7-12.7-2.4c-1.4,2.3-1.2,3.9.8,5.4l5.6,1.4c.5.1.8.6.8,1s-.4.9-.9.9l-12.4,1.5c0,.1,0,.5.1,1.1.2.5.8,2,3,2.6l8.8.3c.5,0,.8.3.9.8,0,.4-.1.9-.5,1.1l-9.6,4.9c1.5,1.9,4.1,2.8,6.5,2l10-3.3c.4-.2.9,0,1.2.4.2.4.2.9-.2,1.2l-7.7,7.3c1.5,1.3,3.7,1.5,5.5.6l9-4.6c.5-.2,1,0,1.3.3l8.4,12.9c2.7,4.1,6.7,6.9,11.4,8l8,1.9,41.5,7.6c.5,0,.9.6.8,1.2,0,.5-.5.8-1,.8h0Z"/>
              </g>
              <path class="st0" d="M167.2,66.1h0l-12-1.1-8,.4c-.5,0-1-.4-1-.9,0-.6.4-1,1-1.1l8-.4h.1l12.1,1.1c.5,0,1,.5.9,1.1,0,.5-.5.9-1,.9h0Z"/>
              <path class="st0" d="M147,73.2c-.4,0-.7-.2-.9-.6-.2-.5,0-1.1.5-1.3l6.1-2.8c.2,0,.4-.1.6,0l11.5,1.7c.5,0,.9.6.8,1.1,0,.6-.6.9-1.1.8l-11.2-1.7-5.8,2.7c-.1,0-.3,0-.4,0h0Z"/>
              <path class="st0" d="M154.8,78.6c-.3,0-.6-.1-.8-.4-.3-.4-.3-1.1.1-1.4l3-2.5c.1-.1.3-.2.5-.2l5-.9c.5,0,1.1.3,1.2.8s-.2,1.1-.8,1.2l-4.7.9-2.8,2.3c-.2.2-.4.2-.6.2h0Z"/>
            </g>
            <g>
              <path class="st2" d="M164.4,128.3l3,7.8s8-1.3,8.3-.6c.8,1.7-5,10-9.4,11.1-8.6,2.2-22.2,2.9-24.9-4.1s-4.9-18.4-4.9-18.4c0,0,5.4-1.8,6.7,2.2,1.7,5.5,4.9,10.9,4.9,10.9v-17.2c0,0,2.9-.8,5.7,0s7.2.9,10.6,8.2h0Z"/>
              <path class="st0" d="M154.4,149.1c-6,0-11.7-1.4-13.9-6.1-3.4-7.1-4.9-18.7-5-19.2,0-.5.3-1,.8-1.1.2,0,5.7-1.2,7.5,2.6.6,1.2,1.2,2.9,1.8,4.6,1,2.8,2.2,6.3,3.4,7.2.4.3.5,1,.1,1.4s-1,.5-1.4.1c-1.6-1.3-2.8-4.6-4-8.1-.6-1.7-1.2-3.2-1.7-4.4-.8-1.7-3.1-1.8-4.4-1.7.5,3,2,12,4.6,17.6,3.4,7.1,17.8,4.9,23.8,3.6.5-.1,1.1.2,1.2.8s-.2,1.1-.8,1.2c-3.4.7-7.8,1.5-12.1,1.5h0Z"/>
              <path class="st0" d="M148.9,144.1c-.5,0-1-.4-1-.9l-1.2-23c0-.4.2-.7.5-.9,1.5-.9,4.8-1.8,6.5,1,.3.5.2,1.1-.3,1.4-.5.3-1.1.2-1.4-.3-.8-1.3-2.5-.9-3.3-.6l1.2,22.3c0,.6-.4,1-1,1.1h0Z"/>
              <path class="st0" d="M155.5,143.9c-.5,0-.9-.4-1-.9l-2.4-23.4c0-.3,0-.6.2-.8.2-.2.5-.3.7-.3.2,0,5.1,0,6.2,3.1.8,2.6,3.6,18.8,3.7,19.5,0,.5-.3,1.1-.8,1.2-.5,0-1.1-.3-1.2-.8-1-5.8-3-17.3-3.6-19.2-.4-1.1-1.9-1.5-3.1-1.7l2.2,22.2c0,.6-.3,1-.9,1.1h-.1Z"/>
              <path class="st0" d="M167.3,140.1c-.5,0-.9-.4-1-.9-.5-4.4-2.8-15.8-7.9-16-.5,0-1-.5-1-1.1,0-.6.5-1,1-.9,3.4.2,6.1,3.3,8,9.3,1.3,4.2,1.8,8.3,1.8,8.5,0,.6-.3,1-.9,1.1h-.1Z"/>
              <path class="st0" d="M154.4,149.1c-6,0-11.7-1.4-13.9-6.1-.2-.5,0-1.1.5-1.3.5-.2,1.1,0,1.3.5,3.4,7.1,17.8,4.9,23.8,3.6,4.8-1,7.5-6.2,9-10.3.2-.5.8-.8,1.3-.6.5.2.8.8.6,1.3-1.6,4.6-4.8,10.3-10.5,11.6-3.4.7-7.8,1.5-12.1,1.5h0Z"/>
            </g>
            <path class="st2" d="M237.8,90.6c-.4,0-.8-.4-.8-1,0-.6.3-1,.8-1l29.6-.8c.4,0,.8.4.8,1,0,.6-.3,1-.8,1l-29.6.8h0Z"/>
            <path class="st2" d="M263.5,90.2c-.3,0-.7-.2-.9-.5l-9.8-16.7c-.3-.5-.1-1.1.4-1.4s1.1-.1,1.4.4l9.8,16.7c.3.5.1,1.1-.4,1.4-.2,0-.3.1-.5.1h0Z"/>
            <path class="st2" d="M235.2,66c1.1-4.7.7-9.4-.8-13.5l-10.8,1.6-26.4,11.3c1,8.2,6.5,15.1,14.3,17,10.4,2.5,21-4.8,23.8-16.3h0Z"/>
          </g>
          <g>
            <path class="st1" d="M11.3,231.2h84.1l-8.3-74.7c-1-8.8-7.5-16.1-16.1-18.2h0c-3.6-.8-7.3-.7-10.9.3l-26.5,8-23.9,17.6s2,67.2,1.7,66.8h0Z"/>
            <g>
              <g>
                <path class="st2" d="M24.2,152.5l-5.2-56.6,28.6-2.6,4.4,48.3,3.2-.6c8.5,5.5,13.1,14.2,10.6,22-3.2,9.9-16.7,14.4-30.1,10.1-8.4-2.7-14.8-8.3-17.7-14.5l6.1-6.1h0Z"/>
                <path class="st0" d="M45.9,175.8c-3.4,0-7-.6-10.5-1.7-8.4-2.7-15.2-8.3-18.2-15.1-.2-.4,0-.8.2-1.1l5.8-5.8-5.1-56.1c0-.6.4-1,.9-1.1l28.6-2.6c.5,0,1,.4,1.1.9l4.3,47.2,2.1-.4c.2,0,.5,0,.7.1,9.1,5.9,13.5,15.2,11,23.1-1.6,5.1-5.8,9-11.8,11-2.8.9-5.8,1.4-9,1.4h0ZM19.3,158.8c2.9,5.9,9.1,10.9,16.8,13.3,6.3,2,12.8,2.1,18.2.3,5.4-1.8,9.1-5.3,10.6-9.7,2.2-7-1.7-15.2-9.8-20.6l-2.8.5c-.3,0-.6,0-.8-.2-.2-.2-.4-.4-.4-.7l-4.3-47.3-26.6,2.4,5.1,55.6c0,.3,0,.6-.3.8l-5.6,5.6h0Z"/>
              </g>
              <path class="st0" d="M18.9,73.2l2.8,3.6c.6-.2,1.2-.5,1.8-.6,3.1,3.5,5.7,7.6,7.8,12.2,6.3,14.2,4.7,36.8-7.3,42.6-.8.4-14.8-6.1-18.9-15.9l-1.7-4c-6.1-14.7.9-31.6,15.5-37.7Z"/>
              <path class="st0" d="M24.5,106.6c-2.5-7.9-.2-16.9,6.3-21.6h0c4-3,8.8-3.7,13.2-2.4-2.2.5-8.4,2.2-9.1,6.5-.9,5.2,0,14.9-10.3,17.6h0Z"/>
              <circle class="st0" cx="45.6" cy="83.4" r="11.6" transform="translate(-16.4 11.4) rotate(-12.1)"/>
              <path class="st0" d="M16,78.2C5.1,84.5.1,97.9,4.6,110c3.3.6,6.9.3,10.3-1.1,8.9-3.7,13.2-13.6,9.7-22-1.7-4-4.8-7-8.7-8.6h0Z"/>
              <circle class="st0" cx="23.9" cy="83.5" r="11.6" transform="translate(-21.7 9.6) rotate(-15.7)"/>
              <path class="st0" d="M47.3,74.5c2.5,6.1-.3,13-6.4,15.6-6.1,2.5-13-.3-15.6-6.4-2.5-6.1.3-13,6.4-15.6,6.1-2.5,13,.3,15.6,6.4Z"/>
              <path class="st0" d="M7.6,91.8c-.3,0-.6-.1-.8-.4-1.9-2.5-5.6-1.8-5.6-1.8-.5.1-1.1-.2-1.2-.8s.2-1.1.8-1.2c.2,0,4.9-.9,7.6,2.5.3.4.3,1.1-.2,1.4-.2.1-.4.2-.6.2h0Z"/>
              <path class="st0" d="M7.9,91.4c0,0-.1,0-.2,0-4.3-.8-5.7-5.3-5.8-5.5-.2-.5.1-1.1.7-1.2.5-.2,1.1.1,1.2.7,0,0,1.2,3.6,4.2,4.1.5,0,.9.6.8,1.2,0,.5-.5.8-1,.8h0Z"/>
              <g>
                <path class="st2" d="M33.5,119.4l-3.6.8c-3.9.8-7.8-1.7-8.6-5.6h0c-.7-3.4,1.1-6.8,4.2-8.2-2.6-7.6,0-16.2,7-20.9h0c8.3-5.5,19.4-3.3,24.9,5l1.1,1.7c1.8-.9,4-.4,5.1,1.3h0c1.1,1.7.7,3.9-.8,5.1l2.2,3.3c-1.5,1.3-3.4,2.5-5.5,3.4-1,.4-2,.8-2.9,1.1,2.8,1.1,6.8,1,11-.4,4.3,8.1,1.8,18.2-5.9,23.3-6.2,4.1-13.9,3.9-19.7.1l-8.5-10.1h0Z"/>
                <path class="st0" d="M51.8,133.4c-3.6,0-7.2-1-10.3-3-.5-.3-.6-.9-.3-1.4s.9-.6,1.4-.3c5.7,3.7,13,3.6,18.6-.1,7-4.7,9.5-13.7,6-21.3-4,1.2-8,1.3-10.9.1-.4-.2-.7-.6-.6-1,0-.4.3-.8.7-.9,1-.3,1.9-.6,2.8-1,1.7-.7,3.2-1.7,4.6-2.7l-1.7-2.5c-.3-.4-.2-1,.2-1.3,1.1-.9,1.4-2.6.6-3.8-.8-1.2-2.5-1.7-3.8-1-.5.2-1,0-1.3-.3l-1.1-1.7c-2.5-3.8-6.3-6.3-10.8-7.2s-9,0-12.8,2.5c-6.5,4.3-9.2,12.4-6.6,19.7.2.5,0,1-.5,1.2-2.7,1.2-4.3,4.1-3.7,7.1.3,1.6,1.3,3,2.7,3.9,1.4.9,3.1,1.2,4.7.9l3.6-.8c.5-.1,1.1.2,1.2.8s-.2,1.1-.8,1.2l-3.6.8c-2.2.5-4.4,0-6.2-1.1-1.8-1.2-3.1-3-3.6-5.2-.8-3.6.9-7.2,4-8.9-2.4-7.9.7-16.6,7.7-21.2,4.2-2.8,9.3-3.8,14.2-2.8,5,1,9.3,3.9,12.1,8.1l.7,1c2.1-.6,4.3.1,5.5,2,1.2,1.8,1,4.2-.3,5.8l1.7,2.6c.3.4.2,1-.2,1.3-1.6,1.4-3.5,2.5-5.5,3.5,2.2.1,4.7-.2,7.1-1.1.5-.2,1,0,1.2.5,4.6,8.6,1.9,19.2-6.3,24.6-3.2,2.1-6.9,3.2-10.5,3.2h0Z"/>
              </g>
              <path class="st0" d="M27.9,122.3c-3.8,0-7.2-2.7-8.1-6.5-.1-.5.2-1.1.8-1.2.5-.1,1.1.2,1.2.8.7,3.4,4,5.5,7.4,4.8.5-.1,1.1.2,1.2.8s-.2,1.1-.8,1.2c-.6.1-1.2.2-1.7.2h0Z"/>
              <path class="st0" d="M29.9,115.8c-.4,0-.8-.3-.9-.7-.8-2.2-3-2.3-3-2.3-.5,0-1-.5-1-1.1,0-.6.5-1,1-.9.2,0,3.6.2,4.8,3.7.2.5,0,1.1-.6,1.3-.1,0-.2,0-.3,0h0Z"/>
              <path class="st0" d="M54.6,94.4c.4.9.2,1.9-.6,2.3-.8.3-1.7-.1-2.1-1s-.2-1.9.6-2.3c.8-.3,1.7.1,2.1,1Z"/>
              <path class="st0" d="M50.3,89.5c.5.4,0,1.8-1.1,3.2-1.1,1.4-2.4,2.2-2.9,1.8s0-1.8,1.1-3.2c1.1-1.4,2.4-2.2,2.9-1.8Z"/>
              <path class="st0" d="M27.8,89c-6.5,3.1-9.8,11.4-7.6,19.5,1.9.7,4,.8,6,.2,5.3-1.7,8.1-7.6,6.3-13.4-.9-2.7-2.6-4.9-4.8-6.3h0Z"/>
            </g>
            <ellipse class="st0" cx="104.3" cy="135.8" rx="18.3" ry="15.1" transform="translate(-2.6 2) rotate(-1.1)"/>
            <g>
              <path class="st2" d="M69,148.8c16.1-23.6,39.4-12.2,43.1-8.5.9.9,1.7,1.7,2.6,2.5,1.6,1.2,3,2.5,4.3,3.9,3.2,2.6,6,4.2,8.8,3.9,1.9-.2,5.7,6.1,7,13.8-4,0-7.8-.7-11.4-1.7,2.8,3.8,7,6.4,11.9,7.6,0,7.4-3.1,14.8-12.4,18.2,0,0-5.2,2.7-11.4,3.2v28.9c-.1,0-31.2-.1-31.2-.1l-1.8-26.3c-.5-.3-1-.6-1.5-1-14.6-10.5-17.9-30.2-8.1-44.5h0Z"/>
              <path class="st0" d="M111.3,221.7h-31.1c-.5-.1-1-.5-1-1.1l-1.7-25.8c-.4-.2-.7-.5-1.1-.7-14.9-10.7-18.6-30.9-8.3-45.9,6.1-9,13.9-13.9,23-14.8,10-.9,19,3.6,21.7,6.2.9.9,1.7,1.7,2.5,2.5,1.5,1.2,3,2.5,4.3,3.9,3.3,2.8,5.8,3.9,8,3.7,3.1-.3,6.9,7.6,8.2,14.6,0,.3,0,.6-.2.8-.2.2-.5.3-.8.3-2.9,0-5.8-.4-8.5-.9,2.4,2.3,5.6,4,9.3,4.9.5.1.8.5.8,1,0,6.6-2.4,15.2-13,19.2-.6.3-5.2,2.6-10.8,3.2v28c-.1.6-.6,1-1.1,1h0ZM81.2,219.6h29.1c0,.1.1-27.8.1-27.8,0-.5.4-.9.9-1,5.9-.5,10.9-3.1,11-3.1,0,0,0,0,.1,0,9.2-3.3,11.5-10.7,11.8-16.5-4.9-1.4-9-4.1-11.7-7.8-.2-.3-.3-.8,0-1.2s.7-.5,1.1-.4c3.1.9,6.5,1.4,9.9,1.6-1.5-7-4.7-11.7-5.7-11.8-2.7.3-5.7-.9-9.5-4.2,0,0,0,0,0,0-1.2-1.4-2.7-2.6-4.1-3.8,0,0,0,0,0,0-.8-.8-1.7-1.7-2.6-2.5-1.8-1.8-10.2-6.6-20.1-5.6-8.5.8-15.8,5.5-21.5,13.9-9.7,14.1-6.2,33.1,7.8,43.2.5.3.9.7,1.4,1,.3.2.4.5.5.8l1.7,25.4h0Z"/>
            </g>
            <circle class="st0" cx="116.8" cy="211.6" r="16.2" transform="translate(-64.3 51.5) rotate(-19.6)"/>
            <path class="st0" d="M72.6,132.9c10.1-5.8,22-5.7,31.9-.8-3,.8-6,1.9-8.8,3.6-19.2,11-24.7,37.3-12.3,58.9.7,1.2,1.4,2.3,2.2,3.5-10.1-1.7-19.4-7.8-25-17.6-9.7-16.9-4.2-38.2,12.1-47.6h0Z"/>
            <path class="st0" d="M106.7,129.9s-2.5,9.3-10.2,13.9c-4,2.4,3.8,1.6,3.3,6.4-3.8,36.3-6.6,43.2-6.6,43.2-.6,3.1-3.2,5.5-6.4,5.8l-9.5,1-3.2-8.7-5.6-37.7s19.1-28.7,38.1-23.9h0Z"/>
            <path class="st0" d="M106.4,150.8c-.3,0-.6-.2-.8-.4-.9-1.3-.9-3.7,0-5.7.9-2.2,2.7-3.6,4.9-4,.5,0,1.1.3,1.2.8,0,.5-.3,1.1-.8,1.2-2.1.4-3,1.9-3.4,2.8-.7,1.5-.6,3.2-.2,3.8.3.5.2,1.1-.3,1.4-.2.1-.4.2-.5.2h0Z"/>
            <path class="st0" d="M114.8,151.5c.8.5,1.8.4,2.2-.2.3-.6,0-1.5-.9-2-.8-.5-1.8-.4-2.2.2-.3.6,0,1.5.9,2Z"/>
            <path class="st0" d="M98.5,147s13.3,9.3,11.8,16.1-13.5,8.4-11.9,20.1c1.6,11.7,3.6,17.4,17.8,17.9,19,.6,22.8,4,23,14.6s-45.5-.8-45.5-.8c0,0-17-16.8,4.7-68h0Z"/>
            <path class="st2" d="M109,175.1c0,5.2-4,9.4-9.2,9.5s-9.4-4-9.5-9.2c0-5.2,4-9.4,9.2-9.5s9.4,4,9.5,9.2Z"/>
            <path class="st0" d="M103.9,178.4c-.5,0-1-.4-1-1,0-2.6-4.2-4.3-5.8-4.7-.5-.2-.8-.7-.7-1.2s.7-.8,1.2-.7c.3,0,7.2,2.1,7.3,6.6,0,.6-.4,1-1,1h0Z"/>
            <circle class="st0" cx="57.2" cy="204.7" r="16"/>
            <g>
              <path class="st2" d="M25.7,231.7c4.4-6.1,11.4-10.7,19.8-12.3l74.2-14.4c14-2.7,28.4,2.6,36.1,13.3,3,4.2,6.3,8.7,9.8,13.4H25.7Z"/>
              <path class="st0" d="M25.7,232.7c-.2,0-.4,0-.6-.2-.5-.3-.5-.9-.2-1.4,4.7-6.6,12-11.1,20.5-12.7l74.2-14.4c14.3-2.8,29.2,2.7,37.1,13.7,2.8,3.9,6,8.3,9.8,13.4.3.4.2,1.1-.2,1.4-.4.3-1.1.2-1.4-.2-3.8-5.1-7-9.5-9.8-13.4-7.4-10.3-21.5-15.5-35.1-12.9l-74.2,14.4c-8,1.6-14.8,5.8-19.2,11.9-.2.3-.5.4-.8.4h0Z"/>
            </g>
            <path class="st0" d="M88.6,127.5c-9.1-4.5-40.5,5.7-36.3,37.8,2.1,15.9,6.2,39.9,1.5,48.2-4.8,8.3-4.2,2.4,2.2,8.9s30.9,4.1,35.5-.9,16.4-1.1-1.8-30.5-.3-44.4,1.6-45.6,10.8-11.4-2.5-17.9h0Z"/>
            <circle class="st0" cx="82.5" cy="209.8" r="19.9" transform="translate(-137.1 158.6) rotate(-55.4)"/>
            <path class="st0" d="M297.4,123.6c-1,6.6-8.3,10.9-16.2,9.6-7.9-1.2-13.5-7.6-12.5-14.2,1-6.6,8.3-10.9,16.2-9.6,7.9,1.2,13.5,7.6,12.5,14.2Z"/>
            <g>
              <path class="st2" d="M237.5,152.2c5-.5,9.5-2.5,12.8-5.9-3.7.5-7.6.6-11.5.1,2.4-7.4,7-13.2,8.9-12.7,2.7.7,5.7-.5,9.2-2.7,1.5-1.2,3.1-2.3,4.8-3.3.9-.7,1.9-1.4,2.9-2.2,4.2-3.2,28.8-11.2,41.6,14.3,7.1,14.3,2.7,31.5-10.4,40.7l8.8,32.6-38.2-6.8-6.7-29.4c-6.8-1-12.4-5-12.4-5-8.8-4.6-10.7-12.4-9.8-19.8h0Z"/>
              <path class="st0" d="M304.6,214.2c0,0-.1,0-.2,0l-38.2-6.8c-.4,0-.7-.4-.8-.8l-6.6-28.8c-6.3-1.2-11.5-4.6-12.1-5.1-10-5.3-11.1-14.2-10.3-20.8,0-.5.4-.8.9-.9,3.8-.4,7.1-1.6,9.8-3.6-2.8.2-5.7.1-8.6-.2-.3,0-.6-.2-.7-.4-.2-.2-.2-.6-.1-.8,2.2-6.8,7.1-14.2,10.1-13.4,2.1.6,4.7-.2,8.4-2.5,1.5-1.2,3.1-2.3,4.8-3.3.9-.7,1.9-1.4,2.8-2.1,3-2.2,12.6-5.5,22.3-3.2,8.9,2.1,15.9,8.1,20.7,17.8,7.2,14.6,3,31.9-10.1,41.6l8.7,31.9c0,.3,0,.7-.2.9-.2.2-.5.3-.7.3h0ZM267.3,205.5l35.9,6.4-8.4-31.1c-.1-.4,0-.8.4-1.1,12.7-9,17-25.6,10.1-39.5-4.6-9.2-11.1-14.8-19.4-16.8-9.7-2.3-18.7,1.3-20.7,2.8-1,.8-2,1.5-2.9,2.2,0,0,0,0,0,0-1.6.9-3.2,2-4.6,3.2,0,0,0,0-.1,0-4.2,2.6-7.3,3.5-10,2.8h0c-1,0-4.8,4.2-7.2,10.9,3.4.3,6.8.2,10-.2.4,0,.8.2,1,.5.2.4.1.8-.2,1.2-3.2,3.3-7.6,5.4-12.6,6.1-.6,5.8.8,13.4,9.4,18,0,0,0,0,.1,0,0,0,5.5,3.9,12,4.9.4,0,.7.4.8.8l6.6,28.8h0Z"/>
            </g>
            <path class="st0" d="M304.7,123.7c-9.2-7.1-21-8.6-31.5-5.1,2.9,1.2,5.7,2.8,8.2,4.7,17.5,13.5,19.3,40.3,4.2,60-.8,1.1-1.7,2.1-2.6,3.1,10.2-.3,20.3-5.1,27.2-14,11.9-15.4,9.4-37.3-5.5-48.8h0Z"/>
            <path class="st0" d="M271.4,116.1s1.2,9.5,8.2,15.1c3.7,3-3.9,1-4.1,5.9-1.2,36.5.6,43.7.6,43.7.2,3.2,2.4,5.9,5.5,6.6l16,1.2-.9-5.3,9.2-38.4s-15-31-34.5-28.9h0Z"/>
            <path class="st0" d="M268.6,138c-.3,0-.5-.1-.7-.3-.4-.4-.3-1,0-1.4.4-.4.9-1.7.8-3.3,0-.8-.3-2.4-1.6-3.3-.5-.3-.6-.9-.3-1.4.3-.5.9-.6,1.4-.3,1.5,1,2.4,2.7,2.5,4.8.1,2-.4,4-1.4,4.9-.2.2-.4.3-.7.3h0Z"/>
            <path class="st0" d="M260.3,136.3c-.9.3-1.8.1-2.1-.6-.2-.7.3-1.5,1.2-1.8.9-.3,1.8-.1,2.1.6s-.3,1.5-1.2,1.8Z"/>
            <path class="st2" d="M262.9,160.4c-.8,5.1,2.7,9.9,7.8,10.7,5.1.8,9.9-2.7,10.7-7.8.8-5.1-2.7-9.9-7.8-10.7-5.1-.8-9.9,2.7-10.7,7.8Z"/>
            <path class="st0" d="M267.6,164.5c0,0,0,0-.2,0-.5,0-.9-.6-.8-1.1.7-4.5,7.8-5.5,8.1-5.6.5,0,1.1.3,1.1.9s-.3,1.1-.8,1.1c-1.7.2-6,1.4-6.4,3.9,0,.5-.5.8-1,.8h0Z"/>
            <circle class="st0" cx="61.5" cy="214.7" r="18.5" transform="translate(-5 1.5) rotate(-1.4)"/>
            <polygon class="st0" points="280.5 143.2 266.7 151.4 269 155.2 280.3 151.2 280.5 143.2"/>
            <path class="st0" d="M309.5,144c-.3,0-.6-.1-.8-.4-.3-.4-.3-1.1.1-1.4,3-2.5,9.9-.8,10.6-.6.5.1.9.7.7,1.2-.1.5-.7.8-1.2.7-2.6-.6-7.2-1.1-8.9.2-.2.2-.4.2-.6.2h0Z"/>
            <path class="st0" d="M309.6,142.7c-.5,0-.9,0-1.1,0-.6,0-1-.5-.9-1.1s.5-1,1.1-.9c2.6.1,7.3-.3,8.7-1.9.3-.4,1-.5,1.4-.2s.5,1,.2,1.4c-2,2.4-7,2.7-9.2,2.7h0Z"/>
            <path class="st0" d="M313.5,231.7v-33.2h-38.7c-17.2,0-33.8,6.8-45.9,19l-14.4,14.4s98.2-.2,99.1-.2h0Z"/>
          </g>
        </g>
        <path class="st1" d="M74.2,9.5v35c0,4.2,3.4,7.7,7.7,7.7h45.1c4.2,0,7.7-3.4,7.7-7.7v-3.8h13.5l-13.5-13.5V9.5c0-4.2-3.4-7.7-7.7-7.7h-45.1c-4.2,0-7.7,3.4-7.7,7.7Z"/>
        <path class="st0" d="M102.7,35.8c-.2,0-.3,0-.5,0-1.8-.2-3-1.6-3.4-3.7-.5-2.5,1.2-5.4,4.6-7.8.1,0,.2-.2.3-.2-1.3-1.9-3.5-4.2-7-4.2h-.2c-1.8,0-3.3.6-4.7,1.4.8,2.4,1,5.1.3,6.7-.4,1-1.2,1.6-2.1,1.8-2,.3-3-.5-3.5-1.2-.8-1.1-.7-2.8.2-4.7.6-1.2,1.5-2.3,2.6-3.3-.2-.4-.4-.8-.7-1.1-1.7-2.2-2.7-1.8-2.7-1.8l-1-1.7c0,0,2.4-1.5,5.3,2.3.3.3.5.7.7,1.1,1.5-.9,3.4-1.5,5.4-1.6,3.5,0,6.8,1.8,8.9,5.1,3.2-1.7,7-2.5,9.7-.9,2.9,1.6,4.3,3.8,4.4,6.3,1.5.1,3.2.5,5.3,1.1l-.6,1.9c-2-.6-3.6-.9-5-1.1-.1.5-.3,1.1-.6,1.7-.8,1.6-2.1,3-3.4,3.4-.8.3-1.4,0-1.7,0-1.5-.8-2.1-2.6-1.4-4.2.3-.8,1.5-2.7,5.4-2.8,0-1.8-1.2-3.3-3.4-4.5-2-1.2-5.2-.4-7.8.9,1.4,2.9,1.9,6.1,1.1,7.8-1,2-2.9,3.3-4.8,3.3h0ZM104.7,25.8s0,0-.2.1c-2.7,1.9-4.2,4.2-3.8,5.8.2.9.6,1.9,1.7,2.1,1.2.2,2.6-.8,3.3-2.1.4-.8.2-3.4-1-5.9h0ZM117.2,30.4c-1.9.1-2.9.8-3.2,1.6-.3.7,0,1.4.5,1.7.3,0,1.6-.8,2.4-2.4.1-.3.2-.6.3-.8h0ZM90.3,22.7c-.7.7-1.2,1.4-1.6,2.2-.6,1.3-.6,2.2-.4,2.6.3.4,1.1.4,1.6.3.2,0,.3-.2.5-.5.4-1,.3-2.8-.1-4.6h0Z"/>
      </g>
    </g>
  </g>
</svg>