<?xml version="1.0" encoding="UTF-8"?>
<svg id="Layer_1" xmlns="http://www.w3.org/2000/svg" version="1.1" xmlns:xlink="http://www.w3.org/1999/xlink" viewBox="0 0 147.2 118.4">
  <!-- Generator: Adobe Illustrator 29.2.0, SVG Export Plug-In . SVG Version: 2.1.0 Build 108)  -->
  <defs>
    <style>
      .st0 {
        fill: #e0d6eb;
      }

      .st1 {
        fill: none;
      }

      .st2 {
        fill: #7859a3;
      }

      .st3 {
        fill: #fafafa;
      }

      .st4 {
        clip-path: url(#clippath);
      }
    </style>
    <clipPath id="clippath">
      <rect class="st1" width="147.2" height="118.4"/>
    </clipPath>
  </defs>
  <g class="st4">
    <g>
      <path class="st3" d="M25.5,118.4c-.4,0-.9,0-1.3-.3-1-.4-1.6-1.3-1.8-2.3l-5.8-33.7-13.4.7h0c-.9,0-1.8-.4-2.4-1.1-.6-.8-.8-1.8-.6-2.7l9.9-35.7L4,8.3c-.2-1,.2-2,.9-2.8.6-.5,1.3-.8,2.1-.8s.5,0,.7,0l12.1,2.8,1.5-5.4c.2-.9.9-1.7,1.8-2C23.5,0,23.9-.1,24.2-.1c.6,0,1.1.2,1.6.4l23.4,14.1,95.5,22.2c1.2.3,2.1,1.2,2.3,2.5.2,1.2-.3,2.4-1.4,3.1l-24.4,15.6,20.4,12.3c1.2.7,1.7,2.1,1.4,3.4s-1.5,2.2-2.8,2.3l-51.2,2.6-61.9,39.5c-.5.3-1.1.5-1.7.5"/>
      <path class="st0" d="M144.5,39.7c0,0-.1-.2-.3-.3L48.3,17,24.5,2.8h-.3c-.1,0-.2,0-.2.2l-2.2,7.9-14.6-3.4h-.3s0,.2,0,.3l6.1,35.5L2.8,79.7v.3s.2,0,.3,0h0l15.8-.8,6.2,36.1c0,0,.1.2.2.3h.3l62.5-39.8,52-2.7c.2,0,.3,0,.3-.3s0-.3-.2-.4l-24.1-14.5,28.1-17.9c.1,0,.2-.2.2-.4"/>
      <path class="st2" d="M140.4,72.5L24.5,2.8h-.3c-.1,0-.2,0-.2.2L2.8,79.7v.3s.2,0,.3,0h0l137.1-7c.2,0,.3,0,.3-.3s0-.3-.2-.4"/>
      <path class="st0" d="M144.5,39.7c0,0-.1-.2-.3-.3L7.1,7.5h-.3s0,.2,0,.3l18.4,107.5c0,0,.1.2.2.3h.3l118.7-75.6c.1,0,.2-.2.2-.4"/>
    </g>
  </g>
</svg>