<?xml version="1.0" encoding="UTF-8"?>
<svg id="Layer_1" xmlns="http://www.w3.org/2000/svg" version="1.1" xmlns:xlink="http://www.w3.org/1999/xlink" viewBox="0 0 147.2 118.4">
  <!-- Generator: Adobe Illustrator 29.1.0, SVG Export Plug-In . SVG Version: 2.1.0 Build 142)  -->
  <defs>
    <style>
      .st0 {
        fill: #e0d6eb;
      }

      .st1 {
        fill: none;
      }

      .st2 {
        fill: #303030;
      }

      .st3 {
        fill: #7859a3;
      }

      .st4 {
        fill: #fafafa;
      }

      .st5 {
        clip-path: url(#clippath);
      }
    </style>
    <clipPath id="clippath">
      <rect class="st1" width="147.2" height="118.4"/>
    </clipPath>
  </defs>
  <g class="st5">
    <path class="st4" d="M25.5,118.4c-.4,0-.9,0-1.3-.3-1-.4-1.6-1.3-1.8-2.3l-5.8-33.7s-13.4.7-13.4.7h-.1c-.9,0-1.8-.4-2.4-1.1-.6-.8-.8-1.8-.6-2.7l9.9-35.7L4,8.3c-.2-1,.2-2,.9-2.8.6-.5,1.3-.8,2.1-.8s.5,0,.7,0l12.1,2.8,1.5-5.4c.2-.9.9-1.7,1.8-2,.4-.1.8-.2,1.1-.2.6,0,1.1.2,1.6.4l23.4,14.1,95.5,22.2c1.2.3,2.1,1.2,2.3,2.5.2,1.2-.3,2.4-1.4,3.1l-24.4,15.6,20.4,12.3c1.2.7,1.7,2.1,1.4,3.4-.3,1.3-1.5,2.2-2.8,2.3l-51.2,2.6-61.9,39.5c-.5.3-1.1.5-1.7.5"/>
    <path class="st0" d="M144.5,39.7c0-.1-.1-.2-.3-.3L48.3,17,24.5,2.8c-.1,0-.2,0-.3,0-.1,0-.2.1-.2.2l-2.2,7.9-14.6-3.4c-.1,0-.2,0-.3,0,0,0-.1.2-.1.3l6.1,35.5L2.8,79.7c0,.1,0,.2,0,.3,0,0,.2.1.3.1h0l15.8-.8,6.2,36.1c0,.1.1.2.2.3,0,0,.1,0,.1,0s.1,0,.2,0l62.5-39.8,52-2.7c.2,0,.3-.1.3-.3s0-.3-.2-.4l-24.1-14.5,28.1-17.9c.1,0,.2-.2.2-.4"/>
    <path class="st3" d="M140.4,72.5L24.5,2.8c-.1,0-.2,0-.3,0-.1,0-.2.1-.2.2L2.8,79.7c0,.1,0,.2,0,.3,0,0,.2.1.3.1h0l137.1-7c.2,0,.3-.1.3-.3,0-.2,0-.3-.2-.4"/>
    <path class="st0" d="M144.5,39.7c0-.1-.1-.2-.3-.3L7.1,7.5c-.1,0-.2,0-.3,0,0,0-.1.2-.1.3l18.4,107.5c0,.1.1.2.2.3,0,0,.1,0,.1,0s.1,0,.2,0l118.7-75.6c.1,0,.2-.2.2-.4"/>
    <g>
      <g>
        <path class="st2" d="M29.3,40.2c.5,0,.7-.3.7-.8v-1.3c0-.5-.2-.8-.7-.8h-.9v2.9h.9ZM28.3,44.5c0,.2-.1.3-.3.3h-.7c-.1,0-.3-.1-.3-.3v-8.1c0-.2.1-.3.3-.3h2.2c1,0,1.8.7,1.8,1.7v1.8c0,1-.8,1.7-1.8,1.7h-1.2v3.1h0Z"/>
        <path class="st2" d="M34.4,40c-.9,0-1.1.5-1.1,1.1v3.4c0,.2-.1.3-.3.3h-.7c-.2,0-.3-.1-.3-.3v-5.6c0-.2.1-.3.3-.3h.7c.2,0,.3.1.3.3v.4c.3-.5.8-.7,1.3-.7h.3c.2,0,.3.1.3.3v.7c0,.2-.1.3-.3.3h-.5Z"/>
        <path class="st2" d="M37.1,44.5c0,.2-.1.3-.3.3h-.7c-.2,0-.3-.1-.3-.3v-5.6c0-.2.1-.3.3-.3h.7c.2,0,.3.1.3.3v5.6ZM37.1,37.5c0,.2-.2.3-.4.3h-.6c-.2,0-.4,0-.4-.3v-1c0-.2.2-.3.4-.3h.6c.2,0,.4,0,.4.3v1Z"/>
        <path class="st2" d="M40.8,38.7c1,0,1.7.6,1.7,1.7v4.2c0,.2-.1.3-.3.3h-.7c-.2,0-.3-.1-.3-.3v-4c0-.5-.3-.8-.7-.8h-.3c-.5,0-.7.3-.7.8v4c0,.2-.1.3-.3.3h-.7c-.2,0-.3-.1-.3-.3v-5.6c0-.2.1-.3.3-.3h.7c.2,0,.3.1.3.3v.2c.3-.3.8-.5,1.2-.5h.2Z"/>
        <path class="st2" d="M47.8,43.1c0,1.1-.8,1.7-1.9,1.7h-.6c-1.1,0-1.9-.6-1.9-1.7v-2.7c0-1.1.8-1.7,1.9-1.7h.6c1.1,0,1.9.6,1.9,1.7v.4c0,.2-.1.3-.3.3h-.7c-.2,0-.3-.1-.3-.3v-.3c0-.5-.3-.8-.7-.8h-.4c-.5,0-.7.3-.7.8v2.4c0,.5.2.8.7.8h.4c.5,0,.7-.3.7-.8v-.5c0-.2.1-.3.3-.3h.7c.2,0,.3.1.3.3v.6h0Z"/>
        <path class="st2" d="M50.2,44.5c0,.2-.1.3-.3.3h-.7c-.2,0-.3-.1-.3-.3v-5.6c0-.2.1-.3.3-.3h.7c.2,0,.3.1.3.3v5.6ZM50.2,37.5c0,.2-.2.3-.4.3h-.6c-.2,0-.4,0-.4-.3v-1c0-.2.2-.3.4-.3h.6c.2,0,.4,0,.4.3v1Z"/>
        <path class="st2" d="M53.2,43.7h.4c.5,0,.7-.3.7-.8v-2.4c0-.5-.2-.8-.7-.8h-.4c-.5,0-.7.3-.7.8v2.4c0,.5.2.8.7.8M52.5,39.2c.3-.3.7-.5,1.3-.5h0c1.1,0,1.7.7,1.7,1.7v2.7c0,1.1-.8,1.7-1.8,1.7h-.2c-.5,0-.9-.1-1.2-.5v2.7c0,.2-.1.3-.3.3h-.7c-.2,0-.3-.1-.3-.3v-8c0-.2.1-.3.3-.3h.7c.2,0,.3.1.3.3v.2h0Z"/>
        <path class="st2" d="M56.9,36.1h.7c.2,0,.3.1.3.3v8.1c0,.2-.1.3-.3.3h-.7c-.2,0-.3-.1-.3-.3v-8.1c0-.2.1-.3.3-.3Z"/>
        <path class="st2" d="M60.1,41h1.8v-.4c0-.5-.2-.8-.7-.8h-.4c-.5,0-.7.3-.7.8v.4ZM61.9,42.9c0-.2.1-.3.3-.3h.7c.2,0,.3.1.3.3v.2c0,1.2-.8,1.7-1.9,1.7h-.5c-1.1,0-1.9-.5-1.9-1.7v-2.7c0-1,.8-1.7,1.7-1.7h.9c.9,0,1.7.7,1.7,1.7v1.3c0,.2-.1.3-.3.3h-2.8v1c0,.5.2.8.7.8h.4c.5,0,.7-.3.7-.8h0c0,0,0,0,0,0Z"/>
        <path class="st2" d="M65.4,42.1c-.8-.2-1.2-.6-1.2-1.4v-.4c0-.9.6-1.6,1.6-1.6h1.1c.9,0,1.6.6,1.6,1.5v.3c0,.2-.1.3-.3.3h-.7c-.2,0-.3,0-.3-.3v-.3c0-.3-.2-.5-.5-.5h-.8c-.3,0-.5.2-.5.5v.3c0,.2,0,.4.3.4l1.4.4c.8.2,1.3.6,1.3,1.4v.5c0,.9-.6,1.6-1.6,1.6h-1.2c-1,0-1.6-.5-1.6-1.6v-.3c0-.2.1-.3.3-.3h.7c.2,0,.3.1.3.3v.2c0,.4.2.6.6.6h.8c.3,0,.5-.2.5-.5v-.3c0-.2,0-.4-.3-.5l-1.5-.4h0Z"/>
      </g>
      <g>
        <path class="st2" d="M30.9,50.9h-1.4v7.2c0,.2-.1.3-.3.3h-.7c-.1,0-.3-.1-.3-.3v-7.2h-1.4c-.1,0-.3-.1-.3-.3v-.6c0-.2.1-.3.3-.3h4c.1,0,.3.1.3.3v.6c0,.2-.1.3-.3.3"/>
        <path class="st2" d="M34.2,54.1c0-.5-.2-.8-.7-.8h-.4c-.5,0-.7.3-.7.8v2.4c0,.5.2.8.7.8h.4c.5,0,.7-.3.7-.8v-2.4ZM32.8,58.4c-.9,0-1.7-.7-1.7-1.7v-2.7c0-1,.8-1.7,1.7-1.7h.9c.9,0,1.7.7,1.7,1.7v2.7c0,1-.8,1.7-1.7,1.7h-.9Z"/>
        <path class="st2" d="M38.1,56.9s0,0,0,0,0,0,0,0l.9-4.4c0-.1.1-.2.3-.2h.7c.2,0,.3.1.3.2l.9,4.4s0,0,0,0c0,0,0,0,0,0s.7-4.4.7-4.4c0-.2.2-.2.3-.2h.6c.2,0,.3.2.3.3s0,.1,0,.2l-1,5.3c0,.2-.2.3-.3.3h-1.2c-.2,0-.3-.1-.3-.3l-.7-4-.8,4c0,.2-.2.3-.3.3h-1.2c-.2,0-.3-.1-.3-.3l-1-5.3c0,0,0-.2,0-.3,0-.2,0-.3.3-.3h.7c.2,0,.3,0,.3.2l.8,4.4h0Z"/>
        <path class="st2" d="M46.1,57.4c.5,0,.7-.3.7-.8v-.7h-1.2c-.5,0-.7.2-.7.6v.2c0,.4.2.7.7.7h.4ZM48.1,58.1c0,.2-.1.3-.3.3h-.7c-.2,0-.3-.1-.3-.3v-.2c-.2.3-.5.5-1.2.5h-.3c-.9,0-1.6-.6-1.6-1.6v-.2c0-1,.6-1.6,1.7-1.6h1.4v-.8c0-.5-.3-.8-.7-.8h-.2c-.5,0-.8.3-.8.8h0c0,.2-.1.4-.3.4h-.7c-.2,0-.3-.1-.3-.3v-.2c0-1.1.8-1.7,1.9-1.7h.5c1,0,1.8.6,1.8,1.7v4.1h0Z"/>
        <path class="st2" d="M51.5,53.6c-.9,0-1.1.5-1.1,1.1v3.4c0,.2-.1.3-.3.3h-.7c-.2,0-.3-.1-.3-.3v-5.6c0-.2.1-.3.3-.3h.7c.2,0,.3.1.3.3v.4c.3-.5.8-.7,1.3-.7h.3c.2,0,.3.1.3.3v.7c0,.2-.1.3-.3.3h-.5Z"/>
        <path class="st2" d="M54.8,57.3h.4c.5,0,.7-.3.7-.8v-2.4c0-.5-.2-.8-.7-.8h-.4c-.5,0-.7.3-.7.8v2.4c0,.5.2.8.7.8M55.9,50c0-.2.1-.3.3-.3h.7c.2,0,.3.1.3.3v8.1c0,.2-.1.3-.3.3h-.7c-.2,0-.3-.1-.3-.3v-.2c-.3.3-.7.5-1.2.5h-.1c-1,0-1.8-.7-1.8-1.7v-2.7c0-1.1.8-1.7,1.8-1.7h.1c.5,0,.9.2,1.2.5v-2.8h0Z"/>
        <path class="st2" d="M59.4,55.7c-.8-.2-1.2-.6-1.2-1.4v-.4c0-.9.6-1.6,1.6-1.6h1.1c.9,0,1.6.6,1.6,1.5v.3c0,.2-.1.3-.3.3h-.7c-.2,0-.3,0-.3-.3v-.3c0-.3-.2-.5-.5-.5h-.8c-.3,0-.5.2-.5.5v.3c0,.2,0,.4.3.4l1.4.4c.8.2,1.3.6,1.3,1.4v.5c0,.9-.6,1.6-1.6,1.6h-1.2c-1,0-1.6-.5-1.6-1.6v-.3c0-.2.1-.3.3-.3h.7c.2,0,.3.1.3.3v.2c0,.4.2.6.6.6h.8c.3,0,.5-.2.5-.5v-.3c0-.2,0-.4-.3-.5l-1.5-.4h0Z"/>
      </g>
      <g>
        <path class="st2" d="M28.3,68.5h1.3l-.6-4.2h0l-.6,4.2h0ZM29.7,69.6h-1.5l-.3,2c0,.2-.1.3-.3.3h-.7c-.1,0-.2,0-.2-.3s0-.1,0-.3l1.2-7.9c0-.2.1-.3.3-.3h1.7c.2,0,.3,0,.3.3l1.2,7.9c0,.2,0,.2,0,.3,0,.2-.1.2-.3.2h-.8c-.2,0-.3,0-.3-.3l-.3-2h0Z"/>
        <path class="st2" d="M33.2,69.2c-.8-.2-1.2-.6-1.2-1.4v-.4c0-.9.6-1.6,1.6-1.6h1.1c.9,0,1.6.6,1.6,1.5v.3c0,.2-.1.3-.3.3h-.7c-.2,0-.3,0-.3-.3v-.3c0-.3-.2-.5-.5-.5h-.8c-.3,0-.5.2-.5.5v.3c0,.2,0,.4.3.4l1.4.4c.8.2,1.3.6,1.3,1.4v.5c0,.9-.6,1.6-1.6,1.6h-1.2c-1,0-1.6-.5-1.6-1.6v-.3c0-.2.1-.3.3-.3h.7c.2,0,.3.1.3.3v.2c0,.4.2.6.6.6h.8c.3,0,.5-.2.5-.5v-.3c0-.2,0-.4-.3-.5l-1.5-.4h0Z"/>
        <path class="st2" d="M38.4,69.2c-.8-.2-1.2-.6-1.2-1.4v-.4c0-.9.6-1.6,1.6-1.6h1.1c.9,0,1.6.6,1.6,1.5v.3c0,.2-.1.3-.3.3h-.7c-.2,0-.3,0-.3-.3v-.3c0-.3-.2-.5-.5-.5h-.8c-.3,0-.5.2-.5.5v.3c0,.2,0,.4.3.4l1.4.4c.8.2,1.3.6,1.3,1.4v.5c0,.9-.6,1.6-1.6,1.6h-1.2c-1,0-1.6-.5-1.6-1.6v-.3c0-.2.1-.3.3-.3h.7c.2,0,.3.1.3.3v.2c0,.4.2.6.6.6h.8c.3,0,.5-.2.5-.5v-.3c0-.2,0-.4-.3-.5l-1.5-.4h0Z"/>
        <path class="st2" d="M43.6,68h1.8v-.4c0-.5-.2-.8-.7-.8h-.4c-.5,0-.7.3-.7.8v.4ZM45.5,69.9c0-.2.1-.3.3-.3h.7c.2,0,.3.1.3.3v.2c0,1.2-.8,1.7-1.9,1.7h-.5c-1.1,0-1.9-.6-1.9-1.7v-2.7c0-1,.8-1.7,1.7-1.7h.9c.9,0,1.7.7,1.7,1.7v1.3c0,.2-.1.3-.3.3h-2.8v1c0,.5.2.8.7.8h.4c.5,0,.7-.3.7-.8h0c0,0,0,0,0,0Z"/>
        <path class="st2" d="M48.9,69.2c-.8-.2-1.2-.6-1.2-1.4v-.4c0-.9.6-1.6,1.6-1.6h1.1c.9,0,1.6.6,1.6,1.5v.3c0,.2-.1.3-.3.3h-.7c-.2,0-.3,0-.3-.3v-.3c0-.3-.2-.5-.5-.5h-.8c-.3,0-.5.2-.5.5v.3c0,.2,0,.4.3.4l1.4.4c.8.2,1.3.6,1.3,1.4v.5c0,.9-.6,1.6-1.6,1.6h-1.2c-1,0-1.6-.5-1.6-1.6v-.3c0-.2.1-.3.3-.3h.7c.2,0,.3.1.3.3v.2c0,.4.2.6.6.6h.8c.3,0,.5-.2.5-.5v-.3c0-.2,0-.4-.3-.5l-1.5-.4h0Z"/>
        <path class="st2" d="M54.1,69.2c-.8-.2-1.2-.6-1.2-1.4v-.4c0-.9.6-1.6,1.6-1.6h1.1c.9,0,1.6.6,1.6,1.5v.3c0,.2-.1.3-.3.3h-.7c-.2,0-.3,0-.3-.3v-.3c0-.3-.2-.5-.5-.5h-.8c-.3,0-.5.2-.5.5v.3c0,.2,0,.4.3.4l1.4.4c.8.2,1.3.6,1.3,1.4v.5c0,.9-.6,1.6-1.6,1.6h-1.2c-1,0-1.6-.5-1.6-1.6v-.3c0-.2.1-.3.3-.3h.7c.2,0,.3.1.3.3v.2c0,.4.2.6.6.6h.8c.3,0,.5-.2.5-.5v-.3c0-.2,0-.4-.3-.5l-1.5-.4h0Z"/>
        <path class="st2" d="M62,66.4c.4-.5.9-.7,1.4-.7h.1c1,0,1.7.6,1.7,1.7v4.2c0,.2-.1.3-.3.3h-.7c-.2,0-.3-.1-.3-.3v-4c0-.5-.3-.8-.7-.8h-.2c-.4,0-.7.3-.7.7v4.1c0,.2-.1.3-.3.3h-.7c-.2,0-.3-.1-.3-.3v-4c0-.5-.3-.8-.7-.8h-.2c-.5,0-.7.3-.7.8v4c0,.2-.1.3-.3.3h-.7c-.2,0-.3-.1-.3-.3v-5.6c0-.2.1-.3.3-.3h.7c.2,0,.3.1.3.3v.2c.3-.3.8-.5,1.2-.5h0c.6,0,1.1.3,1.4.7"/>
        <path class="st2" d="M67.6,68h1.8v-.4c0-.5-.2-.8-.7-.8h-.4c-.5,0-.7.3-.7.8,0,0,0,.4,0,.4ZM69.4,69.9c0-.2.1-.3.3-.3h.7c.2,0,.3.1.3.3v.2c0,1.2-.8,1.7-1.9,1.7h-.5c-1.1,0-1.9-.6-1.9-1.7v-2.7c0-1,.8-1.7,1.7-1.7h.9c.9,0,1.7.7,1.7,1.7v1.3c0,.2-.1.3-.3.3h-2.8v1c0,.5.2.8.7.8h.4c.5,0,.7-.3.7-.8h0c0,0,0,0,0,0Z"/>
        <path class="st2" d="M74.3,65.7c.9,0,1.7.6,1.7,1.7v4.2c0,.2-.1.3-.3.3h-.7c-.2,0-.3-.1-.3-.3v-4c0-.5-.3-.8-.7-.8h-.3c-.5,0-.7.3-.7.8v4c0,.2-.1.3-.3.3h-.7c-.2,0-.3-.1-.3-.3v-5.6c0-.2.1-.3.3-.3h.7c.2,0,.3.1.3.3v.2c.3-.3.8-.5,1.2-.5,0,0,.2,0,.2,0Z"/>
        <path class="st2" d="M78.6,66.8v3.6c0,.3.2.4.5.4s.5,0,.7,0,.2,0,.2.2v.5c0,.2,0,.5-1.1.5s-1.6-.5-1.6-1.4v-3.7h-.6c-.2,0-.3-.1-.3-.3v-.5c0-.2.1-.3.3-.3h.6v-1.5c0-.2.1-.3.3-.3h.7c.2,0,.3.1.3.3v1.5h1.2c.2,0,.3.1.3.3v.5c0,.2-.1.3-.3.3h-1.2Z"/>
      </g>
    </g>
  </g>
</svg>