<?xml version="1.0" encoding="UTF-8"?>
<svg id="Layer_1" xmlns="http://www.w3.org/2000/svg" version="1.1" viewBox="0 0 325.2 256.1">
  <!-- Generator: Adobe Illustrator 29.2.0, SVG Export Plug-In . SVG Version: 2.1.0 Build 108)  -->
  <defs>
    <style>
      .st0 {
        fill: #26a8df;
      }

      .st1 {
        fill: #080717;
      }

      .st2 {
        fill: #fafafa;
      }
    </style>
  </defs>
  <path class="st2" d="M278,256.1c-4.6,0-9.3-.7-13.9-2.1l-33-10.2h-60.4c-1.1.6-2.3,1-3.6,1.1-24.1,2.9-47.3,5.9-69,9-.5,0-.9,0-1.4,0-1.6,0-3.2-.4-4.6-1.1-23.1-6.1-44.3-11.5-64.8-16.6-3.9-1-6.9-4.2-7.5-8.2-.6-4-1.3-8-1.9-12l-.4-2.4s-4.1-3.1-4.2-3.1c-4.5-3.5-7.7-8.4-8.9-13.8-.3-1.3-.4-2.6-.4-3.9-.4-1.4-.5-2.8-.3-4.2-.3-.8-.5-1.6-.7-2.4-.5-2.3-.5-4.6,0-6.9-.6-1.4-1.1-2.8-1.4-4.3-.4-1.9-.5-3.9-.3-5.8-.4-1-.7-2-.9-3-2.2-9.3,4.2-14.7,6.3-16.4.1-.1.3-.2.4-.3h.2c0-.1-2.8-17.7-2.8-17.7,0-.3,0-.7-.1-1-.1-1.6.2-3.3.9-4.8.6-1.4,3.2-5.9,9.6-5.9s1.6,0,3.5.2c1.2-.6,2.4-1.3,3.5-2,.2,0,.3-.2.5-.3,2.3-1.2,4.4-1.2,5.1-1.2s1,0,1.5.1c2.5.4,5,.8,7.5,1.1l.2-.3c.4-.9.9-1.6,1.5-2.3,6.6-7.5,16.1-11.8,26.1-11.8s2,0,2.9.1c-4.5-2.6-8.1-6.3-10.4-10.7-2.8-5.5-3.4-11.7-1.5-17.5l6.5-19.8c3.9-12.2,13.4-22.2,26-27.7l-.8-4.9c-1-5.7.6-11.4,4.4-15.9,3.9-4.6,9.7-7.3,15.8-7.3s1.6,0,2.4.1l6.9.8c3.3.4,6.4,1.5,9.1,3.3,3.4,0,6.7,1.7,8.7,4.4,4.1,5.5,5.2,12.5,2.7,18.7l-1.1,2.9c9.3,5.2,16.5,13.3,20.4,22.8v-1c0-15.2,8.8-28.8,22.4-35.2,7.4-5.2,16-8.1,25.1-8.2,2-2.1,4.9-3.3,7.9-3.3s2.9.3,4.2.8c.5.2,1,.4,1.4.7.4.2.7.5,1.1.7.5,0,1,0,1.4,0s.3,0,.4,0c3.2,0,6.1,1.4,8.2,3.9,1.4,1.7,2.3,3.8,2.5,6,11.1,8.2,18,21.4,18,35.8v1.8c0,11.1-4,21.6-11.4,29.8-.5,1.2-1,2.4-1.6,3.5l2.2,9.6c13.5.5,23.5,6,31.4,17.4l46.9,66.8c8.4,11.8,10.8,26.6,6.6,40.5-3.6,12.2-11.8,22.2-23,28.2-6.9,3.6-14.6,5.6-22.2,5.6ZM134.3,121c3.1,1.7,5.9,3.9,8.4,6.5l6.8-.2c1.8-6,4.7-11.5,8.7-16.2,3.9-4.7,8.6-8.4,13.9-11.2-4.4-3.9-8-8.9-10.3-14.4.3,5.5-1.5,10.8-4.9,15.2-4,5.1-9.8,8.3-16.3,9.1l-3.1.4-3.3,10.8Z"/>
  <path class="st1" d="M308.4,187.6l-46.9-66.8c-5.7-8.2-12.7-13.1-25.1-13.1s-3.9.2-5.7.6c0,0-.1,0-.2,0l-5-21.7c1.5-2.2,2.7-4.7,3.5-7.3,6.2-6.2,10.1-14.9,10.1-24.4v-1.8c0-15.2-9.8-28.1-23.6-32.7,2.1-1,4.5-.9,4.5-.9.6,0,1-.3,1.1-.9,0-.6-.3-1.1-.9-1.1s-3.3-.1-6,1.4c0-1.8-1.1-3-1.9-3.5-.5-.2-1.1,0-1.4.4-.2.5-.1,1.1.4,1.4,0,0,1.1.7.8,2.2-2.4-.5-4.9-.8-7.5-.8-7.8,0-14.9,2.6-20.7,6.9-10.3,4.4-17.5,14.6-17.5,26.5v5.9c0,4.1.9,8.1,2.4,11.6v3.9c1.5,12.2,10,21.9,21.2,25.3l1.4,6.2c-9.8.4-19.2,4.9-25.5,12.6-4.7,5.5-7.4,12.2-8.1,19.4h0c-6.6.3-13.2.6-19.7.8-3.4-5-8.5-8.7-14.7-10.3l-1.4-.3,7.9-26,9.6-1.2c7.7-.9,13.2-7.6,12.3-14.9l-2.4-19.6c-1.7-14-12.1-25.5-25.9-29.8.2-.1.3-.3.4-.5.1-.3,0-.6-.1-.9l4-10.5c1.2-3,.7-6.3-1.4-9.1-.3-.4-1-.5-1.4-.2-.4.3-.5,1-.2,1.4,1.7,2.3,2.1,4.8,1.2,7.2l-4,10.4s0,0-.1,0l2.6-10.2c1.5-5.8-2.8-11.5-9.1-12.2l-6.9-.8c-6.9-.8-12.7,4.9-11.6,11.4l1.9,11.4c-.4.2-.7.3-.7.3-.5.2-.7.8-.5,1.3,0,.2.3.4.5.5-12.8,3.5-22.9,12.2-26.7,23.9l-6.5,19.8c-2.4,7.4,2.6,15.4,11.2,18.1l16.3,4.9c.7.7,1.4,1.3,2.2,1.9l-4.8,15.1c0,.1,0,.3,0,.5l-19.5-4.8c-9-2.2-18.4.8-24.5,7.7l-3.3,7.1c-4.9-.8-9.9-1.5-14.9-2.3-.2,0-.4,0-.6,0-2.2,1.3-4.4,2.5-6.5,3.7-3.9-.5-6.2-.7-6-.5h0c1.2,8,2.5,15.8,3.7,23.7l-5,3.7c-2.4,2-3.7,3.6-3,6.5.3,1.5,1,2.9,1.9,4.1-.8,1.4-1,3.1-.7,4.8.5,2.1,1.4,3.9,2.7,5.6-1.2,1.6-1.7,3.6-1.2,5.6.3,1.4.9,2.8,1.6,4l-.8,1.8h1.2c-.7,1.4-1,3.1-.6,4.7.7,3.2,2.6,6,5.2,8l6.3,4.7c.2.2.4.2.6.2v-.2c.1,0,.2,0,.3,0,1,6.4,2,12.8,3,19.3,23.3,5.7,45.6,11.5,67,17.1,0,0,0,.2,0,.3,22.1-3.1,45.2-6.1,69.2-9,.1-.4.2-.8.3-1.2h66.3l34.5,10.6c3.6,1.1,7.3,1.7,11,1.7h0c6,0,12-1.5,17.5-4.4,8.9-4.7,15.3-12.6,18.1-22.2,3.3-10.9,1.4-22.6-5.2-31.9Z"/>
  <g id="Layer_2">
    <g id="_Layer_">
      <g>
        <g>
          <path class="st2" d="M281.7,233.7l-43-122.8c0-1.1-25.1-3.4-43-4.8-11.1-.9-21.9,3.6-29,12.2h0c-4.5,5.3-7.2,11.9-7.8,18.9l-8.8,96.6h131.7,0Z"/>
          <path class="st1" d="M280.8,234l-42.9-122.5c-1.2-.4-7.8-1.7-42.3-4.5-10.7-.9-21.3,3.5-28.2,11.8-4.4,5.2-7,11.5-7.6,18.3l-8.8,96.6-2-.2,8.8-96.6c.7-7.2,3.4-13.9,8.1-19.4,7.3-8.8,18.5-13.4,29.9-12.5,41.9,3.4,43.9,4.4,43.9,5.7l43,122.7-1.9.7h0Z"/>
        </g>
        <g>
          <g>
            <path class="st2" d="M186.8,80.7l34.3-8,9.9,42.6c1.4,6.2-2.4,12.4-8.6,13.8l-14.7,3.4c-4.7,1.1-9.3-1.8-10.4-6.5l-10.5-45.3h0Z"/>
            <path class="st1" d="M205.8,133.8c-4.4,0-8.4-3-9.4-7.5l-10.5-45.3c-.1-.5.2-1.1.8-1.2l34.3-8c.5,0,1.1.2,1.2.8l9.9,42.6c.8,3.2.2,6.6-1.6,9.4s-4.5,4.8-7.8,5.6l-14.7,3.4c-.7.2-1.5.2-2.2.2ZM188,81.5l10.3,44.3c1,4.1,5.1,6.7,9.2,5.8l14.7-3.4h0c2.7-.6,5.1-2.3,6.5-4.7,1.5-2.4,1.9-5.2,1.3-7.9l-9.7-41.6-32.4,7.5h.1Z"/>
          </g>
          <path class="st1" d="M194.5,110.5l-6.3-22.7,20.7-5.7,8.7,5.9c-2.7,10.1-10.8,18.3-23.1,22.4h0Z"/>
          <path class="st1" d="M204.6,18.6h0c19.1,0,34.5,15.5,34.5,34.5v1.8c0,19.1-15.5,34.5-34.5,34.5h0c-19.1,0-34.5-15.5-34.5-34.5v-1.8c0-19.1,15.5-34.5,34.5-34.5Z"/>
          <path class="st1" d="M195.2,86.7h0c-15.9,0-28.8-12.9-28.8-28.8v-5.9c0-15.9,12.9-28.8,28.8-28.8h0c15.9,0,28.8,12.9,28.8,28.8v5.9c0,15.9-12.9,28.8-28.8,28.8Z"/>
          <g>
            <path class="st2" d="M169.7,58.9v-.2c0-16.1,13-29.1,29.1-29.1h1.6c10.9,0,20.4,6,25.4,14.8l1.9-.6c3.8-1.1,7.8,1,8.9,4.8,1.1,3.8-1,7.8-4.8,8.9l-2.2.7v11.5c0,16.1-13,29.1-29.1,29.1h-1.6c-14.9,0-27.2-11.2-28.9-25.7l-.2-14.4h0v.2Z"/>
            <path class="st1" d="M200.4,100h-1.6c-15.3,0-28.1-11.4-29.9-26.6h0l-.2-14.5h0v-.2c0-16.6,13.5-30.1,30.1-30.1h1.6c10.6,0,20.4,5.6,25.8,14.7l1.1-.3c4.3-1.3,8.9,1.2,10.2,5.5s-1.2,8.9-5.5,10.2l-1.5.4v10.8c0,16.6-13.5,30.1-30.1,30.1h0ZM170.9,73.3c1.7,14.1,13.7,24.7,27.9,24.7h1.6c15.5,0,28.1-12.6,28.1-28.1v-11.5c0-.4.3-.8.7-1l2.2-.7c3.3-1,5.2-4.4,4.2-7.7s-4.4-5.2-7.7-4.2l-1.9.6c-.4,0-.9,0-1.2-.5-5-8.8-14.4-14.3-24.5-14.3h-1.6c-15.5,0-28.1,12.6-28.1,28.1v.2l.2,14.3h.1Z"/>
          </g>
          <path class="st1" d="M228.9,54.4c-.5,0-.9-.3-1-.8-.8-4.7,3.1-7.1,3.2-7.2.5-.3,1.1,0,1.4.3s.1,1.1-.3,1.4c-.1,0-2.8,1.8-2.3,5.2,0,.5-.3,1.1-.8,1.2h-.2,0Z"/>
          <path class="st1" d="M182.6,59.4c.4,1.1-1.7,3-4.8,4.2s-6,1.2-6.4,0,1.7-3,4.8-4.2,6-1.2,6.4,0Z"/>
          <path class="st1" d="M204.9,57.8c0,1.2-2.8,2-6.1,1.8s-5.9-1.4-5.8-2.6c0-1.2,2.8-2,6.1-1.8s5.9,1.4,5.8,2.6Z"/>
          <path class="st1" d="M191.5,78.1h0c-1.4,0-2.6-.9-3.5-2-.8-1.1-1.1-2.5-.8-3.9l1.6-7.7c.1-.5.6-.9,1.2-.8s.9.6.8,1.2l-1.6,7.7c-.2.8,0,1.6.5,2.3.5.7,1.2,1.1,2.1,1.2.6,0,.9.6.9,1.1s-.5.9-1,.9h-.2Z"/>
          <path class="st1" d="M197.3,86.4c-.8,0-1.7-.2-2.6-.5-.5-.2-.8-.8-.6-1.3s.8-.8,1.3-.6c1.4.5,2.5.5,3.6,0,2.6-1.4,3.6-5.5,3.6-5.5.1-.5.7-.9,1.2-.8s.9.7.8,1.2c0,.2-1.2,5-4.6,6.8-.8.4-1.7.7-2.7.7h0Z"/>
          <path class="st1" d="M206.3,30.1c5.9,2,11,4.6,14.8,7.3-.1,1.1-.4,2.1-.7,3.2-1.7,5-5.6,8.7-10.7,10.8-3.1-.5-6.4-1.3-9.7-2.4-13.6-4.6-23.1-12.5-21.4-17.7,1.8-5.2,14.2-5.7,27.7-1.2h0Z"/>
          <path class="st1" d="M199.6,66.5c0,2-.9,3.7-2.2,3.8s-2.4-1.5-2.5-3.6c0-2,.9-3.7,2.2-3.8s2.4,1.5,2.5,3.6Z"/>
          <path class="st1" d="M180.6,71.1c0,2-.9,3.7-2.2,3.8s-2.4-1.5-2.5-3.6.9-3.7,2.2-3.8,2.4,1.5,2.5,3.6Z"/>
          <path class="st1" d="M212.1,23.4h-.4c-.5-.2-.7-.8-.5-1.3,2.2-4.9,8.8-4.6,9-4.6.6,0,1,.5.9,1.1-.1.6-.5,1-1.1.9,0,0-5.5-.2-7.1,3.4-.2.4-.5.6-.9.6h.1Z"/>
          <path class="st1" d="M212.9,21.2h-.3c-.5-.2-.8-.8-.6-1.3.6-1.9-.7-2.7-.7-2.7-.5-.3-.6-.9-.4-1.4.3-.5.9-.6,1.4-.4,1,.6,2.6,2.3,1.6,5.1-.1.4-.5.7-.9.7h-.1Z"/>
          <path class="st1" d="M197.4,51.2h-.2c-8.5-1.9-15-6-19.2-12.3-.3-.5-.2-1.1.3-1.4s1.1-.2,1.4.3c3.9,5.8,9.9,9.7,18,11.4.5,0,.9.7.8,1.2,0,.5-.5.8-1,.8h-.1Z"/>
          <path class="st1" d="M226.8,39.3l-.6,22.7c0,1.1-1.1,2-2.5,2.2h0c-1.6.2-3.2-.6-3.6-1.8l-10-27.1,16.7,4h0Z"/>
        </g>
        <g>
          <path class="st1" d="M139.4,190c2-9,3.1-21.2,3.1-37.9l-.4-3.6c-1.2-10.2-8.7-18.6-18.7-21.1l-53.1-13c-9-2.2-18.4.8-24.5,7.7L13.7,190h125.7Z"/>
          <g>
            <path class="st2" d="M90.8,118.9l13.1,20.7c3.5,5.5,11.8,4.4,13.7-1.8l14.8-48.6-29.2-9.3-12.4,39h0Z"/>
            <path class="st1" d="M110.2,144.2c-2.9,0-5.6-1.5-7.2-4l-13.1-20.7c-.2-.2-.2-.6,0-.8l12.4-39c0-.2.3-.5.5-.6s.5-.2.8,0l29.2,9.3c.5.2.8.7.7,1.2l-14.8,48.6c-1,3.2-3.7,5.6-7.1,6h-1.3ZM91.8,118.8l12.8,20.3c1.4,2.2,3.9,3.4,6.4,3s4.7-2.1,5.4-4.6l14.5-47.7-27.3-8.7-11.9,37.6h0Z"/>
          </g>
          <path class="st1" d="M97.6,103l7.3-23.1,27.5,8.7-7.8,24.7c-9.8.8-19.8-2.7-26.9-10.3h0Z"/>
          <path class="st1" d="M109.3,33.3l7.4.9c17.2,2.1,30.7,15,32.7,31.2l2.4,19.6c.9,7.3-4.6,14-12.3,14.9l-29.8,3.7-.3-70.3h0Z"/>
          <path class="st1" d="M123.1,34l-8.6-.6c-20-1.4-37.8,9.1-43.1,25.5l-6.5,19.8c-2.4,7.4,2.6,15.4,11.2,18.1l33.2,10,13.7-72.8h0Z"/>
          <path class="st1" d="M120.1,42.4h-.4c-.5-.2-.8-.8-.6-1.3l6.9-18.1c.9-2.4.5-4.9-1.2-7.2-.3-.4-.2-1.1.2-1.4.4-.3,1.1-.2,1.4.2,2.1,2.8,2.6,6.1,1.4,9.1l-6.9,18.1c-.2.4-.5.7-.9.7h0Z"/>
          <path class="st1" d="M119.8,41.6l4.7-18.5c1.5-5.8-2.8-11.5-9.1-12.2l-6.9-.8c-6.9-.8-12.7,4.9-11.6,11.4l3.6,21.3,19.3-1.3h0Z"/>
          <g>
            <path class="st2" d="M72.1,65.6c1.4-4.8,6.5-7.5,11.3-6.1h.2c4-13.8,14.4-23.6,26.6-23.6s24.8,12.1,27.6,28.2c4.2.2,7.8,3.3,8.6,7.6h0c.8,4.9-2.5,9.6-7.5,10.4l-1.6.3c-3.5,15-14.3,25.9-27.1,25.9s-25.7-13-27.9-30.1l-4-1.2c-4.8-1.4-7.5-6.5-6.1-11.3h0Z"/>
            <path class="st1" d="M110.1,109.2c-14.2,0-26.2-12.7-28.8-30.4l-3.4-1c-2.6-.8-4.7-2.5-6-4.9s-1.6-5.1-.8-7.7c.8-2.6,2.5-4.7,4.9-6,2.1-1.2,4.5-1.5,6.9-1,4.4-14.1,15.2-23.5,27.2-23.5s25.2,11.6,28.4,28.3c4.4.6,8,3.9,8.7,8.3.9,5.5-2.8,10.7-8.3,11.6l-.9.2c-3.8,15.3-15.2,26-27.9,26h0ZM80.8,60.1c-1.3,0-2.6.3-3.8,1-1.9,1-3.3,2.7-3.9,4.8h0c-.6,2.1-.4,4.2.6,6.2s2.7,3.3,4.8,3.9l4,1.2c.4,0,.7.4.7.8,2.2,17,13.5,29.3,26.9,29.3s22.7-10.3,26.2-25.1c0-.4.4-.7.8-.8l1.6-.3c4.4-.7,7.4-4.9,6.6-9.3-.6-3.7-3.8-6.6-7.6-6.7-.5,0-.9-.4-.9-.8-2.8-15.9-14-27.4-26.6-27.4s-21.6,9.2-25.6,22.9c0,.3-.2.5-.5.6s-.5.2-.8,0h-.2c-.8-.3-1.5-.4-2.3-.4h0ZM72.1,65.6h0Z"/>
          </g>
          <path class="st1" d="M97.7,37.9c3.9-2.6,8.2-4,12.8-4,13.9,0,25.5,13.1,28.4,30.6.9,0,1.8.2,2.7.5-16.3.8-33-9.7-43.9-27.2h0Z"/>
          <path class="st1" d="M130.7,68.6h0c-13.2-1.3-25.6-11.8-32.3-27.3-.2-.5,0-1.1.5-1.3.5-.2,1.1,0,1.3.5,6.4,14.9,18.2,24.9,30.7,26.1.6,0,.9.5.9,1.1s-.5.9-1,.9h0Z"/>
          <path class="st1" d="M103.3,55.2c-.3,0-.6-.2-.8-.4-3.2-4.6-5.1-10.1-5.7-16.3,0-.6.4-1,.9-1.1.5,0,1,.4,1.1.9.5,5.9,2.3,11,5.3,15.4.3.4.2,1.1-.2,1.4-.2,0-.4.2-.6.2h0Z"/>
          <path class="st1" d="M82.6,71.9h-.2c-.5,0-.9-.6-.8-1.2.5-3-1.9-4.5-2-4.6-.5-.3-.6-.9-.3-1.4s.9-.6,1.4-.3c.2,0,3.7,2.3,3,6.6,0,.5-.5.8-1,.8h0Z"/>
          <path class="st1" d="M138.7,76c-.5,0-.9-.4-1-.9,0-.2-.5-4.3,3.3-6.4.5-.3,1.1,0,1.4.4s0,1.1-.4,1.4c-2.7,1.5-2.3,4.3-2.3,4.4,0,.6-.3,1.1-.9,1.1h-.1Z"/>
          <path class="st1" d="M120,71.9c0,1.8-1.2,3.3-2.3,3.2-1.2,0-2-1.6-1.9-3.5,0-1.8,1.2-3.3,2.3-3.2,1.2,0,2,1.6,1.9,3.5Z"/>
          <path class="st1" d="M101.2,71.7c0,1.8-.9,3.3-2.1,3.3s-2.1-1.5-2.1-3.3.9-3.3,2.1-3.3,2.1,1.5,2.1,3.3Z"/>
          <path class="st1" d="M110.6,97.1c-.5,0-.9-.3-1-.8s.2-1.1.8-1.2c5.3-1.1,7.8-5,7.8-5,.3-.5.9-.6,1.4-.3.5.3.6.9.3,1.4,0,.2-3,4.6-9.1,5.9h-.2Z"/>
          <path class="st1" d="M107.3,86.3h-.2c-1.2-.3-2.3-1.1-3-2.2s-.8-2.5-.3-3.7l2.3-6.8c.2-.5.8-.8,1.3-.6s.8.8.6,1.3l-2.3,6.8c-.2.7-.2,1.4.2,2.1.4.6.9,1.1,1.7,1.2.5,0,.9.7.8,1.2s-.5.8-1,.8h0Z"/>
          <path class="st0" d="M122.9,35.7h-.3c-13.9-4.9-23.6-.7-23.7-.7-.5.2-1.1,0-1.3-.5-.2-.5,0-1.1.5-1.3.4-.2,10.5-4.6,25.2.6.5.2.8.8.6,1.3-.2.4-.5.7-.9.7h0Z"/>
        </g>
        <path class="st2" d="M57.5,190.8h-.4c-.5-.2-.7-.8-.5-1.3l7.5-17.4c.2-.5.8-.7,1.3-.5s.7.8.5,1.3l-7.5,17.4c-.2.4-.5.6-.9.6h0Z"/>
        <g>
          <g>
            <path class="st2" d="M159.6,229.7c8.9-29.1,18.1-58.2,27.8-87.3-2.3-1.7-4.7-3.4-7.1-5.2-18.6.6-36.9,1.2-55,1.8-7.5.2-14.9,2-21.3,5.2h0c9.1,28.7,15.9,57.3,20.4,85.8,11.7-.1,23.4-.2,35.3-.3h0Z"/>
            <path class="st1" d="M124.3,231c-.5,0-.9-.4-1-.8-4.4-28.3-11.3-57.1-20.4-85.6-.2-.5,0-1,.5-1.2,6.5-3.2,14-5.1,21.7-5.3,18.1-.6,36.5-1.2,55-1.8.2,0,.4,0,.6.2,2.4,1.7,4.8,3.4,7.1,5.2.3.3.5.7.4,1.1-9.6,28.9-18.9,58.3-27.7,87.3-.1.4-.5.7-.9.7-11.8,0-23.6.2-35.3.3h0ZM159.6,229.7h0ZM105.1,144.8c8.9,28.1,15.6,56.4,20.1,84.2,11.1,0,22.4-.2,33.7-.3,8.7-28.5,17.9-57.4,27.3-85.9-2.1-1.5-4.1-3-6.2-4.5-18.5.6-36.7,1.2-54.7,1.7-7.1.2-14,1.9-20.1,4.8h-.1Z"/>
          </g>
          <path class="st0" d="M192.7,141.2c-8.9,31.3-17.9,62.5-26.8,93.8-24,2.9-47.1,5.9-69.2,9,2-33.3,4-66.5,6-99.8-.7,0,91.6-4.4,90-2.9h0Z"/>
          <g>
            <path class="st2" d="M36.6,222.2c-5.3-30-10.9-60-16.9-90,2.5-1.4,5.1-2.8,7.7-4.3,18.4,2.8,36.5,5.6,54.4,8.4,7.4,1.2,14.5,3.8,20.5,7.8h0c-12.6,27.4-22.8,55-30.7,82.7-11.6-1.5-23.2-3.1-35-4.6h0Z"/>
            <path class="st1" d="M71.6,227.8h0c-11.6-1.5-23.2-3.1-35-4.6-.4,0-.8-.4-.8-.8-5.3-29.8-10.9-60.1-16.9-90,0-.4.1-.9.5-1.1,2.5-1.4,5.1-2.8,7.7-4.3.2,0,.4,0,.6,0,18.4,2.8,36.5,5.6,54.4,8.4,7.6,1.2,14.8,3.9,20.9,7.9.4.3.6.8.4,1.2-12.5,27.2-22.8,55-30.6,82.5,0,.4-.5.7-1,.7h0v.2ZM37.5,221.3c11.2,1.5,22.3,2.9,33.4,4.4,7.8-27.1,17.9-54.4,30.2-81.2-5.6-3.6-12.3-6.1-19.3-7.2-17.8-2.8-35.8-5.6-54.1-8.4-2.3,1.2-4.5,2.5-6.8,3.7,5.9,29.4,11.5,59.2,16.7,88.6h-.1Z"/>
          </g>
          <path class="st0" d="M14.5,130.3c5.1,32.1,10.2,64.2,15.2,96.3,23.5,5.8,46,11.6,67.6,17.3,2.1-33.3,4.1-66.5,6.2-99.8.7,0-90.4-15.5-89-13.9h0Z"/>
          <path class="st1" d="M90.9,241.9h0c-.6,0-1-.5-1-1l3.8-95.8c0-.6.5-1,1-1s1,.5,1,1l-3.8,95.8c0,.5-.5,1-1,1Z"/>
          <path class="st1" d="M102.6,242.6h0c-.6,0-1-.5-.9-1.1l7.6-95.6c0-.6.5-1,1.1-.9.6,0,1,.5.9,1.1l-7.6,95.6c0,.5-.5.9-1,.9h0Z"/>
        </g>
        <g>
          <g>
            <path class="st2" d="M19.6,166.9l.9,7.1-5.3-3.9c-2.1-1.5-3.5-3.7-4.1-6.2h0c-.5-2.2.2-3.5,2.7-5.5l13.3-9.9,1.1,3.3c.8,2.3.2,4.9-1.4,6.8l-7.2,8.4h0Z"/>
            <path class="st1" d="M20.5,175c-.2,0-.4,0-.6-.2l-5.3-3.9c-2.2-1.7-3.8-4.1-4.4-6.8-.7-2.9.6-4.5,3-6.5l13.3-9.9c.3-.2.6-.2.9-.2s.6.3.7.6l1.1,3.3c.9,2.7.3,5.6-1.6,7.8l-7,8.1.9,6.7c0,.4-.1.8-.5,1-.2,0-.3.1-.5.1h0ZM26.6,150.1l-12.2,9.1c-2.4,1.9-2.7,2.8-2.3,4.5.5,2.3,1.8,4.3,3.7,5.7l3.4,2.5-.6-4.8c0-.3,0-.6.2-.8l7.2-8.4c1.4-1.6,1.8-3.8,1.2-5.8l-.6-2h0Z"/>
          </g>
          <g>
            <path class="st2" d="M22.4,176.5l1.1,8.4-6.3-4.7c-2.4-1.8-4.2-4.4-4.8-7.4h0c-.6-2.7.7-5.3,3.2-6.5l20.7-10.4,1,5.5c.5,2.9-.7,5.8-3.1,7.4l-11.9,7.7h.1Z"/>
            <path class="st1" d="M23.5,185.9c-.2,0-.4,0-.6-.2l-6.3-4.7c-2.6-2-4.5-4.8-5.2-8-.7-3.1.8-6.3,3.7-7.7l20.7-10.4c.3-.1.6-.1.9,0s.5.4.5.7l1,5.5c.6,3.2-.8,6.5-3.5,8.4l-11.3,7.4,1.1,7.8c0,.4-.1.8-.5,1-.2,0-.3.1-.5.1h0ZM35.5,157.4l-19.6,9.8c-2,1-3.1,3.2-2.6,5.4.6,2.7,2.2,5.2,4.4,6.8l4.4,3.3-.8-6.1c0-.4.1-.8.4-1l11.9-7.7c2-1.4,3.1-3.9,2.6-6.4l-.8-4.2h.1Z"/>
          </g>
          <g>
            <path class="st2" d="M23.9,187.6l1.1,8.4-6.3-4.7c-2.4-1.8-4.2-4.4-4.8-7.4h0c-.6-2.7.7-5.3,3.2-6.5l19-9.4,1,5.5c.5,2.9-.7,5.8-3.1,7.4l-10.1,6.7h0Z"/>
            <path class="st1" d="M25,197.1c-.2,0-.4,0-.6-.2l-6.3-4.7c-2.6-2-4.5-4.8-5.2-8-.7-3.1.8-6.3,3.7-7.7l19-9.4c.3-.1.6-.1.9,0s.5.4.5.7l1,5.5c.6,3.2-.8,6.5-3.5,8.4l-9.6,6.4,1.1,7.8c0,.4-.1.8-.5,1-.2,0-.3.1-.5.1h0ZM35.3,169.4l-17.8,8.9c-2,1-3.1,3.2-2.6,5.4.6,2.7,2.2,5.2,4.4,6.8l4.4,3.3-.8-6.1c0-.4.1-.8.4-1l10.1-6.7c2.1-1.4,3.1-3.9,2.6-6.4l-.8-4.2h0Z"/>
          </g>
          <g>
            <path class="st2" d="M25.3,198.2l1.1,8.4-6.3-4.7c-2.4-1.8-4.2-4.4-4.8-7.4h0c-.6-2.7.7-5.3,3.2-6.5l16.5-8,1,5.5c.5,2.9-.7,5.8-3.1,7.4l-7.6,5.3h0Z"/>
            <path class="st1" d="M26.4,207.6c-.2,0-.4,0-.6-.2l-6.3-4.7c-2.6-2-4.5-4.8-5.2-8-.7-3.1.8-6.3,3.7-7.7l16.5-8c.3-.1.6-.1.9,0s.5.4.5.7l1,5.5c.6,3.2-.8,6.5-3.5,8.4l-7.1,4.9,1.1,7.8c0,.4-.1.8-.5,1-.2,0-.3.1-.5.1h0v.2ZM34.2,181.4l-15.3,7.4c-2,1-3.1,3.2-2.6,5.4.6,2.7,2.2,5.2,4.4,6.8l4.4,3.3-.8-6.1c0-.4.1-.7.4-1l7.6-5.3c2.1-1.4,3.1-3.9,2.6-6.4l-.8-4.2h.1Z"/>
          </g>
        </g>
        <path class="st1" d="M91.9,64.4c-.2,0-.4,0-.6-.2-.4-.3-.5-1-.2-1.4.2-.2,4.1-5.1,10.5-4.4.6,0,.9.6.9,1.1s-.6.9-1.1.9c-5.3-.6-8.6,3.4-8.8,3.6-.2.2-.5.4-.8.4h0Z"/>
        <g>
          <g>
            <path class="st2" d="M204.1,194.9l-64.7-12.1-14.6,5c-1.8.6-2.2,3.1-.6,4.2h0c.8.5,1.7.7,2.6.6l11.2-2.2,6.3,1.5-22.5,8.4c-1.2.4-1.7,1.8-1.1,2.9h0c.5,1,1.5,1.7,2.7,1.8h0l-1.5.8c-1.2.6-1.6,2.1-.9,3.3,0,0,1.2,1.7,3.6,1.7s12-3.5,12-3.5l9.7,3.1-9.4,5.7-4.9,5.2c-.8.9-.5,2.3.6,2.7h0c3.3,1.1,4.6-.1,7.6-1.9l1-.6,14.9-6.1s17.8,8.6,24.2,8.1c4.7-.4,8.6-4.6,8.6-4.6l13.1,4.7,2-28.5h0v-.2Z"/>
            <path class="st1" d="M135,225.3c-.8,0-1.6-.2-2.6-.5-.9-.3-1.5-1-1.7-1.9s0-1.8.7-2.4l5.1-5.4,7.5-4.5-7.2-2.3c-1.7.6-9,3.4-12.1,3.5-2.9,0-4.4-2-4.4-2.1-.5-.8-.7-1.8-.4-2.7.2-.8.7-1.4,1.3-1.8-.5-.4-.9-.8-1.2-1.4s-.5-1.7-.2-2.6c.3-.8,1-1.5,1.8-1.8l19.4-7.3-2.9-.7-11,2.2c-1.2.2-2.4,0-3.4-.7s-1.6-2-1.4-3.3,1.1-2.3,2.3-2.7l14.8-5.1h.3l65.6,12.3-2.2,30.7-13.7-4.9c-1.2,1.2-4.7,4.1-8.8,4.4-6.1.5-21.5-6.7-24.3-8l-14.4,5.9-1,.6c-.4.2-.7.4-1,.6-1.7,1-3,1.8-4.8,1.8h-.1ZM137.6,216.7l-4.8,5.1c-.2.2-.2.5-.2.6s0,.4.4.5c2.4.8,3.5.2,5.7-1.2.3-.2.7-.4,1.1-.6l1.2-.7,15.3-6.3.4.2c.2,0,17.6,8.4,23.7,8,4.3-.3,7.9-4.2,7.9-4.3l.4-.5,12.4,4.5,1.9-26.3-63.6-11.9-14.3,4.9c-.5.2-.9.6-.9,1.1s0,1,.6,1.3c.5.4,1.2.5,1.8.4l11.4-2.3,9.7,2.3-25.5,9.6c-.3.1-.5.3-.6.6s0,.6,0,.9c.4.7,1.1,1.2,1.9,1.2l3.5.3-4.7,2.4c-.3.2-.6.4-.7.8,0,.3,0,.7.2,1,0,0,1,1.2,2.7,1.2,2.5,0,9.3-2.5,11.7-3.5h.3c0-.1,12.1,3.7,12.1,3.7l-11.1,6.7h0v.3Z"/>
          </g>
          <g>
            <polygon class="st2" points="147 199.3 136 200.2 123.5 205 147 199.3"/>
            <polygon class="st1" points="123.8 206 123.1 204.1 135.9 199.2 147 198.3 147.1 200.3 136.3 201.2 123.8 206"/>
          </g>
        </g>
        <g>
          <path class="st2" d="M204.1,195.1l-2.1,28.3,65.3,20.1c19.3,5.9,39.7-5,45.4-24.3h0c3.1-10.6,1.2-22-5.1-31l-46.9-66.8c-5.6-7.9-14.6-12.6-24.3-12.6h0c-12,0-22.8,7.2-27.4,18.3l-3.5,8.4-1.3,59.8h0v-.2Z"/>
          <path class="st1" d="M278,246.1c-3.7,0-7.4-.6-11-1.7l-66-20.3,2.1-29.1,2,.2-2,27.5,64.5,19.9c9.1,2.8,18.7,1.9,27-2.6s14.4-12,17.1-21.1c3.1-10.3,1.2-21.3-4.9-30.2l-46.9-66.8c-5.4-7.7-14.2-12.2-23.5-12.2s-22,6.9-26.5,17.7l-3.5,8.4-1.8-.8,3.5-8.4c4.8-11.5,15.9-18.9,28.3-18.9s19.4,4.9,25.1,13.1l46.9,66.8c6.6,9.3,8.5,21,5.2,31.9-2.8,9.6-9.2,17.5-18.1,22.2-5.5,2.9-11.5,4.4-17.5,4.4h0Z"/>
        </g>
        <g>
          <path class="st2" d="M270.4,203.7l-66.3-8.8,66.3,8.8Z"/>
          <rect class="st1" x="236.2" y="165.9" width="2" height="66.9" transform="translate(8.3 408.1) rotate(-82.4)"/>
        </g>
        <g>
          <path class="st2" d="M256.9,202.2l-27.9-38.1,27.9,38.1Z"/>
          <path class="st1" d="M256.9,203.2c-.3,0-.6-.1-.8-.4l-27.9-38.1c-.3-.4-.2-1.1.2-1.4.4-.3,1.1-.2,1.4.2l27.9,38.1c.3.4.2,1.1-.2,1.4-.2.1-.4.2-.6.2h0Z"/>
        </g>
      </g>
    </g>
  </g>
</svg>